<svg width="219" height="16" viewBox="0 0 219 16" fill="none" xmlns="http://www.w3.org/2000/svg">
<path fill-rule="evenodd" clip-rule="evenodd" d="M211.955 3.24885C212.536 2.8341 213.408 2.76498 213.771 2.76498H214.86V6.84332H213.771C213.263 6.84332 212.391 6.77419 211.81 6.29032C211.302 5.80645 211.229 5.18433 211.229 4.76959C211.156 4.28571 211.302 3.73272 211.955 3.24885ZM209.777 8.7788L206 15H210.648L213.408 9.74654H214.788V15H219V0H213.989C210.503 0 209.196 0.760369 208.687 1.10599C207.888 1.65899 206.944 2.76498 206.944 4.90783C206.944 5.80645 207.089 6.84332 207.961 7.74194C208.397 8.15668 209.05 8.57143 209.777 8.7788Z" fill="#006695"/>
<path fill-rule="evenodd" clip-rule="evenodd" d="M195.005 15H190V0H194.135V6.42857L193.99 10.0922H194.135L198.995 0H204V15H199.865V8.57143L199.938 4.83871H199.865L195.005 15Z" fill="#006695"/>
<path fill-rule="evenodd" clip-rule="evenodd" d="M177.098 15H173V0H177.098V5.73733H181.902V0H186V15H181.902V8.57143H177.098V15Z" fill="#006695"/>
<path fill-rule="evenodd" clip-rule="evenodd" d="M160.052 15H155V0H159.186V6.42857L159.041 10.0922H159.186L164.021 0H169V15H164.887V8.57143L164.959 4.83871H164.887L160.052 15Z" fill="#006695"/>
<path fill-rule="evenodd" clip-rule="evenodd" d="M136.739 16C136.232 16 135.58 15.9269 135 15.8539V12.5662C135.217 12.6393 135.58 12.7123 135.87 12.7123C136.304 12.7123 136.739 12.5662 137.101 12.274C137.536 11.9087 137.609 11.4703 137.754 10.8858C137.971 9.7169 137.971 8.76712 138.043 7.52511C138.116 4.89498 138.116 3.87215 138.116 2.84932V0H150V15.8539H145.797V2.99543H141.957V4.89498C141.957 6.13699 141.884 8.47489 141.812 10.0822C141.667 11.7626 141.449 13.589 140.435 14.6849C139.638 15.4886 138.333 16 136.739 16Z" fill="#006695"/>
<path fill-rule="evenodd" clip-rule="evenodd" d="M119.883 3.24885C120.464 2.8341 121.335 2.76498 121.698 2.76498H122.788V6.84332H121.698C121.19 6.84332 120.318 6.77419 119.737 6.29032C119.229 5.80645 119.156 5.18433 119.156 4.76959C119.084 4.28571 119.229 3.73272 119.883 3.24885ZM117.777 8.7788L114 15H118.648L121.408 9.74654H122.788V15H127V0H121.989C118.503 0 117.196 0.760369 116.687 1.10599C115.888 1.65899 114.944 2.76498 114.944 4.90783C114.944 5.80645 115.089 6.84332 115.961 7.74194C116.324 8.15668 116.978 8.57143 117.777 8.7788Z" fill="#006695"/>
<path fill-rule="evenodd" clip-rule="evenodd" d="M103.5 3.04147L105.373 8.91705H101.483L103.5 3.04147ZM99.25 15L100.475 11.8203H106.309L107.462 15H112L106.021 0H100.907L95 15H99.25Z" fill="#006695"/>
<path fill-rule="evenodd" clip-rule="evenodd" d="M84.0492 15H80V0H84.0492V5.73733H88.9508V0H93V15H88.9508V8.57143H84.0492V15Z" fill="#006695"/>
<path fill-rule="evenodd" clip-rule="evenodd" d="M67.9767 8.43318H69.3023C69.7907 8.43318 70.6279 8.43318 71.186 8.7788C71.6744 9.12442 71.9535 9.6083 71.9535 10.2304C71.9535 11.0599 71.6047 11.4747 71.3256 11.682C70.6977 12.1659 69.6512 12.1659 69.093 12.1659H67.9767V8.43318ZM70.1395 15C71.186 15 72.9302 14.9309 74.3256 13.894C75.4419 13.0645 76 11.8894 76 10.3687C76 8.5023 75.2326 7.32719 74.5349 6.70507C73.1395 5.52995 71.0465 5.59908 69.8605 5.59908H68.0465V0H64V15H70.1395Z" fill="#006695"/>
<path fill-rule="evenodd" clip-rule="evenodd" d="M46.7308 16C46.226 16 45.5769 15.9269 45 15.8539V12.5662C45.2163 12.6393 45.5769 12.7123 45.8654 12.7123C46.2981 12.7123 46.7308 12.5662 47.0913 12.274C47.524 11.9087 47.5962 11.4703 47.7404 10.8858C47.9567 9.7169 47.9567 8.76712 48.0288 7.52511C48.101 4.89498 48.1731 3.87215 48.1731 2.84932V0H60V15.8539H55.8173V2.99543H51.9952V4.89498C51.9952 6.13699 51.9231 8.47489 51.7788 10.0822C51.6346 11.7626 51.4183 13.589 50.4087 14.6849C49.6154 15.4886 48.3173 16 46.7308 16Z" fill="#006695"/>
<path fill-rule="evenodd" clip-rule="evenodd" d="M35.428 3.04147L37.3008 8.91705H33.411L35.428 3.04147ZM31.25 15L32.4746 11.8203H38.3093L39.4619 15H44L38.0212 0H32.9068L27 15H31.25Z" fill="#006695"/>
<path fill-rule="evenodd" clip-rule="evenodd" d="M18.878 2.97235H15V0H27V2.97235H23.122V15H18.878V2.97235Z" fill="#006695"/>
<path fill-rule="evenodd" clip-rule="evenodd" d="M0 7.96444C0 5.26222 1.03175 3.12889 2.54497 1.84889C3.98942 0.64 6.12169 0 8.5291 0C9.3545 0 10.8677 0.0711111 12.9312 0.782222L12.5873 4.12444C11.6931 3.62667 10.2487 3.05778 8.73545 3.05778C7.15344 3.05778 6.05291 3.69778 5.43386 4.40889C4.67725 5.19111 4.0582 6.47111 4.0582 8.10667C4.0582 9.6 4.60847 10.88 5.43386 11.6622C6.25926 12.5156 7.7037 12.9422 9.07936 12.9422C10.1799 12.9422 11.5556 12.6578 12.7937 12.16L13 15.36C11.418 15.7867 10.2487 16 8.80423 16C2.68254 15.8578 0 12.4444 0 7.96444Z" fill="#006695"/>
</svg>
