<svg width="71" height="50" viewBox="0 0 71 50" fill="none" xmlns="http://www.w3.org/2000/svg">
<path fill-rule="evenodd" clip-rule="evenodd" d="M59.6166 41.295L42.1768 12.6619L31.9609 29.4964C30.4286 32.0144 27.8016 33.3813 25.0288 33.3813C23.6423 33.3813 22.1829 33.0216 20.8695 32.2302C17.075 29.9281 15.8345 25.036 18.0966 21.295C20.3587 17.554 25.3207 16.3309 29.1881 18.5612C29.261 18.5612 29.334 18.6331 29.407 18.705L28.3854 20.4317C28.3124 20.3597 28.2395 20.3597 28.2395 20.2878C25.3936 18.5612 21.6721 19.4964 19.9209 22.3022C18.1696 25.1079 19.1182 28.777 21.964 30.5036C24.8099 32.2302 28.5313 31.295 30.2826 28.4892L42.2497 8.84892L62.0247 41.3669H59.6166V41.295ZM56.4789 41.295L42.1768 17.8417L34.223 30.8633C31.1583 35.8993 24.518 37.482 19.483 34.5324C14.3751 31.5108 12.7698 24.964 15.8345 20C18.8993 14.964 25.5396 13.3813 30.5745 16.3309C30.6475 16.4029 30.7205 16.4029 30.7934 16.4748L29.7718 18.2014C29.6989 18.1295 29.6259 18.1295 29.6259 18.0576C25.4666 15.6115 20.1398 16.9065 17.6588 21.0072C15.1778 25.1079 16.4913 30.3597 20.6506 32.8777C24.8099 35.3237 30.1367 34.0288 32.6906 29.9281L42.3227 14.0288L58.9599 41.3669H56.4789V41.295ZM53.3412 41.295L42.1768 22.9496L36.5581 32.1583C32.6906 38.4173 24.445 40.5036 18.0966 36.6906C11.7482 32.9496 9.63207 24.7482 13.4995 18.4892C17.2939 12.2302 25.6125 10.1439 31.9609 13.9568C32.0339 14.0288 32.1069 14.0288 32.1799 14.1007L31.1583 15.8273C31.0853 15.7554 31.0123 15.7554 31.0123 15.6835C25.6125 12.446 18.5344 14.1727 15.3237 19.5683C12.0401 24.8921 13.7914 31.8705 19.2641 35.036C24.6639 38.2734 31.742 36.5468 34.9527 31.1511L42.3227 19.0647L55.8222 41.223H53.3412V41.295ZM50.2035 41.295L42.1768 28.1295L38.8201 33.5971C35.9013 38.3453 30.8664 41.0791 25.6855 41.295H24.2261C21.5992 41.1511 19.0452 40.4317 16.6372 38.9928C8.97533 34.4604 6.49435 24.6763 11.0915 17.1223C15.6886 9.56835 25.6125 7.1223 33.2744 11.6547C33.3474 11.7266 33.4203 11.7266 33.4203 11.7986L32.3988 13.5252C32.3258 13.5252 32.2528 13.4532 32.1799 13.4532C25.4666 9.4964 16.7831 11.6547 12.7698 18.2014C8.75642 24.8201 10.9455 33.3813 17.5858 37.3381C24.2991 41.295 32.9825 39.1367 36.9959 32.5899L42.0308 24.3165L52.3926 41.3669H50.2035V41.295ZM4.52415 0C2.04317 0 0 2.01439 0 4.53237V45.4676C0 47.9856 2.04317 50 4.52415 50H66.4758C68.9568 50 71 47.9856 71 45.4676V4.53237C71 2.01439 68.9568 0 66.4758 0H4.52415Z" fill="#006695"/>
</svg>
