<svg width="26" height="15" viewBox="0 0 26 15" fill="none" xmlns="http://www.w3.org/2000/svg">
<path d="M3.88123 5.08712L3.58536 3.64128L3.52741 3.62575L3.37122 4.95046L2.2376 9.18122L0.730751 8.77746L2.92036 0.605727L4.07947 0.916309L5.99264 6.06284L6.27465 7.4677L6.3326 7.48323L6.47947 6.19328L7.62241 1.92775L9.12926 2.33151L6.93965 10.5032L5.78054 10.1927L3.88123 5.08712ZM10.5228 2.70492L15.3331 3.99383L14.9542 5.40795L11.7319 4.54453L11.2256 6.43388L14.1582 7.21965L13.7793 8.63377L10.8467 7.848L10.3156 9.83008L13.5959 10.709L13.217 12.1231L8.34874 10.8187L10.5228 2.70492ZM17.4739 9.42497L17.2395 10.9026L17.2858 10.9151L17.8395 9.49807L20.4617 5.36804L21.5049 5.64757L21.6815 10.5524L21.4586 12.0332L21.505 12.0456L22.0702 10.6317L24.2636 6.38675L25.8748 6.81846L21.4481 14.3908L20.3817 14.105L20.141 9.20787L20.2763 7.91482L20.2183 7.89929L19.6858 9.09833L17.0435 13.2106L15.9191 12.9093L15.8833 4.14124L17.6103 4.60401L17.4739 9.42497Z" fill="#B60000"/>
</svg>
