<svg width="128" height="337" viewBox="0 0 128 337" fill="none" xmlns="http://www.w3.org/2000/svg">
<path fill-rule="evenodd" clip-rule="evenodd" d="M127.11 110.74C126.8 110.45 126.41 110.25 126.21 110.37C126.18 110.39 126.14 110.41 126.11 110.43C122.27 112.64 118.19 114.04 114 115.08C113.74 115.14 113.47 115.22 113.21 115.28C111.25 115.75 109.26 116.14 107.27 116.51C106.98 116.57 106.69 116.62 106.4 116.68C102.76 117.33 99.1 117.95 95.5 118.79H95.49C95.37 118.75 95.28 118.76 95.26 118.82C95.26 118.83 95.25 118.85 95.25 118.86C92.63 119.48 90.04 120.24 87.52 121.23C87.33 121.31 87.15 121.37 86.96 121.45C86.69 121.57 86.43 121.68 86.16 121.79C82.933 123.205 79.9811 125.179 77.44 127.62C77.2 127.85 76.97 128.08 76.75 128.32C72.07 133.16 69.35 139.62 71.58 146.39L71.21 146.79C70.45 146.08 69.97 146.66 70.74 147.41C71.05 147.73 71.37 148.02 71.69 148.31C68.83 150.76 65.55 152.41 61.85 153.66C61.68 151.51 61.49 149.36 61.28 147.2C60.11 135.29 58.86 123.44 58.33 111.48C59.53 109.04 64.05 106.88 65.98 105.54C68.03 104.12 70.12 102.78 72.19 101.39C72.99 102.7 74.08 103.91 75.52 104.91C80.2 109.14 86.56 109.23 92.6 107.22H92.61C93.05 107.07 93.5 106.91 93.93 106.73H93.94C97.5 105.36 100.89 103.29 103.69 100.97C104.03 100.68 104.36 100.39 104.68 100.12C105 99.8302 105.31 99.5402 105.61 99.2502C107.55 97.3602 109.3 95.3202 110.85 93.1402C111.27 92.5402 111.67 91.9502 112.05 91.3502V91.3302C113.23 89.5202 114.27 87.6202 115.17 85.6402C115.33 85.2902 115.49 84.9302 115.65 84.5602C117.69 79.7902 118.92 74.6802 119.31 69.4902V69.4802C119.39 68.4302 119.43 67.3902 119.44 66.3302C119.45 66.1402 119.32 65.8302 119.08 66.0202C118.98 66.0802 118.89 66.1602 118.79 66.2302L118.78 66.2402C114.87 69.0802 110.44 70.6602 105.83 71.7802C105.57 71.8302 105.32 71.8902 105.06 71.9502C101.96 72.6802 98.8 73.2202 95.68 73.8302C95.42 73.8702 95.16 73.9302 94.91 73.9902C92.79 74.4102 90.68 74.8902 88.64 75.5102C88.37 75.5802 88.1 75.6602 87.84 75.7502C84.87 76.6802 82.02 77.9102 79.4 79.7002C78.5639 80.2649 77.7624 80.8794 77 81.5402C71.92 85.9502 68.94 93.7902 71.44 99.8702C71.2 100.04 70.97 100.2 70.74 100.38C70.72 100.38 70.7 100.39 70.69 100.41C67.9 102.18 65.16 104.09 62.45 105.99C61.56 106.61 59.57 107.59 58.22 108.74C58.21 108.54 58.21 108.34 58.2 108.14C57.76 94.6802 58.6 81.3302 58.96 67.9102C69.08 68.1602 78.48 60.8302 80.08 50.1802C81.22 42.6002 78.96 34.6802 77.18 27.3602C75.49 20.3502 73.33 13.6102 69.44 7.49021C69.44 7.47021 69.42 7.45021 69.41 7.43021C69.41 7.43021 69.41 7.41021 69.4 7.41021C69.38 7.37021 69.34 7.31021 69.3 7.25021C67.87 5.18021 66.39 3.16021 65.26 0.91021C65.22 0.82021 65.13 0.70021 65 0.57021C64.85 0.41021 64.65 0.25021 64.45 0.14021C64.19 -0.00979003 63.93 -0.06979 63.76 0.12021C53.28 11.8302 43.41 25.7902 38.17 40.7502C37.79 41.8302 37.52 42.9102 37.36 43.9902C37.33 44.1802 37.3 44.3702 37.28 44.5602C36.11 54.1602 43.05 63.1602 52.22 66.6102C53.89 67.2302 55.58 67.6202 57.27 67.8102C55.72 81.6002 55.69 95.6202 56.41 109.61C56.17 109.36 55.9 109.12 55.62 108.89C53.7834 107.444 51.867 106.102 49.88 104.87C49.73 104.77 49.57 104.66 49.41 104.58C49.48 104.47 49.53 104.36 49.59 104.25C50.4 102.7 50.98 101.01 51.27 99.1802C52.76 89.8302 45.85 85.0002 38.1 82.3102L37.39 82.0802L37.16 82.0002L36.68 81.8502C33.65 80.9502 30.6 80.1402 27.53 79.4102C24.4377 78.6927 21.3266 78.0591 18.2 77.5102C17.99 77.4702 17.78 77.4302 17.56 77.3902C15.76 77.0802 13.96 76.8102 12.15 76.5702C11.79 76.5102 11.43 76.4702 11.06 76.4102C7.87001 76.0002 4.66001 75.6602 1.43001 75.4302C1.07001 75.4102 -0.169992 75.8302 0.0200078 76.3702C1.88001 81.4302 3.74001 86.4802 5.59001 91.5402C5.67001 91.7502 5.75001 91.9502 5.82001 92.1602C5.91001 92.3702 5.99001 92.6002 6.07001 92.8202C6.35001 93.5802 6.63001 94.3502 6.91001 95.1202C8.76001 100.14 10.16 106.33 13.65 110.56C16.89 114.47 22.35 115.74 27.73 115.6C28.2 115.6 28.68 115.58 29.14 115.54C32.05 115.35 34.88 114.76 37.27 114C42 112.48 46.27 109.56 48.87 105.49C50.07 106.33 51.29 107.14 52.49 107.95C54.72 109.49 55.88 110.89 56.6 113.27C57.28 124.38 58.37 135.45 59.51 146.36C59.65 147.73 59.79 149.1 59.91 150.48C56.24 148.16 51.07 146.74 47.03 147.41C47 147.18 46.96 146.96 46.92 146.74C45.97 141.7 41.96 137.18 36.64 134.6C36.55 134.54 36.45 134.51 36.35 134.45C36.22 134.39 36.08 134.33 35.95 134.28C33.65 133.23 31.25 132.41 28.79 131.78C28.46 131.68 28.12 131.6 27.78 131.54C25.56 131 23.3 130.62 21.01 130.36C20.86 130.33 20.71 130.32 20.56 130.31C18.39 130.07 16.2 129.93 14.01 129.89C13.69 129.87 13.37 129.87 13.05 129.87C9.96001 129.83 6.88001 129.95 3.86001 130.18C3.69001 129.77 2.25001 129.73 2.30001 130.04L2.33001 130.22C2.33001 130.25 2.34001 130.28 2.35001 130.31C2.39001 130.6 2.44001 130.89 2.49001 131.18C2.64001 131.99 2.80001 132.81 2.97001 133.63C3.69001 137.03 4.66001 140.43 5.97001 143.7C6.04001 143.89 6.12001 144.08 6.20001 144.26C7.40001 147.16 8.88001 149.93 10.7 152.41C10.75 152.49 10.8 152.56 10.86 152.62C12.67 155.08 14.82 157.25 17.36 159.02C17.52 159.14 17.68 159.25 17.84 159.35C20.5831 161.187 23.6847 162.421 26.94 162.97C27.26 163.02 27.57 163.07 27.88 163.1C33.46 163.82 39.26 162.49 43.2 158.26C45.99 155.26 47.17 152.04 47.14 148.92C49.38 149.31 51.62 149.37 53.83 149.97C56.07 150.58 58.06 151.63 60.1 152.65C60.17 153.34 60.23 154.03 60.28 154.72C60.3 154.83 60.31 154.97 60.31 155.08C61.49 169.65 61.83 184.24 61.31 198.81C59.75 195.62 57.72 191.81 54.42 190.47C54.32 184.92 50.65 179.71 44.83 176.91C43.45 176.24 42.02 175.74 40.56 175.36C40.34 175.29 40.12 175.24 39.9 175.2C36.24 174.33 32.41 174.2 28.65 174.31C27.12 174.33 25.6 174.37 24.11 174.37C23.92 174.39 23.74 174.39 23.56 174.39C20.98 174.39 18.44 174.32 15.92 174.08C15.79 174.07 15.66 174.04 15.53 174.04C12.05 173.68 8.60001 173 5.08001 171.75C4.85001 171.66 4.69001 171.66 4.60001 171.68C4.44001 171.68 4.35001 171.74 4.38001 171.85C6.53001 178.99 9.40001 185.95 12.65 192.64C12.81 192.99 12.98 193.33 13.15 193.68L13.35 194.08V194.09C14.72 196.94 16.19 199.86 18.33 202.18C18.49 202.37 18.66 202.54 18.83 202.7C19.38 203.27 19.98 203.78 20.63 204.24C22.73 205.73 25.28 206.68 28.01 207.16C28.36 207.22 28.72 207.27 29.08 207.31C32.23 207.7 35.58 207.49 38.76 206.74C38.92 206.7 39.06 206.66 39.22 206.62H39.23C43.76 205.47 47.9 203.25 50.59 200.2C52.95 197.52 54.14 194.61 54.37 191.75C55.89 192.5 57.13 193.32 58.19 194.79C59.33 196.37 60.18 198.15 61.07 199.87C61.11 199.95 61.18 200.04 61.27 200.13C60.96 208.38 60.37 216.63 59.52 224.87C41.96 224.95 24.42 226.28 7.00001 228.83C6.80001 228.86 6.77001 228.96 6.85001 229.1C6.75001 229.17 6.70001 229.26 6.71001 229.36C7.04001 232.47 7.35001 235.58 7.64001 238.7L7.76001 239.93C8.03001 242.79 8.29001 245.64 8.56001 248.51C8.59001 248.89 8.63001 249.28 8.66001 249.66C8.95001 252.75 9.23001 255.83 9.52001 258.93L9.63001 259.99C10.64 270.36 11.79 280.7 13.47 290.93C14.81 299.04 17.38 306.79 18.45 314.98C19.36 322.04 20.15 329.28 22.75 335.97C22.89 336.33 23.68 336.31 23.94 336.29C45.01 334.45 66.14 333.93 87.28 334.68C87.53 334.68 88.24 334.64 88.26 334.26C89.07 315.45 91.76 296.76 96.46 278.52C97.63 273.99 99.1 269.52 100.02 264.93C100.16 264.25 100.27 263.58 100.35 262.89C100.43 262.27 100.5 261.64 100.55 261.01C100.8 257.95 100.76 254.91 101.03 251.83C101.05 251.64 101.07 251.47 101.09 251.29C101.14 250.89 101.2 250.49 101.28 250.1C102.26 245.01 105.39 240.54 106.97 235.72C107.12 235.29 107.25 234.85 107.36 234.41C107.88 232.41 108.1 230.36 107.75 228.16C107.7 227.86 107.23 227.72 106.77 227.71C106.66 227.66 106.56 227.63 106.47 227.62C91.3699 225.781 76.1718 224.863 60.96 224.87C62 215.24 62.66 205.58 62.94 195.91C64.01 193.36 66.32 191.46 69.06 190.7C71.56 195.56 74.51 200.05 79.87 202C84.19 203.57 88.65 203.08 92.7 201.29C93.12 201.12 93.52 200.93 93.93 200.72C94.79 200.28 95.62 199.78 96.43 199.23C97.9 198.24 99.25 197.14 100.48 195.95C100.82 195.64 101.14 195.31 101.46 194.98C103.23 193.14 104.78 191.11 106.16 188.95C106.41 188.58 106.65 188.2 106.88 187.83C108.02 185.98 109.06 184.04 110.04 182.04C110.2 181.73 110.36 181.41 110.51 181.1C111.47 179.12 112.37 177.12 113.28 175.12C113.4 174.86 113.52 174.6 113.64 174.33C116.29 168.41 118.98 162.54 122.78 157.57C123.2 157.02 121.52 156.41 121.11 156.75C120.56 157.2 120.01 157.66 119.44 158.1C119.03 158.43 118.62 158.74 118.2 159.04C115.73 160.87 113.12 162.5 110.38 163.86C109.69 164.22 109 164.54 108.29 164.86C106.86 165.51 105.39 166.08 103.88 166.58C103.46 166.73 103.04 166.86 102.62 166.99C102.47 167.04 102.31 167.08 102.16 167.12C100.27 167.66 98.36 168.08 96.43 168.47C96.19 168.52 95.96 168.56 95.72 168.61C93.58 169.02 91.44 169.39 89.31 169.83L88.18 170.07C87.32 170.27 86.46 170.47 85.6 170.7C76.88 173.01 66.88 179.45 68.88 189.73C66.26 190.49 64.19 192.4 62.98 194.79C63.34 181.44 62.98 168.08 61.94 154.76C65.83 153.81 69.42 151.64 72.35 148.87C79.39 154.83 88.85 157.06 97.48 154.28C98.08 154.1 98.67 153.87 99.26 153.64C100.64 153.08 101.99 152.37 103.3 151.54C104.511 150.77 105.658 149.904 106.73 148.95C107.03 148.68 107.33 148.41 107.62 148.14C109.5 146.33 111.1 144.29 112.52 142.11C112.62 141.95 112.72 141.81 112.81 141.66C114.17 139.52 115.35 137.24 116.45 134.89C116.66 134.45 116.86 134.01 117.05 133.57C117.74 132.04 118.4 130.49 119.05 128.93L119.45 127.98C121.34 123.43 123.2 118.87 125.55 114.78V114.77C126.157 113.702 126.811 112.661 127.51 111.65V111.64C127.66 111.43 127.42 111.04 127.11 110.74Z" fill="white"/>
<path fill-rule="evenodd" clip-rule="evenodd" d="M58.98 66.5551C58.77 66.5651 58.57 66.5651 58.36 66.5651C58.07 66.5651 57.78 66.5651 57.49 66.5451H57.41C48.32 66.0351 38.73 57.8951 38.47 48.3851C38.31 42.4051 42.01 36.2051 44.69 31.0151C49.95 20.8351 56.48 11.4051 64.01 2.77512C64.22 2.53512 64.42 2.30512 64.64 2.06512C64.74 2.24512 64.85 2.42512 64.96 2.60512C65.88 4.12512 66.91 5.56512 67.94 7.04512C67.95 7.04512 67.95 7.05512 67.95 7.05512C74.25 16.9351 77.6 30.5051 78.56 42.1451C79.58 54.4651 72 66.3851 58.98 66.5551ZM77.18 27.3551C75.49 20.3451 73.33 13.6051 69.44 7.48512C69.44 7.46512 69.42 7.44512 69.41 7.42512C69.41 7.42512 69.41 7.41512 69.4 7.41512C69.38 7.36512 69.34 7.30512 69.3 7.24512C67.87 5.17512 66.39 3.16512 65.26 0.905123C65.22 0.815123 65.13 0.695123 65 0.565123C64.85 0.415123 64.65 0.245123 64.45 0.135123C64.19 -0.0148767 63.93 -0.0648768 63.76 0.115123C53.28 11.8251 43.41 25.7951 38.17 40.7451C37.79 41.8251 37.52 42.9051 37.36 43.9851C37.33 44.1751 37.3 44.3651 37.28 44.5551C36.11 54.1651 43.05 63.1651 52.22 66.6051C53.89 67.2251 55.58 67.6251 57.27 67.8051C57.31 67.8051 57.36 67.8151 57.4 67.8151C57.6 67.8451 57.8 67.8551 58 67.8651C58.32 67.8851 58.64 67.9051 58.96 67.9051C69.08 68.1551 78.48 60.8251 80.08 50.1851C81.22 42.5951 78.96 34.6751 77.18 27.3551Z" fill="#777777"/>
<path fill-rule="evenodd" clip-rule="evenodd" d="M65 0.564766C65 0.764766 65 0.954766 64.99 1.15477C64.99 1.32477 64.99 1.50477 64.98 1.67477C64.98 1.98477 64.97 2.29477 64.96 2.60477C64.6 17.3848 63.6 32.1148 61.65 46.7348C61.6 47.0548 61.56 47.3748 61.51 47.6948C60.65 54.0048 59.61 60.2948 58.36 66.5648L58.21 67.3348C58.16 67.5648 58.09 67.7448 58 67.8648C57.79 68.1848 57.5 68.1448 57.4 67.8148C57.33 67.6548 57.32 67.4148 57.38 67.1248C57.42 66.9348 57.46 66.7348 57.49 66.5448C58.6682 60.6261 59.6687 54.6734 60.49 48.6948C60.54 48.3948 60.58 48.1048 60.61 47.8048C62.65 32.8848 63.66 17.8548 64.01 2.77477C64.03 2.21477 64.04 1.66477 64.05 1.10477C64.05 1.08477 64.05 1.05477 64.06 1.02477C64.07 0.934766 64.1 0.824766 64.14 0.714766C64.21 0.514766 64.33 0.294766 64.45 0.134766C64.65 0.244766 64.85 0.414766 65 0.564766Z" fill="#777777"/>
<path fill-rule="evenodd" clip-rule="evenodd" d="M78.757 40.5742C75.4252 43.9174 72.0088 47.1751 68.511 50.3442C65.399 53.1562 61.845 55.6662 58.887 58.6242C58.637 58.8742 59.52 59.6842 59.794 59.4092C62.754 56.4502 66.304 53.9422 69.419 51.1292C72.9167 47.9603 76.3328 44.7026 79.664 41.3592C79.914 41.1092 79.031 40.3002 78.757 40.5742ZM77.78 31.0552C72.4839 36.7248 67.0591 42.2729 61.51 47.6952C61.17 48.0352 60.83 48.3652 60.49 48.6952C60.54 48.3952 60.58 48.1052 60.61 47.8052C60.96 47.4552 61.3 47.0952 61.65 46.7352C66.94 41.2252 72.21 35.6252 77.81 30.4652C77.99 30.3052 77.88 30.9452 77.78 31.0552ZM75.228 22.3202C71.254 25.1982 66.405 29.1352 62.828 32.4952C62.442 32.8582 61.992 34.6942 62.732 33.9992C66.308 30.6392 71.159 26.7022 75.132 23.8232C75.576 23.5012 76.077 21.7052 75.228 22.3202ZM71.076 12.4612C68.224 15.1952 65.713 18.0952 63.312 21.2342C63.529 21.6972 64.046 21.5472 64.256 21.2722C66.657 18.1413 69.2947 15.1993 72.146 12.4722C71.874 12.3842 71.322 12.2252 71.076 12.4622V12.4612ZM63.755 24.4752C59.528 21.6072 56.531 17.7632 54.795 12.9422C54.669 12.5952 53.539 13.0002 53.666 13.3522C55.418 18.2162 58.685 22.2862 62.951 25.1802C63.261 25.3922 64.049 24.6742 63.755 24.4752ZM62.415 36.6552C56.541 33.5452 51.809 28.8352 48.593 23.0302C48.283 22.4702 48.123 23.6102 48.288 23.9052C51.565 29.8232 56.376 34.6502 62.366 37.8202C62.69 37.9902 62.748 36.8302 62.415 36.6552Z" fill="#777777"/>
<path fill-rule="evenodd" clip-rule="evenodd" d="M42.004 34.167C46.59 40.77 53.944 45.427 60.607 49.672C61.053 49.956 61.17 48.606 61.334 47.862C54.706 43.64 47.474 39.069 42.917 32.507C42.581 32.024 41.653 33.662 42.004 34.167ZM38.85 44.995V45.005C38.85 45.435 37.98 45.165 37.48 44.745C37.4041 44.6922 37.3367 44.6281 37.28 44.555C37.3 44.365 37.33 44.175 37.36 43.985C37.482 43.9795 37.6041 43.9965 37.72 44.035C38.22 44.195 38.85 44.625 38.85 44.995Z" fill="#777777"/>
<path fill-rule="evenodd" clip-rule="evenodd" d="M37.813 45.5388C37.643 45.5388 41.055 49.3808 41.563 49.7578C43.422 51.1348 45.423 52.3508 47.389 53.5588C49.833 55.0635 52.3253 56.4883 54.862 57.8308C56.042 58.4548 57.915 59.9588 59.192 59.9588C59.744 59.9588 60.227 58.0948 59.529 58.0948C57.643 58.0948 52.194 54.2238 49.972 52.9098C45.975 50.5478 40.707 48.0988 38.446 43.8658C38.365 43.7158 38.328 43.6748 38.159 43.6748H38.149C37.598 43.6748 37.115 45.5388 37.813 45.5388ZM118.61 71.0048V71.0148C118.33 73.3848 117.39 76.8848 117.19 77.6448C116.6 80.0048 115.83 82.3148 114.85 84.5448C114.69 84.9048 114.53 85.2748 114.36 85.6248C114.12 86.1348 113.87 86.6348 113.61 87.1348C112.86 88.5548 112.03 89.9348 111.13 91.2648C110.71 91.8948 110.27 92.5048 109.81 93.1048C107.95 95.5548 105.83 97.8048 103.48 99.7748C103.44 99.8248 103.39 99.8548 103.35 99.8948C103.04 100.155 102.72 100.415 102.39 100.655C99.4 102.965 95.81 104.845 92.1 105.885C91.51 106.055 90.91 106.195 90.32 106.315C85.45 107.315 80.53 106.745 76.67 103.645C76.66 103.605 76.63 103.575 76.59 103.545C76.46 103.455 76.33 103.355 76.21 103.255C75.29 102.465 74.43 101.505 73.67 100.385C73.5353 100.2 73.4085 100.01 73.29 99.8148C73.29 99.8148 73.29 99.8048 73.28 99.8048L73.08 99.4948C73.0645 99.4672 73.0397 99.4459 73.01 99.4348C72.94 99.3148 72.87 99.1948 72.82 99.0548C72.8 99.0248 72.78 98.9948 72.77 98.9548V98.9448C70.77 94.7048 71.39 89.4448 74.54 85.4148C75.71 83.9248 77.09 82.6648 78.62 81.5848C78.94 81.3548 79.27 81.1348 79.61 80.9348C82 79.4248 84.67 78.3248 87.38 77.4948C87.7 77.3848 88.02 77.2948 88.34 77.2048C89.24 76.9448 90.13 76.7148 91.02 76.5048C92.27 76.2048 93.53 75.9448 94.79 75.7048C95.08 75.6548 95.37 75.5948 95.66 75.5448C98.6 74.9948 101.55 74.5148 104.45 73.8348C104.78 73.7648 105.11 73.6948 105.43 73.6048C105.73 73.5348 106.03 73.4648 106.33 73.3848C107.86 72.9948 115.7 69.2048 117.89 68.8248H117.9C118.16 68.7748 118.34 68.7848 118.42 68.8448C118.72 69.0748 118.73 69.9048 118.61 70.9948V71.0048ZM119.08 66.0148C118.98 66.0848 118.89 66.1548 118.79 66.2248L118.78 66.2348C114.87 69.0848 110.44 70.6548 105.83 71.7748L105.06 71.9548C101.96 72.6748 98.8 73.2148 95.68 73.8348C95.42 73.8748 95.16 73.9348 94.91 73.9848C92.79 74.4148 90.68 74.8948 88.64 75.5048C88.37 75.5748 88.1 75.6548 87.84 75.7448C84.87 76.6748 82.02 77.9148 79.4 79.6948C78.5639 80.2595 77.7624 80.874 77 81.5348C71.92 85.9548 68.94 93.7848 71.44 99.8648C71.45 99.8748 71.45 99.8948 71.46 99.9048C71.57 100.205 71.71 100.475 71.85 100.755V100.765C71.96 100.975 72.07 101.185 72.19 101.385C72.99 102.705 74.08 103.905 75.52 104.915C80.2 109.145 86.56 109.225 92.6 107.215H92.61C93.05 107.065 93.5 106.905 93.93 106.725H93.94C97.5 105.355 100.89 103.285 103.69 100.965C104.03 100.685 104.36 100.395 104.68 100.115C105 99.8248 105.31 99.5348 105.61 99.2448C107.55 97.3548 109.3 95.3148 110.85 93.1348C111.27 92.5448 111.67 91.9548 112.05 91.3448V91.3348C113.444 89.1833 114.649 86.9148 115.65 84.5548C117.69 79.7948 118.92 74.6848 119.31 69.4848V69.4748C119.39 68.4348 119.43 67.3848 119.44 66.3348C119.45 66.1348 119.32 65.8348 119.08 66.0148Z" fill="#777777"/>
<path fill-rule="evenodd" clip-rule="evenodd" d="M119.44 66.3353C119.43 67.3853 119.39 68.4353 119.31 69.4753V69.4853C119.09 70.0053 118.86 70.5053 118.61 70.9953V71.0053C115.79 76.6253 111.09 80.7253 105.56 84.0853C105.27 84.2653 104.98 84.4353 104.68 84.6053C102.06 86.1353 99.27 87.5153 96.42 88.8253C95.69 89.1553 94.96 89.4853 94.22 89.8153H94.21C92.06 90.7753 89.89 91.6953 87.74 92.6253H87.73C87.7 92.6353 87.67 92.6553 87.64 92.6653C87.37 92.7853 87.1 92.8953 86.83 93.0153C86.73 93.0553 86.64 93.0953 86.54 93.1453C84.12 94.1953 81.74 95.2653 79.46 96.3853L78.56 96.8353C76.67 97.7953 74.93 98.7553 73.28 99.8053C72.8 100.115 72.32 100.435 71.85 100.755C71.21 101.205 70.58 101.675 69.95 102.165C69.65 102.395 68.15 102.485 68.55 102.135C69.47 101.335 70.43 100.575 71.44 99.8653C71.87 99.5453 72.32 99.2453 72.77 98.9553V98.9453C74.49 97.8153 76.32 96.7753 78.21 95.8053L79.08 95.3553C81.27 94.2553 83.54 93.2353 85.84 92.2453C85.91 92.2153 85.97 92.1853 86.04 92.1553L86.67 91.8853C86.79 91.8353 86.91 91.7853 87.03 91.7253C89 90.8853 90.98 90.0553 92.94 89.2053C93.59 88.9253 94.23 88.6453 94.87 88.3653H94.88C98.16 86.9053 101.36 85.3653 104.31 83.5853C104.69 83.3653 105.06 83.1353 105.42 82.9053V82.8953C110.87 79.4453 115.37 75.0853 117.89 68.8253H117.9C118.23 67.9953 118.53 67.1353 118.78 66.2353L118.79 66.2253C118.89 66.1553 118.98 66.0853 119.08 66.0153C119.32 65.8353 119.45 66.1353 119.44 66.3353Z" fill="#777777"/>
<path fill-rule="evenodd" clip-rule="evenodd" d="M79.08 95.3554C79.17 95.7254 79.29 96.0754 79.46 96.3854L78.56 96.8354C78.406 96.5059 78.2886 96.1605 78.21 95.8054C78.1 95.3554 78.04 94.8754 78.01 94.3854C77.77 90.3654 78.04 85.7554 78.62 81.5854C78.69 81.0754 78.77 80.5654 78.85 80.0754C79.03 79.9454 79.21 79.8154 79.4 79.6954C79.5 79.8854 79.58 80.0854 79.58 80.1554L79.61 80.9354C79.67 83.4254 79.45 85.9354 79.31 88.4254C79.22 90.0754 78.56 93.1454 79.08 95.3554ZM87.38 82.3554C86.97 84.8554 85.81 89.1054 87.03 91.7254C87.19 92.0654 87.39 92.3854 87.64 92.6654C87.37 92.7854 87.1 92.8954 86.83 93.0154C86.73 93.0554 86.64 93.0954 86.54 93.1454C86.33 92.8354 86.17 92.5054 86.04 92.1554C85.65 91.0754 85.61 89.8354 85.67 88.6154C85.84 84.9754 86.47 81.1354 87.38 77.4954C87.53 76.9054 87.68 76.3254 87.84 75.7454C88.1 75.6554 88.37 75.5754 88.64 75.5054C88.55 76.0754 88.45 76.6454 88.34 77.2054C88.02 78.9254 87.67 80.6354 87.38 82.3554ZM96.28 89.6054C95.8298 89.2213 95.4507 88.7609 95.16 88.2454C94.6 87.1954 94.49 86.0054 94.48 84.6054C94.47 81.6654 94.59 78.6754 94.79 75.7054L94.91 73.9854C95.16 73.9354 95.42 73.8754 95.68 73.8354C95.69 74.4054 95.68 74.9754 95.66 75.5454C95.63 77.1854 95.56 78.8254 95.5 80.4554C95.42 82.6754 94.87 85.6954 95.74 87.9754C95.86 88.3054 96.01 88.6254 96.21 88.9154C96.26 89.0154 96.33 89.1154 96.4 89.2054C96.55 89.4154 96.68 89.9554 96.28 89.6054ZM105.42 82.9054C105.46 83.2954 105.51 83.6854 105.56 84.0854C105.27 84.2654 104.98 84.4354 104.68 84.6054C104.54 84.2754 104.42 83.9354 104.31 83.5954V83.5854C103.35 80.5654 103.56 77.0454 104.45 73.8354C104.63 73.1954 104.84 72.5654 105.06 71.9554L105.83 71.7754C105.66 72.3954 105.53 73.0054 105.43 73.6054C104.89 76.6754 105.05 79.5754 105.42 82.8954V82.9054Z" fill="#777777"/>
<path fill-rule="evenodd" clip-rule="evenodd" d="M93.93 106.725C93.5 106.905 93.05 107.065 92.61 107.215H92.6C91.83 106.935 91.07 106.635 90.32 106.315C87.95 105.305 85.63 104.115 83.38 102.955C81.15 101.795 77.422 99.9453 77.712 96.9253C77.722 96.7853 78.182 96.5773 78.392 96.5653H78.402C78.452 96.5653 78.482 96.5853 78.492 96.6173C78.502 96.6963 78.522 96.7663 78.542 96.8363C79.162 99.8863 82.89 101.625 85.43 102.875C87.61 103.965 89.87 104.885 92.1 105.885C92.71 106.155 93.32 106.435 93.93 106.725ZM104.68 100.115C104.36 100.395 104.03 100.685 103.69 100.965C103.26 100.875 102.82 100.765 102.39 100.655C97.17 99.3253 92.16 96.8653 87.83 93.7453C87.49 93.5153 87.16 93.2653 86.83 93.0153C86.6176 92.855 86.4076 92.6917 86.2 92.5253C86.08 92.4353 85.96 92.3453 85.84 92.2453C86.12 92.1253 86.39 92.0053 86.67 91.8853C86.94 92.0753 87.19 92.2653 87.46 92.4253L87.47 92.4353C87.56 92.5053 87.64 92.5653 87.73 92.6253H87.74C92.74 95.9753 97.89 98.1853 103.48 99.7753C103.88 99.8953 104.28 100.005 104.68 100.115ZM112.05 91.3353V91.3453C111.67 91.9553 111.27 92.5453 110.85 93.1353C110.5 93.1353 110.16 93.1253 109.81 93.1053C104.49 92.8953 99.13 91.6453 94.22 89.8153H94.21C93.8 89.6553 93.41 89.5053 93.01 89.3453C92.96 89.3253 92.94 89.2853 92.94 89.2153V89.2053C93.59 88.9253 94.23 88.6453 94.87 88.3653H94.88C95.03 88.4153 95.17 88.4653 95.32 88.5053H95.33C95.59 88.5853 95.85 88.6653 96.1 88.7353H96.11C96.22 88.7653 96.31 88.7953 96.42 88.8253C101.35 90.2153 106.14 90.8653 111.13 91.2653C111.44 91.2953 111.74 91.3153 112.05 91.3353ZM115.65 84.5553C115.49 84.9253 115.33 85.2853 115.17 85.6453C114.9 85.6453 114.63 85.6353 114.36 85.6253C111.37 85.4853 108.37 84.9553 105.54 84.2253L105.42 84.1953C105.41 84.1953 105.41 84.1953 105.4 84.1853C105.14 84.0853 104.66 83.2753 105.01 83.3653C105.17 83.4053 105.33 83.4453 105.49 83.4753C105.75 83.5453 106.01 83.6053 106.26 83.6553C109.15 84.2853 111.98 84.5153 114.85 84.5453C115.12 84.5553 115.38 84.5553 115.65 84.5553ZM36.68 81.8453C33.65 80.9453 30.6 80.1353 27.53 79.4153C27.36 79.3753 27.18 79.3353 27 79.2953C24.08 78.6153 21.15 78.0253 18.2 77.5053C17.99 77.4653 17.78 77.4253 17.56 77.3953C15.76 77.0853 13.96 76.8053 12.15 76.5653C11.79 76.5053 11.43 76.4653 11.06 76.4153C7.87001 75.9953 4.66001 75.6653 1.43001 75.4353C1.07001 75.4153 -0.169992 75.8353 0.0200078 76.3753C1.88001 81.4253 3.74001 86.4753 5.59001 91.5353C5.67001 91.7453 5.75001 91.9453 5.82001 92.1553C5.91001 92.3753 5.99001 92.5953 6.07001 92.8153C6.35001 93.5853 6.63001 94.3453 6.91001 95.1153C8.76001 100.145 10.16 106.335 13.65 110.555C16.89 114.465 22.35 115.735 27.73 115.595C28.2 115.595 28.68 115.575 29.14 115.535C32.05 115.345 34.88 114.755 37.27 113.995C42 112.475 46.27 109.555 48.87 105.485C49.01 105.275 49.14 105.055 49.27 104.835C49.32 104.755 49.37 104.665 49.41 104.575C49.48 104.465 49.53 104.355 49.59 104.245C50.4 102.705 50.98 101.005 51.27 99.1753C52.85 89.2553 44.98 84.4253 36.68 81.8453ZM49.62 98.3653C49.49 100.185 49.08 101.845 48.43 103.355C48.37 103.525 48.3 103.685 48.22 103.845C48.1427 104.012 48.0593 104.175 47.97 104.335C47.91 104.465 47.85 104.595 47.78 104.715C44.22 111.175 36.2 114.335 28.6 114.345C24.55 114.345 20.08 113.885 16.86 111.195C14.01 108.805 12.73 105.215 11.46 101.845C10.29 98.7353 9.14001 95.6253 8.00001 92.5053C7.79001 91.9453 7.58001 91.3753 7.38001 90.8153C5.90001 86.7953 4.44001 82.7753 2.97001 78.7653C2.77001 78.2053 2.56001 77.6453 2.36001 77.0853C2.31001 76.9553 2.26001 76.8153 2.21001 76.6853C5.19001 76.9253 8.15001 77.2553 11.09 77.6653C11.47 77.7153 11.86 77.7653 12.24 77.8253C13.9507 78.0768 15.6575 78.3535 17.36 78.6553C17.65 78.7053 17.94 78.7653 18.24 78.8153C21.13 79.3553 24.01 79.9653 26.88 80.6553C27.07 80.6953 27.26 80.7453 27.45 80.7953C30.08 81.4353 32.7 82.1353 35.3 82.9053C42.83 85.2453 50.27 89.2953 49.62 98.3653Z" fill="#777777"/>
<path fill-rule="evenodd" clip-rule="evenodd" d="M49.88 104.865C49.9 104.995 49.85 105.055 49.7 104.995C49.56 104.945 49.41 104.885 49.27 104.835C48.84 104.675 48.4 104.505 47.97 104.335C47.51 104.165 47.04 103.985 46.58 103.795C44.13 102.835 41.69 101.795 39.28 100.715C39 100.595 38.72 100.465 38.45 100.345C36.18 99.3153 33.93 98.2553 31.7 97.1553C31.6444 97.1265 31.5877 97.0998 31.53 97.0753V97.0653C31.24 96.9253 30.95 96.7853 30.66 96.6353C30.51 96.5653 30.36 96.4953 30.22 96.4153C27.46 95.0453 24.72 93.6253 22.01 92.1853C21.85 92.0953 21.68 92.0153 21.52 91.9253C21.15 91.7253 20.79 91.5253 20.41 91.3453C20.41 91.3453 20.4 91.3453 20.39 91.3353C19.45 90.8353 18.51 90.3453 17.56 89.8453C16.89 89.4953 16.21 89.1453 15.54 88.7753H15.53C14.79 88.3853 14.06 87.9753 13.34 87.5553C12.93 87.3253 12.53 87.0953 12.13 86.8453C10.9 86.1153 9.70002 85.3453 8.56002 84.5153C6.38002 82.9253 4.68002 80.8353 2.97002 78.7653C2.27002 77.9253 1.58002 77.0853 0.860021 76.2853C0.470021 75.8653 0.630021 75.9353 0.980021 75.6953C1.45002 76.1553 1.91002 76.6253 2.36002 77.0853C5.17002 80.0153 7.63002 82.9653 11.3 85.1453C11.47 85.2453 11.63 85.3453 11.8 85.4353C12.2 85.6753 12.6 85.9053 13 86.1253C14.4 86.9453 15.81 87.7353 17.22 88.5053C17.43 88.6253 17.63 88.7353 17.84 88.8453C18.36 89.1353 18.87 89.4153 19.39 89.6853H19.4C20.05 90.0453 20.69 90.3853 21.35 90.7253H21.36C21.83 90.9853 22.31 91.2353 22.79 91.4853C24.81 92.5453 26.84 93.5653 28.89 94.5453C29.15 94.6753 29.41 94.8053 29.67 94.9253C29.67 94.9253 29.67 94.9353 29.68 94.9353C30.07 95.1153 30.45 95.2953 30.84 95.4753C31.16 95.6353 31.48 95.7853 31.8 95.9253C34.26 97.0853 36.74 98.2053 39.23 99.3053C39.37 99.3753 39.52 99.4453 39.67 99.5053C39.7 99.5253 39.73 99.5353 39.77 99.5553C40.01 99.6553 40.25 99.7653 40.49 99.8653V99.8753C43.13 101.035 45.77 102.185 48.43 103.355C48.63 103.445 48.84 103.535 49.04 103.625C49.19 103.695 49.41 103.955 49.59 104.245C49.53 104.355 49.48 104.465 49.41 104.575C49.57 104.665 49.73 104.765 49.88 104.865Z" fill="#777777"/>
<path fill-rule="evenodd" clip-rule="evenodd" d="M13.34 87.555C12.93 87.325 12.53 87.095 12.13 86.845L11.95 86.085C11.89 85.865 11.84 85.645 11.8 85.435C11.51 84.125 11.41 82.995 11.33 81.465C11.27 80.245 11.14 78.955 11.09 77.665C11.08 77.245 11.06 76.835 11.06 76.415C11.43 76.465 11.79 76.505 12.15 76.565C12.19 76.985 12.22 77.405 12.24 77.825C12.35 79.635 12.33 81.515 12.51 83.255C12.55 83.605 12.75 84.915 13 86.125C13.11 86.645 13.23 87.145 13.34 87.555ZM20.34 90.175C20.33 90.335 20.21 90.545 20.06 90.645C20.03 90.675 19.99 90.685 19.95 90.695C17.94 91.105 13.07 92.015 10.95 92.265C10.06 92.375 9.03001 92.545 8.00001 92.665C7.35001 92.745 6.69001 92.815 6.07001 92.815C5.99001 92.595 5.91001 92.375 5.82001 92.155C6.31001 92.035 6.84001 91.945 7.38001 91.875C8.85001 91.665 10.47 91.545 11.84 91.385C13.03 91.245 16.78 90.275 18.03 90.145H18.04C18.6 90.085 19.16 90.035 19.72 90.015C19.93 90.075 20.13 90.125 20.34 90.175Z" fill="#777777"/>
<path fill-rule="evenodd" clip-rule="evenodd" d="M22.01 92.1855C21.85 92.0955 21.68 92.0155 21.52 91.9255C21.15 91.7255 20.79 91.5255 20.41 91.3455C20.41 91.3455 20.4 91.3455 20.39 91.3355C20.03 90.8255 19.7 90.2655 19.4 89.6855H19.39C17.7 86.4055 16.93 82.2055 17.36 78.6555C17.41 78.2255 17.47 77.8055 17.56 77.3955C17.78 77.4255 17.99 77.4655 18.2 77.5055C18.22 77.9455 18.23 78.3755 18.24 78.8155C18.28 80.7455 18.34 82.6455 18.81 84.5755C19.35 86.8155 20.39 88.7255 21.35 90.7255H21.36C21.58 91.2055 21.81 91.6855 22.01 92.1855ZM10.402 100.306C12.492 99.0015 14.351 97.4895 16.573 96.3705C19.004 95.1475 21.533 94.2375 24.145 93.4875C24.488 93.3885 25.195 92.6525 24.462 92.8375C19.715 94.0375 13.122 96.3505 9.99602 100.365C9.86402 100.533 10.368 100.327 10.402 100.306ZM31.36 97.3355C31.0946 97.1828 30.8465 97.0017 30.62 96.7955C30.64 96.7455 30.65 96.6955 30.66 96.6355C30.51 96.5655 30.36 96.4955 30.22 96.4155C29.71 95.8855 29.27 95.2355 28.89 94.5455C28.13 93.1655 27.6 91.5955 27.25 90.3455C26.42 87.3955 26.59 83.9655 26.88 80.6555L27 79.2955C27.18 79.3355 27.36 79.3755 27.53 79.4155C27.5 79.8655 27.47 80.3255 27.45 80.7955C27.17 85.6455 26.94 91.5055 29.67 94.9255C29.67 94.9255 29.67 94.9355 29.68 94.9355C30 95.3455 30.37 95.7155 30.78 96.0355C30.92 96.1555 31.07 96.2655 31.23 96.3755C31.36 96.4655 31.5 96.8055 31.53 97.0655V97.0755C31.56 97.2855 31.52 97.4255 31.36 97.3355Z" fill="#777777"/>
<path fill-rule="evenodd" clip-rule="evenodd" d="M31.8 95.9251C31.82 96.3551 31.78 96.7651 31.7 97.1551C31.28 99.2751 29.67 100.975 28.06 102.645C24.67 106.145 21.29 109.815 17.54 112.915C17.35 113.075 16.69 112.485 16.84 112.325C17.09 112.045 17.35 111.765 17.61 111.485C17.85 111.205 18.09 110.905 18.31 110.595C18.33 110.575 18.37 110.585 18.43 110.615C20.63 108.315 22.97 106.155 25.19 103.885C27.27 101.755 29.84 99.6451 30.62 96.7951C30.64 96.7451 30.65 96.6951 30.66 96.6351C30.71 96.4451 30.75 96.2451 30.78 96.0351C30.81 95.8551 30.83 95.6651 30.84 95.4751C31.16 95.6351 31.48 95.7851 31.8 95.9251ZM40.49 99.8651V99.8751C40.44 100.085 40.39 100.275 40.34 100.475C40.22 100.925 39.88 100.225 39.71 99.6951C39.7 99.6251 39.68 99.5651 39.67 99.5051C39.6525 99.4432 39.6424 99.3794 39.64 99.3151C39.63 99.2751 39.63 99.2551 39.63 99.2351C40.4 93.6951 38.99 88.8051 37.6 83.6851C37.45 83.1251 37.3 82.5651 37.16 81.9951L38.1 82.3051C38.36 82.9051 38.61 83.5251 38.84 84.1651C40.66 89.1351 41.56 95.1051 40.49 99.8651Z" fill="#777777"/>
<path fill-rule="evenodd" clip-rule="evenodd" d="M39.83 99.4147C39.81 99.4647 39.79 99.5047 39.77 99.5547C39.76 99.6047 39.74 99.6447 39.71 99.6947C39.58 100.035 39.44 100.375 39.28 100.715C36.88 106.055 32.89 111.045 29.14 115.535C28.68 115.575 28.2 115.595 27.73 115.595C31.68 110.725 34.79 105.385 38.45 100.345C38.69 100.005 38.94 99.6647 39.19 99.3247C39.2 99.3147 39.21 99.3047 39.23 99.3047C39.37 99.3747 39.52 99.4447 39.67 99.5047C39.6525 99.4428 39.6424 99.379 39.64 99.3147C39.76 99.3447 39.84 99.3847 39.83 99.4147ZM127.51 111.645C126.809 112.654 126.155 113.695 125.55 114.765V114.775C123.2 118.875 121.34 123.425 119.45 127.975C119.32 128.295 119.18 128.615 119.05 128.935C118.404 130.487 117.737 132.03 117.05 133.565C116.86 134.005 116.66 134.445 116.45 134.885C115.35 137.235 114.17 139.515 112.81 141.655C112.72 141.805 112.62 141.955 112.52 142.105C111.1 144.285 109.5 146.325 107.62 148.135C106.297 149.412 104.849 150.554 103.3 151.545C101.99 152.375 100.64 153.075 99.26 153.635C98.67 153.875 98.08 154.095 97.48 154.275C88.85 157.055 79.39 154.835 72.35 148.875C71.7935 148.41 71.2564 147.923 70.74 147.415C69.97 146.665 70.45 146.085 71.21 146.795L71.25 146.835C71.36 146.945 71.47 147.045 71.58 147.145C71.81 147.365 72.04 147.575 72.27 147.785C72.48 147.975 72.7 148.165 72.92 148.325C79.26 153.585 87.22 155.075 94.53 153.245C95.19 153.085 95.85 152.895 96.5 152.675C99.29 151.735 101.96 150.305 104.36 148.405C104.73 148.115 105.09 147.815 105.45 147.485C106.72 146.375 107.92 145.115 109 143.725C109.6 142.955 110.17 142.165 110.69 141.365C110.8 141.225 110.9 141.075 111 140.925C112.34 138.865 113.5 136.705 114.56 134.495C114.8 134.025 115.03 133.545 115.24 133.065C115.92 131.605 116.56 130.115 117.2 128.615C117.33 128.315 117.45 128.015 117.58 127.715C118.71 125.005 119.81 122.285 121.03 119.625V119.615C121.42 118.775 121.81 117.955 122.22 117.135C122.21 117.125 122.22 117.115 122.23 117.115C122.86 115.835 123.53 114.575 124.26 113.345C120.79 114.955 117.16 116.025 113.46 116.865C113.13 116.935 112.8 117.015 112.47 117.085C110.59 117.485 108.7 117.845 106.8 118.185C106.44 118.255 106.08 118.325 105.72 118.385C102.42 118.985 99.12 119.575 95.86 120.385C95.47 120.475 95.08 120.575 94.7 120.675C94.05 120.845 93.4 121.025 92.75 121.215C90.78 121.795 88.82 122.545 86.93 123.465H86.92C86.66 123.585 86.4 123.715 86.14 123.855H86.13C82.75 125.585 79.66 127.835 77.27 130.545C76.93 130.915 76.61 131.305 76.32 131.695C73.38 135.485 71.8 140.075 72.57 145.365C72.61 145.695 72.67 146.025 72.74 146.365V146.375C72.56 146.525 72.39 146.695 72.22 146.855C72.16 146.915 72 146.995 71.82 147.065C71.74 146.845 71.66 146.625 71.58 146.395C69.35 139.615 72.07 133.155 76.75 128.315C76.97 128.075 77.2 127.845 77.44 127.625C79.99 125.155 83.05 123.145 86.16 121.795C86.43 121.675 86.69 121.565 86.96 121.455C87.15 121.375 87.33 121.305 87.52 121.225C90.04 120.235 92.63 119.475 95.25 118.855C95.34 118.835 95.42 118.815 95.5 118.795C99.1 117.945 102.76 117.335 106.4 116.675C106.69 116.615 106.98 116.565 107.27 116.505C109.26 116.135 111.25 115.745 113.21 115.275C113.47 115.215 113.74 115.145 114 115.075C118.19 114.045 122.27 112.645 126.11 110.425C126.14 110.405 126.18 110.385 126.21 110.365C126.41 110.245 126.8 110.445 127.11 110.735C127.42 111.035 127.66 111.425 127.51 111.645Z" fill="#777777"/>
<path fill-rule="evenodd" clip-rule="evenodd" d="M127.11 110.735C127.42 111.035 127.66 111.425 127.51 111.645C126.809 112.655 126.155 113.696 125.55 114.765L127.11 110.735Z" fill="#777777"/>
<path fill-rule="evenodd" clip-rule="evenodd" d="M127.51 111.645C126.809 112.655 126.155 113.696 125.55 114.765V114.775C124.196 116.525 122.683 118.145 121.03 119.615V119.625C118.31 122.055 115.27 124.085 112.04 125.875C111.74 126.045 111.43 126.215 111.12 126.375V126.385C109.46 127.275 107.75 128.105 106.01 128.905C105.75 129.025 105.5 129.145 105.24 129.255C99.36 131.915 93.17 134.225 87.33 136.995C86.83 137.225 86.33 137.465 85.83 137.715C83.29 138.965 80.83 140.335 78.5 141.875C78.29 142.015 78.08 142.155 77.88 142.295C76.0673 143.522 74.3491 144.882 72.74 146.365V146.375C72.56 146.525 72.39 146.695 72.22 146.855C72.16 146.915 72 146.995 71.82 147.065C71.74 147.095 71.66 147.125 71.58 147.145C71.18 147.255 70.79 147.265 71.12 146.895C71.15 146.865 71.18 146.825 71.21 146.795C71.33 146.655 71.45 146.525 71.58 146.395C71.9 146.045 72.23 145.695 72.57 145.365C74.11 143.835 75.76 142.465 77.5 141.235C77.74 141.055 77.99 140.885 78.24 140.715C80.4 139.235 82.69 137.945 85.06 136.755C85.58 136.495 86.1 136.245 86.63 135.995C88.96 134.895 91.34 133.885 93.75 132.915C94.06 132.785 94.37 132.655 94.68 132.535C98.1 131.155 101.55 129.825 104.89 128.355C105.25 128.205 105.61 128.045 105.97 127.885V127.875C107.72 127.095 109.44 126.265 111.11 125.365C111.43 125.195 111.75 125.025 112.07 124.845C115.81 122.755 119.26 120.285 122.22 117.135C122.21 117.125 122.22 117.115 122.23 117.115C123.91 115.325 125.42 113.315 126.74 111.035C126.8 110.935 126.94 110.825 127.11 110.735C127.42 111.035 127.66 111.425 127.51 111.645Z" fill="#777777"/>
<path fill-rule="evenodd" clip-rule="evenodd" d="M78.5 141.875C78.29 142.015 78.08 142.155 77.88 142.295C77.74 141.945 77.61 141.595 77.5 141.235C76.51 138.245 76.13 134.925 76.32 131.695C76.39 130.545 76.53 129.415 76.75 128.315C76.97 128.075 77.2 127.845 77.44 127.625C77.35 128.615 77.29 129.585 77.27 130.545C77.18 133.975 77.5 137.235 78.24 140.715C78.32 141.095 78.41 141.485 78.5 141.875ZM86.63 135.995C86.83 136.335 87.07 136.675 87.33 136.995C86.83 137.225 86.33 137.465 85.83 137.715C85.53 137.435 85.27 137.115 85.06 136.755C83.18 133.605 84.76 127.935 86.13 123.855H86.14C86.43 122.965 86.72 122.155 86.96 121.455C87.15 121.375 87.33 121.305 87.52 121.225C87.34 121.945 87.13 122.695 86.93 123.465H86.92C85.77 127.705 84.53 132.395 86.63 135.995ZM95.256 118.818C93.756 123.261 93.109 128.443 93.774 133.094C93.81 133.347 94.664 133.83 94.665 133.531C94.697 128.609 94.996 124.162 96.081 119.337C96.143 119.065 95.325 118.613 95.256 118.818ZM107.27 116.505C107.11 117.065 106.95 117.625 106.8 118.185C106.47 119.385 106.18 120.605 106.01 121.855C105.74 123.885 105.88 125.865 105.97 127.875V127.885C105.99 128.225 106 128.555 106.01 128.895V128.905C105.75 129.025 105.5 129.145 105.24 129.255C105.16 129.255 105.1 129.235 105.08 129.175C105.01 128.905 104.95 128.635 104.89 128.355C104.27 125.195 104.65 121.525 105.72 118.385C105.92 117.795 106.14 117.225 106.4 116.675C106.69 116.615 106.98 116.565 107.27 116.505ZM114 115.075C113.81 115.685 113.63 116.275 113.46 116.865C112.72 119.485 112.18 122.055 112.07 124.845C112.05 125.185 112.04 125.525 112.04 125.875C111.74 126.045 111.43 126.215 111.12 126.375C111.11 126.035 111.1 125.705 111.11 125.365C111.15 122.605 111.55 119.725 112.47 117.085C112.69 116.465 112.93 115.855 113.21 115.275C113.47 115.215 113.74 115.145 114 115.075Z" fill="#777777"/>
<path fill-rule="evenodd" clip-rule="evenodd" d="M99.26 153.635C98.42 153.325 97.49 153.005 96.5 152.675C89.77 150.395 80.38 147.385 79.11 141.825C79.07 141.645 78.29 140.785 78.25 141.065C77.72 144.275 80.74 146.575 83.2 148.085C86.63 150.185 90.57 151.825 94.53 153.245C95.51 153.605 96.5 153.945 97.48 154.275L99.26 153.635ZM107.62 148.135C107.33 148.415 107.03 148.685 106.73 148.955C105.93 148.805 105.14 148.615 104.36 148.405C101.72 147.675 99.14 146.615 96.74 145.445C94.72 144.455 92.79 143.335 90.94 142.065C90.1 141.495 86.7 139.615 86.58 138.755C86.62 139.035 86.38 138.685 86.35 138.605C86.25 138.415 86.15 138.215 86.05 138.015C86.02 137.955 85.86 137.285 86.13 137.505C92.38 142.425 98.27 145.235 105.45 147.485C106.16 147.705 106.88 147.925 107.62 148.135ZM112.81 141.655C112.72 141.805 112.62 141.955 112.52 142.105C111.92 141.835 111.31 141.585 110.69 141.365C108.04 140.425 105.23 139.865 102.62 138.765C99.75 137.555 96.95 136.035 94.54 134.035C94.38 133.905 95.03 133.985 95.13 134.035C99.44 136.655 103.58 138.855 108.47 140.195C109.34 140.435 110.18 140.655 111 140.925C111.62 141.125 112.23 141.355 112.81 141.655ZM117.05 133.565C116.86 134.005 116.66 134.445 116.45 134.885C115.82 134.785 115.19 134.655 114.56 134.495C110.83 133.615 107.12 132.005 104.01 130.245C103.8 130.125 102.94 129.075 103.63 129.345C107.5 130.915 111.32 131.975 115.24 133.065C115.84 133.225 116.45 133.395 117.05 133.565ZM119.45 127.975C119.32 128.295 119.18 128.615 119.05 128.935C118.43 128.855 117.81 128.755 117.2 128.615C114.96 128.125 112.78 127.225 110.94 126.145C110.75 126.035 110.34 125.485 110.84 125.715C113.14 126.755 115.31 127.345 117.58 127.715C118.2 127.815 118.82 127.905 119.45 127.975ZM113.28 170.355C112.74 171.505 112.21 172.665 111.69 173.835C111.56 174.095 111.44 174.365 111.33 174.625C110.4 176.665 109.46 178.695 108.47 180.695C108.31 181.045 108.13 181.385 107.96 181.725C107.048 183.548 106.06 185.333 105 187.075C104.75 187.475 104.5 187.885 104.24 188.285C102.86 190.425 101.29 192.495 99.5 194.365C99.18 194.705 98.86 195.035 98.52 195.345C96.61 197.215 94.47 198.825 92.09 199.995C91.64 200.225 91.19 200.435 90.72 200.615C90.69 200.635 90.65 200.655 90.62 200.665C80.91 204.605 74.64 198.445 70.64 190.605C70.6105 190.553 70.5734 190.506 70.53 190.465C70.52 190.445 70.52 190.415 70.52 190.395C70.44 189.785 70.39 189.205 70.37 188.635C70.07 178.805 78.81 174.095 87.56 171.635C88.01 171.505 88.46 171.385 88.91 171.275C90.67 170.815 92.41 170.445 94.06 170.145C94.46 170.065 94.86 169.995 95.26 169.915C95.52 169.865 95.78 169.805 96.03 169.755C98.01 169.345 99.95 168.885 101.84 168.355C102.02 168.305 102.19 168.255 102.37 168.195C104.13 167.685 105.84 167.125 107.52 166.475C108.05 166.285 108.58 166.075 109.1 165.845C111.95 164.675 114.69 163.265 117.34 161.565C117.62 161.385 117.89 161.205 118.17 161.015C116.33 164.015 114.76 167.165 113.28 170.355ZM121.11 156.745C120.56 157.205 120.01 157.655 119.44 158.095C119.03 158.425 118.62 158.735 118.2 159.045C115.741 160.876 113.124 162.486 110.38 163.855C109.69 164.215 109 164.545 108.29 164.855C106.86 165.505 105.39 166.085 103.88 166.585C103.46 166.725 103.04 166.855 102.62 166.985C102.47 167.035 102.31 167.075 102.16 167.115C100.27 167.665 98.36 168.085 96.43 168.465C96.19 168.515 95.96 168.555 95.72 168.605C93.58 169.015 91.44 169.385 89.31 169.825L88.18 170.065C87.32 170.265 86.46 170.465 85.6 170.695C76.76 173.045 66.61 179.625 68.96 190.145C68.88 190.205 68.85 190.305 68.93 190.455C71.46 195.415 74.42 200.015 79.87 201.995C84.19 203.565 88.65 203.075 92.7 201.295C93.12 201.115 93.52 200.925 93.93 200.715C94.79 200.275 95.62 199.775 96.43 199.225C97.8713 198.253 99.2263 197.159 100.48 195.955C100.82 195.635 101.14 195.305 101.46 194.975C103.23 193.135 104.78 191.105 106.16 188.955C106.41 188.585 106.65 188.205 106.88 187.825C108.02 185.975 109.06 184.035 110.04 182.045C110.2 181.725 110.36 181.415 110.51 181.095C111.47 179.125 112.37 177.125 113.28 175.125C113.4 174.855 113.52 174.595 113.64 174.335C116.29 168.415 118.98 162.535 122.78 157.565C123.2 157.015 121.52 156.405 121.11 156.745Z" fill="#777777"/>
<path fill-rule="evenodd" clip-rule="evenodd" d="M102.05 177.095C101.88 177.175 101.71 177.245 101.53 177.315C99.27 178.225 96.91 179.035 94.53 179.825C94.41 179.865 94.29 179.905 94.18 179.935C91.07 180.955 87.92 181.935 84.89 182.995C84.68 183.065 84.47 183.135 84.26 183.215C82.08 183.985 79.97 184.815 77.98 185.745C77.82 185.815 77.67 185.885 77.51 185.965C74.9 187.215 72.53 188.655 70.52 190.395C70.5 190.405 70.49 190.415 70.48 190.435C70.3 190.585 70.13 190.735 69.96 190.895L69.95 190.905C69.88 190.975 69.79 190.935 69.71 190.825C69.58 190.665 69.47 190.355 69.42 190.075C69.38 189.855 69.39 189.645 69.47 189.555C69.76 189.235 70.06 188.925 70.37 188.635C72.5 186.565 75 184.925 77.75 183.565C77.92 183.465 78.1 183.385 78.28 183.305C80.24 182.355 82.31 181.535 84.44 180.785H84.45C84.98 180.595 85.51 180.415 86.05 180.235C88.69 179.355 91.39 178.555 94.06 177.725C94.27 177.665 94.47 177.595 94.67 177.535C96.93 176.825 99.16 176.095 101.3 175.265L101.9 175.025C101.93 175.705 101.98 176.395 102.05 177.095Z" fill="#777777"/>
<path fill-rule="evenodd" clip-rule="evenodd" d="M81.15 173.365C79.78 176.615 78.79 179.875 78.28 183.305C78.14 184.105 78.04 184.915 77.98 185.745C77.82 185.815 77.67 185.885 77.51 185.965C77.57 185.165 77.65 184.365 77.75 183.565C78.24 179.815 79.29 176.135 81.05 172.775C81.23 172.425 81.2 173.225 81.15 173.365ZM89.31 169.825C89.18 170.305 89.05 170.785 88.91 171.275C88.1 174.265 87.18 177.345 86.05 180.235C85.69 181.185 85.3 182.105 84.89 182.995C84.68 183.065 84.47 183.135 84.26 183.215C84.06 183.185 83.89 183.095 83.91 182.995C84.07 182.265 84.24 181.525 84.44 180.785H84.45C85.25 177.725 86.38 174.615 87.56 171.635C87.76 171.105 87.97 170.575 88.18 170.065L89.31 169.825ZM96.43 168.465C96.3 168.895 96.16 169.325 96.03 169.755C95.65 170.985 95.31 172.225 95.08 173.505C94.84 174.845 94.75 176.185 94.67 177.535C94.63 178.295 94.59 179.055 94.53 179.825C94.41 179.865 94.29 179.905 94.18 179.935C94.1 179.215 94.06 178.485 94.06 177.725C94.05 175.145 94.46 172.415 95.26 169.915C95.4 169.475 95.55 169.035 95.72 168.605C95.96 168.555 96.19 168.515 96.43 168.465ZM119.44 158.095C119.39 158.535 119.32 158.955 119.24 159.365C119.17 159.735 119.1 160.105 119 160.455C118.03 164.575 116 167.775 113.28 170.355C112.169 171.406 110.964 172.353 109.68 173.185C109.4 173.375 109.12 173.555 108.83 173.735C106.75 175.015 104.46 176.115 102.05 177.095C101.98 176.395 101.93 175.705 101.9 175.025C103.59 174.355 105.22 173.615 106.76 172.775C107.01 172.635 107.26 172.495 107.51 172.345C111.81 169.855 115.33 166.525 117.34 161.565C117.67 160.765 117.96 159.925 118.2 159.045C118.62 158.735 119.03 158.425 119.44 158.095ZM101.9 175.025L101.3 175.265C101.14 172.955 101.33 170.615 101.84 168.355C101.93 167.935 102.03 167.525 102.16 167.115C102.31 167.075 102.47 167.035 102.62 166.985C102.52 167.385 102.44 167.795 102.37 168.195C101.95 170.465 101.8 172.705 101.9 175.025Z" fill="#777777"/>
<path fill-rule="evenodd" clip-rule="evenodd" d="M102.05 177.095C101.88 177.175 101.71 177.245 101.53 177.315C101.42 176.635 101.34 175.955 101.3 175.265L101.9 175.025C101.93 175.705 101.98 176.395 102.05 177.095ZM110.38 163.855C109.89 164.515 109.47 165.175 109.1 165.845C108.15 167.605 107.63 169.475 107.6 171.815C107.6 171.985 106.99 171.495 106.96 171.315C106.73 169.785 106.93 168.055 107.52 166.475C107.73 165.905 107.98 165.365 108.29 164.855C109 164.545 109.69 164.215 110.38 163.855ZM93.93 200.715C93.52 200.925 93.12 201.115 92.7 201.295C92.04 201.095 91.37 200.875 90.72 200.615C84.17 198.155 78.2 193.415 74.09 188.025C73.84 187.705 73.8 187.105 74.25 187.615C79.43 193.585 85.15 197.205 92.09 199.995C92.69 200.245 93.3 200.485 93.93 200.715ZM101.46 194.975C101.14 195.305 100.82 195.635 100.48 195.955C99.83 195.775 99.18 195.575 98.52 195.345C92.1 193.175 85.61 189.115 82.2 183.525C82.13 183.415 82.41 182.835 82.49 182.905C85.79 185.805 88.63 188.965 92.47 191.225C94.72 192.545 97.07 193.555 99.5 194.365C100.15 194.585 100.8 194.785 101.46 194.975ZM106.88 187.825C106.65 188.205 106.41 188.585 106.16 188.955C105.52 188.755 104.88 188.535 104.24 188.285C99.45 186.485 94.81 183.695 91.25 180.535C91.11 180.415 90.88 179.585 91.14 179.755C95.72 182.785 100.17 185.105 105 187.075C105.62 187.335 106.24 187.585 106.88 187.825Z" fill="#777777"/>
<path fill-rule="evenodd" clip-rule="evenodd" d="M110.51 181.095C110.36 181.415 110.2 181.725 110.04 182.045C109.35 181.985 108.65 181.875 107.96 181.725C105.13 181.095 102.34 179.705 100.49 177.675C100.36 177.525 100.85 176.945 101.01 177.045C102.87 178.205 104.59 179.415 106.67 180.165C107.26 180.375 107.86 180.555 108.47 180.695C109.15 180.855 109.83 180.985 110.51 181.095ZM113.64 174.335C113.52 174.595 113.4 174.855 113.28 175.125C112.62 174.985 111.97 174.825 111.33 174.625C110.48 174.375 109.65 174.075 108.83 173.735C108.12 173.445 107.43 173.125 106.76 172.775C107.01 172.635 107.26 172.495 107.51 172.345C108.23 172.665 108.96 172.945 109.68 173.185C110.35 173.435 111.02 173.645 111.69 173.835C112.34 174.025 112.98 174.185 113.64 174.335ZM43.22 155.605C39.69 161.205 34.26 162.965 28.76 162.275C28.39 162.225 28.02 162.165 27.64 162.095C24.66 161.545 21.7 160.305 19.05 158.585C18.8206 158.445 18.5971 158.295 18.38 158.135C16.24 156.665 14.33 154.875 12.81 152.905C12.51 152.515 12.22 152.125 11.95 151.725C11.8733 151.621 11.7999 151.514 11.73 151.405C10.03 148.915 8.72001 146.265 7.66001 143.495C7.58001 143.285 7.50001 143.065 7.42001 142.855C6.56001 140.535 5.86001 138.145 5.23001 135.735C5.01001 134.875 4.79001 134.015 4.58001 133.155L4.07001 131.045C7.11001 130.805 10.2 130.675 13.3 130.705C13.64 130.705 13.99 130.705 14.33 130.725C16.43 130.765 18.52 130.895 20.61 131.135H20.62L21.12 131.195C23.45 131.475 25.74 131.895 28 132.465H28.01C29.9999 132.965 31.9516 133.607 33.85 134.385C34.64 134.705 35.41 135.075 36.16 135.485C36.37 135.595 36.57 135.705 36.78 135.835C41.09 138.345 44.42 142.175 45.21 146.595C45.26 146.865 45.3 147.145 45.33 147.435C45.6 150.015 45 152.785 43.22 155.605ZM47.05 147.565C47.02 147.285 46.97 147.005 46.92 146.735C45.97 141.705 41.96 137.175 36.64 134.595C36.55 134.545 36.45 134.505 36.35 134.455C36.22 134.395 36.08 134.335 35.95 134.275C33.65 133.225 31.25 132.405 28.79 131.775C28.46 131.685 28.12 131.595 27.78 131.535C25.56 130.995 23.3 130.625 21.01 130.355C20.86 130.335 20.71 130.315 20.56 130.305C18.3838 130.07 16.1984 129.93 14.01 129.885C13.69 129.875 13.37 129.875 13.05 129.875C9.96001 129.835 6.88001 129.955 3.86001 130.185C3.69001 129.765 2.25001 129.725 2.30001 130.035L2.33001 130.215C2.33001 130.245 2.34001 130.275 2.35001 130.305C2.39001 130.595 2.44001 130.885 2.49001 131.175C2.64001 131.985 2.80001 132.805 2.97001 133.625C3.69001 137.015 4.66001 140.435 5.97001 143.695C6.04001 143.885 6.12001 144.075 6.20001 144.255C7.40001 147.155 8.88001 149.925 10.7 152.415C10.75 152.485 10.8 152.555 10.86 152.625C12.67 155.075 14.82 157.245 17.36 159.015C17.52 159.135 17.68 159.245 17.84 159.345C20.5831 161.182 23.6847 162.416 26.94 162.965C27.26 163.015 27.57 163.065 27.88 163.095C33.46 163.815 39.26 162.485 43.2 158.255C46.39 154.815 47.48 151.095 47.05 147.565Z" fill="#777777"/>
<path fill-rule="evenodd" clip-rule="evenodd" d="M46.92 146.735C46.35 146.695 45.78 146.655 45.21 146.595C43.8702 146.478 42.5332 146.332 41.2 146.155C40.94 146.135 40.68 146.105 40.42 146.055C40.35 146.055 40.27 146.045 40.2 146.035C39.97 146.005 39.73 145.975 39.5 145.935C37.66 145.675 35.82 145.365 34 145.005C33.62 144.935 33.26 144.855 32.89 144.775H32.88C32.7224 144.746 32.5656 144.713 32.41 144.675L31.82 144.545H31.81C28.98 143.925 26.18 143.175 23.4 142.305L22.82 142.125L22.73 142.095C22.59 142.045 22.44 142.005 22.3 141.955C20.78 141.465 19.17 140.965 17.55 140.395C17.17 140.265 16.78 140.135 16.4 139.995C12.03 138.405 7.66002 136.355 4.58002 133.155C3.97002 132.535 3.41002 131.855 2.92002 131.135C2.73002 130.865 2.55002 130.585 2.38002 130.305C2.36002 130.275 2.35002 130.245 2.33002 130.215C2.33002 130.245 2.34002 130.275 2.35002 130.305C2.39002 130.595 2.44002 130.885 2.49002 131.175C2.64002 131.985 2.80002 132.805 2.97002 133.625C3.64002 134.395 4.40002 135.095 5.23002 135.735C8.52002 138.305 12.89 140.005 16.9 141.335C17.22 141.445 17.53 141.555 17.84 141.645C19.08 142.055 20.27 142.435 21.37 142.775C21.41 142.795 21.44 142.805 21.48 142.815C21.59 142.855 21.71 142.885 21.82 142.925L23.17 143.345L23.29 143.375C25.77 144.115 28.26 144.765 30.78 145.305C31.12 145.385 31.46 145.455 31.8 145.525C34.36 146.055 36.95 146.485 39.55 146.825C39.66 146.845 39.77 146.855 39.89 146.875C40 146.885 40.11 146.905 40.23 146.915C40.43 146.945 40.63 146.965 40.84 146.985C42.33 147.165 43.83 147.315 45.33 147.435C45.9 147.485 46.47 147.525 47.05 147.565L46.92 146.735Z" fill="#777777"/>
<path fill-rule="evenodd" clip-rule="evenodd" d="M16.11 140.355C12.82 140.815 10.29 142.105 7.66 143.495C7.18 143.745 6.69 144.005 6.2 144.255C6.12 144.075 6.04 143.885 5.97 143.695C6.43 143.405 6.91 143.125 7.42 142.855C10.11 141.395 13.33 140.255 16.04 139.925C16.29 139.895 16.34 140.325 16.11 140.355ZM22.73 142.095C22.43 142.365 22.12 142.645 21.82 142.925C18.57 145.895 15.33 148.915 11.95 151.725C11.59 152.035 11.23 152.335 10.86 152.625C10.8 152.555 10.75 152.485 10.7 152.415C11.04 152.075 11.38 151.745 11.73 151.405C14.83 148.425 18.12 145.605 21.37 142.775C21.68 142.505 21.99 142.235 22.3 141.955C22.44 142.005 22.59 142.045 22.73 142.095ZM32.41 144.675C32.2 144.955 32 145.235 31.8 145.525C28.31 150.295 24.04 155.285 19.05 158.585C18.65 158.855 18.25 159.105 17.84 159.345C17.68 159.245 17.52 159.135 17.36 159.015C17.7 158.725 18.04 158.425 18.38 158.135C20.38 156.435 22.45 154.825 24.33 152.945C26.69 150.585 28.83 148.015 30.78 145.305C30.86 145.205 30.93 145.105 31 145.005C31.11 144.845 31.47 144.665 31.81 144.545H31.82L32.41 144.675ZM41.2 146.155C41.23 146.245 41.23 146.325 41.2 146.375C41.08 146.575 40.96 146.785 40.84 146.985C40.62 147.345 40.4 147.715 40.17 148.075C40.03 148.305 39.88 148.545 39.74 148.775C36.63 153.655 32.94 158.285 28.76 162.275C28.47 162.565 28.18 162.835 27.88 163.095C27.57 163.065 27.26 163.015 26.94 162.965C26.93 162.895 26.93 162.835 26.97 162.795C27.2 162.565 27.42 162.325 27.64 162.095C32.07 157.475 36.01 152.705 39.53 147.405V147.395C39.66 147.225 39.78 147.055 39.89 146.875C40.01 146.705 40.12 146.535 40.22 146.365C40.29 146.265 40.36 146.165 40.42 146.055C40.68 146.105 40.94 146.135 41.2 146.155ZM17.87 141.475C17.88 141.525 17.87 141.575 17.84 141.645C17.53 141.555 17.22 141.445 16.9 141.335C16.72 140.895 16.56 140.445 16.4 139.995C15.27 136.945 14.23 133.825 13.3 130.705C13.22 130.425 13.13 130.155 13.05 129.875C13.37 129.875 13.69 129.875 14.01 129.885C14.12 130.165 14.23 130.445 14.33 130.725C15.5 133.905 16.58 137.165 17.55 140.395C17.66 140.755 17.76 141.115 17.87 141.475Z" fill="#777777"/>
<path fill-rule="evenodd" clip-rule="evenodd" d="M23.29 143.375L23.17 143.345C23.02 142.935 22.87 142.515 22.73 142.095C21.56 138.595 20.91 134.825 20.62 131.135H20.61C20.59 130.855 20.57 130.585 20.56 130.305C20.71 130.315 20.86 130.335 21.01 130.355C21.04 130.645 21.07 130.915 21.12 131.195C21.62 134.965 22.45 138.595 23.4 142.305L23.49 142.675C23.53 142.795 23.4 143.235 23.29 143.375ZM34.04 144.875C34.13 145.105 33.24 145.385 33.1 145.155C30.85 141.355 29.1 136.825 28.01 132.465H28C27.92 132.155 27.85 131.845 27.78 131.535C28.12 131.595 28.46 131.685 28.79 131.775C28.91 132.105 29.04 132.445 29.17 132.775C30.71 136.855 32.37 140.825 34.04 144.875ZM40.23 146.915C40.23 147.295 40.21 147.685 40.17 148.075C40.03 148.305 39.88 148.545 39.74 148.775C39.59 148.575 39.47 148.295 39.48 148.175C39.51 147.915 39.53 147.655 39.53 147.405V147.395C39.54 147.205 39.55 147.015 39.55 146.825C39.55 146.525 39.53 146.225 39.5 145.935C39.25 142.675 37.75 139.905 36.57 136.755C36.41 136.335 36.27 135.905 36.16 135.485C36.0425 135.091 35.972 134.685 35.95 134.275C36.08 134.335 36.22 134.395 36.35 134.455C36.45 134.505 36.55 134.545 36.64 134.595C36.64 135.005 36.69 135.415 36.78 135.835C37.28 138.255 38.96 140.795 39.59 142.885C39.91 143.955 40.12 144.985 40.2 146.035C40.21 146.145 40.21 146.255 40.22 146.365C40.23 146.545 40.23 146.725 40.23 146.915ZM43.36 203.655C42.36 204.135 41.34 204.545 40.29 204.875C40.11 204.945 39.93 204.995 39.74 205.045C38.36 205.465 36.96 205.765 35.53 205.965C33.66 206.225 31.76 206.345 29.87 206.275C29.84 206.275 29.82 206.265 29.79 206.265C29.42 206.225 29.04 206.185 28.67 206.155C28.53 206.145 28.39 206.125 28.25 206.115C27.01 205.985 25.77 205.735 24.61 205.275C22.34 204.375 21.12 203.245 19.29 201.445C19.15 201.305 18.94 201.245 18.77 201.135C18.73 201.085 18.69 201.045 18.65 200.995C16.7 198.775 15.3 195.745 14.05 192.845C13.97 192.655 13.89 192.465 13.81 192.285C13.4 191.335 13.01 190.415 12.61 189.545C10.11 184.045 8.06999 178.405 6.07999 172.705C9.16999 173.775 12.33 174.525 15.54 174.955C15.69 174.985 15.84 175.005 15.99 175.015C18.51 175.345 21.05 175.485 23.61 175.445C23.82 175.445 24.03 175.445 24.24 175.435L25.19 175.405C29.99 175.215 35.16 174.825 39.93 175.905C41.2946 176.209 42.6248 176.651 43.9 177.225C50.3 180.135 54.49 186.545 52.34 193.565C50.96 198.035 47.54 201.645 43.36 203.655ZM44.83 176.905C43.45 176.235 42.02 175.735 40.56 175.355C40.34 175.295 40.12 175.235 39.9 175.195C36.24 174.325 32.41 174.205 28.65 174.305C27.12 174.335 25.6 174.375 24.11 174.375C23.92 174.385 23.74 174.385 23.56 174.385C20.98 174.385 18.44 174.315 15.92 174.075C15.79 174.065 15.66 174.045 15.53 174.035C12.05 173.675 8.59999 172.995 5.07999 171.745C4.84999 171.665 4.68999 171.655 4.59999 171.685C4.43999 171.685 4.34999 171.735 4.37999 171.845C6.52999 178.985 9.39999 185.945 12.65 192.645C12.81 192.985 12.98 193.325 13.15 193.675L13.35 194.085C14.72 196.935 16.19 199.855 18.33 202.185C18.49 202.365 18.66 202.535 18.83 202.705C19.38 203.265 19.98 203.775 20.63 204.235C22.73 205.725 25.28 206.685 28.01 207.155C28.36 207.215 28.72 207.265 29.08 207.305C32.23 207.705 35.58 207.485 38.76 206.735C38.92 206.695 39.06 206.655 39.22 206.615H39.23C43.76 205.465 47.9 203.245 50.59 200.195C57.9 191.885 54.08 181.355 44.83 176.905Z" fill="#777777"/>
<path fill-rule="evenodd" clip-rule="evenodd" d="M52.82 191.465C51.02 190.515 49.16 190.075 47.27 189.905C47.03 189.875 46.79 189.855 46.55 189.845C46.24 189.825 45.93 189.815 45.62 189.815C45.36 189.795 45.1 189.795 44.84 189.795C42.49 189.795 40.12 190.035 37.73 190.075C37.5 190.085 37.28 190.085 37.06 190.085H37.03C36.51 190.085 35.98 190.075 35.46 190.045C35.14 190.045 34.83 190.025 34.51 189.995C31.5 189.815 28.5 189.275 25.61 188.395C23.12 187.635 20.66 186.625 18.3 185.375C18.05 185.245 17.8 185.115 17.56 184.965C12.48 182.155 7.95 178.215 4.91 173.375C4.75 173.125 5.83 172.415 6.03 172.665C9.26 176.435 12.76 179.755 16.69 182.415C16.97 182.605 17.25 182.795 17.53 182.965C21.22 185.335 25.29 187.125 29.84 188.155C31.48 188.525 33.1 188.715 34.7 188.805C34.98 188.825 35.25 188.835 35.51 188.845C35.99 188.865 36.47 188.875 36.94 188.875H37.62C39.92 188.865 42.22 188.735 44.57 188.705C44.88 188.695 45.18 188.685 45.49 188.685H46.37C49.04 188.705 51.95 188.805 54.08 190.565C54.33 190.775 53.14 191.635 52.82 191.465Z" fill="#777777"/>
<path fill-rule="evenodd" clip-rule="evenodd" d="M18.3 185.375C18.05 185.245 17.8 185.115 17.56 184.965C17.22 184.135 16.93 183.285 16.69 182.415C15.99 179.985 15.62 177.435 15.54 174.955C15.54 174.645 15.53 174.335 15.53 174.035C15.66 174.045 15.79 174.065 15.92 174.075C15.93 174.395 15.96 174.705 15.99 175.015C16.22 177.795 16.76 180.385 17.53 182.965C17.76 183.765 18.02 184.575 18.3 185.375ZM29.67 188.685C26.62 185.425 24 180.225 23.61 175.445C23.58 175.085 23.56 174.735 23.56 174.385C23.74 174.385 23.92 174.385 24.11 174.375C24.15 174.735 24.19 175.085 24.24 175.435C24.9 180.065 26.71 184.565 29.7 188.245C29.84 188.415 30.03 189.075 29.67 188.685ZM37.73 190.075C37.5 190.085 37.28 190.085 37.06 190.085C37.05 189.675 37.01 189.275 36.94 188.875C36.17 184.025 32.13 179.735 32.84 174.475C32.9 174.065 33.14 174.805 33.13 174.945C32.94 179.615 36.89 184.215 37.62 188.875C37.68 189.275 37.72 189.675 37.73 190.075ZM45.62 189.805V189.815C45.36 189.795 45.1 189.795 44.84 189.795L44.57 188.705C44.17 187.015 43.77 185.335 43.21 183.685C42.52 181.665 40.72 178.135 39.93 175.905C39.87 175.735 39.82 175.575 39.77 175.425C39.75 175.375 39.81 175.285 39.9 175.195C40.12 175.235 40.34 175.295 40.56 175.355C40.77 175.625 40.98 175.915 41.18 176.225C43.29 179.485 44.99 184.975 45.49 188.685C45.55 189.075 45.59 189.455 45.62 189.805ZM13.15 193.675C13.34 193.215 13.57 192.755 13.81 192.285C15.1 189.775 16.89 187.265 18.89 185.495C19.15 185.265 19.26 185.385 19.06 185.655C18.07 187.015 16.92 188.245 15.97 189.645C15.27 190.675 14.66 191.755 14.05 192.845C13.84 193.245 13.62 193.635 13.39 194.035C13.38 194.045 13.37 194.065 13.35 194.085L13.15 193.675ZM26.18 187.685C23.13 192.065 21.1 196.565 19.29 201.445C19.13 201.865 18.98 202.285 18.83 202.705C18.66 202.535 18.49 202.365 18.33 202.185C18.42 201.785 18.53 201.385 18.65 200.995C20.03 196.175 22.78 191.505 25.84 187.745C25.95 187.615 26.44 187.325 26.18 187.685ZM35.51 188.845C35.51 189.245 35.49 189.645 35.46 190.045C35.11 195.805 32.97 201.465 29.79 206.265C29.56 206.615 29.32 206.965 29.08 207.305C28.72 207.265 28.36 207.215 28.01 207.155C28.24 206.825 28.46 206.495 28.67 206.155C31.88 201.085 33.57 195.895 34.51 189.995C34.58 189.605 34.64 189.205 34.7 188.805C34.98 188.825 35.25 188.835 35.51 188.845ZM46.13 194.975C44.27 198.315 42.29 201.615 40.29 204.875C39.94 205.465 39.58 206.045 39.23 206.615H39.22C39.06 206.655 38.92 206.695 38.76 206.735C39.09 206.175 39.41 205.605 39.74 205.045C40.68 203.435 41.64 201.825 42.59 200.215C44.03 197.795 48.03 193.015 46.56 189.925C46.47 189.725 46.86 189.065 46.94 189.205C48.13 191.285 47.2 193.075 46.13 194.975ZM60.96 224.865C60.93 225.235 60.89 225.605 60.85 225.975C60.37 225.965 59.89 225.975 59.41 225.985C59.45 225.615 59.49 225.245 59.52 224.875C61.92 201.645 62.2 178.345 60.31 155.085C60.31 154.965 60.3 154.835 60.28 154.715C60.06 151.925 59.8 149.145 59.51 146.355C56.82 120.525 54.35 93.7549 57.27 67.8049C57.31 67.3849 57.36 66.9649 57.41 66.5449H57.49C57.78 66.5649 58.07 66.5649 58.36 66.5649C58.57 66.5649 58.77 66.5649 58.98 66.5549C59 66.5749 59 66.5949 59 66.6149C58.99 67.0449 58.98 67.4749 58.96 67.9049C58.6 81.3349 57.76 94.6749 58.2 108.135C58.63 121.225 60 134.185 61.28 147.205C61.49 149.355 61.68 151.505 61.85 153.655C61.89 154.015 61.92 154.385 61.94 154.755C63.77 178.095 63.48 201.575 60.96 224.865Z" fill="#777777"/>
<path fill-rule="evenodd" clip-rule="evenodd" d="M73.67 100.385C73.18 100.725 72.68 101.055 72.19 101.385C70.12 102.775 68.03 104.125 65.98 105.545C63.85 107.015 58.57 109.495 58.07 112.235C58.04 112.425 57.23 111.925 57.17 111.825C55.58 109.435 60.83 107.125 62.45 105.985C65.41 103.915 68.4 101.835 71.46 99.9047C71.91 99.6147 72.37 99.3247 72.82 99.0547C72.87 99.1947 72.94 99.3147 73.01 99.4347C73.04 99.4447 73.06 99.4647 73.08 99.4947C73.15 99.6047 73.21 99.7047 73.29 99.8147C73.41 100.015 73.54 100.205 73.67 100.385Z" fill="#777777"/>
<path fill-rule="evenodd" clip-rule="evenodd" d="M58.36 114.395C58.35 114.745 56.94 114.515 56.86 114.195C56.15 111.235 55 109.685 52.49 107.955C51.29 107.135 50.07 106.325 48.87 105.485C48.5 105.235 48.14 104.975 47.78 104.715C47.85 104.595 47.91 104.465 47.97 104.335C47.51 104.165 47.04 103.985 46.58 103.795C46.51 103.745 46.43 103.685 46.36 103.625C45.93 103.285 47.41 103.375 47.64 103.505C47.83 103.615 48.03 103.735 48.22 103.845C48.62 104.085 49.01 104.325 49.41 104.575C49.57 104.665 49.73 104.765 49.88 104.865C51.87 106.105 53.83 107.465 55.62 108.885C57.33 110.255 58.43 112.155 58.36 114.395ZM72.27 147.785C72.48 147.975 72.7 148.165 72.92 148.325C72.74 148.505 72.55 148.695 72.35 148.875C69.42 151.635 65.83 153.805 61.94 154.755C61.4 154.895 60.86 155.005 60.31 155.085C60.31 154.965 60.3 154.835 60.28 154.715C60.43 154.415 60.69 154.035 60.84 153.985C61.18 153.875 61.52 153.765 61.85 153.655C65.55 152.405 68.83 150.755 71.69 148.305C71.89 148.135 72.08 147.965 72.27 147.785ZM46.704 148.852C49.082 149.297 51.468 149.329 53.826 149.974C56.495 150.704 58.799 152.035 61.27 153.222C61.6 153.38 61.826 151.869 61.54 151.635C57.876 148.635 51.57 146.586 46.872 147.435C46.529 147.496 46.345 148.785 46.704 148.852ZM62.324 199.211C62.232 194.733 65.714 191.281 69.93 190.49C70.218 190.436 70.444 189.422 70.116 189.467C65.106 190.156 61.703 194.984 61.806 199.859C61.818 200.408 62.33 199.487 62.324 199.211Z" fill="#777777"/>
<path fill-rule="evenodd" clip-rule="evenodd" d="M61.984 200.204C60.144 196.418 57.71 190.862 52.995 190.064C52.536 189.985 53.49 191.319 53.723 191.428C55.545 192.281 56.981 193.12 58.193 194.794C59.333 196.37 60.178 198.152 61.073 199.871C61.281 200.273 62.441 201.145 61.984 200.204ZM107.07 228.695C91.736 226.815 76.2986 225.907 60.85 225.975C60.37 225.965 59.89 225.975 59.41 225.985C42.35 226.105 25.3 227.415 8.37001 229.905C7.81001 229.985 6.28001 228.935 7.00001 228.835C24.42 226.275 41.96 224.945 59.52 224.875C60 224.865 60.48 224.865 60.96 224.865C76.15 224.855 91.34 225.775 106.47 227.625C107.11 227.695 108.33 228.845 107.07 228.695Z" fill="#777777"/>
<path fill-rule="evenodd" clip-rule="evenodd" d="M107.36 234.405C107.25 234.845 107.12 235.285 106.97 235.715C105.39 240.535 102.26 245.005 101.28 250.095C101.2 250.485 101.14 250.885 101.09 251.285L101.03 251.825C100.76 254.915 100.8 257.955 100.55 261.005C100.5 261.635 100.43 262.265 100.35 262.895C100.27 263.575 100.16 264.245 100.02 264.925C99.1 269.515 97.63 273.985 96.46 278.515C91.76 296.755 89.07 315.445 88.26 334.255C88.24 334.635 87.53 334.685 87.28 334.675C66.1536 333.921 45.0008 334.458 23.94 336.285C23.68 336.305 22.89 336.325 22.75 335.965C20.15 329.275 19.36 322.045 18.45 314.975C17.38 306.795 14.81 299.045 13.47 290.925C11.79 280.705 10.64 270.355 9.63001 259.985L9.52001 258.935V258.925C9.23001 255.835 8.95001 252.745 8.66001 249.665C8.63001 249.275 8.59001 248.895 8.56001 248.505C8.29001 245.645 8.03001 242.785 7.76001 239.935L7.64001 238.705C7.35001 235.585 7.04001 232.465 6.71001 229.355C6.65001 228.795 8.59001 228.745 8.66001 229.375L9.62001 238.425C9.67001 238.875 9.71001 239.325 9.76001 239.765L10.96 251.045C11.04 251.835 11.13 252.615 11.21 253.405L11.9 259.945L12.14 262.215C12.18 262.525 12.21 262.825 12.24 263.135C13.35 273.595 13.98 284.265 16.09 294.585C17.59 301.925 19.6 308.935 20.57 316.385C21.08 320.295 21.6 324.215 22.41 328.075C22.76 329.735 22.99 331.905 23.77 333.385C25.09 335.905 26.62 335.165 29.39 334.955C38.4 334.265 47.43 333.815 56.46 333.595C61.43 333.485 66.4 333.435 71.38 333.465C73.7 333.485 76.02 333.515 78.34 333.565C79.55 333.585 84.17 334.435 85.3 333.745C87.16 332.605 86.59 328.485 86.72 326.585C86.9 324.045 87.11 321.505 87.36 318.965C87.79 314.515 88.34 310.085 89 305.665C90.36 296.515 92.2 287.445 94.51 278.485C95.68 273.965 97.14 269.485 98.07 264.905C98.19 264.335 98.28 263.775 98.36 263.215C98.44 262.675 98.5 262.135 98.56 261.605C98.86 258.425 98.81 255.265 99.06 252.045C99.07 251.965 99.07 251.875 99.08 251.795C99.1 251.515 99.13 251.235 99.17 250.965C99.9 245.525 103.3 240.785 105 235.705C105.15 235.245 105.29 234.785 105.41 234.325C105.93 232.345 106.14 230.305 105.8 228.145C105.71 227.605 107.64 227.525 107.75 228.165C108.1 230.355 107.88 232.415 107.36 234.405Z" fill="#777777"/>
<path fill-rule="evenodd" clip-rule="evenodd" d="M107.36 234.405C107.25 234.845 107.12 235.285 106.97 235.715C106.31 235.715 105.66 235.715 105 235.705C98.54 235.675 92.08 235.595 85.63 235.585C85.16 235.575 84.69 235.575 84.22 235.575C75.85 235.565 67.48 235.645 59.09 236.025C47.77 236.525 36.5 237.475 25.23 238.445V238.455C24.96 238.475 24.69 238.495 24.42 238.525C19.54 238.945 14.65 239.375 9.76002 239.765C9.09001 239.825 8.43002 239.875 7.76002 239.935L7.64001 238.705C8.30001 238.605 8.96001 238.515 9.62001 238.425C14.6 237.755 19.61 237.215 24.63 236.765L24.98 236.735C36.02 235.755 47.12 235.235 58.14 234.815C66.66 234.485 75.24 234.175 83.83 234.075C84.23 234.065 84.64 234.055 85.04 234.055C91.84 233.985 98.64 234.045 105.41 234.325C106.06 234.345 106.71 234.375 107.36 234.405Z" fill="#777777"/>
<path fill-rule="evenodd" clip-rule="evenodd" d="M24.58 249.165C24.43 249.805 24.25 250.435 24.04 251.045C23.42 252.865 22.58 254.515 21.48 255.855C20.88 256.575 20.25 257.055 19.58 257.325C19.21 257.485 18.84 257.575 18.46 257.615C15.95 257.865 13.24 255.775 11.21 253.405C10.12 252.135 9.22 250.785 8.66 249.665C8.63 249.275 8.59 248.895 8.56 248.505C8.74 248.065 9.07 247.655 9.15 247.835C9.61 248.865 10.22 249.975 10.96 251.045C12.47 253.245 14.52 255.235 16.94 255.845C17.26 255.925 17.6 255.925 17.95 255.855C18.02 255.845 18.09 255.835 18.16 255.805C20.2 255.285 22.42 252.595 23.15 250.965C23.27 250.685 23.38 250.405 23.48 250.105C23.63 249.665 23.75 249.205 23.85 248.745C24.03 247.985 24.16 247.205 24.27 246.465C24.69 243.805 24.62 241.185 24.42 238.525C24.4 238.205 24.37 237.885 24.34 237.555C24.32 237.405 24.47 237.035 24.63 236.765L24.98 236.735C25.08 237.275 25.16 237.845 25.23 238.445V238.455C25.59 241.735 25.45 245.635 24.58 249.165Z" fill="#777777"/>
<path fill-rule="evenodd" clip-rule="evenodd" d="M36.49 255.315C34.87 256.215 33.2 256.475 31.6 256.235C31.39 256.215 31.18 256.185 30.97 256.135C28.19 255.535 25.65 253.525 24.04 251.045C23.8363 250.743 23.6493 250.429 23.48 250.105C23.63 249.665 23.75 249.205 23.85 248.745C24.02 248.675 24.17 248.645 24.23 248.725C24.34 248.865 24.46 249.015 24.58 249.165C26.24 251.245 28.58 253.815 31.14 254.895C31.23 254.935 31.32 254.965 31.41 255.005C33.49 255.795 35.69 255.565 37.77 253.295C40.81 249.965 39.17 242.205 38.18 238.385C38.06 237.945 39.52 237.095 39.66 237.615C41.06 243.025 42.43 252.005 36.49 255.315Z" fill="#777777"/>
<path fill-rule="evenodd" clip-rule="evenodd" d="M57.68 247.135C57.49 247.755 57.22 248.345 56.89 248.885C56.78 249.075 56.66 249.255 56.54 249.425C55.53 250.855 54.12 252.005 52.62 252.885C51.46 253.565 49.91 254.185 48.28 254.555C47.85 254.655 47.42 254.725 46.99 254.785C43.33 255.295 39.65 254.365 39.33 250.035C39.32 249.795 40.32 249.295 40.38 249.495C41.46 252.795 44.12 253.995 46.99 253.855C47.42 253.835 47.86 253.785 48.3 253.705C50.36 253.335 52.41 252.345 53.97 251.025C54.88 250.255 55.5 249.405 55.89 248.495C55.97 248.325 56.03 248.155 56.09 247.975C57.23 244.515 55.29 240.415 53.52 237.245C53.28 236.815 54.79 235.975 55.03 236.395C56.86 239.615 58.87 243.335 57.68 247.135Z" fill="#777777"/>
<path fill-rule="evenodd" clip-rule="evenodd" d="M65.89 251.086C64.95 251.586 63.94 251.876 62.92 251.966C62.36 252.016 61.8 252.006 61.25 251.926C59.44 251.706 57.73 250.846 56.54 249.426C56.3 249.136 56.08 248.826 55.89 248.496C55.97 248.326 56.03 248.156 56.09 247.976C56.28 248.116 56.46 248.286 56.51 248.356C56.63 248.546 56.76 248.726 56.89 248.886C58.16 250.486 59.82 251.006 61.51 250.846C62.03 250.796 62.56 250.686 63.07 250.506C65.09 249.846 66.96 248.366 68.06 246.776C70.42 243.336 70.39 239.176 69.69 235.216C69.59 234.626 70.87 235.546 70.96 235.946C72.09 241.416 71.36 248.176 65.89 251.086Z" fill="#777777"/>
<path fill-rule="evenodd" clip-rule="evenodd" d="M80.38 250.225C79.67 250.555 78.92 250.805 78.15 250.975C77.6 251.105 77.04 251.185 76.47 251.225C73.11 251.505 69.6 250.405 67.3 247.945C67.12 247.755 68.31 247.615 68.53 247.785C70.92 249.605 73.77 250.465 76.44 250.215C76.94 250.185 77.43 250.105 77.91 249.975C80.15 249.415 82.16 248.025 83.55 245.705C85.5 242.435 85.16 239.005 84.22 235.575C84.09 235.095 83.95 234.615 83.8 234.135C83.79 234.115 83.8 234.095 83.83 234.075C84.23 234.065 84.64 234.055 85.04 234.055C85.08 234.085 85.11 234.115 85.12 234.155C85.31 234.625 85.49 235.105 85.63 235.585C87.41 241.225 86.35 247.465 80.38 250.225Z" fill="#777777"/>
<path fill-rule="evenodd" clip-rule="evenodd" d="M101.28 250.096C101.2 250.486 101.14 250.886 101.09 251.286C100.43 251.556 99.75 251.806 99.06 252.046C96.65 252.876 94.15 253.506 91.82 253.626C91.25 253.666 90.69 253.666 90.15 253.626C86.65 253.426 83.69 251.836 82.24 247.736C82.14 247.466 83.29 247.546 83.43 247.776C85.45 250.946 87.92 252.296 90.6 252.596C91.11 252.646 91.62 252.666 92.14 252.646C94.42 252.586 96.8 251.876 99.17 250.966C99.88 250.686 100.58 250.396 101.28 250.096ZM31.27 259.506C31.12 260.086 30.91 260.636 30.62 261.126C30.03 262.166 29.13 262.946 27.79 263.176C25.8 263.506 23.7 262.516 21.87 261.096C21.56 260.856 21.25 260.596 20.96 260.326C19.99 259.456 19.13 258.496 18.46 257.616C18.31 257.426 18.18 257.236 18.05 257.056C17.93 256.886 17.86 256.146 17.95 255.856C18.02 255.846 18.09 255.836 18.16 255.806C18.62 256.316 19.09 256.826 19.58 257.326C20.35 258.106 21.17 258.846 22.05 259.486C22.32 259.686 22.6 259.876 22.89 260.056C23.4 260.366 23.92 260.646 24.48 260.876C26.05 261.536 27.83 261.826 29.25 260.656C29.37 260.556 29.48 260.446 29.59 260.336C29.96 259.936 30.23 259.466 30.42 258.966C30.75 258.086 30.87 257.096 30.97 256.136C31.02 255.746 31.06 255.356 31.12 254.976C31.12 254.946 31.13 254.916 31.14 254.896C31.23 254.936 31.32 254.966 31.41 255.006C31.48 255.156 31.53 255.336 31.54 255.406C31.57 255.676 31.59 255.946 31.6 256.236C31.64 257.276 31.55 258.436 31.27 259.506Z" fill="#777777"/>
<path fill-rule="evenodd" clip-rule="evenodd" d="M22.89 260.055C22.58 260.435 22.24 260.775 21.87 261.095C19.13 263.455 15.23 263.965 12.14 262.215C11.2 261.685 10.34 260.945 9.63002 259.985L9.52002 258.935V258.925C9.68002 258.515 9.94002 258.165 10.1 258.345C10.66 258.965 11.26 259.505 11.9 259.945C14.71 261.905 18.19 262.115 20.96 260.325C21.34 260.085 21.7 259.805 22.05 259.485C22.32 259.685 22.6 259.875 22.89 260.055ZM48.3 253.705C48.32 253.995 48.31 254.275 48.28 254.555C48.1 256.985 46.75 259.385 44.85 260.935C40.79 264.255 34.81 264.005 30.62 261.125C30.26 260.885 29.92 260.615 29.59 260.335C29.96 259.935 30.23 259.465 30.42 258.965C30.7 259.155 30.99 259.335 31.27 259.505C33.9 261.125 36.68 262.145 39.86 261.805C44.02 261.365 46.8 258.355 46.99 254.785C47.02 254.475 47.02 254.165 46.99 253.855C47.42 253.835 47.86 253.785 48.3 253.705Z" fill="#777777"/>
<path fill-rule="evenodd" clip-rule="evenodd" d="M63.07 250.505C63.07 251.005 63.01 251.485 62.92 251.965C62.66 253.295 62.13 254.565 61.46 255.805C61.28 256.165 61.08 256.515 60.87 256.855C60.8 256.975 60.73 257.085 60.66 257.205C59.36 259.325 57.88 261.915 55.36 262.715C52.1 263.745 48.36 262.225 45.82 260.015C45.5557 259.79 45.3052 259.55 45.07 259.295L45.34 258.985C45.45 259.035 45.53 259.085 45.57 259.115C45.77 259.275 45.97 259.445 46.19 259.595C48.63 261.415 52.06 262.815 54.97 261.275C56.53 260.445 57.59 258.715 58.55 257.305C59.06 256.555 59.53 255.815 59.93 255.065C60.11 254.755 60.27 254.445 60.41 254.135C60.76 253.415 61.04 252.685 61.25 251.925C61.36 251.575 61.45 251.215 61.51 250.845C62.03 250.795 62.56 250.685 63.07 250.505Z" fill="#777777"/>
<path fill-rule="evenodd" clip-rule="evenodd" d="M75.65 257.146C75.48 257.296 75.31 257.446 75.14 257.586C73.5 258.896 71.39 259.746 69.28 259.876C66.49 260.046 62.74 259.196 60.87 256.856C60.45 256.336 60.12 255.736 59.93 255.066C60.11 254.756 60.27 254.446 60.41 254.136C60.69 254.246 60.97 254.416 61.01 254.566C61.13 255.016 61.28 255.436 61.46 255.806C63.7 260.476 70.56 259.686 74.18 256.106C74.3 255.986 74.42 255.866 74.53 255.736C75.65 254.486 76.39 252.956 76.47 251.226C76.48 250.896 76.48 250.556 76.44 250.216C76.94 250.186 77.43 250.106 77.91 249.976C78.02 250.306 78.1 250.646 78.15 250.976C78.49 253.346 77.41 255.526 75.65 257.146Z" fill="#777777"/>
<path fill-rule="evenodd" clip-rule="evenodd" d="M92.14 252.645C92.05 252.975 91.94 253.305 91.82 253.625C91.19 255.375 90.19 256.965 88.87 258.225C88.73 258.365 88.58 258.505 88.42 258.625C87.1889 259.696 85.7115 260.445 84.12 260.805C80.64 261.595 77.25 260.205 75.14 257.585C74.78 257.125 74.45 256.635 74.18 256.105C74.3 255.985 74.42 255.865 74.53 255.735C74.87 256.265 75.25 256.735 75.65 257.145C78.96 260.475 84.14 260.045 87.63 256.965C87.64 256.965 87.64 256.965 87.65 256.955C87.6982 256.917 87.7418 256.873 87.78 256.825C88.82 255.875 89.58 254.795 90.15 253.625C90.32 253.295 90.47 252.945 90.6 252.595C91.11 252.645 91.62 252.665 92.14 252.645Z" fill="#777777"/>
<path fill-rule="evenodd" clip-rule="evenodd" d="M100.55 261.005C100.5 261.635 100.43 262.265 100.35 262.895C99.69 263.045 99.02 263.155 98.36 263.215C94.37 263.625 90.58 262.445 88.42 258.625C88.12 258.125 87.87 257.575 87.64 256.985C87.64 256.975 87.63 256.975 87.63 256.965C87.64 256.965 87.64 256.965 87.65 256.955C87.6982 256.917 87.7418 256.873 87.78 256.825C88 256.975 88.35 257.335 88.41 257.445C88.56 257.725 88.71 257.985 88.87 258.225C91.35 262.085 94.89 262.505 98.56 261.605C99.22 261.445 99.89 261.245 100.55 261.005ZM14.571 246.458C14.761 248.202 16.926 248.968 18.445 248.65C19.923 248.341 21.675 246.57 21.045 244.946C20.555 243.683 18.205 243.344 17.015 243.413C15.627 243.493 14.253 245.116 14.517 246.507C14.589 246.883 15.343 245.942 15.389 245.851C15.549 245.536 15.636 245.021 15.933 244.887C16.227 244.757 16.763 244.897 17.064 244.947C17.834 245.077 18.957 245.128 19.53 245.71C20.082 246.271 19.92 247.028 19.125 247.183C18.7244 247.255 18.3137 247.25 17.915 247.168C16.726 246.935 16.327 246.094 15.4 245.5C15.116 245.32 14.546 246.23 14.571 246.458ZM32.262 244.259C31.439 243.146 28.99 243.372 29.037 245.017C29.093 246.977 31.976 247.575 33.463 247.227C34.45 246.997 35.308 246.609 35.669 245.607C35.924 244.897 35.675 244.35 35.081 243.927C34.089 243.224 31.826 242.541 30.745 243.405C30.492 243.607 31.664 244.018 31.908 243.92C32.43 243.71 33.186 243.756 33.672 244.05C34.276 244.416 34.002 245.164 33.565 245.626C33.107 246.112 31.626 246.691 31.058 246.102C30.601 245.628 30.989 244.237 31.774 244.432C31.893 244.462 32.48 244.554 32.262 244.259ZM46.312 242.537C44.9 242.091 42.952 243.51 42.969 244.99C42.986 246.694 44.965 247.33 46.352 246.945C47.774 246.55 49.346 245.117 48.328 243.593C47.633 242.553 46.139 242.191 45.289 243.31C45.035 243.645 46.175 243.26 46.303 243.15L45.728 243.357C45.772 243.377 45.816 243.4 45.861 243.421C45.901 243.493 46.094 243.594 46.163 243.656C46.383 243.854 46.583 244.086 46.733 244.343C47.003 244.81 47.173 245.892 46.435 246.052C45.86 246.176 45.132 245.53 44.895 245.077C44.666 244.642 44.605 243.382 45.318 243.305C45.517 243.284 46.908 242.725 46.312 242.537ZM60.552 242.689C59.84 242.681 59.149 242.806 58.667 243.372C58.301 243.8 58.153 244.412 58.336 244.95C58.782 246.255 60.614 246.566 61.781 246.275C63.021 245.965 63.789 244.671 62.915 243.56C62.16 242.602 60.839 242.21 59.709 242.734C59.264 242.941 60.226 243.154 60.329 243.16C60.329 243.16 60.866 243.204 60.691 243.136C60.706 243.141 60.828 243.25 60.848 243.268C61.026 243.428 61.218 243.576 61.354 243.778C61.737 244.351 61.658 245.148 61.028 245.503C60.791 245.636 60.795 245.648 60.561 245.485C60.3133 245.312 60.1415 245.05 60.081 244.754C60.006 244.371 60.233 243.41 60.743 243.37C60.939 243.355 61.413 243.316 61.381 243.03C61.349 242.764 60.724 242.69 60.551 242.689H60.552ZM73.932 244.555L73.842 244.658C73.755 244.755 73.697 244.824 73.772 244.948C74.676 246.458 76.866 246.198 78.248 245.614C79.438 245.112 81.113 243.577 79.414 242.534C78.431 241.933 76.784 241.89 75.656 241.988C74.152 242.118 73.344 243.128 73.944 244.606C74.047 244.861 75.101 244.791 75.15 244.514C75.238 244.023 75.175 242.908 75.77 242.672C76.111 242.535 76.927 242.716 77.281 242.778C78.379 242.972 78.739 243.967 77.814 244.714C77.281 245.144 76.354 245.49 75.774 245.006C75.492 244.771 75.46 244.549 75.087 244.421C74.791 244.319 74.165 244.291 73.932 244.555ZM90.653 243.358C89.333 243.226 89.044 245.508 89.444 246.384C90.147 247.92 92.115 247.101 92.882 246.117C93.538 245.278 94.523 243.261 93.536 242.313C92.611 241.424 90.496 242.763 89.757 243.327C89.539 243.493 89.277 244.787 89.679 244.682C90.437 244.484 91.141 244.135 91.915 243.966C92.169 243.91 92.493 243.834 92.755 243.902C92.805 243.914 92.995 244.017 93.03 244.01C93.1 244.126 93.126 244.093 93.105 243.91C93.145 243.673 93.124 243.687 93.039 243.953C92.594 244.691 92.287 245.442 91.299 245.528C90.903 245.562 90.475 245.469 90.195 245.171C90.1409 245.131 90.0993 245.077 90.075 245.015C90.012 244.883 90.005 244.901 90.05 245.067C90.167 244.936 90.347 244.868 90.506 244.814C90.796 244.716 91.013 243.394 90.653 243.358Z" fill="#777777"/>
</svg>
