<svg width="160" height="239" viewBox="0 0 160 239" fill="none" xmlns="http://www.w3.org/2000/svg">
<path d="M32.357 39.9682C33.372 40.6532 35.175 42.5162 36.788 42.7762C36.788 42.8512 36.738 42.9202 36.718 42.9962C36.648 43.2102 36.584 43.4222 36.528 43.6322C36.508 43.7002 36.49 43.7692 36.471 43.8372C36.0645 45.3123 35.8049 46.824 35.696 48.3502C35.696 48.5152 36.034 49.2062 36.076 48.9402C36.355 47.3892 36.748 45.8602 37.253 44.3652C39.1026 45.3933 41.2542 45.7398 43.333 45.3442C45.114 45.0152 48.587 43.6592 48.038 41.3312C47.164 37.5582 41.367 40.0512 38.134 42.0162C39.6273 38.561 41.6314 35.3498 44.079 32.4902C47.122 35.4422 57.216 39.2082 59.703 34.1882C60.858 31.8532 58.808 29.7102 56.568 29.1072C53.363 28.2442 49.383 29.0732 46.128 30.1752C48.7124 27.4886 51.4578 24.9616 54.349 22.6082C56.849 23.6282 59.484 24.5802 62.232 24.4982C63.64 24.4642 67.599 23.8962 66.922 21.6282C66.465 20.1152 63.901 20.0192 62.696 19.9102C60.9534 19.7535 59.198 19.8133 57.47 20.0882C56.806 20.1842 56.147 20.3142 55.497 20.4782C55.5306 20.4314 55.5591 20.3811 55.582 20.3282C56.6527 18.2615 57.3061 16.0043 57.505 13.6852C57.639 12.0482 58.075 7.37824 55.201 8.06924C53.328 8.52124 51.44 11.4592 51.045 13.1992C50.447 15.8082 52.088 18.7592 53.469 21.1222L53.56 21.2862C53.652 21.4372 53.736 21.5952 53.828 21.7382C50.6259 24.2616 47.6057 27.0078 44.79 29.9562C45.643 26.6012 46.2 22.3682 44.403 19.4922C43.374 17.8072 41.17 16.3902 39.141 17.3692C35.668 19.0402 37.246 23.7652 38.331 26.3612C39.303 28.6892 40.888 30.9212 43.431 31.4912C41.4347 33.7687 39.7283 36.2849 38.351 38.9822C38.465 36.2422 37.845 33.4282 35.401 31.8602C33.345 30.4792 30.551 30.8112 28.899 32.6342C26.279 35.7222 29.99 38.4072 32.357 39.9682Z" fill="white"/>
<path d="M153.233 160.212C160.983 164.526 161.68 172.598 157.335 179.732C152.222 188.117 143.713 194.563 135.441 199.634C128.309 203.975 120.626 207.338 112.598 209.63L108.162 221.669C118.977 221.956 129.786 222.377 141.027 223.155C141.174 223.468 141.187 223.989 140.902 223.989H140.386C125.864 241.779 98.027 238.771 77.528 238.771C55.215 238.771 26.353 242.036 9.73201 223.891C9.46545 223.611 9.21409 223.316 8.979 223.009C8.797 222.801 9.467 222.169 9.627 222.356L10.185 222.968C18.988 222.336 27.832 221.947 36.69 221.69C34.849 217.626 29.848 215.618 27.176 212.069C24.582 208.623 23.061 204.449 21.415 200.502C17.279 190.617 13.219 180.579 11.127 170.042C10.018 164.505 8.21201 156.592 12.215 151.73C14.886 148.48 19.378 148.424 23.256 148.187L29.471 147.812C27.288 144.2 25.816 139.935 24.065 135.732C20.536 137.309 17.285 140.414 13.233 140.49C10.806 140.54 6.789 138.629 8.183 135.565C9 133.745 11.755 133.308 13.457 133.051C16.9095 132.515 20.4433 133.049 23.584 134.579C22.245 131.369 20.92 128.125 19.532 124.36C15.779 125.034 3.545 125.687 4.187 119.908C4.815 114.267 16.526 120.359 18.89 122.603C18.642 121.928 18.4096 121.247 18.193 120.561C16.505 115.017 15.5437 109.278 15.333 103.486C11.329 101.964 5.233 101.992 1.969 99.0062C-0.325995 96.8802 -0.910995 93.3092 1.823 91.3222C2.63915 90.728 3.61079 90.3846 4.61905 90.334C5.6273 90.2834 6.62845 90.5278 7.5 91.0372C9.579 92.2182 10.932 94.6082 12.327 96.4562C13.275 97.7482 14.237 99.0332 15.193 100.318C15.089 98.1862 15.089 96.0182 15.089 93.9342C15.089 90.2392 14.984 86.3072 15.089 82.3472L14.329 81.8822C12.05 80.7804 9.86011 79.5033 7.779 78.0622C6.203 76.9842 4.361 75.7622 3.594 73.9282C2.527 71.3582 4.096 68.5652 6.531 67.4882C7.78853 66.9683 9.17194 66.8327 10.5065 67.0986C11.841 67.3645 13.0668 68.02 14.029 68.9822C14.8629 69.8023 15.5138 70.7896 15.939 71.8792C16.3686 68.9207 17.1053 66.015 18.137 63.2092C12.961 62.9662 6.747 55.5192 9.167 50.2752C10.876 46.5722 14.237 49.1222 15.919 51.2892C17.0574 52.7891 17.9539 54.458 18.576 56.2352C19.566 51.0602 23.452 37.3682 29.331 42.5082C34.04 46.6352 29.729 52.9842 25.774 56.7982C26.264 56.6262 26.765 56.4862 27.274 56.3812C28.753 56.0822 31.808 55.5262 32.938 57.0752C34.995 59.9172 29.143 62.4522 27.358 63.0432C24.5314 63.9531 21.507 64.0563 18.625 63.3412C17.5844 67.0205 16.8841 70.7877 16.533 74.5952C16.658 75.9282 16.602 77.2712 16.365 78.5892C18.13 77.0542 20.592 75.8592 22.057 75.0322C23.696 74.0952 28.209 70.8442 30.245 72.1922C32.938 73.9902 28.948 78.5962 27.358 79.7912C24.142 82.2152 19.971 82.6742 16.058 82.3472C15.982 86.1962 15.982 90.0232 15.982 93.6842C15.989 95.9142 16.016 98.1642 16.1 100.415C18.1677 97.5107 20.7893 95.0438 23.814 93.1562C25.377 92.1492 30.998 88.6892 30.343 93.3022C29.729 97.5882 22.266 104.625 17.293 103.68C17.0341 103.633 16.7797 103.564 16.533 103.472C16.7752 108.403 17.5442 113.293 18.827 118.06C18.664 115.746 19.3184 113.447 20.676 111.565C21.854 110.043 24.163 108.355 26.256 109.189C29.604 110.537 28.571 115.733 27.33 118.095C25.8116 120.71 23.591 122.846 20.92 124.263C21.945 127.049 23.04 129.765 24.163 132.543C24.0204 130.153 24.6807 127.785 26.039 125.813C27.379 123.971 29.283 124.124 30.531 125.993C33.391 130.279 29.541 134.433 25.356 135.419C25.44 135.635 25.53 135.85 25.621 136.059C27.197 139.831 28.661 144.109 30.88 147.68L38.65 147.229C43.337 146.96 48.024 146.715 52.711 146.492C51.83 144.43 51.1164 142.299 50.577 140.122C50.4364 139.602 50.3063 139.078 50.187 138.552C46.0949 140.277 41.5213 140.484 37.29 139.136C35.044 138.386 32.645 136.871 33.3 134.176C34.681 128.528 46.671 131.147 49.53 135.566C49.468 135.26 49.405 134.961 49.35 134.662C48.464 130.022 47.815 125.332 47.39 120.484C47.362 120.206 47.32 119.922 47.32 119.567L46.622 119.831C43.274 121.054 39.696 121.985 36.299 120.637C34.039 119.741 31.208 117.108 32.331 114.385C33.251 112.12 35.671 112.322 37.646 112.815C41.091 113.718 44.766 115.01 47.187 117.678C47.0893 116.394 47.0127 115.109 46.957 113.822C46.8596 111.599 46.8109 109.373 46.811 107.147C42.409 105.195 25.098 96.9492 33.07 92.2872C35.783 90.7042 39.41 91.7042 41.789 93.4202C44.607 95.4562 46.204 98.8252 46.901 102.298C47.031 98.4732 47.308 94.6592 47.731 90.8572C47.829 90.0172 47.92 89.1622 48.017 88.3002C43.205 86.4462 33.53 80.4922 37.304 75.1022C39.041 72.6152 42.472 73.8722 44.334 75.5052C47.013 77.8452 47.913 81.3402 48.526 84.0912C49.036 81.3192 50.333 75.5672 50.87 72.3582C46.322 70.6492 42.849 68.2802 41.65 63.3282C41.238 61.6182 39.954 57.5892 41.886 56.1312C44.369 54.2552 48.276 57.5892 50.145 59.9722C50.228 54.6862 51.533 45.3772 57.496 47.1832C60.328 48.0382 61.353 51.2542 61.256 53.9222C61.123 57.5272 59.114 60.9452 56.764 63.7792C57.5 63.2782 58.277 62.8392 59.086 62.4662C60.949 61.6182 66.452 59.5692 67.526 62.6192C68.223 64.6402 66.068 67.2392 64.736 68.4052C61.332 71.3922 56.687 71.6422 52.084 71.3922C51.372 75.8592 50.298 80.2702 49.377 85.1262C52.4348 81.5893 56.2489 78.7855 60.537 76.9222C63.285 75.6992 67.637 75.2892 67.512 79.5132C67.414 82.7432 64.08 85.2792 61.423 86.5152C57.529 88.3322 53.027 88.3322 49.133 86.6192C49.063 86.9952 49.008 87.3772 48.938 87.8562C48.903 88.1262 48.819 88.3982 48.819 88.7382C48.708 89.5092 48.603 90.2882 48.519 91.0652C48.2029 94.2542 47.9705 97.451 47.822 100.652C48.8812 97.3604 51.163 94.6004 54.197 92.9412C56.603 91.6412 62.546 89.6902 64.004 93.1632C65.078 95.7192 62.532 98.5882 60.809 100.11C59.0351 101.655 56.938 102.783 54.6713 103.412C52.4047 104.04 50.0261 104.154 47.71 103.743C47.662 104.82 47.662 105.903 47.662 107.438C47.662 108.976 47.687 110.511 47.738 112.044C47.808 114.232 47.898 116.462 48.038 119.269C48.035 119.303 48.035 119.339 48.143 120.026C49.9 117.518 51.749 115.017 53.723 112.656C55.48 110.536 57.483 107.821 60 106.536C62.713 105.153 65.838 106.313 65.957 109.509C66.138 113.669 61.744 118.546 58.466 120.561C55.402 122.568 51.499 122.806 48.15 121.186C48.5085 126.688 49.325 132.151 50.591 137.517C50.647 137.744 50.71 137.976 50.968 138.212L51.261 137.184C52.202 133.933 53.248 130.564 54.992 127.785C56.387 125.597 61.828 120.491 64.059 124.513C65.447 127.007 63.453 130.863 62.12 132.891C59.856 136.319 56.3598 138.744 52.356 139.664C52.006 139.74 51.526 139.838 51.163 139.9C51.816 142.162 52.62 144.378 53.827 146.534C59.2748 146.27 64.7251 146.06 70.177 145.902C69.9742 145.369 69.7901 144.829 69.625 144.283C66.355 144.263 57.329 143.186 59.916 139.351C61.848 136.482 66.822 138.4 68.754 140.699C67.805 135.746 67.784 130.453 67.721 126.111C67.667 122.258 67.811 118.404 68.154 114.566L68.217 113.732C68.258 113.267 68.307 112.808 68.356 112.342C68.929 107.151 69.916 102.012 71.453 96.4562L70.448 95.5462C67.338 92.7672 63.328 88.3762 67.617 84.8692C69.472 83.3822 71.717 84.0142 72.415 86.3832C73.357 84.1462 74.891 81.2912 76.845 80.1312C78.595 79.0892 80.345 80.0612 80.576 82.0692C80.827 84.2792 79.146 86.7312 77.94 88.3982C77.0909 89.5734 76.1206 90.656 75.045 91.6282C75.8066 91.3371 76.6278 91.2362 77.4373 91.3343C78.2467 91.4324 79.02 91.7265 79.69 92.1912C80.988 93.1772 81.88 95.0602 80.764 96.4982C78.874 98.8942 74.689 98.2832 71.697 97.1922C70.5798 101.798 69.7185 106.461 69.117 111.162C71.864 107.251 77.402 100.36 79.579 105.716C80.555 108.091 79.404 110.94 77.661 112.662C75.38 114.92 71.788 115.572 68.726 114.746C68.3494 118.738 68.2142 122.749 68.321 126.757C68.461 131.697 68.656 137.031 69.939 141.928C70.476 139.56 71.327 137.08 73.05 135.343C74.494 133.877 77.096 133.03 78.337 135.183C79.362 136.941 78.797 139.157 77.528 140.629C75.805 142.637 73.029 143.359 70.608 144.124C70.804 144.714 71.02 145.291 71.265 145.86C78.037 145.666 84.81 145.59 91.582 145.59C92.172 143.616 92.729 141.637 93.368 139.185C92.9815 139.141 92.5976 139.075 92.218 138.99C87.635 138.031 83.226 134.787 79.739 131.904C78.002 130.515 75.415 128.244 76.161 125.652C77.319 121.714 82.711 125.632 84.531 126.882C88.3491 129.53 91.5686 132.949 93.981 136.92C95.288 131.603 96.367 126.248 97.121 120.693C96.6847 120.581 96.2519 120.455 95.823 120.317C90.927 118.817 86.24 116.045 83.331 111.78C81.908 109.69 80.095 106.153 82.947 104.403C86.574 102.173 91.415 105.271 93.549 108.147C95.984 111.454 96.821 115.552 97.434 119.47C98.364 113.253 98.9858 106.993 99.297 100.714C93.696 100.234 88.304 97.7482 83.798 94.4622C81.622 92.8782 78.651 89.4192 81.441 86.8972C84.441 84.1602 89.867 86.6962 92.419 88.7802C95.433 91.2252 97.385 94.6702 98.92 98.2062C99.01 98.4012 99.108 98.6442 99.352 98.9222L99.394 97.8802C99.562 93.4342 99.562 88.9882 99.394 84.5422C99.366 83.8272 99.338 83.0972 99.101 82.1672C93.151 80.8752 86.484 78.1032 81.991 74.0462C79.488 71.7812 77.731 67.5792 81.043 65.2162C84.356 62.8552 89.33 64.6962 92.245 66.7802C95.719 69.2742 97.769 72.9142 98.948 76.8662C98.5256 71.3293 97.8482 65.8148 96.918 60.3402C91.7396 58.7848 86.8691 56.3455 82.522 53.1302C80.806 51.7402 76.461 47.4062 79.795 45.4882C82.48 43.9682 88.562 45.7942 90.955 47.4402C94.24 49.6702 95.133 53.4772 96.332 57.0752C96.0197 55.4085 95.685 53.746 95.328 52.0882C94.2341 46.7537 92.8677 41.4788 91.234 36.2842C87.314 38.7502 82.348 38.9312 77.856 37.8822C75.331 37.2982 69.374 36.1242 68.14 33.3042C66.166 28.8032 73.775 29.2962 75.93 29.4972C81.015 29.9562 86.121 30.9072 90.452 33.9572C88.8577 29.3375 86.7523 24.9104 84.175 20.7582C80.1313 21.76 75.9079 21.7909 71.85 20.8482C70.316 20.5222 67.819 20.0152 67.77 17.9732C67.693 14.7362 72.778 14.2772 75.031 14.4302C76.255 14.5142 77.468 14.7212 78.651 15.0482C77.87 14.3812 77.221 13.7842 77.047 13.5962C75.7138 12.1812 74.6522 10.5331 73.915 8.73421C72.987 6.44821 71.502 1.69721 74.466 0.349209C77.026 -0.810791 80.569 1.15521 82.403 2.79421C84.5749 4.81146 85.9987 7.5054 86.442 10.4362C86.659 10.1462 86.892 9.86721 87.139 9.60221C88.632 8.00421 92.099 5.22621 94.47 6.35221C97.574 7.81721 94.289 12.6102 92.963 14.1592C90.823 16.6672 88.004 18.3972 85.103 20.4672C87.4929 24.4346 89.4657 28.6386 90.99 33.0122C91.945 28.3792 93.877 23.9332 97.365 20.6202C99.659 18.4522 106.306 14.0762 109.425 16.7782C112.542 19.4802 106.865 26.3582 104.925 28.3232C101.336 31.9162 96.572 34.1072 91.631 34.8742C91.736 35.1872 91.841 35.4992 91.938 35.8122C93.605 40.9592 94.847 46.2522 95.97 51.4492C96.081 51.9842 96.179 52.5192 96.29 53.0462C96.45 47.8222 98.976 41.7092 102.505 38.4582C104.988 36.1592 109.661 34.1522 112.828 36.5902C115.995 39.0282 113.218 44.4052 111.517 46.9122C108.141 51.8862 102.687 54.6922 96.953 56.3252C97.186 57.6642 97.418 59.0272 97.727 61.0212C98.6285 66.5455 99.2708 72.1089 99.652 77.6932C102.965 72.5252 103.677 65.3832 108.608 61.3482C111.078 59.3262 116.901 57.5342 118.052 61.8552C118.98 65.3632 116.134 69.8152 113.937 72.2402C110.303 76.2482 105.065 78.3952 99.743 78.9852C99.794 79.7212 99.836 80.4582 99.869 81.1952C99.91 81.4372 99.91 81.6802 99.91 81.9302C99.962 82.9862 100.003 84.0422 100.036 85.0982C100.143 88.8032 100.143 92.5082 100.036 96.2132C101.558 92.7049 103.894 89.6096 106.85 87.1832C109.257 85.2232 116.008 81.7912 117.899 86.0502C119.67 90.0442 115.29 94.5872 112.437 96.7612C108.797 99.5332 104.179 100.951 99.931 99.1652C99.911 99.6582 99.861 100.145 99.861 101.117C99.5408 106.93 98.9569 112.725 98.111 118.484C101.085 114.791 104.839 111.799 109.103 109.724C111.021 108.772 113.846 107.008 115.381 109.37C117.487 112.607 114.021 116.823 111.426 118.4C107.443 120.818 102.359 121.304 97.748 120.901C96.8751 126.398 95.7607 131.854 94.408 137.253C97.9977 132.662 102.745 129.108 108.162 126.958C111.272 125.722 116.532 124.84 116.532 129.619C116.518 133.899 111.852 137.906 108.406 139.649C103.949 141.908 98.243 142.213 93.759 139.9C93.249 141.802 92.7116 143.696 92.147 145.582C95.43 145.596 98.699 145.64 101.954 145.714C104.346 145.77 106.732 145.839 109.124 145.937C111.454 142.644 113.979 139.448 116.336 136.156L116.796 135.503C118.329 133.357 119.742 131.129 121.03 128.827C122.191 126.714 123.245 124.544 124.19 122.325C121.051 120.957 116.587 115.747 119.559 112.454C120.786 111.085 122.467 111.335 123.479 112.85C124.846 114.885 124.936 117.88 125.02 120.36C126.888 115.596 128.29 110.664 128.842 105.466C128.757 105.474 128.671 105.464 128.589 105.438C128.508 105.412 128.433 105.369 128.368 105.313C124.455 104.347 118.464 95.1012 123.667 92.8642C125.201 92.2042 126.847 92.9482 127.852 94.1562C129.252 96.0262 129.989 98.3062 129.944 100.638C130.224 98.4282 130.412 96.2062 130.524 93.4202C130.378 93.3074 130.237 93.1869 130.104 93.0592C127.79 90.7964 126.051 88.012 125.034 84.9392C124.476 83.3752 123.29 80.4022 124.232 78.6862C125.299 76.7342 127.175 77.8112 128.305 79.1102C130.006 81.1588 130.986 83.7098 131.095 86.3702C131.536 85.2521 132.256 84.2662 133.188 83.5072C135.008 82.0902 137.763 81.5342 139.758 82.9242C144.975 86.6262 134.429 92.1142 130.942 93.7672C130.898 96.6278 130.686 99.4834 130.307 102.319C131.911 99.0052 139.284 96.8732 141.892 99.1592C144.075 101.054 141.306 102.979 139.605 103.764C136.522 105.151 133.162 105.809 129.784 105.688C128.91 110.538 127.582 115.294 125.815 119.894C129.568 116.636 138.321 110.307 138.719 116.143C138.907 118.921 135.371 120.763 133.229 121.7C130.509 122.895 127.608 123.228 124.929 122.082C124.309 123.561 123.649 125.022 122.949 126.465C121.289 129.771 119.389 132.952 117.396 136.121C120.277 134.051 123.995 133.092 127.391 132.238C129.072 131.808 134.004 130.717 132.379 134.19C131.389 136.33 127.769 137.608 125.745 138.198C122.746 139.08 118.889 139.428 116.58 136.968C114.467 140.011 112.228 142.978 110.087 145.999C112.844 146.115 115.602 146.259 118.359 146.429C121.616 146.639 125.334 146.722 128.124 148.659C132.211 151.487 131.716 156.169 130.46 160.399C137.889 158.128 146.091 156.239 153.233 160.212ZM125.479 173.411L123.816 174.468C122.26 178.74 120.364 182.903 119.149 187.284C118.703 188.89 119.401 190.695 118.876 192.277C117.723 195.747 110.54 202.132 114.196 202.199C127.898 202.451 171.914 155.061 125.479 173.411Z" fill="white"/>
<path d="M128.132 160.939C128.056 161.198 127.98 161.457 127.897 161.716C127.626 162.567 127.337 163.411 127.03 164.249C125.879 167.468 124.723 170.684 123.562 173.899C123.382 174.397 123.208 174.893 123.021 175.397C119.977 183.902 116.916 192.4 113.838 200.892C113.692 201.312 113.547 201.732 113.388 202.145C112.463 204.706 111.538 207.272 110.613 209.843C110.523 210.109 110.426 210.368 110.329 210.627C108.771 214.937 107.205 219.244 105.633 223.546C105.509 223.902 105.134 223 105.231 222.741C106.648 218.775 108.068 214.809 109.49 210.844C109.573 210.592 109.67 210.333 109.76 210.074C110.685 207.498 111.61 204.932 112.534 202.376L112.971 201.158C115.995 192.76 119.028 184.362 122.071 175.964L122.611 174.467L126.128 164.732C126.44 163.872 126.773 162.954 127.078 162.002L127.328 161.219C128.798 156.32 129.408 150.924 123.381 148.909C119.643 147.649 115.378 147.803 111.487 147.607C110.051 147.537 108.609 147.474 107.173 147.418C106.813 147.418 106.445 147.383 106.084 147.376C100.58 147.166 95.0722 147.059 89.564 147.054H84.764C79.678 147.082 74.613 147.171 69.568 147.32H68.355C62.9501 147.483 57.5468 147.698 52.146 147.964L50.953 148.02C43.935 148.356 36.93 148.755 29.918 149.175H29.425C29.037 149.175 28.642 149.21 28.232 149.217C20.922 149.42 10.741 148.727 8.94498 157.496C8.00098 162.115 9.13198 167.293 10.089 171.821C10.9958 175.971 12.1349 180.067 13.501 184.089C16.241 192.263 19.279 200.801 23.211 208.457C25.291 212.481 28.108 214.973 31.492 217.793C33.372 219.361 34.814 220.97 35.529 223.35C35.653 223.77 35.389 224.364 35.189 223.707C33.732 218.913 28.205 216.862 25.333 213.007C22.753 209.507 21.241 205.308 19.605 201.354C15.492 191.395 11.476 181.283 9.37498 170.666C8.27198 165.068 6.47498 157.104 10.457 152.219C13.127 148.944 17.579 148.888 21.436 148.649C23.516 148.524 25.556 148.391 27.616 148.272L28.78 148.202L36.507 147.747C41.167 147.481 45.827 147.234 50.489 147.005L51.682 146.949C57.0991 146.692 62.5183 146.48 67.939 146.312L69.097 146.277C75.831 146.081 82.566 145.977 89.3 146.004H89.834C93.071 146.004 96.321 146.049 99.586 146.137C101.964 146.193 104.336 146.263 106.716 146.361L107.804 146.403C110.541 146.515 113.284 146.66 116.03 146.837C119.296 147.047 122.965 147.131 125.74 149.084C129.845 151.96 129.353 156.677 128.132 160.939Z" fill="#777777"/>
<path d="M140.772 223H139.592C117.532 222.17 95.448 221.756 73.34 221.759C52.21 221.759 31.151 222.451 10.043 222.918C9.617 222.918 9.189 222.928 8.758 222.948C8.498 222.748 8.253 222.538 8 222.328L9.18 222.267C30.87 221.123 52.765 221.005 74.463 221C96.459 221 118.453 221.419 140.449 222.256H140.653C140.766 222.277 140.856 222.339 140.891 222.421C141.046 222.611 141.06 223 140.772 223ZM141 224.774C140.79 225.018 140.579 225.262 140.354 225.499C125.734 241.499 97.712 238.794 77.074 238.794C54.606 238.794 25.557 241.731 8.824 225.412C8.564 225.168 8.319 224.912 8.066 224.656L8.031 224.618C7.849 224.431 8.523 223.862 8.684 224.031L9.246 224.581C9.534 224.849 9.815 225.118 10.11 225.374C26.35 239.981 52.064 238.064 73.368 238.064C85.445 238.064 97.754 238.626 109.782 237.482C121.072 236.402 132.047 233.109 139.694 225.474C139.982 225.18 140.277 224.849 140.558 224.568H140.761C140.815 224.579 140.866 224.604 140.907 224.64C140.949 224.676 140.981 224.722 141 224.774ZM157.378 179.874C152.401 188.256 144.116 194.701 136.062 199.77C129.14 204.101 121.657 207.464 113.822 209.764C113.55 209.847 113.278 209.931 113 210C113.081 209.75 113.177 209.493 113.265 209.236L114.1 208.986C127.553 204.819 140.313 197.583 150.22 187.409C155.579 181.901 162.641 172.602 157.412 164.741C151.389 155.713 139.641 158.525 131.016 161.269L130.228 161.519L130.473 160.741L131.247 160.498C138.473 158.234 146.465 156.331 153.419 160.31C160.964 164.609 161.643 172.679 157.379 179.874H157.378Z" fill="#777777"/>
<path d="M144.572 181.037C138.15 191.426 127.841 198.887 115.885 201.799C115.595 201.878 115.297 201.943 115 202L115.457 200.752C115.755 200.68 116.059 200.601 116.357 200.515C124.84 198.265 132.514 193.661 138.492 187.235C140.509 185.083 151.674 171.796 144.732 169.25C141.924 168.217 137.476 169.773 134.792 170.584C131.726 171.543 128.767 172.815 125.962 174.379L115.457 200.752L125.542 173.389C125.868 173.203 126.195 173.016 126.528 172.844C129.376 171.317 132.387 170.114 135.503 169.257C138.405 168.467 142.337 167.305 145.312 168.539C150.76 170.907 146.567 177.759 144.572 181.037ZM132 92.5461V94.2221C131.953 97.0624 131.728 99.897 131.326 102.709C131.25 103.26 131.166 103.809 131.074 104.357C131.014 104.743 130.948 105.129 130.874 105.508C130.874 105.688 130.807 105.874 130.77 106.053C129.382 113.246 126.941 120.194 123.526 126.675C121.755 129.971 119.737 133.128 117.489 136.12L117.126 136.617L116.852 136.982C116.829 137.026 116.799 137.065 116.763 137.099C114.541 140.119 112.141 143.063 109.867 146.062L109.163 147C108.778 147 108.385 146.966 108 146.959L108.704 146.021C111.193 142.753 113.889 139.581 116.363 136.313L116.852 135.665C118.474 133.543 119.975 131.331 121.348 129.039C125.56 121.85 128.501 114.077 130.059 106.019C130.059 105.936 130.096 105.853 130.111 105.763C130.126 105.673 130.111 105.583 130.163 105.494C130.444 104.024 130.691 102.546 130.903 101.061C131.198 98.864 131.403 96.6558 131.519 94.4421V93.3321V93.0221V92.2361C131.519 91.8291 131.749 92.0291 131.859 92.2361C131.932 92.3254 131.981 92.4322 132 92.5461Z" fill="#777777"/>
<path d="M131.969 96.7563L131.451 97.0004V96.3994C131.294 96.2755 131.143 96.1433 131 96.0033L131.473 95.7744L131.668 95.6754L131.946 95.5313C133.947 94.5315 135.859 93.3625 137.661 92.0374C138.646 91.3346 139.586 90.5718 140.477 89.7533C140.948 89.3589 141.336 88.8749 141.618 88.3294C142.294 87.6144 141.971 87.0053 141.19 85.9773C141.004 85.6413 140.725 85.3654 140.387 85.1821C140.049 84.9987 139.666 84.9156 139.283 84.9424C138.093 84.9912 136.934 85.3311 135.906 85.9322C134.878 86.5333 134.014 87.3774 133.388 88.3904C132.343 90.2985 131.824 92.4505 131.886 94.6254V95.2654C131.886 95.3409 131.858 95.4137 131.806 95.4688C131.754 95.5239 131.683 95.557 131.608 95.5613H131.518C131.437 95.5766 131.354 95.5637 131.281 95.525C131.209 95.4862 131.152 95.4239 131.12 95.3484V94.9073C131.046 93.1303 131.27 91.3544 131.781 89.6544C131.885 89.3144 132.007 88.9823 132.149 88.6573C132.62 87.4366 133.396 86.3567 134.402 85.5203C136.362 83.9983 139.328 83.3363 141.475 84.8813C147.077 88.9313 135.715 94.9073 131.969 96.7563ZM137.933 102.183C134.872 103.486 131.563 104.102 128.239 103.987H127.578C127.578 103.909 127.612 103.831 127.626 103.746C127.502 103.814 127.361 103.843 127.22 103.831C127.174 103.802 127.133 103.767 127.096 103.726C126.986 103.629 126.951 103.531 127.096 103.499C127.159 103.484 127.226 103.484 127.289 103.499H127.681C127.706 103.502 127.731 103.502 127.757 103.499H128.342C131.819 103.499 136.466 102.919 139.007 100.745C140.246 99.9444 140.597 99.3453 139.303 98.2703C138.863 97.9696 138.365 97.7639 137.841 97.6664C137.317 97.569 136.779 97.5819 136.26 97.7044C134.992 97.9408 133.762 98.3481 132.604 98.9154C131.082 99.7484 129.65 100.868 129.161 102.522C129.058 102.558 128.948 102.566 128.841 102.547C128.734 102.527 128.633 102.481 128.549 102.412C128.534 102.406 128.52 102.396 128.509 102.384C128.499 102.371 128.491 102.356 128.487 102.34C128.429 101.827 128.532 101.307 128.783 100.855C130.366 97.7504 137.643 95.7513 140.218 97.8933C142.353 99.6443 139.619 101.448 137.933 102.183ZM123.864 119.428C123.529 119.698 123.208 119.951 122.997 120.167L122.781 120.357C122.606 120.352 122.435 120.406 122.295 120.511V120.862L122.052 120.715C121.986 120.801 121.98 120.881 122.052 120.924L122.295 121.047C122.336 121.075 122.38 121.098 122.426 121.115L122.505 121.158C122.625 121.218 122.751 121.272 122.879 121.318L123.011 121.373C125.532 122.389 128.264 122.093 130.825 121.035C132.841 120.204 136.171 118.572 135.993 116.109C135.639 110.938 127.397 116.546 123.864 119.428ZM129.479 121.078C127.453 121.689 125.274 121.538 123.352 120.653L123.109 120.53L123.589 120.099C124.658 119.094 125.799 118.168 127.003 117.329C127.777 116.81 128.577 116.331 129.4 115.894C130.713 115.204 133.997 113.917 134.956 115.666C136.387 118.283 131.567 120.506 129.479 121.084V121.078ZM125.176 132.497C122.087 133.334 118.708 134.274 116.089 136.302C116.046 136.26 116.005 136.215 115.969 136.166C115.84 136.022 115.719 135.869 115.607 135.71C115.596 135.697 115.582 135.686 115.566 135.679C115.55 135.671 115.533 135.668 115.515 135.667C115.497 135.668 115.48 135.671 115.464 135.679C115.448 135.686 115.434 135.697 115.423 135.71L115.004 136.35C115.001 136.357 115 136.363 115 136.37C115 136.377 115.001 136.384 115.004 136.39C115.112 136.581 115.234 136.763 115.366 136.935C115.29 137.051 115.201 137.2 115.29 137.153H115.34L115.46 137.091C117.44 139.562 120.946 139.221 123.673 138.357C125.512 137.779 128.803 136.527 129.703 134.43C131.187 131 126.703 132.075 125.176 132.497ZM128.816 133.389C128.754 134.433 128.243 135.387 127.433 135.969C126.612 136.484 125.748 136.917 124.853 137.262C123.671 137.738 122.425 138.036 121.155 138.146C119.433 138.379 117.699 137.821 116.38 136.608C118.195 135.618 120.086 134.776 122.037 134.09C122.81 133.845 126.374 132.647 128.067 132.524C128.174 132.518 128.28 132.537 128.378 132.579C128.476 132.621 128.563 132.685 128.632 132.766C128.704 132.852 128.758 132.951 128.79 133.058C128.821 133.166 128.83 133.278 128.815 133.389H128.816Z" fill="#777777"/>
<path d="M123.998 123.49C124.001 123.435 124.001 123.379 123.998 123.323V122.908V122.518C123.92 119.555 123.835 115.977 122.561 113.545C121.618 111.735 120.051 111.436 118.908 113.071C116.138 117.014 120.318 123.248 123.244 124.875C123.317 124.924 123.393 124.965 123.471 125C123.677 124.929 123.841 124.733 123.913 124.477C123.925 124.456 123.932 124.432 123.932 124.407C123.932 124.382 123.925 124.358 123.913 124.336L123.693 124.153C123.859 123.967 123.965 123.736 123.998 123.489V123.49ZM118.849 116.433C118.42 114.848 118.771 113.578 120.039 113.113C120.575 112.933 121.143 113.173 121.489 113.727L121.559 113.819C122.249 114.649 122.541 116.226 122.762 117.355C123.097 119.333 123.274 121.349 123.289 123.373V123.846L123.049 123.646C121.059 121.871 119.337 119.555 118.797 116.433H118.849ZM126.962 93.6763C125.998 92.3603 124.419 91.5503 122.947 92.2693C117.955 94.7063 123.703 104.779 127.457 105.83C127.582 105.954 127.747 106.014 127.912 105.997C128.051 106.011 128.191 105.976 128.307 105.899C128.337 105.873 128.36 105.838 128.373 105.8L128.427 105.603C128.84 104.025 129.031 102.383 128.996 100.737C129.031 98.1933 128.315 95.7093 126.962 93.6773V93.6763ZM122.498 93.8053C124.901 89.3103 127.47 96.7793 127.785 98.5953C128.131 100.862 128.038 103.185 127.51 105.407C124.6 103.658 120.605 97.4003 122.518 93.8203L122.498 93.8053ZM128.993 87.5073C128.993 87.6843 128.764 88.1963 128.723 87.7503C128.723 87.5403 128.683 87.3303 128.656 87.0943C128.491 84.8802 127.758 82.7459 126.528 80.8973L125.357 79.5203C124.192 78.4053 123.424 78.2093 123.007 79.7763C122.647 80.9725 122.713 82.2567 123.195 83.4093C124.198 86.5963 126.01 89.0813 128.064 91.6193L128.441 92.0793C128.464 92.1123 128.491 92.1433 128.521 92.1703L128.609 92.2883L128.649 92.3343C128.751 92.4523 128.649 93.0883 128.495 92.9903L128.414 92.9183C128.273 92.8119 128.139 92.6981 128.01 92.5773C125.784 90.4543 124.104 87.8241 123.114 84.9113C122.575 83.4153 121.43 80.6093 122.34 79.0093C123.37 77.1663 125.181 78.1823 126.272 79.4093C127.909 81.3292 128.857 83.7409 128.966 86.2613C128.999 86.6763 129.008 87.0913 128.993 87.5073ZM99.92 96.6463L99.861 98.5573V99.6003C99.861 100.094 99.816 100.58 99.796 101.074V101.554C99.1858 113.731 97.4833 125.828 94.709 137.699C94.5906 138.227 94.4653 138.753 94.333 139.277C94.3278 139.34 94.3123 139.401 94.287 139.458C94.222 139.75 94.151 140.042 94.08 140.334C93.6086 142.237 93.1086 144.133 92.58 146.02C92.49 146.347 92.393 146.673 92.302 147H91.809L92.081 146.027C92.626 144.054 93.1431 142.073 93.632 140.084C93.677 139.931 93.71 139.771 93.742 139.618C93.775 139.465 93.814 139.347 93.84 139.215C93.8761 139.094 93.9061 138.971 93.93 138.846C94.002 138.568 94.067 138.283 94.132 137.998C94.197 137.713 94.235 137.56 94.287 137.338C97.03 125.432 98.6872 113.301 99.238 101.095V100.469C99.238 100.191 99.238 99.9133 99.271 99.6423C99.2743 99.5844 99.2743 99.5263 99.271 99.4683C99.274 99.4173 99.274 99.3663 99.271 99.3153L99.31 98.2723C99.444 93.8283 99.444 89.3803 99.31 84.9263C99.31 84.2313 99.258 83.5013 99.219 82.7863C99.2221 82.7214 99.2221 82.6563 99.219 82.5913L99.179 81.8123C99.141 81.0403 99.102 80.2693 99.05 79.4903C99.05 79.1573 99.011 78.7953 98.985 78.4753C98.959 78.1553 98.933 77.6553 98.895 77.2453C98.4953 71.7092 97.8651 66.192 97.006 60.7083C97.006 60.5623 96.961 60.4163 96.941 60.2783C96.785 59.3383 96.63 58.4003 96.468 57.4973C96.1739 55.8304 95.8622 54.1667 95.533 52.5063C94.5173 47.177 93.2462 41.8996 91.724 36.6923C91.634 36.3723 91.53 36.0523 91.432 35.7323L91.355 35.4893C91.3413 35.4253 91.3215 35.3627 91.296 35.3023C91.296 35.2253 91.251 35.1493 91.225 35.0723L91.185 34.9543C91.185 34.9063 91.153 34.8573 91.14 34.8083V34.7533L91.101 34.6133L91.024 34.3703C89.5518 29.7731 87.5941 25.3458 85.184 21.1633L85.009 20.8643C85.0063 20.8508 85.0063 20.8369 85.009 20.8233C84.9958 20.7512 84.9969 20.6771 85.0123 20.6054C85.0278 20.5336 85.0572 20.4656 85.099 20.4053C85.1325 20.336 85.1741 20.2708 85.223 20.2113L85.32 20.0933C85.43 19.9953 85.534 19.9613 85.593 20.0583L85.735 20.3013L85.8 20.4193C85.891 20.5723 85.982 20.7193 86.066 20.8713C88.3 24.8657 90.1346 29.0708 91.543 33.4253L91.776 34.1623C91.828 34.3083 91.874 34.4543 91.919 34.6003C91.957 34.7023 91.989 34.8063 92.016 34.9133C92.062 35.0383 92.101 35.1633 92.14 35.2883C92.237 35.6013 92.334 35.9133 92.425 36.2263C93.975 41.3773 95.131 46.6533 96.175 51.8733C96.774 54.8731 97.3041 57.8863 97.765 60.9103C97.7686 60.9265 97.7686 60.9432 97.765 60.9593C97.768 60.9799 97.768 61.0008 97.765 61.0213C97.765 61.1813 97.817 61.3483 97.837 61.5153C98.6673 67.0485 99.2645 72.614 99.627 78.1973C99.634 78.2833 99.634 78.3693 99.627 78.4553C99.627 78.7123 99.667 78.9753 99.679 79.2403V79.4903C99.723 80.2273 99.762 80.9643 99.796 81.7003C99.796 81.9443 99.796 82.1873 99.836 82.4383C99.883 83.4943 99.922 84.5513 99.952 85.6083C100.025 89.2823 100.015 92.9623 99.919 96.6463H99.92ZM96.582 5.24834C93.982 4.17834 90.182 6.82034 88.545 8.33834C88.2759 8.58833 88.0208 8.85307 87.781 9.13134C87.4108 9.543 87.0757 9.98487 86.779 10.4523C85.712 12.1113 85.169 13.9833 85.204 15.8813C85.196 15.9913 85.196 16.1013 85.204 16.2113C85.227 16.7913 85.304 17.3713 85.434 17.9413V18.0013L85.304 18.0533L84.699 18.2983L84.478 18.3903C84.172 18.5163 83.675 19.1963 84.302 18.9453L85.066 18.6283L85.709 18.3583C85.812 18.3393 85.9104 18.301 85.999 18.2453L86.076 18.1993L86.29 18.0993C89.493 16.7063 92.583 15.0623 94.93 12.6783C96.383 11.1983 99.984 6.64234 96.582 5.24834ZM92.43 14.2963C90.5433 15.6279 88.5083 16.736 86.366 17.5983C85.8996 15.5728 86.0815 13.4519 86.886 11.5353C87.041 11.1753 87.226 10.8243 87.436 10.4853C87.575 10.2753 87.728 10.0723 87.896 9.87834C89.601 7.83734 94.456 3.78834 96.689 6.39834C98.769 8.84134 94.181 13.0083 92.429 14.2963H92.43Z" fill="#777777"/>
<path d="M86 19.9522C85.681 20.0622 85.363 20.1572 85.03 20.2392C80.8255 21.2234 76.4539 21.2538 72.236 20.3282C70.644 20.0072 68.052 19.5092 68.001 17.5042C67.921 14.3252 73.199 13.8742 75.538 14.0252C76.809 14.1072 78.068 14.3112 79.296 14.6322C80.503 14.9452 81.676 15.3662 82.8 15.8872L82.858 15.9212C83.068 16.0372 83.285 16.1332 83.495 16.2352H83.553C83.792 16.3652 84.031 16.4952 84.277 16.6312C84.523 16.7672 84.718 16.8902 84.936 17.0262L85.348 17.2922C85.486 17.3812 85.841 17.8312 85.443 17.6202L84.943 17.3672C84.573 17.1832 84.219 17.0062 83.835 16.8352C82.7348 16.2997 81.5975 15.8439 80.432 15.4712C78.8621 14.9716 77.229 14.6982 75.582 14.6592C74.3617 14.5672 73.1348 14.6994 71.962 15.0492C70.115 15.7302 69.362 16.0992 70.057 17.9192C70.817 19.9112 72.229 19.7482 74.322 19.9662C75.612 20.1102 76.91 20.1762 78.21 20.1642C80.316 20.0875 82.4137 19.8596 84.487 19.4822L84.921 19.4202C85.161 19.3862 85.391 19.3452 85.645 19.3182L85.935 19.2782H85.993L85.79 19.3792L85.718 19.4272C85.805 19.6592 85.906 19.8022 86 19.9522Z" fill="#777777"/>
<path d="M87 11.6984C86.8449 11.9103 86.7033 12.1317 86.576 12.3614C86.38 12.7314 86.21 13.1144 86.067 13.5084C86.067 13.1044 86.01 12.7084 85.961 12.3114C85.796 10.3114 85.244 8.36539 84.335 6.58539C83.5409 5.04808 82.4159 3.70589 81.041 2.65539C80.2843 2.00206 79.4014 1.51124 78.447 1.21339C77.09 0.875393 74.453 2.17339 74.135 3.63639C73.555 6.31939 75.634 10.3214 77.083 12.3464C78.4818 14.285 80.3048 15.8785 82.413 17.0054L82.469 17.0414C82.674 17.1644 82.886 17.2654 83.091 17.3734H83.148C83.381 17.5104 83.614 17.6474 83.855 17.7914C83.7416 17.8955 83.6025 17.9676 83.452 18.0004C82.3824 17.4364 81.2716 16.9543 80.129 16.5584C79.748 16.2484 79.373 15.9314 79.019 15.6204C78.228 14.9004 77.571 14.3084 77.394 14.1134C76.0387 12.6375 74.9632 10.9273 74.22 9.06639C73.28 6.69439 71.775 1.76139 74.779 0.363393C77.373 -0.841607 80.964 1.19939 82.823 2.90139C85.0336 5.01497 86.4739 7.80699 86.915 10.8334C86.936 11.1504 86.972 11.4234 87 11.6984ZM108.088 15.8124C104.903 13.2524 98.223 17.3824 95.905 19.4154C92.382 22.5234 90.43 26.6934 89.465 31.0394C89.402 31.3064 89.345 31.5794 89.289 31.8474C89.1716 31.9378 89.0733 32.0506 89 32.1794L89.042 32.3094V32.3614C89.042 32.4074 89.042 32.4534 89.092 32.4984L89.134 32.6094C89.134 32.6814 89.19 32.7524 89.211 32.8244C89.2385 32.8806 89.26 32.9396 89.275 33.0004C89.493 32.8694 89.671 32.6874 89.789 32.4724C89.8428 32.4789 89.8972 32.4789 89.951 32.4724C95.076 32.1054 99.889 30.0504 103.515 26.6804C105.502 24.7974 111.202 18.3474 108.088 15.8124ZM100.387 28.5174C97.277 30.4224 93.675 31.5264 89.951 31.7174C90.741 27.8074 92.128 23.9444 95.003 20.8874C97.082 18.6734 104.093 13.8324 107.263 16.7174C110.639 19.7934 103.036 26.8494 100.387 28.5174Z" fill="#777777"/>
<path d="M93 33.6333C92.754 33.7923 92.508 33.9323 92.277 34.0663C88.214 36.2303 83.066 36.3893 78.409 35.4683C75.792 34.9563 69.617 33.9263 68.338 31.4513C66.284 27.4883 74.18 27.9333 76.414 28.1113C81.684 28.5123 86.977 29.3293 91.388 31.9573L91.468 32.0243C91.605 32.1523 91.735 32.3713 91.598 32.3593C91.5409 32.3546 91.4859 32.3357 91.438 32.3043C87.719 30.4913 83.592 29.3543 79.32 28.9643C77.5561 28.7464 75.7827 28.6139 74.006 28.5673C72.8883 28.4806 71.7649 28.6306 70.709 29.0073C69.133 29.6773 69.263 29.7323 70.037 31.2623C70.875 32.9933 72.003 33.1883 73.948 33.7983C74.671 34.0363 75.459 34.2553 76.233 34.4503C78.29 34.9973 80.426 35.3053 82.581 35.3653C85.886 35.4503 89.146 34.7033 91.944 33.2193C92.197 33.0913 92.45 32.9513 92.667 32.8043C92.79 33.0663 92.899 33.3413 93 33.6343V33.6333ZM96.03 56.7823C95.78 52.1453 97.319 47.2553 99.692 43.2193C100.79 41.2366 102.36 39.5548 104.262 38.3223C106.817 36.7623 112.317 35.2233 112.991 39.7223C113.599 43.6953 109.211 48.7103 106.334 51.0183C103.068 53.6483 99.12 55.2153 95.056 56.3773C94.785 56.4543 95.569 57.0773 95.906 56.9923C101.837 55.3483 107.564 52.5223 111.109 47.5143C112.895 44.9893 115.803 39.5743 112.485 37.1193C109.168 34.6643 104.254 36.6853 101.64 38.9943C97.246 42.8693 94.316 50.7743 95.276 56.3983C95.276 56.5943 96.008 56.9223 96.008 56.7263L96.03 56.7823ZM115.815 62.6743C114.662 58.3243 108.83 60.1283 106.358 62.1643C101.42 66.2273 100.708 73.4183 97.39 78.6223L97.243 78.8523V78.9093L96.978 78.9443H96.74L96 79.0343C96.084 79.3563 96.16 79.6783 96.23 80.0003H96.81L97.215 79.9513C97.311 79.9583 97.406 79.9583 97.502 79.9513C102.831 79.3563 108.076 77.1953 111.715 73.1593C113.908 70.6973 116.757 66.2063 115.815 62.6743ZM114.418 67.5143C114.078 68.2933 113.678 69.0443 113.223 69.7603C112.041 71.6122 110.536 73.2372 108.781 74.5583C105.603 76.9783 101.944 78.1393 98.116 78.7553C100.086 75.6003 101.099 72.0543 102.684 68.6823C104.269 65.3113 108.628 59.2963 113.195 61.1633C115.172 61.9893 115.207 65.6753 114.418 67.5143ZM98.207 97.0003C98.337 97.2803 98.447 97.5603 98.567 97.8403C98.397 97.7603 98.237 97.6703 98.077 97.5803C97.917 97.4903 98.027 97.2403 98.207 97.0003Z" fill="#777777"/>
<path d="M116.592 86.899C114.706 82.931 107.972 86.129 105.572 87.954C102.62 90.218 100.29 93.102 98.774 96.369C98.554 96.882 98.375 97.41 98.238 97.949L98.141 97.909H98.085L98.043 98.88V99.016C98.0395 99.0636 98.0395 99.1114 98.043 99.159C98.009 99.438 97.995 99.719 98.002 100C98.1296 99.982 98.246 99.9176 98.329 99.819C98.4259 99.7459 98.5003 99.6472 98.544 99.534C98.544 99.379 98.565 99.224 98.607 99.068L98.677 99.1C102.914 100.764 107.519 99.443 111.151 96.86C113.99 94.854 118.359 90.62 116.591 86.899H116.592ZM108.305 97.903C106.823 98.6042 105.212 98.9894 103.574 99.034C101.935 99.0786 100.305 98.7816 98.788 98.162C99.651 94.828 102.364 91.275 104.896 89.1C107.269 87.048 113.092 83.967 115.562 87.255C118.505 91.171 111.568 96.433 108.305 97.909V97.903ZM114.359 109.283C112.846 106.709 110.061 108.632 108.169 109.669C103.962 111.932 100.261 115.191 97.332 119.213C97.091 119.553 96.857 119.902 96.644 120.257L96.582 120.356C96.513 120.454 96.452 120.56 96.382 120.666C96.3715 120.734 96.3817 120.804 96.4113 120.866C96.4409 120.928 96.4885 120.979 96.548 121.014C96.5648 121.038 96.5858 121.058 96.61 121.074C96.5873 121.082 96.5627 121.082 96.54 121.074C96.5064 121.081 96.4716 121.081 96.438 121.074H96.225L95.22 120.954C94.973 120.916 94.96 121.052 95.055 121.219C95.482 121.37 95.908 121.506 96.335 121.627C96.367 121.696 96.404 121.761 96.445 121.824L96.768 121.862H97.002C101.547 122.301 106.561 121.772 110.487 119.137C113.018 117.419 116.436 112.825 114.359 109.283ZM107.716 119.463C104.371 120.888 100.726 121.462 97.105 121.135C99.1497 118.341 101.52 115.8 104.167 113.567C105.935 112.144 112.942 106.557 113.933 110.539C114.923 114.52 110.446 118.244 107.716 119.463ZM107.545 127.945C102.063 130.027 97.263 133.463 93.639 137.899L93.259 138.389C93.139 138.543 93.019 138.698 92.906 138.859C92.8874 138.916 92.8874 138.977 92.906 139.034C92.915 139.185 92.956 139.334 93.026 139.47C93.0375 139.498 93.0541 139.523 93.075 139.544L92.997 139.504L92.722 139.369C92.412 139.215 92.116 139.047 91.82 138.866C91.8238 138.835 91.8238 138.803 91.82 138.772L91.538 138.692L91.305 138.624L91.065 138.55C91.0026 138.696 90.9846 138.858 91.0134 139.014C91.0423 139.171 91.1165 139.315 91.227 139.43C91.297 139.48 91.371 139.528 91.447 139.571C91.83 139.653 92.219 139.716 92.61 139.759C92.61 139.907 92.54 140.061 92.49 140.209C92.652 140.296 92.814 140.384 92.976 140.458C97.51 142.694 103.279 142.398 107.785 140.216C111.268 138.53 115.985 134.655 116 130.517C116 125.897 110.662 126.749 107.545 127.945ZM110.655 137.193C108.94 138.554 106.979 139.573 104.88 140.196C101.032 141.398 96.8827 141.19 93.174 139.611L93.082 139.564C93.116 139.523 93.1538 139.484 93.195 139.45C95.5722 136.686 98.3092 134.253 101.333 132.217C103.201 131.008 105.18 129.977 107.242 129.14C108.258 128.696 109.307 128.332 110.38 128.052C113.144 127.434 114.427 127.132 115.013 130.067C115.598 133.002 114.576 133.291 112.636 135.4C112.024 136.047 111.362 136.645 110.655 137.187V137.193Z" fill="#777777"/>
<path d="M92.92 137.619C92.92 137.667 92.83 137.619 92.754 137.544L92.67 137.421C90.7933 134.54 88.5104 131.944 85.892 129.715C84.168 128.273 79.49 124.109 76.911 125.018C72.045 126.748 81.715 133.134 82.869 133.906C85.2972 135.557 87.9433 136.861 90.731 137.783L90.967 137.858L91.197 137.927L91.475 138.009C91.799 138.104 92.125 138.186 92.455 138.255C92.4823 138.261 92.5107 138.261 92.538 138.255L92.726 138.303C92.844 138.303 92.775 138.528 92.656 138.699V138.733C92.6198 138.798 92.5711 138.855 92.5127 138.901C92.4544 138.946 92.3875 138.98 92.316 139H92.281C91.8956 138.956 91.5128 138.893 91.134 138.809C86.567 137.865 82.187 134.672 78.698 131.835C76.967 130.426 74.388 128.218 75.131 125.681C76.258 121.805 81.631 125.681 83.473 126.891C87.2706 129.488 90.48 132.854 92.893 136.771L92.948 136.86C93.026 137.109 93.016 137.376 92.921 137.619H92.92ZM96.996 121.79C96.9993 121.771 96.9993 121.751 96.996 121.732C96.996 121.532 96.951 121.332 96.925 121.131C96.9219 121.114 96.9219 121.098 96.925 121.081C96.925 120.909 96.879 120.737 96.86 120.566C96.8631 120.509 96.8631 120.451 96.86 120.394C96.34 116.271 95.56 112.049 93.29 108.642C91.3 105.679 86.788 102.487 83.406 104.785C80.746 106.588 82.438 110.231 83.764 112.385C86.476 116.78 90.845 119.635 95.41 121.181C95.813 121.324 96.216 121.453 96.62 121.568C96.65 121.632 96.685 121.694 96.723 121.754C96.833 121.99 97.029 122.147 96.996 121.789V121.79ZM85.227 105.207C93.108 103.675 95.553 114.375 96.45 120.817C93.44 119.578 90.435 118.311 87.841 116.171C85.578 114.275 79.076 106.402 85.227 105.207ZM100.743 99.825L100.444 99.15C100.387 99.008 100.323 98.866 100.259 98.724C100.195 98.582 100.095 98.346 100.002 98.157C98.434 94.719 96.439 91.404 93.36 88.993C90.752 86.967 85.207 84.502 82.143 87.163C79.328 89.614 82.328 92.977 84.551 94.517C89.155 97.711 94.664 100.129 100.387 100.595H100.458C100.593 100.777 100.782 100.918 101 101V100.534C100.929 100.271 100.836 100.054 100.743 99.824V99.825ZM88.671 96.354C85.628 94.747 77.774 89.209 84.338 87.061C92.484 84.401 97.465 94.139 100.123 99.845C96.1046 99.4894 92.2044 98.3005 88.671 96.354ZM98.968 81.859C98.8569 81.1382 98.7178 80.422 98.551 79.712C98.481 79.384 98.403 79.029 98.311 78.728C98.219 78.428 98.099 77.942 97.972 77.552C96.779 73.663 94.702 70.082 91.185 67.628C88.233 65.578 83.197 63.766 79.842 66.09C76.487 68.414 78.267 72.549 80.802 74.777C85.351 78.769 92.103 81.497 98.128 82.767C98.192 82.787 98.258 82.802 98.325 82.809C98.329 82.872 98.329 82.936 98.325 83C98.4463 82.9906 98.5633 82.9507 98.665 82.884C98.6803 82.8867 98.6959 82.8863 98.711 82.8829C98.7261 82.8795 98.7404 82.873 98.753 82.864C98.7656 82.8553 98.7762 82.844 98.7841 82.8309C98.792 82.8178 98.7971 82.8032 98.799 82.788C98.8801 82.7363 98.9476 82.666 98.996 82.583C99.0079 82.3413 98.9986 82.099 98.968 81.859ZM86.707 77.669C85.0632 76.7687 83.4989 75.7303 82.031 74.565C81.196 73.9345 80.4544 73.1891 79.828 72.351C78.225 70.034 78.478 68.25 80.089 66.753C81.961 65.017 82.949 65.276 85.824 66.015C86.65 66.235 87.452 66.533 88.218 66.903C90.214 67.883 91.971 69.263 93.374 70.95C95.2538 73.2621 96.6017 75.9595 97.322 78.851C97.407 79.165 97.485 79.48 97.555 79.794C97.732 80.519 97.873 81.244 98 81.974C94.0517 81.0779 90.2499 79.6285 86.707 77.669ZM86.761 55.073C84.9167 54.1779 83.1689 53.0963 81.545 51.845C79.685 50.301 76.957 46.13 81.332 45.795C86.589 45.388 91.667 47.912 93.479 52.626C94.285 54.731 94.816 56.842 95.849 58.838C92.7231 57.83 89.6839 56.5709 86.761 55.073ZM96.89 59.523C96.8933 59.5035 96.8933 59.4835 96.89 59.464C96.8938 59.4492 96.8938 59.4337 96.89 59.419C96.879 59.3885 96.86 59.3616 96.835 59.341C96.333 58.3599 95.9022 57.3439 95.546 56.301C94.361 52.955 93.445 49.417 90.234 47.344C87.871 45.814 81.862 44.115 79.21 45.53C75.916 47.312 80.209 51.373 81.904 52.632C86.2393 55.6403 91.0454 57.9056 96.125 59.335L96.311 59.658C96.489 59.846 96.734 59.968 97 60C96.945 59.826 96.917 59.67 96.89 59.522V59.523ZM52 67.004L51.757 67.229C51.495 67.477 51.234 67.736 51 68C51.187 67.68 51.393 67.364 51.598 67.055C51.668 67.0121 51.7506 66.9944 51.832 67.005C51.8879 66.9993 51.9441 66.9993 52 67.005V67.004ZM53 148.958L52.088 149C51.94 148.684 51.806 148.347 51.672 148.024C50.851 146.003 50.1785 143.926 49.66 141.807C49.6631 141.788 49.6631 141.77 49.66 141.751C49.6585 141.692 49.6449 141.635 49.62 141.582C49.4844 141.055 49.359 140.526 49.244 139.995C49.0115 138.981 48.8014 137.962 48.614 136.939C48.554 136.629 48.494 136.328 48.439 136.026C47.5893 131.326 46.9606 126.588 46.555 121.829V121.689C46.555 121.408 46.508 121.119 46.488 120.839V120.762C46.4843 120.739 46.4843 120.715 46.488 120.692C46.488 120.522 46.488 120.354 46.448 120.178C46.4447 120.115 46.4447 120.051 46.448 119.988C46.414 119.602 46.388 119.209 46.368 118.816C46.2738 117.518 46.1998 116.218 46.146 114.917C46.052 112.669 46.005 110.414 46.005 108.167V107.738C45.9984 107.672 45.9984 107.606 46.005 107.541C46.005 106.137 46.032 104.711 46.085 103.264C46.206 99.391 46.472 95.534 46.883 91.694C46.977 90.844 47.065 89.98 47.158 89.109C47.158 88.786 47.226 88.456 47.266 88.133C47.306 87.81 47.326 87.543 47.36 87.248C47.427 86.665 47.494 86.088 47.568 85.506L47.648 84.846C48.318 81.164 50.197 72.278 50.518 71H50.619L51.236 71.042C51.196 71.352 51.149 71.66 51.102 71.962C50.432 76.479 49.385 80.94 48.574 85.442C48.52 85.73 48.473 86.025 48.419 86.313V86.405C48.366 86.714 48.312 87.03 48.265 87.339C48.218 87.649 48.145 88.105 48.077 88.484C48.0802 88.5189 48.0802 88.5541 48.077 88.589C48.044 88.863 47.997 89.137 47.963 89.404V89.481C47.8534 90.2639 47.7573 91.0487 47.675 91.835C47.1171 97.1884 46.8304 102.567 46.816 107.949V108.412C46.816 109.967 46.841 111.52 46.89 113.07C46.957 115.282 47.044 117.537 47.179 119.82C47.1756 119.851 47.1756 119.881 47.179 119.912C47.169 120.066 47.169 120.221 47.179 120.375C47.1757 120.41 47.1757 120.446 47.179 120.481C47.179 120.698 47.179 120.916 47.219 121.141V121.218C47.2156 121.26 47.2156 121.303 47.219 121.345C47.219 121.605 47.252 121.865 47.272 122.131V122.314C47.6097 127.843 48.3949 133.335 49.62 138.737C49.617 138.768 49.617 138.798 49.62 138.829C49.673 139.067 49.734 139.302 49.8 139.531C49.7969 139.554 49.7969 139.578 49.8 139.601V139.707C49.928 140.205 50.056 140.697 50.197 141.189C50.8253 143.492 51.6027 145.751 52.524 147.953C52.738 148.298 52.886 148.628 53 148.958Z" fill="#777777"/>
<path d="M64.53 125.54C62.3 121.406 56.867 126.655 55.474 128.904C53.732 131.76 52.687 135.224 51.747 138.565L51.454 139.622V139.715C51.31 140.243 51.164 140.765 51.016 141.279C50.9954 141.416 50.9954 141.556 51.016 141.693C51.0153 141.753 51.0294 141.811 51.057 141.864C51.0603 141.883 51.0603 141.902 51.057 141.921C51.099 142.021 51.147 142.043 51.204 141.886V141.993C51.364 141.543 51.524 141.086 51.677 140.622C51.615 140.929 51.677 141.336 51.858 141.336H51.928C56.301 140.581 60.17 137.994 62.607 134.196C63.924 132.067 65.916 128.104 64.53 125.541V125.54ZM64.307 128.818C64.133 129.368 63.958 129.925 63.791 130.475C63.471 131.305 63.081 132.105 62.628 132.867C61.8531 134.158 60.9012 135.333 59.8 136.359C57.5707 138.394 54.8178 139.766 51.851 140.322C51.823 140.328 51.797 140.341 51.7752 140.36C51.7534 140.379 51.7365 140.402 51.726 140.429C51.831 140.093 51.942 139.758 52.046 139.422C52.151 139.087 52.262 138.708 52.366 138.401C52.9564 136.329 53.654 134.289 54.456 132.289C55.1431 130.521 56.1678 128.903 57.473 127.526C58.427 126.569 60.803 124.784 62.349 125.184C63.896 125.584 64.481 126.976 64.307 128.818ZM51.957 137.37C51.9537 137.35 51.9537 137.329 51.957 137.309C51.8877 137.107 51.8237 136.903 51.765 136.698C51.573 136.771 51.38 136.832 51.188 136.899C51.26 136.768 51.2968 136.621 51.295 136.471C51.2203 135.953 51.0091 135.463 50.683 135.053C47.763 131.165 35.523 128.861 34.113 133.861C33.443 136.233 35.893 137.566 38.185 138.226C42.505 139.412 47.176 139.23 51.352 137.712C51.572 137.639 51.786 137.56 52 137.474C51.9817 137.441 51.9673 137.406 51.957 137.37ZM36.22 136.57C33.742 134.968 35.729 132.29 38.221 132.052C39.741 131.978 41.265 132.112 42.736 132.449C45.406 132.963 50.326 134.032 50.925 136.839C50.93 136.881 50.9418 136.923 50.96 136.961C46.424 138.415 40.065 139.063 36.22 136.569V136.57ZM58.237 105.532C55.803 106.719 53.868 109.228 52.169 111.185C50.261 113.367 48.474 115.677 46.775 117.994L46.715 118.064L46.675 118.122C46.4428 118 46.2174 117.865 46 117.718C46 117.975 46.04 118.238 46.067 118.495V118.623L46.229 118.726C46.121 118.88 46.33 119.508 46.425 119.367L46.742 118.976H46.782L46.842 119.014C50.02 120.511 53.792 120.291 56.754 118.437C59.922 116.576 64.17 112.071 63.994 108.227C63.88 105.327 60.86 104.255 58.237 105.532ZM47.227 118.366C49.283 115.799 51.272 113.149 53.524 110.704C54.608 109.439 55.8065 108.277 57.104 107.232C59.66 105.307 65.194 104.588 62.814 110.646C60.563 116.358 53.194 121.068 47.227 118.398V118.366Z" fill="#777777"/>
<path d="M48 118.193L47.39 118.426H47.337L46.681 118.666C43.559 119.776 40.167 120.622 36.971 119.398C34.846 118.584 32.183 116.192 33.239 113.718C34.105 111.68 36.381 111.825 38.238 112.292C41.478 113.082 44.936 114.255 47.213 116.678C47.426 116.899 47.628 117.131 47.816 117.372C47.801 117.483 47.7509 117.586 47.673 117.667C47.5951 117.748 47.4935 117.801 47.383 117.82L47.291 117.732C45.503 116.023 43.3592 114.73 41.013 113.946C39.268 113.315 33.941 111.056 33.797 114.949C33.711 117.214 37.221 118.779 39.091 119.139C41.636 119.631 44.169 118.956 46.583 118.136L46.911 118.016L47.311 117.877L47.967 117.637C47.957 117.776 47.957 117.915 47.967 118.054C47.9709 118.102 47.9821 118.149 48 118.193ZM45.815 104.729C46.526 100.098 48.815 96.105 52.788 93.831C54.387 92.9032 56.1656 92.3274 58.005 92.142C60.735 91.894 63.365 93.936 61.125 97.734C57.998 103.04 50.585 104.594 45.254 103.31C44.998 103.25 44.87 104.294 45.19 104.369C50.249 105.631 55.574 104.233 59.484 100.616C61.239 98.972 63.834 95.872 62.739 93.11C61.254 89.357 55.198 91.474 52.745 92.878C48.706 95.279 46.03 99.61 45.574 104.481C45.538 104.819 45.737 105.314 45.829 104.729H45.815ZM43.503 106.277C43.5743 106.269 43.642 106.242 43.6985 106.197C43.7551 106.153 43.7982 106.094 43.823 106.027C43.7653 104.733 43.6078 103.445 43.352 102.175C42.691 98.903 41.281 95.731 38.737 93.814C36.591 92.198 33.317 91.256 30.869 92.747C23.674 97.137 39.298 104.903 43.269 106.741L43.817 106.983C43.8759 107.006 43.9411 107.006 44 106.983V106.551L43.503 106.277ZM36.496 102.43C34.702 101.285 29.087 98 29.799 95.096C30.529 92.596 32.065 92.479 33.576 92.544C34.111 92.544 34.626 92.714 35.149 92.8C35.6853 92.9532 36.206 93.1568 36.704 93.408C38.0825 94.1268 39.2763 95.1546 40.192 96.411C42.118 99.028 42.71 102.731 42.917 105.963C40.727 104.863 38.587 103.777 36.497 102.449V102.429L36.496 102.43ZM47.341 88.494C49.228 85.9955 51.4109 83.7351 53.842 81.762C55.3657 80.5475 57.0163 79.5014 58.765 78.642C59.3133 78.318 59.9068 78.0777 60.526 77.929C61.124 77.8408 61.7293 77.8124 62.333 77.844C64.061 77.952 64.723 79.201 64.297 81.271C63.799 83.694 63.537 84.101 62.032 85.603C61.4712 86.1471 60.8544 86.6304 60.192 87.045C58.9187 87.8966 57.4945 88.4973 55.996 88.815C53.023 89.385 49.974 88.795 47.316 87.137C47.138 87.029 46.856 87.942 47.086 88.087C50.868 90.48 55.393 90.637 59.289 88.509C61.783 87.144 64.906 84.339 64.997 80.781C65.122 76.119 61.037 76.571 58.451 77.913C54.143 80.109 50.351 83.489 47.394 87.765C47.309 87.895 47.204 88.647 47.341 88.463V88.493V88.494Z" fill="#777777"/>
<path d="M50.997 88.145C51.0005 88.1776 51.0005 88.2104 50.997 88.243C50.961 88.497 50.91 88.752 50.874 89C50.5894 88.9211 50.3085 88.8297 50.032 88.726C45.026 86.976 34.962 81.38 38.888 76.319C40.695 73.981 44.264 75.163 46.202 76.698C48.988 78.898 49.924 82.183 50.475 85.382C50.475 85.565 50.533 85.748 50.569 85.931C50.606 86.114 50.649 86.473 50.685 86.741C50.6885 86.7736 50.6885 86.8064 50.685 86.839V87.217C50.685 87.413 50.359 88.125 50.294 87.72C50.257 87.479 50.214 87.237 50.177 86.989C49.735 84.227 49.191 81.379 47.384 79.055C45.934 77.168 43.154 75.261 40.426 75.973C34.876 77.423 42.146 83.423 43.742 84.566C45.71 85.9124 47.8376 87.0091 50.076 87.831L50.997 88.145ZM65.875 61.239C64.908 58.9 59.958 60.472 58.283 61.121C55.788 62.094 53.673 63.654 52.191 65.616C51.8458 66.0709 51.5333 66.5498 51.256 67.049C51.212 67.129 51.143 67.241 51.112 67.315C51.024 67.539 50.912 67.89 51.112 67.901H51.519L52.248 67.944C56.156 68.135 60.335 67.944 63.396 65.654C64.595 64.78 66.508 62.788 65.875 61.239ZM62.229 65.835C61.329 66.306 60.352 66.665 59.331 66.9C57.054 67.361 54.701 67.489 52.373 67.278L51.796 67.246H51.432C51.4685 67.1835 51.5086 67.123 51.552 67.065C51.708 66.815 51.884 66.57 52.059 66.335L52.223 66.122C53.523 64.422 55.31 63.029 57.417 62.075C59.199 61.281 62.097 60.333 64.124 60.823C67.28 61.543 63.685 65.052 62.229 65.835Z" fill="#777777"/>
<path d="M51.904 66.3124C51.904 66.4894 51.874 66.6694 51.817 66.8504C51.817 66.9304 51.781 67.0114 51.759 67.0984C51.558 67.3704 51.356 67.6554 51.176 67.9464C51.14 68.0204 51.111 68.0944 51.082 68.1684H51.45C51.37 68.4044 51.284 68.6334 51.19 68.8614C51.1752 68.8988 51.156 68.9344 51.133 68.9674C50.989 69.1834 50.743 69.2204 50.787 68.9674C50.7844 68.9321 50.7844 68.8967 50.787 68.8614C50.787 68.8004 50.83 68.7384 50.845 68.6764C50.908 68.5074 50.96 68.3364 51.003 68.1624C51.0873 67.8693 51.1573 67.5723 51.213 67.2724C51.655 65.2204 51.346 63.1014 50.326 61.2074C50.1162 60.8313 49.8754 60.4734 49.606 60.1374C49.3683 59.8143 49.1083 59.5083 48.828 59.2214C47.388 57.7614 41.985 53.6514 40.688 58.0214C40.415 58.9244 41.164 60.8244 41.46 61.7334C41.8154 62.9379 42.408 64.0592 43.203 65.0314C45.003 67.1724 47.892 68.1994 50.585 69.2824L50.823 69.3824C50.908 69.6234 50.781 69.8834 50.521 70.0004L50.348 69.9444C45.652 68.3914 42.065 66.2814 40.826 61.9004C40.401 60.3784 39.076 56.7904 41.071 55.4904C43.635 53.8194 47.668 56.7904 49.599 58.9124C49.884 59.2154 50.144 59.5364 50.377 59.8714C50.427 59.9424 50.474 60.0174 50.513 60.0934C51.738 61.9864 52.225 64.1654 51.903 66.3134L51.904 66.3124ZM62.993 53.0404C62.805 57.8834 59.148 62.2824 55.739 65.5664C55.559 65.7364 54.559 66.1234 54.709 65.9614C58.322 62.0004 64.638 54.7464 61.191 49.0014C59.764 46.6194 55.934 46.4144 54.485 48.6844C53.6714 50.0786 53.0952 51.5983 52.78 53.1814C52.2316 55.5907 51.9645 58.0555 51.984 60.5264V61.6964C51.9647 61.7413 51.9319 61.779 51.8901 61.8043C51.8483 61.8296 51.7997 61.8412 51.751 61.8374C51.5338 61.4116 51.2827 61.0039 51 60.6184V59.2084C51.09 53.8444 52.502 44.4054 58.915 46.2314C61.995 47.1054 63.098 50.3694 62.993 53.0414V53.0404ZM72.987 93.1364L72.709 94.1824C72.589 94.6324 72.475 95.0904 72.361 95.5684C72.291 95.8664 72.212 96.1644 72.141 96.4624C71.0026 101.052 70.1245 105.703 69.511 110.392C69.4267 110.996 69.3534 111.602 69.291 112.208L69.184 113.205C69.184 113.469 69.127 113.732 69.106 113.988C68.7225 117.969 68.5849 121.969 68.694 125.966C68.836 130.891 69.034 136.211 70.343 141.096C70.413 141.359 70.485 141.608 70.563 141.864C70.563 141.954 70.613 142.044 70.641 142.128C70.705 142.356 70.776 142.571 70.854 142.82L70.897 142.959C70.933 143.074 70.977 143.187 71.025 143.299C71.3371 144.224 71.7123 145.127 72.148 146H70.904C70.761 145.681 70.6283 145.358 70.506 145.03C70.3 144.499 70.1129 143.961 69.945 143.416L69.774 142.869C69.696 142.599 69.624 142.329 69.554 142.059C69.483 141.789 69.426 141.553 69.369 141.296C69.255 140.826 69.149 140.347 69.063 139.869C68.097 134.916 68.075 129.637 68.011 125.321C67.956 121.479 68.103 117.636 68.452 113.808L68.516 113.115C68.5125 113.069 68.5125 113.023 68.516 112.977C68.559 112.513 68.608 112.055 68.658 111.591C69.2426 106.411 70.2483 101.286 71.665 96.2684C71.707 96.0974 71.757 95.9234 71.814 95.7484C71.814 95.6234 71.885 95.4984 71.921 95.3744L72.02 95.0484C72.176 94.5154 72.34 93.9814 72.51 93.4554C72.574 93.3344 72.661 93.2254 72.766 93.1364C72.909 92.9914 73.044 92.9224 72.986 93.1364H72.987ZM72.39 93.1154L72 94.0004V93.9414C72 93.7314 72 93.4434 72.09 93.1214C72.28 92.9914 72.47 92.9334 72.39 93.1154ZM71.916 94.5364C71.916 94.8304 71.876 95.1244 71.848 95.4104L71.43 95.7274C71.43 95.4644 71.43 95.1774 71.47 94.8774C71.611 92.8574 71.516 90.8244 71.187 88.8334L71.127 88.5474C70.667 86.6594 69.737 85.4524 67.909 86.2274C66.032 87.0654 65.096 89.4824 65.811 91.6424C66.239 92.4584 66.771 93.1964 67.389 93.8324C68.421 95.1014 69.75 96.6564 70.715 98.0484L70.863 98.2654C70.828 98.3395 70.7851 98.4096 70.735 98.4744C70.7567 98.6511 70.7407 98.8304 70.688 99.0004L70.519 98.8304L69.548 97.8164C66.539 94.7214 62.66 89.8324 66.809 85.9244C68.603 84.2304 70.769 84.9344 71.45 87.4724C71.465 87.5174 71.476 87.5644 71.484 87.6114C71.524 87.7664 71.564 87.9284 71.599 88.0914C71.988 90.2084 72.095 92.3814 71.916 94.5364Z" fill="#777777"/>
<path d="M77.519 88.6921C76.7303 89.859 75.822 90.9405 74.809 91.9191C74.5225 92.2041 74.2242 92.477 73.915 92.7371C73.608 92.9941 73.119 93.4311 72.701 93.7161L72.296 94.0001C72.296 93.7641 72.296 93.5071 72.336 93.2371L72.766 92.9321C75.0432 91.3134 76.9209 89.1963 78.256 86.7421C78.91 85.4591 80.353 81.4841 78.224 80.9501C77.114 80.6651 75.162 82.5181 74.561 83.4131C73.7913 84.6004 73.0895 85.8304 72.459 87.0971L72.159 87.6801C72.1339 87.731 72.1008 87.7776 72.061 87.8181L72.002 87.5621C71.9991 87.5459 71.9991 87.5293 72.002 87.5131C72.107 87.2431 72.211 86.9581 72.335 86.6671C73.236 84.4471 74.653 81.5951 76.481 80.4221C78.12 79.3821 79.745 80.3531 79.974 82.3581C80.222 84.5781 78.649 87.0281 77.519 88.6921ZM71.834 95.9841L71 95.0001C71.312 95.2241 71.637 95.4491 72 95.6561C71.968 95.8371 71.904 96.0621 71.834 95.9841Z" fill="#777777"/>
<path d="M79.595 96.3153C78.11 98.7563 74.762 98.1303 72.368 97.0263L72 96.8413C72.063 96.5333 72.13 96.2273 72.2 95.9233L72.541 96.1083C74.087 96.9343 75.928 97.4753 77.451 96.9623C78.183 96.7203 79.304 95.6743 79.31 94.6773C79.31 94.0083 78.78 93.2543 78.395 92.8343C77.279 91.5593 75.605 91.4743 74.255 92.1793L73.925 92.3783L73.557 92.4993C73.322 92.6563 73.992 92.0293 74.059 91.9653C74.355 91.7013 74.678 91.4903 75.019 91.3393C76.256 90.7333 77.648 90.9493 78.735 91.9153C79.773 92.9123 80.487 94.8413 79.595 96.3153ZM78.508 114.212C76.008 116.808 72.068 117.557 68.711 116.602C68.4699 116.538 68.2325 116.461 68 116.37L68.069 115.574L68.795 115.662C73.56 116.155 78.737 114.913 80.03 109.291C80.186 108.814 80.264 108.313 80.26 107.81C80.26 105.747 78.776 104.417 77.261 105.213C76.774 105.517 76.305 105.849 75.854 106.209C74.8566 107.03 73.9352 107.938 73.101 108.924C71.5851 110.719 70.1804 112.605 68.895 114.571L68.283 115.478C68.237 115.55 68.153 115.534 68.069 115.478C68.115 114.945 68.169 114.419 68.222 113.886C68.474 113.487 68.788 113.018 69.132 112.492C72.137 108.009 78.21 100.109 80.604 106.249C81.682 108.972 80.42 112.237 78.508 114.212ZM76.55 135.06C75.53 133.308 73.391 133.997 72.204 135.19C70.789 136.603 70.089 138.621 69.648 140.549C69.602 140.752 69.562 140.95 69.522 141.149C69.5139 141.173 69.5139 141.199 69.522 141.222L69.034 141.306H69C69.057 141.526 69.115 141.747 69.178 141.968H69.149C69.157 141.981 69.169 141.99 69.183 141.996C69.1999 142.002 69.2181 142.002 69.235 141.996H69.459C69.653 141.996 69.854 141.962 70.032 141.934C72.159 141.702 74.44 141.114 75.856 139.481C76.951 138.294 77.416 136.491 76.55 135.061V135.06ZM75.592 138.78C75.0456 139.399 74.3733 139.894 73.62 140.232C72.453 140.714 71.221 141.027 69.963 141.159C70.2534 140.027 70.6371 138.922 71.11 137.853C71.769 136.53 73.265 134.648 75.06 134.778C75.707 134.828 76.04 134.975 76.372 135.812C76.4976 136.077 76.5627 136.367 76.5627 136.66C76.5627 136.954 76.4976 137.243 76.372 137.508C76.209 137.978 75.952 138.41 75.615 138.78H75.592Z" fill="#777777"/>
<path d="M71 142.902C70.9242 142.949 70.841 142.982 70.754 143H69.867C66.371 143 56.727 142.14 59.492 139.132C61.556 136.882 66.871 138.385 68.935 140.189C69.121 140.349 69.285 140.523 69.427 140.706C69.577 140.991 69.653 141.294 69.651 141.6C69.531 141.507 69.397 141.415 69.256 141.311C68.059 140.421 66.678 139.675 65.164 139.099C64.3076 138.792 63.4115 138.608 62.503 138.554C58.866 138.664 59.693 140.428 61.318 141.159C63.725 142.249 66.796 142.401 69.636 142.553H70.046L70.866 142.603C70.902 142.704 70.947 142.804 71 142.902ZM29 149.958C28.64 149.958 28.272 149.993 27.892 150C27.6991 149.694 27.5164 149.381 27.344 149.062C25.327 145.45 23.968 141.185 22.511 137.399C21.055 133.613 19.631 129.904 18.336 126.097L18.22 125.764L18.162 125.597C18.065 125.306 17.969 125.021 17.878 124.729C17.7807 124.443 17.6864 124.156 17.595 123.868C17.375 123.187 17.161 122.506 16.95 121.825C15.3672 116.252 14.463 110.507 14.257 104.716C14.257 104.508 14.257 104.293 14.225 104.084L14.186 103.202C14.186 102.646 14.141 102.098 14.128 101.549C14.0639 99.4221 14.0319 97.2938 14.032 95.1655C14.032 91.4705 13.961 87.5245 14.032 83.5785V83.2735V82.7735V82.3355V81.5505C14.032 81.2935 14.122 81.1615 14.16 80.9605C14.543 79.2305 14.64 77.4404 14.444 75.6734C14.534 74.8124 14.637 73.9514 14.76 73.1034C15.1634 70.0722 15.8693 67.089 16.867 64.1985C16.9304 64.1231 17.0127 64.0659 17.1055 64.0329C17.1983 63.9999 17.2982 63.9921 17.395 64.0105C16.3583 67.8775 15.6725 71.8302 15.346 75.8205C15.2268 77.1938 15.1301 78.569 15.056 79.9455C15.056 80.2235 15.043 80.5015 15.017 80.7795C15.0138 80.7956 15.0138 80.8123 15.017 80.8285C14.979 81.5985 14.953 82.3705 14.927 83.1415V83.5715C14.824 87.4205 14.843 91.2475 14.857 94.9085C14.857 97.1385 14.889 99.3885 14.966 101.639V102.966C14.966 103.181 14.966 103.486 15.004 103.744C15.044 104.001 15.004 104.32 15.05 104.605C15.0469 104.665 15.0469 104.725 15.05 104.785C15.273 109.715 15.984 114.605 17.17 119.373C17.376 120.186 17.608 120.999 17.859 121.805C18.2064 122.912 18.5674 124.014 18.942 125.111C18.987 125.264 19.038 125.424 19.096 125.576C20.449 129.55 21.938 133.474 23.439 137.386C24.895 141.157 26.249 145.436 28.298 149.006C28.5567 149.305 28.7914 149.623 29 149.958ZM32.589 58.9435C31.505 57.5405 28.576 58.0435 27.158 58.3145C26.6712 58.4101 26.1909 58.5364 25.72 58.6925C24.7894 58.9866 23.8927 59.3788 23.045 59.8625C21.8287 60.542 20.7141 61.3893 19.734 62.3795L19.446 62.6815C19.076 63.0775 18.736 63.4974 18.43 63.9405C18.3662 64.0157 18.308 64.0956 18.256 64.1795C18.015 64.2295 17.855 64.3365 18.196 64.4245L18.383 64.4685C21.283 65.2295 24.358 65.1725 27.225 64.3055C28.964 63.8145 34.548 61.5175 32.589 58.9435ZM32.013 60.2025C31.8925 60.6346 31.6866 61.0382 31.4075 61.3895C31.1284 61.7407 30.7817 62.0325 30.388 62.2475C29.4792 62.887 28.4895 63.4032 27.445 63.7825C24.7488 64.7654 21.8232 64.934 19.032 64.2675C20.1964 62.8365 21.5459 61.5667 23.045 60.4915C23.682 60.0255 24.365 59.6165 25.085 59.2715C26.1345 58.7247 27.3059 58.4538 28.489 58.4845C31.873 58.3645 32.542 59.1075 32.013 60.2145V60.2025ZM20 59.1425C20 59.6155 19.717 59.3925 19.656 59.0765C19.4452 57.9643 19.1589 56.8677 18.799 55.7945C18.7764 55.7019 18.7456 55.6116 18.707 55.5245C18.2332 54.0671 17.5249 52.6968 16.61 51.4675C15.8642 50.4058 14.9309 49.4891 13.856 48.7625C13.263 48.2125 12.434 47.8915 11.56 47.8765C10.748 47.9135 9.98697 48.2265 9.44397 48.7465C8.90097 49.2665 8.62197 49.9505 8.66797 50.6465C8.62997 52.9965 9.14198 53.9295 10.711 55.8995C11.3755 56.7155 12.1475 57.4377 13.006 58.0465C14.652 59.2015 16.503 59.7265 18.431 60.3965L18.485 60.4425C18.5396 60.5253 18.5686 60.6223 18.5686 60.7215C18.5686 60.8206 18.5396 60.9176 18.485 61.0005H18.431C12.754 60.7705 5.93597 53.7325 8.59097 48.7755C10.466 45.2755 14.154 47.6855 15.998 49.7345C17.2255 51.1175 18.211 52.6977 18.913 54.4085C19.082 54.8085 19.235 55.2165 19.365 55.6235C19.71 56.6595 19.915 57.7255 19.977 58.8015C19.992 58.8885 20 59.0015 20 59.1425Z" fill="#777777"/>
<path d="M26.952 56.957C26.705 57.187 26.464 57.402 26.202 57.61C25.394 58.004 24.627 58.47 23.912 59C23.8364 58.9411 23.7787 58.8622 23.7453 58.7723C23.7119 58.6825 23.7042 58.5851 23.723 58.491L23.941 58.291C26.194 56.183 28.702 54.32 30.324 51.675C31.2915 50.2466 31.8736 48.5925 32.014 46.873C32.059 44.099 29.34 40.881 26.487 42.573C24.234 43.941 22.867 47.647 21.981 49.89C21.0063 52.4187 20.228 55.0187 19.653 57.667C19.653 57.847 19.571 58.032 19.526 58.212C19.481 58.391 19.233 58.09 19.09 57.868C19.068 57.7678 19.0379 57.6694 19 57.574C19.045 57.251 19.113 56.857 19.21 56.334C20.27 50.994 24.467 36.867 30.79 42.171C35.85 46.471 31.21 53.022 26.952 56.957ZM25.626 77.996C22.766 79.83 19.056 80.176 15.576 79.93L15.129 79.893C14.924 79.893 15.402 79.63 15.589 79.603H15.619C19.341 79.751 23.548 79.573 26.271 77.066C27.075 76.357 27.655 75.488 27.959 74.54C28.144 74.089 28.18 73.604 28.064 73.137C27.81 72.087 26.699 72.611 24.924 72.984C23.151 73.357 20.83 74.729 19.261 75.611C18.206 76.194 16.655 76.93 15.669 77.875C15.309 78.202 15.034 78.588 14.862 79.01C14.8188 79.131 14.7876 79.2559 14.769 79.383C14.759 79.49 14.759 79.597 14.769 79.703C14.7659 79.747 14.7659 79.7911 14.769 79.835C14.769 79.885 14.739 79.93 14.689 79.955V79.725C14.5906 79.7643 14.4832 79.775 14.379 79.756C14.254 79.704 14.124 79.656 14 79.599C14.017 79.42 14.059 79.244 14.124 79.073C14.329 79.157 14.521 79.247 14.701 79.325V78.995V78.401C14.701 78.206 14.788 78.107 14.825 77.954C15.083 77.672 15.371 77.412 15.687 77.177L15.817 77.077C17.387 75.916 19.577 75.012 20.88 74.387C22.338 73.677 26.352 71.235 28.163 72.238C30.613 73.61 27.04 77.093 25.626 77.996Z" fill="#777777"/>
<path d="M15.21 79.84L15 80C15.113 78.316 15.263 76.65 15.45 75C15.63 76.615 15.55 78.243 15.21 79.84Z" fill="#777777"/>
<path d="M17.692 76.3122L17.846 76.1852C17.787 76.4982 17.721 76.8052 17.648 77.1132V77.1662C17.553 77.5532 17.45 77.9272 17.333 78.3012C17.2541 78.3942 17.1566 78.4696 17.0467 78.5225C16.9367 78.5754 16.8169 78.6046 16.695 78.6082C16.6344 78.6179 16.5726 78.6179 16.512 78.6082V77.8542C16.512 77.6072 16.615 77.4802 16.658 77.2862C17.094 75.6232 17.203 73.9032 16.981 72.2062C16.8681 71.4257 16.6435 70.6656 16.314 69.9492C15.729 68.6052 14.729 67.4452 13.433 66.6102C12.6105 66.0911 11.6853 65.7564 10.721 65.6292C9.13701 65.4622 6.22001 66.7642 5.45701 68.0462C2.69401 72.7202 11.52 76.7262 15.787 78.7282C16.028 78.8352 16.255 78.9482 16.467 79.0482L16.556 79.0962L16.849 79.2362C16.952 79.2832 16.754 79.4162 16.527 79.5032C16.527 79.5032 16.724 79.7232 16.702 79.7302C16.556 79.7772 16.864 80.0302 16.783 79.9972C16.703 79.9642 15.786 79.4432 15.64 79.3692C13.2578 78.3168 10.9569 77.0894 8.75601 75.6972C7.10601 74.6622 5.17101 73.4872 4.35801 71.6912C3.23601 69.2212 4.88601 66.5372 7.44401 65.5022C10.147 64.4802 13.261 65.0472 15.324 66.9382C16.1884 67.7088 16.8741 68.6589 17.333 69.7222C17.687 70.5552 17.912 71.4292 18 72.3192C17.873 73.6492 17.77 74.9812 17.692 76.3122ZM28.949 93.5582C28.369 98.2442 21.319 105.938 16.623 104.906C16.4341 104.869 16.2488 104.815 16.069 104.746L15.904 104.678C15.7072 104.59 15.5196 104.483 15.344 104.358C15.2817 104.323 15.2225 104.283 15.167 104.238C15.12 104.238 15.127 104.131 15.167 104.048C15.2179 103.922 15.2942 103.808 15.391 103.713C15.4372 103.638 15.5063 103.58 15.588 103.547C15.6697 103.515 15.7598 103.509 15.845 103.531C16.087 103.713 16.345 103.863 16.616 103.979C19.251 105.058 22.578 102.323 24.443 100.379C25.3839 99.3887 26.2105 98.2955 26.907 97.1202C27.6711 95.9609 28.1454 94.635 28.29 93.2542C28.25 92.2292 28.237 91.6672 27.407 91.6212C25.332 91.4912 21.709 94.6592 20.22 96.1022C18.4985 97.8366 17.0063 99.7844 15.78 101.898C15.7 102.019 15.621 102.141 15.549 102.27C15.476 102.4 14.784 102.878 15.068 102.369C15.153 102.217 15.232 102.073 15.325 101.921C15.417 101.769 15.601 101.442 15.753 101.207C17.637 98.1062 20.021 95.4522 22.776 93.3912C24.265 92.2972 29.575 88.5142 28.949 93.5582ZM26.027 119.653C24.78 122.131 22.953 124.159 20.753 125.506C20.4928 125.677 20.2287 125.842 19.961 126L19.858 125.684L20.616 125.064C23.749 122.474 27.359 118.855 26.01 114.024C25.385 111.776 23.915 110.306 21.42 113.108C20.633 114.176 20.122 115.475 19.944 116.858C19.537 119.238 19.944 121.683 20.277 124.049C20.277 124.207 20.317 124.372 20.34 124.53C20.3183 124.609 20.276 124.68 20.2174 124.737C20.1589 124.794 20.0863 124.834 20.007 124.853C19.9361 124.889 19.856 124.903 19.777 124.893C19.7657 124.89 19.7553 124.884 19.7467 124.876C19.738 124.868 19.7313 124.858 19.727 124.847L19.692 124.675C19.3024 123.018 19.0776 121.327 19.021 119.626C18.886 117.431 19.424 115.251 20.541 113.464C21.505 112.02 23.411 110.419 25.132 111.209C27.898 112.482 27.049 117.412 26.027 119.653ZM24.848 135.893C24.56 133.273 24.851 130.601 25.688 128.181C25.928 127.496 26.226 126.846 26.578 126.245C27.966 124.025 30.179 125.082 30.396 128.409C30.688 133.021 27.043 135.324 24.072 135.966C23.862 136.006 24.155 137.032 24.384 136.999C28.519 136.471 32.928 131.191 30.109 125.741C28.971 123.553 27.234 123.366 26.012 125.53C24.472 128.436 23.918 132.017 24.479 135.454C24.479 135.633 24.912 136.373 24.874 135.884L24.848 135.893ZM21.961 136.13C18.9623 134.317 15.416 133.63 11.957 134.192C10.433 134.427 7.98401 134.828 7.25701 136.492C6.01301 139.289 9.58701 141.044 11.751 140.999C15.482 140.923 18.429 137.917 21.7 136.519C22.172 136.315 22.054 135.965 21.57 136.169C20.6 136.593 19.656 137.079 18.746 137.624C15.998 139.251 11.496 142.239 8.76101 139.111C5.78201 135.711 12.771 134.326 15.271 134.554C17.4207 134.799 19.5095 135.425 21.439 136.404C21.575 136.467 22.092 136.201 21.986 136.131H21.961V136.13Z" fill="#777777"/>
<path d="M19.154 122.02C17.27 119.999 5.634 113.648 5.024 119.265C4.393 125.05 16.819 124.188 19.924 123.521C20.136 123.474 19.864 122.646 19.599 122.693C17.121 123.173 14.59 123.311 12.075 123.103C11.0836 122.987 10.1031 122.791 9.143 122.518C7.816 122.127 3.511 120.342 6.881 118.241C8.135 117.46 11.624 118.585 12.998 119.009C15.4412 119.825 17.6776 121.163 19.552 122.929C19.738 123.097 19.247 122.12 19.154 122.019V122.02ZM17.588 103C17.3834 102.965 17.1818 102.914 16.985 102.848C16.92 102.761 16.855 102.681 16.798 102.594C16.612 102.355 16.432 102.109 16.246 101.87L15.7 101.145C14.114 99.0082 12.563 96.8422 10.991 94.6972C10.2227 93.473 9.32009 92.3383 8.3 91.3142C5.622 89.0682 0.548001 90.3872 1.029 94.1542C1.869 100.776 11.078 99.9062 15.743 102.065L15.944 102.16C15.9662 102.17 15.9857 102.185 16.001 102.203C16.0979 102.277 16.1664 102.382 16.195 102.5C16.253 102.696 16.195 102.891 16.088 102.84C15.9879 102.794 15.8847 102.756 15.779 102.725C11.659 101.138 5.385 101.167 2.026 98.0522C-0.334999 95.8782 -0.937998 92.1112 1.876 90.0392C2.71199 89.4192 3.71263 89.0602 4.75209 89.0074C5.79156 88.9546 6.82345 89.2102 7.718 89.7422C9.872 90.9742 11.308 93.4662 12.685 95.3922C13.662 96.7402 14.652 98.0812 15.635 99.4212L16.181 100.146L16.425 100.479C16.525 100.609 16.619 100.739 16.705 100.87C16.705 101.138 16.705 101.413 16.748 101.681C17.011 101.855 17.293 101.999 17.588 102.109L17.968 102.638C18.09 102.79 17.839 102.935 17.588 103ZM62 22.0002L61.05 22.6642C60.358 23.1562 59.665 23.6542 58.988 24.1522L58.592 24.4372C51.113 29.8902 44.342 35.6422 40.693 43.2602C40.655 43.3292 40.621 43.4002 40.592 43.4722L40.428 43.8182C40.2289 44.2435 40.0445 44.6754 39.875 45.1132C39.798 45.3122 39.767 45.3722 39.72 45.5052C39.1647 46.9454 38.7298 48.4292 38.42 49.9412C38.374 50.2012 37.985 49.5292 38 49.3702C38.12 47.8912 38.407 46.4252 38.856 44.9932C38.8524 44.96 38.8524 44.9265 38.856 44.8932C38.8526 44.86 38.8526 44.8265 38.856 44.7932C38.919 44.5862 38.989 44.3802 39.066 44.1762C39.066 44.1032 39.113 44.0362 39.144 43.9642C39.176 43.8912 39.269 43.6322 39.331 43.4662C39.3477 43.4084 39.3712 43.3526 39.401 43.3002C39.801 42.2922 40.277 41.3072 40.825 40.3502C44.553 33.7692 51.285 28.3102 57.945 23.5942L58.342 23.3152C58.405 23.2622 58.475 23.2222 58.537 23.1752L58.864 22.9362L59.642 22.4182L59.914 22.2322C59.8888 22.2847 59.8576 22.334 59.821 22.3792C60.539 22.2192 61.266 22.0932 62 22.0002ZM56.474 8.06724C54.517 8.50424 52.544 11.3472 52.132 13.0302C51.507 15.5542 53.222 18.4102 54.664 20.6962L54.759 20.8562C54.855 21.0012 54.943 21.1532 55.039 21.2932L55.304 21.7232C55.3124 21.7298 55.3228 21.7334 55.3335 21.7334C55.3442 21.7334 55.3546 21.7298 55.363 21.7232C55.3595 21.7585 55.3595 21.794 55.363 21.8292C55.363 22.0092 55.443 22.1012 55.628 21.8292L55.672 21.7692C55.922 21.4322 56.165 21.1072 56.408 20.7232C56.555 20.4972 56.688 20.2732 56.812 20.0602C56.8471 20.0151 56.877 19.9661 56.901 19.9142C58.0126 17.936 58.6967 15.7465 58.909 13.4872C59.019 11.9172 59.476 7.39724 56.474 8.06724ZM58.225 14.6932C57.902 16.6659 57.1972 18.5566 56.15 20.2592C56.0772 20.3964 55.996 20.529 55.907 20.6562C55.8527 20.762 55.7912 20.8639 55.723 20.9612C55.7103 20.9923 55.6931 21.0212 55.672 21.0472L55.635 20.9812C55.5583 20.8069 55.4773 20.6345 55.392 20.4642C54.995 19.6292 54.546 18.8142 54.119 17.9862C53.692 17.1582 52.898 16.1442 52.817 15.1762C52.513 13.8082 52.8 12.3862 53.619 11.2012C54.134 10.0552 55.694 8.34524 57.069 8.51124C57.997 8.62424 58.239 10.1412 58.358 11.8242C58.416 12.7752 58.371 13.7302 58.225 14.6742V14.6942V14.6932Z" fill="#777777"/>
<path d="M63.082 26.9953C60.249 27.0813 57.532 26.0813 54.952 25.0103L54.77 24.9303C54.501 24.8233 54.545 24.7363 54.69 24.6933C54.7887 24.6629 54.8917 24.6484 54.995 24.6503C55.0936 24.6335 55.1943 24.6335 55.293 24.6503C56.9014 25.3365 58.5703 25.8712 60.278 26.2473C61.963 26.5833 63.704 26.5293 65.364 26.0893C66.047 25.9093 67.086 25.6143 67.348 25.0603C67.704 24.2983 67.166 23.5203 66.018 23.0963C63.417 22.1263 60.096 22.3413 57.241 23.0393C56.711 23.1693 56.187 23.3123 55.693 23.4633L55.046 23.6573H54.959L54.829 23.7013H54.741C54.5144 23.6978 54.2921 23.6383 54.094 23.5283L54 23.3553C54.0375 23.3114 54.0885 23.2812 54.145 23.2693L54.719 23.0823C54.792 23.2403 54.857 23.3923 54.923 23.5503L55.228 23.2903C55.3163 23.1517 55.3964 23.0082 55.468 22.8603L55.925 22.7303L56.093 22.6863C56.763 22.5143 57.442 22.3773 58.127 22.2763C59.909 21.9875 61.7203 21.9246 63.518 22.0893C64.798 22.2053 67.442 22.3053 67.914 23.8953C68.641 26.3623 64.55 26.9593 63.082 26.9953ZM45.479 33.3303C42.078 32.7553 40.433 28.8783 39.933 25.9233C39.663 24.3343 39.9 20.9083 42.295 20.7843C43.985 20.7123 44.926 21.5883 45.545 22.8043C45.793 23.4323 45.945 24.0943 45.999 24.7663C46.1103 25.7845 46.1277 26.8109 46.051 27.8323C45.919 29.7027 45.5929 31.5543 45.078 33.3573C45.005 33.6313 45.735 34.2133 45.828 33.9193C46.821 30.5723 47.841 25.5633 45.9 22.3343C44.933 20.7253 42.874 19.3723 40.985 20.3073C37.742 21.9023 39.215 26.4133 40.229 28.8913C41.242 31.3693 42.992 33.7883 45.926 33.9133C46.091 33.9133 45.65 33.3703 45.486 33.3433L45.479 33.3313V33.3303Z" fill="#777777"/>
<path d="M45.014 32.1411C47.588 34.7771 57.333 38.3781 59.691 33.8241C60.762 31.7531 58.868 29.8521 56.784 29.3181C53.29 28.4181 48.789 29.5911 45.569 30.8051C45.315 30.9031 44.864 31.7051 45.223 31.5711C48.443 30.4051 56.543 27.9271 58.783 31.7041C61.023 35.4811 54.211 35.3481 52.14 34.8861C49.815 34.3941 47.326 32.8091 45.406 31.5711C45.276 31.4861 44.91 31.8311 45.021 31.9471V32.1351L45.014 32.1411ZM50.937 42.6051C50.03 39.5151 44.007 41.5561 40.649 43.1661C40.5716 43.2 40.4958 43.2377 40.422 43.2791L40.224 43.3741C39.946 43.5141 39.69 43.6491 39.493 43.7841L39.361 43.8511L39.201 43.9461C39.1277 44.1174 39.0613 44.2915 39.002 44.4681C38.9988 44.496 38.9988 44.5242 39.002 44.5521C38.9987 44.58 38.9987 44.6082 39.002 44.6361C39.043 44.6691 39.087 44.6991 39.134 44.7261C39.352 44.8501 39.579 44.9641 39.814 45.0681C41.725 45.9081 43.967 46.1931 46.13 45.8701C47.864 45.6231 51.523 44.5131 50.937 42.6051ZM49.43 43.7271C48.97 44.1021 48.434 44.4171 47.842 44.6581C47.0567 44.9864 46.2332 45.2148 45.391 45.3381C43.516 45.5771 41.591 45.3651 39.881 44.7311L39.405 44.5741L40.137 44.2261C41.3465 43.5963 42.5982 43.051 43.883 42.5941C44.573 42.3641 45.279 42.1631 45.998 41.9941C46.638 41.8401 47.291 41.7171 47.952 41.6241C48.698 41.4091 49.537 41.6521 49.912 42.1921C50.286 42.7321 50.08 43.4011 49.43 43.7551V43.7271ZM35.777 45.8201C35.107 46.1091 33.799 44.4301 33.297 43.9821C32.535 43.2591 31.75 42.6371 31.003 41.9141C29.543 40.4671 27.707 37.8491 29.473 35.4981C31.652 32.6051 34.316 36.3811 34.921 38.9981C35.526 41.6181 35.068 44.2431 34.84 46.8761C34.84 47.1721 35.483 46.8761 35.526 46.6371C36.207 42.8111 36.551 37.3931 33.706 34.8971C32.116 33.4391 29.955 33.7901 28.676 35.7151C26.682 38.9051 29.554 41.7401 31.401 43.3891C32.441 44.3291 34.616 47.5411 35.951 45.9431C36.098 45.7691 35.875 45.7831 35.782 45.8201H35.777ZM69.57 178.976C70.113 177.244 71.28 175.299 72.828 175.008C73.934 174.752 75.061 175.294 75.776 176.428C76.319 177.45 76.586 179.267 75.7 181.396C74.19 185.108 71.709 188.28 69.499 191.276C69.369 191.453 69.803 192.106 69.928 191.986C72.16 189.313 74.133 186.293 75.803 182.993C76.824 180.913 77.557 178.451 76.439 176.193C74.369 172.027 70.194 174.405 69.01 178.259C68.918 178.557 69.483 179.281 69.553 178.969L69.569 178.976H69.57Z" fill="#777777"/>
<path d="M69.94 177.718C68.47 175.061 62.404 171.354 62.012 176.814C61.833 179.292 63.652 182.328 64.642 184.354C65.963 187.184 67.664 189.739 69.678 191.92C69.918 192.166 69.828 191.78 69.728 191.64C67.4354 188.657 65.5046 185.413 63.976 181.976C63.226 180.189 61.968 177.552 63.165 175.619C64.793 172.962 68.76 176.476 69.661 177.817C69.84 178.083 70.148 178.13 69.918 177.711L69.941 177.718H69.94Z" fill="#777777"/>
<path d="M92.908 176.914C92.742 172.887 92.873 168.284 89.174 165.847C84.424 162.762 76.527 164.408 71.293 164.697C64.4763 165.052 57.6964 165.924 51.012 167.307C51.192 167.091 51.337 166.163 50.964 166.537C50.59 166.911 50.355 167.177 50.078 167.515L49.56 168.148C44.927 174.218 45.28 182.646 47.976 189.722C49.539 193.814 51.662 198.899 55.583 201.049C59.994 203.465 66.01 203.099 70.795 202.739C75.455 202.394 81.229 202.329 85.495 200.136C88.855 198.417 90.675 194.886 91.718 191.297C93.108 186.644 93.101 181.718 92.908 176.914ZM87.985 197.41C84.43 201.006 78.193 201.006 73.561 201.473C68.229 202.013 61.971 202.617 56.896 200.423C52.104 198.359 49.733 192.463 48.087 187.694C45.84 181.222 45.791 173.894 50.065 168.428C55.6703 167.312 61.3325 166.504 67.026 166.005C72.558 165.545 78.387 164.875 83.905 165.379C86.18 165.588 88.641 166.235 90.253 168.062C92.327 170.392 92.182 173.944 92.327 176.886C92.631 183.502 92.915 192.39 87.985 197.41Z" fill="#777777"/>
<path d="M51.804 165C42.998 171.218 42.614 183.017 45.901 192.588C47.597 197.54 50.239 201.784 55.111 203.821C60.561 206.092 67.184 206.297 72.956 205.738C82.53 204.818 91.899 201.091 95.446 191.195C98.261 183.343 101.191 165.064 89.792 162.772C84.15 161.633 77.747 162.065 72.03 162.157C65.2633 162.19 58.5287 163.088 51.99 164.83C51.666 164.922 51.097 165.828 51.68 165.665C62.785 162.517 74.651 162.652 86.058 163.324C89.49 163.529 92.578 164.18 94.582 167.363C96.154 169.86 96.812 173.022 97.025 175.929C97.54 182.954 95.653 192.709 90.848 197.908C86.168 202.916 78.694 204.508 72.228 204.981C66.052 205.42 58.214 205.187 52.929 201.444C48.18 198.099 46.066 191.541 45.133 185.939C43.836 178.313 45.448 170.157 51.9 165.467C52.25 165.212 52.353 164.611 51.817 164.993L51.804 165ZM72.009 95.27C72.313 94.313 72.493 93.324 72.544 92.325C72.544 91.295 73 93.042 73 93.042C72.8726 93.9059 72.6668 94.7564 72.385 95.583C72.201 96.155 71.985 95.98 72.001 95.957C72.017 95.934 72.009 95.27 72.009 95.27ZM51.24 72C51.171 72.205 51 72.857 51 72.857L51.417 73L52 72.524L51.24 72ZM52 138.647C51.67 138.805 51.095 139 51.095 139L51 138.113L51.36 138L51.83 138.158L52 138.647Z" fill="#777777"/>
</svg>
