<svg width="690" height="530" viewBox="0 0 690 530" fill="none" xmlns="http://www.w3.org/2000/svg">
<g opacity="0.4">
<path opacity="0.4" fill-rule="evenodd" clip-rule="evenodd" d="M23.622 30.5268L26.187 22.6568L56.868 21.0578C60.898 27.4438 60.95 27.9018 58.268 35.8798C48.044 40.0168 37.279 38.3498 26.282 38.5978L23.622 30.5278V30.5268ZM39.965 4.01977C50.225 3.64577 60.69 4.05277 71.47 4.02777C73.09 8.70977 75.733 12.9588 71.624 18.5898H40.037C37.432 14.2558 37.413 9.68677 39.965 4.01977ZM190.378 20.4738C190.588 22.7828 190.912 25.4138 191.041 28.0538C191.158 30.4618 191.066 32.8798 191.066 35.8948C180.866 37.9458 170.819 35.8348 160.646 37.7438L158.33 20.0438C165.88 17.9598 182.96 18.1038 190.378 20.4738ZM49.06 40.2598C61.814 38.5968 74.382 34.8228 87.371 38.4018C87.546 38.4498 87.842 38.0568 88.231 37.7548C79.782 33.3028 70.733 35.6408 61.493 35.4978V20.6998C65.441 20.4478 69.307 19.3228 72.184 22.8398C81.057 17.3708 91.161 20.2598 100.507 19.2958C118.732 17.4158 137.229 18.4468 156.276 18.6348C155.457 25.7218 160.865 31.5338 155.986 38.7488C151.577 38.7488 146.744 38.4298 141.973 38.8388C137.298 39.2408 132.203 37.4358 128.069 41.6738L137.983 40.8478C138.244 46.7668 138.481 52.1258 138.716 57.4848L139.697 57.5078L140.699 40.3518C148.152 40.3518 154.792 40.4408 161.429 40.3278C168.196 40.2118 174.927 36.9748 181.902 39.8668C181.45 46.3668 183.47 52.7948 180.219 58.7798C182.137 59.4048 184.098 60.5818 185.956 60.4358C194.007 59.7998 202.027 58.7438 211.507 57.6788C201.577 55.8458 193.097 56.9448 183.725 58.7038C183.725 54.8698 183.677 51.8938 183.738 48.9238C183.804 45.6888 183.971 42.4588 184.12 38.5208C193.937 38.5208 202.98 38.5048 212.025 38.5248C220.807 38.5428 229.589 38.6218 238.372 38.6318C247.061 38.6418 255.75 38.6018 264.438 38.5838C252.635 37.0648 240.866 37.1108 229.098 37.0538C217.121 36.9938 205.126 37.2398 192.975 36.4548C193.026 30.0828 191.979 24.7388 193.305 20.1718C200.349 20.1718 206.698 20.3548 213.033 20.1218C219.493 19.8818 225.931 17.1048 233.263 20.0738V33.3538L234.97 33.2798V18.5378C239.687 18.5378 243.579 18.5318 247.47 18.5398C251.71 18.5458 255.951 18.5938 260.191 18.5748C267.118 18.5448 267.118 18.5268 269.259 16.8388H257.611C210.367 16.8318 163.122 16.7248 115.878 16.8928C105.035 16.9308 94.195 17.9288 83.353 18.4458C81.307 18.5438 79.252 18.4598 76.853 18.4598L74.923 4.39577C87.043 3.60577 98.54 4.29777 109.962 2.67577C108.95 1.56277 107.882 0.917774 106.858 0.984774C102.665 1.25577 98.483 2.12577 94.302 2.08677C73.762 1.89477 53.226 3.02177 32.681 0.726774C21.906 -0.476225 10.902 0.381774 0 0.309774V2.13677C11.896 2.48977 23.905 1.09477 36.03 3.54977V20.1918C23.714 19.8438 11.795 22.0498 0 18.5838V22.2388H22.532V38.6848H0V40.5128C8.786 40.6028 17.572 40.7698 26.357 40.7598C33.932 40.7498 41.597 41.2318 49.06 40.2588" fill="#BFBFBF"/>
<path opacity="0.4" fill-rule="evenodd" clip-rule="evenodd" d="M76.6 99.28C77.354 95.032 78.064 91.042 78.882 86.442L97.662 84.829C93.061 79.417 87.674 86.679 83.144 81.789V66.691L81.489 66.674V83.64C70.341 84.02 60.249 84.385 49.622 83.152V65.993C58.76 65.286 67.382 64.309 76.028 64.009C100.614 63.155 125.232 64.676 150.222 63.165L151.165 73.542L152 73.347V60.69C148.896 60.69 146.246 60.525 143.623 60.726C138.848 61.092 134.099 61.932 129.322 62.104C122.385 62.354 115.43 62.05 108.488 62.221C90.13 62.671 71.71 60.781 53.41 63.661C52.704 63.771 51.86 63.006 51.237 62.723V48.474L78.823 50.984C70.093 48.368 61.259 46.634 52.351 46.095C34.923 45.043 17.453 44.66 0 44V45.81C15.338 46.524 30.677 47.229 46.012 47.986C46.532 48.012 47.025 48.565 47.53 48.874C49.516 55.927 49.507 56.89 47.416 63.308C42.646 63.993 37.852 64.423 33.182 65.423C28.407 66.446 22.929 64.103 18.175 68.456C23.53 68.069 28.227 67.449 32.921 67.47C37.551 67.49 42.069 63.723 46.763 66.859V83.772C41.509 83.772 36.715 83.54 31.956 83.84C27.568 84.117 22.852 82.775 16.956 86.036H73.224C74.143 87.548 75.056 89.051 76.061 90.708L73.519 98.344H49.408L48.341 88.848L47.391 88.887L45.471 98.323H0V100.134L82.631 101L76.599 99.28" fill="#BFBFBF"/>
<g opacity="0.4">
<path opacity="0.4" fill-rule="evenodd" clip-rule="evenodd" d="M54.424 323.071C56.657 323.062 58.889 322.827 61.121 322.695L61.11 321.193H35.413C32.29 313.891 32.047 308.734 34.34 300.208H60.662L60.659 298.905L-0.000999451 296.812V298.682C9.492 299.362 18.984 300.041 28.803 300.742L31.01 320.172C20.127 321.166 10.063 322.086 5.49364e-07 323.007V324.878C7.526 324.283 15.042 323.378 22.578 323.168C33.186 322.872 43.808 323.113 54.424 323.071Z" fill="#BFBFBF"/>
</g>
<path opacity="0.4" fill-rule="evenodd" clip-rule="evenodd" d="M37.396 399.48C36.091 400.047 34.786 400.615 33.417 401.212C35.349 402.01 37.203 402.779 39.187 403.6L40.588 416L41.599 415.959V397.77H61C50.197 393.202 38.842 395.823 27.87 395.094C25.986 389.86 31.65 383.948 25.876 378.999C24.466 384.699 27.232 390.739 22.976 396.692H0V400.319C12.387 397.915 24.856 398.551 37.396 399.479V399.48ZM9.633 441C12.966 437.877 12.407 435.576 11.89 433.332C11.288 430.725 10.291 428.113 12.647 425.503L57 421.473C51.153 420.266 45.189 419.466 39.52 420.425C26.36 422.655 13.187 421.899 0 421.866V425.492L8.582 425.668L9.633 441ZM42.164 376.677C47.551 376.424 53.184 376.632 58 373.054C57.172 373.03 56.343 372.979 55.517 373.009C37.011 373.669 18.505 374.339 0 375.008V379C4.135 378.379 8.26 377.369 12.41 377.216C22.323 376.853 32.257 377.144 42.164 376.677ZM34.986 135H0V138L35 135.789L34.986 135ZM0 341V344L15 343.635C10.298 340.338 4.965 341.68 0 341ZM24 197H0V199H23.996L24 197ZM16.986 453H0V456L17 453.707L16.986 453ZM261.868 324.268C261.9 324.89 261.931 325.511 261.964 326.132H309.137V354.367C306.141 354.884 303.817 355.285 301.496 355.687L301.602 356.448L308.593 357.221C309.14 359.479 309.592 361.341 310.477 365L313.22 357.077C331.722 356.093 350.051 352.177 369.48 355.205L367.237 330.549L366.705 330.572V353.046C364.635 352.788 362.616 352.392 360.586 352.313C355.472 352.115 350.32 351.646 345.243 352.042C336.854 352.694 328.52 354.016 320.146 354.897C317.531 355.171 314.863 354.94 311.981 354.94C310.273 344.843 312.455 335.85 313.737 326.071H385.032L385.035 324.321C377.816 324.321 370.591 324.496 363.379 324.273C355.917 324.041 348.352 325.304 341.054 323.406C339.868 318.81 344.365 314.455 339.809 309.228L338.113 323.536C327.142 324.767 305.948 324.749 293.397 323.837C289.19 323.532 285.953 323.125 284.399 322.632V306.265C288.182 306.265 291.479 305.985 294.713 306.319C298.777 306.742 302.833 307.241 306.888 307.745C311.457 308.313 316.025 308.89 320.602 309.38C322.669 309.6 324.814 309.152 326.918 308.957C337.418 307.988 347.9 306.607 358.424 306.142C367.146 305.757 375.916 306.446 386 306.691C382.837 305.656 380.88 304.488 378.908 304.46C367.994 304.299 356.938 303.344 346.196 304.716C333.524 306.334 320.948 306.112 308.308 306.05H308.151C305.824 306.038 303.5 305.634 300.375 305.336C301.062 298.096 299.298 291.296 301.772 284.25C310.22 284.25 318.432 284.452 326.623 284.203C326.898 284.195 327.173 284.196 327.447 284.186C336.063 283.892 344.663 283.089 353.967 282.463C354.452 286.009 354.625 288.658 355.22 291.209C355.73 293.385 353.884 296.737 358.01 297.44L356.493 280.614H375.556C367.718 279.132 360.022 278.371 352.188 280.119C345.761 281.552 339.035 282.401 332.461 282.304C331.057 282.283 329.654 282.27 328.25 282.263C308.49 282.158 288.733 283.219 268.945 281.183C252.14 279.453 235.145 279.543 218.234 278.815C215.734 278.707 213.236 278.545 210.736 278.407C210.744 278.098 210.75 277.789 210.756 277.481L222.92 276.756C215.531 275.474 208.262 274.289 200.86 275.514C195.826 276.347 190.703 276.771 185.602 277.061C172.352 277.818 159.089 278.4 145.831 279.051C144.922 279.096 143.985 279.006 143.109 279.196C129.615 282.136 115.937 280.181 102.353 280.645C100.635 280.703 98.865 279.282 97.505 278.709C94.636 279.684 91.616 280.713 88.376 281.815C90.602 282.384 92.548 282.885 94.389 283.355C95.94 293.442 93.234 303.36 96.27 312.88C96.673 302.968 95.585 293.009 97.788 282.334H148.055C149.93 290.041 149.857 306.72 147.676 313.855C142.767 313.855 137.629 313.818 132.493 313.866C127.191 313.915 121.888 313.99 116.589 314.159C111.484 314.321 106.329 314.241 101.295 314.959C96.285 315.671 91.228 312.536 86 314.654C86.464 315.632 86.573 316.099 86.705 316.104C96.248 316.586 105.792 317.031 115.337 317.48C114.361 328.748 114.549 330.211 118.242 337.363C118.018 334.123 116.966 330.94 116.988 327.766C117.011 324.293 118.025 320.829 118.72 316.696C141.9 317.749 164.339 313.612 186.82 315.524C189.28 321.971 185.9 328.774 190.392 334.385C190.052 328.289 189.714 322.192 189.322 315.181C207.76 314.838 225.272 315.465 242.496 311.839C212.359 313.031 182.236 314.099 151.592 313.13V280.931C158.412 280.751 164.724 280.734 171.018 280.381C177.332 280.027 183.628 279.375 189.928 278.787C195.015 278.311 200.092 277.716 205.18 277.241C205.615 277.2 206.1 277.663 206.568 277.896C206.086 278.451 205.628 278.979 205.539 279.079C209.341 288.951 208.749 298.995 211.494 308.543L209.749 281.148C227.217 278.996 243.487 282.292 260.709 283.194V306.305L262.194 306.265V284.257H298.198V304.029C292.29 304.443 287.09 303.652 281.736 303.073C276.288 302.483 270.602 304.078 265.02 304.715L265.037 305.655L281.771 306.259V324.269H261.868V324.268Z" fill="#BFBFBF"/>
<path opacity="0.4" fill-rule="evenodd" clip-rule="evenodd" d="M102.32 132.084V117.426H133.596C135.668 122.168 134.148 127.158 134.63 132.78C123.454 134.402 113.321 129.595 102.32 132.084ZM44.441 196.191C60.395 195.469 76.329 194.347 92.264 193.262C105.813 192.34 119.481 194.309 132.956 191.546C133.753 191.383 134.667 191.786 136.119 192.021L139.406 208C140.695 198.946 139.796 191.727 135.119 186.198V157.213H204.269C203.462 168.165 203.554 179.166 204.543 190.103C205.427 184.702 205.296 179.29 205.463 173.887C205.636 168.281 204.366 162.383 208.833 156.355L319 158.74C305.517 156.8 292.022 155.521 278.519 155.432C228.564 155.108 178.608 155.182 128.654 155.085C124.188 155.075 119.724 154.921 114.776 154.826C114.776 147.285 113.104 140.501 116.193 134.744L161.547 135.374V152.498C165.729 144.978 160.881 137.388 167.304 131.5C158.414 133.997 144.078 134.114 136.592 132.014C136.655 127.126 135.324 122.083 137.496 117.121C155.392 116.473 172.89 115.091 189.931 110.207C187.264 109.933 184.681 110.329 182.086 110.635C169.257 112.145 156.458 114.109 143.586 114.982C132.735 115.718 121.794 115.055 110.898 115.23C91.897 115.536 72.898 116.02 53.898 116.372C53.408 116.381 52.908 115.747 51.894 115.063L50.153 104.855L48.647 116.598H25.077C20.991 112.431 21.667 107.805 23.269 102.999C18.549 106.985 20.671 111.731 21.11 116.249C19.416 117.343 17.735 118.427 16 119.549L99.189 117.601C101.746 123.531 99.229 128.691 97.341 133.834H112.357C113.654 141.129 112.504 147.73 110.463 153.639C94.412 153.183 78.9 152.962 63.392 154.359C74.862 155.263 86.519 153.987 97.752 155.619C109.262 157.292 120.865 155.986 133.334 157.622L131.032 189.388C125.695 189.538 120.939 189.708 116.182 189.796C110.132 189.909 104.06 189.662 98.036 190.099C87.53 190.859 77.07 192.527 66.56 192.889C53.812 193.327 41.018 194.071 28.137 192.58L29.275 194.99C34.333 195.431 39.415 196.418 44.441 196.19V196.191ZM29.088 195.008L29 195C29.002 195.069 29.001 195.138 29.003 195.208C29.05 195.178 29.098 195.148 29.14 195.117L29.088 195.008ZM58.236 373.011L58.117 373C58.079 373.027 58.039 373.05 58 373.076L58.189 373.082C58.204 373.055 58.221 373.036 58.236 373.011ZM149.833 351.001C151.426 350.581 152.259 350.209 153.111 350.16C165.776 349.424 178.45 348.799 191.111 348.003C198.331 347.55 205.532 346.789 212.748 346.271C214.48 346.146 216.242 346.434 218.504 346.563V368.32C212.259 368.32 206.56 368.184 200.873 368.367C196.967 368.492 193.043 369.573 189.183 369.332C176.87 368.562 164.957 372.806 152.675 371.908C152.116 371.868 151.585 371.448 150.45 370.938C149.076 364.5 149.402 357.76 149.833 351.001ZM104.968 403.033H45C45.84 404.144 46.697 404.517 47.556 404.522C58.8 404.594 70.052 404.866 81.288 404.578C92.378 404.293 103.463 405.742 114.544 404.493C119.339 403.952 124.133 403.253 128.944 403.047C147.108 402.276 165.28 401.692 183.447 401.002C188.24 400.82 193.027 400.51 198.38 400.23C198.548 402.379 198.858 404.726 198.89 407.077C198.978 413.457 198.957 419.837 198.958 426.218C198.958 429.326 200.298 430.551 203.53 429.772C199.977 423.135 199.413 409.216 202.213 399.68L232.225 398.21L260 396.85C258.291 395.898 256.56 395.595 254.847 395.671C247.728 395.99 240.611 396.335 233.494 396.689C229.127 396.906 224.76 397.125 220.394 397.35C209.386 397.917 198.421 397.417 187.331 398.827C171.463 400.844 155.297 400.635 139.251 401.097C129.309 401.383 119.353 401.149 109.233 401.149C107.223 395.111 107.043 385.963 108.926 377.944C131.436 376.153 153.932 374.362 176.674 372.554C179.111 374.351 178.803 377.174 178.853 379.865C178.898 382.297 178.861 384.729 178.939 387.158C179.014 389.497 179.191 391.831 179.324 394.166L180.912 394.096V372.38C194.909 370.899 208.145 368.48 222.432 371.013C220.454 361.891 220.211 353.663 221.253 345.179C232.06 343.606 242.631 345.966 253.357 341.047C250.846 341.047 249.36 340.93 247.897 341.065C236.192 342.145 224.504 343.41 212.788 344.348C201.935 345.218 191.054 345.748 180.187 346.446C176.866 346.659 173.548 346.947 170.228 347.184C163.671 347.653 157.114 348.11 150.797 348.555L148.918 343.387L145.618 349.523C133.378 350 121.587 350.493 109.793 350.911C97.893 351.331 85.992 351.674 74.091 352.052L74.052 353.116L81.514 354.096C83.794 359.712 80.332 366.089 85.444 371.052C86.562 365.111 81.614 359.494 85.418 354.054L145.349 351.449C147.182 359.096 148.947 365.713 147.405 373.014C146.007 373.255 144.871 373.554 143.719 373.634C134.669 374.267 125.623 375.087 116.561 375.342C113.231 375.435 109.864 374.161 107.727 373.746C104.829 374.446 102.899 375.371 101.017 375.28C95.901 375.034 90.808 374.338 85.702 373.86C79.395 373.27 73.093 372.514 66.771 372.248C64.068 372.135 60.755 370.188 58.631 373.698C74.153 375.058 89.677 376.42 106.001 377.852C105.315 386.309 107.116 394.339 104.968 403.033ZM120.55 230.652H161.785V251.022C148.527 255.052 135.04 253.585 121.287 253.945C119.637 245.942 120.32 238.559 120.551 230.652H120.55ZM115.354 256.994C122.848 257.087 130.354 256.066 137.857 255.602C149.578 254.877 161.308 254.272 173.025 253.476C179.018 253.068 184.996 252.406 190.972 251.768C198.092 251.01 205.204 250.155 212.319 249.342C196.269 247.347 180.414 251.712 164.183 251.351C163.961 244.001 162.807 237.436 165.694 230.7H211.559C212.746 235.88 213.893 240.884 215.042 245.888L216.106 245.717L214.66 230.064H243C240.011 228.412 237.044 228.412 234.076 228.412C198.07 228.418 162.066 228.43 126.059 228.421C120.918 228.42 115.507 229.328 110.694 228.044C102.404 225.832 94.724 227.554 86.838 229.349C97.168 230.706 107.728 228.579 118.013 230.962V254.66L76.049 252.55L76 253.289C78.591 253.972 81.152 255.074 83.78 255.266C94.293 256.035 104.823 256.863 115.354 256.994ZM371.641 83.846C366.561 84.051 361.312 84.542 356.497 86.031C342.913 90.231 329.181 89.41 314.451 89.351V76C311.697 80.194 314.506 85.07 311.124 89.57H281L281.01 90.481L331.287 92.661V110C334.432 104.19 330.919 97.312 336.157 91.097C350.862 91.914 364.157 84.054 379.112 85.26C393.787 86.443 408.525 81.781 423.284 84.275V98.893C424.874 96.725 425.519 94.473 425.846 92.178C426.214 89.591 426.296 86.965 426.522 84.11L476 81.474C461.181 80.655 446.476 80.409 431.661 81.645C411.735 83.308 391.648 83.038 371.641 83.845V83.846ZM141.607 82.832H171.798C171.971 86.377 172.131 89.7 172.302 93.236C167.138 95.371 161.999 94.146 157.017 94.339C152.235 94.526 147.437 94.379 141.607 94.379V82.832ZM104 93.146C108.662 94.601 113.366 95.81 118.082 95.857C138.986 96.071 159.893 96.011 180.798 95.894C184.298 95.874 187.793 95.079 191.291 94.642L191.146 92.75C185.64 93.174 180.1 95.952 174.471 93.206V82.809L200.683 80.401L202.013 89.581L202.838 89.49L203.799 79.62C208.712 79.07 213.356 78.553 218 78.034C213.394 77.194 208.785 76.622 204.388 77.298C188.235 79.778 172.001 80.612 155.674 80.486C146.959 80.418 138.244 80.474 129.527 80.474C130.871 81.89 132.261 82.035 133.645 82.222C135.352 82.453 137.053 82.721 138.973 83.005V93.905C127.029 95.155 115.538 93.996 104 93.145V93.146Z" fill="#BFBFBF"/>
<path opacity="0.4" fill-rule="evenodd" clip-rule="evenodd" d="M27.598 195.895C26.631 204.37 27.025 212.811 27.47 221L62.584 219.156L64.733 214.591C76.399 214.001 88.157 213.146 99.928 212.88C114.823 212.543 129.729 212.74 144.63 212.57C147.378 212.538 150.682 213.34 153 209.188C132.098 212.121 111.95 210.51 91.41 210.681C91.106 205.771 90.856 201.744 90.608 197.718L89.622 197.693L88.648 211.109C84.041 211.109 80.115 210.951 76.208 211.153C72.102 211.365 68.099 214.003 63.856 211.62C62.9187 208.1 61.9814 204.58 61.044 201.06L59.806 201.156V216.442L29.735 218.876C28.241 210.686 28.987 202.808 28.792 195C28.317 195.29 27.637 195.559 27.598 195.895ZM406.039 64.552L406.789 78.978C407.119 78.985 407.449 78.994 407.778 79C408.068 74.142 408.36 69.282 408.652 64.414C414.697 63.626 420.013 62.706 425.369 62.282C435.857 61.452 446.376 60.987 456.869 60.199C462.852 59.749 468.839 59.173 474.769 58.284C488.157 56.278 501.575 54.856 515.14 54.991C516.05 55 516.958 54.994 517.868 54.999C523.245 55.027 528.623 55.002 534 55.002L533.768 53.603C532.596 53.518 531.425 53.425 530.253 53.349C526.683 53.117 523.123 53.019 519.565 53.002C499.621 52.91 479.845 55.785 459.985 57.167C453.397 57.627 446.798 58.097 440.255 58.95C425.039 60.934 409.775 61.976 394.431 62.385C384.278 62.656 374.144 63.605 364 64.251C377.9 67.764 391.82 62.434 406.039 64.551V64.552ZM270.78 45L274.324 43.1C272.082 41.965 270.832 40.269 270.864 37.687C270.926 32.81 270.882 27.934 270.882 23.683C282.598 23.683 293.471 23.58 304.34 23.711C315.42 23.846 326.397 20.493 337.727 22.608C338.468 25.953 334.445 29.404 338.531 32.528L340.601 22.79C344.101 20.624 347.319 20.443 351.196 20.999C356.151 21.709 361.339 21.164 366.404 20.834C369.662 20.621 372.898 19.594 375.752 21.301C377.672 24.799 375.182 29.261 380 32.637L377.593 18C374.011 18.281 371.01 18.633 368 18.735C348.666 19.391 329.332 19.991 309.998 20.613C308.484 20.663 306.938 20.573 305.465 20.839C293.782 22.956 282.109 22.636 270.431 20.859C268.436 27.67 268.504 37.665 270.779 45H270.78ZM474.535 106.858C478.021 107.073 481.508 107.116 485 106.71C482.122 105.8 479.224 105.072 476.312 104.678C475.144 104.517 473.969 104.415 472.791 104.374C462.813 104.062 452.825 104.145 442.841 104.027C429.557 103.868 416.381 104.344 403.294 107.355C396.601 108.895 389.57 109.073 382.671 109.42C379.474 109.58 376.225 108.675 373 108.252C382.373 113.83 392.237 110.005 401.445 109.956C404.501 114.509 400.778 120.003 405.34 125L406.327 109.01C418.637 107.022 430.013 104.443 442.573 106.387C442.573 110.745 442.393 114.717 442.65 118.659C442.77 120.501 443.6 122.295 444.17 124.107L446.672 106.442C456.012 104.48 465.272 106.288 474.535 106.858Z" fill="#BFBFBF"/>
<path opacity="0.4" fill-rule="evenodd" clip-rule="evenodd" d="M444.06 124L444 124.411H444.069C444.098 124.372 444.129 124.341 444.157 124.302C444.127 124.201 444.092 124.101 444.06 124ZM306.81 39.572C311.265 38.758 315.772 37.787 320.273 37.731C339.765 37.487 359.263 37.643 378.755 37.406C383.177 37.352 387.585 36.304 392 35.713C372.353 36.882 352.824 35.498 333.067 35.808C332.473 31.862 332.034 28.931 331.594 26L330.955 26.096L329.744 35.464C321.304 35.884 313.522 36.271 305.74 36.661C303.538 33.966 306.196 29.638 302.456 26.666V41.331C295.306 41.331 288.666 41.184 282.04 41.415C280.01 41.486 278.01 42.386 276 43H304.547C305.671 41.23 306.11 39.7 306.81 39.572ZM275.623 44H275.064C275.042 44.012 275.021 44.023 275 44.036C275.061 44.067 275.114 44.104 275.177 44.135C275.326 44.093 275.474 44.046 275.623 44ZM269.882 69.638C261.916 73.019 253.758 72.544 245.12 72.339V60.996C253.404 62.241 260.847 53.981 269.882 60.096V69.638ZM254.05 56.96C251.148 57.576 248.164 57.855 245.202 58.12C238.139 58.751 231.068 59.285 224 59.86L224.039 61.55H242.599V73.587L229.726 75C244.777 74.96 259.77 74.669 275 71.946C269.277 67.807 272.786 63.043 273.507 58.405C266.987 55.401 260.601 55.572 254.05 56.961V56.96ZM321.509 70.61C309.832 70.736 298.145 69.735 286.458 69.347C283.577 69.252 283.569 69.497 280 71.808C286.446 71.551 293.582 70.97 300.708 71.068C306.975 71.154 313.224 72.11 319.492 72.483C329.927 73.106 340.034 70.833 349.915 68.232C352.043 73.19 348.61 78.726 353 83V65C349.033 66.093 345.936 67.24 342.735 67.77C335.688 68.937 328.596 70.535 321.509 70.61ZM520.817 32.077V41.579C511.597 43.066 502.124 41.54 492.941 43.187C497.848 43.857 502.727 44.061 507.581 43.8C512.618 43.53 517.871 45.017 522.981 42.544C522.631 38.333 523.828 34.22 521.63 30.134C509.991 29.841 498.509 27.168 485 31.226C498.234 31.709 509.48 30.753 520.817 32.077ZM345.727 111.388C341.253 111.708 336.802 112.46 332.34 113.019L314 115.323C317.046 116.891 320.05 117.273 322.958 116.826C336.585 114.735 350.194 112.676 363.976 114.696C364.214 114.73 364.495 114.37 365 114.03C358.758 110.159 352.2 110.925 345.727 111.388ZM276.421 110.855C281.034 110.629 285.782 111.658 290 110.206L288.308 96L287.603 96.015L286.799 109.521H263C267.52 110.901 271.98 111.073 276.421 110.855ZM274.276 89.39C269.156 89.666 265.077 89.884 261 90.103L261.071 91H276V78.04L275.177 78L274.277 89.39H274.276ZM311 114L308.89 96C307.733 102.216 307.079 108.375 311 114ZM159 59.982C166.021 60.095 173 59.656 179.97 59.12C180.34 59.09 180.664 58.458 181 58C173.682 58.761 166.067 56.61 159 59.982Z" fill="#BFBFBF"/>
<path opacity="0.4" fill-rule="evenodd" clip-rule="evenodd" d="M180 58.156C180.079 58.148 180.158 58.144 180.237 58.135C180.252 58.108 180.263 58.08 180.278 58.053C180.226 58.036 180.174 58.016 180.122 58C180.079 58.0504 180.039 58.1024 180 58.156ZM360 94L362.003 110C363.156 104.463 364.124 98.943 360 94ZM65 437L62.885 421C61.633 426.106 61.223 431.038 65 437ZM439.373 65L438 77.711L439.455 78L441 65.267L439.373 65ZM16 65V47C13.33 53.956 13.337 59.156 16 65ZM562.502 24.65C568.125 24.37 573.749 24.232 579.344 23.771C584.646 23.333 589.92 22.555 596.086 21.823V38.141C584.765 38.712 574.074 42.114 562.502 39.901V24.65ZM598.829 23.129C609.259 20.199 619.609 20.15 630.785 20.685V38.523C620.059 39.354 609.718 38.651 598.829 38.669V23.13V23.129ZM543.452 67L544.38 58.434H573.445L573.399 56.667H557.329L556.686 43.039C566.21 42.646 574.942 43.137 583.356 41.729C594.53 39.859 605.889 39.387 616.696 41.021C628.689 42.834 640.094 39.717 651.781 40.2C653.654 40.277 655.589 38.873 657.496 38.153C653.5 37.723 649.731 38.434 645.933 38.667C641.815 38.918 637.671 38.724 633.251 38.724C632.445 31.549 632.421 25.399 635.816 18.828C646.462 18.828 657.456 17.656 668.094 19.101C671.406 19.551 674.707 19.844 678 20.025V1H594.304L594.306 2.546H675.785V17.366C635.214 15.099 595.637 21.189 554.764 22.802L559.964 25.268V39.426L554.449 42.152V56.407L542 57.455C542.175 61.143 542.315 64.061 542.455 66.977C542.787 66.985 543.12 66.994 543.452 67Z" fill="#BFBFBF"/>
<path opacity="0.4" fill-rule="evenodd" clip-rule="evenodd" d="M601.76 86.27L602.477 101.77C596.212 102.215 589.74 102.98 583.259 103.049C576.77 103.118 570.273 102.489 562.981 102.126V85.963C576.031 87.096 589.151 85.143 601.761 86.27H601.76ZM609.539 104.755C613.689 105.025 617.804 105.827 622.441 106.464V123.204C619.63 124.723 616.206 125.088 612.567 124.744C609.559 124.461 606.523 124.494 603.5 124.362C587.573 123.672 571.647 122.975 555.72 122.28V104.716C562.381 104.103 568.45 104.07 574.774 105.071C580.778 106.022 587.049 105.276 593.519 105.276C593.711 110.126 590.514 115.066 594.837 119.884L595.997 104.691C600.732 104.691 605.152 104.47 609.539 104.755ZM624.998 106.587C633.818 104.789 642.392 106.157 651.089 105.82L649.962 121.736L625.794 124.566C624.014 118.262 624.801 112.661 624.998 106.586V106.587ZM637.833 88.149C646.655 86.94 655.202 87.242 663.698 87.881C666.187 93.64 663.162 98.284 662.664 103.607H637.834V88.149H637.833ZM640.967 138.335H617.771V128.041C625.248 123.867 633.394 127.683 640.967 124.764V138.335ZM576.111 136.079C569.651 138.073 563.201 136.918 555.729 136.706V124.253H576.219C578.179 128.479 577.982 132.109 576.111 136.079ZM497.619 144.113L495.111 175.602L427.253 173.365C426.565 170.548 426.435 167.799 426.564 165.067C426.885 158.287 428.85 151.623 428.186 144.362C433.573 144.042 438.867 143.979 444.114 143.994C450.341 144.014 456.497 144.148 462.644 144.123C474.017 144.077 485.388 144.113 497.619 144.113ZM462.146 202.096H401.447C401.116 200.089 400.892 198.066 400.774 196.036C400.364 189.439 400.922 182.686 401.49 175.265C406.977 175.463 412.32 175.665 417.574 175.862C426.547 176.197 435.26 176.517 443.974 176.764C450.548 176.951 457.132 176.796 463.517 176.796C465.513 187.629 465.227 192.689 462.146 202.096ZM340.65 201.531L343.136 175.711H398.196C401.069 184.079 396.682 192.048 397.447 200.028L396.141 201.598C386.043 203.108 350.448 203.192 340.65 201.531ZM362.49 224.336L295.012 221.191L297.448 204.681C319.111 204.154 340.755 204.616 362.222 204.659C367.047 211.376 362.826 217.343 362.49 224.336ZM497.84 88.668V99.672L498.697 99.723L500.307 89.988C510.191 90.453 519.552 86.253 529.834 88.21L530.809 102.37L496.649 106.564C496.699 107.027 496.752 107.489 496.803 107.951L520.836 106.093L521.642 120.586C511.675 119.494 502.376 123.825 492.205 121.759L491.378 107.109L489.725 107.185V121.785C479.721 124.001 470.039 124.345 460.487 124.335C455.161 124.33 449.874 124.217 444.597 124.255C442.347 127.245 439.064 125.821 436.287 125.878C426.047 126.082 415.8 125.958 405.554 125.958C423.275 128.766 440.992 127.2 458.783 126.382C464.133 126.136 469.488 125.955 474.853 125.985V142.347C464.641 142.347 455.07 142.505 445.538 142.285C445.098 142.275 444.658 142.269 444.22 142.258C440.366 142.154 436.538 141.045 432.253 140.318L428.725 128.748V141.213H364.441C364.106 140.508 363.414 139.227 362.888 137.883C362.495 136.879 362.316 135.791 362.042 134.743C361.127 137.023 361.237 139.135 361.095 141.23C360.958 143.246 360.561 145.246 360.191 147.865C353.398 147.865 347.069 147.686 340.753 147.915C334.309 148.147 327.88 148.779 321.403 149.239L319.555 132.533C323.11 132.141 326.312 131.533 329.524 131.481C338.619 131.331 347.719 131.438 356.817 131.379C358.915 131.365 361.012 131.089 363.109 130.934L363.015 129.254H316.152L316.228 130.424C315.798 130.747 315.392 131.3 314.928 131.354C307.745 132.199 300.572 133.238 293.362 133.708C283.432 134.355 273.451 135.194 263.537 134.808C248.486 134.225 233.471 132.687 218.445 131.495C213.646 131.115 208.872 130.351 204.069 130.12C199.056 129.878 194.024 130.065 189 130.065C197.322 131.96 205.683 132.656 214.055 133.195C217.682 133.428 221.348 133.135 224.967 133.435C237.274 134.451 249.55 136.144 261.875 136.617C279.969 137.31 298.11 137.439 316.782 133.155L319.884 152.173C326.539 151.34 333.29 150.155 340.088 149.74C347.033 149.316 354.024 149.645 361.124 149.645L364.294 144.516C386.244 142.81 419.626 143.429 425.999 145.617L424.43 167.629L419.487 173.564C418.932 173.591 418.377 173.606 417.822 173.611C369.042 173.869 320.246 172.4 271.483 174.956C262.876 175.407 254.242 175.378 245.621 175.57C277.186 179.467 308.749 173.904 340.516 175.628C339.829 185.248 339.216 193.811 338.567 202.878H241.817L241.805 204.525H293.03C294.131 214.099 294.131 214.099 291.922 220.805C282.687 220.805 273.312 220.826 263.935 220.795C257.569 220.775 251.049 221.545 244.872 220.431C233.408 218.364 222.282 219.343 211.097 221.891C213.771 222.468 216.442 222.451 219.112 222.47C245.047 222.657 270.99 222.536 296.914 223.154C313.187 223.542 329.426 225.194 345.694 225.997C355.383 226.476 365.076 226.913 374.771 227.257C381.385 227.49 388.001 227.689 394.617 227.8C414.324 228.127 434.04 227.956 453.751 227.95C455.117 227.95 456.483 227.525 459.756 226.983C431.424 226.138 405.15 225.337 378.873 224.59C378.255 224.572 377.636 224.568 377.018 224.56C373.167 224.5 369.3 224.572 365.353 224.572C365.909 217.326 366.383 211.173 366.897 204.456C376.307 204.456 385.055 204.549 393.757 204.46C394.415 204.453 395.073 204.448 395.73 204.439C442.363 203.803 488.994 203.104 535.627 202.428C536.233 202.419 536.89 202.548 537.435 202.358C538.478 201.994 539.457 201.448 540.645 200.89C527.732 200.89 515.377 200.686 503.033 200.948C490.443 201.216 477.862 201.941 465.331 202.463C465.779 197.738 466.277 193.89 466.474 190.027C466.687 185.884 466.619 181.727 466.676 177.267H548.611L551.648 180.659C560.401 181.327 569.334 182.009 578.268 182.689C570.305 177.259 561.168 180.441 551.088 177.902C561.234 175.712 570.215 178.271 578.569 175.714L578.446 173.914C569.951 174.361 561.456 174.81 553.113 175.251L550.589 168.327L549.429 168.579L548.853 174.089C539.309 175.813 505.579 175.617 498.019 173.651C497.702 163.78 499.538 153.846 499.681 142.997C504.783 142.779 508.926 142.552 513.071 142.437C517.315 142.319 521.575 142.506 525.803 142.203C529.998 141.9 534.146 140.921 538.34 140.653C546.358 140.14 546.366 140.262 550.635 137.484C525.661 141.509 501.716 140.052 477.79 141.854V125.631L524.613 122.334C524.04 117.251 523.446 111.976 522.862 106.774C532.238 101.784 541.927 105.559 550.828 102.383H535.058C531.496 97.572 531.463 93.022 532.931 87.495L559.664 90.103L561.184 101.507L553.891 103.052C553.891 108.739 553.803 114.163 553.974 119.577C554.003 120.493 554.996 121.379 555.618 122.276L555.574 122.274L555.559 124.254H555.597C552.098 128.445 554.412 133.132 554.045 137.714L561.06 139.891C561.208 141.509 561.216 142.731 561.456 143.905C561.706 145.127 562.177 146.302 563.103 149.255C564.323 144.527 565.031 141.777 565.81 138.762L574.322 139.814C581.616 137.204 577.558 130.214 580.638 126.246C591.933 125.283 602.888 126.236 613.728 128.686C613.988 132.729 614.218 136.28 614.498 140.602C619.768 140.602 624.544 140.731 629.311 140.567C634.311 140.396 639.438 141.507 644.011 139.86C645.958 134.686 640.672 129.935 645.072 124.67H662.05C661.396 130.122 660.271 135.153 662.542 140.549C665.11 140.549 667.512 140.642 669.904 140.533C672.989 140.391 676.072 140.239 679.154 140.083V138.831C674.259 138.774 669.348 138.365 664.491 138.815C661.221 133.052 664.005 128.188 665.393 122.74L679.155 122.139V119.971C670.145 120.598 661.037 121.363 651.785 122.128L654.234 106.028C661.568 105.922 668.341 104.965 675.394 106.651V119.793C678.759 114.44 676.014 108.663 679.154 104.2C679.67 103.472 680.292 102.826 681 102.283L679.155 102.409L667.076 103.229V86.391L679.155 85.967V84.157C666.682 84.412 654.195 84.263 641.716 84.373C639.352 84.393 636.989 84.585 634.312 84.713C635.662 91.005 636.757 96.848 634.453 102.79C624.321 105.479 614.823 102.085 605.117 101.84V87.076C613.506 83.259 621.842 89.642 629.648 85.42C608.948 84.035 588.234 84.249 567.288 84.129V72.487L576.438 70.6L576.378 70H547.739C553.176 72.136 559.119 69.952 564.489 72.543C564.989 77.285 565.755 81.75 562.942 85.791C556.077 85.855 549.205 86.166 542.351 85.928C527.326 85.405 512.417 86.14 497.84 88.668ZM617.84 419.294C617.2 413.778 616.625 408.804 615.98 403.226H678.7V415.503L617.84 419.293V419.294ZM678.7 399.598C643.316 399.988 608.961 400.369 574.618 400.778C574.513 400.778 574.414 401.273 574.058 402.198C586.938 403.785 599.787 402.001 612.871 403.268C613.339 408.545 616.458 413.172 613.968 419.123C609.018 419.123 603.712 420.07 598.898 418.927C588.666 416.497 578.411 417.649 568.169 417.302C564.031 417.162 559.886 417.218 555.086 417.179C556.289 411.215 551.591 406.593 554.713 401.206L568.047 402.558C567.785 394.457 568.883 387.212 566.747 380C566.093 382.98 566.123 385.96 566.084 388.942C566.044 392.186 565.937 395.428 565.837 399.613C541.25 396.763 517.803 403.311 494 400.352C495.453 401.592 497.03 402.662 498.582 402.628C512.48 402.328 526.372 401.812 540.269 401.411C543.777 401.311 547.29 401.397 550.827 401.397L552.551 416.532L547.148 418.012C562.395 419.458 577.588 420.248 592.789 420.572C608.529 420.908 624.29 421.25 640.015 420.741C652.874 420.324 665.708 419.137 678.7 418.103C681.084 417.912 683.469 417.73 685.855 417.555V403.353L690 399.473L678.7 399.598ZM454.725 299.88C439.661 300.707 424.692 300.013 409.751 300.182C406.914 294.177 405.968 287.882 406.514 280.734C422.656 279.811 438.344 277.172 454.725 278.869V299.881V299.88ZM457.071 299.294C457.188 292.257 456.009 285.428 458.049 278.702C469.142 277.182 479.703 282.453 491.758 279.055C480.255 278.161 470.091 277.535 459.964 276.537C449.946 275.55 439.785 277.999 430.126 275.941V253.641C432.804 253.125 435.001 252.701 437.199 252.275C421.993 251.687 406.909 251.997 391.97 253.635C378.582 255.102 365.346 255.839 352.067 253.644C351.277 253.512 350.489 253.374 349.7 253.224C347.157 252.734 344.568 252.487 342 252.128C344.752 253.645 347.581 254.817 350.451 255.575C352.454 256.103 354.476 256.435 356.509 256.516C376.124 257.298 395.689 256.63 415.135 253.477C419.129 252.831 423.449 252.062 427.695 254.233C427.163 261.759 429.295 269.336 425.425 276.607L404.597 279.182C404.329 286.379 403.65 293.25 407.093 299.662C408.052 299.891 408.928 300.098 409.804 300.306C409.791 300.279 409.782 300.251 409.769 300.224C411.597 300.822 413.422 301.87 415.252 301.881C435.229 301.991 455.208 302.11 475.18 301.811C481.463 301.718 487.727 300.381 494 299.614C481.743 297.426 469.583 302.573 457.071 299.294ZM219.512 434.527C225.56 434.527 231.298 434.776 237.006 434.459C242.802 434.137 249.071 436.22 255 431.407C247.964 431.728 241.738 432.392 235.54 432.189C229.37 431.987 222.768 434.653 216.873 430C216.017 433.273 213.257 432.51 210.933 432.529C207.888 432.555 204.842 432.563 201.796 432.576C195.447 432.602 189.099 432.613 182.752 432.61C167.297 432.603 151.836 432.823 136.39 432.448C126.838 432.214 117.32 432.314 107.852 433.343C96.566 434.568 85.432 436.697 73.972 436.933C62.964 437.162 51.989 439.06 41 440.223L41.056 441.648L72.242 440.426C70.856 449.43 69.977 457.808 73.937 467C75.64 457.424 70.32 448.557 75.927 440.094C93.043 438.849 109.948 433.39 128.347 434.52L131.322 458.85C134.292 450.878 128.367 442.914 131.986 435.094C143.115 433.879 178.441 433.814 200.072 434.639C208.629 434.966 215.046 435.431 216.969 436.019V455.076C219.526 448.417 217.086 441.349 219.512 434.527ZM488 327.033L487.958 326H423.137C434.071 328.166 445.19 326.726 456.317 327.956C456.819 336.264 457.497 343.718 456.23 351.2C451.242 351.2 447.297 351.417 443.383 351.15C437.687 350.76 431.917 350.486 426.359 349.3C420.651 348.084 415.197 349.794 409.603 349.708C403.807 349.618 397.895 350.732 393.376 355.438C402.692 352.238 411.959 349.34 421.925 352.231C422.069 357.779 423.272 363.051 419.263 367.31C401.795 369.51 384.187 368.83 367 372.516C370.605 372.929 374.2 373.145 377.764 372.891C391.58 371.906 405.37 370.414 419.2 369.804C430.995 369.284 442.832 369.738 454.649 369.698C456.659 369.691 458.669 369.365 460.679 369.186L460.625 367.555H423.218L424.53 350.971C433.976 351.711 442.663 352.278 451.318 353.171C452.843 353.329 454.216 354.875 455.692 355.726C455.881 355.834 456.259 355.61 456.55 355.541L460.162 353.127C459.632 351.73 458.379 350.069 458.761 349.005C460.625 343.819 459.261 338.847 458.595 333.76C458.34 331.816 458.984 329.753 459.301 327.033H488ZM679 351.619C671.032 351.579 663.062 351.439 655.096 351.357C651.219 351.318 647.355 350.577 643.476 350.279C640.398 350.044 637.189 349.318 633 351.84C642.467 354.167 650.972 351.812 659.509 353.99V367.947L660.587 368L662.071 353.158C668.401 353.158 673.209 353.134 678.018 353.162L679 353.168V351.618V351.619ZM481 430.588C474.643 427.145 474.641 427.087 468.91 427.168C429.288 427.725 389.68 425.8 350.02 428.368C324.78 430.003 299.265 430.223 274.125 425.159C272.475 424.828 270.711 425.117 269 425.117C278.97 428.077 289.064 430.293 299.163 430.321C322.726 430.387 346.267 430.744 369.883 429.257C396.743 427.564 423.783 428.855 450.745 428.947C453.355 428.956 455.964 429.653 458.514 430.021C460.177 435.711 457.844 441.777 461.445 447V430.66C467.481 426.41 473.691 429.986 481 430.588ZM491 438.116C491.04 438.41 491.077 438.704 491.116 439C521.953 439 552.788 439.008 583.626 438.934C584.271 438.932 584.914 437.957 587 436.271H545.212V424.394C548.087 424.059 550.407 423.79 552.727 423.521C549.65 422.143 546.527 420.953 543.423 421.001C528.319 421.231 513.218 421.775 498.118 422.263C496.946 422.301 495.788 422.759 494.626 423.022C502.516 426.926 510.152 423.412 517.815 423.902C525.854 424.415 533.975 423.519 542.053 424.144V436.075C524.648 436.771 507.823 437.444 491 438.115V438.116ZM678 321C668.981 321.144 659.955 320.986 650.933 321.034C648.955 321.045 646.977 321.337 645 321.5L645.01 323.05H676.671C677.311 324.984 677.756 326.977 678 329V321ZM678 338C677.745 341.184 677.316 344.466 677 348C677.399 347.211 677.717 346.43 678 345.65V338ZM679 175.334V173C671.52 173.452 664.086 174.251 657 174.846V194.359L659.387 195L659.547 176.794C666.026 176.237 672.511 175.75 679 175.334ZM568 361.011C567.887 360.515 567.776 360.018 567.664 359.521L552.174 358.73C551.504 353.965 550.744 349.813 556.124 345.386C551.706 345.206 549.079 344.896 546.477 345.034C541.334 345.305 536.21 346.028 531.067 346.194C521.929 346.491 512.781 346.466 503.64 346.694C502.086 346.734 500.547 347.366 499 347.724C507.172 350.891 515.08 349.177 523.081 348.562C531.52 347.913 540.049 348.417 548.51 348.417V358.577L501.136 361.213C504.117 362.789 507.096 362.63 510.056 362.815C528.559 363.961 547.019 359.295 565.546 362.395C566.266 362.515 567.178 361.498 568 361.011ZM678 294C671.433 294.124 664.867 294.25 658.305 294.435C653.872 294.559 649.435 294.452 645 294.452L645.02 296H678V294ZM679 271.038L677.991 270.967C676.469 265.616 678.213 259.408 673.811 255C673.295 261.155 677.858 267.21 674.208 273.663C665.865 277.571 657.353 271.67 647 273.54C657.113 276.473 665.653 277.988 673.794 276.288C675.516 275.932 677.253 275.653 679 275.45V271.038ZM268 514.001L268.02 514.139C268.057 514.189 268.086 514.241 268.122 514.292L268.159 514L268 514.001ZM485 397.207H469.777C435.247 397.205 400.718 397.151 366.19 397.293C363.152 397.305 359.63 395.997 357 398.815L393.46 399.008V420.995L394.86 421L395.856 398.798H484.982L485 397.208V397.207ZM584.03 377.98C594.922 377.467 605.803 376.544 616.699 376.346C636.654 375.982 656.632 375.163 678 377.34C674.815 376.123 672.955 374.922 671.002 374.748C662.26 373.968 653.497 373.134 644.73 373.005C638.413 372.913 632.087 374.063 625.752 374.376C610.305 375.136 594.848 375.726 579.397 376.427C578.873 376.451 578.37 376.921 577 377.623C579.897 377.783 581.972 378.078 584.03 377.981V377.98ZM319.774 398.43C303.182 398.362 286.591 398.15 270 398C297.456 403.17 325.342 398.947 353.5 400.217C353.5 404.223 353.382 407.25 353.536 410.263C353.669 412.876 352.797 415.86 355.78 419C354.782 408.195 355.055 404.175 357 398.303C344.591 398.353 332.183 398.482 319.774 398.43ZM357 398.124L357.148 398.123C357.187 398.079 357.227 398.044 357.266 398.002L357.04 398L357 398.124ZM574.948 327C576.268 319.69 576.8 314.634 573.774 310.943C559.667 309.963 546.646 309.518 533.499 310.75C520.468 311.973 507.234 311.019 494.089 311.019L494 313.235H572.652L574.948 327ZM678 228.009C675.752 227.982 673.505 228.006 671.276 228.214C667.5 228.569 663.757 229.32 660 229.901C666.01 230.001 672.009 230.037 678 229.953V228.009ZM568.561 326H492C500.807 327.97 509.696 328.988 518.586 329C529.718 329.013 540.848 328.125 551.986 327.775C557.651 327.596 563.328 327.744 569 327.744L568.561 326ZM678 205.34C675.646 205.331 673.293 205.308 670.939 205.27C664.683 205.16 664.684 205.097 660 201C660.236 203.065 660.421 204.683 660.633 206.524L678 207V205.34Z" fill="#BFBFBF"/>
<path opacity="0.4" fill-rule="evenodd" clip-rule="evenodd" d="M592.164 164L593.324 150.775H622C620.899 148.17 618.46 149.205 616.565 149.194C599.735 149.092 582.903 149.069 566.072 149.084C564.054 149.086 562.036 149.454 560 149.655V162.253L560.904 162.305L561.876 151.07C571.75 150.61 581.037 150.548 590.995 151.17V163.965L592.164 164ZM659.265 195.192C659.222 195.137 659.176 195.084 659.129 195.033L659.002 195L659 195.191L659.265 195.192ZM660.023 195.977C666.015 195.967 672.027 196.073 678 195.897V195C671.65 195.417 665.32 195.367 659 195.349C659.34 195.611 659.683 195.979 660.023 195.977ZM569.347 275C576.074 273.921 582.786 272.678 589.536 271.81C596.092 270.968 602.686 270.064 609.27 270.013C615.843 269.961 622.423 270.933 629 271.459C608.72 264.381 588.911 269.867 569 272.926C569.115 273.617 569.23 274.308 569.347 275ZM611 57.817C614.317 57.817 617.723 58.277 620.937 57.738C635.112 55.364 649.387 56.877 663.604 56.423C666.071 56.345 668.535 56.17 671 56.04C650.772 55.724 630.525 53.03 611 57.817ZM552.613 12.9L553.933 3.574H580.445L581.221 15.162L582 15.098V1C575.258 1.307 568.723 1.606 562.041 1.912C558.491 2.074 554.901 2.237 551.213 2.407C551.213 4.531 551.269 7.431 551.197 10.328C551.153 12.113 549.997 13.855 550 15.945C550.001 17.155 550.387 18.482 551.61 20L552.613 12.9ZM447 249.336L447.031 250H498C492.74 247.285 487.813 248.084 483.153 248.194C474.523 248.399 465.911 248.981 457.285 249.315C453.866 249.447 450.429 249.336 447 249.336ZM580 235C596.666 233.492 613.334 231.985 630 230.476C618.26 228.908 589.886 231.422 580 235ZM634 309C618.557 309.972 603.116 310.94 587.676 311.938C587.476 311.951 587.224 312.275 587.129 312.508C587.022 312.768 587.067 313.091 587 314L633.93 310.713L634 309ZM527 223.936C516.327 221.602 505.617 223.786 495.54 218.818L494.842 208C494.517 208.004 494.192 208.01 493.868 208.015L493 222.585C498.876 223.055 504.4 223.672 509.938 223.888C515.618 224.108 521.313 223.936 527 223.936ZM584 325C590.303 327.157 612.176 327.66 631 326.065C615.447 325.007 599.685 326.432 584 325ZM613.86 253.467C620.242 253.304 626.65 253.807 634 254.051C626.16 251.148 610.16 251.206 595 255C601.285 254.461 607.56 253.627 613.86 253.467ZM673 255.002L673.015 255.024L673.034 255.045C673.035 255.03 673.034 255.015 673.036 255L673 255.002ZM664.958 253.481C658.751 253.658 652.562 254.216 646.368 254.636C645.241 254.712 644.122 254.873 643 254.994C644.617 255.736 646.389 256.077 648.166 255.987C656.449 255.59 664.723 255.097 673 254.637C670.905 251.899 667.632 253.405 664.958 253.481ZM502 81.768L501.995 81H479L479.005 81.768H502ZM450 457.98L450.871 458L451.717 450.612C456.763 450.38 460.882 450.19 465 450.002L464.963 449H450V457.98ZM464 246L461.804 228C460.723 233.775 460.149 239.493 464 246ZM460.524 354.142C460.395 354.094 460.267 354.051 460.138 354L460 354.091C460.007 354.108 460.016 354.125 460.022 354.142H460.524ZM482 354H461C466.978 355.294 472.732 355.372 482 354Z" fill="#BFBFBF"/>
<path opacity="0.4" fill-rule="evenodd" clip-rule="evenodd" d="M622.797 154.737C622.611 153.365 621.051 152.227 620 151L621.974 165C622.939 161.488 623.247 158.048 622.797 154.737Z" fill="#BFBFBF"/>
<path opacity="0.4" fill-rule="evenodd" clip-rule="evenodd" d="M620.236 151.312L620.187 151H620C620.017 151.042 620.037 151.078 620.054 151.122C620.11 151.186 620.175 151.249 620.236 151.312ZM659 236L661.166 250C662.79 244.986 662.03 240.318 659 236Z" fill="#BFBFBF"/>
</g>
<path d="M689.994 319.095C690.009 319.006 689.995 318.914 689.953 318.834C689.91 318.754 689.843 318.69 689.761 318.652L682.186 304.086C682.229 304.014 682.252 303.933 682.255 303.85C682.257 303.767 682.238 303.684 682.2 303.61C682.162 303.536 682.106 303.473 682.036 303.427C681.967 303.381 681.887 303.353 681.804 303.347C662.342 301.931 642.584 302.063 623.051 302.126C603.519 302.188 583.846 302.296 564.337 303.549H564.073C564.003 303.587 563.942 303.642 563.898 303.708C563.853 303.775 563.825 303.851 563.816 303.931C563.099 310.155 562.765 316.38 562.461 322.604C562.211 327.693 561.807 332.89 561.885 338.01C553.735 337.9 545.537 338.329 537.378 338.437C527.564 338.562 517.747 338.697 507.928 338.842L490.801 339.083C490.442 338.219 490.094 337.35 489.757 336.477C490.863 333.419 491.902 330.337 492.871 327.233C493.043 326.704 493.206 326.168 493.37 325.631C495.296 319.366 496.963 313.025 498.368 306.623C498.477 306.148 498.578 305.681 498.678 305.207C498.928 304.055 499.169 302.873 499.403 301.737C499.512 301.215 499.613 300.687 499.723 300.18C501.501 291.013 502.8 281.76 503.615 272.458C503.615 272.038 503.692 271.626 503.724 271.213C503.942 268.56 504.128 265.907 504.269 263.253V262.709C504.829 252.205 504.814 241.677 504.222 231.175C504.222 230.669 504.175 230.163 504.136 229.619C503.537 219.662 502.435 209.742 500.836 199.897C500.79 199.524 500.73 199.152 500.656 198.784C500.51 197.858 500.351 196.935 500.181 196.014C500.083 195.411 499.977 194.809 499.862 194.209C499.714 193.361 499.559 192.521 499.395 191.681C498.087 184.826 496.569 177.979 494.725 171.21L494.374 169.887C492.438 162.684 490.115 155.591 487.414 148.639C487.466 148.512 487.466 148.369 487.414 148.242C487.624 146.639 487.842 145.036 488.076 143.442C488.13 143.383 488.168 143.31 488.185 143.232C489.742 135.661 491.727 128.129 494.895 121.056C496.034 118.478 497.307 115.961 498.71 113.517L513.455 132.704C514.187 137.621 516.506 142.282 520.352 145.207C523.526 147.531 527.245 149.001 531.151 149.473C535.057 149.946 539.019 149.407 542.656 147.907C550.223 144.725 555.314 137.209 556.669 129.234C558.031 121.454 555.486 114.015 551.414 107.448L555.727 107.822C557.927 109.501 560.605 110.436 563.372 110.49C570.3 110.74 578.218 107.153 581.145 100.578C582.306 97.9919 582.543 95.0853 581.815 92.3457L587.568 88.8447C588.56 90.7175 590.105 92.2395 591.992 93.2041C593.879 94.1688 596.017 94.5293 598.116 94.2367C603.013 93.4587 605.395 88.7907 604.258 84.1217C604.103 83.507 603.892 82.9079 603.628 82.3317L613.429 81.8417C615.066 83.2049 617.089 84.0214 619.213 84.1767H619.276C621.781 84.3567 624.284 83.7907 626.469 82.5507C631.591 79.6787 635.032 73.5477 633.911 67.6347C632.821 61.8697 627.683 58.1347 622.304 56.5707C619.544 55.7767 616.669 55.4585 613.803 55.6297L612.915 53.4197C612.973 53.3437 613.004 53.2508 613.004 53.1552C613.004 53.0596 612.973 52.9667 612.915 52.8907L621.167 23.9857L621.292 23.9007C621.376 23.8052 621.423 23.6834 621.426 23.5565C621.43 23.4296 621.388 23.3055 621.31 23.2058C621.231 23.1061 621.12 23.037 620.996 23.0105C620.872 22.984 620.742 23.0018 620.63 23.0607C547.872 61.5967 473.783 97.5277 398.214 130.238C376.704 139.574 354.938 148.258 333.42 157.548C333.342 157.574 333.278 157.63 333.24 157.703C297.648 176.719 261.939 195.337 225.155 211.996C206.343 220.507 187.343 228.596 168.169 236.256C159.185 239.858 150.131 243.258 141.163 246.923C134.523 249.623 127.306 252.369 121.155 256.368C120.98 256.474 120.809 256.586 120.642 256.703C119.576 257.404 118.537 258.147 117.528 258.928C112.608 262.818 109.042 270.793 115.138 275.462C119.645 278.908 125.873 277.625 131.167 275.866C129.828 276.949 128.587 278.149 127.461 279.453C123.382 284.215 120.984 290.143 119.497 296.173C116.78 307.23 115.831 320.527 121.895 330.688C128.123 341.114 140.478 343.768 151.797 343.814C164.494 343.868 178.725 341.379 186.899 330.672C200.912 312.357 181.785 291.591 162.478 289.039L162.517 288.969C164.672 289.251 166.855 289.251 169.01 288.969C173.735 288.354 178.686 285.499 177.791 280.021C177.514 278.453 176.865 276.975 175.899 275.711L183.918 276.629C185.351 277.076 186.899 276.968 188.256 276.327C189.613 275.685 190.679 274.557 191.243 273.166C191.737 271.817 191.904 270.371 191.731 268.946C191.558 267.521 191.049 266.157 190.247 264.966L197.619 265.346C199.207 267.365 201.508 268.702 204.049 269.082C209.016 269.821 214.552 267.183 217.649 263.332C218.094 262.777 218.483 262.181 218.809 261.55C219.043 262.281 219.3 263.013 219.589 263.744C225.497 277.904 246.299 282.612 259.377 275.983C268.836 271.19 272.09 265.09 272.807 263.363C272.542 264.297 272.329 265.245 272.168 266.203C272.028 266.981 271.88 267.759 271.748 268.583C271.483 270.011 271.223 271.44 270.969 272.871C270.907 273.221 270.845 273.571 270.79 273.921C269.234 283.058 267.861 292.226 266.672 301.418C266.625 301.83 266.571 302.196 266.516 302.647C266.399 303.573 266.283 304.507 266.174 305.432L265.987 306.918C265.597 310.124 265.232 313.33 264.889 316.535C264.352 321.538 263.877 326.565 263.534 331.606L263.464 332.618C263.231 336.248 263.08 339.866 263.013 343.471V345.028C263.013 348.716 263.013 352.396 263.262 356.076C263.418 358.9 263.667 361.725 263.986 364.533C264.033 365 264.087 365.475 264.149 365.942C264.429 368.255 264.754 370.563 265.123 372.866L265.379 374.423C266.469 380.927 267.879 387.385 269.443 393.788C271.366 401.654 273.164 411.147 278.863 417.262C278.468 418.935 278.081 420.611 277.703 422.289C266.7 422.289 255.7 422.33 244.703 422.413C244.603 422.417 244.506 422.45 244.424 422.507C244.342 422.565 244.279 422.645 244.241 422.738C244.203 422.83 244.193 422.932 244.211 423.03C244.23 423.129 244.276 423.22 244.345 423.293C245.053 433.337 247.342 443.21 248.416 453.216C235.532 451.17 221.683 451.66 208.713 452.01C196.008 452.314 183.023 452.788 170.411 454.617L169.352 454.78L168.309 454.936C168.211 454.968 168.127 455.034 168.072 455.122C168.018 455.209 167.995 455.313 168.009 455.416C168.023 455.518 168.072 455.613 168.148 455.682C168.225 455.752 168.323 455.794 168.426 455.799L169.43 455.729C170.192 464.101 170.108 472.529 169.18 480.884C168.156 489.292 168.049 497.786 168.862 506.217C126.612 506.015 84.348 506.552 42.092 507.065H40.535L34.719 507.135L29.114 507.198C28.9267 507.24 28.7528 507.328 28.608 507.455L28.522 507.408L26 528.937C26.039 529.247 26.623 529.536 27.557 529.536H28.017C59.628 529.084 91.251 528.966 122.884 529.178C143.047 529.326 163.256 530.205 183.412 529.956C183.508 529.956 183.603 529.931 183.686 529.884C183.77 529.837 183.841 529.769 183.891 529.687C183.941 529.605 183.969 529.512 183.972 529.415C183.975 529.319 183.954 529.224 183.91 529.139C183.131 519.802 182.236 510.551 182.05 501.183C181.863 491.816 182.322 482.347 182.633 472.917C182.636 472.885 182.636 472.854 182.633 472.823L182.96 472.279C210.706 472.014 238.467 470.847 266.205 470.092C266.303 470.088 266.398 470.06 266.482 470.009C266.566 469.959 266.636 469.888 266.686 469.804C266.735 469.719 266.763 469.624 266.766 469.526C266.769 469.428 266.747 469.331 266.703 469.244C267.1 464.272 266.532 459.059 266.563 454.072C266.563 448.929 266.757 443.794 266.913 438.659C286.998 437.492 307.083 436.519 327.208 436.169C348.523 435.796 369.783 436.659 391.083 436.714C391.231 436.714 391.372 436.655 391.477 436.551C391.581 436.446 391.639 436.305 391.639 436.157C391.639 436.01 391.581 435.868 391.477 435.764C391.372 435.659 391.231 435.601 391.083 435.601L389.526 435.508C389.308 423.51 387.72 411.209 386.459 399.281C399.265 399.281 412.079 398.978 424.885 398.831C438.385 398.675 451.945 398.831 465.429 398.184C465.523 398.178 465.614 398.148 465.692 398.095C465.77 398.042 465.832 397.969 465.872 397.884C465.912 397.799 465.928 397.704 465.919 397.611C465.91 397.517 465.875 397.427 465.819 397.352C465.399 390.287 464.262 383.285 463.888 376.197C463.553 369.381 463.678 362.597 463.686 355.78C483.031 356.45 502.564 355.321 521.909 354.823C541.457 354.325 561.059 354.356 580.592 353.54C580.699 353.537 580.801 353.495 580.88 353.423C580.946 353.47 581.023 353.499 581.104 353.506C581.185 353.514 581.267 353.499 581.34 353.464C581.413 353.429 581.476 353.375 581.521 353.307C581.566 353.239 581.592 353.161 581.596 353.08C582.149 347.16 581.986 341.13 582.282 335.185C582.562 329.498 583.06 323.818 583.356 318.13C600.125 318.908 616.948 319.095 633.724 319.305C652.244 319.538 671.022 320.255 689.519 319.188C689.619 319.186 689.716 319.149 689.79 319.082C689.865 319.014 689.912 318.922 689.924 318.823L689.994 319.095ZM181.053 298.695L178.04 296.422C179.082 297.124 180.086 297.882 181.045 298.694H181.053V298.695ZM172.357 293.287L167.842 291.591C169.377 292.065 170.882 292.631 172.349 293.287H172.357ZM190.652 270.809L190.216 267.697C190.581 268.691 190.727 269.753 190.644 270.809H190.652ZM180.842 487.809V487.669C180.842 487.723 180.842 487.762 180.835 487.809H180.843H180.842ZM487.454 339.2C474.904 339.387 462.353 339.594 449.798 339.822C449.764 339.818 449.731 339.818 449.697 339.822C449.638 339.826 449.58 339.841 449.527 339.868C449.474 339.894 449.427 339.931 449.389 339.976C449.35 340.021 449.321 340.073 449.303 340.13C449.285 340.186 449.279 340.246 449.284 340.305C449.58 347.867 449.557 355.407 449.44 362.97C449.331 369.972 448.864 377.262 449.837 384.234H449.557C449.542 384.133 449.489 384.041 449.41 383.977C449.331 383.912 449.231 383.879 449.129 383.884C436.073 383.954 423.002 384.553 409.955 384.926C396.907 385.3 383.813 385.416 370.781 386.195C370.715 386.198 370.651 386.216 370.594 386.249C370.538 386.233 370.48 386.229 370.423 386.238C370.366 386.247 370.312 386.269 370.264 386.302C370.216 386.334 370.176 386.377 370.147 386.427C370.118 386.477 370.101 386.533 370.096 386.591C369.23 398.521 369.753 410.51 371.653 422.32C351.638 421.83 331.529 422.39 311.53 422.413H290.176L284.726 420.383L280.514 417.153C282.536 410.08 284.405 402.964 286.12 395.811C286.283 395.15 286.447 394.481 286.594 393.811C287.353 390.612 288.072 387.404 288.751 384.187C288.883 383.611 289 383.036 289.117 382.46C290.915 373.905 292.472 365.302 293.787 356.66C293.873 356.115 293.959 355.578 294.029 355.041C294.091 354.629 294.154 354.209 294.209 353.796L294.395 352.505C294.592 351.109 294.779 349.717 294.955 348.327C296.095 339.607 296.782 330.834 297.011 322.044V321.834V320.612C297.246 309.223 296.464 297.837 294.675 286.588C294.613 286.183 294.551 285.81 294.481 285.374C294.012 282.612 293.478 279.862 292.877 277.127C291.475 270.651 289.655 264.273 287.427 258.033C287.287 257.636 287.147 257.255 286.992 256.858C285.012 251.493 282.617 246.291 279.829 241.298C279.831 241.193 279.802 241.09 279.744 241.002C279.471 240.566 279.184 240.146 278.887 239.726H311.14C311.413 239.99 311.685 240.255 311.981 240.504C318.544 246.082 328.267 247.327 336.192 244.168C344.81 240.729 351.101 232.723 353.763 223.993C355.693 217.653 355.701 210.657 353.117 204.729C356.262 205.297 359.502 205.009 362.497 203.896C366.982 202.246 370.789 198.753 372.097 194.233L377.663 190.093C377.803 190.21 377.935 190.335 378.083 190.451C381.976 193.416 387.043 192.575 390.204 189.011C391.353 187.696 392.154 186.114 392.532 184.409C392.91 182.704 392.854 180.932 392.369 179.255L399.959 177.489C400.133 177.794 400.323 178.09 400.527 178.376C407.386 187.821 422.372 182.997 424.957 172.494C425.321 171.053 425.473 169.566 425.408 168.082C432.118 180.586 452.515 185.915 464.488 178.874C466.803 177.523 468.784 175.667 470.281 173.444C471.779 171.221 472.756 168.689 473.138 166.036L484.815 159.656C484.161 165.296 483.608 170.961 482.767 176.579C482.682 177.201 482.581 177.823 482.479 178.446C482.379 179.068 482.254 179.823 482.129 180.516L481.405 184.554L481.148 185.931C479.545 194.731 477.886 203.515 476.672 212.385C476.562 213.163 476.462 213.902 476.368 214.665C476.364 214.703 476.364 214.742 476.368 214.781C476.298 215.302 476.228 215.831 476.174 216.337C475.987 217.823 475.819 219.312 475.668 220.803C474.936 228.047 474.608 235.314 474.562 242.589V251.389C474.632 255.217 474.765 259.037 474.928 262.865C475.208 269.401 475.621 275.944 476.244 282.465C476.298 283.001 476.344 283.538 476.407 284.075C476.469 284.612 476.493 284.954 476.54 285.39C476.586 285.825 476.633 286.316 476.687 286.775C477.209 291.521 477.847 296.244 478.641 300.951C479.373 305.285 480.198 309.611 481.241 313.898C481.374 314.458 481.514 315.018 481.654 315.578C481.919 316.668 482.199 317.757 482.495 318.838C482.697 319.616 482.908 320.394 483.133 321.172C484.594 326.42 486.343 331.584 488.373 336.64C488.046 337.558 487.758 338.383 487.454 339.231V339.2Z" fill="white"/>
<path d="M183.549 529.97C163.38 530.162 143.157 529.384 122.981 529.28C91.3374 529.073 59.6925 529.178 28.051 529.596H27.591C25.636 529.596 25.254 528.557 27.747 528.419C43.987 528.203 60.232 528.072 76.482 528.026C94.259 527.966 112.036 528.008 129.812 528.15C147.73 528.288 165.686 528.094 183.564 528.977C183.824 529.035 184.004 529.243 184 529.479C183.996 529.715 183.81 529.919 183.549 529.969V529.97ZM182.512 471.98C210.147 471.743 237.798 470.701 265.426 470.028C265.743 470.028 266 469.798 266 469.514C266 469.23 265.743 469 265.426 469C237.798 469.694 210.124 469.965 182.512 471.083C182.229 471.083 182 471.288 182 471.542C182 471.795 182.23 472 182.512 472V471.98ZM263.538 438C284.831 436.833 306.123 435.826 327.471 435.493C348.818 435.16 370.111 435.949 391.443 436C391.75 436 392 435.768 392 435.482C392 435.196 391.75 434.964 391.443 434.964C370.243 433.602 348.709 433.986 327.471 434.305C306.233 434.624 284.807 435.377 263.538 436.956C262.828 437.006 262.813 438.036 263.538 437.999V438ZM384.459 399C397.964 399 411.476 398.718 424.973 398.573C438.47 398.428 452.013 398.573 465.487 397.973C465.77 397.973 466 397.757 466 397.493C466 397.23 465.77 397.017 465.487 397.017C451.99 396.908 438.47 397.356 424.973 397.493C411.476 397.632 397.948 397.61 384.459 398.146C384.205 398.146 384 398.337 384 398.573C384 398.809 384.205 399 384.459 399ZM463.466 355.746C482.89 356.553 502.579 355.231 522.034 354.672C541.489 354.114 561.107 354.14 580.601 353.209C580.829 353.175 581 352.953 581 352.69C581 352.427 580.83 352.205 580.601 352.171C561.123 351.576 541.504 352.676 522.034 353.234C502.563 353.794 482.937 353.545 463.466 354.69C463.209 354.69 463 354.927 463 355.221C463 355.515 463.209 355.754 463.466 355.754V355.746ZM577.532 318.078C596.169 319.133 614.9 319.306 633.568 319.543C652.237 319.779 671.038 320.502 689.62 319.424C689.725 319.41 689.822 319.358 689.892 319.277C689.962 319.197 690 319.094 690 318.988C690 318.881 689.962 318.778 689.892 318.698C689.822 318.617 689.725 318.565 689.62 318.551C670.983 317.881 652.229 318.598 633.568 318.354C614.908 318.11 596.216 317.331 577.532 317C577.39 317 577.255 317.057 577.155 317.157C577.056 317.257 577 317.393 577 317.535C577 317.831 577.238 318.071 577.532 318.071V318.078ZM377.713 423.42C355.563 424.504 333.274 423.727 311.117 423.775C300.166 423.775 289.209 423.797 278.247 423.842H244.513C244.23 423.842 244 423.559 244 423.209C244 422.859 244.23 422.576 244.513 422.576C255.496 422.486 266.481 422.435 277.469 422.422H278.604L311.117 422.365C333.274 422.365 355.564 421.472 377.713 422.48C377.883 422.54 378 422.732 378 422.95C378 423.168 377.883 423.36 377.713 423.42ZM370.293 387C383.332 387 396.386 386.414 409.417 386.053C422.448 385.692 435.518 385.541 448.541 384.887C448.6 384.888 448.659 384.877 448.714 384.855C448.769 384.834 448.82 384.801 448.862 384.76C448.905 384.719 448.939 384.67 448.963 384.616C448.986 384.561 448.999 384.503 449 384.444C448.999 384.384 448.986 384.326 448.963 384.271C448.939 384.217 448.905 384.168 448.863 384.126C448.82 384.085 448.77 384.053 448.714 384.031C448.659 384.009 448.6 383.998 448.541 384C435.503 384.068 422.448 384.647 409.417 385.008C396.387 385.368 383.309 385.481 370.293 386.233C370.21 386.254 370.136 386.303 370.083 386.371C370.03 386.439 370.001 386.522 370 386.609C370 386.784 370.12 386.937 370.293 386.984V387ZM565.59 339.085C564.603 339.162 563.616 339.221 562.62 339.273L561.462 339.342C553.057 339.746 544.574 339.532 536.177 339.686C526.629 339.858 517.083 340.021 507.54 340.176L490.878 340.459H486.648C474.244 340.665 461.842 340.845 449.443 341C449.19 340.965 449 340.728 449 340.446C449 340.164 449.19 339.926 449.443 339.892C461.977 339.634 474.513 339.404 487.053 339.204H490.373L507.478 338.939C517.28 338.784 527.085 338.635 536.892 338.492C545.017 338.372 553.22 337.899 561.369 338.019H562.621C563.592 338.019 564.557 338.071 565.528 338.114C565.771 338.094 565.982 338.297 565.998 338.564C566.016 338.833 565.833 339.066 565.591 339.084L565.59 339.085ZM248.553 454.448C241.82 454.388 235.063 453.581 228.314 453.406C221.694 453.234 215.074 453.234 208.454 453.406C195.746 453.718 183.169 455.018 170.531 455.855L169.416 455.932L168.418 456C168.316 455.995 168.219 455.955 168.143 455.887C168.068 455.818 168.019 455.725 168.004 455.625C167.991 455.524 168.013 455.421 168.067 455.335C168.122 455.249 168.205 455.185 168.302 455.155L169.339 455.004L170.391 454.844C182.937 453.064 195.839 452.562 208.47 452.296C221.627 451.984 235.667 451.451 248.715 453.589C249.18 453.665 249.04 454.456 248.553 454.449V454.448Z" fill="#777777"/>
<path d="M244 422.374C244.648 432.804 246.944 443.061 247.938 453.459C248.004 454.173 249.057 454.189 248.998 453.459C248.092 443.037 245.988 432.756 244.736 422.374C244.677 421.887 244 421.864 244 422.374ZM265.958 438.434C265.293 443.801 265.192 449.216 265.146 454.599C265.146 459.496 264.602 464.785 265.616 469.651C265.736 470.223 266.677 470.027 266.732 469.526C267.249 464.441 266.548 459.089 266.585 453.972C266.622 448.855 266.815 443.613 267 438.426C267 437.846 266.031 437.87 265.958 438.426V438.434ZM385.024 399.484C385.778 411.78 386.321 424.499 388.17 436.687C388.245 437.179 389.007 437.054 389 436.569C388.834 424.296 387.25 411.694 385.982 399.484C385.914 398.851 384.963 398.827 385.002 399.484H385.024ZM369.427 386.394C368.516 398.506 369.063 410.684 371.055 422.667C371.145 423.187 372.016 423.061 372 422.541C371.813 416.524 370.958 410.508 370.624 404.483C370.29 398.459 370.355 392.427 370.234 386.394C370.233 386.341 370.222 386.289 370.201 386.24C370.18 386.192 370.15 386.148 370.112 386.112C370.074 386.075 370.029 386.046 369.98 386.027C369.931 386.008 369.879 385.999 369.826 386C369.773 385.999 369.721 386.008 369.672 386.027C369.623 386.047 369.579 386.076 369.541 386.112C369.503 386.149 369.473 386.192 369.452 386.241C369.431 386.289 369.42 386.341 369.419 386.394H369.427ZM449.07 339.488C449.463 347.098 449.432 354.683 449.276 362.291C449.131 369.337 448.51 376.671 449.804 383.685C449.897 384.186 450.933 384.045 450.944 383.568C451.16 376.233 450.674 368.875 450.829 361.532C450.984 354.189 451.202 346.823 450.446 339.496C450.374 338.846 449.048 338.823 449.079 339.496L449.069 339.488H449.07ZM462.424 354.296C461.906 361.778 461.862 369.286 462.294 376.774C462.616 383.716 462.897 390.987 464.315 397.764C464.383 397.928 464.536 398.021 464.693 397.996C464.849 397.971 464.973 397.833 465 397.655C464.644 390.431 463.596 383.27 463.28 376.03C462.966 368.79 463.11 361.55 463.103 354.296C463.059 354.121 462.919 354 462.76 354C462.601 354 462.461 354.12 462.418 354.296H462.424ZM565 303.468C564.659 309.74 564.116 316.012 563.792 322.284C563.525 327.444 563.59 332.665 563.282 337.832C563.282 338.2 563.242 338.569 563.217 338.937L562.01 339V337.808C561.93 332.649 562.35 327.412 562.61 322.284C562.926 316.012 563.274 309.74 564.02 303.468C564.06 302.856 565.032 302.832 565 303.468ZM582.006 317.51C580.637 329.212 579.484 341.776 580.24 353.549C580.24 353.799 580.444 354 580.697 354C580.757 354 580.816 353.989 580.871 353.966C580.926 353.944 580.976 353.911 581.019 353.869C581.061 353.827 581.095 353.777 581.118 353.722C581.141 353.667 581.154 353.608 581.154 353.549C581.719 347.58 581.552 341.502 581.854 335.509C582.157 329.518 582.65 323.509 583 317.471C583 316.828 582.077 316.859 582.006 317.471V317.51Z" fill="#777777"/>
<path d="M564.406 304C583.939 303.792 603.456 303.07 622.996 303.018C642.536 302.966 662.054 303.668 681.586 303.838C681.823 303.812 682 303.643 682 303.444C682 303.244 681.823 303.076 681.587 303.05C662.178 301.866 642.475 301.977 622.997 302.029C603.517 302.081 583.877 302.172 564.406 303.226C564.174 303.251 564 303.416 564 303.613C564 303.809 564.174 303.975 564.406 304ZM170.186 479.756C169.09 488.762 169.717 497.612 169.463 506.634C169.448 506.736 169.397 506.829 169.319 506.897C169.241 506.964 169.141 507.001 169.038 507C168.935 507.001 168.835 506.964 168.757 506.897C168.679 506.829 168.628 506.736 168.613 506.634C167.713 497.933 167.804 489.159 168.883 480.478C169.829 472.054 169.914 463.555 169.137 455.114C169.137 454.8 169.09 454.479 169.057 454.164L170.138 454C170.186 454.345 170.234 454.683 170.273 455.02C171.27 463.237 171.241 471.546 170.186 479.756ZM181.041 472.432C179.361 491.156 179.715 510.007 182.097 528.655C182.171 528.887 182.381 529.029 182.599 528.995C182.819 528.961 182.986 528.761 183 528.516C182.305 519.173 181.493 509.891 181.32 500.509C181.145 491.127 181.562 481.799 181.84 472.432C181.84 471.845 181.09 471.868 181.034 472.432H181.041Z" fill="#777777"/>
<path d="M173.424 507.114C155.886 507.446 138.331 507.391 120.784 507.488L61.598 507.834H59.733L40.297 507.952H38.742L30.905 508C28.13 508 27.321 507.246 28.573 506.914L34.171 506.858L39.978 506.796H41.533C85.489 506.326 129.453 505.821 173.393 506.063C173.72 506.055 173.991 506.284 174 506.575C174.008 506.865 173.75 507.107 173.424 507.115V507.114Z" fill="#777777"/>
<path d="M42 507C41.537 507.42 41.098 507.856 40.675 508.3C37.424 511.707 35.107 515.557 32.88 519.774C32.8196 519.87 32.7269 519.943 32.6183 519.977C32.5097 520.012 32.3923 520.007 32.287 519.964C32.1829 519.924 32.0976 519.846 32.0479 519.746C31.9983 519.646 31.988 519.531 32.019 519.424C33.416 515.246 35.819 511.441 39.033 508.314C39.456 507.871 39.895 507.436 40.35 507.016L42 507ZM47.027 509.206C45.074 513.453 42.141 516.644 39.104 520.196C38.799 520.559 39.217 521.253 39.691 520.906C43.539 518.16 46.191 513.709 47.991 509.59C48.0119 509.475 47.9917 509.357 47.9338 509.257C47.876 509.156 47.7843 509.079 47.675 509.039C47.5639 508.994 47.4413 508.987 47.3258 509.018C47.2103 509.05 47.1082 509.118 47.035 509.213L47.027 509.206ZM62.25 507.066C56.198 511.006 50.715 516.618 48.029 523.444C47.847 523.917 48.582 524.232 48.819 523.783C52.572 517.533 56.649 512.133 62.764 508.019C63.333 507.633 62.764 506.711 62.219 507.089L62.25 507.066ZM72.197 510.26C69.472 513.856 66.591 517.372 64.073 521.134C64.0071 521.255 63.985 521.396 64.0103 521.532C64.0356 521.668 64.1068 521.791 64.212 521.881C64.427 522.058 64.732 522.035 64.922 521.829C65.372 521.316 65.823 520.809 66.259 520.249C66.3327 520.15 66.3696 520.028 66.3634 519.905C66.3572 519.781 66.3082 519.664 66.225 519.573C66.1456 519.486 66.035 519.433 65.9172 519.426C65.7993 519.42 65.6836 519.46 65.595 519.538C65.107 520.012 64.634 520.494 64.161 520.984L64.9 521.774C67.729 518.336 70.255 514.567 72.884 510.956C73.275 510.426 72.588 509.66 72.145 510.166L72.197 510.26ZM88.179 510.135C84.0637 515.035 79.6873 519.71 75.069 524.139C75.0098 524.25 74.9878 524.377 75.0064 524.501C75.0249 524.625 75.083 524.74 75.172 524.829C75.2611 524.917 75.3761 524.975 75.5001 524.993C75.6242 525.012 75.751 524.99 75.862 524.932C80.908 521.025 85.262 515.897 88.958 510.729C89.0024 510.623 89.0108 510.505 88.982 510.394C88.9532 510.283 88.8888 510.184 88.7986 510.113C88.7084 510.042 88.5974 510.003 88.4826 510.001C88.3678 509.999 88.2555 510.035 88.163 510.103L88.179 510.135ZM165.811 312.438C166.463 320.493 156.995 320.036 151.921 317.973C145.953 315.555 141.483 309.895 141.421 303.313C141.304 290.289 155.699 287.668 165.695 290.32C176.715 293.235 187.586 301.297 189.542 313.136C191.722 326.269 180.687 336.394 169.055 339.759C158.85 342.712 145.775 343.162 135.685 339.619C124.209 335.611 118.855 325.385 118.342 313.74C117.876 303.228 119.972 290.831 126.102 282.07C133.04 272.132 145.502 268.457 156.227 264.17C180.493 254.487 204.961 245.114 226.845 230.663C226.922 230.611 226.976 230.532 226.996 230.442C227.017 230.352 227.003 230.258 226.956 230.178C226.91 230.098 226.835 230.039 226.746 230.013C226.658 229.986 226.563 229.994 226.48 230.035C213.684 238.26 199.987 245.044 186.026 251.068C171.949 257.146 157.414 262.077 143.346 268.124C137.331 270.69 131.356 273.837 127.049 278.869C122.983 283.614 120.592 289.521 119.11 295.529C116.402 306.546 115.455 319.795 121.5 329.92C127.708 340.309 140.024 342.953 151.307 343C163.964 343.053 178.15 340.573 186.297 329.905C202.167 309.12 175.271 285.164 154 288.467C141.855 290.351 136.198 303.724 144.028 313.57C145.865 315.784 148.165 317.569 150.766 318.799C153.367 320.029 156.206 320.673 159.083 320.687C163.537 320.687 167.363 317.074 166.944 312.477C166.882 311.779 165.788 311.771 165.842 312.477L165.811 312.438Z" fill="#777777"/>
<path d="M250.449 262.464C242.173 268.21 234.029 257.544 238.723 249.734C243.509 241.766 254.513 243.348 260.395 248.954C265.928 254.193 268.5 263.111 264.351 269.941C260.893 275.631 253.705 277.666 247.441 277.892C233.267 278.415 219.257 270.829 218.099 255.542C217.042 241.61 227.665 230.407 240.588 227.156C255.134 223.492 269.845 228.63 277.926 241.368C278.087 241.644 278.44 241.736 278.715 241.575C278.847 241.498 278.942 241.371 278.981 241.222C279.02 241.074 278.998 240.917 278.921 240.784C270.054 226.704 252.501 221.614 237.005 227.258C222.241 232.629 212.62 248.416 219.008 263.774C224.906 277.963 245.67 282.679 258.725 276.037C273.792 268.366 267.085 245.765 251.685 243.294C243.805 242.024 235.42 247.613 236.143 256.173C236.733 263.47 244.939 267.765 251.055 263.501C251.645 263.088 251.055 262.106 250.488 262.519L250.448 262.464H250.449Z" fill="#777777"/>
<path d="M295.96 319.873C295.964 319.881 295.966 319.891 295.966 319.9C295.966 319.91 295.964 319.919 295.96 319.928V321.36C295.735 330.156 295.063 338.934 293.944 347.662C293.771 349.058 293.588 350.452 293.394 351.842C293.334 352.272 293.28 352.707 293.211 353.135C293.142 353.564 293.097 353.968 293.035 354.381C292.967 354.918 292.883 355.456 292.799 356.001C291.538 364.652 290.009 373.262 288.217 381.819C288.102 382.396 287.987 382.972 287.857 383.548C287.184 386.765 286.48 389.976 285.743 393.179C285.597 393.849 285.437 394.519 285.277 395.18C283.188 404.121 280.853 413.004 278.274 421.817C278.174 422.182 278.068 422.541 277.961 422.907C277.964 422.938 277.964 422.969 277.961 423H277.06C277.001 422.887 276.985 422.757 277.014 422.634C277.075 422.362 277.129 422.089 277.197 421.817C279.045 413.33 281.191 404.913 283.307 396.488C283.482 395.795 283.65 395.102 283.818 394.409C284.773 390.516 285.712 386.623 286.59 382.684C286.728 382.1 286.858 381.516 286.98 380.924C287.37 379.18 287.743 377.436 288.095 375.684C289.492 368.832 290.737 361.941 291.76 355.02C291.806 354.724 291.852 354.428 291.89 354.132C291.928 353.836 291.974 353.595 292.005 353.353C292.035 353.112 292.058 353.011 292.081 352.84C293.287 344.322 294.158 335.71 294.578 327.145C294.654 325.495 294.723 323.836 294.761 322.193V320.948V320.582V319.025C294.911 308.229 294.145 297.441 292.471 286.775C292.409 286.346 292.341 285.925 292.264 285.498C290.726 276.154 288.386 266.961 285.269 258.02C285.139 257.608 284.994 257.195 284.841 256.782C282.893 251.323 280.645 245.976 278.106 240.766C278.039 240.649 278.021 240.511 278.054 240.381C278.088 240.251 278.171 240.139 278.286 240.07C278.343 240.036 278.405 240.014 278.471 240.005C278.536 239.996 278.602 240 278.666 240.017C278.73 240.034 278.789 240.064 278.841 240.104C278.893 240.145 278.937 240.195 278.969 240.253C281.767 245.337 284.162 250.632 286.132 256.09C286.285 256.479 286.422 256.868 286.56 257.265C288.746 263.514 290.531 269.896 291.905 276.372C292.501 279.113 293.025 281.864 293.478 284.626C293.548 285.03 293.608 285.404 293.669 285.84C295.423 297.096 296.19 308.483 295.96 319.873Z" fill="#777777"/>
<path d="M284.25 420.978C274.273 415.793 272.021 403.487 269.579 393.707C267.988 387.309 266.539 380.857 265.426 374.357L265.163 372.803C264.792 370.502 264.461 368.196 264.169 365.884C264.105 365.418 264.049 364.944 264.002 364.477C263.676 361.671 263.421 358.849 263.262 356.027C263.054 352.351 262.969 348.669 263.007 344.987V343.433C263.071 339.805 263.225 336.19 263.469 332.588L263.54 331.578C263.89 326.54 264.376 321.518 264.925 316.52C265.275 313.317 265.649 310.114 266.046 306.911L266.237 305.426C266.349 304.501 266.468 303.568 266.587 302.643C266.643 302.231 266.699 301.827 266.747 301.415C267.964 292.23 269.367 283.07 270.955 273.942C271.011 273.592 271.075 273.242 271.138 272.892C271.377 271.462 271.642 270.034 271.934 268.609C272.069 267.832 272.22 267.054 272.364 266.23C274.143 256.571 276.121 246.95 278.299 237.373C278.442 236.713 279.42 237.008 279.309 237.645C277.766 246.733 275.952 255.766 274.185 264.855L273.732 267.186C273.345 269.197 272.96 271.211 272.578 273.226C272.515 273.592 272.443 274.004 272.379 274.331C271.691 277.974 271.047 281.625 270.446 285.284C269.533 290.87 268.692 296.468 267.924 302.076C267.86 302.503 267.804 302.931 267.749 303.358C267.693 303.786 267.646 304.136 267.606 304.493C267.534 305.022 267.463 305.551 267.399 306.048C266.277 314.802 265.394 323.586 264.845 332.386C264.813 332.744 264.789 333.101 264.773 333.459C264.773 333.801 264.733 334.151 264.71 334.493C264.55 337.229 264.455 339.935 264.415 342.671V344.226C264.378 351.389 264.769 358.549 265.585 365.666C265.649 366.172 265.705 366.685 265.768 367.221C265.967 368.776 266.182 370.401 266.428 371.987C266.5 372.5 266.579 373.013 266.659 373.541C267.149 376.61 267.717 379.666 268.362 382.707C269.882 389.851 271.544 397.057 273.708 404.031C275.713 410.39 278.688 416.648 284.846 420.037C285.024 420.227 285.05 420.509 284.912 420.727C284.843 420.834 284.741 420.916 284.622 420.961C284.503 421.006 284.373 421.012 284.25 420.977V420.978Z" fill="#777777"/>
<path d="M279.237 237.911C280.557 230.063 282.041 222.051 285.761 214.935C289.719 207.577 295.681 201.491 302.955 197.381C316.065 189.806 336.101 187.341 347.75 199.043C360.642 212.002 351.742 235.766 336.668 242.733C322.052 249.457 302.054 238.27 307.296 220.747C307.847 218.747 308.797 216.88 310.089 215.257C311.381 213.635 312.988 212.291 314.814 211.307C320.126 208.616 327.628 209.396 331.123 214.647C333.686 218.493 333.849 224.43 330.292 227.745C326.533 231.256 320.032 230.577 317.182 226.325C316.771 225.717 315.785 226.279 316.196 226.903C319.714 232.309 328.265 232.676 332.164 227.418C336.894 221.028 332.94 211.752 325.795 209.38C318.029 206.798 309.921 211.245 306.861 218.586C303.657 226.261 305.699 235.136 311.933 240.618C318.48 246.212 328.179 247.46 336.085 244.293C344.683 240.844 350.958 232.816 353.614 224.063C356.464 214.654 355.167 203.779 347.401 197.132C340.551 191.195 330.789 189.33 321.99 190.204C310.207 191.359 299.242 196.748 291.127 205.37C282.825 214.319 279.952 225.842 278.01 237.591C277.878 238.371 279.082 238.722 279.214 237.927L279.237 237.911ZM164.768 279.45C163.72 280.274 162.249 280.755 160.943 279.675C160.224 279.148 159.717 278.382 159.512 277.515C159.307 276.648 159.418 275.736 159.825 274.944C161.155 271.899 164.126 270.857 167.442 271.564C171.259 272.341 175.122 275.138 176.366 278.945C179.353 288.074 165.8 288.571 160.177 287.367C152.521 285.72 148.094 279.155 151.167 271.665C153.85 265.139 160.372 262.102 167.036 261.053C173.222 260.082 182.098 259.297 187.291 263.423C189.919 265.513 191.428 269.125 190.091 272.396C188.034 277.406 181.809 275.402 179.783 271.471C176.131 264.386 183.639 255.677 189.168 251.94C194.264 248.45 200.393 246.792 206.553 247.24C210.964 247.628 215.735 249.477 217.838 253.618C220.302 258.466 216.861 263.034 212.833 265.536C208.962 267.936 203.605 268.806 199.874 265.722C197.661 263.889 196.605 261.138 197.771 258.396C199.781 253.672 208.016 254.884 206.303 260.726C206.267 260.885 206.295 261.053 206.379 261.193C206.464 261.333 206.6 261.436 206.758 261.479C206.916 261.522 207.084 261.502 207.228 261.424C207.372 261.346 207.481 261.215 207.531 261.06C207.769 260.22 207.808 259.337 207.645 258.48C207.482 257.623 207.12 256.816 206.59 256.124C206.057 255.428 205.37 254.865 204.584 254.479C203.797 254.093 202.932 253.894 202.056 253.898C198.404 253.968 195.8 257.782 196.05 261.2C196.363 265.318 200.156 268.332 204.066 268.907C209.056 269.645 214.616 267.012 217.729 263.167C219.219 261.45 220.027 259.246 220 256.973C219.972 254.7 219.111 252.517 217.58 250.837C214.092 246.789 208.133 245.763 203.026 246.043C192.343 246.633 180.471 254.084 178.086 265.023C177.124 269.42 178.532 274.346 183.021 276.171C186.243 277.484 189.848 276.272 191.201 272.986C191.802 271.325 191.908 269.526 191.507 267.807C191.106 266.087 190.215 264.521 188.941 263.298C185.078 259.654 178.837 259.414 173.855 259.515C163.618 259.662 150.573 263.018 149.103 275.053C147.758 286.069 159.872 289.962 168.866 288.804C173.613 288.19 178.586 285.339 177.687 279.87C176.85 274.773 171.493 270.764 166.519 270.228C162.281 269.778 156.767 272.815 157.917 277.788C158.117 278.57 158.509 279.291 159.058 279.883C159.608 280.475 160.296 280.92 161.062 281.178C161.829 281.437 162.649 281.502 163.448 281.366C164.246 281.23 164.998 280.897 165.636 280.398C166.269 279.893 165.37 279.015 164.744 279.512L164.768 279.45ZM295 286.23L293.734 287.176C286.177 292.821 278.527 298.342 270.787 303.736L269.6 304.524L267.314 306.101C266.878 306.401 266.444 306.708 266 307L266.19 305.494C266.633 305.157 267.076 304.826 267.52 304.5L268.43 303.814L269.537 303.026C277.45 297.175 285.449 291.434 293.537 285.883L294.818 285C294.873 285.41 294.937 285.812 295 286.23ZM297 320V321.242L296.86 321.36C296.484 321.677 296.077 321.977 295.732 322.278C288.744 327.984 281.465 333.325 273.924 338.278L272.75 339.068C269.998 340.848 267.204 342.562 264.37 344.209C263.916 344.478 263.462 344.739 263 345V343.418L264.354 342.628C266.774 341.178 269.171 339.701 271.545 338.198C271.928 337.961 272.328 337.724 272.687 337.478C280.658 332.425 288.353 326.95 295.74 321.076C295.832 321.015 295.918 320.946 295.998 320.87L297 320ZM294 352L293.814 353.288L292.975 353.893L292.432 354.288L291.802 354.738C286.368 358.668 280.932 362.584 275.497 366.483C274.042 367.528 272.595 368.586 271.157 369.656L270.047 370.478L266.444 373.131L265.256 374L265 372.449L266.219 371.603L269.022 369.663L270.117 368.888C271.522 367.91 272.927 366.933 274.317 365.948C279.897 361.986 285.482 358.025 291.073 354.063L292.292 353.21L292.649 352.962L294 352ZM272 402.61L273.196 401.797C277.083 399.254 280.996 396.75 284.933 394.285L287 393C286.85 393.7 286.683 394.398 286.517 395.09C285.809 395.55 285.105 396.005 284.402 396.455C280.83 398.76 277.235 401.028 273.616 403.26L272.404 404L272 402.61ZM288 257.16L286.646 257.943C283.882 259.509 281.166 261.146 278.538 262.956C276.929 264.096 275.353 265.282 273.811 266.512C273.201 266.997 272.601 267.491 272 268C272.136 267.217 272.288 266.433 272.433 265.603C273.033 265.117 273.65 264.648 274.267 264.178C278.036 261.367 282.025 258.866 286.197 256.698L287.551 256C287.711 256.368 287.856 256.76 288 257.16ZM292.447 283.98C286.324 280.204 279.113 276.203 272.339 274.418L271 274.076C271.054 273.717 271.115 273.359 271.176 273L272.531 273.287C279.473 274.881 287.135 278.905 292.883 283.247C292.948 283.32 292.989 283.411 292.998 283.509C293.008 283.606 292.986 283.704 292.936 283.789C292.888 283.871 292.814 283.936 292.725 283.97C292.636 284.005 292.538 284.009 292.447 283.981V283.98Z" fill="#777777"/>
<path d="M295.994 319.603V321L295.855 320.909L295.031 320.369C294.954 320.309 294.871 320.256 294.785 320.21C286.291 314.643 277.696 309.234 269.003 303.984L267.863 303.301L267.093 302.853L266 302.2C266.054 301.797 266.108 301.402 266.154 301L267.263 301.6L268.919 302.511L270.135 303.194C278.602 307.949 286.826 313.124 294.777 318.699C295.185 318.973 295.586 319.254 295.986 319.542C296.001 319.559 296.004 319.583 295.994 319.602V319.603ZM293 354.377C292.93 354.915 292.846 355.454 292.762 356L291.678 355.024L291.186 354.587L290.418 353.916C284.448 348.608 278.415 343.465 272.106 338.626L270.946 337.736C268.74 336.065 266.501 334.439 264.23 332.858C263.822 332.577 263.415 332.288 263 332.015L263.07 331L264.299 331.78C266.925 333.474 269.515 335.223 272.068 337.026C272.468 337.306 272.836 337.588 273.258 337.876C279.742 342.481 285.881 347.555 291.624 353.057C291.722 353.14 291.814 353.228 291.901 353.323C292.039 353.448 292.185 353.588 292.324 353.736C292.462 353.885 292.784 354.158 293 354.376V354.377ZM289 382.23C288.883 382.82 288.766 383.41 288.634 384C288.182 383.713 287.724 383.418 287.272 383.115C281.368 379.216 275.671 375.012 270.205 370.521C269.863 370.25 269.52 369.971 269.178 369.676C268.018 368.719 266.842 367.754 265.721 366.782C265.196 366.342 264.676 365.895 264.163 365.442C264.101 364.962 264.047 364.481 264 364L265.557 365.212C267.114 366.466 268.692 367.693 270.291 368.894L271.334 369.692C276.699 373.725 282.156 377.559 287.684 381.33L289 382.23ZM360.66 194.418C355.448 193.948 352.881 186.865 356.677 183.171C359.788 180.118 365.404 180.517 368.344 183.641C376.176 192 366.392 202.848 357.501 203.748C352.282 204.272 346.776 202.112 344.839 196.868C343.221 192.485 344.403 187.71 346.822 183.891C351.404 176.659 359.812 171.782 367.986 169.967C376.659 168.041 390.682 170.045 391.086 181.597C391.266 186.701 386.536 192.086 381.17 190.63C375.189 189.01 373.843 181.871 375.22 176.667C377.397 168.409 384.49 162.445 391.67 158.524C399.378 154.32 409.03 151.972 416.94 157.044C426.453 163.141 425.333 178.177 413.938 181.402C408.743 182.858 402.435 180.909 400.226 175.618C398.016 170.327 404.185 162.993 409.45 167.532C410.088 168.08 411.006 167.157 410.376 166.601C407.35 163.987 403.065 164.699 400.35 167.509C397.441 170.515 397.783 174.952 400.125 178.201C406.977 187.703 421.949 182.85 424.532 172.283C427.604 159.76 414.965 151.808 403.928 153.146C392.113 154.579 378.261 163.322 374.372 175.062C372.637 180.306 373.081 186.716 377.74 190.309C381.629 193.291 386.692 192.446 389.85 188.861C393.21 185.041 393.101 179.649 390.449 175.469C387.268 170.436 381.458 168.151 375.717 167.955C363.708 167.54 348.86 174.795 344.177 186.497C342.156 191.546 342.567 197.877 346.745 201.721C350.921 205.564 357.183 205.689 362.176 203.841C367.675 201.807 372.147 196.985 372.287 190.873C372.373 185.793 369.293 180.87 364.121 179.962C359.633 179.179 354.391 181.613 353.737 186.521C353.584 187.584 353.645 188.667 353.917 189.707C354.188 190.746 354.665 191.721 355.318 192.574C355.969 193.424 356.784 194.134 357.715 194.662C358.646 195.19 359.674 195.525 360.738 195.647C361.515 195.717 361.515 194.457 360.738 194.379L360.659 194.419L360.66 194.418Z" fill="#777777"/>
<path d="M461.58 168.076C454.45 166.926 446.318 162.864 446.514 154.49C446.733 144.848 458.05 144.104 464.514 148.111C467.696 150.076 470.156 153.02 471.525 156.501C472.893 159.982 473.097 163.812 472.106 167.419C470.134 174.462 464.123 179.056 457.056 180.262C443.219 182.61 424.968 174.306 424.31 158.802C423.676 144.276 436.355 134.172 449.582 131.785C464.952 129.007 478.312 135.824 486.82 148.589C486.914 148.72 487.054 148.812 487.212 148.846C487.37 148.88 487.535 148.853 487.675 148.772C487.815 148.691 487.919 148.561 487.968 148.406C488.017 148.252 488.006 148.086 487.939 147.939C479.103 134.196 464.249 127.449 448.119 130.885C432.684 134.172 418.166 149.082 424.537 165.775C429.93 179.917 452.125 186.327 464.851 178.845C478.571 170.784 475.981 149.238 460.491 144.996C453.252 143.016 445.105 146.749 445.293 155.03C445.496 163.709 453.823 168.233 461.47 169.21C461.603 169.2 461.729 169.145 461.826 169.053C461.923 168.962 461.985 168.839 462.003 168.707C462.02 168.575 461.992 168.441 461.922 168.327C461.852 168.214 461.745 168.128 461.619 168.084L461.579 168.076H461.58ZM525.8 133.49C527.266 135.673 529.826 136.176 532.261 135.17C535.227 133.947 536.351 130.835 536.733 127.886C537.663 120.664 536.507 110.508 526.861 111.491C510.736 113.14 509.019 136.145 520.219 144.59C523.409 146.904 527.137 148.365 531.05 148.835C534.963 149.305 538.931 148.768 542.579 147.276C550.165 144.11 555.269 136.632 556.627 128.698C558.267 119.41 554.287 110.678 548.823 103.34C543.929 96.7996 536.546 89.2596 527.524 91.3576C521.904 92.6576 516.464 96.0406 511.361 98.6336C506.514 101.095 503.088 104.416 499.966 108.82C492.942 118.767 489.289 130.494 487.01 142.337C486.893 142.957 487.837 143.22 487.962 142.601C489.523 135.069 491.513 127.576 494.69 120.54C497.812 113.666 502.034 105.98 508.457 101.676C511.064 99.9256 514.022 98.7256 516.839 97.3636C520.742 95.4676 524.644 92.9986 529.061 92.3716C537.787 91.1406 544.851 99.6396 549.229 106.011C553.365 112.017 556.401 118.984 555.714 126.399C555.044 133.614 551.156 140.751 544.889 144.652C532.55 152.33 514.1 144.907 513.975 129.581C513.913 122.15 518.432 113.906 526.4 112.683C533.276 111.63 535.805 117.203 535.766 123.086C535.851 125.368 535.615 127.651 535.063 129.867C534.166 132.801 529.693 136.934 526.822 132.863C526.392 132.251 525.37 132.824 525.799 133.459V133.489L525.8 133.49Z" fill="#777777"/>
<path d="M491 340H489.583C489.416 339.626 489.25 339.22 489.1 338.877C488.98 338.622 488.872 338.361 488.775 338.097C488.517 337.521 488.275 336.938 488.047 336.35C485.983 331.285 484.204 326.109 482.717 320.846C482.49 320.069 482.273 319.289 482.068 318.506C481.768 317.422 481.483 316.33 481.213 315.238C481.071 314.677 480.928 314.115 480.793 313.554C479.764 309.256 478.893 304.92 478.149 300.576C477.279 295.399 476.566 290.197 476.011 284.978C475.964 284.51 475.916 284.105 475.877 283.66C475.837 283.216 475.766 282.584 475.71 282.046C475.077 275.51 474.657 268.951 474.372 262.4C474.206 258.563 474.072 254.734 474 250.897V248.597V243.332V242.076C474.048 234.776 474.38 227.492 475.124 220.239C475.272 218.742 475.444 217.249 475.639 215.762C475.694 215.232 475.766 214.702 475.837 214.202C475.833 214.163 475.833 214.124 475.837 214.086C475.932 213.306 476.035 212.526 476.146 211.801C477.381 202.925 479.068 194.121 480.699 185.284L480.959 183.904L481.696 179.856C481.823 179.162 481.942 178.476 482.053 177.781C482.163 177.087 482.259 176.534 482.346 175.91C484.048 164.726 484.571 153.34 487.096 142.304C487.216 141.766 487.991 142.008 487.888 142.522C487.621 144.308 487.371 146.097 487.136 147.888C487.041 148.668 486.938 149.362 486.843 150.103C485.774 158.448 484.895 166.823 483.628 175.153C483.533 175.793 483.43 176.44 483.328 177.079C482.937 179.543 482.504 182 482.028 184.449C481.942 184.933 481.847 185.409 481.752 185.892C480.168 194.222 478.585 202.567 477.429 210.958L477.119 213.228L476.882 215.06C476.819 215.599 476.755 216.129 476.7 216.667C476.352 219.624 476.064 222.588 475.837 225.557C475.417 231.236 475.235 236.921 475.211 242.614V250.172C475.306 255.215 475.489 260.258 475.758 265.302C476.058 271.213 476.486 277.117 477.104 282.99L477.246 284.378V284.674C477.294 285.048 477.333 285.454 477.381 285.797C478.395 294.941 479.963 304.015 482.076 312.969L482.48 314.622C482.908 316.315 483.351 318.007 483.818 319.684C484.048 320.464 484.286 321.321 484.531 322.133C485.751 326.282 487.121 330.383 488.672 334.447C488.902 335.071 489.147 335.703 489.401 336.327C489.741 337.2 490.097 338.074 490.461 338.939C490.667 339.272 490.847 339.626 491 340Z" fill="#777777"/>
<path d="M503.552 262.587V263.131C503.412 265.782 503.233 268.431 503.017 271.077C503.017 271.489 502.948 271.901 502.91 272.32C502.11 281.604 500.835 290.842 499.089 299.996C498.982 300.525 498.883 301.053 498.776 301.55C498.546 302.707 498.309 303.88 498.065 305.014C497.965 305.488 497.866 305.954 497.759 306.428C496.253 313.36 494.453 320.225 492.364 327.005C491.414 330.103 490.395 333.18 489.307 336.233C489.093 336.854 488.872 337.473 488.642 338.089C488.55 338.353 488.451 338.609 488.359 338.866C488.214 339.246 488.077 339.643 487.931 340H486.671C486.808 339.627 486.938 339.223 487.068 338.866C487.366 338.019 487.648 337.18 487.938 336.334L488.604 334.345C489.49 331.658 490.341 328.96 491.156 326.251C491.324 325.691 491.493 325.141 491.653 324.581C493.341 318.87 494.835 313.103 496.131 307.291L496.452 305.83C496.612 305.053 496.773 304.339 496.926 303.585C497.14 302.549 497.346 301.514 497.546 300.478C497.66 299.888 497.775 299.29 497.882 298.699C499.482 290.207 500.682 281.662 501.481 273.066C501.527 272.639 501.565 272.204 501.603 271.769C501.878 268.745 502.1 265.72 502.268 262.696C502.268 262.168 502.337 261.656 502.36 261.143C502.87 251.389 502.896 241.615 502.436 231.858C502.436 231.486 502.436 231.082 502.383 230.748V230.243C502.383 229.885 502.383 229.528 502.329 229.163C502.253 227.78 502.169 226.39 502.069 225.007C501.495 216.774 500.536 208.573 499.196 200.43C499.135 200.05 499.074 199.654 499.005 199.289C498.791 197.968 498.562 196.655 498.317 195.335C498.202 194.705 498.087 194.069 497.966 193.439C496.605 186.22 494.981 179.054 493.097 171.954L492.731 170.571C490.943 163.928 488.963 157.339 486.793 150.811C486.548 150.073 486.303 149.327 486.028 148.589C485.83 147.983 486.731 147.758 486.953 148.333C486.953 148.426 487.022 148.511 487.053 148.604C489.724 155.576 492.019 162.686 493.93 169.904L494.274 171.224C496.047 177.982 497.538 184.817 498.86 191.661C499.02 192.5 499.173 193.339 499.318 194.185C499.433 194.783 499.532 195.381 499.632 195.987C499.8 196.904 499.952 197.828 500.098 198.753C500.167 199.125 500.228 199.529 500.274 199.863C501.844 209.694 502.926 219.597 503.514 229.536C503.552 230.041 503.575 230.546 503.598 231.089C504.149 241.581 504.134 252.096 503.552 262.587Z" fill="#777777"/>
<path d="M501 199.127C500.635 199.317 500.27 199.505 499.913 199.702C494.997 202.302 490.155 205.038 485.391 207.907C482.639 209.57 479.966 211.344 477.301 213.133L476 214C476.095 213.212 476.198 212.424 476.31 211.69L477.61 210.84C484.734 206.317 492.115 202.212 499.715 198.544L500.818 198C500.889 198.378 500.952 198.757 501 199.127ZM504 230.585L502.868 231.373C495.948 236.223 488.972 241.041 481.934 245.756L480.59 246.663L475.235 250.211L474 251V248.674L475.235 247.83L478.577 245.567L479.882 244.692C487.292 239.729 494.758 234.85 502.278 230.057L502.813 229.71L503.929 229C503.929 229.56 503.953 230.072 504 230.585ZM503 271C503 271.4 502.93 271.799 502.892 272.205L501.446 272.959C494.196 276.771 486.946 280.599 479.626 284.259C479.176 284.493 478.721 284.719 478.265 284.945L477.399 285.375L476.147 286C476.093 285.555 476.047 285.111 476 284.659L477.013 284.124L477.237 284.004L478.334 283.431C486.018 279.415 493.794 275.551 501.57 271.686L503 271ZM498 305C497.901 305.46 497.803 305.913 497.697 306.374L496.074 307.226C491.616 309.581 487.157 311.974 482.676 314.328L481.402 315C481.265 314.457 481.129 313.913 481 313.37L482.289 312.728C486.99 310.411 491.707 308.125 496.393 305.808L498 305ZM494 171.423C493.614 171.686 493.244 171.941 492.828 172.197C489.652 174.261 486.461 176.31 483.233 178.26L482 179C482.098 178.342 482.197 177.684 482.28 177.026L483.52 176.203C486.469 174.319 489.463 172.501 492.465 170.707L493.66 170L494 171.423ZM500 196L498.7 195.32C493.094 192.38 487.527 189.255 482.045 186.049L481 185.433L481.256 184L482.316 184.55C487.725 187.358 493.069 190.29 498.343 193.344L499.683 194.154C499.799 194.744 499.899 195.368 500 196Z" fill="#777777"/>
<path d="M504 230C503.613 229.902 503.225 229.803 502.83 229.69L502.272 229.53C493.113 226.78 484.56 222.315 477.069 216.371C476.705 216.091 476.349 215.803 476 215.515C476.054 215 476.124 214.485 476.194 214C476.542 214.28 476.891 214.56 477.247 214.833C480.618 217.469 484.193 219.833 487.939 221.902C492.673 224.438 497.629 226.535 502.745 228.167L503.899 228.537C503.93 229.015 503.954 229.507 504 230ZM504 262.236V262.783C503.957 262.844 503.901 262.895 503.836 262.932C503.771 262.969 503.699 262.992 503.624 262.998C503.55 263.005 503.475 262.995 503.404 262.97C503.334 262.945 503.269 262.905 503.216 262.853L502.66 262.393C497.674 258.245 492.947 254.004 487.452 250.482C485.234 249.062 482.956 247.738 480.624 246.514C479.95 246.149 479.271 245.795 478.586 245.452C477.478 244.89 476.359 244.348 475.231 243.828L474 243.258V242L475.23 242.508C476.802 243.15 478.353 243.842 479.88 244.585C480.577 244.921 481.267 245.257 481.957 245.616C489.67 249.521 497.047 254.684 502.746 260.815C503.153 261.252 503.53 261.681 503.929 262.127C503.959 262.159 503.983 262.196 504 262.236ZM500 299.474C499.889 299.993 499.785 300.512 499.674 301L498.386 299.993C494.052 296.582 489.901 292.973 485.368 289.753C483.155 288.179 480.909 286.653 478.632 285.174C478.293 284.948 477.951 284.727 477.606 284.51L477.344 284.343L476.167 283.58C476.103 283.053 476.056 282.527 476 282C476.477 282.267 476.954 282.557 477.431 282.847C477.909 283.137 478.282 283.358 478.704 283.61C479.125 283.862 479.594 284.16 480.032 284.45C482.473 285.976 484.851 287.616 487.189 289.28C491.218 292.006 495.072 294.982 498.728 298.192C499.165 298.665 499.586 299.069 500 299.474ZM493 324.488C492.835 324.994 492.67 325.501 492.497 326L491.247 325.266C488.982 323.984 486.736 322.67 484.508 321.325L482.645 320.202C482.419 319.471 482.204 318.737 482 318L483.8 319.035C486.473 320.556 489.126 322.112 491.758 323.703L493 324.488ZM574.575 96.7948C568.145 100.587 562.726 90.8728 569.429 86.8168C576.132 82.7598 582.103 91.2468 580.679 97.3798C578.506 106.742 563.388 112.984 555.891 105.962C548.161 98.7768 554.427 87.4638 560.655 81.8548C566.647 76.4604 574.349 73.3499 582.407 73.0698C589.935 72.8828 603.224 76.5178 603.115 86.0988C603.045 92.1528 596.615 93.8068 592.122 91.2638C587.452 88.6038 586.774 82.4868 587.802 77.6878C591.134 62.1238 611.266 51.1618 625.73 58.9638C630.977 61.8038 633.897 67.2648 631.958 73.1788C630.292 78.3438 625.115 82.6498 619.502 82.3458C613.889 82.0418 607.895 74.5438 612.799 69.6208C613.636 68.813 614.659 68.2222 615.777 67.8999C616.895 67.5776 618.075 67.5336 619.214 67.7718C620.164 67.9761 621.014 68.5019 621.621 69.2606C622.228 70.0193 622.555 70.9642 622.546 71.9358C622.539 72.9073 622.196 73.8465 621.576 74.5946C620.956 75.3427 620.097 75.8539 619.144 76.0418C618.976 76.0928 618.835 76.2073 618.751 76.3608C618.666 76.5144 618.645 76.6949 618.692 76.8639C618.738 77.0328 618.849 77.1769 619.001 77.2652C619.152 77.3536 619.332 77.3793 619.502 77.3368C623.162 76.5568 625.528 72.1488 623.286 68.8168C620.95 65.2838 615.438 65.6498 612.441 68.0368C608.697 71.0408 609.164 76.4398 611.966 79.9268C615.509 84.3358 621.612 84.7098 626.346 82.0418C631.468 79.1628 634.909 73.0148 633.788 67.0858C632.698 61.3048 627.56 57.5598 622.18 55.9918C610.191 52.4808 596.568 58.6438 589.927 68.9188C586.673 73.9508 584.617 80.7308 586.681 86.6058C587.442 88.9233 588.989 90.9019 591.055 92.1996C593.12 93.4973 595.574 94.0326 597.992 93.7128C602.889 92.9328 605.272 88.2528 604.135 83.5708C602.71 77.7428 596.49 74.2788 591.149 72.7418C578.693 69.1528 564.509 74.4588 556.35 84.2338C552.543 88.7978 549.951 94.6728 551.415 100.672C552.808 106.368 557.487 109.785 563.24 109.988C570.169 110.238 578.086 106.641 581.013 100.048C583.349 94.7348 581.932 88.0338 576.397 85.4198C571.414 83.0798 564.618 86.3868 564.766 92.3558C564.89 97.3958 570.947 100.399 574.996 97.5128C575.064 97.4365 575.107 97.3401 575.116 97.2379C575.125 97.1358 575.102 97.0333 575.048 96.9458C574.995 96.8582 574.914 96.7902 574.819 96.7518C574.724 96.7135 574.619 96.7068 574.52 96.7328L574.575 96.7948Z" fill="#777777"/>
<path d="M227.735 230.922C277.955 207.985 327.903 184.402 377.96 161.122C427.789 137.943 477.665 114.864 527.586 91.8849C555.958 78.8449 584.407 65.9619 612.747 52.8909C613.316 52.6259 612.825 51.7909 612.257 52.0489C562.002 74.9314 511.839 98.0132 461.767 121.294C411.868 144.332 361.998 167.432 312.157 190.594C283.84 203.743 255.437 216.72 227.244 230.126C226.692 230.391 227.174 231.202 227.727 230.953L227.735 230.922ZM134.553 272.97C128.327 274.774 116.178 279.19 113.664 270.078C110.979 260.336 125.821 254.582 132.63 251.418C149.013 243.838 166.236 237.952 182.89 230.985C215.655 217.275 247.94 202.447 279.69 186.528C297.949 177.384 316.121 167.922 333.81 157.714C333.853 157.688 333.891 157.655 333.922 157.614C333.952 157.574 333.974 157.529 333.987 157.48C334 157.431 334.003 157.38 333.996 157.331C333.989 157.281 333.972 157.233 333.947 157.189C333.921 157.146 333.887 157.108 333.847 157.078C333.807 157.047 333.761 157.025 333.713 157.012C333.664 157 333.613 156.997 333.563 157.004C333.513 157.011 333.465 157.027 333.422 157.053C297.762 176.093 262.009 194.738 225.158 211.416C206.357 219.926 187.365 228.009 168.197 235.658C159.216 239.258 150.165 242.655 141.199 246.318C133.214 249.56 124.404 252.911 117.61 258.314C112.691 262.202 109.127 270.171 115.213 274.828C120.801 279.104 129.019 276.111 134.833 273.958C134.899 273.94 134.961 273.909 135.015 273.868C135.069 273.826 135.114 273.774 135.148 273.715C135.182 273.655 135.204 273.59 135.213 273.522C135.222 273.455 135.217 273.386 135.199 273.32C135.181 273.254 135.15 273.192 135.109 273.138C135.067 273.084 135.015 273.039 134.956 273.005C134.897 272.971 134.831 272.949 134.763 272.94C134.696 272.931 134.627 272.936 134.561 272.954L134.553 272.97Z" fill="#777777"/>
<path d="M333.509 158C372.027 143.443 409.799 126.441 447.289 109.44C484.455 92.5857 521.121 74.7537 557.601 56.4867C578.765 45.8906 599.811 35.0599 620.735 23.9967C620.857 23.9246 620.946 23.8068 620.982 23.6692C621.017 23.5316 620.997 23.3856 620.924 23.2632C620.852 23.1408 620.734 23.0521 620.597 23.0165C620.459 22.981 620.313 23.0016 620.191 23.0737C547.48 61.5077 473.446 97.3417 397.926 129.964C376.431 139.276 354.67 147.928 333.174 157.201C333.095 157.259 333.039 157.342 333.013 157.437C332.988 157.531 332.995 157.632 333.034 157.722C333.073 157.811 333.141 157.886 333.227 157.932C333.313 157.978 333.413 157.994 333.509 157.977V158Z" fill="#777777"/>
</svg>
