<svg width="13" height="14" viewBox="0 0 13 14" fill="none" xmlns="http://www.w3.org/2000/svg">
<path d="M12.7342 7.64699L11.0994 6.01224L8.58603 3.50358L6.88959 1.80715C6.83819 1.75574 6.7765 1.7249 6.70453 1.71936C6.69425 1.71383 6.68397 1.71383 6.67369 1.71936H3.58373C3.50148 1.71936 3.42476 1.75021 3.36782 1.80715L3.09576 2.07921L2.60225 2.56797C2.60225 2.56797 2.60225 2.56797 2.60225 2.57351L1.53773 3.63724L1.41435 3.75508L1.29098 3.87371L1.30126 4.02793L0.998352 4.17187C1.03473 4.21774 1.07586 4.25887 1.11619 4.29999C1.18816 4.37196 1.26567 4.42891 1.33764 4.49059L1.34317 4.58866L1.50214 6.8917C1.50214 6.97395 1.53298 7.05066 1.58993 7.10761L5.80056 11.3182L7.42976 12.953C7.55314 13.0764 7.75402 13.0764 7.87661 12.953L12.735 8.09462C12.735 8.08909 12.735 8.08909 12.735 8.08909C12.8576 7.96571 12.8576 7.76483 12.7342 7.64699Z" fill="url(#paint0_linear)"/>
<g opacity="0.3">
<path d="M12.7342 8.08911C12.7342 8.08911 12.7342 8.08911 12.7342 8.09465L7.87583 12.953C7.75245 13.0764 7.55157 13.0764 7.42898 12.953L5.79977 11.3183C5.83062 11.3024 5.85593 11.2819 5.88203 11.2566L11.0385 6.10085C11.0385 6.09531 11.0385 6.09531 11.0385 6.09531C11.0639 6.07 11.0844 6.04391 11.1002 6.01306L12.735 7.6478C12.8576 7.76485 12.8576 7.96574 12.7342 8.08911Z" fill="white"/>
</g>
<path d="M4.61741 4.15608C4.22672 4.15608 3.91353 4.47006 3.91353 4.85996C3.91353 4.87024 3.91353 4.88052 3.91907 4.89081C2.66473 4.99362 1.90945 4.38148 1.41594 3.75432C1.32894 3.64122 1.2459 3.52813 1.17472 3.41503C0.844136 2.92231 0.175844 1.68855 1.03948 0.943539C1.35821 0.671478 1.72834 0.563127 2.08265 0.640633C2.52475 0.738702 2.90516 1.09301 3.1622 1.63793C3.20332 1.72967 3.24445 1.81192 3.28083 1.89417L3.36782 1.80718C3.42477 1.75023 3.50148 1.71939 3.58373 1.71939H3.87161C3.83049 1.61658 3.77908 1.50348 3.72214 1.3801C3.38364 0.650124 2.84901 0.172434 2.21631 0.038776C1.66665 -0.0798555 1.10117 0.0743655 0.632971 0.480876C-0.220385 1.2156 -0.210104 2.44462 0.65907 3.75511C0.869444 4.07383 1.09563 4.35143 1.34239 4.5879C1.99565 5.20478 2.76676 5.51797 3.65017 5.51797C3.84551 5.51797 4.05114 5.50215 4.26231 5.46656C4.36512 5.53379 4.4885 5.56938 4.61741 5.56938C5.0081 5.56938 5.32683 5.25066 5.32683 4.85996C5.32683 4.47006 5.0081 4.15608 4.61741 4.15608Z" fill="#3F3F3F"/>
<defs>
<linearGradient id="paint0_linear" x1="0.998352" y1="1.71521" x2="0.998352" y2="13.0455" gradientUnits="userSpaceOnUse">
<stop stop-color="#B4EC51"/>
<stop offset="1" stop-color="#429321"/>
</linearGradient>
</defs>
</svg>
