<svg width="24" height="24" viewBox="0 0 24 24" fill="none" xmlns="http://www.w3.org/2000/svg">
<path fill-rule="evenodd" clip-rule="evenodd" d="M16.1989 17.5445L22.6545 24L24 22.655L17.5444 16.1993C20.7742 12.2875 20.5229 6.51853 16.905 2.90026C15.0344 1.02998 12.5476 0 9.9023 0C7.25702 0 4.7707 1.03026 2.90074 2.90053C1.03023 4.77081 0 7.25745 0 9.90253C0 12.5476 1.03023 15.0342 2.90047 16.9045C4.77043 18.7748 7.25701 19.8051 9.90203 19.8051C12.2093 19.8051 14.4303 19.005 16.1989 17.5445ZM4.24565 4.24549C5.75661 2.73449 7.7657 1.90235 9.90198 1.90235C12.0388 1.90235 14.0479 2.73449 15.5594 4.24549C18.6781 7.3648 18.6781 12.4403 15.5594 15.5593C14.0479 17.0703 12.0385 17.9027 9.90198 17.9027C7.7657 17.9027 5.75688 17.0706 4.24565 15.5596C2.73469 14.0483 1.9023 12.0394 1.9023 9.90253C1.9023 7.76565 2.73442 5.75677 4.24565 4.24549Z" fill="#006695"/>
</svg>
