<svg width="90" height="64" viewBox="0 0 90 64" fill="none" xmlns="http://www.w3.org/2000/svg">
<path d="M88.1457 10.3955C87.1082 6.53997 84.0684 3.50089 80.2136 2.46268C73.1707 0.535278 44.9991 0.535278 44.9991 0.535278C44.9991 0.535278 16.8282 0.535278 9.78534 2.38921C6.00469 3.42673 2.89077 6.54066 1.85325 10.3955C0 17.4377 0 32.0426 0 32.0426C0 32.0426 0 46.7209 1.85325 53.6897C2.89145 57.5445 5.93053 60.5842 9.78603 61.6224C16.9024 63.5498 44.9998 63.5498 44.9998 63.5498C44.9998 63.5498 73.1707 63.5498 80.2136 61.6959C84.0691 60.6584 87.1082 57.6186 88.1464 53.7638C89.9996 46.7209 89.9996 32.1167 89.9996 32.1167C89.9996 32.1167 90.0738 17.4377 88.1457 10.3955Z" fill="#FF0000"/>
<path d="M36.0295 45.5352L59.4558 32.0426L36.0295 18.55V45.5352Z" fill="white"/>
</svg>
