<svg width="416" height="226" viewBox="0 0 416 226" fill="none" xmlns="http://www.w3.org/2000/svg">
<mask id="mask0" mask-type="alpha" maskUnits="userSpaceOnUse" x="0" y="0" width="416" height="226">
<path fill-rule="evenodd" clip-rule="evenodd" d="M0.0449219 0H415.479V226H0.0449219V0Z" fill="white"/>
</mask>
<g mask="url(#mask0)">
<path fill-rule="evenodd" clip-rule="evenodd" d="M195.211 125.423H213.555V118.76H195.211V125.423ZM171.186 125.421H190.001V118.758H171.186V125.421ZM216.16 113.549H168.583C167.143 113.549 165.976 114.715 165.976 116.154V128.028C165.976 129.466 167.143 130.632 168.583 130.632H216.16C217.598 130.632 218.766 129.466 218.766 128.028V116.154C218.766 114.715 217.598 113.549 216.16 113.549Z" fill="white"/>
<path fill-rule="evenodd" clip-rule="evenodd" d="M238.867 125.421H257.683V118.758H238.867V125.421ZM262.895 125.423H281.239V118.76H262.895V125.423ZM233.659 116.154V128.028C233.659 129.466 234.823 130.632 236.264 130.632H283.842C285.281 130.632 286.447 129.466 286.447 128.028V116.154C286.447 114.715 285.281 113.549 283.842 113.549H236.264C234.823 113.549 233.659 114.715 233.659 116.154Z" fill="white"/>
<path fill-rule="evenodd" clip-rule="evenodd" d="M306.554 125.421H325.369V118.758H306.554V125.421ZM330.577 125.423H348.921V118.76H330.577V125.423ZM303.946 130.632H351.525C352.964 130.632 354.13 129.466 354.13 128.028V116.154C354.13 114.715 352.964 113.549 351.525 113.549H303.946C302.508 113.549 301.342 114.715 301.342 116.154V128.028C301.342 129.466 302.508 130.632 303.946 130.632Z" fill="white"/>
<path fill-rule="evenodd" clip-rule="evenodd" d="M179.523 182.69H205.32V169.435H179.523V182.69ZM179.523 164.225H205.32V145.11H179.523V164.225ZM213.644 182.69H210.529V142.504C210.529 141.066 209.362 139.9 207.923 139.9H176.917C175.48 139.9 174.313 141.066 174.313 142.504V182.69H171.197C169.759 182.69 168.593 183.854 168.593 185.293C168.593 186.733 169.759 187.899 171.197 187.899H176.917H207.923H213.644C215.083 187.899 216.249 186.733 216.249 185.293C216.249 183.854 215.083 182.69 213.644 182.69Z" fill="white"/>
<path fill-rule="evenodd" clip-rule="evenodd" d="M312.739 182.69H338.537V169.435H312.739V182.69ZM312.739 164.225H338.537V145.11H312.739V164.225ZM346.862 182.69H343.745V142.504C343.745 141.066 342.579 139.9 341.141 139.9H310.133C308.696 139.9 307.53 141.066 307.53 142.504V182.69H304.413C302.975 182.69 301.809 183.854 301.809 185.293C301.809 186.733 302.975 187.899 304.413 187.899H310.133H341.141H346.862C348.299 187.899 349.466 186.733 349.466 185.293C349.466 183.854 348.299 182.69 346.862 182.69Z" fill="white"/>
<path fill-rule="evenodd" clip-rule="evenodd" d="M282.349 148.83H236.949C235.079 148.83 233.556 150.353 233.556 152.223V219.213H155.874V107.734H364.688V219.213H285.742V152.223C285.742 150.353 284.22 148.83 282.349 148.83ZM371.182 100.945H157.751L184.719 41.6712H344.215L371.182 100.945ZM166.16 66.0775L150.296 100.945H42.1024L57.9669 66.0775H166.16ZM140.201 137.348H59.7016C57.83 137.348 56.3072 138.869 56.3072 140.741V219.213H50.009V107.734H149.087V219.213H143.594V140.741C143.594 138.869 142.071 137.348 140.201 137.348ZM63.0934 155.668H136.805V144.136H63.0934V155.668ZM63.0934 166.832H136.805V162.456H63.0934V166.832ZM63.0934 177.25H136.805V173.619H63.0934V177.25ZM63.0934 187.67H136.805V184.039H63.0934V187.67ZM63.0934 198.089H136.805V194.458H63.0934V198.089ZM63.0934 208.507H136.805V204.876H63.0934V208.507ZM63.0934 219.213H136.805V215.296H63.0934V219.213ZM240.344 218.323H278.954V155.618H240.344V218.323ZM414.319 167.266C410.729 164.135 406.481 162.211 402.01 161.686C400.53 158.399 396.165 151.812 384.938 151.76C378.852 151.76 374.253 154.269 371.477 159.057V107.734H376.455C377.613 107.734 378.68 107.152 379.309 106.175C379.936 105.2 380.024 103.986 379.543 102.935L349.49 36.8723C348.941 35.6651 347.729 34.8839 346.402 34.8839H311.37V32.2154H318.612C320.483 32.2154 322.006 30.6926 322.006 28.821C322.006 26.9509 320.483 25.4281 318.612 25.4281H311.37V13.9807H320.441L320.016 16.3068C319.855 17.1984 320.049 18.1011 320.565 18.8459C321.081 19.5908 321.858 20.091 322.746 20.252C324.613 20.5913 326.363 19.3367 326.696 17.5203L329.052 4.55955C329.387 2.71793 328.161 0.947327 326.321 0.612774C325.435 0.450232 324.529 0.642758 323.785 1.15879C323.037 1.67482 322.538 2.45124 322.374 3.34443L321.675 7.19337H311.37V3.39335C311.37 1.52175 309.847 -0.00109863 307.975 -0.00109863C306.105 -0.00109863 304.582 1.52175 304.582 3.39335V7.19337H295.455L295.933 4.55955C296.268 2.71793 295.043 0.947327 293.203 0.612774C291.366 0.271909 289.592 1.50123 289.255 3.34443L286.898 16.3068C286.736 17.1984 286.93 18.1011 287.446 18.8459C287.964 19.5908 288.74 20.091 289.627 20.252C291.492 20.5913 293.244 19.3367 293.577 17.5203L294.219 13.9807H304.582V20.2173H298.237C296.367 20.2173 294.844 21.7401 294.844 23.6117C294.844 25.4833 296.367 27.0062 298.237 27.0062H304.582V34.8839H182.534C181.207 34.8839 179.995 35.6651 179.445 36.8723L169.246 59.2905H55.7808C54.4536 59.2905 53.2401 60.0701 52.6925 61.2789L33.7413 102.935C33.26 103.99 33.35 105.203 33.9749 106.177C34.603 107.151 35.6713 107.734 36.8296 107.734H43.2209V157.793C40.3898 153.833 36.0611 151.76 30.4857 151.76C19.3555 151.812 14.9953 158.399 13.5151 161.686C9.04437 162.211 4.79618 164.135 1.20605 167.266C-0.203178 168.495 -0.351518 170.645 0.880963 172.055C2.06768 173.411 4.31171 173.564 5.66886 172.382C8.68299 169.751 12.2463 168.348 15.9706 168.323C17.4966 168.314 18.8364 167.277 19.2293 165.803C20.6448 160.486 25.9882 158.569 30.5915 158.549C35.5924 158.549 38.2862 160.823 39.5992 166.15C39.828 167.086 40.4497 167.883 41.3003 168.337C41.8937 168.651 42.5596 168.781 43.2209 168.718V219.213H5.70989C3.83986 219.213 2.31702 220.734 2.31702 222.606C2.31702 224.478 3.83986 226 5.70989 226H407.576C409.446 226 410.969 224.478 410.969 222.606C410.969 220.734 409.446 219.213 407.576 219.213H371.477V168.532C372.375 168.858 373.379 168.787 374.226 168.336C375.075 167.883 375.695 167.086 375.926 166.15C377.239 160.823 379.933 158.549 385.009 158.549C389.537 158.569 394.88 160.486 396.296 165.803C396.689 167.277 398.028 168.314 399.554 168.323C403.279 168.348 406.842 169.751 409.856 172.38C411.209 173.562 413.454 173.414 414.646 172.055C415.875 170.645 415.728 168.495 414.319 167.266Z" fill="white"/>
</g>
</svg>
