<svg width="46" height="46" viewBox="0 0 46 46" fill="none" xmlns="http://www.w3.org/2000/svg">
<path d="M2.57405 26.1948L6.65856 26.5885C7.08781 28.3359 7.79039 30.0045 8.74031 31.5326L6.13839 34.6742C6.03752 34.796 5.98573 34.951 5.99315 35.109C6.00057 35.267 6.06665 35.4165 6.17848 35.5283L10.499 39.849C10.6109 39.9608 10.7604 40.0269 10.9184 40.0343C11.0764 40.0417 11.2314 39.9899 11.3532 39.889L14.4995 37.2833C16.0289 38.2281 17.6948 38.9315 19.4386 39.3686L19.8323 43.4396C19.8481 43.5953 19.9219 43.7393 20.039 43.8431C20.1561 43.9469 20.308 44.0029 20.4644 43.9999H26.5898C26.7462 44.0029 26.8981 43.9469 27.0152 43.8431C27.1323 43.7392 27.2061 43.5952 27.2219 43.4394L27.6156 39.3618C29.3628 38.9337 31.0313 38.2323 32.5596 37.2835L35.7016 39.8871C35.8233 39.988 35.9783 40.04 36.1362 40.0327C36.2942 40.0254 36.4438 39.9595 36.5557 39.8478L40.8763 35.5276C40.988 35.4158 41.0541 35.2663 41.0615 35.1084C41.0689 34.9505 41.0171 34.7955 40.9163 34.6737L38.3107 31.5274C39.2556 29.9979 39.959 28.3317 40.3961 26.5878L44.4267 26.1946C44.5837 26.1793 44.7293 26.1061 44.8353 25.9893C44.9413 25.8724 45 25.7203 45 25.5626V19.4372C45 19.2794 44.9412 19.1272 44.835 19.0103C44.7289 18.8935 44.5831 18.8203 44.4259 18.8052L40.3414 18.4115C39.912 16.6643 39.2093 14.9958 38.2593 13.4679L40.8612 10.3258C40.9616 10.2046 41.0134 10.0503 41.0065 9.89304C40.9996 9.73576 40.9346 9.58664 40.824 9.47461L36.558 5.15413C36.4464 5.0411 36.2966 4.97398 36.1379 4.96602C35.9793 4.95806 35.8235 5.00983 35.7011 5.11113L32.5546 7.71688C31.0252 6.77203 29.3593 6.06867 27.6156 5.63157L27.2219 1.56056C27.2061 1.40485 27.1323 1.26075 27.0152 1.15692C26.8981 1.05309 26.7462 0.99711 26.5898 1.00011H20.4644C20.3079 0.997131 20.156 1.05311 20.0389 1.15694C19.9218 1.26077 19.8481 1.40485 19.8323 1.56056L19.4386 5.63819C17.6916 6.06631 16.0231 6.76773 14.495 7.71652L11.3529 5.11294C11.2312 5.01193 11.0762 4.95997 10.9182 4.96722C10.7602 4.97447 10.6106 5.04041 10.4987 5.15213L6.17848 9.47234C6.06673 9.58414 6.00069 9.73359 5.99327 9.8915C5.98586 10.0494 6.0376 10.2044 6.13839 10.3262L8.74403 13.4725C7.79914 15.0019 7.09577 16.6678 6.65874 18.4116L2.57405 18.8052C2.41693 18.8203 2.27108 18.8935 2.16495 19.0103C2.05882 19.1272 2.00002 19.2794 2 19.4372V25.5627C1.99999 25.7206 2.05879 25.8728 2.16492 25.9896C2.27106 26.1065 2.41691 26.1797 2.57405 26.1948ZM3.27003 20.0144L7.23533 19.6322C7.36936 19.6192 7.49581 19.5641 7.59642 19.4746C7.69703 19.3851 7.76659 19.2659 7.79505 19.1343C8.21992 17.2228 8.98716 15.404 10.0597 13.7658C10.1328 13.6524 10.168 13.5186 10.16 13.3839C10.1519 13.2492 10.1012 13.1205 10.0152 13.0166L7.48535 9.96112L10.9884 6.45809L14.0433 8.988C14.1485 9.07512 14.279 9.12599 14.4154 9.13306C14.5518 9.14014 14.6869 9.10304 14.8005 9.02728C16.4318 7.94795 18.2497 7.18177 20.1614 6.76789C20.2921 6.74241 20.411 6.67554 20.5007 6.57719C20.5904 6.47883 20.646 6.35421 20.6594 6.22177L21.0414 2.27015H26.0133L26.3955 6.22177C26.4087 6.355 26.4641 6.48053 26.5536 6.58001C26.6432 6.67949 26.7623 6.74771 26.8934 6.77469C28.8047 7.19829 30.6235 7.96438 32.2619 9.0359C32.3755 9.10885 32.5094 9.14371 32.6441 9.1354C32.7788 9.1271 32.9074 9.07607 33.0112 8.98973L36.063 6.46127L39.5166 9.95876L36.9844 13.0164C36.8973 13.1216 36.8464 13.252 36.8394 13.3884C36.8323 13.5248 36.8694 13.6599 36.9451 13.7735C38.0244 15.4048 38.7906 17.2227 39.2045 19.1344C39.233 19.266 39.3025 19.3852 39.4031 19.4747C39.5037 19.5641 39.6302 19.6193 39.7642 19.6323L43.7295 20.0144V24.987L39.8182 25.3687C39.6843 25.3817 39.558 25.437 39.4576 25.5264C39.3571 25.6159 39.2876 25.7349 39.2592 25.8664C38.8343 27.7779 38.0671 29.5967 36.9946 31.2349C36.9214 31.3483 36.8863 31.4821 36.8942 31.6168C36.9022 31.7515 36.9529 31.8802 37.039 31.9842L39.569 35.0392L36.0659 38.5423L33.0109 36.0124C32.9057 35.9252 32.7752 35.8743 32.6388 35.8673C32.5024 35.8602 32.3673 35.8973 32.2536 35.9731C30.6225 37.0524 28.8047 37.8186 26.8931 38.2325C26.7625 38.258 26.6435 38.3248 26.5539 38.4232C26.4642 38.5216 26.4086 38.6462 26.3953 38.7786L26.0131 42.7299H21.0414L20.6593 38.7782C20.6461 38.645 20.5907 38.5195 20.5011 38.42C20.4115 38.3205 20.2925 38.2523 20.1613 38.2253C18.2501 37.8017 16.4313 37.0356 14.7929 35.964C14.6793 35.8911 14.5454 35.8562 14.4107 35.8646C14.2759 35.8729 14.1474 35.9239 14.0436 36.0103L10.9886 38.5413L7.48535 35.0384L10.0152 31.9836C10.1022 31.8784 10.1531 31.748 10.1602 31.6116C10.1673 31.4752 10.1302 31.3402 10.0544 31.2265C8.97512 29.5952 8.20894 27.7773 7.79505 25.8656C7.76659 25.734 7.69703 25.6148 7.59642 25.5253C7.49581 25.4359 7.36936 25.3807 7.23533 25.3677L3.27003 24.9856V20.0144Z" fill="#006695"/>
<path d="M17.5221 23.6489L17.1307 24.8991C17.1098 24.9554 17.0972 25.0141 17.0933 25.0737V29.1761C17.0986 29.6598 17.3022 30.1221 17.6603 30.4634C18.0183 30.8046 18.5021 30.9973 19.0073 31H19.9972C20.2443 30.9976 20.4885 30.9484 20.7157 30.8553C20.9429 30.7622 21.1486 30.627 21.321 30.4575C21.4935 30.288 21.6292 30.0875 21.7205 29.8676C21.8117 29.6477 21.8567 29.4127 21.8527 29.1761V25.0737C21.8587 25.0154 21.8559 24.9566 21.8444 24.8991L21.4737 23.6489C21.6321 23.6201 21.7736 23.5358 21.8704 23.4123C21.9672 23.2889 22.0124 23.1353 21.9971 22.9816C21.9817 22.8279 21.907 22.6853 21.7875 22.5816C21.6681 22.478 21.5125 22.4208 21.3512 22.4213H20.173V15.6255C20.173 15.4596 20.1041 15.3005 19.9816 15.1832C19.8591 15.0659 19.693 15 19.5197 15C19.3464 15 19.1803 15.0659 19.0578 15.1832C18.9353 15.3005 18.8664 15.4596 18.8664 15.6255V22.4213H17.6533C17.492 22.4198 17.336 22.4761 17.2157 22.579C17.0955 22.682 17.0198 22.8242 17.0034 22.9778C16.9869 23.1314 17.031 23.2854 17.127 23.4095C17.2229 23.5337 17.3638 23.619 17.5221 23.6489ZM18.3998 25.1628L18.8789 23.6724H20.1256L20.5462 25.1628V29.1761C20.5462 29.4847 20.3195 29.7489 19.9972 29.7489H19.0073C18.8485 29.7466 18.6968 29.6858 18.5837 29.5791C18.4705 29.4724 18.4047 29.3281 18.3998 29.1761V25.1628Z" fill="#006695"/>
<path d="M24.2067 22.1179V29.2188C24.2067 29.6912 24.3971 30.1443 24.736 30.4783C25.0749 30.8123 25.5345 31 26.0137 31C26.4929 31 26.9526 30.8123 27.2914 30.4783C27.6303 30.1443 27.8207 29.6912 27.8207 29.2188V22.1179C29.0856 21.4521 30 20.089 30 18.6001C30.0013 17.8656 29.7938 17.1455 29.401 16.5213C29.0083 15.8972 28.446 15.394 27.778 15.0687C27.6783 15.0212 27.5683 14.9989 27.4578 15.0037C27.3473 15.0085 27.2397 15.0403 27.1447 15.0962C27.0508 15.1512 26.9725 15.2285 26.9169 15.3211C26.8614 15.4138 26.8304 15.5187 26.8268 15.6262V17.1972L25.9897 17.7569L25.1088 17.1441L25.1178 15.6264C25.1187 15.5201 25.0919 15.4154 25.04 15.3222C24.9881 15.2291 24.9128 15.1506 24.8214 15.0943C24.7299 15.038 24.6253 15.0058 24.5176 15.0007C24.4099 14.9956 24.3027 15.0179 24.2062 15.0653C23.543 15.3937 22.9855 15.8974 22.5959 16.52C22.2063 17.1427 22 17.8599 22 18.5914C22 19.323 22.2063 20.0401 22.5959 20.6628C22.9855 21.2855 23.543 21.7891 24.2062 22.1175L24.2067 22.1179ZM23.8524 16.9072L23.8505 17.4659C23.8501 17.5665 23.8745 17.6657 23.9215 17.755C23.9685 17.8443 24.0367 17.9211 24.1204 17.9788L25.6336 19.0224C25.7379 19.0943 25.8617 19.1335 25.9889 19.135C26.1161 19.1364 26.2408 19.1 26.3467 19.0305L27.8251 18.05C27.9099 17.9923 27.9787 17.9145 28.0252 17.8239C28.0718 17.7333 28.0946 17.6326 28.0917 17.5311V16.9082C28.5435 17.3778 28.7088 17.9694 28.7088 18.6003C28.7111 19.1482 28.5438 19.6837 28.2292 20.1355C27.9147 20.5872 27.4679 20.9336 26.9485 21.1285C26.8299 21.1739 26.7285 21.2544 26.6582 21.3589C26.5879 21.4634 26.5521 21.5868 26.5558 21.7121V29.2188C26.5558 29.3606 26.4987 29.4965 26.397 29.5967C26.2954 29.6969 26.1575 29.7532 26.0137 29.7532C25.8699 29.7532 25.732 29.6969 25.6304 29.5967C25.5287 29.4965 25.4716 29.3606 25.4716 29.2188V21.7121C25.4684 21.5837 25.4259 21.4593 25.3497 21.3551C25.2736 21.2509 25.1673 21.1717 25.0447 21.1281C24.5223 20.9345 24.0717 20.5892 23.7527 20.1377C23.4337 19.6863 23.2612 19.15 23.2581 18.5999C23.2534 17.9852 23.4633 17.3876 23.8524 16.9072Z" fill="#006695"/>
</svg>
