<svg width="29" height="39" viewBox="0 0 29 39" fill="none" xmlns="http://www.w3.org/2000/svg">
<path fill-rule="evenodd" clip-rule="evenodd" d="M6.69232 4.33074H22.3077C22.7389 4.33074 23.0885 4.6803 23.0885 5.11151V37.4577H24.5385V5.11151C24.5385 3.87949 23.5397 2.88074 22.3077 2.88074H6.69232C5.4603 2.88074 4.46155 3.87949 4.46155 5.11151V37.4577H5.91155V5.11151C5.91155 4.6803 6.26111 4.33074 6.69232 4.33074Z" fill="#006695"/>
<path d="M0 38.1826C0 37.7822 0.383611 37.4576 0.856818 37.4576H28.1432C28.6164 37.4576 29 37.7822 29 38.1826C29 38.583 28.6164 38.9076 28.1432 38.9076H0.856817C0.38361 38.9076 0 38.583 0 38.1826Z" fill="#006695"/>
<path d="M7.80768 23.6826C7.80768 23.2822 8.13227 22.9576 8.53268 22.9576H10.4288C10.8292 22.9576 11.1538 23.2822 11.1538 23.6826C11.1538 24.083 10.8292 24.4076 10.4288 24.4076H8.53268C8.13227 24.4076 7.80768 24.083 7.80768 23.6826Z" fill="#006695"/>
<circle cx="14.65" cy="13.65" r="0.65" fill="#006695"/>
<path fill-rule="evenodd" clip-rule="evenodd" d="M5.23075 0C3.21491 0 1.58075 1.63416 1.58075 3.65V37.4577H2.88075V3.65C2.88075 2.35213 3.93288 1.3 5.23075 1.3H23.7692C25.0671 1.3 26.1192 2.35213 26.1192 3.65V37.4577H27.4192V3.65C27.4192 1.63416 25.785 0 23.7692 0H5.23075Z" fill="#006695"/>
</svg>
