<svg width="41" height="44" viewBox="0 0 41 44" fill="none" xmlns="http://www.w3.org/2000/svg">
<path d="M4.69995 0.650002C4.69995 0.291017 4.99097 0 5.34995 0C5.70894 0 5.99995 0.291015 5.99995 0.65V43.35C5.99995 43.709 5.70894 44 5.34995 44C4.99097 44 4.69995 43.709 4.69995 43.35V0.650002Z" fill="#006695"/>
<path d="M7.69995 8.65C7.69995 8.29101 7.99097 8 8.34995 8C8.70894 8 8.99995 8.29101 8.99995 8.65V14.35C8.99995 14.709 8.70894 15 8.34995 15C7.99097 15 7.69995 14.709 7.69995 14.35V8.65Z" fill="#006695"/>
<path d="M7.69995 26.65C7.69995 26.291 7.99097 26 8.34995 26C8.70894 26 8.99995 26.291 8.99995 26.65V32.35C8.99995 32.709 8.70894 33 8.34995 33C7.99097 33 7.69995 32.709 7.69995 32.35V26.65Z" fill="#006695"/>
<path d="M11.05 5C11.4089 5 11.7 5.29101 11.7 5.65C11.7 6.00899 11.4089 6.3 11.05 6.3L5.34995 6.3C4.99097 6.3 4.69995 6.00898 4.69995 5.65C4.69995 5.29101 4.99097 5 5.34995 5L11.05 5Z" fill="#006695"/>
<path d="M11.05 37C11.4089 37 11.7 37.291 11.7 37.65C11.7 38.009 11.4089 38.3 11.05 38.3L5.34995 38.3C4.99097 38.3 4.69995 38.009 4.69995 37.65C4.69995 37.291 4.99097 37 5.34995 37L11.05 37Z" fill="#006695"/>
<path fill-rule="evenodd" clip-rule="evenodd" d="M19.7 1.3H13.7C12.7611 1.3 12 2.06112 12 3V41C12 41.9389 12.7611 42.7 13.7 42.7H19.7C20.6388 42.7 21.4 41.9389 21.4 41V3C21.4 2.06112 20.6388 1.3 19.7 1.3ZM13.7 0C12.0431 0 10.7 1.34315 10.7 3V41C10.7 42.6569 12.0431 44 13.7 44H19.7C21.3568 44 22.7 42.6569 22.7 41V3C22.7 1.34315 21.3568 0 19.7 0H13.7Z" fill="#006695"/>
<path fill-rule="evenodd" clip-rule="evenodd" d="M38.7 13.3H15.7C15.3134 13.3 15 13.6134 15 14V17C15 17.3866 15.3134 17.7 15.7 17.7H38.7C39.0865 17.7 39.4 17.3866 39.4 17V14C39.4 13.6134 39.0865 13.3 38.7 13.3ZM15.7 12C14.5954 12 13.7 12.8954 13.7 14V17C13.7 18.1046 14.5954 19 15.7 19H38.7C39.8045 19 40.7 18.1046 40.7 17V14C40.7 12.8954 39.8045 12 38.7 12H15.7Z" fill="#006695"/>
<path fill-rule="evenodd" clip-rule="evenodd" d="M3.3 9.3V13.7H4.7V9.3H3.3ZM3 8C2.44772 8 2 8.44772 2 9V14C2 14.5523 2.44772 15 3 15H5C5.55228 15 6 14.5523 6 14V9C6 8.44772 5.55228 8 5 8H3Z" fill="#006695"/>
<path fill-rule="evenodd" clip-rule="evenodd" d="M1.3 27.3V31.7H4.7V27.3H1.3ZM1 26C0.447715 26 0 26.4477 0 27V32C0 32.5523 0.447715 33 1 33H5C5.55228 33 6 32.5523 6 32V27C6 26.4477 5.55228 26 5 26H1Z" fill="#006695"/>
<path fill-rule="evenodd" clip-rule="evenodd" d="M17.4 29.655L17.833 29.2674C18.1828 28.9543 18.4 28.5034 18.4 28C18.4 27.0611 17.6388 26.3 16.7 26.3C15.7611 26.3 15 27.0611 15 28C15 28.5034 15.2171 28.9543 15.5669 29.2674L16 29.655V33.7H17.4V29.655ZM18.7 30.2361V34C18.7 34.5523 18.2522 35 17.7 35H15.7C15.1477 35 14.7 34.5523 14.7 34V30.2361C14.0862 29.6868 13.7 28.8885 13.7 28C13.7 26.3431 15.0431 25 16.7 25C18.3568 25 19.7 26.3431 19.7 28C19.7 28.8885 19.3137 29.6868 18.7 30.2361Z" fill="#006695"/>
</svg>
