<svg width="52" height="37" viewBox="0 0 52 37" fill="none" xmlns="http://www.w3.org/2000/svg">
<path fill-rule="evenodd" clip-rule="evenodd" d="M47.2332 1.46129H31.4963C31.0617 1.46129 30.7094 1.81357 30.7094 2.24814V34.8462H29.2481V2.24814C29.2481 1.00653 30.2547 0 31.4963 0H47.2332C48.4749 0 49.4814 1.00653 49.4814 2.24814V34.8462H48.0201V2.24814C48.0201 1.81357 47.6678 1.46129 47.2332 1.46129Z" fill="#006695"/>
<path d="M51.7295 35.5768C51.7295 35.1733 51.4024 34.8462 50.9988 34.8462H27.7306C27.3271 34.8462 27 35.1733 27 35.5768C27 35.9804 27.3271 36.3075 27.7306 36.3075H50.9988C51.4024 36.3075 51.7295 35.9804 51.7295 35.5768Z" fill="#006695"/>
<path d="M46.1091 20.9639C46.1091 20.5604 45.782 20.2333 45.3785 20.2333H43.4676C43.064 20.2333 42.7369 20.5604 42.7369 20.9639C42.7369 21.3674 43.064 21.6946 43.4676 21.6946H45.3785C45.782 21.6946 46.1091 21.3674 46.1091 20.9639Z" fill="#006695"/>
<path fill-rule="evenodd" clip-rule="evenodd" d="M20.2333 1.46129H4.49633C4.06177 1.46129 3.70948 1.81357 3.70948 2.24814V34.8462H2.24819V2.24814C2.24819 1.00653 3.25472 0 4.49633 0H20.2333C21.4749 0 22.4814 1.00653 22.4814 2.24814V34.8462H21.0202V2.24814C21.0202 1.81357 20.6679 1.46129 20.2333 1.46129Z" fill="#006695"/>
<path d="M24.7296 35.5768C24.7296 35.1733 24.4024 34.8462 23.9989 34.8462H0.730671C0.327145 34.8462 2.47955e-05 35.1733 2.47955e-05 35.5768C2.47955e-05 35.9804 0.327147 36.3075 0.730671 36.3075H23.9989C24.4024 36.3075 24.7296 35.9804 24.7296 35.5768Z" fill="#006695"/>
<path d="M19.1092 20.9639C19.1092 20.5604 18.7821 20.2333 18.3785 20.2333H16.4676C16.0641 20.2333 15.737 20.5604 15.737 20.9639C15.737 21.3674 16.0641 21.6946 16.4676 21.6946H18.3785C18.7821 21.6946 19.1092 21.3674 19.1092 20.9639Z" fill="#006695"/>
<rect x="33" y="35" width="35" height="1.3" transform="rotate(-90 33 35)" fill="#006695"/>
<rect x="30" y="31" width="19" height="1.3" fill="#006695"/>
<circle cx="39.65" cy="10.65" r="0.65" fill="#006695"/>
<circle cx="12.65" cy="10.65" r="0.65" fill="#006695"/>
</svg>
