<svg width="37" height="46" viewBox="0 0 37 46" fill="none" xmlns="http://www.w3.org/2000/svg">
<path fill-rule="evenodd" clip-rule="evenodd" d="M32.3499 10.4538H16.6129C16.1783 10.4538 15.826 10.8061 15.826 11.2407V43.8387H14.3647V11.2407C14.3647 9.99908 15.3713 8.99255 16.6129 8.99255H32.3499C33.5915 8.99255 34.598 9.99908 34.598 11.2407V43.8387H33.1367V11.2407C33.1367 10.8061 32.7844 10.4538 32.3499 10.4538Z" fill="#006695"/>
<circle cx="24.65" cy="20.65" r="0.65" fill="#006695"/>
<path d="M36.8461 44.5694C36.8461 44.1659 36.519 43.8387 36.1155 43.8387H12.8472C12.4437 43.8387 12.1166 44.1659 12.1166 44.5694C12.1166 44.9729 12.4437 45.3 12.8472 45.3H36.1155C36.519 45.3 36.8461 44.9729 36.8461 44.5694Z" fill="#006695"/>
<path d="M31.2258 29.9565C31.2258 29.553 30.8987 29.2258 30.4951 29.2258H28.5842C28.1807 29.2258 27.8536 29.553 27.8536 29.9565C27.8536 30.36 28.1807 30.6871 28.5842 30.6871H30.4951C30.8987 30.6871 31.2258 30.36 31.2258 29.9565Z" fill="#006695"/>
<circle cx="12.9268" cy="12.9268" r="12.2768" fill="#F2F7FA" stroke="#006695" stroke-width="1.3"/>
<rect x="5.62036" y="12.8257" width="1.46129" height="10.6787" rx="0.730645" fill="#006695"/>
<rect x="7.86847" y="6.03088" width="1.46129" height="11.2407" rx="0.730645" fill="#006695"/>
<rect x="7.57092" y="6.69507" width="1.46129" height="14.824" rx="0.730645" transform="rotate(-47.3457 7.57092 6.69507)" fill="#006695"/>
<rect x="18.5995" y="9.60266" width="1.46129" height="5.00211" rx="0.730645" fill="#006695"/>
<rect x="19.8549" y="9.17834" width="1.46129" height="14.7356" rx="0.730645" transform="rotate(75 19.8549 9.17834)" fill="#006695"/>
<rect x="25.1707" y="11.5874" width="1.46129" height="20.24" rx="0.730645" transform="rotate(75 25.1707 11.5874)" fill="#006695"/>
<rect x="19.6865" y="13.0569" width="1.46129" height="14.5623" rx="0.730645" transform="rotate(75 19.6865 13.0569)" fill="#006695"/>
<rect x="19.8418" y="14.8333" width="1.46129" height="3.6291" rx="0.730645" transform="rotate(75 19.8418 14.8333)" fill="#006695"/>
</svg>
