<svg width="19" height="18" viewBox="0 0 19 18" fill="none" xmlns="http://www.w3.org/2000/svg">
<path d="M13.5501 17.2626C14.6342 17.8293 15.6805 17.0745 15.4732 15.8731L14.6962 11.3677C14.7038 11.4116 17.9763 8.21185 17.9763 8.21185C18.8535 7.36162 18.4548 6.13891 17.2418 5.96361L12.6931 5.30627C12.7374 5.31268 10.6886 1.22869 10.6886 1.22869C10.1465 0.136426 8.85409 0.135595 8.3116 1.22869L6.27735 5.32775C6.29711 5.28786 1.75838 5.96361 1.75838 5.96361C0.546307 6.13877 0.146102 7.361 1.02383 8.21185L4.31528 11.4024C4.28328 11.3714 3.52693 15.8731 3.52693 15.8731C3.31988 17.0736 4.36506 17.8297 5.45 17.2626L9.51843 15.1354C9.47886 15.1562 13.5501 17.2626 13.5501 17.2626Z" fill="#F3BF57"/>
</svg>
