<svg width="30" height="30" viewBox="0 0 30 30" fill="none" xmlns="http://www.w3.org/2000/svg">
<path id="Shape" fill-rule="evenodd" clip-rule="evenodd" d="M15 0V3.75C10.4392 3.73879 6.32257 6.47989 4.57572 10.691C2.82887 14.9022 3.79722 19.7508 7.02779 22.9687L10.0901 19.9219C10.2832 19.7307 10.5717 19.6728 10.8237 19.7748C11.0757 19.8768 11.2427 20.119 11.2484 20.3906V29.0625C11.2484 29.5803 10.8285 30 10.3105 30H1.62075C1.34897 29.9943 1.10668 29.8274 1.00466 29.5755C0.902646 29.3237 0.960511 29.0353 1.1518 28.8422L4.39227 25.6031C0.103368 21.3133 -1.17917 14.864 1.14235 9.26068C3.46387 3.65741 8.93259 0.00281143 15 0ZM28.8576 20.7393C31.1792 15.136 29.8966 8.68673 25.6077 4.39688L28.881 1.12969C29.0713 0.94062 29.1284 0.65535 29.0256 0.407631C28.9228 0.159912 28.6804 -0.00113297 28.4121 7.62939e-06H19.7036C19.1856 7.62939e-06 18.7657 0.419739 18.7657 0.937508V9.6375C18.7646 9.9057 18.9257 10.148 19.1735 10.2508C19.4213 10.3536 19.7067 10.2965 19.8959 10.1063L22.9722 7.03125C26.2028 10.2492 27.1711 15.0978 25.4243 19.309C23.6774 23.5201 19.5608 26.2612 15 26.25V30C21.0674 29.9972 26.5361 26.3426 28.8576 20.7393Z" fill="#006695"/>
</svg>
