<svg width="90" height="90" viewBox="0 0 90 90" fill="none" xmlns="http://www.w3.org/2000/svg">
<g clip-path="url(#clip0)">
<path d="M88.1457 23.3956C87.1082 19.5401 84.0684 16.501 80.2136 15.4628C73.1707 13.5354 44.9991 13.5354 44.9991 13.5354C44.9991 13.5354 16.8282 13.5354 9.78534 15.3893C6.00469 16.4269 2.89077 19.5408 1.85325 23.3956C0 30.4378 0 45.0427 0 45.0427C0 45.0427 0 59.721 1.85325 66.6898C2.89145 70.5446 5.93053 73.5844 9.78603 74.6226C16.9024 76.55 44.9998 76.55 44.9998 76.55C44.9998 76.55 73.1707 76.55 80.2136 74.696C84.0691 73.6585 87.1082 70.6188 88.1464 66.7639C89.9996 59.721 89.9996 45.1168 89.9996 45.1168C89.9996 45.1168 90.0738 30.4378 88.1457 23.3956Z" fill="#FF0000"/>
<path d="M36.0295 58.5352L59.4558 45.0426L36.0295 31.55V58.5352Z" fill="white"/>
</g>
<defs>
<clipPath id="clip0">
<rect width="90" height="90" fill="white"/>
</clipPath>
</defs>
</svg>
