<svg width="23" height="22" viewBox="0 0 23 22" fill="none" xmlns="http://www.w3.org/2000/svg">
<path d="M16.4027 21.0986C17.7151 21.7913 18.9815 20.8687 18.7307 19.4003L17.7901 13.8938C17.7992 13.9474 21.7607 10.0366 21.7607 10.0366C22.8225 8.99742 22.3399 7.503 20.8716 7.28875L15.3652 6.48533C15.4188 6.49317 12.9387 1.50162 12.9387 1.50162C12.2826 0.166633 10.718 0.165617 10.0613 1.50162L7.59882 6.51158C7.62274 6.46283 2.12849 7.28875 2.12849 7.28875C0.661241 7.50283 0.176782 8.99667 1.2393 10.0366L5.22368 13.9362C5.18494 13.8983 4.26937 19.4003 4.26937 19.4003C4.01872 20.8676 5.28394 21.7918 6.59729 21.0986L11.5222 18.4987C11.4743 18.5241 16.4027 21.0986 16.4027 21.0986Z" fill="#F3BF57"/>
</svg>
