<svg width="509" height="147" viewBox="0 0 509 147" fill="none" xmlns="http://www.w3.org/2000/svg">
<g clip-path="url(#clip0)">
<path d="M413.851 1.56395C411.369 1.56395 408.893 1.52719 406.418 1.49516C399.692 1.416 392.015 2.0285 385.585 3.62572C380.275 4.89464 375.024 6.39972 369.848 8.13654C367.507 8.92929 365.239 9.92336 363.069 11.1076C361.932 11.7851 360.896 12.6208 359.993 13.5897L359.953 13.6274C359.702 13.9035 358.831 14.9315 358.699 15.086C348.764 26.8018 379.314 30.6257 393.684 31.8139C384.76 41.2822 380.615 53.078 379.869 64.9002C379.404 71.9368 379.941 79.004 381.465 85.8882C382.608 90.8994 384.766 96.3799 390.384 99.2822C393.784 101.044 397.857 101.657 401.956 101.944C401.947 103.377 401.549 104.788 400.793 106.083C391.816 107.606 382.575 107.223 373.432 107.276H362.573H359.84H358.56H355.484H354.389C351.484 107.313 348.58 107.371 345.681 107.483L345.457 106.658C345.194 105.762 344.91 104.639 343.689 104.288C341.364 103.633 340.236 105.795 339.958 107.28C338.856 107.329 337.761 107.339 336.658 107.329H335.272C334.493 107.329 333.727 107.276 332.962 107.232C332.493 107.232 332.037 107.185 331.575 107.153C330.474 107.082 329.374 107.001 328.275 106.908C327.905 106.876 327.536 106.849 327.166 106.818C324.017 106.551 320.868 106.252 317.72 106.099C307.931 105.625 298.121 105.704 288.326 105.976C278.529 106.248 268.72 106.834 258.911 106.897C248.805 106.961 238.785 106.035 228.771 105.05C228.615 105.036 228.459 105.052 228.309 105.097C228.018 103.622 227.141 101.87 225.008 101.972C222.876 102.072 221.965 103.968 221.569 105.518C219.444 105.475 217.305 105.443 215.166 105.417H213.886L209.582 105.385H208.499C197.727 105.342 186.947 105.449 176.194 105.385C167.868 105.353 159.541 105.322 151.215 105.294C142.601 105.294 133.828 104.874 125.227 105.353C124.911 103.793 124.085 102.392 122.019 101.743C119.827 101.05 118.435 102.355 117.848 103.963C117.598 104.654 117.413 105.368 117.294 106.093C115.603 105.983 113.917 105.876 112.236 105.773C111.945 105.773 111.656 105.736 111.372 105.72C111.088 105.704 110.929 105.72 110.711 105.682L109.841 105.635C108.936 105.582 108.025 105.534 107.121 105.491C106.823 105.491 106.527 105.459 106.243 105.444C94.1096 104.83 81.9668 104.556 69.8119 104.624C56.4971 104.703 43.1692 105.028 29.8554 104.938H29.3079C25.5627 104.912 21.8222 104.847 18.0855 104.74L18.046 104.32C17.8619 102.498 17.4854 100.485 14.8061 100.251C12.1249 100.017 10.8909 102.349 10.6796 104.139L10.627 104.671C7.64344 104.506 4.6533 104.336 1.66974 104.176C1.095 104.145 0.421652 104.581 1.31945 104.628L10.5603 105.161C10.3096 108.559 10.7857 112.084 10.8909 115.493C11.0956 122.607 11.4318 129.733 11.5511 136.853C10.2439 136.523 8.8812 136.354 7.51103 136.353C4.97636 136.385 3.03615 137.349 0.4348 136.566C0.289237 136.518 -0.138999 136.603 0.0450672 136.778C0.969156 137.658 2.3891 137.726 3.75457 137.604C4.85803 137.497 5.8873 137.14 6.98324 137.072C8.50461 137.008 10.026 137.189 11.4591 137.604C11.4121 139.59 10.8449 142.397 13.003 143.802C14.1121 144.505 15.8814 144.581 16.7923 143.563C17.7032 142.545 17.4525 140.405 17.6112 139.148L17.7295 137.987C50.4642 142.914 83.7399 137.556 116.699 140.022C116.795 141.194 117.174 142.325 117.802 143.318C117.856 143.385 117.934 143.429 118.019 143.441C119.063 144.586 120.869 145.102 122.574 144.741C124.819 144.176 125.003 142.046 124.903 140.102C130.31 140.464 135.783 140.56 141.228 140.634H144.37C145.579 140.634 146.786 140.677 147.988 140.703C153.361 140.828 158.739 140.918 164.121 140.975H165.48C168.596 141.018 171.726 141.044 174.834 141.059C190.379 141.145 206.143 141.412 221.701 140.757C221.791 141.502 221.903 142.244 222.038 142.983C222.026 143.004 222.021 143.028 222.021 143.052C222.021 143.076 222.026 143.1 222.038 143.121C222.401 144.756 223.728 146.817 226.263 146.002C228.514 145.272 228.692 142.663 228.573 140.404L228.533 139.873C246.521 141.193 264.78 140.757 282.827 141.023C301.402 141.3 319.944 141.896 338.5 142.663C338.394 143.728 338.414 144.9 339.067 145.746C339.84 146.758 341.82 147.345 343.173 146.78C344.526 146.215 344.988 144.841 345.213 143.419C350.66 143.664 357.689 143.446 362.581 143.462C368.244 143.462 373.91 143.476 379.579 143.505C390.522 143.505 401.686 144.037 412.544 142.626C423.996 141.172 435.37 141.514 446.935 141.561C458.663 141.618 470.391 141.682 482.119 141.753C482.311 142.617 482.638 143.446 483.089 144.208C483.127 144.258 483.174 144.301 483.228 144.333C483.283 144.365 483.343 144.386 483.405 144.394C483.871 144.879 484.603 145.146 485.362 145.108C486.119 145.071 486.806 144.734 487.195 144.208C487.603 143.646 487.833 142.974 487.855 142.28C494.654 142.318 501.451 142.05 508.212 141.476C509.005 141.412 509.01 140.73 508.212 140.773C501.439 141.156 494.674 141.385 487.901 141.678C487.901 140.549 487.716 139.372 487.736 138.483C487.795 135.879 487.867 133.274 487.921 130.67C488.04 125.292 488.106 119.913 487.921 114.534C487.842 112.113 487.707 109.688 487.518 107.26C487.459 106.413 487.518 105.22 487.399 104.128C490.031 103.916 492.675 103.819 495.321 103.84C498.937 103.936 502.364 104.607 505.935 104.938C506.272 104.969 506.767 104.666 506.259 104.506C500.759 102.775 493.268 102.593 487.274 103.532C487.163 103.027 486.922 102.56 486.574 102.179C485.34 100.907 482.739 100.869 481.736 102.36C481.299 103.179 481.072 104.094 481.075 105.023C479.209 104.947 477.338 104.895 475.458 104.863H474.19C467.444 104.735 460.685 104.767 453.939 104.698H452.751H451.859C450.097 104.666 448.321 104.618 446.545 104.565H445.707C439.436 104.373 433.092 104.208 426.953 104.703C426.703 104.174 426.513 103.618 426.386 103.047C428.272 103.06 430.148 102.83 431.944 102.365C445.885 98.5472 451.232 85.6592 452.077 74.9556C452.709 66.7528 452.687 58.5255 452.012 50.3246C451.509 44.2693 450.143 38.231 446.909 32.7506C456.275 32.3407 465.774 31.5529 474.772 29.8426C482.693 28.3415 488.633 22.1958 485.994 15.5073C485.806 15.0135 485.556 14.5367 485.247 14.0844C485.142 13.9251 485.029 13.7706 484.911 13.6217C483.069 11.3366 479.901 10.235 476.567 9.29179C470.843 7.70074 465.039 6.41551 459.18 5.44153C448.869 3.67941 438.163 2.21414 427.62 1.81554C425.218 1.72414 422.802 1.66571 420.359 1.62331C419.957 -0.650482 413.574 -0.411148 413.851 1.56488V1.56395Z" fill="white"/>
<path d="M394.632 32.1766C396.889 32.3575 398.698 32.4687 399.793 32.5328C400.375 32.5648 400.961 32.6025 401.543 32.6289C401.998 32.6609 402.454 32.6826 402.916 32.709C414.586 33.3375 426.296 33.6193 437.994 33.3422L437.643 32.8522C430.251 33.0548 422.857 33.0068 415.471 32.7674C411.437 32.6346 407.345 32.5328 403.245 32.3679C402.783 32.3679 402.321 32.3358 401.853 32.3151C399.516 32.2133 397.18 32.0908 394.85 31.9316C394.773 32.0099 394.701 32.0917 394.632 32.1766ZM394.632 32.1766C396.889 32.3575 398.698 32.4687 399.793 32.5328C400.375 32.5648 400.961 32.6025 401.543 32.6289L401.853 32.3151C399.516 32.2133 397.18 32.0908 394.85 31.9316C394.773 32.0099 394.701 32.0917 394.632 32.1766ZM394.632 32.1766C396.889 32.3575 398.698 32.4687 399.793 32.5328C400.375 32.5648 400.961 32.6025 401.543 32.6289L401.853 32.3151C399.516 32.2133 397.18 32.0908 394.85 31.9316C394.773 32.0099 394.701 32.0917 394.632 32.1766ZM385.859 3.9215C380.56 5.18589 375.321 6.68532 370.155 8.41537C367.814 9.20782 365.546 10.2016 363.376 11.3855C362.239 12.0628 361.203 12.8981 360.3 13.8666L360.247 13.9203C359.99 14.1974 359.125 15.2245 358.992 15.379C349.058 27.0919 379.608 30.9148 393.978 32.1022C394.209 32.1022 394.44 32.1398 394.638 32.1549C396.896 32.3358 398.705 32.448 399.8 32.5121C400.381 32.5441 400.968 32.5808 401.549 32.6072C402.005 32.6393 402.46 32.6609 402.922 32.6873C414.593 33.3159 426.303 33.5976 438 33.3215C438.046 33.3187 438.092 33.3187 438.138 33.3215L439.459 33.2895C441.611 33.232 443.763 33.1591 445.914 33.0708C446.33 33.0708 446.746 33.0388 447.169 33.0237C456.529 32.6129 466.035 31.8251 475.031 30.1158C482.953 28.6147 488.861 22.4708 486.254 15.7833C486.066 15.2904 485.816 14.8136 485.507 14.3623C485.401 14.2021 485.289 14.0475 485.17 13.8987C483.329 11.6145 480.16 10.5129 476.827 9.57063C471.103 7.97997 465.299 6.69507 459.44 5.72131C449.129 3.9592 438.423 2.49485 427.88 2.09531C425.471 2.00485 423.063 1.94642 420.62 1.90402H419.346V1.98317C419.385 2.08796 419.396 2.20141 419.377 2.31186C419.359 2.42231 419.311 2.5258 419.239 2.6117H420.501C426.68 2.70593 432.85 3.06117 438.983 3.67649C449.974 4.80538 460.918 6.25842 471.546 8.83563C475.823 9.87406 481.593 10.8691 484.18 14.0749C484.638 14.6465 484.991 15.2956 485.223 15.9915C486.381 19.5271 485.345 23.2963 482.444 26.1072C478.57 29.6691 472.377 29.9612 466.965 30.6585C461.014 31.419 455.038 31.9822 449.05 32.3472C448.284 32.3943 447.525 32.4423 446.759 32.4857L445.519 32.5488C443.34 32.6609 441.169 32.7514 438.99 32.8155C438.528 32.8155 438.066 32.8419 437.604 32.8532C430.211 33.0548 422.817 33.0068 415.431 32.7674C411.398 32.6346 407.305 32.5328 403.206 32.3679C402.744 32.3679 402.282 32.3358 401.813 32.3151C399.477 32.2133 397.14 32.0908 394.809 31.9316L394.15 31.8845C389.411 31.5642 384.691 30.9971 380.011 30.1855C372.658 28.8644 352.147 24.7173 359.811 15.5863C359.917 15.4591 360.208 15.0539 360.313 14.9588V15.2132C360.775 14.7458 361.23 14.2558 361.706 13.7809C361.923 13.5641 362.141 13.3502 362.366 13.1429C362.653 12.8781 362.957 12.6256 363.277 12.3872C365.198 10.9756 367.963 9.97489 370.307 9.13906C374.221 7.73879 378.366 6.80685 382.4 5.6676C389.047 3.799 395.761 3.00558 402.783 2.56929C406.468 2.35068 410.202 2.45245 413.913 2.52689C413.948 2.52942 413.984 2.52942 414.019 2.52689H415.035L414.904 2.32428C414.84 2.21482 414.785 2.1008 414.738 1.98317L414.923 1.8343H414.652H414.104C411.622 1.8343 409.147 1.79659 406.671 1.76549C399.965 1.69576 392.288 2.32429 385.859 3.9215Z" fill="#777777"/>
<path d="M362.585 12.4315C362.572 12.5343 362.522 12.6289 362.446 12.6982C362.239 12.8697 362.079 13.0751 361.976 13.3022C361.156 15.0115 362.764 18.1579 363.696 19.3386C365.53 21.6633 368.805 22.9476 371.908 23.7693C377.34 25.2017 383.156 25.9461 388.78 26.6434C400.291 28.0546 411.883 28.6911 423.479 28.5487C435.335 28.4017 447.167 27.6347 458.905 26.2514C468.479 25.163 484.373 24.2216 484.71 13.6669C484.704 13.651 484.704 13.6337 484.71 13.6179C484.959 13.4115 485.33 13.3418 485.663 13.4388C485.782 13.5914 485.895 13.7493 486 13.9119C485.968 14.4734 485.887 15.0309 485.756 15.5779C484.075 22.4086 474.778 24.657 467.143 25.7124C446.101 28.6241 424.563 29.8491 403.258 28.4997C392.771 27.8354 381.82 26.8064 371.703 24.3083C368.315 23.4697 364.795 22.207 362.65 19.7853C361.531 18.4114 360.815 16.8424 360.56 15.2019V14.6139C360.499 13.86 360.806 13.1175 361.414 12.5502C361.659 12.3608 362.525 12.2138 362.585 12.4315Z" fill="#777777"/>
<path d="M367.321 15.6383C369.269 12.849 375.025 12.981 378.488 12.8547C382.22 12.736 385.957 12.8217 389.675 13.111C393.053 13.357 396.412 13.7329 399.764 14.157C401.447 14.3038 403.123 14.5274 404.786 14.827C405.364 14.9589 407.223 15.1521 407.241 15.8729C407.241 16.1405 404.11 17.2817 403.714 17.4437C397.458 20.1482 390.266 23.5763 382.99 23.2879C377.637 23.0787 365.326 22.0224 367.347 15.5497C367.431 15.2877 366.158 15.1992 366.047 15.5497C363.903 22.4248 377.241 23.5084 382.744 23.7431C391.442 24.1106 400.044 19.9757 407.339 16.5693C409.938 15.366 408.729 14.859 406.391 14.5339C400.544 13.7179 394.697 12.9386 388.765 12.5616C384.032 12.2287 379.281 12.2444 374.551 12.6088C371.491 12.8651 367.737 13.0893 366.105 15.4969C365.891 15.8211 367.125 15.937 367.321 15.6383ZM415.599 26.7924C411.217 26.6341 406.834 26.3872 402.457 26.1422C400.557 26.0319 398.656 25.9283 396.754 25.8303C395.083 25.7483 392.992 26.1742 395.449 25.0482C402.459 21.8113 409.479 18.5868 416.508 15.3754L415.39 15.2058L414.959 27.0327C414.959 27.3662 416.266 27.3776 416.266 27.0327L416.697 15.2058C416.697 14.8882 415.776 14.9429 415.58 15.0361C407.823 18.5947 400.067 22.1564 392.313 25.721C391.803 25.9566 392.515 26.1196 392.777 26.1309C400.393 26.4475 407.99 26.9997 415.639 27.2739C416.397 27.3012 416.39 26.8197 415.599 26.7924ZM468.283 22.6321C453.298 18.2636 437.572 16.2922 421.74 15.8437C421.596 15.8437 421.083 15.8814 421.083 16.084C421.556 19.743 422.154 23.3963 422.758 27.0393C422.901 27.2211 423.158 27.3154 423.416 27.2795C438.43 27.3533 453.414 25.9227 468.145 23.009C468.972 22.845 467.902 22.5124 467.487 22.5944C458.218 24.4415 448.84 25.6892 439.412 26.3297C434.904 26.6303 429.807 27.2305 425.287 26.8046C423.5 26.635 423.842 25.6362 423.632 24.3037L423.048 20.5345C422.896 19.547 422.39 18.2193 422.555 17.2261C422.62 16.7832 422.259 16.6136 422.693 16.3742C423.126 16.1339 424.735 16.4176 425.366 16.4449C430.142 16.6446 434.91 17.0089 439.661 17.537C449.028 18.5546 458.291 20.3726 467.35 22.9713C467.685 23.075 468.9 22.8234 468.283 22.6321Z" fill="#777777"/>
<path d="M426.917 15.2546C435.534 13.9618 444.06 12.2911 452.632 10.8569C455.573 10.3688 458.514 9.95887 461.501 10.5101C463.757 11.0027 465.943 11.7757 468.009 12.8112C469.717 13.5886 471.431 14.3613 473.054 15.2386C474.01 15.6971 474.918 16.2514 475.763 16.8933C476.561 17.5812 477.616 21.0338 475.143 20.4609C474.61 20.3346 473.759 20.8501 474.536 21.0338C476.937 21.5964 478.77 19.4573 477.873 17.6867C477.095 16.1479 474.577 15.0605 472.961 14.2351C470.467 12.9147 467.89 11.7582 465.246 10.773C459.661 8.79794 454.274 9.91647 448.544 10.92C441.245 12.2016 433.899 13.3681 426.646 14.808C426.066 14.9239 426.428 15.3338 426.896 15.2546H426.917Z" fill="#777777"/>
<path d="M426.583 14.4436C433.474 15.4397 440.482 15.842 447.439 16.7174C456.553 17.8708 465.649 19.1533 474.781 20.2388C475.391 20.3114 475.828 19.7799 475.073 19.6546C465.952 18.1365 456.593 17.1876 447.387 16.0503C440.582 15.2107 433.56 14.225 426.67 14.0837C426.319 14.0837 426.2 14.3862 426.59 14.4389L426.583 14.4436ZM415.029 1.85347L415.154 2.06454C415.167 2.09325 415.184 2.11969 415.205 2.14276L415.268 3.12652C415.363 4.59935 415.445 6.06653 415.546 7.5403C415.666 9.30807 416.02 11.2313 415.666 12.9878C415.632 13.0546 415.58 13.1104 415.516 13.1486C415.451 13.1868 415.377 13.2059 415.303 13.2036C415.143 13.2036 414.999 13.1188 414.939 12.9878C414.49 11.237 414.541 9.33539 414.39 7.54595C414.238 5.75556 414.042 3.91618 414.068 2.10413V2.02026C414.087 1.97597 414.118 1.9364 414.156 1.90342C414.284 1.81913 414.433 1.77014 414.586 1.76137C414.739 1.75261 414.891 1.78436 415.029 1.85347ZM421.049 13.0924C421.256 9.7566 420.469 6.2418 420.306 2.89001C420.306 2.54701 419.395 2.56774 419.377 2.89001C419.226 6.12778 419.377 10.0157 420.625 13.1141C420.681 13.2535 421.056 13.2224 421.068 13.0716L421.049 13.0924Z" fill="#777777"/>
<path d="M415.244 2.27621C415.214 2.25832 415.188 2.23572 415.167 2.20931H414.091C414.228 2.67669 414.683 3.05738 415.293 3.21757C415.806 3.39561 416.343 3.4966 416.885 3.51723C418.094 3.55304 420.469 3.31558 420.986 2.30731H419.653C419.198 2.85573 417.779 3.00461 417.046 3.00461C416.308 3.03194 415.613 2.75019 415.244 2.27621ZM415.244 2.27621C415.214 2.25832 415.188 2.23572 415.167 2.20931H414.091C414.228 2.67669 414.683 3.05738 415.293 3.21757C415.806 3.39561 416.343 3.4966 416.885 3.51723C418.094 3.55304 420.469 3.31558 420.986 2.30731H419.653C419.198 2.85573 417.779 3.00461 417.046 3.00461C416.308 3.03194 415.613 2.75019 415.244 2.27621ZM414.195 1.51671C414.189 1.56295 414.189 1.60993 414.195 1.65617C414.117 1.78027 414.074 1.92319 414.071 2.06985C414.064 2.10725 414.064 2.14553 414.071 2.18292C414.208 2.65125 414.662 3.03193 415.272 3.19118C415.785 3.36932 416.322 3.4703 416.864 3.49085C418.073 3.5276 420.448 3.28919 420.966 2.28186C421.022 2.17821 421.058 2.06796 421.07 1.95583C421.088 1.83333 421.088 1.71083 421.07 1.58833C420.657 -0.633631 413.902 -0.400885 414.195 1.51671ZM419.784 1.57325V1.65147C419.826 1.75314 419.837 1.86467 419.817 1.97277C419.798 2.08087 419.747 2.18097 419.672 2.26113C419.219 2.80861 417.801 2.95844 417.067 2.95844C416.335 3.00084 415.632 2.73794 415.244 2.27621C415.214 2.25832 415.188 2.23572 415.167 2.20931L415.028 2.0133C414.96 1.90588 414.902 1.79469 414.853 1.68162L415.048 1.53744C415.656 1.06629 416.25 0.612098 417.22 0.63754C418.191 0.663924 419.422 0.859921 419.749 1.57325H419.784ZM414.404 10.6288C412.581 11.2055 411.732 12.6011 412.742 14.1417C413.936 15.918 416.875 15.8718 418.945 15.8313C421.216 15.7851 424.215 15.2546 424.561 12.8894C424.89 10.6863 422.478 9.71101 420.295 9.6818C419.767 9.6818 419.54 10.2594 420.167 10.2877C421.764 10.3744 423.507 11.0491 423.373 12.6812C423.219 15.0586 419.92 15.1623 417.904 15.1218C416.461 15.1218 414.651 15.0124 413.897 13.795C413.176 12.6821 413.636 11.6842 414.972 11.1132C415.586 10.8474 414.872 10.4894 414.444 10.6232L414.404 10.6279V10.6288Z" fill="#777777"/>
<path d="M414.045 11.1396C412.865 9.6008 411.969 7.49945 410.472 6.19059C409.153 5.04192 407.532 5.27748 405.778 5.35192C397.439 5.70246 389.08 6.25937 381.031 8.29193C380.214 8.49924 381.275 8.83752 381.69 8.72822C388.737 6.9482 396.002 6.33475 403.299 5.97196C404.684 5.90318 407.816 5.33497 408.989 6.08693C409.447 6.52136 409.832 7.02733 410.129 7.5852C411.019 8.80832 411.843 10.0719 412.766 11.2772C412.997 11.5759 414.263 11.4326 414.039 11.1452L414.045 11.1396ZM412.884 12.7962C402.479 11.088 392.016 9.75721 381.515 8.80642C380.934 8.75459 380.274 9.16356 381.165 9.24554C391.583 10.202 401.949 11.4986 412.216 13.1938C412.638 13.2617 413.716 12.9413 412.877 12.8009L412.884 12.7962ZM419.979 5.51683C429.52 6.45725 438.988 7.36658 448.41 8.88369L448.562 8.25611C440.745 8.75836 432.981 9.19089 425.767 11.7332L426.716 11.9848C426.037 9.28323 423.51 7.06128 420.085 6.15572C419.647 6.05018 418.951 6.41674 419.58 6.60237C422.607 7.54468 424.81 9.57253 425.449 12.0046C425.492 12.0779 425.549 12.1414 425.618 12.1914C425.686 12.2413 425.764 12.2765 425.847 12.2949C426.029 12.343 426.223 12.3294 426.396 12.2562C433.418 9.79868 440.984 9.36616 448.562 8.88936C449.179 8.84884 449.445 8.38616 448.715 8.26083C439.293 6.75314 429.652 5.54227 420.018 5.28125C419.786 5.28125 419.693 5.48668 419.965 5.51213L419.979 5.51683Z" fill="#777777"/>
<path d="M424.496 8.79031C431.131 8.20136 437.532 8.29372 444.187 8.29372C444.957 8.29372 444.969 7.92622 444.187 7.92622C437.408 7.92622 430.903 7.83858 424.144 8.43977C423.27 8.51893 423.909 8.85721 424.489 8.79408L424.496 8.79031ZM411.504 7.9281C404.468 8.36816 397.157 9.29539 390.102 9.29539C389.309 9.29539 389.295 9.68172 390.102 9.68172C397.286 9.68172 404.704 8.72435 411.866 8.29749C412.775 8.24471 412.102 7.88853 411.51 7.92433L411.504 7.9281ZM370.152 20.8575C366.442 15.0934 380.936 15.4232 384.943 15.5891C391.554 15.8586 398.081 16.8885 404.568 17.8883C405.229 17.9882 405.651 17.4237 404.871 17.3041C395.893 15.8934 386.589 14.464 377.378 15.1339C373.689 15.4034 365.721 17.0185 369.391 21.0328C369.557 21.2118 370.33 21.1176 370.159 20.8575H370.151H370.152ZM397.652 26.4049C401.312 25.9921 404.728 24.6889 407.988 23.4206C410.786 22.3313 414.387 21.257 416.634 19.5854C416.884 19.4016 416.312 19.3423 416.181 19.3724C412.948 20.1583 409.907 21.9233 406.897 23.1021C403.888 24.2809 400.681 25.2562 397.494 26.2258C397.264 26.2956 397.494 26.4237 397.652 26.4049ZM458.504 24.2715C446.672 22.224 434.73 20.8802 422.74 20.2469C422.166 20.2186 421.506 20.6003 422.395 20.6474C434.279 21.2746 446.116 22.6062 457.844 24.6352C458.262 24.7059 459.327 24.4185 458.497 24.2771L458.504 24.2715ZM438.555 15.508C443.496 14.9799 448.397 14.1237 453.225 12.945C456.321 12.1666 459.357 11.539 462.629 12.1562C464.718 12.5482 466.47 13.5264 468.251 14.4149C471.247 15.9104 473.873 17.7724 476.855 19.2989C477.171 19.461 478.447 19.2989 478.018 19.069C471.925 15.9311 466.598 11.1103 458.679 11.4608C455.475 11.6021 452.594 12.6104 449.524 13.2437C445.795 14.0192 442.011 14.6289 438.193 15.0689C437.293 15.1726 437.951 15.5919 438.55 15.5137L438.555 15.508ZM420.207 32.8182C419.91 42.7057 419.79 52.5978 419.846 62.4896C419.846 64.9603 419.872 67.4329 419.926 69.9074C419.956 71.6931 420.279 73.6983 420.151 75.5387C420.151 75.778 420.108 76.0127 420.072 76.2473C420.072 76.3604 420.035 76.4716 420.017 76.578C419.91 77.3847 419.433 78.1187 418.696 78.6106C417.958 79.1025 417.022 79.3098 416.106 79.1854C414.065 78.9084 413.231 77.3243 412.945 75.7356C412.898 75.5048 412.865 75.2711 412.847 75.0374V75.0053C412.445 70.5633 412.415 66.0628 412.347 61.6095C412.195 52.0903 412.524 42.5768 413.188 33.0745C413.188 32.7334 414.407 32.7598 414.407 33.0745C413.858 40.8919 413.535 48.7206 413.523 56.538C413.523 60.2639 413.59 63.9879 413.724 67.71C413.79 69.6153 413.874 71.516 413.98 73.4109C413.98 73.9443 413.98 74.5464 414.053 75.1278C414.053 75.3568 414.096 75.5867 414.133 75.8101C414.217 76.3815 414.425 76.9275 414.741 77.4101C415.588 78.669 417.788 78.8876 418.586 77.4101C418.78 76.9917 418.882 76.5451 418.884 76.0928V75.6235C418.884 75.0901 418.818 74.5568 418.805 74.1252C418.768 72.348 418.738 70.5821 418.714 68.8294C418.652 64.7662 418.624 60.7049 418.628 56.6454C418.628 48.6952 418.754 40.7487 419.006 32.8022C418.987 32.4818 420.206 32.4931 420.206 32.8182H420.207Z" fill="#777777"/>
<path d="M413.79 74.9039C414.261 74.9426 414.705 74.9812 415.136 75.0142C415.136 75.2498 415.183 75.4853 415.224 75.7143C414.84 75.6823 414.403 75.6484 413.918 75.622C410.956 75.4571 406.622 75.54 406.44 77.7186C406.211 80.4551 413.171 80.8989 415.6 81.0459C417.337 81.1308 419.077 81.1087 420.811 80.9799C422.5 80.8716 429.944 79.6833 426.99 77.2088C425.852 76.2571 423.624 76.2618 421.793 76.1468C421.352 76.1223 420.915 76.0771 420.481 76.0102V75.5287C420.947 75.459 421.42 75.4241 421.894 75.425C424.539 75.425 428.867 76.1148 428.975 78.0352C429.203 82.3708 418.279 81.9383 415.379 81.7573C412.686 81.5877 404.447 80.9969 405.363 77.4284C406.022 74.7183 410.506 74.6806 413.79 74.9049V74.9039Z" fill="#777777"/>
<path d="M405.479 78.4801C402.797 80.425 403.367 83.1379 406.483 84.6569C407.001 84.9038 407.548 85.1092 408.118 85.2713C408.447 85.3721 408.78 85.4582 409.117 85.5295C410.723 85.8541 412.348 86.0807 413.981 86.2079C416.457 86.4662 418.949 86.5169 421.433 86.3596C423.068 86.2494 425.26 86.044 426.634 85.2666C428.644 84.1358 429.81 80.8142 425.903 80.5362C425.34 80.4938 425.588 80.0886 426.017 80.0575C429.368 79.821 430.929 82.5273 429.046 84.6352C426.66 87.3114 421.005 87.2115 417.346 87.1012C414.522 87.0796 411.712 86.7903 408.976 86.239C408.614 86.1542 408.259 86.06 407.911 85.9601C406.776 85.6416 405.723 85.1705 404.795 84.5674C402.335 82.9165 401.444 79.3112 405.184 78.3538C405.264 78.3171 405.646 78.3595 405.479 78.4801Z" fill="#777777"/>
<path d="M401.133 32.5686C401.589 32.5686 402.039 32.6063 402.488 32.6213C402.378 32.7309 402.27 32.8434 402.166 32.9587C392.406 43.0385 388.376 55.9736 388.812 68.7607C389.117 76.0636 390.499 83.3099 392.925 90.3396C393.478 91.9697 394.05 93.8327 395.416 95.1472C398.323 97.928 402.789 96.9414 404.945 94.0918C406.87 91.5165 406.87 88.3711 407.646 85.4688C407.704 85.2417 407.768 85.0146 407.845 84.7931C408.16 84.8939 408.479 84.9801 408.801 85.0513L408.667 85.7486C407.775 90.4979 406.363 98.8307 398.515 97.5802C394.435 96.9301 392.856 93.4369 391.88 90.5403C390.531 86.5236 389.482 82.4116 388.743 78.2384C385.97 62.5019 388.678 45.6506 400.832 32.9012L401.133 32.5686ZM438.243 32.5686C438.379 32.7288 438.507 32.8955 438.63 33.0614C443.241 39.0818 444.755 46.6758 445.244 53.6442C445.889 62.7978 445.844 72.3905 444.484 81.4951C443.577 87.5692 440.35 94.8852 432.35 96.5456C424.352 98.2059 421.402 92.1752 422.046 86.6042C422.085 86.3055 422.858 86.2839 422.87 86.6042C422.992 89.6856 422.696 93.8138 426.457 95.6089C431.198 97.8582 436.762 94.644 439.389 91.4468C444.213 85.6139 443.949 77.7739 444.233 70.9704C444.768 58.0259 445.128 44.5444 437.213 33.1255L436.871 32.6326C437.342 32.5949 437.793 32.5846 438.243 32.5686Z" fill="#777777"/>
<path d="M394.058 31.6885L393.834 31.9278C384.907 41.3782 380.761 53.1514 380.015 64.951C379.55 71.9743 380.088 79.0281 381.613 85.8985C382.755 90.9003 384.947 96.3694 390.533 99.2661C393.932 101.025 398.007 101.637 402.107 101.923C402.47 101.923 402.833 101.977 403.19 101.993C405.56 102.132 407.917 102.184 410.149 102.317C413.872 102.534 417.601 102.711 421.334 102.849C422.654 102.897 423.935 102.966 425.222 102.987H426.51C428.396 103 430.273 102.771 432.07 102.307C446.014 98.4953 451.362 85.6328 452.207 74.9489C452.838 66.7621 452.817 58.5508 452.141 50.366C451.639 44.3229 450.273 38.295 447.037 32.8258C446.936 32.642 446.823 32.4645 446.7 32.2944L445.459 32.3575L445.783 32.8899C451.791 43.1111 451.164 54.7892 451.164 65.9451C451.164 77.8408 450.299 90.7778 437.787 98.8204C434.948 100.643 431.574 102.105 427.883 102.317C427.386 102.349 426.889 102.366 426.391 102.371C425.889 102.376 425.539 102.371 425.11 102.371C422.092 102.371 419.015 102.084 416.045 101.94C412.393 101.771 408.742 101.552 405.097 101.307C404.385 101.26 403.665 101.222 402.951 101.18C402.748 101.18 402.543 101.154 402.345 101.142C399.729 101.053 397.131 100.671 394.6 100.005C387.132 97.7999 384.221 91.7031 382.867 85.8665C381.515 79.8343 380.922 73.6556 381.104 67.4754C381.388 54.8419 385.415 42.3243 394.52 31.9749C394.586 31.8958 394.659 31.81 394.738 31.7299L394.058 31.6885Z" fill="#777777"/>
<path d="M402.823 101.227C403.021 101.227 403.227 101.227 403.431 101.265C403.525 101.301 403.589 101.371 403.604 101.453L403.663 102.056C403.741 103.474 403.353 104.885 402.537 106.15C401.959 107.044 401.228 107.828 400.378 108.467L400.22 108.576C399.66 108.918 399.068 109.202 398.452 109.425L398.088 109.566C397.81 109.677 397.512 109.782 397.214 109.892C395.889 110.369 394.459 110.867 393.241 111.423C392.89 111.585 392.578 111.753 392.261 111.947C390.797 112.77 389.969 113.73 390.758 114.924C391.943 116.712 396.956 117.089 399.201 117.456C402.22 117.949 405.259 118.332 408.299 118.704C413.559 119.41 418.853 119.845 424.158 120.009C428.793 120.098 439.878 120.669 440.209 115.323C440.283 114.01 439.465 112.767 438.064 112.063C437.958 111.999 437.845 111.936 437.732 111.879L437.269 111.643C437.11 111.57 436.945 111.491 436.772 111.417C436.6 111.344 436.606 111.349 436.521 111.313C436.09 111.134 435.648 110.967 435.197 110.789C433.137 110.055 430.919 109.436 429.568 108.503C427.539 107.09 426.205 105.156 425.8 103.041C425.761 102.842 425.72 102.642 425.694 102.444H426.979C427.012 102.648 427.044 102.853 427.091 103.051C427.589 105.48 429.378 107.623 432.005 108.938C433.528 109.688 435.316 110.086 436.898 110.7C437.014 110.74 437.129 110.783 437.242 110.83C437.547 110.95 437.843 111.083 438.13 111.229C438.149 111.234 438.167 111.243 438.183 111.255C438.342 111.329 438.488 111.412 438.64 111.496C438.792 111.58 438.937 111.679 439.084 111.774C439.302 111.92 439.509 112.076 439.706 112.241C440.737 113.037 441.299 114.139 441.258 115.28C441.217 116.42 440.574 117.494 439.488 118.242C436.606 120.481 431.766 120.496 428.005 120.586C422.17 120.647 416.338 120.305 410.55 119.563C406.411 119.092 402.253 118.614 398.174 117.87C395.85 117.44 391.857 117.069 390.154 115.611C388.758 114.421 389.844 112.817 391.161 111.795C391.418 111.607 391.691 111.431 391.976 111.271L392.062 111.224C393.397 110.603 394.787 110.108 396.214 109.745C396.627 109.62 397.032 109.477 397.426 109.316C397.893 109.127 398.337 108.905 398.75 108.65C398.863 108.583 398.971 108.511 399.075 108.435L399.366 108.23C400.149 107.637 400.822 106.91 401.352 106.082C402.111 104.807 402.508 103.417 402.518 102.008V101.484C402.52 101.35 402.653 101.238 402.823 101.227Z" fill="#777777"/>
<path d="M391.601 112.057C392.031 112.11 392.442 112.166 392.846 112.224C392.509 112.378 392.182 112.552 391.866 112.745C391.515 112.704 391.157 112.656 390.786 112.615C387.429 112.214 383.601 112.001 381.793 114.604C379.004 118.637 383.376 122.022 388.164 122.908C396.469 124.47 405.688 124.845 414.191 125.122C422.979 125.403 431.893 125.007 440.37 123.064C442.761 122.518 445.482 121.929 447.601 120.872C449.72 119.813 451.814 117.262 449.588 115.406C447.362 113.553 442.853 113.412 439.33 113.058C438.74 113 438.184 112.938 437.668 112.86C437.562 112.797 437.449 112.735 437.336 112.677L437.237 112.792H437.191C436.839 112.729 436.774 112.578 436.873 112.453C437.007 112.309 437.23 112.234 437.455 112.261H437.634C437.84 112.261 438.045 112.297 438.297 112.313C441.992 112.609 447.098 112.834 450.032 114.616C452.68 116.178 452.092 118.861 449.859 120.491C447.211 122.444 442.992 123.205 439.568 123.924C434.927 124.877 430.22 125.472 425.488 125.705C415.045 126.268 404.595 125.331 394.244 124.293C388.343 123.699 378.263 122.549 380.064 115.875C381.23 111.448 386.999 111.49 391.601 112.057Z" fill="#777777"/>
<path d="M396.75 109.918L397.022 109.965C397.191 109.975 397.34 110.059 397.405 110.185C397.127 110.294 396.83 110.399 396.533 110.508C396.203 110.45 395.872 110.399 395.542 110.346C389.528 109.528 383.433 109.505 377.413 110.278C374.494 110.623 371.04 110.998 368.828 112.688C365.981 114.854 366.391 118.105 368.445 120.546C372.176 124.981 380.332 125.857 386.429 126.807C392.167 127.715 397.939 128.392 403.732 128.837C414.827 129.682 426.53 130.172 437.592 128.837C441.402 128.372 445.199 127.797 448.977 127.115C453.766 126.239 457.022 123.953 459.677 120.66C466.401 112.313 447.188 111.676 437.407 111.839H437.341C436.899 111.839 436.489 111.839 436.093 111.864H435.736C435.307 111.687 434.864 111.52 434.415 111.343C434.924 111.312 435.498 111.285 436.139 111.259H436.594C436.912 111.259 437.255 111.259 437.572 111.234C447.783 110.967 468.031 111.849 460.78 120.875C458.435 123.792 455.086 126.457 450.807 127.355C445.797 128.368 440.738 129.113 435.65 129.588C421.967 130.965 407.417 130.11 393.831 128.461C387.115 127.641 379.513 126.833 373.358 124.464C368.735 122.706 364.112 118.589 366.437 114.286C368.299 110.79 373.959 110.153 378.133 109.673C384.228 109.005 390.668 108.865 396.75 109.918ZM339.199 107.821L339.16 108.084C339.147 108.158 339.184 108.232 339.256 108.278C338.922 113.814 338.8 119.354 338.614 124.9C338.485 128.562 338.363 132.223 338.247 135.886C338.189 137.669 338.163 139.442 337.97 141.216L337.875 142.005L337.79 142.715C337.688 143.768 337.707 144.925 338.344 145.762C339.095 146.761 341.024 147.34 342.342 146.782C343.66 146.225 344.109 144.867 344.328 143.462C344.328 143.289 344.38 143.11 344.405 142.937C344.515 141.884 344.502 140.831 344.566 140.19C344.977 135.786 345.067 131.366 345.209 126.957C345.37 122.658 345.801 118.349 345.575 114.05C345.493 111.738 345.146 109.443 344.54 107.211C344.283 106.326 344.007 105.216 342.817 104.869C340.568 104.216 339.468 106.352 339.199 107.821ZM343.345 106.816C343.827 107.468 343.987 109.347 344.116 110.162C344.426 112.107 344.603 114.07 344.644 116.039C344.766 119.854 344.477 123.668 344.328 127.483C344.168 131.388 344.084 135.296 343.755 139.196C343.66 140.369 343.666 141.715 343.474 142.984L343.402 143.41C343.317 143.892 343.184 144.365 343.004 144.82C342.561 145.914 341.037 148.193 338.986 145.346C338.569 144.772 338.639 143.584 338.697 142.758L338.729 142.395V142.063C339.462 130.808 339.456 119.507 340.143 108.247C340.174 108.228 340.199 108.202 340.219 108.172C340.239 108.142 340.253 108.108 340.259 108.073C340.273 107.972 340.297 107.871 340.329 107.773C340.747 106.473 342.317 105.421 343.344 106.816H343.345ZM481.296 102.338C480.447 103.573 480.617 105.663 480.488 107.004C479.833 114.198 479.69 121.429 480.06 128.643C480.153 131.466 480.434 134.283 480.903 137.083C481.323 139.355 481.378 142.247 482.703 144.331C482.782 144.435 482.9 144.502 483.029 144.519C483.508 145.005 484.262 145.273 485.042 145.236C485.823 145.198 486.529 144.86 486.93 144.331C488.105 142.893 487.412 140.21 487.446 138.607C487.5 135.993 487.582 133.379 487.636 130.765C487.758 125.365 487.827 119.967 487.636 114.568C487.554 112.131 487.416 109.696 487.222 107.265C487.153 106.416 487.256 105.219 487.1 104.123C487.075 103.922 487.036 103.722 486.983 103.525C486.872 103.016 486.626 102.547 486.27 102.168C485.007 100.905 482.329 100.867 481.296 102.337V102.338ZM485.414 103.786L485.53 104.203C485.717 105.048 485.84 105.902 485.896 106.759C486.128 109.191 486.277 111.623 486.372 114.06C486.563 118.935 486.542 123.811 486.454 128.685C486.413 131.123 486.352 133.566 486.298 136.003L486.195 140.189C486.195 140.349 486.25 145.881 484.007 144.23C484.008 144.19 483.996 144.15 483.974 144.117C482.805 142.135 482.703 139.413 482.302 137.276C481.901 135.137 481.691 133.031 481.548 130.861C481.104 123.843 481.129 116.811 481.623 109.795C481.758 107.779 481.493 104.984 482.404 103.07C482.436 102.806 482.558 102.552 482.757 102.338C484.219 101.317 485 102.434 485.414 103.813V103.786ZM10.6806 104.277C10.2673 107.968 10.8083 111.878 10.9163 115.59C11.1135 122.704 11.4394 129.831 11.5539 136.952V137.276C11.5271 137.298 11.5053 137.326 11.4899 137.357C11.4745 137.388 11.4659 137.422 11.4647 137.457V137.633C11.4196 139.62 10.8721 142.427 12.9551 143.833C14.0257 144.536 15.733 144.61 16.6129 143.592C17.492 142.575 17.2497 140.435 17.4018 139.178C17.6572 136.714 17.8695 134.246 18.0404 131.775C18.3287 127.273 18.4536 122.77 18.416 118.269C18.416 113.96 18.2695 109.625 17.8742 105.322C17.8742 105.167 17.8742 105.008 17.8366 104.853L17.7981 104.432C17.6197 102.61 17.2562 100.597 14.669 100.363C12.0827 100.129 10.8843 102.483 10.6806 104.277ZM15.4597 101.674C15.918 101.841 16.2767 102.156 16.4533 102.546C16.5254 102.704 16.5872 102.866 16.6383 103.032C16.8126 103.641 16.9151 104.268 16.9435 104.901V105.285C17.0008 106.547 16.9435 107.884 16.9952 108.88C17.3644 115.024 17.4239 121.183 17.1736 127.334C17.0036 131.502 16.6909 135.629 16.2364 139.716C16.1734 140.296 16.1415 142.719 15.7649 143.082C13.6369 145.126 12.8349 142.07 12.7194 141.361C12.6021 140.425 12.5616 139.481 12.5982 138.539V137.255C12.5982 136.76 12.5419 136.259 12.5419 136.051C12.4329 130.678 12.2414 125.23 12.1268 119.856C12.0592 116.771 11.9803 113.686 11.892 110.605C11.8469 108.815 11.7324 107.015 11.7577 105.225C11.7089 104.394 11.8393 103.563 12.1399 102.787C12.5926 101.418 13.7073 101.061 15.4597 101.674ZM117.953 104.494C117.706 105.185 117.52 105.897 117.396 106.62L117.317 107.088C116.944 109.639 117.134 112.372 116.99 114.832C116.807 117.831 116.662 120.834 116.676 123.843C116.676 127.563 117.18 131.284 116.976 135.005C116.892 136.551 116.682 138.274 116.794 139.937L116.84 140.416C116.935 141.585 117.309 142.714 117.932 143.706C117.958 143.74 117.991 143.768 118.028 143.789C118.065 143.81 118.106 143.824 118.148 143.829C119.183 144.972 120.973 145.486 122.663 145.126C124.888 144.562 125.071 142.436 124.974 140.496L124.927 139.852C124.875 139.166 124.816 138.534 124.823 138.04C124.986 128.579 125.208 119.123 125.418 109.666C125.477 107.061 125.765 103.485 122.088 102.315C119.915 101.586 118.508 102.889 117.952 104.494H117.953ZM123.076 103.691C124.253 104.494 124.384 106.121 124.456 107.258C124.712 111.287 124.319 115.412 124.247 119.447C124.174 123.577 124.11 127.701 124.004 131.831L123.841 138.534C123.841 138.944 123.841 139.379 123.88 139.82V140.385C123.895 140.805 123.855 141.225 123.762 141.634C123.186 143.947 120.681 145.147 118.73 143.643C118.738 143.627 118.742 143.608 118.742 143.59C118.742 143.572 118.738 143.553 118.73 143.537C118.231 142.583 117.936 141.534 117.866 140.459V139.981C117.795 138.53 117.945 137.041 118.017 135.729C118.174 132.933 117.939 130.158 117.854 127.368C117.677 121.67 118.076 116.008 118.423 110.321C118.489 109.258 118.481 108.195 118.56 107.132L118.606 106.663C118.66 106.072 118.768 105.487 118.927 104.915C119.261 103.66 120.039 101.614 123.089 103.692H123.076V103.691ZM221.016 105.64C220.943 105.932 220.884 106.228 220.839 106.526V106.584C219.873 113.104 220.215 119.846 220.432 126.398C220.576 130.796 220.582 135.31 221.089 139.73L221.213 140.711C221.305 141.453 221.423 142.19 221.555 142.928C221.544 142.949 221.538 142.973 221.538 142.997C221.538 143.021 221.544 143.045 221.555 143.067C221.916 144.695 223.237 146.748 225.759 145.936C228 145.21 228.178 142.61 228.059 140.361L228.02 139.831V139.746L227.98 139.262C227.921 138.605 227.869 138.016 227.869 137.576V121.82C227.869 116.589 228.25 111.279 227.916 106.058C227.816 104.531 227.074 101.99 224.511 102.112C222.344 102.213 221.41 104.096 221.016 105.64ZM226.502 104.239C226.777 104.73 226.944 105.256 226.995 105.794C226.995 105.995 227.041 106.202 227.048 106.415C227.107 107.746 226.851 109.189 226.857 110.271C226.857 112.727 226.89 115.178 226.903 117.629V140.424C226.936 141.116 226.922 141.809 226.864 142.498C227.048 144.221 225.805 144.913 223.138 144.573C222.846 144.106 222.649 143.585 222.56 143.04C222.547 142.992 222.52 142.949 222.482 142.918C222.363 142.17 222.265 141.422 222.186 140.668L222.094 139.73C221.824 136.668 221.784 133.576 221.647 130.536C221.358 124.064 221.16 117.56 221.562 111.087C221.647 109.767 221.732 108.435 221.91 107.13L221.989 106.51C222.028 106.223 222.068 105.942 222.133 105.666C222.184 105.412 222.259 105.162 222.357 104.918C222.987 103.406 225.261 102.17 226.502 104.24V104.239Z" fill="#777777"/>
<path d="M447.646 141.023C459.346 141.081 471.051 141.136 482.76 141.191C483.561 141.191 483.581 141.816 482.76 141.811C471.056 141.738 459.351 141.679 447.646 141.638C436.055 141.585 424.656 141.278 413.179 142.599C402.297 143.848 391.11 143.406 380.141 143.39C374.457 143.39 368.778 143.378 363.106 143.353C358.204 143.353 351.159 143.536 345.701 143.315C345.384 143.315 345.04 143.315 344.762 143.271L344.834 142.877L345.781 142.834C351.609 142.594 359.111 142.834 364.396 142.834H381.432C393.021 142.834 404.479 143.026 415.957 141.658C426.377 140.375 437.146 140.966 447.646 141.023ZM401.783 106.658C401.731 106.739 401.67 106.816 401.612 106.892C401.104 107.06 400.589 107.204 400.067 107.326C396.768 108.108 393.059 108.108 389.66 108.136C384.882 108.178 380.097 108.136 375.312 108.174C371.268 108.174 367.215 108.236 363.156 108.269H361.988H359.196H357.877H354.815H353.759C350.842 108.269 347.933 108.229 345.034 108.15C344.677 108.15 344.664 107.888 345.034 107.873C348.116 107.764 351.198 107.702 354.273 107.669H373.313C382.453 107.621 391.692 107.964 400.668 106.601C400.853 106.577 401.031 106.548 401.216 106.52C401.426 106.483 401.647 106.537 401.783 106.658ZM445.547 104.886H446.389C448.167 104.923 449.946 104.953 451.724 104.976H453.812C460.587 105.023 467.374 105.002 474.148 105.088H475.42C477.312 105.11 479.203 105.146 481.094 105.197C481.757 105.216 481.817 105.593 481.094 105.599C479.24 105.62 477.387 105.629 475.533 105.627H474.254C467.228 105.627 460.182 105.491 453.163 105.439H452.632H451.672H449.557H449.021H446.541H445.48C439.118 105.472 432.682 105.509 426.478 105.056C426.253 105.056 426.352 104.936 426.518 104.925C432.762 104.639 439.191 104.756 445.547 104.886ZM486.489 142.587C493.452 142.665 500.413 142.354 507.341 141.654C508.122 141.58 508.135 140.785 507.341 140.841C500.382 141.3 493.429 141.574 486.488 141.934C485.838 141.965 485.838 142.556 486.488 142.556V142.587H486.489ZM505.957 104.36C506.474 104.503 505.957 104.775 505.629 104.746C502.001 104.451 498.519 103.851 494.843 103.765C492.155 103.747 489.467 103.831 486.793 104.022C486.276 104.05 485.753 104.079 485.237 104.103L485.123 103.732C485.626 103.641 486.149 103.56 486.679 103.488C492.757 102.651 500.37 102.813 505.958 104.36H505.957ZM227.209 139.078C227.553 139.078 227.871 139.11 228.235 139.121C264.987 140.664 301.852 139.663 338.585 141.829C338.89 141.829 339.194 141.867 339.498 141.884V142.225L339.465 142.598C339.148 142.598 338.836 142.572 338.519 142.56C319.922 141.78 301.336 141.173 282.719 140.892C264.63 140.621 246.33 141.066 228.302 139.722C227.945 139.722 227.593 139.673 227.236 139.641V139.099L227.209 139.078ZM341.253 106.818C341.219 106.917 341.194 107.02 341.18 107.125C341.174 107.161 341.159 107.196 341.139 107.226C341.118 107.257 341.092 107.283 341.061 107.303C340.743 107.303 340.432 107.335 340.12 107.345C338.928 107.392 337.735 107.401 336.543 107.373C336.066 107.373 335.589 107.373 335.112 107.335C335.185 107.19 335.265 107.039 335.35 106.899C335.814 106.899 336.285 106.899 336.749 106.926C337.855 106.926 338.955 106.926 340.061 106.877C340.458 106.867 340.855 106.845 341.253 106.818H341.253ZM228.87 104.755C238.828 105.749 248.793 106.685 258.844 106.621C268.599 106.555 278.348 105.964 288.096 105.69C297.845 105.416 307.594 105.335 317.329 105.814C320.461 105.97 323.592 106.27 326.723 106.54C327.091 106.572 327.458 106.598 327.826 106.631C328.919 106.724 330.013 106.806 331.108 106.878C331.568 106.91 332.021 106.937 332.479 106.959C332.432 107.106 332.376 107.249 332.31 107.389C331.844 107.362 331.378 107.329 330.911 107.297C329.815 107.228 328.725 107.136 327.629 107.045L326.461 106.948C324.202 106.754 321.943 106.556 319.679 106.411C309.163 105.856 298.618 105.77 288.089 106.152C277.921 106.437 267.739 107.082 257.564 107.088C247.829 107.088 238.165 106.163 228.515 105.195C227.636 105.12 228.292 104.69 228.87 104.755ZM227.209 140.267H228.9V140.342L228.964 140.789C228.942 140.791 228.921 140.791 228.9 140.789C228.336 140.789 227.837 140.825 227.22 140.838V140.267H227.21H227.209ZM175.442 139.975C190.85 140.035 206.271 139.464 221.672 139.393H222.731L222.823 140.355C222.479 140.355 222.162 140.388 221.798 140.399C206.184 141.068 190.387 140.796 174.826 140.71C171.704 140.71 168.579 140.68 165.451 140.622H164.09C158.699 140.561 153.309 140.468 147.92 140.345C146.716 140.317 145.505 140.296 144.295 140.274H143.262H142.304H141.145C135.688 140.187 130.204 140.089 124.785 139.73C124.42 139.73 124.057 139.686 123.694 139.654V139.078H124.752C130.171 139.078 135.615 139.311 141.046 139.502C141.423 139.502 141.794 139.529 142.171 139.545C142.548 139.562 142.892 139.545 143.25 139.583L144.288 139.616C145.933 139.667 147.578 139.711 149.223 139.747C154.137 139.837 159.054 139.91 163.977 139.963H165.498C168.797 139.957 172.111 139.96 175.442 139.975ZM227.209 105.938C227.829 106.001 227.898 106.426 227.265 106.509C227.257 106.313 227.237 106.122 227.209 105.938ZM175.76 105.815C186.435 105.847 197.136 105.775 207.831 105.815H208.905C210.327 105.815 211.756 105.815 213.178 105.837H214.45C216.572 105.856 218.692 105.878 220.806 105.904C221.186 105.904 221.566 105.904 221.946 105.922C221.883 106.107 221.834 106.296 221.802 106.488H220.628C218.575 106.488 216.524 106.494 214.475 106.509H213.165H207.844C196.933 106.473 186.015 106.334 175.124 106.298C166.636 106.27 158.152 106.239 149.672 106.206C141.416 106.174 133.014 106.374 124.771 106C124.43 106 124.574 105.807 124.836 105.797C133.473 105.46 142.287 105.729 150.944 105.747C159.222 105.774 167.494 105.796 175.76 105.815ZM7.34763 136.436C8.66898 136.436 9.98793 136.549 11.29 136.775C11.5605 136.818 11.8244 136.864 12.0817 136.915C12.1507 136.924 12.2181 136.943 12.2817 136.971V137.167C12.1784 137.233 12.0413 137.28 11.8883 137.299C11.7499 137.323 11.6087 137.323 11.4703 137.299C11.3736 137.281 11.2769 137.267 11.1802 137.249C9.78088 136.97 8.29708 136.847 6.81328 136.89C5.74456 136.955 4.73971 137.195 3.66443 137.266C2.33088 137.349 0.945689 137.303 0.0441391 136.71C-0.136171 136.591 0.282674 136.533 0.42448 136.566C3.00705 137.109 4.9003 136.458 7.34763 136.436ZM1.31194 104.271L10.9689 104.744C11.5398 104.772 11.4215 104.673 11.3163 104.342C8.09986 104.182 4.88058 104.024 1.65942 103.869C1.08843 103.841 0.419785 104.228 1.31194 104.271ZM116.503 139.357C116.855 139.378 117.204 139.405 117.553 139.436V139.901L116.516 139.824C83.2948 137.404 49.6838 142.73 16.6683 137.721C16.8656 137.513 16.9191 137.265 17.3285 137.327C50.1262 142.3 83.5192 137.026 116.503 139.357ZM106.242 105.469C106.53 105.469 106.826 105.492 107.122 105.511C108.024 105.548 108.93 105.589 109.831 105.635L110.699 105.676C110.923 105.676 111.139 105.676 111.356 105.709C111.572 105.742 111.928 105.742 112.218 105.756C113.894 105.842 115.571 105.934 117.247 106.033C117.641 106.052 118.035 106.074 118.43 106.101L118.383 106.509C117.976 106.509 117.569 106.458 117.168 106.439C115.537 106.345 113.907 106.254 112.277 106.171C111.974 106.171 111.679 106.134 111.375 106.125C111.074 106.116 110.975 106.101 110.771 106.093C110.436 106.093 110.114 106.055 109.772 106.042C108.936 106.001 108.101 105.963 107.267 105.922C106.892 105.922 106.517 105.889 106.136 105.871C93.6936 105.326 81.2296 105.091 68.7432 105.169C55.9374 105.247 43.1054 105.511 30.2986 105.436H29.5558C25.8613 105.412 22.1669 105.355 18.4724 105.267H17.8807C17.7662 105.264 17.6535 105.251 17.5455 105.224V104.892C17.6619 104.864 17.784 104.854 17.907 104.86H18.4592C22.1838 104.952 25.9091 105.009 29.6347 105.03H30.1803C43.4406 105.108 56.7131 104.827 69.9725 104.757C82.066 104.695 94.1592 104.933 106.241 105.469H106.242ZM25.0603 112.398C25.2885 111.219 25.3063 110.023 25.3589 108.84C25.5238 107.805 25.4365 106.746 25.1044 105.753C25.0255 105.571 24.3672 105.603 24.2799 105.753C23.8659 106.732 23.6883 107.795 23.7615 108.856C23.7089 110.04 23.6206 111.23 23.7615 112.408C23.7615 112.773 25.0077 112.741 25.0781 112.408L25.0603 112.399V112.398Z" fill="#777777"/>
<path d="M29.1126 104.748H29.7624C29.7666 104.763 29.7666 104.778 29.7624 104.793C29.8094 104.938 29.8563 105.088 29.8883 105.238C30.6213 107.876 30.8626 110.626 30.6001 113.352C30.6001 113.619 29.8178 113.614 29.8178 113.352C29.0631 110.711 28.7977 107.953 29.0346 105.216L29.1126 104.82C29.1048 104.797 29.1048 104.772 29.1126 104.748ZM106.302 105.629C106.629 105.629 106.964 105.653 107.299 105.672C107.366 105.812 107.423 105.957 107.469 106.105C107.657 106.941 107.744 107.786 107.73 108.63C107.812 109.887 107.961 111.153 107.879 112.411C107.879 112.751 106.792 112.762 106.718 112.411C106.451 111.164 106.399 109.892 106.295 108.635C106.144 107.771 106.11 106.901 106.19 106.033C106.214 105.896 106.251 105.761 106.302 105.628V105.629ZM109.856 105.629L111.023 105.676L111.129 106.148C111.483 108.243 111.505 110.351 111.191 112.448C111.191 112.736 110.156 112.752 110.104 112.448C109.647 110.328 109.54 108.186 109.784 106.054C109.798 105.911 109.821 105.769 109.856 105.629ZM111.412 104.748C111.799 104.748 112.194 104.789 112.59 104.806L112.671 105.326C112.96 107.107 113.094 108.904 113.166 110.684C113.166 110.979 112.194 110.99 112.141 110.684C111.807 108.893 111.546 107.066 111.438 105.251L111.412 104.748ZM208.8 104.748H210.091C210.189 105.128 210.247 105.517 210.265 105.909C210.265 106.264 210.312 106.624 210.335 106.978C210.439 108.186 210.556 109.4 210.54 110.613C210.54 110.985 209.43 111.032 209.359 110.613C209.138 109.411 209.052 108.197 208.942 106.984L208.831 105.892C208.786 105.512 208.775 105.129 208.8 104.748ZM213.173 112.424C213.173 111.39 213.173 110.355 213.116 109.321C213.217 108.41 213.025 107.497 212.549 106.627C212.434 106.545 212.295 106.503 212.154 106.509C212.014 106.504 211.875 106.545 211.761 106.627C211.4 107.482 211.322 108.43 211.54 109.332C211.617 110.366 211.713 111.401 211.886 112.43C211.944 112.759 213.154 112.741 213.163 112.43L213.173 112.424ZM213.356 105.638H214.928V106.542C214.94 107.677 214.667 108.808 214.117 109.897C214.012 110.086 213.307 110.072 213.234 109.864C213.136 108.767 213.157 107.662 213.298 106.57V105.628L213.355 105.637L213.356 105.638ZM163.999 129.542C164.738 133.01 165.036 136.559 164.887 140.103V140.838H163.691L163.582 140.103C163.089 136.612 163.039 133.073 163.431 129.569C163.458 129.518 163.498 129.476 163.546 129.445C163.594 129.415 163.649 129.398 163.706 129.395C163.764 129.392 163.821 129.404 163.872 129.429C163.924 129.455 163.968 129.494 163.999 129.542ZM142.477 139.182C142.646 139.539 142.752 139.901 142.794 140.266L142.884 140.601C142.884 140.679 142.947 140.761 142.992 140.838H141.409C141.321 140.652 141.269 140.451 141.256 140.245C141.199 139.896 141.284 139.543 141.51 139.207C141.618 139.056 142.387 139.023 142.477 139.182ZM144.131 137.429C144.462 138.351 144.668 139.281 144.748 140.213V140.838H142.999V140.199C142.968 139.282 143.051 138.365 143.246 137.452C143.31 137.376 143.477 137.322 143.67 137.317C143.863 137.313 144.045 137.355 144.131 137.429ZM335.367 106.886C335.865 106.886 336.369 106.886 336.867 106.915C336.8 107.076 336.727 107.234 336.646 107.389C336.135 107.389 335.623 107.389 335.112 107.349C335.191 107.195 335.275 107.034 335.368 106.887L335.367 106.886ZM332.48 107.28C332.552 107.131 332.612 106.979 332.663 106.823C333.478 106.869 334.295 106.904 335.112 106.927C335.021 107.077 334.937 107.231 334.86 107.389C334.066 107.375 333.272 107.339 332.48 107.28ZM333.771 108.753C334.024 108.318 334.257 107.846 334.511 107.389C335.004 107.389 335.497 107.421 335.989 107.426C335.681 108.029 335.305 108.608 334.962 109.141C334.279 110.331 333.501 111.465 332.635 112.53C332.43 112.772 331.43 112.697 331.629 112.332C332.279 111.123 333.073 109.962 333.772 108.753H333.771ZM331.077 106.509C331.547 106.542 332.011 106.57 332.48 106.593C332.432 106.745 332.373 106.894 332.306 107.038C332.122 107.419 331.911 107.791 331.675 108.152C331.064 109.123 330.267 110.003 329.313 110.758C328.963 111.026 327.769 110.954 328.178 110.419C328.413 110.095 328.715 109.809 329.07 109.572C329.591 109.034 330.041 108.451 330.413 107.835C330.581 107.547 330.726 107.25 330.849 106.949L331.077 106.509ZM326.325 107.389C326.622 107.417 326.92 107.441 327.218 107.469L327.063 107.834C326.963 108.071 326.873 108.313 326.792 108.557C326.747 108.701 326.706 108.846 326.67 108.992C326.731 109.021 326.76 109.085 326.74 109.143C326.649 109.422 326.548 109.706 326.479 109.994L326.378 110.633C326.378 110.992 325.497 111.011 325.471 110.633C325.416 109.624 325.64 108.618 326.119 107.729C326.182 107.625 326.25 107.508 326.325 107.39V107.389ZM355.289 107.389C355.091 107.595 354.897 107.806 354.708 108.02C353.609 109.235 352.585 110.468 351.52 111.712C351.402 111.85 350.828 111.801 350.91 111.605C351.717 110.342 352.616 109.143 353.601 108.015L354.141 107.398C354.521 107.398 354.908 107.394 355.289 107.389ZM362.276 107.389H363.185C363.11 107.609 363.016 107.831 362.922 108.051C362.526 108.913 361.994 109.745 361.542 110.571C360.847 111.829 360.164 113.087 359.393 114.313C359.28 114.487 358.71 114.472 358.81 114.241C359.62 112.121 360.623 110.054 361.812 108.056C361.962 107.825 362.112 107.604 362.276 107.389ZM360.552 107.389L359.973 108.07C359.089 109.069 358.12 109.989 357.076 110.818C356.882 110.968 355.984 110.947 356.2 110.667C356.89 109.779 357.685 108.928 358.51 108.085L359.148 107.405C359.594 107.389 360.077 107.389 360.552 107.389ZM445.711 104.748C445.666 105.056 445.644 105.367 445.646 105.678C445.671 107.071 445.892 108.461 446.309 109.833C446.383 110.095 447.333 110.095 447.342 109.833C447.465 108.451 447.395 107.065 447.138 105.688C447.081 105.381 447 105.08 446.895 104.786L445.712 104.748H445.711ZM449.782 110.765C449.91 108.8 449.839 106.826 449.571 104.878C449.545 104.8 449.479 104.748 449.405 104.748C449.331 104.748 449.264 104.8 449.239 104.878C449.091 106.841 449.141 108.813 449.389 110.765C449.389 110.963 449.774 110.953 449.778 110.765H449.782ZM451.843 104.748H452.476V105.532C452.476 106.361 452.476 107.19 452.438 108.014C452.438 108.342 451.851 108.366 451.833 108.014C451.791 107.185 451.777 106.344 451.796 105.508L451.843 104.748ZM474.596 104.748H475.92L475.969 105.088L476.058 105.604C476.365 106.703 476.431 107.855 476.251 108.981C476.189 109.223 475.562 109.189 475.486 108.981C474.892 107.942 474.872 106.724 474.727 105.581V105.392L474.596 104.748ZM398.464 108.473C398.212 108.781 397.99 109.112 397.8 109.463C394.547 115.513 411.921 114.776 415.724 114.983C420.411 115.235 425.277 115.647 429.911 114.818C432.155 114.416 435.527 113.576 437.04 111.967L437.14 111.854C437.253 111.724 437.352 111.589 437.439 111.447C437.583 111.217 437.689 110.965 437.75 110.7C437.412 110.7 437.087 110.7 436.769 110.726L436.656 110.87C436.536 111.023 436.41 111.17 436.277 111.313C436.245 111.354 436.21 111.392 436.171 111.427C432.095 115.549 422.449 114.71 416.661 114.405C413.35 114.23 410.031 114.058 406.703 113.89C404.499 113.771 402.939 113.746 400.954 112.911C399.381 112.251 398.963 112.184 398.856 110.906C398.768 110.137 399.001 109.365 399.52 108.705C399.525 108.69 399.525 108.674 399.52 108.659C399.698 108.355 399.095 108.2 398.717 108.298L398.464 108.473ZM360.601 14.0382L360.552 14.0834L360.601 14.0382Z" fill="#777777"/>
</g>
<defs>
<clipPath id="clip0">
<rect width="509" height="147" fill="white"/>
</clipPath>
</defs>
</svg>
