<svg width="160" height="178" viewBox="0 0 160 178" fill="none" xmlns="http://www.w3.org/2000/svg">
<path d="M158.022 50.517C158.697 49.482 159.056 48.2733 159.056 47.038C159.09 46.1803 158.948 45.3248 158.638 44.5241C158.329 43.7233 157.859 42.9944 157.258 42.382C158.122 41.6323 158.751 40.6491 159.07 39.5506C159.389 38.452 159.384 37.2848 159.056 36.189C158.781 35.4582 158.326 34.8083 157.734 34.2993C157.142 33.7902 156.431 33.4383 155.667 33.276C156.057 32.8154 156.332 32.2689 156.47 31.6813C156.607 31.0936 156.603 30.4817 156.458 29.896C156.29 29.1987 155.939 28.5589 155.441 28.0423C154.944 27.5257 154.317 27.1511 153.627 26.957C153.97 26.3865 154.09 25.7092 153.964 25.0555C153.838 24.4018 153.475 23.8178 152.944 23.416C151.68 22.5588 150.141 22.203 148.629 22.418C148.629 22.338 148.629 22.265 148.575 22.184C148.027 20.216 146.49 19.389 144.476 19.766C143.703 19.9093 142.956 20.1636 142.256 20.521C139.658 17.987 135.164 16.566 132.809 20.144C132.277 20.1472 131.749 20.2349 131.245 20.404C128.081 21.411 127.325 25.492 127.649 28.342C128.135 32.773 130.993 36.081 134.022 39.128C133.124 41.825 133.07 44.278 134.742 46.76C134.867 46.94 134.993 47.12 135.128 47.29C131.536 49.7689 128.479 52.9453 126.139 56.63C127.039 50.993 124.746 45.007 125.924 39.28C125.978 39.002 125.24 38.121 125.024 38.436C122.953 41.3074 121.36 44.4944 120.306 47.874C118.235 47.3471 116.042 47.6035 114.148 48.594C113.924 48.701 113.708 48.827 113.492 48.944C113.567 47.73 113.268 46.5222 112.635 45.4837C112.001 44.4452 111.065 43.6261 109.951 43.137C106.849 41.816 103.757 43.658 102.49 46.445C101.812 45.5524 100.902 44.8638 99.8582 44.4545C98.8148 44.0453 97.6789 43.9313 96.575 44.125C91.065 44.755 90.058 50.787 92.081 55.011C88.917 53.996 85.609 54.382 83.596 57.708C82.22 59.964 82.84 62.975 85.69 63.461C88.755 63.982 92.54 62.813 95.578 61.528L96.297 61.213C96.396 61.321 96.503 61.42 96.611 61.519C98.4015 63.3557 100.715 64.5953 103.236 65.069C102.263 68.0583 101.491 71.1095 100.926 74.202C99.1086 72.2388 97.1267 70.4345 95.002 68.809C94.804 68.656 93.789 68.71 93.861 69.088C94.351 71.712 94.528 74.385 94.391 77.052C94.247 79.425 93.331 81.987 93.897 84.36C94.4039 86.1367 95.5417 87.6675 97.097 88.665C88.324 88.767 79.551 88.953 70.777 89.222C70.1803 87.8486 69.7256 86.4178 69.42 84.952C72.836 84.612 75.604 83.155 76.863 79.82C77.6568 77.7055 78.0146 75.4523 77.915 73.196C77.762 63.2 76.665 51.721 82.409 43.101C83.4751 41.75 84.7106 40.5417 86.085 39.506C86.391 39.281 85.609 38.292 85.285 38.535C84.5346 39.0975 83.8257 39.7134 83.164 40.378C78.76 44.791 76.504 51.038 71.658 55.056C72.656 46.481 73.771 37.411 79.335 30.696L79.838 30.867C82.13 31.533 84.476 30.742 86.508 29.654L86.625 29.6C86.64 29.811 86.667 30.021 86.705 30.23C87.658 35.811 95.002 38.912 100.09 36.153C102.382 34.913 104.297 32.413 103.55 29.708C103.494 29.4928 103.423 29.2822 103.335 29.078C105.672 28.278 107.982 26.139 107.937 23.568C107.962 22.984 107.812 22.4057 107.506 21.9077C107.2 21.4096 106.752 21.0144 106.22 20.773C105.44 20.4764 104.584 20.4448 103.784 20.683C105.204 18.885 106.256 16.746 105.681 14.562C105.258 12.952 103.667 12.836 102.004 13.16C102.074 12.3369 101.938 11.5093 101.607 10.7525C101.275 9.99575 100.76 9.33381 100.108 8.82696C98.463 7.61296 96.512 7.92796 94.634 8.43096C94.515 8.24863 94.3728 8.08257 94.211 7.93696C93.6942 7.52155 93.0696 7.26207 92.4106 7.18892C91.7516 7.11577 91.0853 7.232 90.49 7.52396C90.8496 6.68662 90.9238 5.75424 90.7012 4.87056C90.4785 3.98689 89.9714 3.20097 89.258 2.63396C86.84 0.772962 83.793 2.14796 82.184 4.31396C82.1512 4.36363 82.1269 4.41836 82.112 4.47596C81.082 4.47596 80.075 4.78996 79.227 5.37596C79.1727 4.2165 78.6937 3.11753 77.8814 2.28842C77.069 1.45931 75.9801 0.957987 74.822 0.879962C73.438 0.744962 71.461 1.04196 70.418 2.06596C69.375 3.09096 69.6 4.32296 69.645 5.56296C68.893 5.39721 68.114 5.39721 67.362 5.56296C66.5796 5.72493 65.8463 6.06889 65.2216 6.56698C64.5968 7.06507 64.0982 7.70329 63.766 8.42996C61.966 8.21996 60.167 8.83896 58.876 10.111C58.1786 10.8256 57.7248 11.7423 57.5795 12.7303C57.4342 13.7182 57.6048 14.7268 58.067 15.612C55.667 16.942 53.924 20.107 55.047 22.803C56.234 25.68 60.773 27.046 63.587 27.1C67.083 27.172 70.571 26.147 73.924 24.952L74.994 24.574C74.9431 24.7135 74.9431 24.8665 74.994 25.006L75.047 25.15C75.857 27.181 76.845 29.356 78.804 30.408C72.27 38.21 71.614 48.7 70.337 58.426C68.44 50.408 67.2 42.156 65.618 34.076C65.555 33.743 64.719 34.489 64.719 34.893C63.919 39.927 63.254 45.851 63.883 50.929C64.583 56.425 64.278 62.001 62.984 67.388C61.879 72.017 59.901 75.999 61.007 80.817C61.996 85.077 64.917 86.21 68.863 87.217C69.061 87.882 69.276 88.538 69.528 89.186C62.936 89.389 56.345 89.644 49.753 89.95C49.5628 88.9387 49.3501 87.9318 49.115 86.93C54.364 82.39 57.33 76.143 58.508 69.347C59.982 60.737 58.166 52.467 58.13 43.873V43.559C58.1393 43.5084 58.1393 43.4565 58.13 43.406C58.058 43.172 57.77 43.406 57.573 43.72C57.4643 43.8135 57.3782 43.9305 57.321 44.062C55.712 49.312 54.013 54.651 51.991 59.747C50.292 64.071 47.784 67.837 46.139 72.187C46.139 72.026 46.085 71.847 46.067 71.684C46.0783 71.6586 46.0841 71.6312 46.0841 71.6035C46.0841 71.5757 46.0783 71.5483 46.067 71.523C45.843 70.003 45.627 68.475 45.375 66.956C44.7233 63.1046 43.4034 59.3968 41.475 56L41.321 55.73C41.106 55.344 40.871 54.957 40.647 54.58C38.9954 51.877 37.1191 49.318 35.038 46.93C35.208 46.858 35.374 46.774 35.533 46.679C37.753 45.393 39.676 41.231 39.613 38.409C43.1082 38.55 46.6083 38.3029 50.049 37.672C52.746 37.187 54.724 36.135 55.371 33.366C55.784 31.569 55.712 29.07 54.274 27.757C53.4712 27.0957 52.4943 26.6807 51.461 26.562C52.0007 25.9209 52.3997 25.1735 52.6319 24.3683C52.8641 23.5631 52.9245 22.718 52.809 21.888C52.252 18.544 48.566 18.202 45.869 19.272C45.456 17.879 44.261 17.106 41.861 17.969C41.571 18.072 41.289 18.195 41.016 18.337C40.206 16.872 37.906 16.099 36.333 16.351C35.2535 16.5494 34.2688 17.0964 33.53 17.9081C32.7913 18.7199 32.3391 19.7516 32.243 20.845C31.7923 20.7208 31.321 20.6901 30.858 20.755C30.418 20.817 29.988 20.941 29.582 21.124C29.497 20.843 29.382 20.572 29.24 20.314C28.342 18.688 26.355 18.319 24.647 18.598C22.939 18.876 21.825 19.865 21.797 21.69C21.772 22.598 21.868 23.505 22.085 24.387C19.829 24.009 17.492 25.231 15.793 27.083C14.8313 26.6346 13.7677 26.4499 12.7111 26.5478C11.6546 26.6457 10.643 27.0226 9.77999 27.64C9.13995 28.2011 8.70888 28.9625 8.55706 29.8001C8.40524 30.6376 8.54163 31.5019 8.94399 32.252C9.41059 33.1478 10.1503 33.8718 11.056 34.319C10.2766 34.4769 9.53718 34.7909 8.88225 35.242C8.22732 35.6931 7.6704 36.2721 7.24499 36.944C6.96809 37.4657 6.80778 38.0414 6.77515 38.6312C6.74251 39.221 6.83834 39.8108 7.05599 40.36C6.1337 40.2444 5.19747 40.3213 4.30641 40.5859C3.41535 40.8504 2.58882 41.2969 1.87899 41.897C-2.15701 45.348 1.40199 48.431 5.06899 49.762C4.42737 50.7858 4.06349 51.9592 4.01316 53.1664C3.96284 54.3737 4.22781 55.5732 4.78199 56.647C5.09548 57.391 5.56231 58.0606 6.15202 58.6121C6.74174 59.1636 7.44109 59.5845 8.20446 59.8475C8.96783 60.1105 9.77807 60.2096 10.5823 60.1383C11.3866 60.0671 12.1668 59.8271 12.872 59.434C17.502 57.214 20.872 51.182 23.128 46.571C26.373 47.658 31.218 48.369 34.517 47.128C36.5941 49.6247 38.5384 52.229 40.342 54.93C40.485 55.146 40.612 55.37 40.755 55.596C41.1545 56.2892 41.5294 56.9963 41.879 57.716C43.676 61.564 44.387 65.645 44.926 69.816C43.3349 67.5758 41.4063 65.5957 39.209 63.946C35.488 61.186 30.975 59.901 27.137 57.348C26.939 57.213 26.238 57.007 26.507 57.492C28.9469 61.6255 31.0513 65.948 32.8 70.418C34.337 74.409 35.065 78.813 36.863 82.678C39.056 87.407 43.883 88.404 48.62 89.088C48.674 89.384 48.728 89.672 48.773 89.987C44.836 90.167 40.89 90.373 36.953 90.589C36.8125 90.675 36.696 90.795 36.6142 90.938C36.5324 91.081 36.488 91.2423 36.485 91.407C34.939 103.038 34.193 114.93 36.153 126.562C38.023 137.717 42.274 148.342 47.253 158.445C49.2758 162.755 51.6829 166.873 54.445 170.751C55.605 172.324 57.33 175.146 59.137 176.081C60.036 176.531 61.834 176.315 62.867 176.404C64.557 176.542 66.253 176.665 67.955 176.773C79.154 177.61 90.407 177.351 101.555 176H101.627C101.662 175.98 101.693 175.952 101.717 175.92C101.75 175.892 101.777 175.858 101.797 175.82C110.054 163.871 116.284 150.642 120.234 136.665C124.629 121.169 126.364 105.088 127.424 89.025C127.424 88.863 127.424 88.647 127.227 88.647C124.063 88.611 120.893 88.587 117.717 88.575C117.475 87.738 117.337 86.875 117.303 86.005C117.929 85.2063 118.454 84.3338 118.867 83.407C120.555 80.1435 122.981 77.3182 125.951 75.155C130.876 71.362 136 67.811 141.025 64.162C141.169 64.054 141.663 63.02 141.231 63.102C132.757 64.3944 124.887 68.2635 118.688 74.184C119.255 71.7507 120.097 69.3896 121.196 67.146C122.134 65.1947 123.132 63.2731 124.189 61.384C124.647 60.566 125.088 59.739 125.618 58.93C128.315 54.57 131.47 50.49 135.506 47.766C137.043 49.688 139.127 51.0984 141.483 51.811C141.61 51.8291 141.739 51.8071 141.852 51.748C142.02 51.687 142.175 51.596 142.31 51.478L142.553 51.613L142.778 51.739C142.774 51.7689 142.774 51.7991 142.778 51.829C142.238 55.425 141.698 59.245 142.948 62.742C143.784 65.052 145.519 67.596 148.342 66.804C151.56 65.906 152.584 62.598 152.522 59.272C155.137 60.584 158.067 58.822 159.416 56.396C160.584 54.166 159.533 52.171 158.022 50.516V50.517Z" fill="white"/>
<path d="M23.47 45.5551C23.4199 45.3212 23.3151 45.1025 23.164 44.9171C23.0854 44.8459 22.9937 44.7909 22.894 44.7551C20.764 43.6401 17.78 43.4431 14.804 44.0091L14.058 44.1711C10.526 44.9801 7.11897 46.8221 5.30297 49.3841C5.20397 49.5371 5.10597 49.6901 5.01597 49.8341C4.37419 50.8579 4.01013 52.0311 3.95963 53.2384C3.90913 54.4457 4.17394 55.6453 4.72797 56.7191C5.04146 57.4631 5.50828 58.1327 6.098 58.6842C6.68771 59.2357 7.38707 59.6566 8.15044 59.9196C8.91381 60.1826 9.72404 60.2817 10.5283 60.2104C11.3325 60.1392 12.1127 59.8992 12.818 59.5061C17.448 57.2861 20.818 51.2541 23.074 46.6431C23.173 46.4451 23.272 46.2561 23.353 46.0671H23.191C23.236 45.8791 23.344 45.7071 23.47 45.5551ZM16.89 53.9241C15.2 56.1531 11.892 60.2161 8.53997 59.1281C7.05597 58.7681 4.44997 55.5331 4.79997 53.9331L5.38397 51.7031C5.61397 51.1761 5.89797 50.6731 6.22897 50.2031C6.35297 50.0091 6.48897 49.8231 6.63397 49.6451L6.70597 49.5551C7.90355 48.1471 9.40673 47.0311 11.101 46.2921C12.3987 45.7017 13.7585 45.2586 15.155 44.9711L15.811 44.8541C18.0232 44.4453 20.3039 44.6218 22.427 45.3661L22.139 45.8161L21.933 46.1301C20.27 48.7551 18.769 51.4521 16.89 53.9691V53.9241Z" fill="#777777"/>
<path d="M15.811 44.8629L15.155 44.9799L14.049 44.1619C12.4513 42.9189 10.6159 42.0164 8.65598 41.5099C8.26641 41.4199 7.86942 41.3656 7.46998 41.3479H7.07398C6.16157 41.3086 5.25154 41.4684 4.40711 41.8162C3.56267 42.164 2.80406 42.6915 2.18398 43.3619C0.539977 45.1599 0.0809765 47.3889 4.67398 49.2039C4.87898 49.2829 5.08898 49.3459 5.30398 49.3939C5.77198 49.4849 6.24698 49.5479 6.72398 49.5819L6.65198 49.6719C6.50649 49.8497 6.37127 50.0357 6.24698 50.2289C5.83097 50.1226 5.42018 49.9968 5.01598 49.8519C1.34798 48.5219 -2.17502 45.4289 1.82498 41.9869C2.53443 41.3862 3.3609 40.9393 4.25204 40.6745C5.14319 40.4098 6.0796 40.333 7.00198 40.4489C7.41298 40.4909 7.82198 40.5569 8.22498 40.6469C10.6437 41.2803 12.895 42.4338 14.822 44.0269C15.146 44.2869 15.515 44.5749 15.812 44.8629H15.811Z" fill="#777777"/>
<path d="M26.4 42.3459C26.058 42.6249 25.735 42.9299 25.411 43.2449C25.3126 43.2277 25.2225 43.1789 25.1544 43.1057C25.0863 43.0326 25.044 42.9393 25.034 42.8399C25.034 42.6969 25.097 42.5619 25.124 42.4269C25.717 38.8309 22.364 36.4219 18.67 35.3349L18.14 35.1909C17.0693 34.912 15.9723 34.7464 14.867 34.6969C13.9797 34.6504 13.0904 34.7288 12.225 34.9299L12.009 34.9839C9.19596 35.7939 7.23596 38.1209 8.19796 40.6379C8.31196 40.9539 8.46296 41.2559 8.64796 41.5379C8.2581 41.4474 7.86077 41.3928 7.46096 41.3749C7.25699 41.0999 7.09334 40.7972 6.97496 40.4759C6.75746 39.9269 6.66171 39.3372 6.69434 38.7476C6.72698 38.158 6.8872 37.5825 7.16396 37.0609C7.58937 36.389 8.14629 35.81 8.80121 35.3589C9.45614 34.9078 10.1956 34.5938 10.975 34.4359C11.7417 34.2346 12.5286 34.1199 13.321 34.0939C13.708 34.0729 14.095 34.0729 14.481 34.0939C15.73 34.1689 16.968 34.3699 18.175 34.6969L18.705 34.8489C22.301 35.9009 26.067 38.0489 26.409 41.3299C26.4474 41.6676 26.4444 42.0088 26.4 42.3459Z" fill="#777777"/>
<path d="M39.46 38.4629C39.4609 38.6213 39.4119 38.776 39.32 38.905C39.2281 39.0341 39.098 39.1309 38.948 39.1819L38.346 39.0829C37.5589 38.9507 36.7621 38.8844 35.964 38.8849C35.7065 38.8703 35.4484 38.8703 35.191 38.8849C33.097 38.9524 31.045 39.49 29.187 40.4579C29.007 40.5479 28.827 40.6479 28.657 40.7549C27.856 41.2099 27.1 41.7389 26.4 42.3369C26.058 42.6159 25.735 42.9209 25.411 43.2359C24.7002 43.95 24.0509 44.7227 23.47 45.5459C23.344 45.6989 23.236 45.8609 23.128 46.0219C23.02 46.1839 22.894 46.3639 22.787 46.5519C22.679 46.7419 22.517 46.9929 22.382 47.2179C22.067 47.7749 22.076 46.9479 22.184 46.7149L22.337 46.3909C22.5763 45.8806 22.8464 45.3853 23.146 44.9079C23.707 44.0069 24.367 43.1719 25.115 42.4179C26.093 41.4246 27.2063 40.5742 28.422 39.8919L28.952 39.6039C30.7811 38.6667 32.7745 38.0928 34.822 37.9139C35.237 37.8649 35.654 37.8409 36.072 37.8429C36.212 37.8349 36.354 37.8349 36.494 37.8429C37.167 37.8459 37.84 37.8879 38.508 37.9689L39.344 38.0849C39.47 38.0949 39.497 38.2559 39.461 38.4629H39.46Z" fill="#777777"/>
<path d="M39.497 38.463C39.56 41.285 37.636 45.447 35.416 46.733C35.256 46.828 35.092 46.912 34.921 46.984H34.867C34.7324 47.0482 34.5946 47.1053 34.454 47.155C31.146 48.413 26.31 47.685 23.065 46.598L22.84 46.517L22.4 46.355L22.22 46.292C22.1323 46.2425 22.0535 46.1786 21.987 46.103L22.193 45.789L22.643 45.879L23.191 45.987H23.353C26.661 46.679 30.858 47.425 33.852 46.077L33.978 46.022H34.031L34.139 45.96C34.282 45.893 34.419 45.818 34.553 45.735C36.629 44.467 37.897 41.618 38.409 39.029C38.463 38.796 38.499 38.579 38.526 38.355C38.553 38.13 38.58 38.058 38.589 37.905C38.589 37.618 38.652 37.33 38.669 37.061H39.002C39.192 37.163 39.352 37.315 39.461 37.501C39.507 37.82 39.519 38.142 39.497 38.463ZM18.706 34.796V35.344L18.176 35.2V34.643C18.274 32.476 18.103 30.148 16.27 28.701C16.1377 28.5998 15.9994 28.5066 15.856 28.422C15.6284 28.2868 15.3875 28.1755 15.137 28.09C13.9362 27.7222 12.6528 27.7222 11.452 28.09C10.274 28.404 8.88098 28.989 8.97998 30.562C9.04298 31.551 10.364 32.71 11.182 33.258C11.855 33.6304 12.5786 33.9033 13.33 34.068C13.81 34.183 14.282 34.334 14.742 34.517C14.808 34.567 14.852 34.641 14.867 34.724C13.9797 34.6775 13.0904 34.7559 12.225 34.957C11.7949 34.8066 11.377 34.6234 10.975 34.409C10.0693 33.9618 9.32957 33.2378 8.86298 32.342C8.46061 31.5919 8.32422 30.7276 8.47604 29.8901C8.62786 29.0525 9.05893 28.2911 9.69898 27.73C10.562 27.1126 11.5735 26.7357 12.6301 26.6378C13.6867 26.54 14.7503 26.7246 15.712 27.173C16.032 27.32 16.334 27.504 16.612 27.721C16.842 27.896 17.052 28.095 17.24 28.315C18.75 30.085 18.858 32.53 18.706 34.795V34.796Z" fill="#777777"/>
<path d="M29.187 40.4849C29.007 40.5749 28.827 40.6749 28.6569 40.7819C28.5658 40.4857 28.4874 40.1858 28.422 39.8829C27.703 37.0069 27.308 34.0759 26.625 31.1999C25.942 28.3239 24.539 26.7059 22.895 26.0399L22.715 25.9779C20.818 25.2939 18.607 25.9239 16.629 27.6759C16.3692 27.907 16.1203 28.1499 15.883 28.4039C15.6554 28.2687 15.4144 28.1574 15.164 28.0719C15.1423 27.958 15.1614 27.8401 15.218 27.7389C15.38 27.5329 15.56 27.3259 15.739 27.1289C17.42 25.2669 19.757 24.0449 22.031 24.4309C22.235 24.4629 22.436 24.5079 22.634 24.5659C23.5672 24.8602 24.4092 25.3894 25.079 26.1029L25.312 26.3639C25.6 26.6979 25.85 27.0639 26.058 27.4519C26.613 28.6019 26.992 29.8289 27.1819 31.0919C27.7389 33.9599 28.2879 36.7819 28.9799 39.5959C28.9979 39.9009 29.115 40.1889 29.187 40.4859V40.4849ZM45.7529 19.3349C45.3389 17.9419 44.143 17.1689 41.743 18.0309C41.454 18.1349 41.1719 18.2579 40.8989 18.3999C40.5349 18.5799 40.184 18.7849 39.847 19.0109C38.0751 20.2334 36.5503 21.7799 35.353 23.5689C35.2368 23.7331 35.1257 23.9008 35.02 24.0719C34.822 24.3869 34.634 24.7099 34.463 25.0249C32.387 28.7999 33.375 33.9149 34.804 37.9329C34.921 38.2649 35.038 38.5889 35.164 38.9029C35.4214 38.8883 35.6795 38.8883 35.937 38.9029C35.9773 38.8574 36.0107 38.8062 36.0359 38.7509C36.1259 38.5709 36.2059 38.3909 36.306 38.2209L36.486 37.8609C36.611 37.6269 36.746 37.3839 36.881 37.1599C38.679 34.0219 41.1409 31.2899 43.0919 28.2599C43.3259 27.9009 43.551 27.5329 43.757 27.1639C44.3728 26.1299 44.8904 25.0405 45.303 23.9099C45.7167 22.8069 45.9182 21.6357 45.8969 20.4579C45.8945 20.0791 45.8462 19.702 45.7529 19.3349ZM44.853 23.1189C44.4185 24.5904 43.7932 25.9987 42.993 27.3079C42.837 27.5839 42.673 27.8499 42.499 28.1079C40.404 31.3709 37.636 34.2479 35.874 37.7169C34.885 34.1209 33.4919 29.9599 34.5439 26.3099C34.7283 25.7287 34.985 25.173 35.3079 24.6559C35.4159 24.4669 35.533 24.2789 35.658 24.0899C36.52 22.8254 37.5381 21.6747 38.688 20.6649C39.0879 20.3269 39.518 20.0259 39.9729 19.7659C40.3549 19.5459 40.759 19.3659 41.178 19.2269C42.678 18.7059 44.1169 18.8309 44.7729 19.8649C44.9199 20.1119 45.0229 20.3829 45.0789 20.6649C45.1943 21.4893 45.1173 22.3292 44.854 23.1189H44.853Z" fill="#777777"/>
<path d="M29.672 22.5079C29.444 22.6299 29.225 22.7679 29.016 22.9209C29.0415 22.4294 28.9837 21.9371 28.845 21.4649C28.726 21.1044 28.5216 20.778 28.2493 20.5135C27.977 20.249 27.6448 20.0543 27.281 19.9459C26.3844 19.6769 25.4332 19.6459 24.521 19.8559C23.111 20.1529 22.265 20.7559 22.229 22.3999C22.225 23.1479 22.339 23.8909 22.571 24.6019C22.647 24.8499 22.737 25.0929 22.841 25.3299C22.905 25.5779 22.905 25.8379 22.841 26.0849L22.661 26.0219C22.3311 25.5603 22.0959 25.0379 21.969 24.4849C21.7518 23.6033 21.6549 22.6964 21.681 21.7889C21.681 19.9909 22.741 18.9929 24.531 18.6969C26.319 18.3999 28.234 18.7869 29.124 20.4129C29.265 20.6709 29.38 20.9419 29.465 21.2229C29.587 21.6409 29.656 22.0729 29.672 22.5079Z" fill="#777777"/>
<path d="M35.6499 24.08C35.5265 24.2649 35.4094 24.454 35.2989 24.647C35.2593 24.5923 35.2289 24.5315 35.2089 24.467C35.1669 24.3278 35.1127 24.1926 35.0469 24.063C34.8934 23.6382 34.6548 23.2492 34.3456 22.9199C34.0364 22.5906 33.6632 22.3279 33.2489 22.148C32.8687 21.9826 32.4595 21.8942 32.0449 21.888C31.2072 21.8756 30.3805 22.0799 29.6449 22.481C29.4169 22.603 29.1979 22.741 28.9889 22.894C28.7819 23.038 28.5839 23.194 28.3959 23.362C27.217 24.4709 26.3783 25.8927 25.9779 27.461C25.9059 27.712 25.8429 27.973 25.7799 28.234C25.7169 28.494 25.0429 27.704 25.0599 27.461C25.0829 27.091 25.1399 26.723 25.2309 26.364C25.7472 24.3186 27.0361 22.5529 28.8269 21.438C29.0269 21.323 29.2339 21.221 29.4469 21.133C29.8529 20.95 30.2829 20.8257 30.7239 20.764C31.1866 20.6993 31.6576 20.7299 32.1079 20.854C32.5209 20.954 32.9159 21.122 33.2759 21.348C34.1471 21.8922 34.8675 22.6467 35.3709 23.542C35.4789 23.739 35.5779 23.91 35.6489 24.081L35.6499 24.08Z" fill="#777777"/>
<path d="M41.169 19.209C40.7502 19.348 40.3465 19.5289 39.964 19.749C39.9441 19.4997 39.9019 19.2527 39.838 19.011C39.7484 18.6399 39.5833 18.2913 39.353 17.987C39.1658 17.7182 38.9276 17.4888 38.652 17.312C37.7951 16.9714 36.8563 16.8934 35.955 17.088C35.475 17.286 35.046 17.594 34.705 17.987C33.8239 18.8963 33.3253 20.1089 33.312 21.375V22.157C32.9318 21.9916 32.5225 21.9032 32.108 21.897C32.0754 21.5561 32.0754 21.2128 32.108 20.872C32.2041 19.7786 32.6562 18.7469 33.395 17.9351C34.1338 17.1234 35.1184 16.5764 36.198 16.378C37.771 16.126 40.072 16.898 40.881 18.364C41.027 18.626 41.125 18.912 41.169 19.209ZM51.344 26.616C50.9406 27.1269 50.4723 27.5831 49.951 27.973C49.717 27.973 49.483 27.973 49.249 27.919H48.593C48.605 27.8712 48.6299 27.8276 48.665 27.793C49.195 27.362 49.771 26.975 50.301 26.517C50.558 26.305 50.799 26.073 51.021 25.825C52.18 24.521 52.773 22.157 51.29 20.827C49.807 19.497 47.694 19.982 45.897 20.449L44.997 20.674C44.9421 20.3917 44.8389 20.1211 44.692 19.874C44.7023 19.8451 44.7211 19.82 44.746 19.802C45.036 19.632 45.336 19.482 45.645 19.352C48.342 18.283 52.027 18.625 52.585 21.969C52.7112 22.7872 52.6661 23.6228 52.4524 24.4228C52.2388 25.2227 51.8614 25.9695 51.344 26.616Z" fill="#777777"/>
<path d="M55.254 33.4201C54.616 36.1891 52.602 37.2311 49.933 37.7261C46.492 38.3561 42.992 38.6041 39.497 38.4631C39.155 38.4631 38.831 38.4631 38.499 38.4091C37.779 38.4091 37.069 38.2921 36.369 38.2021H36.306C36.2443 38.1709 36.1938 38.1214 36.1616 38.0603C36.1293 37.9992 36.1169 37.9296 36.126 37.8611C36.0855 37.7362 36.0845 37.6019 36.1231 37.4764C36.1618 37.351 36.2382 37.2405 36.342 37.1601H38.975C42.463 37.1601 45.933 37.3571 49.42 36.6921C50.526 36.4851 52.054 36.3871 52.962 35.6041C54.712 30.8101 54.154 28.3301 51.29 28.1621C50.8606 28.0978 50.4289 28.0498 49.996 28.0181C49.762 28.0181 49.528 28.0181 49.294 27.9641H48.638C46.8038 27.9197 44.9693 28.0341 43.155 28.3061L42.661 28.3781C42.607 28.3781 42.561 28.3061 42.535 28.1801C42.709 27.9221 42.873 27.6551 43.029 27.3801L43.82 27.2091C45.9556 26.716 48.1462 26.5016 50.337 26.5711C50.687 26.5711 51.038 26.6341 51.371 26.6971C52.4042 26.8158 53.3811 27.2308 54.184 27.8921C55.587 29.1241 55.658 31.6581 55.254 33.4201ZM76.17 24.2071C76.1747 24.1989 76.1772 24.1896 76.1772 24.1801C76.1772 24.1706 76.1747 24.1613 76.17 24.1531L76.09 24.0631C75.83 23.7571 76.144 19.4521 76.09 18.7781C75.9327 17.4175 75.7138 16.0648 75.434 14.7241C75.4366 14.6701 75.4366 14.616 75.434 14.5621C75.263 13.7171 75.092 12.8091 74.858 11.9101C74.5823 10.6443 74.1063 9.43073 73.448 8.31508C72.709 7.1153 71.5788 6.2072 70.248 5.74408C70.0656 5.67831 69.8792 5.6242 69.69 5.58208C68.938 5.41633 68.1589 5.41633 67.4069 5.58208C66.6245 5.74405 65.8913 6.088 65.2665 6.5861C64.6418 7.08419 64.1431 7.72241 63.811 8.44908C63.721 8.63008 63.644 8.81608 63.578 9.00708C63.0461 10.4826 63.0461 12.0975 63.578 13.5731C65.321 18.3281 71.56 20.9531 75.11 24.0631C75.326 24.2701 76.225 24.4231 76.189 24.1711L76.171 24.2071H76.17ZM69.07 18.7691C66.427 16.7101 62.984 12.4761 64.62 9.06908C64.667 8.96708 64.7199 8.86808 64.7819 8.77308C65.1819 8.11608 65.719 7.55208 66.355 7.11908C66.8031 6.7361 67.3268 6.45179 67.8921 6.28466C68.4575 6.11753 69.0516 6.07134 69.636 6.14908C69.802 6.17908 69.966 6.22708 70.121 6.29208C72.422 7.19108 73.582 11.1281 74.184 14.1301C74.31 14.6971 74.4 15.2271 74.481 15.7031C74.561 16.1801 74.643 16.7731 74.688 17.1331C74.813 18.0311 74.598 21.2131 74.778 22.9751C72.917 21.5101 70.939 20.2151 69.07 18.7601V18.7691ZM101.87 22.6521C97.663 26.4361 92.063 27.6491 86.589 27.8381C86.193 27.8381 86.139 26.5981 86.526 26.5881C92.36 26.3911 98.211 25.1601 102.706 20.5031C102.849 20.3421 102.993 20.1891 103.128 20.0181L103.182 19.9641C103.868 19.1588 104.261 18.1452 104.297 17.0881C104.297 16.6481 104.369 16.1881 104.404 15.7581C104.416 15.5577 104.386 15.3571 104.314 15.1697C104.242 14.9823 104.13 14.8125 103.987 14.6718C103.844 14.5311 103.672 14.4228 103.484 14.3542C103.295 14.2855 103.094 14.2582 102.894 14.2741H102.706C102.237 14.2841 101.771 14.3381 101.312 14.4361L100.971 14.5081C97.8748 15.4124 94.928 16.7661 92.225 18.5261C89.2475 20.4463 86.4815 22.6761 83.973 25.1781C83.721 25.4111 83.479 24.2781 83.766 23.9641C87.991 19.9101 92.701 16.1801 98.31 14.2921C98.948 14.0761 99.91 13.6991 100.926 13.3931C101.267 13.2941 101.627 13.2041 101.978 13.1331C103.64 12.8091 105.231 12.9261 105.654 14.5351C106.463 17.6541 103.982 20.7101 101.87 22.6521Z" fill="#777777"/>
<path d="M87.047 29.4021C87.017 29.7181 86.877 30.0141 86.652 30.2381C86.6134 30.03 86.5863 29.8201 86.571 29.6091L86.454 29.6631C86.4454 29.3612 86.4123 29.0605 86.355 28.7641C85.537 24.2701 80.009 23.7481 75.919 24.9171C75.596 25.0071 75.281 25.1151 75.02 25.2221L74.966 25.0791C74.9151 24.9396 74.9151 24.7866 74.966 24.6471L73.896 25.0251C73.897 24.7711 74.005 24.5291 74.193 24.3601L74.688 24.1441L75.587 23.8021C76.1279 23.6245 76.6801 23.4835 77.24 23.3801C81.52 22.5621 86.283 23.7751 86.94 28.3061V28.4221C86.976 28.6491 86.997 28.8771 87.002 29.1061C87.047 29.1861 87.047 29.2941 87.047 29.4021Z" fill="#777777"/>
<path d="M87.128 28.8001C87.1044 28.8833 87.0743 28.9645 87.038 29.0431C86.9866 29.2118 86.8868 29.3616 86.751 29.4741L86.571 29.5731L86.454 29.6271C84.422 30.7151 82.076 31.5151 79.784 30.8401C77.133 30.0671 75.937 27.5151 74.984 25.1501L74.93 25.0071C74.8791 24.8676 74.8791 24.7146 74.93 24.5751C75.083 24.1801 75.443 23.7571 75.524 23.9731L75.739 24.3061C75.82 24.4761 75.892 24.6561 75.964 24.8361C76.755 26.6961 77.762 28.6111 79.694 29.4561C81.914 30.4361 84.342 29.7261 86.4 28.6831L86.598 28.5751L87.011 28.3601H87.065C87.109 28.5021 87.131 28.6501 87.128 28.8001Z" fill="#777777"/>
<path d="M77.142 23.811L75.694 24.351L74.966 24.621L73.896 24.998C70.553 26.193 67.056 27.218 63.56 27.146C60.746 27.092 56.216 25.726 55.02 22.849C53.897 20.153 55.65 16.998 58.04 15.659C60.62 14.229 63.667 14.697 66.193 15.937C66.652 16.171 65.537 16.657 65.223 16.494C61.78 14.796 56.728 15.721 55.991 19.964C55.541 22.526 57.241 24.126 59.335 25.169C64.261 27.604 69.725 25.915 74.679 24.099L75.578 23.757C76.1189 23.5794 76.6711 23.4384 77.231 23.335C77.537 23.407 77.645 23.622 77.141 23.811H77.142ZM100.009 36.162C94.921 38.922 87.569 35.82 86.625 30.238C86.5864 30.03 86.5593 29.82 86.544 29.609C86.5224 29.2797 86.5224 28.9493 86.544 28.62V28.333C86.544 27.856 86.778 28 86.93 28.279L86.984 28.387C87.048 28.529 87.087 28.681 87.101 28.836V28.908C86.643 34.04 93.474 36.593 97.483 35.758C98.5891 35.544 99.6388 35.1031 100.566 34.463C102.661 32.953 103.164 32.449 102.184 29.969C101.285 27.676 101.106 27.667 99.326 27.092C97.9939 26.771 96.6382 26.5576 95.272 26.454C94.84 26.4 95.497 25.214 95.82 25.249C98.867 25.6 102.553 26.329 103.488 29.744C104.243 32.396 102.328 34.921 100.009 36.162Z" fill="#777777"/>
<path d="M101.86 22.6161C102.676 22.2054 103.554 21.9292 104.458 21.7981C104.862 21.7581 105.268 21.7861 105.663 21.8781C106.733 22.1581 106.67 22.4541 106.831 23.6131C106.993 24.7731 107.047 24.9801 106.292 25.8071C105.951 26.1641 105.575 26.4871 105.169 26.7691C104.422 27.3413 103.57 27.7598 102.66 28.0001C102.237 28.0991 102.291 29.3301 102.606 29.2581C105.15 28.6741 107.936 26.3731 107.882 23.5601C107.909 22.9744 107.76 22.394 107.454 21.8939C107.148 21.3939 106.699 20.9972 106.165 20.7551C104.691 20.1441 103.118 20.7551 101.761 21.3751C101.411 21.5281 101.464 22.7601 101.851 22.5981L101.86 22.6161ZM64.782 8.77307C64.7208 8.86796 64.6666 8.96722 64.62 9.07007C64.4899 9.09935 64.355 9.09935 64.225 9.07007C63.9915 9.05584 63.7574 9.05584 63.524 9.07007C60.207 9.07007 57.582 12.5121 59.29 15.6941C59.47 16.0271 58.256 16.0541 58.067 15.6941C57.5959 14.8071 57.4196 13.7932 57.5634 12.7993C57.7072 11.8054 58.1638 10.8831 58.867 10.1661C59.5043 9.53788 60.2746 9.0608 61.121 8.77004C61.9673 8.47927 62.8681 8.38222 63.757 8.48607L64.287 8.53906C64.478 8.54406 64.657 8.62907 64.782 8.77307ZM86.445 9.92407C86.445 10.1751 86.445 10.4271 86.373 10.6971C85.852 15.4791 82.67 21.6181 81.196 23.8021C80.971 24.1351 79.766 23.9461 79.982 23.6321C82.4819 19.9784 84.1595 15.8259 84.899 11.4611C84.9024 11.3921 84.9024 11.323 84.899 11.2541C84.979 10.6071 85.019 9.95507 85.016 9.30407C85.016 7.50607 84.422 5.16907 82.427 5.19607C82.2952 5.18603 82.1628 5.18603 82.031 5.19607C81.151 5.38607 80.321 5.75907 79.596 6.29207C79.436 6.39907 79.286 6.51907 79.146 6.65207C79.1007 6.6841 79.0586 6.72026 79.02 6.76007C78.3681 7.46124 77.8009 8.23655 77.33 9.07007C76.3283 10.7416 75.66 12.5913 75.362 14.5171C75.362 14.8131 75.281 15.1101 75.254 15.4161C75.1723 15.5391 75.052 15.6314 74.912 15.6785C74.7721 15.7255 74.6204 15.7247 74.481 15.6761C74.4 15.2001 74.311 14.6701 74.184 14.1031C74.334 13.3501 74.535 12.6091 74.787 11.8831C75.5064 9.52766 76.8478 7.40993 78.67 5.75306C78.834 5.61206 79.008 5.48307 79.191 5.36607C80.0392 4.78063 81.0454 4.46709 82.076 4.46707C82.378 4.46607 82.68 4.49607 82.976 4.55707C83.17 4.58907 83.362 4.63407 83.551 4.69207C85.825 5.42907 86.526 7.40707 86.445 9.92407Z" fill="#777777"/>
<path d="M79.245 6.238C79.2498 6.38423 79.2189 6.52943 79.155 6.661C79.1097 6.69304 79.0675 6.7292 79.029 6.769C78.867 6.822 78.697 6.643 78.697 6.211C78.708 6.05553 78.708 5.89948 78.697 5.744C78.5932 4.77652 78.1427 3.8793 77.4287 3.21825C76.7148 2.55719 75.7856 2.17701 74.813 2.148C73.8565 2.05733 72.8919 2.18346 71.9909 2.517C70.5169 3.029 70.193 4.315 70.193 5.735V5.924C70.196 6.03708 70.1777 6.14972 70.139 6.256C69.9829 6.19086 69.8203 6.14258 69.654 6.112C69.6498 6.04941 69.6498 5.9866 69.654 5.924V5.582C69.6 4.332 69.456 3.038 70.427 2.085C71.397 1.133 73.447 0.764004 74.831 0.899004C75.9887 0.976984 77.0774 1.47802 77.8897 2.30672C78.702 3.13541 79.1811 4.23389 79.236 5.393C79.2602 5.67404 79.2632 5.95651 79.245 6.238ZM94.94 12.872C94.745 13.709 94.461 14.522 94.094 15.299C93.8523 15.8323 93.5698 16.3462 93.249 16.836C93.0673 17.1518 92.8333 17.4345 92.557 17.672C92.557 18.076 91.487 18.625 91.487 18.265C91.487 17.636 92.6019 16.585 92.9069 16.009C93.7153 14.5342 94.1448 12.8818 94.1569 11.2C94.1569 9.582 93.367 8.09 91.577 8.063C91.0548 8.06158 90.5369 8.15615 90.049 8.342C89.852 8.404 89.6629 8.494 89.4649 8.575C88.3635 9.13338 87.3368 9.82817 86.4089 10.643L85.726 11.236C85.6236 11.3392 85.4934 11.4102 85.3513 11.4404C85.2092 11.4706 85.0614 11.4586 84.926 11.406C84.9294 11.3374 84.9294 11.2686 84.926 11.2C84.982 11.128 85.0459 11.062 85.115 11.002C85.4749 10.697 85.933 10.302 86.454 9.888C87.3969 9.12452 88.4148 8.45846 89.4919 7.9C89.8058 7.74116 90.1299 7.60319 90.462 7.487C91.0574 7.19483 91.7238 7.0785 92.3831 7.15165C93.0423 7.2248 93.667 7.4844 94.184 7.9C95.514 9.14 95.299 11.28 94.939 12.87L94.94 12.872Z" fill="#777777"/>
<path d="M90.454 7.52397C90.3401 7.83829 90.1926 8.13937 90.014 8.42197C89.816 8.48497 89.627 8.57497 89.429 8.65597C89.3959 8.42414 89.4143 8.18785 89.483 7.96397C89.493 7.91197 89.515 7.86397 89.546 7.81997C91.344 5.43797 88.881 3.23597 86.796 3.05597C86.0822 2.9952 85.364 3.09617 84.6946 3.35137C84.0253 3.60657 83.4221 4.00943 82.93 4.52997C82.744 4.71997 82.57 4.91997 82.409 5.13297C82.2772 5.12293 82.1448 5.12293 82.013 5.13297C81.955 4.89073 81.955 4.63821 82.013 4.39597C82.0279 4.33838 82.0522 4.28364 82.085 4.23397C83.695 2.06697 86.742 0.691973 89.16 2.55297C89.9018 3.11629 90.4327 3.9126 90.6673 4.81397C90.902 5.71535 90.8269 6.66945 90.454 7.52297V7.52397ZM101.969 13.16C101.962 13.4067 101.941 13.6528 101.906 13.897C101.849 14.0238 101.767 14.1378 101.665 14.232C101.563 14.3262 101.443 14.3987 101.312 14.445L100.971 14.517C100.95 14.5119 100.931 14.5026 100.914 14.4896C100.898 14.4766 100.884 14.4603 100.873 14.4417C100.863 14.4231 100.857 14.4026 100.855 14.3814C100.854 14.3603 100.856 14.339 100.863 14.319C100.906 14.022 100.924 13.721 100.917 13.42C100.931 12.7581 100.805 12.1008 100.548 11.4908C100.291 10.8807 99.9081 10.3316 99.425 9.87897C97.905 8.49397 95.829 8.71897 94.031 9.28497L94.085 9.23097C93.843 9.35697 93.609 9.37497 93.609 9.23097C93.6522 9.07221 93.7351 8.92705 93.8498 8.80915C93.9646 8.69124 94.1075 8.60446 94.265 8.55697C96.18 7.96397 98.319 7.56897 100.054 8.86297C100.704 9.36432 101.22 10.0195 101.554 10.7696C101.889 11.5197 102.031 12.3411 101.969 13.16ZM49.77 91.173H48.926C48.872 90.778 48.809 90.391 48.746 89.996C47.739 83.757 45.879 77.663 45.096 71.371C44.467 66.373 43.776 61.537 41.393 56.989C41.151 56.521 40.89 56.089 40.62 55.613C40.485 55.38 40.35 55.164 40.207 54.948C38.4035 52.2469 36.4592 49.6427 34.382 47.146L34.094 46.778C34.0564 46.7268 34.0292 46.6687 34.014 46.607C33.9438 46.4285 33.9013 46.2403 33.888 46.049H33.942L34.049 45.987L34.859 46.885C36.9397 49.2731 38.8157 51.8321 40.467 54.535C40.701 54.912 40.926 55.299 41.142 55.685L41.294 55.955C43.0743 59.1414 44.3138 62.601 44.962 66.193C45.861 71.308 46.283 76.431 47.542 81.474C48.242 84.27 49.007 87.056 49.519 89.888C49.621 90.355 49.705 90.784 49.771 91.173H49.77Z" fill="#777777"/>
<path d="M49.879 91.1639L48.827 91.2179C48.773 90.8219 48.71 90.4359 48.647 90.0399C47.82 84.8539 46.391 79.7659 45.483 74.5799L45.393 74.0939C45.2257 73.1638 45.088 72.2286 44.98 71.2899C44.396 66.6339 43.784 62.0669 41.753 57.8069C41.407 57.0847 41.032 56.3768 40.629 55.6849C40.494 55.4519 40.359 55.2359 40.216 55.0199C38.4445 52.3019 36.5145 49.6908 34.436 47.1999L34.022 46.6789L33.951 46.5889C33.8966 46.5345 33.8535 46.4699 33.8242 46.3989C33.7949 46.3279 33.7798 46.2517 33.78 46.1749L33.906 46.1208H33.96C34.074 46.1732 34.1728 46.2537 34.247 46.3549C34.454 46.5889 34.661 46.8219 34.849 47.0559C36.9394 49.4398 38.8333 51.9891 40.512 54.6789C40.746 55.0559 40.971 55.4429 41.187 55.8288L41.339 56.0989C43.2677 59.496 44.5879 63.2041 45.24 67.0559C45.528 68.8089 45.77 70.5439 46.031 72.2879C46.103 72.8089 46.175 73.3209 46.256 73.8339C46.6505 76.7206 47.1906 79.5856 47.874 82.4179C48.521 84.9618 49.196 87.4879 49.672 90.0489C49.752 90.3909 49.816 90.8219 49.879 91.1639Z" fill="#777777"/>
<path d="M58.05 43.6039V43.9189C57.816 44.6919 57.573 45.4829 57.33 46.2559C55.946 50.6789 54.472 55.1189 52.791 59.4159C50.858 64.3509 47.829 68.6739 46.274 73.7979C46.2525 73.8507 46.2345 73.9048 46.22 73.9599C46.2225 73.9805 46.2225 74.0013 46.22 74.0219C46.0705 74.2575 45.8591 74.4474 45.609 74.5709H45.519L45.429 74.0849C45.429 74.0129 45.429 73.9419 45.501 73.8699C45.651 73.3779 45.816 72.8959 45.996 72.4219C45.996 72.3599 46.049 72.2969 46.076 72.2249C47.721 67.9189 50.229 64.1349 51.928 59.7849C53.942 54.6789 55.649 49.3389 57.258 44.0989C57.3149 43.9672 57.4011 43.8502 57.51 43.7569C57.663 43.6029 57.856 43.4939 58.067 43.4429C58.0714 43.4972 58.0653 43.5519 58.049 43.6039H58.05Z" fill="#777777"/>
<path d="M58.436 69.393C57.222 76.431 54.112 82.813 48.548 87.371C48.027 87.793 48.342 86.616 48.611 86.4C55.47 80.746 57.941 72.378 58.311 63.784C58.58 57.888 57.555 52.099 57.331 46.229V44.179C57.3524 44.0194 57.4144 43.8679 57.511 43.739C57.708 43.443 57.996 43.191 58.067 43.425C58.077 43.475 58.077 43.527 58.067 43.578V43.892C58.094 52.512 59.91 60.782 58.436 69.393Z" fill="#777777"/>
<path d="M45.906 71.5151C44.1056 68.6224 41.7899 66.0844 39.074 64.0271C35.353 61.2671 30.84 59.9821 27.011 57.4201C26.804 57.2851 26.112 57.0791 26.382 57.5641C28.8229 61.6999 30.9271 66.0256 32.674 70.4991C34.22 74.4811 34.948 78.8941 36.737 82.7591C39.047 87.7391 44.279 88.5751 49.24 89.2761C49.906 89.3761 49.07 88.5031 48.72 88.4581C46.544 88.1531 43.946 88.009 41.969 87.0201C38.157 85.1151 37.231 81.7351 36.162 78.0311C34.8136 73.3832 33.0816 68.8553 30.984 64.4941C30.148 62.7511 29.187 61.0611 28.288 59.3621C27.775 58.4621 27.101 58.2921 28.288 58.8851C29.106 59.2901 29.897 59.7851 30.724 60.1531C36.53 62.9841 41.348 65.717 44.934 71.326C45.124 71.6221 46.256 72.0631 45.897 71.4961L45.906 71.5151ZM71.03 59.8831C69.78 69.2311 66.787 80.1801 70.75 89.2041C70.85 89.4291 70.948 89.6541 71.056 89.8701C71.077 89.9587 71.0722 90.0515 71.042 90.1375C71.0119 90.2234 70.9577 90.299 70.886 90.3551H69.986C69.816 89.9781 69.645 89.5911 69.501 89.2051C65.834 79.8471 68.971 68.5301 70.238 58.9661C71.578 48.9081 72.144 37.9601 79.146 29.9781C79.524 29.5551 80.306 29.5281 79.739 30.1661C72.683 38.2111 72.369 49.8161 71.029 59.8831H71.03Z" fill="#777777"/>
<path d="M86.0399 39.5239C84.6656 40.5598 83.4302 41.768 82.3639 43.1189C81.2612 44.5052 80.2321 45.9485 79.2809 47.4429C77.0249 50.8759 74.8579 54.3819 71.4429 56.8269C71.1099 57.0609 70.7059 56.1259 70.6429 55.8569C76.1799 51.8919 78.4269 45.1149 83.1189 40.4219C83.7806 39.7576 84.4895 39.142 85.2399 38.5799C85.5639 38.3099 86.3459 39.3079 86.0399 39.5239Z" fill="#777777"/>
<path d="M84.728 40.1621C83.8668 41.0679 83.0878 42.0484 82.4 43.0921C76.665 51.7031 77.762 63.1911 77.906 73.1871C78.006 75.4431 77.648 77.6971 76.854 79.8111C75.524 83.4071 72.504 84.7641 68.818 84.9891C68.404 84.9891 68.225 83.7751 68.584 83.7491C79.847 83.0471 77.169 70.2651 77.196 62.3911C77.196 57.3211 77.636 52.1261 79.308 47.4251C80.1827 44.8837 81.4836 42.5098 83.155 40.4051C83.618 39.9401 84.104 39.4991 84.611 39.0831C84.828 39.4011 84.871 39.8051 84.728 40.1621ZM64.674 34.9751C66.409 43.8021 67.73 52.8541 69.951 61.5731C70.041 61.9231 70.921 61.1061 70.849 60.6741C68.629 51.9551 67.308 42.9121 65.573 34.0761C65.51 33.7441 64.62 34.5351 64.674 34.9761V34.9751Z" fill="#777777"/>
<path d="M64.692 34.813C63.883 39.874 63.191 45.852 63.793 50.993C64.4958 56.4884 64.1912 62.0659 62.894 67.452C61.789 72.081 59.802 76.072 60.917 80.881C61.915 85.178 64.881 86.328 68.89 87.308C69.24 87.398 69.86 86.31 69.43 86.211C63.982 84.89 60.953 82.247 61.34 76.161C61.636 71.56 63.928 66.912 64.593 62.292C65.1446 58.2929 65.1446 54.2371 64.593 50.238C63.946 45.231 64.647 40.558 65.438 35.604C65.546 34.939 65.1509 34.769 65.0879 35.119L64.692 34.813ZM109.708 60.207C109.529 60.2012 109.356 60.1484 109.204 60.054C109.108 59.9638 109.006 59.8796 108.899 59.802C108.146 59.1922 107.263 58.762 106.319 58.544C106.184 58.5065 106.045 58.4794 105.906 58.463C105.312 58.3634 104.707 58.3453 104.108 58.409C103.839 58.4338 103.572 58.4729 103.308 58.526C101.901 58.8242 100.545 59.3237 99.2809 60.009L98.382 60.476L97.483 60.971L96.5299 61.528C96.4219 61.429 96.315 61.33 96.216 61.222L95.496 61.537C95.29 61.438 95.173 61.303 95.3619 61.177L96.1439 60.692L96.2789 60.602L96.611 60.404L97.5999 59.856C97.9499 59.667 98.3099 59.488 98.6699 59.316C100.167 58.5778 101.767 58.0719 103.416 57.816C103.686 57.816 103.956 57.753 104.225 57.735C104.846 57.7001 105.47 57.7302 106.085 57.825C106.341 57.86 106.593 57.914 106.84 57.987C107.704 58.217 108.516 58.61 109.231 59.147C109.379 59.244 109.517 59.356 109.645 59.479C109.692 59.719 109.713 59.962 109.708 60.207Z" fill="#777777"/>
<path d="M109.708 60.2069C109.669 60.7842 109.529 61.3502 109.294 61.8789C108.737 63.1118 107.75 64.0993 106.517 64.6559C103.047 66.2019 99.1189 63.9909 96.6289 61.5639C96.5209 61.4649 96.413 61.3659 96.315 61.2579L96.2149 61.1599C96.1941 61.0776 96.1948 60.9912 96.2171 60.9093C96.2393 60.8273 96.2823 60.7524 96.342 60.6919V60.6379L96.674 60.4399C96.7094 60.4568 96.7426 60.478 96.773 60.5029C96.917 60.5839 97.0519 60.6739 97.1869 60.7639L97.5549 61.0069C98.5725 61.7809 99.6483 62.475 100.773 63.0829C102.957 64.1349 107.631 65.0249 108.701 61.8519C108.784 61.5999 108.841 61.3419 108.871 61.0789C108.913 60.6809 108.913 60.2809 108.871 59.8829C108.868 59.865 108.868 59.8468 108.871 59.8289C108.947 59.5859 109.083 59.3659 109.267 59.1909C109.415 59.2889 109.553 59.4009 109.681 59.5239C109.713 59.7499 109.722 59.9789 109.708 60.2069Z" fill="#777777"/>
<path d="M99.308 60.0091L98.409 60.4761C98.139 60.2791 97.888 60.0631 97.636 59.8561C96.3312 58.6125 94.9039 57.5042 93.376 56.5481C90.508 54.9841 85.78 54.3011 84.386 58.2921C81.933 65.1321 92.422 62.1031 96.216 60.6921H96.315L96.782 60.5121L96.935 60.4491C97.475 60.2341 97.42 60.5211 97.195 60.7731C97.108 60.8631 97.005 60.9371 96.89 60.9891L96.288 61.2591L95.568 61.5731C92.575 62.8581 88.791 64.0361 85.681 63.5061C82.831 63.0201 82.211 60.0091 83.587 57.7531C87.182 51.7931 94.975 55.2811 98.697 59.3531C98.93 59.5511 99.11 59.7751 99.307 60.0091H99.308ZM118.454 59.3621C117.515 59.9302 116.525 60.4087 115.497 60.7911C115.258 60.8844 115.015 60.9685 114.769 61.0431C113.005 61.6319 111.154 61.9176 109.294 61.8881H108.684C108.766 61.6361 108.824 61.3781 108.854 61.1151H109.564C111.434 61.1561 113.299 60.8891 115.084 60.3241L115.533 60.1621C116.086 59.9582 116.626 59.7211 117.151 59.4521C119.928 58.0221 123.874 54.8491 122.391 51.3621C120.782 47.5511 116.404 48.1981 113.402 49.9871C112.756 50.3469 112.153 50.7779 111.604 51.2721L111.334 51.5321C109.525 53.476 108.024 55.686 106.885 58.0851L106.76 58.3371C106.636 58.4725 106.477 58.572 106.301 58.6251C106.166 58.5876 106.027 58.5605 105.888 58.5441C105.96 58.3371 106.049 58.1301 106.13 57.9141C107.371 54.8519 109.369 52.155 111.937 50.0761C112.425 49.6941 112.938 49.3461 113.474 49.0341C113.69 48.9081 113.906 48.7911 114.13 48.6841C117.25 47.1101 121.843 47.0741 123.479 50.7691C125.115 54.4631 121.267 57.6271 118.454 59.3621Z" fill="#777777"/>
<path d="M104.288 57.744L104.135 58.409C103.866 58.4338 103.599 58.4729 103.335 58.526C103.389 58.292 103.425 58.058 103.47 57.825C103.964 54.957 104.063 51.838 102.822 49.285C102.602 48.8132 102.331 48.3672 102.013 47.955C101.577 47.3718 101.059 46.8542 100.476 46.418C97.573 44.225 92.611 44.701 91.973 49.168C91.658 51.434 92.638 53.448 93.438 55.461C93.519 55.667 92.863 56.36 92.738 56.144C89.906 51.946 90.544 44.809 96.575 44.117C98.825 43.722 101.108 44.617 102.49 46.436C102.814 46.856 103.094 47.307 103.326 47.784C104.764 50.697 104.872 54.724 104.288 57.744Z" fill="#777777"/>
<path d="M113.492 48.9531C113.473 49.2555 113.431 49.556 113.366 49.8521C112.721 50.2119 112.118 50.6429 111.569 51.1371L111.299 51.3971C111.535 50.9311 111.737 50.4471 111.901 49.9511C112.254 49.1042 112.37 48.177 112.235 47.2693C112.101 46.3616 111.721 45.5079 111.137 44.8001C109.169 42.4361 106.022 43.2271 104.404 45.3841C103.892 46.1041 103.505 46.9071 103.263 47.7571C103.101 48.2431 102.948 48.7551 102.76 49.2401C102.54 48.7682 102.268 48.3222 101.95 47.9101C102.046 47.3919 102.206 46.8877 102.427 46.4091C103.694 43.6221 106.787 41.7791 109.887 43.1011C111.02 43.5828 111.976 44.4046 112.621 45.4529C113.267 46.5013 113.571 47.7243 113.492 48.9531ZM104.234 65.0601C103.128 68.3218 102.259 71.6596 101.636 75.0471C101.636 75.1641 101.636 75.2721 101.582 75.3891V75.5241C100.855 79.6429 100.491 83.8176 100.494 88.0001V89.8431H99.757V89.5001V89.2661V88.6561V88.4301C99.6922 84.8236 99.9058 81.2176 100.396 77.6441L100.557 76.4661C100.611 76.0711 100.647 75.8371 100.71 75.5681C100.773 75.2981 100.854 74.6681 100.935 74.2731C101.569 70.8279 102.453 67.4334 103.578 64.1161C103.604 63.7471 104.36 64.6911 104.234 65.0601Z" fill="#777777"/>
<path d="M109.393 80.935C107.991 84.44 104.899 86.867 101.528 88.602C101.178 88.791 100.827 88.962 100.468 89.124L99.946 89.366L99.739 89.456L98.939 89.798H97.591C97.537 89.744 97.511 89.708 97.591 89.672L98.184 89.322L99.146 88.755L99.416 88.593L99.793 88.369L100.53 87.929C104.054 85.852 107.389 83.551 108.62 79.289C109.609 75.865 108.989 72.261 108.845 68.692C107.05 72.0722 104.481 74.98 101.348 77.178C101.151 77.321 100.971 77.448 100.773 77.573C100.663 77.6153 100.541 77.6153 100.431 77.573L100.593 76.396C100.935 76.099 101.276 75.802 101.618 75.496C104.962 72.44 108.108 68.647 109.043 64.18C109.123 63.793 110.364 64.243 110.293 64.701C109.285 70.031 111.443 75.811 109.393 80.935Z" fill="#777777"/>
<path d="M101.636 75.0471C101.636 75.1641 101.636 75.2721 101.582 75.3891C101.304 75.527 100.988 75.5712 100.683 75.5151C100.621 75.502 100.565 75.4706 100.521 75.4251C98.9178 73.579 97.1652 71.8682 95.281 70.31C95.757 74.274 95.281 77.8521 95.011 81.8881C94.813 85.1331 96.593 87.0651 98.849 88.6561L99.074 88.8091L99.739 89.2591L99.955 89.3931L100.495 89.7351L100.638 89.8251H98.894L98.157 89.3661C97.807 89.1421 97.457 88.9161 97.133 88.6661C95.5775 87.6683 94.4396 86.1372 93.933 84.3601C93.375 81.9961 94.283 79.4341 94.427 77.0521C94.564 74.3851 94.387 71.712 93.897 69.088C93.825 68.71 94.849 68.656 95.038 68.809C97.1627 70.4346 99.1446 72.2389 100.962 74.2021C101.151 74.4811 101.393 74.7601 101.636 75.0471ZM142.903 50.9121C142.801 51.1501 142.683 51.3821 142.553 51.6041L142.31 51.4701C142.175 51.5871 142.02 51.6781 141.852 51.7401C141.716 51.6988 141.597 51.6138 141.514 51.4983C141.431 51.3828 141.389 51.2432 141.393 51.1011L141.555 50.8221C144.189 46.0851 141.852 39.8291 136.378 39.2451H135.811C135.563 39.2308 135.313 39.2308 135.065 39.2451H134.805C134.553 39.2064 134.321 39.083 134.148 38.8951C133.915 38.6791 133.78 38.4361 134.049 38.4091C134.537 38.3656 135.027 38.3656 135.515 38.4091C136.083 38.4526 136.645 38.549 137.195 38.6971C138.431 39.0368 139.579 39.641 140.559 40.4679C141.539 41.2948 142.327 42.3246 142.87 43.4862C143.413 44.6478 143.697 45.9134 143.703 47.1955C143.708 48.4777 143.436 49.7457 142.903 50.9121Z" fill="#777777"/>
<path d="M142.31 51.4699C142.175 51.5869 142.02 51.6779 141.852 51.7399C141.739 51.7986 141.609 51.8203 141.483 51.8019C138.726 50.9542 136.35 49.1751 134.76 46.7689C133.025 44.2159 133.115 41.6889 134.13 38.8759C134.283 38.5439 135.407 38.2019 135.227 38.6879C135.164 38.8579 135.101 39.0379 135.047 39.2089C134.623 40.367 134.483 41.6102 134.639 42.8337C134.796 44.0571 135.244 45.225 135.947 46.2389C137.322 48.3016 139.29 49.8994 141.591 50.8219C141.719 50.8799 141.851 50.9279 141.987 50.9659L142.4 51.0919C142.57 51.1459 142.499 51.2719 142.31 51.4699Z" fill="#777777"/>
<path d="M136.009 38.7869C136.908 35.3709 139.416 17.8159 131.236 20.4219C128.081 21.4289 127.326 25.5099 127.64 28.3599C128.126 32.7909 130.984 36.0989 134.013 39.1459C134.293 39.4249 135.461 39.1459 135.209 38.8759C131.353 35.0199 127.272 29.8339 129.294 23.9909C129.435 23.5361 129.681 23.1207 130.012 22.7786C130.343 22.4366 130.75 22.1773 131.2 22.0219C133.49 21.2019 134.816 21.9239 135.182 24.1889C135.482 25.3009 135.678 26.4389 135.766 27.5869C136.146 31.3549 135.81 35.1609 134.778 38.8039C134.661 39.2269 135.901 39.1909 136 38.8039L136.009 38.7869Z" fill="#777777"/>
<path d="M145.375 30.436C143.153 33.6455 140.377 36.4337 137.178 38.67L136.368 39.236H135.802C135.697 39.1305 135.615 39.0038 135.563 38.8643C135.51 38.7248 135.488 38.5758 135.497 38.427C135.506 38.3762 135.535 38.331 135.577 38.301C140.256 35.2657 144.078 31.0815 146.679 26.148C147.64 24.278 148.108 20.827 145.061 21.007C143.699 21.2448 142.422 21.8334 141.357 22.715C139.277 24.2087 137.678 26.2764 136.755 28.665C136.629 28.989 135.856 28.045 136.045 27.676C137.402 24.206 140.638 20.548 144.476 19.829C146.481 19.452 148.027 20.279 148.576 22.247C149.33 24.971 146.804 28.351 145.376 30.436H145.375Z" fill="#777777"/>
<path d="M151.775 36.7279C148.881 39.0528 145.696 40.9898 142.301 42.4899C141.969 42.6339 140.908 42.0499 141.402 41.8429C145.211 40.1293 148.759 37.8835 151.937 35.1729C153.618 33.8069 155.461 32.4759 155.137 30.1029C155.102 29.5205 154.894 28.9617 154.541 28.4976C154.187 28.0336 153.703 27.6852 153.151 27.4969C152.968 27.4373 152.782 27.3892 152.593 27.3529C150.301 26.9479 147.11 28.2519 145.663 29.4109L145.483 29.9329C145.178 30.1749 144.827 29.1689 145.142 28.9349C147.228 27.4238 149.757 26.6492 152.332 26.7329C152.79 26.7639 153.242 26.8459 153.681 26.9749C154.372 27.1692 154.998 27.544 155.495 28.0607C155.993 28.5775 156.344 29.2175 156.512 29.9149C157.294 32.9249 153.726 35.1999 151.775 36.7279Z" fill="#777777"/>
<path d="M159.065 47.047C159.001 48.5944 158.443 50.0806 157.472 51.2875C156.501 52.4943 155.17 53.3584 153.672 53.753C152.996 53.957 152.3 54.09 151.596 54.148H150.499C148.008 53.9932 145.585 53.2708 143.416 52.036L142.796 51.694L142.571 51.569L142.328 51.434C142.174 51.3041 142.057 51.1367 141.987 50.948C141.843 50.607 141.825 50.265 142.184 50.472L142.957 50.894L143.299 51.065L143.578 51.209C147.613 53.196 152.818 54.256 156.342 50.787C159.722 47.443 157.735 42.31 153.366 40.953C151.038 40.233 148.44 40.458 146.058 40.611H145.968C145.8 40.5541 145.651 40.4531 145.535 40.3187C145.42 40.1844 145.343 40.0214 145.312 39.847L145.924 39.487H147.937C152.935 39.587 159.083 41.025 159.065 47.047ZM133.726 21.043C135.748 17.753 139.901 18.598 142.094 21.24C142.364 21.564 143.407 21.843 142.885 21.24C140.422 18.283 135.218 16.234 132.701 20.342C132.494 20.683 133.528 21.393 133.726 21.07V21.043ZM153.618 27.002C153.528 27.157 153.426 27.304 153.312 27.442C153.292 27.4691 153.267 27.4914 153.238 27.507C153.208 27.5226 153.175 27.5312 153.142 27.532C152.959 27.4727 152.773 27.4249 152.584 27.389C152.314 27.245 152.09 27.02 152.198 26.885L152.288 26.76C152.603 26.4119 152.806 25.977 152.87 25.512C152.934 25.047 152.857 24.5734 152.648 24.153C151.946 22.939 149.951 23.11 148.755 23.253C148.405 23.308 147.434 22.589 147.91 22.517C149.609 22.283 151.55 22.337 152.953 23.416C154.073 24.257 154.361 25.816 153.618 27.002Z" fill="#777777"/>
<path d="M154.84 33.69C159.488 34.445 158.508 39.694 156.009 42.004C155.712 42.284 156.818 42.804 157.106 42.544C158.016 41.7948 158.685 40.7945 159.03 39.6676C159.375 38.5407 159.381 37.3372 159.047 36.207C158.364 34.265 156.629 33.393 154.706 33.079C153.87 32.944 154.283 33.6 154.849 33.689H154.84V33.69ZM148.297 66.787C145.501 67.577 143.802 65.034 142.903 62.724C141.653 59.227 142.193 55.38 142.733 51.811C142.729 51.7811 142.729 51.7509 142.733 51.721C142.843 51.479 143.003 51.261 143.2 51.083L143.479 51.227L143.353 52.063C142.796 55.803 142.293 60.153 144.36 63.425C144.85 64.3409 145.596 65.0937 146.508 65.591C148.458 66.409 149.438 65.141 150.373 63.622C152.27 60.557 151.901 57.33 150.427 54.184V54.13C150.265 53.762 150.984 52.8 151.128 53.133C151.272 53.465 151.407 53.789 151.542 54.157C153.042 58.247 153.267 65.375 148.297 66.787Z" fill="#777777"/>
<path d="M157.294 51.038C157.591 51.326 157.888 51.622 158.194 51.938C158.784 52.488 159.073 53.293 158.966 54.094C159.047 54.5487 159.006 55.0167 158.848 55.4507C158.691 55.8848 158.421 56.2695 158.067 56.566C157.791 56.866 157.491 57.143 157.169 57.393C156.491 57.9895 155.64 58.3533 154.741 58.4311C153.842 58.5088 152.941 58.2964 152.171 57.825C151.865 57.636 151.811 58.84 152.171 59.047C154.867 60.701 158.013 58.903 159.416 56.351C160.818 53.798 159.272 51.658 157.501 49.906C157.141 49.556 157.079 50.804 157.339 51.02L157.294 51.038ZM136.108 47.362C131.739 50.058 128.36 54.346 125.582 58.922C125.088 59.73 124.62 60.557 124.152 61.375C123.074 63.308 122.085 65.258 121.16 67.137C119.233 71.2091 118.049 75.5925 117.663 80.081C117.357 82.894 116.89 85.879 117.663 88.584C117.779 88.994 117.926 89.394 118.103 89.78H116.737C116.583 89.3938 116.457 88.9971 116.36 88.593C115.622 85.573 116.243 82.184 116.63 79.146C117.147 74.6492 118.488 70.2859 120.584 66.274C121.503 64.4504 122.471 62.6521 123.488 60.881C123.584 60.731 123.67 60.581 123.748 60.431C124.494 59.1363 125.286 57.8682 126.121 56.629C128.547 52.7884 131.761 49.5069 135.551 47.002C136.063 46.724 136.863 46.912 136.108 47.362Z" fill="#777777"/>
<path d="M117.744 76.0179C123.968 69.7206 132.056 65.5977 140.809 64.2609L141.016 63.1909C135.991 66.8409 130.867 70.3819 125.951 74.1839C124.121 75.5296 122.45 77.0797 120.971 78.8039C119.353 80.7819 118.553 84.0179 116.692 85.6629C116.432 85.8969 116.162 87.0739 116.692 86.6329C117.625 85.7172 118.365 84.6232 118.867 83.4159C120.557 80.1512 122.982 77.3236 125.951 75.1559C130.876 71.3619 136 67.8109 141.016 64.1619C141.16 64.0539 141.654 63.0289 141.222 63.0919C132.334 64.4559 124.121 68.6444 117.798 75.0379C117.555 75.2809 117.303 76.4759 117.798 76.0089L117.744 76.0179ZM126.157 56.6649C126.032 57.4409 125.839 58.2049 125.582 58.9479C125.088 59.7579 124.62 60.5839 124.152 61.4019C123.812 61.4019 123.371 61.1689 123.524 60.9169C123.676 60.6649 123.704 60.6109 123.784 60.4669C126.948 54.5969 124.387 47.6309 124.684 41.2399C123.199 43.6182 122.032 46.181 121.214 48.8629C121.097 49.2489 120.153 48.4579 120.261 48.0899C121.316 44.6432 122.932 41.3938 125.043 38.4719C125.267 38.1569 126.004 39.0289 125.942 39.3169C124.764 44.9799 127.065 51.0019 126.157 56.6649Z" fill="#777777"/>
<path d="M116.656 82.23C114.409 76.08 112.206 67.443 114.769 61.007C114.859 60.773 114.966 60.53 115.074 60.306L115.524 60.144C115.6 60.3469 115.6 60.5702 115.524 60.773C112.764 66.715 115.11 75.461 117.24 81.267C117.33 81.591 116.818 82.679 116.656 82.229V82.23ZM127.2 88.656C124.036 88.62 120.866 88.596 117.69 88.584H97.034C88.261 88.686 79.488 88.872 70.714 89.142H69.43C62.838 89.345 56.247 89.6 49.655 89.906H48.63C44.693 90.086 40.747 90.292 36.81 90.508C36.6697 90.5942 36.5534 90.7143 36.4718 90.8573C36.3901 91.0002 36.3459 91.1614 36.343 91.326C34.797 102.957 34.05 114.849 36.01 126.481C37.88 137.636 42.131 148.261 47.111 158.364C49.1335 162.674 51.5402 166.792 54.302 170.67C55.462 172.243 57.188 175.065 58.994 176C59.894 176.45 61.691 176.234 62.724 176.324C64.414 176.461 66.11 176.584 67.812 176.692C79.011 177.529 90.264 177.271 101.412 175.919H101.484C101.519 175.899 101.55 175.871 101.574 175.839C101.607 175.811 101.634 175.777 101.654 175.739C109.954 163.825 116.231 150.623 120.234 136.665C124.63 121.169 126.365 105.088 127.426 89.025C127.408 88.872 127.399 88.656 127.201 88.656H127.2ZM126.301 96.144C125.897 101.249 125.402 106.355 124.728 111.424C121.735 134.229 114.724 155.856 101.6 174.867C91.8362 176.072 81.9839 176.397 72.162 175.838C67.991 175.649 60.998 176.324 57.87 173.312C54.742 170.302 52.476 166.409 50.472 162.724C40.476 144.665 34.642 125.285 35.739 104.539C35.865 102.274 36.045 100.045 36.261 97.744C36.476 95.443 36.081 92.818 38.058 91.739C38.903 91.272 41.375 91.559 42.355 91.506L46.661 91.29L48.89 91.191H49.942L55.262 90.957C60.177 90.747 65.094 90.567 70.013 90.418H70.913C76.203 90.268 81.495 90.142 86.787 90.04C90.382 89.978 93.977 89.915 97.573 89.888H100.665C106.058 89.846 111.452 89.846 116.845 89.888H118.409C120.342 89.888 123.856 89.187 125.6 89.942C127.434 90.688 126.4 94.418 126.265 96.144H126.301Z" fill="#777777"/>
<path d="M66.22 89.7979C67.263 104.62 68.072 119.02 66.652 133.843C65.303 147.91 63.47 162.031 65.752 176.09C65.807 176.44 67.047 176.575 66.975 176.09C64.629 161.618 66.679 147.083 68.027 132.63C69.375 118.175 68.485 104.279 67.47 89.9329C67.47 89.5099 66.202 89.4029 66.23 89.7349L66.22 89.7979ZM70.517 90.3009C71.829 105.249 73.142 120.324 71.767 135.326C70.499 149.142 66.103 162.813 68.782 176.746C68.872 177.222 69.564 176.234 69.492 175.847C66.661 161.124 71.703 146.499 72.719 131.802C73.708 117.645 72.459 103.461 71.227 89.3659C71.227 88.9079 70.481 89.8789 70.517 90.2659V90.3009ZM94.04 176.369C90.373 169.825 93.142 162.787 93.375 155.82C93.627 148.467 92.117 141.124 92.081 133.762C92.045 126.4 92.621 118.939 93.141 111.542C93.663 104.144 93.591 96.6019 95.119 89.4199C95.2 89.0339 93.978 88.7459 93.897 89.1239C92.324 96.5389 92.396 104.404 91.874 111.955C91.353 119.505 90.76 127.236 90.876 134.849C90.993 142.193 92.611 149.573 92.09 156.899C91.622 163.515 89.393 170.04 92.836 176.225C93.034 176.575 94.211 176.656 94.049 176.369H94.04ZM98.031 175.82C98.418 169.204 96.961 162.724 96.674 156.135C96.351 148.675 96.818 141.151 97.016 133.663L98.184 89.0969C98.184 88.2519 97.609 88.7469 97.591 89.3119L96.422 133.879C96.252 140.53 95.91 147.2 96.009 153.861C96.108 161.267 97.879 168.602 97.447 176.018C97.402 176.872 98.004 176.368 98.04 175.802L98.031 175.82ZM87.865 107.955C85.897 109.753 83.973 111.658 81.933 113.393C81.807 113.493 81.582 113.231 81.447 112.943C81.3854 112.86 81.3463 112.763 81.3337 112.661C81.3211 112.559 81.3353 112.455 81.375 112.36L81.771 111.973C82.849 110.921 83.982 109.923 85.079 108.89C86.175 107.856 87.973 106.76 88.674 105.528C90.31 102.831 86.634 103.811 85.366 104.333C85.136 104.43 84.91 104.542 84.692 104.665C84.5882 104.709 84.4891 104.763 84.396 104.827C83.496 105.348 82.778 106.004 81.942 106.625C81.744 106.76 81.366 105.933 81.483 105.725C81.9161 105.154 82.4381 104.657 83.029 104.252C83.227 104.117 83.425 103.973 83.64 103.838C85.897 102.409 89.088 101.438 90.013 103.784C90.787 105.636 89.052 106.867 87.865 107.955Z" fill="#777777"/>
<path d="M84.728 104.665C84.6239 104.709 84.5244 104.763 84.431 104.827C84.176 104.837 83.922 104.782 83.694 104.665C83.495 104.515 83.284 104.379 83.065 104.261C82.3015 103.807 81.4227 103.586 80.5354 103.622C79.6481 103.659 78.7906 103.952 78.067 104.467C76.575 105.528 75.964 107.506 77.887 108.539C79.4889 109.268 80.8377 110.457 81.762 111.955C81.922 112.259 82.052 112.578 82.148 112.908C82.211 113.124 81.726 113.034 81.438 112.908C81.3667 112.887 81.2996 112.853 81.24 112.809C80.342 111.839 79.775 110.562 78.688 109.726C77.951 109.142 76.971 108.935 76.252 108.324C74.966 107.227 75.262 105.627 76.378 104.476C78.229 102.625 81.438 102.535 83.676 103.829C83.998 104.019 84.3 104.242 84.576 104.494C84.6381 104.54 84.6899 104.598 84.728 104.665ZM82.93 126.283C84.1277 125.232 85.5617 124.486 87.11 124.108C90.526 123.488 89.294 126.903 88.36 128.278C86.6939 130.782 84.5195 132.908 81.978 134.517C81.69 134.697 82.463 135.613 82.813 135.416C85.2119 134.019 87.2646 132.099 88.818 129.798C89.807 128.449 90.678 126.849 90.328 125.097C89.546 121.196 83.712 123.299 82.193 125.447C82.013 125.699 82.706 126.472 82.948 126.265L82.93 126.283Z" fill="#777777"/>
<path d="M83.721 124.728C82.311 123.658 79.083 121.538 77.133 121.978C75.182 122.418 75.488 124.27 75.82 125.663C76.827 129.825 79.82 134.157 83.622 136.189C83.982 136.378 83.622 135.416 83.434 135.289C80.737 133.178 77.852 130.706 76.917 127.254C76.567 125.951 76.279 123.074 78.157 123.11C78.9597 123.227 79.7338 123.493 80.44 123.892C81.627 124.396 82.733 125.061 83.946 125.492C84.126 125.555 83.82 124.809 83.721 124.728Z" fill="#777777"/>
</svg>
