<svg width="196" height="218" viewBox="0 0 196 218" fill="none" xmlns="http://www.w3.org/2000/svg">
<path fill-rule="evenodd" clip-rule="evenodd" d="M194.892 77.109C171.476 77.023 145.996 81.909 128.425 97.685C134.314 73.49 153.853 56.507 163.213 33.888C163.265 33.768 163.472 33.087 163.066 33.276C148.155 40.04 134.356 49.682 123.227 61.736C123.218 61.746 123.218 61.746 123.218 61.754C124.937 57.1722 126.754 52.6275 128.667 48.123C128.744 47.933 128.597 47.907 128.373 47.976C128.408 47.778 128.356 47.657 128.192 47.743C122.806 50.7053 117.775 54.2698 113.194 58.368C111.674 49.493 110.94 40.798 112.063 31.699C112.738 26.2529 113.941 20.8854 115.655 15.672C117.321 10.632 120.032 6.013 121.69 1.007C121.742 0.851998 121.043 0.455998 120.939 0.584998C119.471 2.351 118.202 4.359 117.114 6.53C105.829 21.489 96.694 38.137 89.769 55.645C84.865 49.518 79.192 43.9 73.657 38.395C73.527 38.265 72.069 37.491 72.388 38.179C75.764 45.52 75.712 54.464 73.597 62.4C71.4368 59.8534 69.1991 57.3736 66.887 54.964C56.89 44.495 45.06 35.81 31.289 31.036C30.607 30.795 31.186 32.501 31.376 32.682C43.247 44.426 50.483 58.738 56.18 74.136C42.728 64.71 26.91 58.575 10.712 56.566C10.151 56.498 10.099 58.014 10.452 58.256C25.65 68.923 40.295 79.814 53.376 92.739C34.476 90.973 13.244 91.412 0.0590226 106.81C-0.303977 107.241 1.14702 107.362 1.32902 107.327C17.829 103.932 33.664 105.974 48.749 111.911C47.548 114.686 46.779 117.667 46.192 120.657C43.672 120.407 41.15 120.132 38.612 120.002C35.045 119.83 31.92 120.287 30.823 124.216C29.943 127.361 32.136 130.299 33.431 132.962C35.3244 136.862 37.0923 140.822 38.732 144.835L39.138 145.818C39.242 146.06 39.345 146.31 39.44 146.558C43.1953 155.953 46.2601 165.609 48.61 175.45C49.707 180.026 50.587 184.627 51.433 189.254C51.96 192.159 52.504 195.217 54.119 197.75C54.352 198.112 54.602 198.448 54.869 198.758C51.969 198.603 48.878 198.129 46.641 200.059C44.716 201.714 44.535 203.945 45.631 206.065C46.978 208.693 48.886 211.15 50.535 213.595C51.839 215.525 52.495 215.164 54.948 215.423C61.432 216.104 67.934 216.655 74.444 217.068C99.104 218.637 123.841 218.198 148.449 215.931C148.855 215.889 149.347 215.224 149.382 214.862C150.072 209.58 150.763 205.229 153.189 200.472C153.31 200.232 153.561 199.551 153.017 199.646C147.853 200.56 143.587 200.275 138.467 200.352C139.504 199.206 140.316 197.836 140.98 196.302C141.864 194.266 142.662 192.193 143.372 190.09C143.502 189.736 143.622 189.383 143.752 189.021C144.598 186.479 145.367 183.894 146.126 181.361C146.609 179.694 147.041 178.014 147.422 176.321C147.568 175.683 147.707 175.037 147.836 174.399C148.242 172.417 148.604 170.418 148.95 168.419L149.183 167.075C149.632 164.447 150.063 161.82 150.582 159.2C150.668 158.751 150.754 158.303 150.858 157.855C151.411 155.142 152.067 152.444 152.904 149.798C153.906 146.653 155.314 143.568 156.565 140.475H156.574L156.686 140.182L157.109 139.114L157.118 139.105C157.938 136.977 158.655 134.84 159.078 132.66C159.164 132.186 159.242 131.712 159.302 131.23C159.362 130.756 159.415 130.273 159.441 129.79C159.527 129.825 159.621 129.877 159.708 129.92C160.183 130.161 160.598 129.17 160.684 128.877C160.908 128.11 161.055 127.369 161.124 126.646C161.15 126.396 161.167 126.146 161.167 125.905C161.444 116.659 149.675 110.885 141.205 109.749C147.405 102.639 156.798 96.669 163.594 92.645C173.307 86.897 183.582 82.141 194.203 78.324C194.479 78.229 195.67 77.109 194.893 77.109" fill="white"/>
<path fill-rule="evenodd" clip-rule="evenodd" d="M121.771 2.689C109.136 19.585 98.744 37.678 91.016 56.839C90.903 57.115 90.789 57.391 90.684 57.667C88.3021 63.6296 86.1867 69.6953 84.344 75.846C84.118 76.561 83.908 77.276 83.707 78C83.472 77.655 83.236 77.32 83 76.983C83.2 76.277 83.41 75.57 83.62 74.863C85.4478 68.7639 87.5337 62.7452 89.872 56.823C89.995 56.503 90.117 56.193 90.248 55.875C97.94 36.627 108.35 18.43 121.343 2.362C121.876 1.707 122.269 2.017 121.771 2.689Z" fill="#777777"/>
<path fill-rule="evenodd" clip-rule="evenodd" d="M112.244 32.245C111.107 41.375 111.851 50.098 113.39 59.003C113.434 59.314 113.486 59.617 113.547 59.919C113.137 60.265 112.734 60.629 112.34 61C112.262 60.723 112.183 60.447 112.104 60.161C109.646 50.738 109.524 40.432 110.801 30.887C112.104 21.135 114.755 8.763 121.236 1.026C121.341 0.895999 122.05 1.294 121.997 1.449C120.317 6.472 117.571 11.106 115.883 16.164C114.144 21.3911 112.925 26.7773 112.244 32.244" fill="#777777"/>
<path fill-rule="evenodd" clip-rule="evenodd" d="M127.993 48.26C127.959 48.585 127.735 49.124 127.537 49.236C127.238 49.3962 126.942 49.5616 126.649 49.732C121.767 52.4918 117.194 55.7647 113.007 59.495C112.602 59.838 112.207 60.198 111.819 60.565C103.318 68.428 96.678 78.011 92.147 88.631C91.941 89.119 91.734 89.615 91.536 90.112C88.719 97.083 86.601 106.256 85.653 113.886C85.61 114.263 84.921 113.646 85.007 112.884C85.9256 104.822 87.9607 96.9279 91.054 89.427C91.26 88.913 91.476 88.399 91.699 87.894C96.324 77.266 103.059 67.64 111.586 59.735C111.999 59.35 112.421 58.965 112.852 58.588C117.423 54.5135 122.442 50.9709 127.812 48.028C127.976 47.942 128.019 48.062 127.993 48.259" fill="#777777"/>
<path fill-rule="evenodd" clip-rule="evenodd" d="M128.977 48.183C121.095 66.691 114.771 85.44 110.747 105.028C110.627 105.62 110.505 106.211 110.393 106.803C109.934 106.854 109.467 106.923 109 107C109.112 106.4 109.225 105.808 109.346 105.217C113.248 85.757 119.192 66.571 127.74 48.637C127.904 48.303 129.185 47.694 128.977 48.183Z" fill="#777777"/>
<path fill-rule="evenodd" clip-rule="evenodd" d="M120.685 65.625C121.523 64.6293 122.382 63.6514 123.261 62.692C134.295 50.554 147.974 40.844 162.756 34.033C163.159 33.843 162.953 34.528 162.902 34.649C153.589 57.521 134.098 74.666 128.337 99.186C128.252 99.559 127.216 100.479 127.379 99.689C131.119 80.436 144.883 65.373 154.77 49.157C156.345 46.58 157.834 43.959 159.196 41.261C159.683 40.315 160.316 39.317 160.642 38.294C161.216 37.564 161.352 36.758 161.044 35.881C160.616 36.09 160.18 36.298 159.752 36.506C156.773 37.174 153.692 39.638 151.047 41.2C148.581 42.6651 146.166 44.2133 143.805 45.842C135.947 51.274 128.962 57.625 122.542 64.644C121.678 65.573 120.83 66.527 120 67.482L120.685 65.625Z" fill="#777777"/>
<path fill-rule="evenodd" clip-rule="evenodd" d="M194.057 78.229C183.499 82.087 173.285 86.895 163.629 92.704C154.136 98.417 139.553 108.024 135.836 119.214C135.707 119.598 134.368 120.39 134.549 119.772C137.725 109.26 150.454 100.106 159.063 94.567C169.233 88.018 180.023 82.601 191.276 78.273C165.449 78.569 138.394 85.17 121.863 106.377H121.854C121.511 106.821 121.167 107.283 120.824 107.744C120.549 107.674 120.274 107.614 120 107.553C120.343 107.083 120.687 106.613 121.039 106.151C138.119 83.533 167.8 76.905 194.743 77C195.516 77 194.323 78.132 194.057 78.228V78.229ZM80.36 101.865C64.564 79.302 40.999 63.611 13.648 59.194C30.938 71.311 48.922 83.821 62.048 100.458C62.323 100.808 62.589 101.158 62.864 101.508C62.374 101.55 61.885 101.618 61.404 101.712C61.121 101.388 60.838 101.064 60.537 100.748C45.712 84.35 28.362 71.346 10.222 58.674C9.86997 58.434 9.92197 56.934 10.48 57.002C38.63 60.482 65.628 76.411 80.909 100.39C81.184 100.817 80.789 102.48 80.359 101.865" fill="#777777"/>
<path fill-rule="evenodd" clip-rule="evenodd" d="M92 88.511C91.794 89.001 91.589 89.501 91.392 90C91.237 89.768 91.075 89.544 90.912 89.312C88.196 85.465 85.582 81.566 82.935 77.702C82.704 77.358 82.472 77.022 82.241 76.687C79.619 72.866 76.955 69.079 74.11 65.421C71.9703 62.6353 69.706 59.9476 67.324 57.366C57.916 47.194 46.795 38.64 33.874 33.614C44.764 45.301 53.35 60.344 57.291 75.774C57.454 76.42 57.051 76.928 56.768 76.11C50.993 59.957 43.702 44.913 31.407 32.667C31.218 32.487 30.644 30.782 31.321 31.023C44.987 35.791 56.725 44.466 66.647 54.923C68.917 57.306 71.137 59.784 73.305 62.349C73.767 62.883 74.221 63.425 74.667 63.967C77.518 67.4038 80.247 70.94 82.849 74.569C83.098 74.897 83.329 75.224 83.56 75.551C86.3812 79.5198 89.0479 83.5961 91.554 87.771C91.709 88.021 91.863 88.261 92 88.511Z" fill="#777777"/>
<path fill-rule="evenodd" clip-rule="evenodd" d="M90 56.998C89.889 57.278 89.778 57.558 89.675 57.838C89.402 57.558 89.145 57.269 88.88 56.981C83.95 51.574 79.258 45.976 74.224 40.657C76.848 47.813 77.121 57.094 74.6 64.522C74.43 65.02 74.25 65.519 74.045 66C73.643 65.466 73.233 64.933 72.823 64.408C72.977 63.9 73.113 63.393 73.242 62.877C75.335 54.82 75.387 45.74 72.045 38.287C71.729 37.587 73.173 38.374 73.301 38.505C78.779 44.095 84.394 49.799 89.248 56.018C89.504 56.342 89.752 56.666 90 56.998ZM56.248 92.971C55.3175 92.876 54.3865 92.786 53.455 92.701C34.53 90.968 13.26 91.399 0.0579797 106.499C-0.30502 106.922 1.14798 107.04 1.32898 107.006C17.851 103.676 33.708 105.68 48.812 111.501C49.236 111.662 49.66 111.823 50.083 112L50.593 110.86C50.178 110.682 49.763 110.513 49.348 110.344C34.668 104.488 17.774 103.271 2.39198 105.992C2.10698 106.288 1.82998 106.592 1.55398 106.896C1.12998 106.727 1.56198 106.557 1.13798 106.388C1.83798 106.245 1.68298 106.11 2.39198 105.992C15.785 91.84 35.904 92.101 54.337 93.554C55.227 93.622 56.118 93.689 57 93.765L56.248 92.971Z" fill="#777777"/>
<path fill-rule="evenodd" clip-rule="evenodd" d="M84.315 115.749C84.238 115.792 84.16 115.836 84.083 115.87C83.953 115.94 83.841 116.01 83.738 116.061L83.729 116.07C79.5677 118.338 75.5831 120.916 71.809 123.783C71.181 124.252 70.569 124.729 69.958 125.215C62.9104 130.835 56.7011 137.431 51.518 144.806C51.191 145.275 50.864 145.743 50.537 146.221C49.7336 147.406 48.9581 148.609 48.211 149.83C47.6855 148.733 47.2478 147.595 46.902 146.429C46.773 146.021 46.662 145.605 46.558 145.189C45.498 140.937 45.542 136.469 46.041 131.991C46.368 129.076 46.721 126.005 47.255 122.959C47.333 122.517 47.419 122.083 47.505 121.64C48.185 118.126 49.15 114.682 50.623 111.602C53.086 106.482 57.1 103.385 61.802 102.465C62.2859 102.37 62.7746 102.3 63.266 102.257C65.893 101.997 68.701 102.387 71.543 103.463C77.313 105.641 82.713 109.633 84.315 115.74V115.749ZM85.779 115.411C85.779 115.289 85.771 115.159 85.753 115.038C85.753 114.994 85.753 114.951 85.745 114.908C85.168 108.391 77.098 103.793 71.551 102.032C68.571 101.077 65.445 100.756 62.448 101.19C61.9379 101.262 61.4319 101.361 60.932 101.485C58.3926 102.072 56.0359 103.273 54.068 104.982C49.228 109.19 47.316 115.359 46.101 121.51C46.015 121.944 45.929 122.386 45.851 122.82C45.654 123.896 45.473 124.972 45.291 126.03C44.207 132.442 43.32 139.08 44.723 145.336C44.818 145.735 44.913 146.134 45.033 146.533C45.5247 148.364 46.2394 150.127 47.161 151.783C47.471 152.346 48.608 151.678 48.814 151.323C50.1472 149.054 51.5751 146.842 53.094 144.693C58.2671 137.361 64.4722 130.815 71.517 125.258C72.1627 124.74 72.8202 124.236 73.489 123.748C76.9366 121.171 80.5597 118.837 84.332 116.764C84.392 116.729 84.452 116.694 84.522 116.66C84.772 116.521 85.073 116.408 85.374 116.33C85.3334 116.431 85.3045 116.536 85.288 116.643C85.538 116.53 85.762 116.365 85.771 116.243V116.235C85.779 116.139 85.779 116.053 85.779 115.957C86.115 115.706 86.029 115.507 85.779 115.411ZM132.39 138.803C132.256 139.173 132.112 139.541 131.96 139.904C131.762 140.413 131.55 140.917 131.324 141.414C128.391 148.082 123.937 153.926 118.424 158.67C119.508 153.128 119.826 147.345 119.044 141.769C118.992 141.335 118.923 140.91 118.846 140.485C118.072 135.967 116.549 131.597 114.081 127.608C111.883 124.048 108.976 120.979 105.541 118.59C105.026 118.23 104.499 117.888 103.959 117.566V117.558C99.556 114.904 94.491 113.448 89.279 113.699C95.109 111.045 101.861 108.262 108.551 107.187C109.016 107.109 109.481 107.039 109.936 106.987C111.641 106.766 113.361 106.682 115.079 106.736C115.621 106.753 116.162 106.796 116.696 106.848C117.633 106.935 118.562 107.083 119.482 107.282C119.757 107.342 120.032 107.403 120.308 107.472C122.195 107.956 124.004 108.703 125.683 109.692C126.199 109.996 126.715 110.326 127.213 110.672C128.116 111.323 129.003 112.06 129.853 112.892C131.388 114.38 132.608 116.161 133.44 118.13C133.784 118.937 134.067 119.76 134.282 120.61C135.796 126.455 134.489 133.115 132.39 138.803ZM135.59 120.966C135.436 120.135 135.227 119.315 134.962 118.512C134.813 118.034 134.644 117.562 134.454 117.098C133.121 113.846 130.868 111.271 128.116 109.338C127.603 108.974 127.072 108.635 126.526 108.323C124.892 107.387 123.154 106.644 121.348 106.111H121.34C121.07 106.028 120.797 105.953 120.523 105.886C119.38 105.576 118.216 105.35 117.04 105.21C116.957 105.194 116.874 105.182 116.79 105.175C114.629 104.939 112.448 104.944 110.288 105.192C109.824 105.252 109.36 105.314 108.895 105.383C101.74 106.493 94.835 109.831 88.35 112.814C88.084 112.944 87.92 113.43 87.912 113.803L87.43 113.855C87.31 113.872 87.215 114.011 87.138 114.193V114.202C87.0853 114.323 87.0503 114.452 87.034 114.583C87.009 114.713 87 114.843 87 114.948V114.965C87.009 115.104 87.034 115.216 87.077 115.277C87.593 115.251 87.955 115.269 87.955 115.269C93.708 114.956 99.264 116.509 104.011 119.483V119.492C104.587 119.85 105.149 120.229 105.696 120.628C108.275 122.522 110.534 124.817 112.387 127.426C115.207 131.389 116.962 135.863 117.857 140.537C117.951 140.962 118.02 141.379 118.089 141.803C119.043 147.821 118.639 154.108 117.306 160.013C117.255 160.222 117.229 161.323 117.728 160.907C124.135 155.677 129.2 149.053 132.39 141.387C132.476 141.187 132.562 140.988 132.64 140.789C132.76 140.485 132.88 140.173 133.001 139.861C135.228 134.042 136.776 127.218 135.59 120.966Z" fill="#777777"/>
<path fill-rule="evenodd" clip-rule="evenodd" d="M105.247 141.03C105.141 141.404 105.027 141.762 104.912 142.129C103.248 147.361 100.413 152.132 95.834 155.907C95.412 156.257 94.311 155.541 94.338 155.047C94.602 150.599 92.762 146.67 90.701 142.785C90.507 142.418 90.314 142.06 90.129 141.694C88.702 139.035 87.267 136.377 86.431 133.556C85.577 130.659 85.075 127.634 85.013 124.6C84.9954 124.08 84.9954 123.561 85.013 123.041C85.06 120.698 85.3884 118.369 85.991 116.105C86.008 116.002 86.035 115.9 86.079 115.798C86.184 115.372 86.316 114.946 86.466 114.528C86.4757 114.475 86.4936 114.423 86.519 114.375C86.748 114.255 86.986 114.128 87.241 114C87.461 114.12 87.672 114.281 87.751 114.418C87.769 114.452 87.787 114.478 87.778 114.503V114.511C87.787 114.52 87.787 114.528 87.787 114.545C87.752 114.715 87.717 114.895 87.681 115.065V115.091C87.663 115.141 87.655 115.193 87.637 115.244V115.261C87.619 115.363 87.593 115.466 87.575 115.576C87.082 118.099 86.757 120.596 86.651 123.076C86.633 123.569 86.616 124.064 86.616 124.558C86.598 128.929 87.32 133.241 89.126 137.528C89.724 138.942 90.419 140.305 91.141 141.651C91.335 142.018 91.529 142.376 91.723 142.734C93.607 146.227 95.483 149.67 95.834 153.641C99.365 150.266 101.593 146.381 102.975 142.205C103.099 141.847 103.213 141.481 103.319 141.115C105.299 134.383 105.265 126.961 105.053 119.709V119.701L105 117.818C105.552 118.134 106.092 118.469 106.62 118.823C106.682 119.488 106.735 120.153 106.779 120.825C107.246 127.54 107.079 134.605 105.247 141.029V141.03ZM160.996 126.01C160.996 126.247 160.979 126.493 160.953 126.74C160.879 127.484 160.734 128.22 160.52 128.937C160.435 129.225 160.028 130.201 159.56 129.963C159.476 129.921 159.382 129.87 159.297 129.836C158.89 129.624 158.482 129.42 158.074 129.216C156.313 128.35 154.529 127.533 152.724 126.765C151.886 126.408 151.042 126.063 150.194 125.73C145.574 123.897 140.895 122.387 136.123 121.115C135.694 120.994 135.264 120.878 134.833 120.767C134.619 119.938 134.341 119.127 134 118.341C134.501 118.46 135.002 118.587 135.503 118.714C142.254 120.454 148.853 122.896 155.119 125.798C155.799 126.112 156.469 126.425 157.132 126.748C157.463 126.909 157.794 127.07 158.117 127.223C158.516 127.427 158.915 127.622 159.314 127.825C159.459 127.893 159.594 127.969 159.739 128.037C159.807 127.597 159.849 127.172 159.849 126.739C159.858 126.476 159.849 126.213 159.841 125.959C159.603 121.811 156.792 118.129 153.183 115.898C149.489 113.615 143.978 112.598 140.003 111.045L140.233 110.901C140.471 110.265 140.258 109.976 140.505 110.001C148.878 110.833 161.267 116.593 160.995 126.01" fill="#777777"/>
<path fill-rule="evenodd" clip-rule="evenodd" d="M159.955 129.81C159.929 130.293 159.877 130.775 159.817 131.249C159.757 131.731 159.678 132.204 159.583 132.678C158.46 138.489 155.253 144.034 153.412 149.802C152.574 152.445 151.917 155.14 151.355 157.852C151.26 158.3 151.173 158.747 151.087 159.195C150.568 161.812 150.137 164.438 149.687 167.065L149.453 168.407C149.114 170.405 148.739 172.397 148.33 174.382C148.209 175.02 148.07 175.665 147.915 176.302C147.542 177.996 147.109 179.676 146.618 181.339C145.866 183.87 145.088 186.453 144.241 188.993C144.121 189.355 143.999 189.708 143.87 190.061C143.156 192.161 142.357 194.232 141.475 196.268C140.81 197.801 139.997 199.169 138.96 200.315C138.324 201.011 137.59 201.612 136.782 202.097C136.218 202.436 135.622 202.718 135.002 202.94C130.533 204.568 125.304 203.87 120.654 203.741C115.484 203.603 110.324 203.466 105.164 203.319C94.836 203.035 84.507 202.759 74.178 202.459C68.733 202.303 61.299 203.535 56.701 200.073C56.1747 199.68 55.6961 199.226 55.275 198.722C55.0011 198.404 54.7499 198.067 54.523 197.714C52.907 195.184 52.363 192.127 51.835 189.225C50.988 184.602 50.106 180.005 49.009 175.433C46.6563 165.6 43.5881 155.951 39.829 146.565C37.986 141.965 35.9767 137.433 33.805 132.979C32.517 130.319 30.322 127.383 31.203 124.24C32.301 120.314 35.43 119.858 39 120.03C41.54 120.16 44.065 120.435 46.588 120.685L47.998 120.814C47.911 121.253 47.824 121.684 47.747 122.122C47.28 122.079 46.804 122.036 46.337 121.985C44.168 121.778 41.999 121.545 39.812 121.442C37.279 121.322 35.145 121.192 33.476 123.362C31.272 126.238 32.733 129.019 34.142 131.868C38.0815 139.821 41.5169 148.014 44.428 156.398C46.9246 163.602 49.0277 170.936 50.728 178.368C51.645 182.381 52.379 186.418 53.123 190.457C53.711 193.677 54.255 195.398 56.718 197.904C57.03 198.222 57.298 198.498 57.531 198.739C57.825 199.04 58.075 199.29 58.301 199.497C59.191 200.323 59.752 200.478 61.628 200.642C62.648 200.728 63.694 200.711 64.722 200.736C82.51 201.236 100.29 201.709 118.078 202.209C122.555 202.329 127.784 202.975 132.184 201.899C133.558 201.563 134.846 201.064 136.004 200.323C137.629 199.299 139.004 197.809 139.997 195.683C140.842 193.868 141.618 192.021 142.323 190.147C142.461 189.785 142.59 189.423 142.72 189.053C144.233 184.921 145.469 180.599 146.489 176.354L146.955 174.339C147.102 173.651 147.258 172.962 147.396 172.282C147.664 171.016 147.906 169.733 148.131 168.459C148.217 167.977 148.295 167.486 148.381 167.004C148.814 164.421 149.211 161.83 149.669 159.255C149.747 158.791 149.834 158.317 149.92 157.843C150.508 154.701 151.2 151.576 152.167 148.528C153.827 143.319 156.835 138.128 158.131 132.747C158.252 132.247 158.356 131.747 158.451 131.24C158.693 129.894 158.795 128.527 158.754 127.16C159.16 127.366 159.566 127.564 159.972 127.77C160.016 128.45 160.007 129.13 159.955 129.81Z" fill="#777777"/>
<path fill-rule="evenodd" clip-rule="evenodd" d="M152.837 200.84C150.419 205.498 149.731 209.758 149.043 214.93C149 215.284 148.518 215.934 148.113 215.976C123.595 218.195 98.948 218.626 74.37 217.09C67.8875 216.683 61.4138 216.146 54.953 215.478C52.51 215.225 51.856 215.58 50.557 213.69C48.914 211.294 47.012 208.89 45.67 206.316C44.578 204.241 44.758 202.056 46.677 200.436C48.905 198.546 51.985 199.01 54.875 199.162C55.641 199.204 56.398 199.23 57.121 199.179C57.413 199.474 57.663 199.719 57.886 199.921C57.731 200.124 57.551 200.301 57.405 200.326C57.017 200.394 56.656 200.453 56.295 200.486C55.503 200.588 54.746 200.613 53.895 200.588C50.892 200.487 50.161 199.12 47.7 201.474C45.223 203.844 46.264 204.342 47.795 206.671C48.655 207.978 49.542 209.277 50.41 210.585C54.006 215.959 64.106 214.905 70.146 215.335C83.6721 216.312 97.2338 216.712 110.794 216.533C117.856 216.441 124.915 216.194 131.966 215.79C135.347 215.596 138.728 215.369 142.109 215.099C143.649 214.972 146.858 215.335 147.993 214.129C148.604 213.487 148.639 210.72 148.853 209.885C149.447 207.573 150.239 204.983 151.297 202.891C151.907 201.685 151.71 201.474 151.271 201.187C150.609 200.757 147.219 201.777 146.488 201.862C143.047 202.242 139.511 202.494 136.001 202.469C134.473 202.459 132.947 202.395 131.424 202.275C132.792 201.946 134.074 201.457 135.227 200.731C136.207 200.74 137.188 200.74 138.169 200.723C143.27 200.647 147.52 200.925 152.665 200.031C153.207 199.938 152.957 200.605 152.837 200.841V200.84ZM47 146.497L45.186 146.623C43.539 146.738 41.901 146.843 40.254 146.948C39.97 146.968 39.685 146.99 39.393 147L39 145.806L39.853 145.712C41.5292 145.523 43.2065 145.345 44.885 145.178C45.479 145.115 46.072 145.052 46.665 145C46.765 145.503 46.875 146.005 47 146.497ZM91 143.236L90.01 143.294C77.522 144.073 65.033 145.066 52.545 145.903C52.033 145.932 51.521 145.971 51 146C51.324 145.465 51.649 144.94 51.973 144.414C52.493 144.365 53.015 144.326 53.535 144.287C65.495 143.324 77.487 142.672 89.455 142.049C89.779 142.039 90.104 142.019 90.437 142C90.624 142.418 90.812 142.827 91 143.236ZM119 142.352C118.683 142.361 118.366 142.37 118.049 142.388C113.328 142.534 108.606 142.708 103.885 142.918C103.256 142.936 102.628 142.964 102 143C102.12 142.616 102.231 142.224 102.334 141.831C102.96 141.804 103.585 141.776 104.211 141.74C108.743 141.511 113.276 141.274 117.818 141.055C118.143 141.027 118.478 141.018 118.803 141C118.88 141.447 118.949 141.895 119 142.352ZM158 139L157.446 140.277C156.856 140.293 156.267 140.317 155.678 140.333C148.148 140.59 140.62 140.783 133.091 140.976L132 141C132.229 140.542 132.449 140.076 132.65 139.602C133.003 139.586 133.363 139.57 133.715 139.562C141.235 139.297 148.773 139.096 156.285 139.016C156.857 139.008 157.428 139 158 139ZM149 167.19L148.767 168.845L147.446 168.908C139.579 169.195 131.582 168.718 123.767 168.718C113.819 168.718 103.854 168.877 93.907 168.611C93.587 168.601 92.663 167.539 93.129 167.529C103.025 167.221 112.947 167.359 122.843 167.316C131.064 167.296 139.441 166.776 147.696 167.115C148.128 167.125 148.568 167.147 149 167.189V167.19ZM148 175.154C147.88 175.698 147.743 176.249 147.588 176.793C147.117 176.815 146.645 176.829 146.173 176.837C134.225 177.175 122.089 176.932 110.227 176.617C109.901 176.609 109.935 175.514 110.27 175.507C122.27 175.132 134.551 174.823 146.636 175.117C147.091 175.124 147.546 175.139 148 175.154ZM127.854 183.82C133.172 183.903 138.659 184.185 143.96 183.81C144.188 183.794 143.374 183.189 143.14 183.174C137.85 182.833 132.408 183.084 127.105 183.169C126.703 183.175 127.565 183.815 127.855 183.819L127.854 183.82ZM143 189C142.88 189.353 142.762 189.697 142.634 190.042C142.131 190.076 141.62 190.109 141.109 190.126C133.103 190.58 125.063 190.798 117.074 191C116.751 191.008 117.577 190.445 117.807 190.437C125.667 189.899 133.589 189.361 141.501 189.059C142.004 189.034 142.506 189.017 143 189ZM150 158.011C149.908 158.587 149.824 159.162 149.74 159.737C149.288 159.77 148.827 159.793 148.366 159.815C143.591 160.058 138.756 160.069 134.048 159.804C133.805 159.782 134.558 158.686 134.835 158.664C139.359 158.211 144.009 157.989 148.609 158C149.07 158 149.539 158 150 158.011ZM133.366 148.722C139.793 149.206 146.446 149.076 152.826 148.189C153.136 148.146 152.999 146.99 152.674 147C146.173 147.2 139.707 147.39 133.2 147.427C132.865 147.429 132.971 148.693 133.366 148.722ZM159 132.01C158.941 132.529 158.865 133.046 158.772 133.56C158.3 133.588 157.828 133.616 157.355 133.635C151.425 133.971 145.453 134.027 139.548 133.99C139.219 133.99 138.772 132.7 139.135 132.673C145.267 132.28 151.493 131.991 157.667 132C158.114 132 158.561 132 159 132.01ZM86 123.082C85.9797 123.684 85.968 124.286 85.965 124.888C85.4419 124.911 84.9185 124.928 84.395 124.94C80.126 125.044 75.831 125.002 71.561 124.898C71.044 124.878 70.518 124.868 70 124.846C70.6088 124.265 71.2269 123.695 71.854 123.134C72.415 123.124 72.976 123.102 73.536 123.092C77.15 122.999 80.782 122.967 84.396 123.04C84.93 123.05 85.466 123.06 86 123.082ZM135.009 126.506C135.362 126.474 135.716 126.45 136.069 126.426C140.657 126.099 145.306 125.979 149.954 126.003C151.619 126.003 153.292 126.027 154.956 126.067C155.646 126.362 156.327 126.657 157 126.961C155.508 126.969 154.016 126.969 152.524 126.976C147.031 127.008 141.537 127.024 136.052 126.913C135.699 126.913 135.345 126.905 135 126.897L135.009 126.506ZM161 126.06C161 126.34 160.985 126.63 160.963 126.92H160.007C160.015 126.61 160.007 126.3 160 126C160.338 126.02 160.67 126.03 161 126.06ZM134.097 63.253C131.814 66.407 130.087 70.741 129.041 74.477C128.8 75.338 129.674 76.773 130.227 75.487C131.817 71.787 133.56 67.993 134.957 64.221C135.152 63.691 134.661 62.475 134.097 63.253ZM101.294 57.119C99.797 58.565 99.335 60.763 98.855 62.645C98.318 64.748 97.605 67.349 98.267 69.474C98.425 69.983 99.041 70.272 99.297 69.634C100.007 67.869 99.85 65.889 100.254 64.041C100.712 61.945 101.74 59.941 101.997 57.824C102.031 57.55 101.741 56.687 101.294 57.119ZM104.561 36.024C103.195 36.805 103.03 39.531 102.734 41.091C102.303 43.364 101.686 46.093 102.187 48.391C102.323 49.014 102.894 49.291 103.139 48.577C103.817 46.606 103.707 44.221 104.076 42.137C104.411 40.243 105.261 38.29 104.922 36.361C104.892 36.193 104.75 35.917 104.562 36.024H104.561ZM104.207 84.309C102.28 89.711 101.946 96.026 101.018 101.669C100.825 102.844 102.208 103.682 102.447 102.227C103.388 96.499 105.02 90.424 105 84.612C104.998 84.127 104.43 83.682 104.207 84.309ZM50.13 78.736C51.898 80.618 54.605 81.556 56.863 82.746C58.888 83.81 61.317 85.895 63.612 86C64.082 86.021 64.065 85.178 63.876 84.929C62.398 82.981 59.776 81.987 57.639 80.863C55.449 79.713 52.773 77.87 50.242 78.007C49.902 78.026 49.975 78.572 50.131 78.737L50.13 78.736ZM69.284 93.146C68.538 94.583 69.394 96.424 70.317 97.622C71.147 98.702 73.127 100.581 74.694 99.826C75.128 99.616 75.051 98.977 74.768 98.691C73.794 97.708 72.307 97.427 71.358 96.338C70.512 95.365 70.41 94.188 69.784 93.135C69.674 92.952 69.384 92.955 69.284 93.146ZM41.215 102.101C42.475 103.251 44.399 102.99 45.964 102.938C47.582 102.884 49.389 103.024 50.737 101.951C51.154 101.62 51.057 100.493 50.572 100.281C49.152 99.661 47.416 100.251 45.906 100.315C44.431 100.378 42.541 99.947 41.284 100.86C40.948 101.103 40.892 101.806 41.215 102.101ZM57.796 123.353C57.631 123.449 57.465 123.543 57.3 123.638L57.85 124.672C59.645 120.285 62.096 116.592 66.31 114.222C70.362 111.944 74.234 112.239 78.633 111.956C79.117 111.925 79.103 110.971 78.706 110.819C69.739 107.372 59.271 115.388 57.031 123.973C56.829 124.743 57.673 125.546 57.891 124.5C57.946 124.243 57.999 123.985 58.053 123.728C58.078 123.61 57.99 123.242 57.796 123.353ZM79.047 53.598C78.769 55.755 79.774 57.754 80.87 59.566C81.61 60.789 82.469 61.969 83.037 63.284C83.417 64.166 83.373 65.304 84.172 65.932C84.34 66.064 84.516 65.988 84.628 65.832C85.615 64.46 84.402 62.362 83.718 61.089C82.333 58.512 80.758 56.479 80.151 53.571C79.992 52.809 79.151 52.801 79.047 53.598ZM73.032 79.312C73.724 81.49 74.983 83.526 76.265 85.406C77.283 86.896 78.63 89.263 80.365 89.964C80.985 90.214 81.093 89.112 80.935 88.766C80.108 86.939 78.425 85.448 77.269 83.796C76.023 82.019 75.08 80.069 73.875 78.273C73.295 77.408 72.88 78.833 73.032 79.312ZM141.79 96.443C138.874 98.846 135.823 100.967 133.183 103.696C131.373 105.56 129.822 107.57 128.372 109.683C128.07 110.119 127.777 110.555 127.492 111C127.007 110.659 126.509 110.337 126 110.034C126.251 109.58 126.528 109.135 126.821 108.682C130.367 103.046 135.588 97.64 141.371 95.04C142.025 94.75 142.176 96.126 141.791 96.443H141.79ZM121.985 90.943C120.941 94.063 119.317 96.977 118.292 100.113C117.721 101.843 117.4 103.625 117.034 105.389C116.928 105.929 116.809 106.466 116.677 107C116.119 106.946 115.56 106.909 115 106.89C115.027 106.352 115.071 105.798 115.143 105.227C115.785 99.9 118.203 93.67 121.387 90.124C121.824 89.647 122.065 90.678 121.985 90.943ZM106.162 111.029C107.942 112.066 110.12 112.211 112.056 112.954C113.994 113.7 115.831 114.686 117.524 115.888C121.638 118.806 123.622 122.562 126.108 126.732C126.573 127.511 127.095 126.393 126.985 125.912C125.977 121.515 122.471 117.494 118.955 114.789C115.907 112.444 110.285 109.048 106.247 110.25C105.961 110.336 105.911 110.883 106.162 111.029ZM93.057 114.184C91.624 117.126 91.831 120.771 92.602 123.889C93.26 126.547 94.798 130.949 97.549 131.977C97.994 132.143 98.064 131.372 97.954 131.113C96.778 128.359 94.777 126.278 93.979 123.263C93.206 120.342 93.555 117.537 93.709 114.578C93.727 114.257 93.286 113.713 93.057 114.184ZM2.321 106.314L1.468 106L0 106.815L1.344 107L3 106.722L2.321 106.314ZM88.243 113C87.788 113.153 87.093 113.38 87.003 114.501C86.913 115.623 89 114.501 89 114.501L88.647 113.355L88.243 113Z" fill="#777777"/>
<path fill-rule="evenodd" clip-rule="evenodd" d="M89.602 114.238C89.594 114.248 89.594 114.257 89.585 114.266C89.55 114.333 89.505 114.4 89.462 114.466C89.164 114.953 88.847 115.372 88.847 115.372L88.689 115.744L88.602 115.944C88.602 115.944 88.232 115.926 87.706 115.954C87.662 115.954 87.618 115.964 87.566 115.964C87.2007 115.992 86.8371 116.039 86.477 116.107C86.345 116.145 86.205 116.173 86.073 116.212C85.766 116.297 85.459 116.422 85.204 116.574C85.134 116.612 85.072 116.65 85.011 116.688C83.975 117.26 83.975 116.879 84.011 116.831C84.036 116.784 84.361 116.021 84.396 115.926L84.406 115.916C84.51 115.859 84.625 115.782 84.756 115.706C84.826 115.659 84.914 115.611 84.993 115.563C85.388 115.315 85.871 115.001 86.451 114.648C86.468 114.638 86.495 114.628 86.512 114.619C86.74 114.486 86.977 114.343 87.232 114.199C87.583 113.989 87.97 113.78 88.391 113.57C88.409 113.551 88.435 113.542 88.452 113.532C88.628 113.437 88.812 113.342 89.005 113.246C90.375 112.569 90.077 113.418 89.602 114.238Z" fill="#777777"/>
</svg>
