<svg width="163" height="250" viewBox="0 0 163 250" fill="none" xmlns="http://www.w3.org/2000/svg">
<path d="M64.537 75.1315L64.615 74.8615C69.668 56.4515 74.555 37.9905 80.253 19.7915C81.329 16.3465 82.43 12.8935 83.75 9.51146C83.942 8.99546 84.432 7.28146 85.035 5.97146C85.7002 6.14245 86.3979 6.14245 87.063 5.97146C87.168 6.36446 87.264 6.75746 87.351 7.03746C88.226 9.95746 89.021 12.8935 89.825 15.8305C94.292 32.1335 98.566 48.4885 102.893 64.8345C102.946 65.0005 102.99 65.1745 103.033 65.3415C103.33 65.9185 103.776 64.3885 103.505 63.2955C99.335 47.5095 95.192 31.7225 90.883 15.9795C90.009 12.8595 89.187 9.74746 88.26 6.65246C88.19 6.43446 88.12 6.06646 88.033 5.64746C88.3798 5.49849 88.6855 5.26825 88.9245 4.97618C89.1635 4.68412 89.3287 4.33882 89.406 3.96946C89.473 3.62863 89.4622 3.27707 89.3745 2.94099C89.2867 2.60492 89.1242 2.29299 88.899 2.02846C88.024 1.00546 85.804 0.498459 84.685 1.32846C84.6557 1.35955 84.6354 1.39802 84.6263 1.43976C84.6171 1.4815 84.6194 1.52495 84.633 1.56546C83.549 1.21546 82.623 2.71946 82.99 3.89946C83.175 4.55346 83.58 5.12446 84.135 5.51646C83.4994 6.97536 82.9478 8.46948 82.483 9.99146C75.21 29.9215 70.245 50.8315 64.65 71.2675C64.493 71.8185 64.344 72.3775 64.196 72.9285C63.855 74.1435 63.523 75.3685 63.182 76.5825C62.841 77.7975 63.925 77.0985 64.537 75.1325V75.1315Z" fill="white"/>
<path d="M161.722 105.997C160.463 107.955 156.792 109.073 154.545 108.986C153.281 108.896 152.024 108.736 150.778 108.506C149.365 108.245 147.932 108.101 146.495 108.076C143.874 108.033 141.286 108.672 138.986 109.93C136.801 106.74 132.867 105.874 129.318 105.175C126.434 104.607 123.497 104.047 120.577 103.741C123.876 102.999 126.764 101.018 128.645 98.2079C131.221 94.4419 132.302 89.8516 131.678 85.3319C131.618 84.8419 131.302 85.5159 131.268 85.6559C130.577 89.1519 127.019 90.2969 124.458 92.0539C122.708 93.1882 121.162 94.6098 119.886 96.2589C118.299 98.3552 117.421 100.902 117.378 103.531C115.028 103.459 112.679 103.682 110.385 104.196C105.698 105.307 101.541 108.006 98.619 111.836C100.516 108.016 103.531 104.843 106.573 101.836C109.388 99.0209 110.07 96.2499 110.463 92.2199C110.463 91.9929 110.323 91.0839 109.878 91.3459C106.031 93.9689 99.878 93.3389 97.264 97.6489C94.65 101.958 96.215 109.012 96.757 113.802V114.161L96.364 114.703C93.872 118.103 91.53 121.844 91.224 126.005C89.204 126.075 87.194 126.128 85.174 126.154C84.948 123.034 84.642 119.913 84.388 116.784C88.811 115.104 93.409 112.954 94.476 107.894C95.35 103.741 93.601 98.5839 91.066 94.9479C91.0403 94.8992 91.0112 94.8525 90.979 94.8079C90.6311 94.2768 90.3214 93.7217 90.052 93.1469C89.869 92.6569 89.362 92.9719 89.327 93.4869C89.03 98.7329 85.481 103.278 83.925 108.173V106.163C83.948 103.88 84.176 101.603 84.607 99.3619C84.773 98.4879 84.974 97.6139 85.192 96.7399C85.8935 94.0134 86.7963 91.3427 87.893 88.7499C88.1162 88.2155 88.3553 87.6879 88.61 87.1679C94.336 94.3439 105.55 91.5379 112.212 87.2469H112.378V87.1499L112.561 87.0369C112.719 86.9319 112.448 86.8529 112.159 86.8439C112.097 86.7602 112.007 86.7013 111.906 86.6779C107.334 86.9489 103.164 84.0559 98.794 83.1819C95.7725 82.5267 92.6148 83.0489 89.965 84.6419C92.127 81.0828 94.9594 77.9773 98.305 75.4979C99.502 77.6049 101.958 78.9949 104.1 79.9299C109.86 82.4909 115.122 79.1079 119.51 75.4799L119.58 75.4279C119.607 75.2848 119.599 75.1371 119.555 74.9982C119.51 74.8594 119.432 74.7338 119.327 74.6329C117.509 72.2289 112.955 72.4999 110.306 72.5259C107.252 72.5159 104.206 72.8239 101.215 73.4439C104.607 71.2059 108.33 69.2399 112.185 67.1419C113.208 67.9459 115.323 67.6659 116.346 67.6399C120.537 67.6122 124.629 66.3704 128.129 64.0649C129.456 63.2509 130.444 61.9837 130.909 60.4979C131.389 58.4269 130.149 56.4249 130.76 54.3789C130.76 54.3789 130.865 54.1429 130.91 54.0209C130.768 53.9946 130.622 54.004 130.484 54.0482C130.347 54.0923 130.222 54.1699 130.122 54.2739C127.832 58.4269 123.409 57.8499 119.632 59.0739C117.753 59.6755 116.027 60.6771 114.572 62.0099C113.619 62.8849 111.267 64.9909 111.696 66.4419C111.692 66.4798 111.692 66.5179 111.696 66.5559C106.968 68.4682 102.491 70.9516 98.366 73.9509C98.724 70.1139 98.566 65.6289 96.713 62.2549C95.193 59.4749 92.675 55.4719 89.72 53.9509C89.7144 53.9451 89.7076 53.9405 89.7001 53.9374C89.6926 53.9342 89.6846 53.9326 89.6765 53.9326C89.6684 53.9326 89.6604 53.9342 89.6529 53.9374C89.6455 53.9405 89.6387 53.9451 89.633 53.9509C84.93 61.8179 88.365 72.2379 97.395 74.6409C94.3379 77.01 91.6817 79.8553 89.528 83.0679C89.9767 79.6296 89.5465 76.1337 88.2778 72.9067C87.0091 69.6797 84.9432 66.827 82.273 64.6149C82.1051 64.5454 81.9197 64.5301 81.7426 64.5709C81.5655 64.6118 81.4056 64.7069 81.285 64.8429C79.24 70.0869 77.867 75.6559 80.411 81.0229C81.861 84.0559 84.143 86.4509 87.491 86.5909C87.299 86.9759 87.115 87.3779 86.941 87.7799C86.0974 89.7111 85.359 91.6867 84.729 93.6979C82.657 87.3509 72.649 84.2659 68.636 79.0479C68.6161 79.0134 68.5874 78.9848 68.553 78.9649C68.5185 78.945 68.4793 78.9345 68.4395 78.9345C68.3997 78.9345 68.3606 78.945 68.3261 78.9649C68.2916 78.9848 68.263 79.0134 68.243 79.0479C68.1649 79.1214 68.1153 79.2203 68.103 79.3269C66.521 87.6489 74.03 100.21 83.278 100.122C82.8752 102.548 82.6968 105.006 82.745 107.465C82.8039 110.075 82.9293 112.684 83.121 115.288C82.649 113.802 82.552 112.229 82.081 110.682C81.4072 108.62 80.325 106.714 78.899 105.079C76.0711 101.523 72.0195 99.1479 67.535 98.4179C67.107 98.3649 67.045 99.2919 67.351 99.5279C67.747 99.8869 68.123 100.266 68.479 100.664L68.645 100.874C73.235 106.792 75.105 116.608 83.295 118.104C83.497 120.559 83.715 123.016 83.925 125.464C83.339 122.43 80.175 122.954 77.019 124.161C75.7283 124.63 74.541 125.345 73.523 126.267H70.34C67.42 118.89 69.798 110.315 65.97 103.304C65.1562 101.823 64.0064 100.554 62.613 99.5979C65.139 97.4649 67.254 94.4759 66.913 91.0139C66.7868 89.9201 66.41 88.8703 65.812 87.9459C65.095 86.7129 64.177 85.9439 63.732 84.4489C63.286 82.9549 63.05 81.3189 62.665 79.7809C62.534 79.2399 62.298 79.7809 62.298 80.0349C62.298 82.5789 59.142 84.0299 58.111 86.1539C57.478 87.597 57.1963 89.1697 57.289 90.7429C57.2166 93.3713 58.0295 95.9478 59.597 98.0589C56.3163 96.8921 52.839 96.3785 49.361 96.5469C54.684 94.0819 54.711 87.4909 50.331 83.6009C45.811 79.5889 37.875 78.3569 32.7 81.7129C32.508 81.8439 32.324 81.9669 32.15 82.0979C32.136 82.2019 32.136 82.3079 32.15 82.4129C32.1529 82.4658 32.1708 82.5169 32.2016 82.5601C32.2324 82.6033 32.2749 82.6368 32.324 82.6569C34.5879 82.6884 36.8127 83.2516 38.819 84.3009C41.686 86.0489 41.695 89.3969 42.866 92.2289C43.618 94.0648 44.536 95.9529 46.004 96.7659C44.9412 96.8754 43.8828 97.0242 42.831 97.2119C41.073 97.5279 39.347 98.0018 37.674 98.6279C37.6263 98.2953 37.504 97.9779 37.3163 97.6992C37.1286 97.4206 36.8803 97.188 36.59 97.0189C34.71 95.4459 31.398 93.9069 29.204 92.8409C26.3868 91.4844 23.3163 90.7339 20.191 90.6379C16.389 90.5239 13.198 91.8529 9.55303 92.4829C9.45624 92.5605 9.37709 92.6578 9.32082 92.7683C9.26456 92.8789 9.23248 93.0002 9.22671 93.1241C9.22094 93.248 9.24161 93.3717 9.28736 93.487C9.33311 93.6023 9.40287 93.7066 9.49203 93.7929C17.359 96.1889 25.042 101.39 33.356 100.673C30.7451 102.164 28.4331 104.126 26.537 106.46C26.355 106.679 26.1832 106.907 26.022 107.142C23.722 104.414 19.832 104.117 16.406 104.738C11.31 105.664 7.08803 111.188 1.69503 110.114C1.53703 110.114 0.497027 110.394 0.821027 110.577C7.49903 114.947 18.12 115.385 24.291 109.851C21.363 115.262 20.55 121.731 20.131 127.841C16.319 131.189 12.377 135.122 11.8 140.393C11.3 144.537 11.495 148.735 12.377 152.815C12.387 153.046 12.437 153.274 12.525 153.488C12.7568 153.305 12.9732 153.103 13.172 152.885L13.251 152.815L13.311 152.745C17.4597 148.922 20.419 143.984 21.835 138.523C22.613 135.586 24.177 129.563 21.057 127.465C21.66 120.708 22.246 113.619 26.057 107.928C26.088 107.866 26.127 107.808 26.17 107.753C26.2 107.699 26.231 107.647 26.266 107.596C26.2799 107.57 26.2978 107.546 26.319 107.526C26.8852 106.707 27.5166 105.936 28.207 105.219C29.9239 103.447 31.9206 101.971 34.117 100.848C32.473 104.729 28.871 107.351 27.307 111.338C26.252 114.251 26.1145 117.417 26.913 120.411C26.94 120.548 26.987 120.681 27.053 120.804C27.8991 123.189 29.3476 125.316 31.258 126.976C31.686 127.36 31.87 126.031 31.87 125.926C31.87 119.536 37.586 114.904 37.752 108.576C37.822 105.726 36.739 102.736 35.567 100.122C36.0665 99.8972 36.5738 99.6904 37.088 99.5019L37.648 99.3009C40.6368 98.2853 43.7584 97.7139 46.913 97.6049C43.53 98.7669 40.48 100.875 39.291 104.423C37.543 109.624 39.824 115.096 37.752 120.323C37.604 120.691 37.866 121.713 38.399 121.267C42.482 117.841 48.312 115.446 50.497 110.227C52.149 106.285 50.847 101.486 49.579 97.5699C50.392 97.5699 51.188 97.6309 51.983 97.7009C55.829 98.0239 59.23 98.8719 61.826 100.726C60.3495 100.297 58.7787 100.317 57.3138 100.784C55.8488 101.251 54.556 102.144 53.6 103.348C50.41 107.124 50.515 113.304 49.85 117.928C49.798 118.313 49.973 118.995 50.489 118.846C53.985 117.823 58.356 115.699 60.515 112.544C61.686 110.795 62.001 103.663 64.282 103.164C65.4702 104.798 66.2798 106.677 66.652 108.663C67.875 114.554 66.712 120.769 69.046 126.39H65.01C60.08 120.874 48.576 120.857 42.492 123.094C40.491 123.763 38.6753 124.893 37.1918 126.394C35.7083 127.894 34.5985 129.722 33.952 131.731C33.8867 131.814 33.831 131.905 33.786 132.001C23.48 134.781 25.158 150.122 17.457 155.831C17.23 155.997 16.933 157.115 17.335 156.871C17.619 156.699 17.8934 156.512 18.157 156.311C18.176 156.352 18.217 156.379 18.261 156.381C20.4162 156.471 22.5575 155.997 24.4738 155.007C26.39 154.017 28.0149 152.544 29.188 150.734C32.02 146.364 29.878 138.339 33.253 134.86C32.9462 137.714 33.1865 140.601 33.961 143.365C34.6819 145.856 35.5576 148.3 36.583 150.682C33.087 149.808 30.167 153.855 28.27 156.521C26.2711 159.334 24.4829 162.29 22.92 165.367C20.945 169.248 19.616 173.173 14.643 173.89C14.5911 173.92 14.5503 173.966 14.5265 174.021C14.5028 174.076 14.4973 174.137 14.511 174.196C14.513 174.338 14.534 174.479 14.573 174.616C14.593 174.71 14.658 174.789 14.748 174.826C15.224 174.88 15.706 174.851 16.172 174.738C21.4861 174.858 26.7073 173.331 31.12 170.368C33.6948 168.602 35.7019 166.127 36.898 163.243C37.6073 161.554 38.0609 159.769 38.244 157.946C38.305 157.369 38.104 155.822 38.017 154.336C38.9233 156.611 39.5879 158.976 40 161.39C40.5244 165.732 40.2728 170.133 39.257 174.388C25.708 170.787 18.112 190.42 12.858 199.336C12.792 199.546 12.792 199.772 12.858 199.983L12.938 200.227C13.042 200.472 13.173 200.603 13.295 200.402L13.488 200.07C18.7162 198.55 23.5814 195.985 27.7885 192.529C31.9956 189.073 35.4571 184.798 37.963 179.965C37.693 181.058 37.413 182.133 37.142 183.199C36.1837 186.915 34.9866 190.564 33.558 194.126C32.8423 195.737 32.3426 197.436 32.072 199.178C18.872 199.502 24.694 218.514 22.255 226.163C22.107 226.617 23.225 226.477 23.409 226.346C27.2689 223.653 30.1301 219.759 31.547 215.271C32.2457 213.05 32.5622 210.727 32.483 208.401C32.395 206.075 31.32 203.401 32.063 201.163C32.413 204.467 34.231 207.771 35.472 210.778C36.912 214.333 38.368 217.885 39.842 221.434C36.495 230.524 36.573 243.392 47.159 247.325C47.3512 247.449 47.5769 247.51 47.8053 247.501C48.0336 247.491 48.2536 247.412 48.435 247.273C50.638 241.827 49.572 235.752 47.998 230.245C47.124 227.125 45.621 224.371 43.051 222.797L42.963 222.736C42.0864 222.058 41.3478 221.218 40.787 220.262C38.767 215.358 36.661 210.49 34.729 205.559C33.558 202.596 32.929 200.175 33.636 196.932C34.178 194.423 35.586 192.028 36.425 189.589C37.072 187.719 37.727 185.734 38.348 183.689C38.588 186.466 39.279 189.185 40.393 191.739C42.36 196.355 47.054 204.099 52.631 206.599C52.87 209.589 53.124 212.573 53.391 215.551C53.628 218.173 54.038 220.708 54.327 223.295C54.589 225.682 54.737 228.059 54.817 230.428V231.206C54.869 232.955 54.887 234.65 54.895 236.372V242.483C54.895 244.554 54.965 246.635 55.07 248.715C55.0503 248.874 55.0892 249.034 55.1794 249.166C55.2696 249.298 55.405 249.393 55.56 249.432C72.797 249.262 90.038 249.097 107.281 248.934C107.551 248.87 107.745 248.634 107.753 248.357C107.972 246.285 108.199 244.213 108.409 242.142C109.234 242.616 110.115 242.986 111.031 243.243C111.186 243.297 111.343 243.341 111.503 243.374C111.565 242.972 111.635 242.561 111.705 242.15C112.351 238.453 113.191 234.502 112.316 230.944C111.934 229.368 111.151 227.916 110.044 226.731C110.236 224.878 110.428 223.033 110.612 221.181C111.699 221.417 112.805 221.563 113.916 221.617C114.498 221.647 115.082 221.647 115.664 221.617C115.717 221.617 115.717 221.556 115.664 221.469C115.55 221.222 115.357 221.022 115.114 220.9L114.449 220.84C112.43 219.66 111.329 218.12 111.416 214.983C111.416 213.986 111.503 213.086 111.486 212.22C111.722 209.93 111.949 207.649 112.176 205.358C112.684 205.42 113.191 205.446 113.698 205.463C114.434 205.507 115.173 205.507 115.909 205.463C116.319 205.463 116.731 205.403 117.142 205.358C117.552 205.315 116.608 204.834 116.372 204.851C115.752 204.851 115.122 204.904 114.484 204.851C113.648 204.382 112.94 203.716 112.421 202.911C113.121 195.918 113.826 188.911 114.537 181.888C117.688 183.779 121.377 184.573 125.027 184.143C125.112 184.13 125.195 184.104 125.271 184.065C125.379 184.015 125.481 183.953 125.577 183.881C125.813 183.706 125.917 183.514 125.472 183.558H124.982C120.874 182.684 117.815 178.758 115.219 175.271C115.656 171.098 116.096 166.929 116.539 162.762C117.891 163.577 119.309 164.276 120.778 164.852C121.008 165.072 121.27 165.255 121.556 165.393C121.643 165.437 121.731 165.245 121.774 165.026C121.79 164.904 121.79 164.781 121.774 164.659C121.779 164.619 121.777 164.578 121.767 164.539C121.756 164.5 121.738 164.464 121.714 164.432C118.663 161.722 119.266 156.888 118.217 153.269C118.059 152.709 117.885 152.159 117.675 151.617C117.675 151.442 117.675 151.267 117.736 151.093C117.893 149.703 117.972 148.121 118.059 146.486C118.934 147.928 120.009 149.283 120.909 150.856C120.997 151.014 121.119 150.988 121.224 150.856C121.34 150.735 121.419 150.584 121.451 150.42C121.724 149.412 122.015 148.41 122.325 147.413C125.498 148.068 129.091 146.416 131.941 145.14C134.791 143.864 138.611 141.233 140.455 138.06C139.993 143.466 139.223 148.842 138.147 154.16C127.019 151.608 122.115 163.776 122.474 172.84C122.699 173.123 123.074 173.237 123.418 173.13V172.351C124.388 167.579 131.198 166.058 134.248 162.85C135.617 161.232 136.701 159.393 137.456 157.413C136.25 163.051 134.904 168.653 133.593 174.266C132.815 177.631 131.119 181.136 132.587 184.466C132.598 184.496 132.617 184.524 132.64 184.546C130.376 188.977 128.27 193.811 128.916 198.907C129.476 203.531 132.308 207.387 135.446 210.673C135.532 210.738 135.63 210.786 135.734 210.813C135.734 211.101 135.9 211.425 135.997 210.979C136.001 210.944 136.001 210.909 135.997 210.874C136.215 210.874 136.381 210.874 136.285 210.778L136.066 210.542C136.442 208.628 136.407 206.67 136.67 204.738C137.02 202.054 137.902 199.493 137.946 196.792C138.007 192.308 136.503 187.562 133.234 184.406C132.037 181.049 134.336 175.603 135.096 172.281C135.918 168.698 136.757 165.114 137.561 161.521C137.753 160.647 137.937 159.825 138.121 158.977C138.645 164.747 141.941 170.594 146.941 173.33C146.941 173.505 147.054 173.619 147.124 173.558C149.878 171.268 148.575 166.04 147.937 163.068C147.483 160.953 146.818 158.549 145.122 157.08C143.427 155.612 141.058 155.262 139.1 154.24C139.773 150.804 140.358 147.351 140.795 143.872C141.18 140.83 141.425 137.753 141.538 134.712C142.36 139.178 142.107 144.012 144.362 147.998C146.382 151.565 150.568 153.549 154.187 150.892C154.218 150.777 154.219 150.657 154.19 150.542C154.161 150.427 154.103 150.322 154.021 150.236C154.024 150.229 154.026 150.221 154.026 150.214C154.026 150.206 154.024 150.199 154.021 150.192C150.367 147.981 150.795 140.997 148.409 137.325C146.798 134.861 144.443 132.975 141.687 131.941C141.725 128.676 141.597 125.411 141.302 122.159C141.23 121.285 141.166 120.411 141.11 119.537C141.467 118.104 141.532 116.614 141.301 115.156C141.069 113.698 140.547 112.301 139.764 111.049C141.11 111.669 142.019 113.103 143.26 113.925C144.328 114.631 145.511 115.143 146.757 115.437C149.135 115.97 151.62 115.734 153.855 114.764C155.794 113.978 157.547 112.795 159 111.289C160.453 109.783 161.574 107.989 162.29 106.023C162.666 105.193 161.827 105.822 161.722 105.997Z" fill="white"/>
<path d="M85.83 4.53709C85.4824 4.94885 85.205 5.4151 85.009 5.91709C84.406 7.22909 83.916 8.94209 83.724 9.41409C82.439 12.7971 81.337 16.2501 80.227 19.6941C74.528 37.9111 69.642 56.4071 64.589 74.7641L64.51 75.0351C63.899 77.0021 62.858 77.5791 63.12 76.4421C63.383 75.3061 63.794 74.0031 64.135 72.7881C64.283 72.2381 64.432 71.6781 64.589 71.1281C70.227 50.6901 75.15 29.7801 82.421 9.85009C82.886 8.32815 83.4375 6.83405 84.073 5.37509C84.235 5.02409 84.416 4.68309 84.615 4.35209H84.747C85.096 4.47109 85.462 4.53309 85.83 4.53609V4.53709ZM103.007 65.3321C102.963 65.1661 102.92 64.9921 102.867 64.8251C98.549 48.4791 94.266 32.1251 89.799 15.8221C88.995 12.8851 88.199 9.94809 87.325 7.02809C87.238 6.74809 87.142 6.35509 87.037 5.96209C86.919 5.43908 86.7338 4.93355 86.486 4.45809C86.871 4.37809 87.24 4.23709 87.579 4.03809C87.753 4.55609 87.893 5.08509 87.999 5.62109C88.086 6.04109 88.156 6.40709 88.226 6.62609C89.152 9.72009 89.974 12.8321 90.848 15.9531C95.158 31.6871 99.301 47.4831 103.47 63.2691C103.75 64.3791 103.304 65.9091 103.007 65.3321Z" fill="#777777"/>
<path d="M88.864 1.984C87.99 0.962 85.769 0.454 84.65 1.285C84.6209 1.316 84.6007 1.3543 84.5915 1.39584C84.5824 1.43738 84.5846 1.48063 84.598 1.521C83.514 1.171 82.588 2.675 82.955 3.855C83.14 4.509 83.545 5.08 84.1 5.472C84.365 5.667 84.66 5.818 84.974 5.918C85.6392 6.08899 86.3368 6.08899 87.002 5.918C87.3341 5.84074 87.6565 5.72636 87.963 5.577C88.676 5.307 89.214 4.707 89.406 3.969C89.546 3.259 89.346 2.524 88.864 1.984ZM88.409 3.007C88.243 3.147 88.139 3.557 87.963 3.724C87.846 3.834 87.717 3.93 87.579 4.012C87.239 4.21 86.871 4.352 86.486 4.432C86.2703 4.48336 86.051 4.51846 85.83 4.537C85.477 4.574 85.12 4.557 84.773 4.484H84.642C83.147 4.038 84.327 2.736 85.463 2.946C85.673 2.946 85.533 2.587 85.393 2.281C86.0743 2.15818 86.7758 2.21259 87.43 2.439C87.794 2.523 88.142 2.664 88.462 2.859C88.4301 2.90201 88.4117 2.95351 88.409 3.007ZM130.061 54.44C128.794 56.39 130.376 58.724 129.886 60.848C128.741 65.752 112.404 69.79 113.278 64.449C113.4 63.689 114.834 62.465 115.341 62.002C117.797 59.799 120.175 59.458 123.156 58.794C124.402 58.5923 125.628 58.2791 126.818 57.858C127.732 57.5535 128.568 57.0542 129.27 56.3947C129.972 55.7351 130.522 54.931 130.883 54.038C130.742 54.011 130.596 54.0192 130.459 54.0619C130.322 54.1046 130.197 54.1806 130.096 54.283C127.806 58.444 123.383 57.858 119.606 59.083C117.729 59.683 116.002 60.682 114.546 62.01C113.601 62.885 111.241 65 111.67 66.451C112.16 68.129 115.079 67.727 116.337 67.692C120.529 67.67 124.624 66.4278 128.121 64.117C129.451 63.3069 130.44 62.0388 130.901 60.551C131.399 58.409 130.026 56.346 130.821 54.205C130.692 54.1872 130.561 54.1984 130.437 54.2377C130.314 54.2769 130.2 54.3433 130.105 54.432L130.061 54.441V54.44ZM98.27 74.773C98.733 70.769 98.68 65.883 96.696 62.264C95.175 59.484 92.657 55.481 89.703 53.96C89.6906 53.9499 89.675 53.9444 89.659 53.9444C89.643 53.9444 89.6275 53.9499 89.615 53.96C84.781 62.01 88.54 72.84 98.165 74.843C98.348 74.843 98.225 74.073 98.033 74.021C96.5772 73.6549 95.1778 73.0931 93.873 72.351C90.463 70.297 89.973 69.021 88.575 65.358C87.8006 63.0666 87.7185 60.5978 88.339 58.26C88.5243 56.9356 89.0855 55.6922 89.956 54.677C90.551 54.747 91.844 56.547 92.203 56.932C96.766 61.906 98.505 67.422 97.955 74.178C97.955 74.327 98.208 74.93 98.235 74.738L98.269 74.773H98.27Z" fill="#777777"/>
<path d="M97.98 75.2621C101.796 74.3053 105.702 73.7545 109.633 73.6191C112.413 73.5581 117.115 73.2431 119.117 75.6121C119.22 75.4946 119.29 75.3515 119.32 75.1978C119.349 75.0441 119.336 74.8853 119.283 74.7381C117.465 72.3251 112.911 72.6051 110.263 72.6311C106.11 72.5568 101.974 73.1743 98.024 74.4581C97.9473 74.591 97.9069 74.7417 97.9069 74.8951C97.9069 75.0485 97.9473 75.1992 98.024 75.3321L97.981 75.2621H97.98Z" fill="#777777"/>
<path d="M97.788 74.633C98.663 77.255 101.573 78.943 104.021 80.035C109.808 82.657 115.096 79.161 119.511 75.533C119.515 75.3517 119.454 75.1749 119.338 75.0352C119.222 74.8955 119.06 74.8024 118.881 74.773C116.014 76.976 113.164 79.371 109.476 80.017C105.786 80.664 99.921 78.637 98.226 74.983C98.173 74.878 97.727 74.458 97.78 74.624L97.788 74.633ZM88.89 86.434C91.075 78.566 88.733 69.825 82.281 64.659C82.1133 64.5897 81.9282 64.5743 81.7513 64.615C81.5744 64.6557 81.4146 64.7504 81.294 64.886C79.248 70.131 77.876 75.699 80.42 81.066C81.984 84.336 84.493 86.853 88.287 86.643C88.417 86.643 89.161 86.346 88.741 86.329C84.082 86.215 81.302 81.853 80.358 77.692C79.868 75.542 80.245 65.341 82.675 66.128C85.358 67.002 87.308 72.788 87.92 75.253C88.84 78.958 88.873 82.828 88.016 86.547C88.033 86.74 88.837 86.626 88.89 86.434Z" fill="#777777"/>
<path d="M88.531 86.6172C93.199 83.3472 97.421 83.1212 102.719 84.9572C105.83 86.0142 108.995 87.9202 112.334 87.3342C112.314 87.2069 112.261 87.0873 112.179 86.9875C112.098 86.8876 111.992 86.8113 111.871 86.7662C107.291 87.0362 103.129 84.1432 98.706 83.2692C96.8233 82.8778 94.876 82.9232 93.0136 83.4021C91.1513 83.8809 89.4235 84.7803 87.963 86.0312C88.007 86.3222 88.227 86.5552 88.514 86.6172H88.531Z" fill="#777777"/>
<path d="M87.867 86.3721C93.453 94.8161 105.621 91.7661 112.535 87.1321C112.797 86.9581 111.879 86.8621 111.661 86.9841C104.309 91.4601 94.921 93.7061 88.619 86.3021C88.497 86.1621 87.745 86.2501 87.832 86.3821L87.867 86.3721ZM62.098 99.3621C60.3251 98.2926 59.0063 96.6095 58.392 94.6321C57.7019 92.5875 57.6168 90.387 58.147 88.2951C58.5285 86.8135 59.3407 85.4782 60.481 84.4581C60.919 84.0681 61.307 83.6251 61.635 83.1381C62.075 82.4871 62.441 81.7891 62.727 81.0581C62.985 82.9381 63.403 84.7911 63.977 86.6001C64.309 87.3431 64.895 87.9101 65.236 88.5751C67.806 93.6631 65.052 96.5121 62.028 99.2651C61.853 99.4231 61.941 100.262 62.08 100.14C64.851 97.9801 67.325 94.8081 66.958 91.0931C66.8306 90.0022 66.4539 88.9552 65.857 88.0331C65.14 86.8011 64.222 86.0311 63.777 84.5371C63.33 83.0421 63.094 81.4071 62.71 79.8691C62.579 79.3271 62.343 79.8251 62.343 80.1311C62.343 82.6751 59.187 84.1261 58.156 86.2501C57.5191 87.6926 57.2347 89.266 57.326 90.8401C57.404 94.5801 58.593 98.2871 62.036 100.114C62.1019 100.001 62.1416 99.8753 62.1523 99.7452C62.1631 99.615 62.1445 99.4842 62.098 99.3621ZM49.1 96.6781L48.802 96.8011C48.226 97.0111 48.742 96.4251 48.977 96.3201H49.047C56.137 93.2431 51.836 85.4461 47.605 82.8851C43.584 80.4371 37.631 79.2311 33.365 81.7571C33.0878 81.9205 32.8194 82.0984 32.561 82.2901C32.4666 82.359 32.3601 82.4095 32.247 82.4391C32.2189 82.3365 32.2041 82.2306 32.203 82.1241C32.378 81.9931 32.561 81.8711 32.753 81.7401C37.928 78.3651 45.865 79.6151 50.385 83.6281C54.904 87.6401 54.747 94.3271 49.1 96.6781Z" fill="#777777"/>
<path d="M49.1 96.6783C49.1069 96.7335 49.1 96.7895 49.0802 96.8415C49.0603 96.8934 49.028 96.9397 48.986 96.9763C45.656 97.9463 44.126 95.0263 42.972 92.2123C41.818 89.3973 41.792 86.0143 38.925 84.2833C36.9187 83.2344 34.6939 82.6716 32.43 82.6403C32.3806 82.6204 32.3378 82.5867 32.3068 82.5433C32.2758 82.4999 32.2579 82.4486 32.255 82.3953C32.2273 82.2926 32.2128 82.1867 32.212 82.0803C32.386 81.9503 32.57 81.8273 32.762 81.6963H33.374C36.084 81.8093 39.178 82.6753 40.874 84.8433C43.601 88.3393 42.954 97.1683 49.047 96.2673C49.085 96.4013 49.103 96.5403 49.1 96.6783ZM37.78 98.6103C37.7322 98.2779 37.6098 97.9607 37.4221 97.6822C37.2344 97.4038 36.9862 97.1714 36.696 97.0023C34.816 95.4283 31.503 93.8903 29.309 92.8233C26.492 91.4673 23.422 90.7172 20.297 90.6213C16.495 90.5073 13.304 91.8363 9.65905 92.4653C9.5621 92.5429 9.4828 92.6403 9.42643 92.7509C9.37007 92.8616 9.33793 92.983 9.33216 93.107C9.32639 93.231 9.34711 93.3549 9.39296 93.4703C9.43881 93.5857 9.50872 93.69 9.59805 93.7763C17.465 96.1713 25.148 101.372 33.462 100.656C33.925 100.656 34.388 100.559 34.86 100.481C35.63 100.105 36.416 99.7733 37.212 99.4763L37.771 99.2743C37.7752 99.219 37.7752 99.1635 37.771 99.1083C37.788 98.9433 37.791 98.7763 37.78 98.6103ZM12.098 93.2953C16.364 92.4213 20.218 91.4423 24.816 92.5613C27.547 93.3373 30.138 94.5413 32.491 96.1283C33.138 96.5213 36.224 97.6483 37.019 98.6803C28.217 101.355 20.209 96.2763 12.098 93.2953ZM26.128 107.115C23.828 104.388 19.938 104.091 16.512 104.712C11.416 105.638 7.19405 111.162 1.80105 110.087C1.64305 110.087 0.603045 110.367 0.927045 110.551C7.60505 114.921 18.226 115.358 24.397 109.825C25.0392 109.241 25.6245 108.597 26.145 107.902C26.1768 107.84 26.215 107.781 26.259 107.727C26.288 107.673 26.319 107.62 26.355 107.57L26.407 107.5C26.3232 107.365 26.2296 107.237 26.127 107.115H26.128ZM3.08605 110.822C4.4515 110.851 5.80186 110.532 7.01005 109.895C12.771 107.055 20.079 101.783 25.594 107.823C20.464 114.537 10.044 114.65 3.08605 110.83V110.822ZM21.031 127.369C21.031 127.369 21.031 127.439 20.927 127.535L20.516 127.937L20.21 128.243C16.198 132.203 12.719 135.988 12.666 141.993C12.6582 145.39 12.8478 148.784 13.234 152.159L13.287 152.605C13.2372 152.714 13.1657 152.811 13.0769 152.89C12.9882 152.97 12.8841 153.03 12.771 153.068C12.657 153.121 12.57 153.138 12.561 153.068C11.512 149.283 11.486 144.257 11.906 140.35C12.483 135.105 16.425 131.145 20.236 127.797L20.323 127.719L20.551 127.517C20.684 127.417 20.841 127.351 21.005 127.325L21.031 127.369Z" fill="#777777"/>
<path d="M21.9401 138.505C20.4628 144.209 17.3048 149.338 12.8761 153.225C12.7971 153.295 12.7711 153.225 12.7711 153.068C12.7781 152.846 12.8411 152.63 12.9551 152.438L13.2351 152.159C16.0796 149.474 18.3847 146.27 20.0261 142.719C21.4951 139.441 24.3961 131.582 21.0401 128.374C20.8793 128.212 20.7039 128.066 20.5161 127.937L20.3671 127.841C20.3441 127.813 20.3289 127.78 20.3231 127.745C20.3164 127.63 20.3359 127.516 20.3798 127.41C20.4238 127.304 20.4913 127.209 20.5771 127.133C20.7261 127.203 20.8741 127.273 21.0051 127.351L21.1361 127.431C24.2831 129.545 22.7191 135.568 21.9411 138.505H21.9401ZM113.182 66.635C102.552 72.474 92.7711 76.975 87.8321 88.864C86.7357 91.4569 85.8332 94.1275 85.1321 96.854C84.9121 97.727 84.7121 98.601 84.5451 99.476C84.1152 101.718 83.8872 103.994 83.8641 106.276C83.8111 113.453 84.7381 120.664 85.2441 127.815C85.2441 128.042 84.1781 127.885 84.1521 127.579C83.6101 120.918 82.8761 114.196 82.7451 107.474C82.6961 105.015 82.8751 102.557 83.2781 100.131C83.3131 99.857 83.3571 99.586 83.4091 99.318C83.5751 98.365 83.7851 97.421 84.0211 96.486C84.2571 95.551 84.5011 94.642 84.7811 93.733C85.4108 91.7218 86.1492 89.7462 86.9931 87.815C91.6871 77.019 101.853 70.603 112.343 66.276C112.561 66.215 113.339 66.547 113.182 66.635Z" fill="#777777"/>
<path d="M69.712 127.483C66.67 121.565 68.094 114.895 66.783 108.593C65.157 100.822 59.467 98.2871 52.115 97.6661C47.278 97.2011 42.396 97.7461 37.78 99.2661L37.22 99.4661C36.425 99.7641 35.638 100.096 34.869 100.472C32.4254 101.643 30.2109 103.242 28.33 105.192C27.6395 105.909 27.0081 106.681 26.442 107.5L26.39 107.57C26.355 107.62 26.323 107.673 26.294 107.727C26.25 107.781 26.2118 107.84 26.18 107.902C22.369 113.592 21.81 120.682 21.18 127.439C21.18 127.692 21.136 127.955 21.11 128.208C21.102 128.263 21.0844 128.316 21.058 128.365C20.8969 128.203 20.7212 128.057 20.533 127.928L20.227 128.234C20.2183 128.094 20.2183 127.954 20.227 127.814C20.647 121.696 21.46 115.236 24.388 109.825C24.754 109.141 25.16 108.478 25.603 107.841C25.6209 107.796 25.6478 107.754 25.682 107.719C25.822 107.517 25.962 107.308 26.119 107.115C26.276 106.923 26.451 106.661 26.635 106.434C28.5308 104.101 30.8425 102.139 33.453 100.647C34.6293 99.955 35.8565 99.3532 37.124 98.8471L37.666 98.6371H37.771C39.444 98.0101 41.17 97.5361 42.928 97.2201C50.253 95.9101 61.897 95.8301 66.023 103.34C69.921 110.48 67.386 119.24 70.551 126.705C70.673 126.993 69.825 127.701 69.711 127.483H69.712ZM140.979 143.75C140.236 149.694 139.047 155.568 137.745 161.407C136.941 165 136.101 168.584 135.28 172.167C134.493 175.594 132.072 181.294 133.531 184.615C133.864 185.393 132.911 184.738 132.745 184.353C131.276 181.023 132.972 177.517 133.75 174.153C135.061 168.54 136.372 162.937 137.614 157.299C140.174 145.385 141.67 133.409 140.629 121.215V121.128C140.534 120.069 140.427 119.011 140.306 117.955C140.54 115.743 140.187 113.509 139.283 111.477C139.216 111.812 139.12 112.14 138.995 112.457C138.787 112.095 138.559 111.745 138.313 111.407C138.112 111.127 137.893 110.822 137.64 110.533C135.603 107.85 135.14 107.386 132.177 106.635C130.97 106.329 129.737 106.128 128.514 105.9C125.724 105.337 122.905 104.926 120.07 104.668C119.66 104.633 119.249 104.607 118.837 104.589H117.614C116.009 104.547 114.403 104.641 112.814 104.869C107.495 105.587 102.661 108.338 99.327 112.544C98.4749 113.577 97.6499 114.632 96.853 115.708C94.545 118.846 92.483 122.386 91.967 126.118C91.885 126.721 91.847 127.329 91.853 127.938H91.163C91.1149 127.327 91.1149 126.712 91.163 126.101C91.469 121.941 93.785 118.234 96.303 114.799L96.696 114.257L96.879 114.021C96.993 113.855 97.115 113.698 97.238 113.531L97.343 113.391L97.833 112.745C98.051 112.456 98.278 112.168 98.505 111.871C101.427 108.042 105.584 105.342 110.271 104.231C112.565 103.717 114.914 103.494 117.264 103.566H118.785C122.312 103.865 125.815 104.39 129.275 105.14C132.841 105.84 136.757 106.705 138.942 109.895V109.956C138.981 110.013 139.016 110.071 139.047 110.131C139.125 110.243 139.195 110.359 139.257 110.481L139.336 110.611C140.656 113.068 140.936 116.267 141.136 119.178C141.198 120.052 141.259 120.97 141.329 121.801C141.999 129.109 141.882 136.467 140.979 143.75Z" fill="#777777"/>
<path d="M117.378 104.423C121.976 103.733 125.979 102.238 128.593 98.2344C131.17 94.4721 132.254 89.8854 131.635 85.3674C131.573 84.8774 131.25 85.5514 131.224 85.6914C130.524 89.1874 126.976 90.3324 124.406 92.0814C122.66 93.2197 121.115 94.6404 119.834 96.2854C118.124 98.545 117.236 101.32 117.316 104.152C117.316 104.65 117.561 103.977 117.57 103.794C117.727 97.1074 122.719 94.1784 127.614 91.0664C128.72 90.4345 129.694 89.5947 130.481 88.5934C130.754 87.9924 131.064 87.4084 131.407 86.8444C131.547 86.7404 130.847 92.5174 130.935 92.2124C130.594 93.3679 130.131 94.4841 129.555 95.5424C128.893 96.8724 128.065 98.1124 127.089 99.2314C124.598 101.931 120.97 102.841 117.474 103.601C117.381 103.715 117.323 103.853 117.306 103.998C117.289 104.144 117.314 104.291 117.378 104.423ZM138.619 110.498C140.76 110.568 141.801 112.64 143.4 113.698C144.47 114.4 145.653 114.912 146.897 115.21C149.273 115.742 151.755 115.503 153.986 114.528C155.927 113.745 157.681 112.562 159.134 111.056C160.587 109.55 161.707 107.755 162.421 105.787C162.622 105.21 161.792 105.839 161.678 106.014C160.42 107.972 156.748 109.091 154.502 109.012C153.238 108.919 151.98 108.755 150.734 108.522C149.32 108.264 147.888 108.121 146.451 108.094C143.829 108.048 141.241 108.687 138.942 109.948C138.802 110.026 138.33 110.682 138.706 110.481C145.796 106.678 154.301 112.797 160.743 107.858C161.871 106.984 161.495 106.346 161.206 107.264C160.052 110.892 155.498 113.846 151.914 114.493C150.477 114.743 149.005 114.702 147.584 114.371C146.164 114.041 144.824 113.429 143.645 112.57C142.002 111.407 141.294 109.747 139.152 109.851C139.016 109.906 138.896 109.994 138.803 110.107C138.71 110.22 138.647 110.355 138.619 110.498Z" fill="#777777"/>
<path d="M139.904 110.822C139.777 110.595 139.639 110.373 139.493 110.157C139.364 110.098 139.224 110.069 139.083 110.07H139.003C138.962 110.066 138.921 110.07 138.882 110.082C138.843 110.094 138.807 110.114 138.776 110.14C138.776 110.236 138.776 110.332 138.724 110.428C138.662 110.745 138.58 111.058 138.479 111.364C136.529 117.369 128.864 119.379 126.11 125.236C124.615 128.392 123.243 133.4 126.792 135.594C126.923 135.674 127.771 135.839 127.762 135.594C127.562 130.997 131.399 130.734 134.589 128.689C136.707 127.334 138.47 125.49 139.729 123.313C140.135 122.61 140.492 121.88 140.795 121.128C141.036 120.538 141.232 119.93 141.381 119.309C142.064 116.397 141.531 113.332 139.904 110.822ZM136.066 126.276C132.762 129.58 126.896 129.694 126.53 134.633C123.374 131.136 127.535 123.785 130.026 121.198C132.955 118.138 137.579 116.416 139.038 112.456C139.163 112.139 139.26 111.811 139.327 111.477C140.231 113.509 140.584 115.744 140.35 117.955C139.92 121.139 138.407 124.077 136.066 126.276ZM154.09 149.948C152.273 151.084 150.061 152.089 148.156 150.874C147.313 150.348 146.544 149.713 145.866 148.986C145.14 147.615 144.554 146.175 144.117 144.686C143.481 143.416 143.106 142.03 143.016 140.612C143.016 139.965 142.955 139.318 142.885 138.698C142.727 137.229 142.351 135.795 142.168 134.327C142.072 133.584 141.652 133.357 142.089 132.858C142.526 132.36 144.554 133.802 144.991 134.108C149.361 137.159 149.458 141.801 150.909 146.346C151.141 147.278 151.569 148.15 152.164 148.904C152.76 149.657 153.509 150.275 154.362 150.716C154.383 150.571 154.373 150.423 154.33 150.283C154.288 150.143 154.215 150.013 154.117 149.904C150.463 147.692 150.892 140.717 148.505 137.037C146.755 134.369 144.146 132.38 141.11 131.399C140.927 131.337 141.023 131.774 141.031 131.819C142.78 136.958 141.801 143.016 144.528 147.823C146.556 151.399 150.76 153.383 154.388 150.691C154.417 150.552 154.404 150.407 154.351 150.275C154.298 150.143 154.208 150.029 154.091 149.948H154.09Z" fill="#777777"/>
<path d="M140.743 132.255C141.836 136.757 138.418 140.201 135.079 142.745C133.186 144.112 131.104 145.199 128.899 145.97C127.789 146.39 123.566 146.984 123.593 146.705C123.619 146.425 125.297 145.122 125.559 144.755C126.434 143.566 126.967 142.133 127.709 140.909C130.542 136.11 134.974 132.343 140.874 132.43C141.145 132.43 141.949 132.072 141.32 132.063C137.984 131.954 134.709 132.976 132.028 134.965C130.327 136.258 128.85 137.824 127.658 139.598C125.953 142.08 125.035 145.717 122.08 146.949C122.02 146.949 121.74 147.115 121.95 147.185C125.271 148.208 129.135 146.434 132.115 145.07C136.661 142.998 143.269 137.867 141.434 132.185C141.323 132.132 141.201 132.111 141.079 132.124C140.957 132.136 140.841 132.181 140.743 132.255ZM123.497 172.99C123.881 167.614 131.233 166.11 134.432 162.736C136.53 160.533 137.596 157.142 138.942 154.458C139.03 154.274 138.462 154.082 138.382 154.065C127.194 151.442 122.282 163.68 122.649 172.727C122.874 173.009 123.249 173.123 123.593 173.016C123.706 167.326 124.371 161.136 128.943 157.124C129.948 156.25 134.869 153.26 137.299 154.502C138.094 154.895 136.276 157.535 135.717 158.654C134.318 161.542 132.062 163.929 129.257 165.49C126.46 167.238 122.876 168.986 122.745 172.745C122.835 172.851 122.953 172.931 123.086 172.974C123.219 173.017 123.361 173.023 123.497 172.99Z" fill="#777777"/>
<path d="M147.264 172.675C145.299 171.078 143.537 169.246 142.019 167.22C141.276 166.154 135.9 155.524 139.397 155.402C140.656 155.358 143.4 156.888 144.441 157.544C147.841 159.703 150.192 169.51 147.141 172.517C146.958 172.701 147.141 173.637 147.299 173.487C150.044 171.207 148.75 165.97 148.112 162.998C147.657 160.883 146.993 158.479 145.297 157.019C143.462 155.437 140.804 155.131 138.759 153.889C138.61 153.794 138.54 154.082 138.523 154.169C137.107 161.224 140.752 169.86 147.264 173.339C147.318 173.237 147.347 173.123 147.347 173.007C147.347 172.891 147.318 172.777 147.264 172.675ZM132.867 184.38C130.594 188.829 128.497 193.68 129.117 198.794C129.685 203.418 132.517 207.273 135.647 210.559C135.804 210.726 136.713 210.892 136.521 210.673C132.867 206.748 130.079 202.22 130.14 196.783C130.192 192.473 131.958 188.549 133.514 184.598C133.438 184.509 133.34 184.441 133.229 184.403C133.118 184.364 132.999 184.356 132.884 184.379H132.867V184.38Z" fill="#777777"/>
<path d="M133.112 184.913C139.545 192.045 137.255 201.801 135.918 210.498C135.918 210.726 136.058 211.478 136.188 210.892C136.661 208.837 136.608 206.731 136.879 204.65C137.229 201.967 138.121 199.406 138.156 196.705C138.216 192.125 136.652 187.273 133.243 184.108C133.152 184.217 133.092 184.348 133.069 184.488C133.046 184.628 133.061 184.772 133.112 184.904V184.913ZM66.469 128.27H65.149C64.7166 127.553 64.1835 126.902 63.566 126.337C60.944 123.96 57.133 123.147 53.593 122.736C45.778 121.862 36.46 123.942 34.642 132.753C33.322 139.126 35.804 144.913 38.138 150.726C38.208 150.9 38.278 151.076 38.357 151.25L38.453 151.503L38.636 151.967C39.7589 154.585 40.6172 157.309 41.198 160.097C42.946 169.449 39.58 180.621 36.548 189.441C35.673 191.879 34.301 194.274 33.758 196.783C33.051 200.026 33.68 202.448 34.851 205.411C36.958 210.778 39.266 216.075 41.442 221.416C41.608 221.818 40.332 222.29 40.166 221.923C38.616 218.193 37.086 214.455 35.576 210.708C34.326 207.658 32.491 204.327 32.159 201.005C31.914 198.497 32.771 196.311 33.663 194.012C35.0915 190.451 36.2887 186.802 37.247 183.086C38.995 176.093 41.224 168.531 40.114 161.285C39.7013 158.871 39.0359 156.507 38.129 154.231C37.841 153.471 37.544 152.71 37.255 151.958L36.879 151.014C36.8173 150.876 36.7593 150.736 36.705 150.594C35.6793 148.212 34.8033 145.769 34.082 143.278C31.836 134.921 33.855 126.215 42.614 123.007C48.733 120.769 60.201 120.787 65.131 126.302C65.6646 126.894 66.1148 127.556 66.469 128.269V128.27Z" fill="#777777"/>
<path d="M34.624 131.766C23.54 134.03 25.464 149.939 17.587 155.778C17.36 155.944 17.072 157.063 17.465 156.818C26.617 151.154 23.155 136.014 34.388 132.675C34.624 132.605 34.851 131.713 34.624 131.801V131.766Z" fill="#777777"/>
<path d="M18.392 156.32C20.5459 156.411 22.6862 155.937 24.6009 154.947C26.5157 153.956 28.1386 152.483 29.309 150.673C32.378 145.909 29.615 136.932 34.327 134.065C34.519 133.942 34.642 133.007 34.327 133.085C31.941 133.794 30.997 136.145 30.682 138.445C30.062 142.99 31.312 147.334 27.867 151.224C25.42 153.986 22.08 155.061 18.505 155.166C18.147 155.166 18.042 156.337 18.357 156.346L18.392 156.32Z" fill="#777777"/>
<path d="M53.872 157.29C53.8421 157.305 53.8093 157.313 53.776 157.313C53.7427 157.313 53.7099 157.305 53.68 157.29C53.6135 157.264 53.5492 157.232 53.488 157.194C52.5827 156.761 51.8389 156.051 51.364 155.166C49.615 152.08 50.236 146.958 49.545 143.934C49.2623 142.704 48.8707 141.502 48.375 140.341C48.138 139.791 47.885 139.257 47.596 138.733C45.096 134.091 40.752 130.726 35.14 132.045L34.851 132.115C34.5391 132.201 34.2302 132.297 33.925 132.404C33.61 132.517 34.003 131.591 34.257 131.53C39.187 129.685 43.872 131.582 46.958 135.472C47.314 135.916 47.644 136.38 47.946 136.862C47.99 136.941 48.042 137.01 48.076 137.089C49.6685 139.919 50.6487 143.052 50.953 146.285C51.39 149.72 50.76 153.68 53.733 155.9C53.918 156.045 54.113 156.177 54.318 156.294C54.545 156.451 54.178 157.133 53.872 157.29Z" fill="#777777"/>
<path d="M53.872 157.29L53.488 157.212C52.163 156.953 50.8764 156.527 49.659 155.944C49.4215 155.839 49.188 155.726 48.959 155.604C44.274 153.121 40.795 148.61 37.649 144.336C34.851 140.516 32.561 136.469 34.528 131.984C34.598 131.836 34.991 131.844 35.061 131.696C35.271 131.276 35.21 131.888 35.149 132.036C32.753 138.059 39.091 144.816 42.789 148.934C44.5193 150.923 46.562 152.618 48.837 153.951C49.073 154.091 49.309 154.222 49.554 154.344C50.144 154.651 50.751 154.922 51.372 155.157C52.143 155.458 52.935 155.704 53.742 155.892C53.927 156.037 54.122 156.168 54.327 156.285C54.545 156.451 54.178 157.133 53.872 157.29ZM38.479 151.512L38.322 151.399C38.0459 151.202 37.7535 151.03 37.448 150.883C37.2183 150.781 36.9817 150.697 36.74 150.629C33.243 149.755 30.323 153.802 28.427 156.469C26.4281 159.281 24.6399 162.238 23.077 165.315C21.101 169.195 19.773 173.121 14.799 173.837C14.7473 173.867 14.7067 173.913 14.6831 173.968C14.6595 174.023 14.6542 174.084 14.668 174.143C14.67 174.285 14.69 174.426 14.729 174.563C14.749 174.657 14.815 174.735 14.904 174.773C15.38 174.828 15.863 174.798 16.329 174.685C16.8339 174.573 17.3176 174.381 17.762 174.117C24.755 170.097 28.794 149.642 36.573 151.74C36.816 151.804 37.053 151.89 37.281 151.993C37.585 152.126 37.877 152.284 38.156 152.465C38.273 152.532 38.386 152.605 38.496 152.684C38.654 152.797 38.724 152.378 38.689 152.002V151.958L38.479 151.512Z" fill="#777777"/>
<path d="M38.383 157.885C38.1997 159.708 37.7461 161.493 37.037 163.182C35.8407 166.066 33.8336 168.541 31.259 170.306C26.8463 173.27 21.6251 174.796 16.311 174.676C15.778 174.676 15.245 174.616 14.711 174.554C14.6726 174.418 14.6525 174.276 14.651 174.134C14.795 174.077 14.949 174.047 15.105 174.047C15.977 174.119 16.853 174.139 17.727 174.108C29.642 173.733 39.283 164.188 36.538 151.731L36.46 151.381C36.416 151.198 36.74 151.084 36.87 151.041L37.369 150.883L37.832 150.743C37.922 150.731 38.013 150.731 38.103 150.743C38.173 150.918 38.243 151.093 38.322 151.267C38.2926 151.31 38.2715 151.357 38.26 151.407C38.1375 151.75 38.0756 152.111 38.077 152.474C38.038 153.074 38.038 153.674 38.077 154.274C38.243 155.76 38.444 157.308 38.383 157.884V157.885ZM58.934 186.259C58.934 186.495 58.435 186.014 58.059 186.075C57.9651 186.064 57.8782 186.02 57.8129 185.951C57.7477 185.883 57.7081 185.794 57.701 185.699C57.151 179.694 57.622 172.639 53.733 167.622C52.8254 166.503 51.6741 165.607 50.367 165C50.122 164.886 49.877 164.764 49.624 164.66C46.836 163.41 43.663 162.692 41.634 160.647C41.4767 160.49 41.3282 160.323 41.189 160.149C41.023 159.951 40.8684 159.744 40.726 159.528C40.5265 159.214 40.3539 158.884 40.21 158.54C40.264 158.444 40.3425 158.363 40.4377 158.306C40.5328 158.249 40.6412 158.219 40.752 158.217C40.7879 158.197 40.8286 158.186 40.87 158.186C40.9114 158.186 40.9521 158.197 40.988 158.217C41.066 158.339 41.154 158.453 41.241 158.567C41.438 158.839 41.651 159.098 41.879 159.344C43.942 161.556 46.827 162.395 49.545 163.531L50.271 163.846C52.2363 164.621 53.9467 165.929 55.21 167.622C58.706 172.587 58.593 180.463 58.934 186.259Z" fill="#777777"/>
<path d="M59.51 186.608C53.82 186.224 52.937 180.935 51.329 176.434V176.39C51.1115 175.774 50.8179 175.186 50.455 174.642C48.278 171.312 43.846 168.522 41.713 165.087C41.1006 164.195 40.7146 163.167 40.5883 162.092C40.462 161.017 40.5992 159.927 40.988 158.917L41.066 158.707C41.0919 158.67 41.1279 158.641 41.1698 158.624C41.2116 158.607 41.2575 158.602 41.302 158.61C41.499 158.882 41.712 159.142 41.941 159.388C41.8247 159.804 41.7428 160.228 41.696 160.656C41.136 165.9 46.687 168.523 49.93 172.133C50.053 172.265 50.167 172.405 50.271 172.553C50.607 173.017 50.9 173.511 51.145 174.03C53.095 177.972 53.846 184.3 57.753 185.69L58.147 185.813C58.433 185.886 58.726 185.933 59.021 185.953C59.467 185.953 60.358 186.661 59.511 186.608H59.51ZM39.825 174.423C26.005 170.28 18.305 190.236 12.998 199.248C12.815 199.563 13.173 200.769 13.435 200.323C16.625 194.921 19.607 189.309 23.095 184.1C26.853 178.488 32.64 173.435 39.851 175.568C40.192 175.673 40.14 174.519 39.851 174.423H39.825Z" fill="#777777"/>
<path d="M12.998 199.93C13.097 199.736 13.238 199.566 13.409 199.432L14.152 199.126C25.795 194.326 34.615 187.526 39.327 175.455L39.458 175.122C39.588 174.915 39.768 174.743 39.983 174.624C40.193 174.502 40.358 174.493 40.253 174.79C40.201 174.956 40.14 175.114 40.079 175.28C40.017 175.446 40.017 175.463 39.983 175.56C37.8017 181.411 34.2826 186.672 29.7066 190.921C25.1307 195.171 19.6246 198.292 13.628 200.035C13.441 200.099 13.258 200.152 13.077 200.192L12.998 199.93ZM56.276 206.372C56.289 206.471 56.289 206.571 56.276 206.67C56.1313 206.757 55.9711 206.817 55.804 206.844C55.0576 206.865 54.3196 206.681 53.671 206.311C53.2847 206.095 52.9505 205.796 52.692 205.437C52.5538 205.252 52.4364 205.053 52.342 204.843C52.0541 204.151 51.92 203.405 51.949 202.657C51.972 201.775 52.081 200.897 52.273 200.035C52.465 199.091 52.719 198.173 52.955 197.247C53.686 195.09 53.861 192.784 53.462 190.542C53.2086 189.432 52.7806 188.37 52.194 187.395C51.9082 186.903 51.587 186.433 51.233 185.988C48.243 182.115 43.278 179.554 40.524 175.498C40.4374 175.387 40.3586 175.27 40.288 175.148L40.228 175.052C40.2479 175.001 40.281 174.956 40.3239 174.923C40.3668 174.889 40.4179 174.867 40.472 174.86L40.708 174.79C40.7654 174.767 40.8275 174.759 40.8887 174.767C40.9499 174.775 41.0081 174.798 41.058 174.834C43.776 178.584 47.981 180.953 51.11 184.248C51.425 184.589 51.74 184.938 52.028 185.306C52.448 185.813 52.833 186.347 53.182 186.906C54.5496 189.217 55.1293 191.91 54.834 194.58C54.694 196.329 53.593 199.135 53.295 201.573C53.1192 202.564 53.1976 203.584 53.523 204.537C53.7 204.996 54.003 205.396 54.397 205.691C54.95 206.084 55.599 206.321 56.277 206.372H56.276Z" fill="#777777"/>
<path d="M56.276 206.372C56.289 206.471 56.289 206.571 56.276 206.67C56.29 206.782 56.2679 206.896 56.2129 206.995C56.1578 207.094 56.0728 207.173 55.97 207.22C55.1983 207.19 54.4354 207.046 53.706 206.792C53.3913 206.692 53.0821 206.575 52.78 206.442C47.212 203.977 42.517 196.232 40.542 191.582C38.392 186.53 37.247 179.948 40.28 175.044C40.335 174.944 40.396 174.847 40.463 174.755C40.507 174.677 40.559 174.607 40.612 174.528C40.664 174.449 40.691 174.528 40.699 174.685C40.735 174.838 40.735 174.996 40.699 175.149C40.648 175.227 40.601 175.309 40.559 175.393C36.529 182.325 40.455 191.128 44.677 196.897C46.696 199.65 49.187 203.016 52.377 204.764L52.692 204.93C52.999 205.09 53.314 205.234 53.636 205.358C53.899 205.463 54.168 205.554 54.441 205.629C54.9826 205.789 55.5386 205.894 56.101 205.944C56.1761 205.983 56.2348 206.048 56.2669 206.126C56.2989 206.204 56.3022 206.292 56.276 206.372ZM32.395 199.17C29.047 201.932 31.625 207.177 31.285 210.865C30.9944 213.876 30.0538 216.789 28.5281 219.401C27.0024 222.014 24.928 224.264 22.448 225.997L23.601 226.18C26.224 218.033 19.711 200.743 32.972 199.37C33.374 199.37 33.374 199.09 32.972 199.073C18.785 198.68 24.869 218.304 22.386 226.058C22.238 226.512 23.356 226.372 23.54 226.241C27.3997 223.552 30.2611 219.661 31.678 215.175C32.3769 212.955 32.6934 210.632 32.614 208.305C32.5 205.305 30.752 201.731 33.357 199.275C33.462 199.161 32.587 199.021 32.395 199.17ZM39.965 221.364C36.573 230.551 36.678 243.61 47.596 247.404C48.016 247.552 49.108 247.22 48.296 246.924C37.334 242.92 38.392 230.542 40.936 221.407C40.8041 221.293 40.638 221.226 40.4639 221.217C40.2898 221.207 40.1175 221.256 39.974 221.355L39.965 221.364Z" fill="#777777"/>
<path d="M39.9481 221.8C48.4621 224.895 50.2101 239.72 47.2901 247.15C47.1241 247.57 48.4441 247.552 48.6011 247.15C50.8041 241.705 49.7381 235.63 48.1641 230.122C47.0101 226.075 44.8511 222.649 40.6291 221.582C40.4811 221.582 39.7551 221.705 39.9481 221.783V221.801V221.8ZM84.073 126.705C84.07 127.164 84.0351 127.622 83.9691 128.077C83.9627 128.11 83.9481 128.141 83.9266 128.167C83.9051 128.193 83.8774 128.213 83.8461 128.226H83.033C83.1382 127.57 83.1206 126.9 82.9811 126.25C82.5351 124.432 80.857 123.899 78.488 124.23C76.9107 124.455 75.4464 125.178 74.309 126.294C73.7057 126.882 73.1934 127.556 72.7891 128.295C72.0727 129.577 71.6965 131.022 71.696 132.491C71.696 135.647 73.3391 138.558 74.3181 141.486C75.4472 144.66 76.055 147.996 76.118 151.364C76.118 157.727 72.8501 162.579 70.4381 168.217C70.0881 169.047 69.7961 169.899 69.5631 170.769C69.5361 170.844 69.513 170.919 69.493 170.997C67.981 176.74 69.493 181.941 72.019 187.527L72.0631 187.64L72.1501 187.823C72.194 187.937 72.247 188.068 72.308 188.208C72.2183 188.339 72.0943 188.444 71.9494 188.51C71.8046 188.577 71.6443 188.602 71.486 188.584C71.416 188.593 71.3461 188.593 71.2761 188.584C71.2094 188.577 71.1452 188.555 71.0891 188.518C71.0329 188.482 70.9862 188.432 70.9531 188.374L70.848 188.147C68.9681 183.977 67.063 179.58 67.404 174.904C67.692 170.935 69.65 167.378 71.39 163.899C73.628 159.449 75.2271 155.157 74.8861 150.044C74.5891 145.35 72.7971 141.302 71.39 136.862C70.358 133.662 70.56 130.664 71.95 128.304C72.3903 127.558 72.9447 126.885 73.5931 126.311C74.611 125.389 75.7983 124.674 77.089 124.205C80.245 122.998 83.4091 122.456 83.9951 125.507C84.0481 125.751 84.077 126 84.0821 126.25C84.0891 126.402 84.086 126.553 84.073 126.705Z" fill="#777777"/>
<path d="M71.862 135.402C71.862 135.481 71.862 135.533 71.801 135.533C71.457 135.569 71.115 135.624 70.778 135.699C66.101 136.801 65.358 141.819 64.152 145.97C63.2571 149.348 61.4413 152.41 58.907 154.816C58.7113 155.003 58.507 155.182 58.295 155.35L58.068 155.533C57.99 155.594 57.868 155.472 57.762 155.297C57.6993 155.195 57.6467 155.087 57.605 154.974C57.5781 154.911 57.5643 154.842 57.5643 154.773C57.5643 154.704 57.5781 154.636 57.605 154.572C59.3971 152.783 60.9222 150.746 62.133 148.522C63.365 146.014 63.723 143.278 64.624 140.656C65.726 137.456 67.806 134.642 71.442 134.536C71.4989 134.556 71.55 134.59 71.5911 134.634C71.6321 134.679 71.662 134.732 71.678 134.79C71.752 134.926 71.802 135.074 71.827 135.227C71.8509 135.282 71.8628 135.342 71.862 135.402Z" fill="#777777"/>
<path d="M67.194 151.416C64.808 153.689 61.67 155.524 58.322 155.35C58.147 155.35 57.963 155.35 57.788 155.297C57.7253 155.195 57.6727 155.086 57.631 154.974C57.818 154.876 58.024 154.816 58.234 154.799C58.467 154.812 58.701 154.812 58.934 154.799C63.453 154.72 67.674 150.664 69.371 146.731C70.883 143.234 70.778 139.406 70.778 135.681V135.192C70.879 135.047 71.0216 134.935 71.1872 134.873C71.3527 134.81 71.5333 134.799 71.705 134.842C71.76 134.852 71.805 134.892 71.818 134.948V135.28C71.8224 135.315 71.8224 135.35 71.818 135.385C72.5 141.206 71.556 147.325 67.194 151.416Z" fill="#777777"/>
<path d="M85.035 152.229C84.92 152.433 84.755 152.605 84.555 152.727C84.5138 152.757 84.4663 152.778 84.4161 152.787C84.3659 152.796 84.3142 152.794 84.265 152.78H84.222C83.9851 152.578 83.7603 152.362 83.549 152.133C81.661 150.113 81.075 147.535 80.927 144.72C80.813 142.308 80.734 140.297 79.047 138.33C77.36 136.364 74.597 135.288 72.142 136.311C72.019 136.372 71.888 136.425 71.766 136.495L71.495 136.643C71.206 136.809 71.276 136.556 71.434 136.293C71.466 136.233 71.504 136.173 71.547 136.119C71.6106 136.014 71.6938 135.922 71.792 135.848C75.288 133.758 79.467 135.848 81.11 139.344C82.037 141.329 81.713 143.278 81.984 145.376C82.1814 147.837 83.2875 150.136 85.087 151.826C85.1202 151.891 85.133 151.964 85.1237 152.036C85.1144 152.108 85.0835 152.175 85.035 152.229Z" fill="#777777"/>
<path d="M85.035 152.229C84.92 152.433 84.755 152.605 84.555 152.727L84.265 152.78C83.1956 152.939 82.1033 152.811 81.0992 152.41C80.0952 152.01 79.2153 151.35 78.549 150.498C75.052 146.268 76.941 139.563 71.783 136.512C71.6776 136.437 71.5666 136.37 71.451 136.312C71.136 136.145 71.364 136.119 71.582 136.145H71.809L72.177 136.294C73.8268 136.978 75.1527 138.266 75.883 139.895C77.491 143.129 77.631 153.077 83.566 152.133L84.161 152.002C84.467 151.997 84.77 152.075 85.035 152.229ZM75.315 154.108C75.325 154.277 75.304 154.446 75.253 154.607C74.9493 155.308 74.4596 155.913 73.837 156.355C71.713 157.955 68.26 157.945 66.093 159.695C63.059 162.15 61.469 165.813 58.628 168.435C58.435 168.619 58.243 168.785 58.042 168.942L57.78 169.161C57.605 169.301 57.535 169.108 57.544 168.846C57.5397 168.765 57.5397 168.683 57.544 168.601C57.564 168.407 57.643 168.224 57.771 168.077C60.691 165.76 62.308 162.413 64.931 159.807C66.0318 158.645 67.35 157.709 68.811 157.054C70.673 156.294 73.121 156.424 74.476 154.913C74.655 154.723 74.806 154.508 74.921 154.274C74.921 154.204 75 154.134 75.035 154.064C75.236 153.654 75.305 153.846 75.315 154.108Z" fill="#777777"/>
<path d="M75.63 154.187C73.829 162.054 66.818 170.358 58.042 168.899C57.876 168.899 57.71 168.846 57.544 168.802C57.5398 168.721 57.5398 168.639 57.544 168.558C57.718 168.455 57.911 168.387 58.112 168.357C58.275 168.365 58.4381 168.365 58.6021 168.357C67.0721 169.038 70.839 162.867 73.812 156.311C74.038 155.821 74.257 155.323 74.476 154.834L74.659 154.397C74.7215 154.303 74.8137 154.232 74.921 154.196C75.038 154.139 75.1611 154.098 75.2881 154.073C75.5071 154.065 75.656 154.083 75.629 154.187H75.63Z" fill="#777777"/>
<path d="M77.561 177.264C77.55 177.064 77.583 176.864 77.657 176.678C77.823 176.434 77.99 176.188 78.173 175.935C80.9 172.002 84.642 166.932 80.647 162.159C79.371 160.639 77.509 159.79 76.277 158.199C75.7462 157.559 75.3558 156.815 75.131 156.014C74.947 155.197 75.0015 154.345 75.288 153.558C75.446 153.094 75.542 153.505 75.542 153.794C75.5473 153.849 75.5473 153.905 75.542 153.96C75.4967 154.217 75.4763 154.477 75.481 154.738C75.568 157.736 79.406 159.108 81.058 161.058C82.1531 162.452 82.7664 164.163 82.806 165.935C83.042 170.131 80.691 173.986 78.094 177.133C77.9946 177.263 77.8898 177.388 77.78 177.509L77.561 177.264Z" fill="#777777"/>
<path d="M75.14 153.514C71.311 161.477 77.002 168.724 77.247 176.818C77.247 177.124 78.121 177.788 78.121 177.483C78.348 173.986 77.421 170.542 76.311 167.281C74.729 162.622 74.003 158.829 75.699 154.056C75.6605 153.923 75.5864 153.803 75.4847 153.709C75.383 153.615 75.2576 153.551 75.122 153.523L75.14 153.514ZM57.605 191.084C60.14 189.24 60.848 186.442 61.224 183.47C61.748 179.318 62.098 171.093 68.217 172.465C68.54 172.535 68.462 171.46 68.217 171.39C64.615 170.516 63.173 172.649 62.097 175.813C60.428 180.533 61.705 186.6 57.369 189.991C57.115 190.192 57.369 191.294 57.657 191.093L57.605 191.083V191.084Z" fill="#777777"/>
<path d="M58.724 190.367C61.888 188.453 66.119 185.847 66.932 181.897C67.072 180.695 67.037 179.479 66.827 178.287C66.626 175.726 67.281 174.196 68.724 172.089C68.846 171.914 67.92 171.529 67.754 171.722C65.402 174.476 65.813 176.486 65.865 179.79C65.945 184.703 61.337 187.517 57.684 189.895C57.43 190.061 58.427 190.542 58.724 190.367ZM79.266 191.608V191.993L78.969 192.08C78.965 192.061 78.965 192.04 78.969 192.02V191.451C78.549 185.061 76.198 180.664 72.334 175.656C71.6204 174.772 70.9721 173.837 70.394 172.858C70.0365 172.228 69.7574 171.556 69.563 170.857C69.4381 170.369 69.3706 169.867 69.362 169.362C69.362 169.178 69.51 168.532 69.598 169.038C70.393 173.733 75.201 177.028 77.177 181.206C78.7018 184.455 79.4184 188.023 79.266 191.608Z" fill="#777777"/>
<path d="M79.248 191.993L78.951 192.08C78.873 192.095 78.793 192.095 78.715 192.08C75.559 191.381 72.771 187.762 71.477 184.904C69.458 180.437 69.274 175.664 69.493 170.83C69.4973 170.787 69.4973 170.743 69.493 170.7L69.712 170.91C69.712 170.76 70.132 171.04 70.14 171.136C70.201 171.687 70.253 172.246 70.315 172.832C71.014 179.685 71.871 188.26 78.89 191.425L79.257 191.573L79.476 191.67C79.668 191.774 79.484 191.906 79.248 191.993ZM71.993 188.13C71.748 188.34 71.513 188.558 71.293 188.776C68.024 191.976 66.923 195.936 67.631 200.542C68.059 203.374 68.864 205.979 68.837 208.812C68.837 209.24 68.837 209.685 68.759 210.096C68.7149 210.199 68.645 210.288 68.5561 210.355C68.4673 210.423 68.3625 210.466 68.252 210.481C67.9854 210.463 67.7328 210.355 67.535 210.175C67.539 210.12 67.539 210.064 67.535 210.009C67.893 205.489 65.682 201.267 66.136 196.809C66.5439 193.355 68.285 190.196 70.988 188.007C71.0137 187.985 71.0432 187.967 71.075 187.955C71.46 187.753 72.474 187.701 71.993 188.129V188.13Z" fill="#777777"/>
<path d="M74.755 200.219C74.633 204.589 71.818 207.657 68.741 210.393C68.594 210.482 68.4196 210.513 68.251 210.481C67.9848 210.463 67.7326 210.355 67.535 210.175C67.5238 210.165 67.5148 210.153 67.5086 210.14C67.5024 210.126 67.4992 210.111 67.4992 210.096C67.4992 210.081 67.5024 210.067 67.5086 210.053C67.5148 210.039 67.5238 210.027 67.535 210.017C67.981 209.624 68.409 209.222 68.837 208.82C71.311 206.407 73.374 203.628 73.462 199.991C73.549 196.355 72.247 192.325 71.294 188.785C71.29 188.724 71.29 188.663 71.294 188.601C71.2357 188.398 71.1804 188.195 71.128 187.99C71.128 187.692 71.809 187.701 72.185 187.893C72.229 188.007 72.281 188.138 72.343 188.278C72.5 188.68 72.693 189.152 72.771 189.476C73.671 192.911 74.851 196.748 74.755 200.219ZM117.09 132.229C115.918 138.156 113.925 144.003 112.316 149.834C108.977 161.888 105.402 173.899 102.308 186.014C101.084 191.143 100.627 196.425 100.953 201.687L101.005 202.491C100.638 202.491 100.262 202.413 99.869 202.386V202.456C100.612 204.729 100.455 207.01 100.446 209.24C100.096 206.564 99.8478 203.875 99.703 201.18V200.472C99.6364 199.194 99.6044 197.915 99.607 196.635C99.607 187.649 103.234 178.584 105.612 170.009C108.217 160.632 110.822 151.25 113.427 141.862C114.607 137.632 116.652 132.92 116.294 128.452C116.263 128.015 116.205 127.58 116.119 127.15C116 126.515 115.806 125.896 115.542 125.306C114.978 124.033 113.976 123.003 112.719 122.404C112.028 122.072 111.285 121.854 110.569 121.582C108.287 121.136 106.198 122.264 104.187 124.205C103.846 124.601 103.587 125.062 103.427 125.559C103.225 126.129 103.07 126.713 102.963 127.308H101.967C102.115 126.704 102.329 126.118 102.605 125.559C104.589 121.565 109.458 119.441 113.724 121.844C115.128 122.615 116.219 123.852 116.809 125.341C117.049 125.921 117.219 126.529 117.316 127.151C117.55 128.844 117.473 130.565 117.089 132.229H117.09Z" fill="#777777"/>
<path d="M104.66 223.846L103.593 223.269C103.611 223.409 103.611 223.549 103.593 223.689C103.533 223.835 103.48 223.984 103.435 224.135L103.33 223.724C102.547 220.774 101.879 217.793 101.329 214.79C101.002 212.964 100.71 211.131 100.455 209.292C100.455 207.062 100.621 204.782 99.878 202.509V202.439C100.111 202.545 100.313 202.711 100.463 202.919C101.337 205.219 101.075 207.29 101.005 209.685C100.884 211.825 101.529 213.939 102.823 215.647C102.955 216.277 103.086 216.897 103.234 217.517C103.624 219.266 104.047 221.014 104.502 222.762C104.58 223.068 104.668 223.365 104.747 223.636C104.748 223.676 104.741 223.714 104.725 223.751C104.71 223.787 104.688 223.819 104.659 223.846H104.66ZM117.01 126.853C116.9 127.018 116.781 127.175 116.652 127.325C116.425 127.612 116.177 127.881 115.909 128.129C112.963 130.944 108.139 131.809 104.738 133.942C100.061 136.871 96.381 140.935 94.851 146.18C94.755 146.469 94.677 146.766 94.607 147.054C94.537 147.343 94.414 147.928 94.336 148.339C94.257 148.75 93.462 147.919 93.531 147.579C93.531 147.5 93.531 147.43 93.575 147.351L93.68 146.801C94.6696 142.351 97.1076 138.354 100.612 135.437C102.996 133.464 105.644 131.834 108.479 130.594C111.319 129.301 114.283 128.584 116.276 125.988C116.503 125.664 117.194 126.6 117.01 126.853Z" fill="#777777"/>
<path d="M94.607 147.08L93.575 147.378L93.68 146.827C93.7178 146.74 93.7782 146.664 93.855 146.608C94.178 146.478 94.502 146.338 94.843 146.215C103.583 142.719 116.373 139.974 115.9 128.147C115.9 127.788 115.9 127.421 115.822 127.037C115.743 126.652 116.416 125.778 116.495 126.224C116.573 126.67 116.608 126.976 116.643 127.343C117.806 139.143 104.056 144.301 94.607 147.08Z" fill="#777777"/>
<path d="M121.748 150.306C121.716 150.47 121.637 150.622 121.521 150.743C121.302 150.9 121.075 150.673 121.215 150.157C121.302 149.834 121.381 149.502 121.469 149.187C122.439 145.446 123.173 142.063 120.857 138.531C120.483 137.977 120.061 137.456 119.597 136.976C119.318 136.678 119.03 136.39 118.724 136.101C117.939 135.376 117.243 134.56 116.652 133.671C116.528 133.479 116.415 133.281 116.312 133.077C116.281 132.889 116.289 132.696 116.335 132.511C116.382 132.326 116.466 132.153 116.582 132.002C116.678 131.906 116.774 131.888 116.844 132.002C117.461 133.159 118.238 134.225 119.152 135.166L119.878 135.953C121.297 137.291 122.332 138.984 122.876 140.857C123.698 144.388 122.622 147.01 121.748 150.306Z" fill="#777777"/>
<path d="M121.495 150.743C121.39 150.857 121.267 150.883 121.18 150.743C120.306 149.161 119.248 147.806 118.33 146.373C118.086 145.979 117.84 145.577 117.614 145.157C117.081 144.223 116.661 143.228 116.364 142.194C115.515 139.025 115.491 135.691 116.294 132.509C116.304 132.414 116.334 132.322 116.382 132.239C116.43 132.156 116.496 132.084 116.574 132.028C116.766 131.932 116.958 132.177 116.854 132.658C116.748 133.138 116.704 133.348 116.644 133.698C116.052 136.955 116.428 140.313 117.727 143.357C117.893 143.75 118.077 144.143 118.287 144.528C118.33 144.607 118.374 144.694 118.427 144.773C119.301 146.337 120.498 147.693 121.442 149.213C121.559 149.388 121.664 149.563 121.757 149.738C121.817 150.095 121.721 150.46 121.495 150.743ZM112.806 145.14H112.404C106.961 145.433 101.724 147.318 97.343 150.56C94.996 152.404 92.9493 154.601 91.276 157.072C90.6508 158.173 89.8129 159.139 88.811 159.912C88.6091 160.045 88.3955 160.159 88.173 160.253H87.281C87.2129 160.174 87.1597 160.082 87.124 159.983C87.072 159.869 87.054 159.781 87.124 159.747C89.563 158.33 90.682 155.76 92.456 153.627C94.9116 150.751 97.9506 148.429 101.372 146.817C104.793 145.204 108.518 144.338 112.299 144.274C112.485 144.334 112.639 144.467 112.727 144.642C112.867 144.869 112.946 145.132 112.806 145.14Z" fill="#777777"/>
<path d="M113.593 144.703C110.9 154.51 97.858 160.629 88.173 160.245H87.281C87.2128 160.165 87.1596 160.073 87.124 159.974H88.811C98.925 159.712 107.483 153.75 112.413 145.201C112.517 145.026 112.623 144.851 112.719 144.668C112.855 144.596 113.007 144.562 113.161 144.568C113.314 144.574 113.463 144.621 113.593 144.703Z" fill="#777777"/>
<path d="M121.976 164.545C121.992 164.667 121.992 164.791 121.976 164.913C121.932 165.131 121.844 165.323 121.757 165.28C121.471 165.141 121.208 164.958 120.979 164.738C120.626 164.404 120.331 164.014 120.105 163.584C119.415 162.002 118.981 160.32 118.82 158.601C118.576 156.796 118.226 155.007 117.771 153.243C117.56 152.541 117.3 151.855 116.993 151.189C116.539 150.185 115.951 149.247 115.245 148.4C114.678 147.808 114.149 147.181 113.663 146.521C113.362 146.053 113.156 145.531 113.059 144.983C113.071 144.813 113.107 144.645 113.164 144.484C113.217 144.344 113.269 144.248 113.313 144.362L113.365 144.502C113.465 144.775 113.592 145.039 113.741 145.288C114.528 146.643 115.848 147.614 116.713 148.951C116.879 149.205 117.028 149.467 117.168 149.729C117.482 150.289 117.751 150.874 117.972 151.477C118.182 152.019 118.357 152.57 118.514 153.129C119.519 156.749 118.916 161.582 121.967 164.292C122.007 164.372 122.009 164.464 121.976 164.545Z" fill="#777777"/>
<path d="M121.976 164.545C122.023 164.619 122.04 164.709 122.022 164.796C122.005 164.882 121.954 164.958 121.882 165.008C121.809 165.058 121.72 165.078 121.633 165.063C121.546 165.049 121.469 165.001 121.416 164.93L120.944 164.738C119.474 164.162 118.056 163.463 116.704 162.648C116.404 162.459 116.112 162.255 115.83 162.037C113.985 160.84 112.597 159.058 111.888 156.976C110.682 153.042 112.666 148.706 112.622 144.738C112.732 144.559 112.942 144.468 113.147 144.51C113.213 144.501 113.281 144.501 113.347 144.51C113.424 144.496 113.503 144.508 113.571 144.544C113.64 144.581 113.694 144.64 113.724 144.712V145.297C113.724 145.711 113.698 146.122 113.645 146.53C113.4 149.292 112.579 152.02 112.771 154.79C112.843 155.979 113.167 157.139 113.72 158.194C114.273 159.249 115.043 160.174 115.979 160.91C116.257 161.161 116.549 161.397 116.853 161.617C117.887 162.352 118.974 163.01 120.105 163.584C120.708 163.934 121.346 164.231 121.975 164.545H121.976ZM83.5751 178.969C88.2951 177.439 89.2401 172.474 91.2501 168.479C95.0791 160.935 102.16 164.441 108.418 161.434C108.715 161.294 108.663 160.166 108.365 160.314C103.628 162.596 97.4301 160.201 93.4001 164.161C89.1081 168.374 89.6601 175.402 83.5931 178.147C83.5302 178.27 83.4974 178.406 83.4974 178.545C83.4974 178.683 83.5302 178.819 83.5931 178.942L83.5751 178.969Z" fill="#777777"/>
<path d="M84.16 179.344C94.939 179.449 104.983 170.892 108.636 161.128C108.82 160.638 108.54 159.921 108.252 160.699C104.432 171.11 94.965 176.923 84.414 178.514C84.2905 178.618 84.203 178.758 84.1639 178.915C84.1248 179.072 84.136 179.237 84.196 179.388L84.161 179.344H84.16Z" fill="#777777"/>
<path d="M125.743 183.733C125.648 183.804 125.545 183.865 125.437 183.916C125.36 183.955 125.277 183.982 125.192 183.995C121.542 184.428 117.852 183.635 114.702 181.74C114.379 181.538 114.073 181.329 113.767 181.11C110.673 178.931 108.45 175.728 107.49 172.068C106.53 168.408 106.896 164.526 108.523 161.11C108.55 161.065 108.589 161.028 108.636 161.005C108.711 160.956 108.794 160.921 108.881 160.9C109.143 160.822 109.441 160.813 109.406 160.9C109.354 161.013 109.31 161.13 109.274 161.25C109.014 161.897 108.795 162.56 108.619 163.234C107.79 166.234 107.85 169.409 108.79 172.376C109.73 175.343 111.511 177.973 113.916 179.948C114.213 180.192 114.528 180.428 114.843 180.647C117.4 182.411 120.417 183.389 123.523 183.462H125.656C126.119 183.365 125.979 183.558 125.743 183.732V183.733Z" fill="#777777"/>
<path d="M125.743 183.733C125.648 183.804 125.545 183.865 125.437 183.916C124.781 183.824 124.135 183.675 123.505 183.47C120.621 182.5 119.178 180.472 116.932 177.736L115.323 175.804C115.026 175.454 114.738 175.096 114.449 174.738C111.669 171.328 109.003 167.561 108.61 163.243C108.54 162.499 108.54 161.75 108.61 161.005C108.606 160.964 108.606 160.923 108.61 160.883C108.647 160.865 108.687 160.855 108.728 160.855C108.769 160.855 108.809 160.865 108.846 160.883C108.926 160.89 109.004 160.916 109.072 160.958C109.141 161.001 109.198 161.059 109.24 161.128V161.241C109.073 165.542 111.198 169.641 113.759 172.981C114.003 173.295 114.249 173.628 114.502 173.969L115.376 175.139C117.998 178.636 121.031 182.552 125.14 183.427H125.236C125.423 183.495 125.595 183.599 125.743 183.733ZM102.631 182.072C102.446 182.182 102.241 182.257 102.028 182.29C92.2471 181.346 86.1181 189.09 83.8461 197.649C83.3561 199.528 83.0761 201.459 82.2381 203.051C82.1233 203.269 81.9947 203.479 81.8531 203.681C81.4651 203.838 81.068 203.972 80.6641 204.082C80.7781 203.934 80.8921 203.776 80.9971 203.61C82.7881 200.865 82.9631 196.617 84.1521 193.776C85.3312 190.871 87.1198 188.254 89.3971 186.101C91.1357 184.442 93.2337 183.208 95.5277 182.494C97.8216 181.78 100.25 181.605 102.622 181.984C102.657 182.019 102.657 182.045 102.632 182.072H102.631Z" fill="#777777"/>
<path d="M103.086 182.238C96.093 189.1 91.46 200.088 81.826 203.706C81.4384 203.863 81.0417 203.997 80.638 204.108L80.341 204.205C80.149 204.257 80.621 203.776 80.743 203.733L80.97 203.636C81.399 203.462 81.844 203.278 82.212 203.076C91.469 198.601 95.219 188.829 102.605 182.098C102.972 181.792 103.619 181.713 103.085 182.238H103.086Z" fill="#777777"/>
<path d="M116.084 205.28C115.347 205.324 114.609 205.324 113.872 205.28C113.512 205.087 113.177 204.849 112.876 204.572C112.727 204.439 112.584 204.299 112.448 204.152C112.085 203.77 111.771 203.344 111.512 202.885C110.718 201.499 110.207 199.969 110.009 198.383C109.003 191.6 109.563 185.874 102.229 182.867C102.346 182.657 102.559 182.517 102.797 182.491C107.5 183.899 109.79 187.587 110.376 192.334C110.716 195.052 110.76 198.322 111.713 200.935C111.927 201.568 112.22 202.17 112.587 202.727C113.106 203.532 113.814 204.198 114.65 204.667C115.1 204.932 115.582 205.137 116.084 205.28Z" fill="#777777"/>
<path d="M117.316 205.175C116.906 205.175 116.495 205.262 116.084 205.28C115.347 205.324 114.609 205.324 113.872 205.28C113.365 205.28 112.858 205.28 112.352 205.175C111.993 205.175 111.643 205.105 111.285 205.044C108.011 204.63 104.973 203.12 102.666 200.76C97.64 195.385 100.918 189.799 101.879 183.566C102.149 183.518 102.423 183.626 102.587 183.846C102.413 187.762 100.184 191.503 100.839 195.463C101.713 200.97 106.372 203.566 111.381 204.371C111.731 204.431 112.089 204.484 112.439 204.519L112.902 204.572C113.497 204.632 114.1 204.659 114.65 204.668C115.201 204.677 115.918 204.668 116.538 204.668C116.783 204.65 117.648 205.14 117.316 205.175ZM99.851 201.031H99.808L98.986 201.145C94.878 201.74 90.472 202.657 88.767 207.028C88.2152 208.714 87.849 210.455 87.675 212.22C87.0965 216.237 86.279 220.215 85.227 224.135C85.14 224.458 85.052 224.781 84.947 225.096C84.597 225.224 84.248 225.338 83.899 225.437L84.109 224.563C84.983 221.066 85.787 217.57 86.364 213.995C86.854 210.935 86.976 207.456 88.986 204.895C91.39 201.783 95.682 200.892 99.476 200.665L100.288 200.621H100.358C100.769 200.647 100 201.014 99.851 201.031Z" fill="#777777"/>
<path d="M100.262 200.647C100.113 200.775 99.9704 200.909 99.8341 201.049C96.4861 204.327 97.5521 209.021 96.4691 213.024C95.9554 214.92 95.128 216.717 94.0211 218.339C91.7599 221.461 88.6055 223.823 84.9741 225.114C84.6241 225.242 84.2741 225.355 83.9241 225.454L83.5581 225.559C83.524 225.398 83.5362 225.231 83.5934 225.076C83.6505 224.921 83.7503 224.786 83.8811 224.685L84.1351 224.589C84.5021 224.449 84.8781 224.309 85.2531 224.152C88.6711 222.701 92.1591 220.498 94.1001 217.36C96.2241 213.916 96.1281 210.288 96.7741 206.495C97.0112 204.545 97.786 202.699 99.0121 201.163C99.1506 201 99.2964 200.842 99.4491 200.691C99.7779 200.375 100.129 200.083 100.499 199.816C100.726 199.624 100.419 200.498 100.262 200.646V200.647Z" fill="#777777"/>
<path d="M115.83 221.469C115.248 221.499 114.665 221.499 114.082 221.469C113.51 221.187 112.976 220.834 112.492 220.419C111.853 219.864 111.358 219.162 111.049 218.374C110.664 217.326 110.497 216.211 110.559 215.096C110.559 214.353 110.559 213.628 110.507 212.928C110.122 207.684 107.535 203.313 101.023 202.518C100.656 202.518 100.28 202.438 99.886 202.413H99.843C99.58 202.413 100.516 201.653 100.717 201.67H101.005C104.904 202.168 109.283 204.44 110.883 208.05C110.927 208.147 110.97 208.243 111.005 208.34C111.486 209.519 111.727 210.781 111.713 212.054C111.713 212.928 111.713 213.802 111.643 214.816C111.556 217.955 112.657 219.493 114.677 220.673C115.069 220.905 115.475 221.116 115.892 221.303C115.882 221.407 115.882 221.469 115.83 221.469Z" fill="#777777"/>
<path d="M115.83 221.469C115.248 221.499 114.665 221.499 114.082 221.469C112.97 221.415 111.865 221.268 110.778 221.031C110.42 220.961 110.061 220.874 109.703 220.778C107.311 220.217 105.091 219.083 103.234 217.474C102.876 217.146 102.549 216.786 102.255 216.399C101.87 215.889 101.541 215.337 101.276 214.755C100.58 213.01 100.282 211.132 100.402 209.257C100.402 207.028 100.568 204.747 99.825 202.474V202.404C100.059 202.51 100.261 202.676 100.411 202.884C101.285 205.184 101.023 207.255 100.953 209.65C100.832 211.79 101.477 213.904 102.771 215.612C104.6 217.718 107.048 219.192 109.764 219.825L110.83 220.096C111.364 220.219 111.897 220.332 112.439 220.42C113.156 220.542 113.872 220.638 114.58 220.7L115.245 220.76C115.487 220.882 115.682 221.082 115.795 221.329C115.883 221.407 115.883 221.469 115.83 221.469ZM111.862 241.993C111.792 242.403 111.722 242.815 111.661 243.217C111.501 243.184 111.343 243.14 111.189 243.086C110.288 242.825 109.422 242.455 108.61 241.984C108.366 241.846 108.129 241.695 107.902 241.53C107.811 241.475 107.723 241.413 107.64 241.346C107.335 241.137 107.043 240.909 106.766 240.664C105.432 239.471 104.358 238.016 103.61 236.39C103.448 236.051 103.302 235.704 103.173 235.35C102.527 233.653 102.172 231.859 102.124 230.044V228.96C102.182 227.16 102.558 225.384 103.234 223.715C103.295 223.549 103.365 223.392 103.435 223.235C103.514 223.068 103.549 223.165 103.549 223.322C103.567 223.461 103.567 223.602 103.549 223.742C103.489 223.888 103.437 224.036 103.392 224.187C102.818 225.746 102.496 227.387 102.439 229.047C102.338 231.293 102.901 233.518 104.056 235.446C104.231 235.752 104.423 236.058 104.633 236.32C105.516 237.543 106.573 238.63 107.771 239.545C108.086 239.79 108.418 240.035 108.759 240.271C109.585 240.818 110.443 241.315 111.329 241.757C111.521 241.827 111.687 241.914 111.862 241.993Z" fill="#777777"/>
<path d="M111.862 241.993C111.792 242.403 111.722 242.815 111.661 243.217C111.501 243.184 111.343 243.14 111.189 243.086C111.233 242.64 111.294 242.212 111.355 241.74C111.792 238.601 112.491 235.507 111.967 232.325C111.732 230.725 111.074 229.216 110.061 227.955C109.762 227.57 109.431 227.21 109.073 226.879C107.735 225.697 106.252 224.689 104.659 223.881L103.593 223.304L103.488 223.252C103.42 223.096 103.404 222.921 103.441 222.755C103.479 222.588 103.569 222.437 103.698 222.325C103.968 222.456 104.24 222.579 104.51 222.719C106.201 223.487 107.785 224.472 109.222 225.647C109.572 225.955 109.904 226.282 110.219 226.626C111.326 227.812 112.109 229.263 112.491 230.839C113.348 234.344 112.509 238.295 111.861 241.993H111.862ZM27.8581 119.274C26.0231 111.346 32.1331 109.476 34.4321 103.497C34.7291 102.736 35.5071 101.6 34.8421 101.302C35.3411 101.521 36.2421 104.948 36.2761 105.079C38.4091 112.483 31.0311 118.444 31.0311 125.9L31.6431 124.843C29.8593 123.294 28.5274 121.291 27.7881 119.047C27.4131 117.972 26.9141 120.027 27.1071 120.594C27.9449 123.053 29.4197 125.246 31.3811 126.949C31.8091 127.334 31.9931 126.005 31.9931 125.892C31.9931 119.502 37.7101 114.878 37.8761 108.54C37.9551 105.472 36.6781 102.212 35.4021 99.4584C35.1321 98.8814 34.7821 99.2484 34.6501 99.6774C33.2871 104.205 29.0901 106.932 27.4211 111.285C26.3721 114.2 26.2382 117.365 27.0371 120.358C27.3431 121.748 28.0161 119.974 27.8581 119.274ZM49.1961 96.9503C45.0261 97.9203 40.8661 100.105 39.4321 104.388C37.6841 109.589 39.9651 115.061 37.8931 120.288C37.7531 120.647 38.0071 121.678 38.5401 121.233C42.6221 117.806 48.4531 115.411 50.6381 110.193C52.3861 106.101 50.8921 101.11 49.5801 97.0804C49.3701 96.4424 48.9071 97.0804 48.9511 97.5094C49.6511 103.059 51.9411 108.226 47.3861 112.929C44.6681 115.734 41.0311 117.517 38.0511 120.026L38.6981 120.97C39.9381 117.823 39.9481 114.59 39.7991 111.25C39.6421 107.753 39.7121 104.09 42.5091 101.512C44.4411 99.7644 47.0631 98.9344 49.3621 97.7884C49.6851 97.6314 49.6071 96.8534 49.1961 96.9494V96.9503Z" fill="#777777"/>
<path d="M64.056 101.766C61.976 102.212 61.836 105.568 61.434 107.212C60.122 112.815 55.674 115.787 50.288 117.325L50.927 118.199C51.451 114.607 51.451 109.904 53.068 106.591C55.28 102.037 59.572 101.014 63.986 102.937C64.458 103.147 64.466 102.185 64.231 101.976C61.041 99.1872 56.364 100.087 53.741 103.243C50.551 107.01 50.656 113.199 49.991 117.823C49.939 118.208 50.105 118.89 50.629 118.698C54.169 117.675 58.497 115.551 60.656 112.395C61.836 110.647 62.15 103.4 64.484 102.998C65.096 102.972 64.65 101.635 64.056 101.766ZM83.89 99.5802C79.66 97.3252 75.498 96.0842 72.526 91.9322C69.781 88.0242 69.476 83.8722 68.741 79.3362C68.654 78.8202 68.138 78.8812 68.051 79.3362C66.442 87.8232 74.292 100.752 83.785 100.096C84.03 100.096 83.986 99.6502 83.785 99.5632L83.89 99.5802Z" fill="#777777"/>
<path d="M85.122 96.8529C84.904 97.7269 84.702 98.6009 84.537 99.4759C84.458 99.7199 84.362 99.9649 84.257 100.21C84.012 100.787 83.637 100.56 83.47 100.157C83.396 99.9507 83.396 99.7251 83.47 99.5189L83.514 99.3969C83.834 98.4699 84.014 97.5009 84.047 96.5209C84.187 89.0649 73.811 86.1009 69.056 80.9179C68.7623 80.5942 68.4852 80.2558 68.226 79.9039C68.1555 79.78 68.1185 79.6399 68.1185 79.4974C68.1185 79.3549 68.1555 79.2148 68.226 79.0909C68.2459 79.0564 68.2746 79.0278 68.3091 79.0079C68.3436 78.988 68.3827 78.9775 68.4225 78.9775C68.4623 78.9775 68.5015 78.988 68.5359 79.0079C68.5704 79.0278 68.5991 79.0564 68.619 79.0909C72.631 84.3359 82.605 87.3949 84.712 93.7409C85.06 94.7389 85.2 95.7989 85.122 96.8529ZM84.205 116.259C84.108 113.269 83.96 110.647 85.035 107.745C85.9717 105.575 87.0342 103.462 88.217 101.416C89.493 98.9069 90.586 96.2589 90.044 93.3999C89.913 92.6919 89.301 93.0159 89.266 93.5839C88.82 101.556 80.76 108.016 83.846 116.416C83.951 116.713 84.213 116.477 84.205 116.259Z" fill="#777777"/>
<path d="M89.5371 93.6886C91.2851 97.5516 94.1961 102.579 93.5141 106.914C92.7361 111.888 87.9641 113.907 83.8991 115.594C83.3571 115.813 83.5401 117.177 84.1791 116.932C88.6541 115.245 93.365 113.103 94.449 107.972C95.463 103.156 92.9291 96.9926 89.7991 93.4086C89.6241 93.2076 89.5021 93.5396 89.5721 93.6886H89.5371Z" fill="#777777"/>
<path d="M67.404 99.4579C73.104 105.148 74.476 117.028 83.864 118.252C84.424 118.322 84.406 117.037 83.864 116.949C74.51 115.455 74.144 103.837 67.736 98.5929C67.316 98.2519 67.176 99.1779 67.439 99.4669L67.404 99.4579Z" fill="#777777"/>
<path d="M67.465 99.6069C73.129 101.04 78.54 104.677 80.83 110.262C81.783 112.579 81.241 116.722 83.776 118.033C84.161 118.234 84.17 117.439 84.047 117.264C82.649 115.236 82.745 112.954 82.063 110.691C81.385 108.63 80.3033 106.725 78.881 105.087C76.0504 101.535 71.9996 99.1642 67.517 98.4349C67.045 98.3749 67.019 99.4929 67.439 99.5979L67.465 99.6069ZM109.781 91.4249C105.935 94.0469 99.781 93.4179 97.168 97.7269C94.554 102.037 96.118 109.091 96.661 113.881C96.661 114.003 96.661 114.126 96.705 114.24C96.748 114.353 96.705 114.44 96.705 114.545C96.765 115.175 97.413 115.184 97.395 114.545C97.542 114.064 97.718 113.591 97.92 113.129C98.094 112.701 98.278 112.255 98.488 111.879C100.385 108.059 103.4 104.886 106.442 101.879C109.257 99.0649 109.939 96.2939 110.332 92.2639C110.385 92.0369 110.227 91.1279 109.782 91.4239L109.781 91.4249ZM106.827 99.8599C105.726 101.058 104.528 102.133 103.453 103.357C100.83 106.46 98.54 108.907 97.333 112.597C96.844 107.351 95.455 99.7549 99.677 96.7919C102.544 94.7819 106.32 94.8339 109.388 93.1559C109.056 95.6379 108.575 97.9549 106.827 99.8599Z" fill="#777777"/>
<path d="M116.73 117.107C112.788 115.673 110.743 112.343 106.294 111.678C103.947 111.32 101.547 111.598 99.344 112.483C98.869 112.663 98.404 112.873 97.954 113.112L97.36 113.444L97.255 113.505L96.975 113.68L96.67 113.872C96.67 113.995 96.67 114.117 96.713 114.231L96.32 114.773C96.3284 114.819 96.3461 114.864 96.372 114.903C96.53 115.157 96.705 115.403 96.879 115.638C101.416 121.757 110.323 122.378 116.477 118.191H116.661C117.124 118.321 117.115 117.247 116.731 117.107H116.73ZM106.67 119.895C104.406 119.738 95.009 116.285 98.645 113.881C101.538 111.976 106.381 112.404 109.345 113.759C111.705 114.834 113.217 117.037 115.533 117.929C112.825 119.412 109.751 120.094 106.67 119.895ZM124.266 122.762H124.091C122.885 119.904 126.084 115.402 125.227 112.185C124.32 109.219 122.534 106.597 120.105 104.668C119.695 104.309 119.231 103.978 118.837 103.671H117.316C117.284 103.87 117.321 104.073 117.421 104.248C117.5 104.371 117.579 104.493 117.649 104.615C120.734 110.017 115.253 122.684 124.169 124.248C124.72 124.231 124.764 122.85 124.266 122.762ZM122.928 122.282C119.012 120.323 119.545 114.904 119.816 110.918C120.006 109.087 119.819 107.237 119.266 105.481C123.409 108.794 125.332 113.199 123.506 118.811C123.021 119.899 122.822 121.094 122.928 122.281V122.282ZM119.738 135.962C119.738 136.547 119.126 136.836 118.96 136.145C118.505 134.24 118.96 133.121 119.3 131.302C119.554 130.07 120.175 128.628 118.61 127.587C118.192 127.364 117.728 127.241 117.255 127.229C116.856 127.206 116.457 127.206 116.058 127.229C114.781 127.229 113.435 127.386 112.684 127.369C109.424 127.299 106.163 127.369 102.902 127.43H101.906C98.566 127.544 95.219 127.727 91.871 127.928H90.673C88.4 128.059 86.119 128.156 83.846 128.208H83.033C79.615 128.287 76.206 128.295 72.788 128.278H71.914C63.68 128.226 55.446 128.077 47.22 128.497C48.0286 131.383 48.3041 134.392 48.033 137.377C47.955 138.347 46.941 137.998 46.941 137.177C46.941 134.17 46.861 130.944 45.751 128.112C45.594 127.692 45.611 126.757 46.241 126.722C55.341 126.242 64.449 126.285 73.558 126.285H74.283C77.168 126.285 80.058 126.27 82.955 126.241H85.096C87.116 126.241 89.126 126.163 91.146 126.093H91.958C93.199 126.049 94.441 125.988 95.682 125.927C97.963 125.813 100.236 125.708 102.517 125.638H103.339C105.02 125.583 106.701 125.554 108.383 125.551C110.35 125.551 113.007 125.288 115.455 125.358C115.892 125.358 116.329 125.358 116.722 125.428C117.717 125.49 118.697 125.696 119.632 126.04C124.117 127.771 119.895 132.631 119.738 135.962Z" fill="#777777"/>
<path d="M48.374 140.332C48.138 139.782 47.884 139.248 47.596 138.724C47.596 138.462 47.517 138.199 47.465 137.946C47.413 137.692 47.395 137.483 47.351 137.246C47.308 137.01 47.596 136.757 47.684 137.098C47.771 137.438 47.814 137.605 47.867 137.858C48.068 138.698 48.234 139.519 48.374 140.332ZM50.402 164.974C50.157 164.86 49.912 164.738 49.659 164.633C49.659 164.266 49.598 163.907 49.58 163.54C49.37 160.918 49.17 158.295 48.96 155.603C48.916 155.061 48.881 154.519 48.829 153.977C49.065 154.117 49.301 154.248 49.545 154.371C49.545 154.895 49.615 155.42 49.659 155.944C49.659 156.189 49.659 156.434 49.712 156.678C49.912 159.073 50.114 161.46 50.306 163.855C50.341 164.222 50.376 164.598 50.402 164.974ZM52.02 185.236C52.08 185.944 52.142 186.643 52.185 187.351C51.8992 186.859 51.578 186.389 51.224 185.944C51.224 185.358 51.136 184.764 51.101 184.196C50.865 181.006 50.638 177.823 50.402 174.633C50.358 174.003 50.306 173.365 50.262 172.736V172.544C50.598 173.008 50.891 173.503 51.136 174.021C51.206 174.825 51.276 175.638 51.337 176.442C51.565 179.371 51.818 182.29 52.019 185.236H52.02ZM108.785 240.253C108.733 240.83 108.671 241.407 108.61 242.002C108.4 244.073 108.173 246.145 107.955 248.217C107.951 248.352 107.902 248.481 107.817 248.586C107.732 248.69 107.614 248.763 107.483 248.794L55.76 249.292C55.6052 249.252 55.47 249.158 55.38 249.026C55.29 248.894 55.2512 248.733 55.271 248.575C55.166 246.495 55.114 244.415 55.096 242.343V240.997V236.233C55.096 234.484 55.096 232.788 55.017 231.066V230.288C54.9448 227.905 54.7817 225.526 54.528 223.156C54.24 220.533 53.828 218.007 53.593 215.411C53.319 212.429 53.0656 209.445 52.833 206.46C52.833 206.119 52.771 205.778 52.745 205.428V205C52.611 203.34 52.483 201.678 52.36 200.017C52.552 199.073 52.806 198.156 53.042 197.229L53.382 201.599C53.2061 202.59 53.2846 203.61 53.61 204.563C53.61 204.86 53.654 205.157 53.689 205.437C53.724 205.717 53.689 206.04 53.759 206.311C53.829 206.582 53.759 206.635 53.759 206.792C53.995 209.712 54.239 212.632 54.51 215.533C54.895 219.615 55.55 223.653 55.883 227.771C55.944 228.558 55.997 229.336 56.049 230.122V231.04C56.136 232.753 56.189 234.461 56.206 236.163V242.395C56.101 244.292 55.629 246.845 57.299 247.805C58.409 248.453 62.159 247.753 63.497 247.736L93.969 247.378L101.582 247.29C102.177 247.29 107.045 247.666 107.045 247.701C107.14 247.301 107.181 246.889 107.168 246.477C107.533 244.895 107.709 243.276 107.692 241.652V241.346C107.692 241.25 107.692 240.953 107.736 240.769C107.78 240.586 107.736 240.524 107.736 240.411C107.736 240.114 107.797 239.825 107.823 239.537C108.112 239.773 108.444 239.983 108.785 240.253ZM110.857 220.079C110.857 220.393 110.795 220.708 110.769 221.023C110.586 222.876 110.393 224.72 110.201 226.573C110.157 227.019 110.114 227.448 110.061 227.92C109.762 227.535 109.431 227.175 109.073 226.844C109.073 226.424 109.153 226.014 109.205 225.594C109.362 223.986 109.528 222.378 109.695 220.769C109.695 220.446 109.747 220.122 109.79 219.808L110.857 220.078V220.079ZM112.413 204.554C112.413 204.773 112.413 204.991 112.351 205.21C112.124 207.5 111.897 209.781 111.661 212.072L111.031 218.348C110.646 217.3 110.479 216.185 110.542 215.07C110.542 214.327 110.542 213.601 110.49 212.902C110.638 211.382 110.795 209.869 110.953 208.357C111.058 207.264 111.171 206.171 111.285 205.079C111.285 204.851 111.329 204.624 111.355 204.406C111.705 204.466 112.063 204.519 112.413 204.554ZM114.825 180.656C114.825 181.014 114.755 181.381 114.712 181.74C113.995 188.733 113.29 195.74 112.596 202.762C112.596 203.234 112.5 203.715 112.448 204.187C112.085 203.805 111.771 203.379 111.512 202.92C111.573 202.264 111.643 201.617 111.713 200.97C112.389 194.344 113.077 187.724 113.776 181.11C113.776 180.726 113.846 180.34 113.899 179.956C114.196 180.201 114.51 180.437 114.825 180.656ZM115.91 160.91C116.187 161.161 116.479 161.397 116.783 161.617C116.74 161.958 116.705 162.307 116.67 162.649C116.22 166.821 115.78 170.991 115.35 175.157C115.35 175.376 115.35 175.594 115.288 175.804C114.991 175.454 114.703 175.096 114.414 174.738L114.493 173.986L114.781 171.276C115.114 168.199 115.437 165.157 115.769 162.036C115.83 161.661 115.874 161.311 115.909 160.909L115.91 160.91ZM118.4 144.773C118.4 145.306 118.34 145.839 118.304 146.373C118.217 148.007 118.138 149.589 117.981 150.979C117.981 151.154 117.981 151.329 117.92 151.503L117.736 153.252C117.525 152.55 117.265 151.864 116.958 151.198L117.115 149.738C117.238 148.663 117.351 147.588 117.474 146.512C117.517 146.075 117.561 145.638 117.587 145.166C117.614 144.694 117.667 143.977 117.701 143.366C117.867 143.759 118.051 144.152 118.261 144.536C118.304 144.606 118.348 144.703 118.401 144.773H118.4ZM119.843 136.014C119.842 136.112 119.824 136.21 119.79 136.302C119.703 136.521 119.624 136.757 119.545 136.993C119.265 136.696 118.977 136.407 118.671 136.119C118.733 135.918 118.802 135.726 118.872 135.542C118.905 135.409 118.986 135.294 119.1 135.219C119.44 134.991 119.834 135.516 119.843 136.014Z" fill="#777777"/>
<path d="M102.465 230.017H102.15C94.283 230.524 86.276 229.887 78.4 230.017C70.944 230.167 63.479 230.892 56.031 230.987H54.983V230.21L56.014 230.061C63.383 228.995 70.979 228.925 78.4 228.698C86.215 228.462 94.406 227.928 102.185 228.898H102.474C102.45 229.271 102.447 229.645 102.465 230.018V230.017ZM104.66 236.302L103.636 236.39C95.559 237.054 87.238 236.722 79.161 236.827C71.512 236.932 63.855 237.054 56.206 236.949H55.08V236.233C55.453 236.233 55.829 236.215 56.207 236.18C63.838 235.857 71.478 235.752 79.127 235.638C87.09 235.524 95.246 234.974 103.217 235.368L104.092 235.411C104.267 235.699 104.45 236.005 104.66 236.302ZM107.71 241.643H107.622C98.602 242.299 89.397 241.565 80.35 241.643C72.483 241.696 64.09 242.85 56.136 242.403L55.096 242.333V240.988C55.455 240.918 55.822 240.865 56.189 240.822C64.056 239.729 72.579 240.42 80.332 240.323C89.362 240.21 98.689 239.624 107.701 240.778C108.068 240.857 108.111 241.618 107.71 241.643ZM67.36 99.5543C67.836 99.9793 68.28 100.438 68.689 100.927C69.082 101.46 69.406 101.067 69.344 100.839C69.0897 100.318 68.7976 99.8154 68.47 99.3363C68.1112 99.276 67.7449 99.276 67.386 99.3363V99.5893L67.36 99.5543ZM119.274 74.6943C119.441 74.8953 119.72 75.3503 119.51 75.5683C119.428 75.6169 119.335 75.6461 119.24 75.6537C119.145 75.6614 119.049 75.6472 118.96 75.6123L119.274 74.6943ZM90 93.2263C90.272 93.7993 90.581 94.3543 90.927 94.8863C91.189 95.2713 91.285 95.6563 90.822 95.3933C90.322 95.0583 89.857 94.6743 89.432 94.2483C89.3787 94.1032 89.3549 93.9488 89.362 93.7943C89.562 93.5903 89.775 93.4003 90 93.2263ZM83.488 178.733C83.488 179.073 83.365 179.545 85.288 179.344C87.212 179.144 86.46 178.584 86.46 178.584L83.916 178.505L83.488 178.733ZM57.526 191.11C58.202 190.752 58.8535 190.349 59.476 189.904C59.6283 189.838 59.7584 189.729 59.8512 189.592C59.944 189.454 59.9957 189.292 60 189.126L58.252 190.044L57.526 191.11ZM72.142 187.85C72.112 187.79 72.085 187.729 72.062 187.666L72.142 187.85ZM40.087 155.83C40.5862 157.194 41.291 158.474 42.177 159.624C42.911 160.28 40.612 159.694 40.612 159.694L39.458 157.316L40.088 155.83H40.087ZM40.935 220.149C41.4917 221.106 42.2279 221.945 43.103 222.622C43.829 223.103 42.229 222.701 42.229 222.701L40.481 221.748L40.935 220.148V220.149ZM12.483 152.806C12.489 153.038 12.54 153.266 12.631 153.479C12.886 153.269 13.128 153.044 13.357 152.806C13.531 152.649 13.357 152.552 13.357 152.552L12.745 152.64L12.483 152.806Z" fill="#777777"/>
</svg>
