<svg width="730" height="792" viewBox="0 0 730 792" fill="none" xmlns="http://www.w3.org/2000/svg">
<g clip-path="url(#clip0)">
<path fill-rule="evenodd" clip-rule="evenodd" d="M486.88 521.651H523.727C526.145 528.313 526.106 535.098 525.382 542.388C512.676 543.628 500.175 544.923 486.88 544.039V521.651ZM402.423 585.438V587.291C408.25 587.61 414.037 587.053 419.847 587.143C431.733 587.327 443.624 587.26 455.513 587.22C456.798 587.215 458.081 586.707 459.365 586.432C453.535 586.233 447.855 585.914 442.178 585.945C436.557 585.974 430.933 586.089 425.318 585.913C419.587 585.733 413.786 586.693 408.03 585.308V565.778H426.368C432.205 565.778 438.09 565.284 443.864 565.917C449.788 566.563 455.699 565.087 461.656 566.052C464.148 572.974 464.032 579.81 462.298 587.926C466.052 583.857 464.356 580.094 464.647 576.753C464.951 573.28 464.715 569.756 464.715 565.797C484.564 565.797 503.762 565.646 522.956 565.84C542.074 566.032 561.189 566.572 580.306 566.957C574.144 565.42 567.949 564.727 561.753 564.693C527.17 564.51 492.585 564.485 458.001 564.407C455.896 564.402 453.792 564.406 451.34 564.406C449.935 557.85 450.403 551.965 450.885 545.528H458.251C482.638 545.527 507.034 546.062 531.384 544.112C532.877 543.993 534.805 544.77 535.975 542.253C532.83 541.679 529.813 544.319 527.285 541.935L526.229 521.342C532.523 521.342 538.739 521.169 544.941 521.391C551.25 521.614 557.548 522.226 563.852 522.668C559.908 521.178 555.901 520.295 551.874 520.18C542.371 519.905 532.863 519.834 523.357 519.968C497.252 520.337 471.13 519.01 445.042 521.22C437.737 521.839 430.345 521.253 423.009 521.605C416.154 521.935 409.31 522.556 402.423 523.13V524.735C410.068 524.297 417.774 523.727 425.548 523.997L427.309 540.208C429.865 534.518 426.99 528.895 427.446 522.66C431.775 522.66 435.83 522.766 439.88 522.639C452.153 522.256 464.424 521.772 476.695 521.357C478.846 521.284 481.001 521.346 483.375 521.346C485.699 528.563 485.688 535.832 485.22 543.605C483.778 543.843 482.369 544.272 480.959 544.276C470.154 544.304 459.283 545.026 448.562 544.022C434.976 542.752 421.377 543.793 407.853 542.759C406.044 542.622 404.234 542.498 402.423 542.388V543.711C406.778 544.067 411.09 544.392 415.411 544.306C426.348 544.09 437.306 544.941 448.758 545.34V564.299C437.945 564.358 427.005 564.702 416.083 564.397C411.55 564.268 407.013 564.355 402.423 564.436V566.198H406.07V584.841C405.345 585.064 404.08 585.265 402.424 585.438H402.423ZM444.24 49.895L444.332 49.7541L444.292 49.5607C444.268 49.5942 444.244 49.6279 444.221 49.6618L444.24 49.895ZM242.037 54.4196H243.981V42.7583C242.936 44.523 242.772 46.4394 242.553 48.3489C242.317 50.4178 243.049 52.6831 242.037 54.4196ZM729.823 583.84V584.462C729.862 584.277 729.872 584.077 729.823 583.84Z" fill="#BFBFBF"/>
<path fill-rule="evenodd" clip-rule="evenodd" d="M722.733 612.778C723.262 612.463 723.612 612.078 723.975 612.064C725.941 611.981 727.906 611.908 729.873 611.826L729.869 609.494C725.767 609.452 721.63 609.391 717.372 609.345C717.372 603.961 712.957 589.05 718.741 586.955C722.389 585.633 727.853 586.448 729.425 585.137C729.581 584.699 729.717 584.266 729.823 583.84C718.834 584.313 708.228 584.771 698.231 585.201C694.224 581.571 696.024 577.201 693.949 573.814V584.925H662.735V586.246C671.207 586.246 679.678 586.236 688.15 586.25C696.867 586.265 705.585 586.303 714.832 586.332C714.832 590.697 715.152 594.316 714.745 597.842C714.313 601.584 717.007 605.186 714.97 609.448C709.435 609.448 703.884 609.453 698.334 609.447C692.959 609.442 687.583 609.422 682.208 609.417C676.619 609.411 671.022 609.25 665.439 609.465C660.068 609.674 654.584 608.696 649.328 610.784C670.806 610.455 692.259 610.162 714.159 611.722C714.227 611.783 714.437 611.962 714.657 612.146C715.138 612.543 715.622 612.935 716.069 613.3C716.53 612.96 717.001 612.791 717.166 612.455C717.442 611.894 717.523 611.227 717.777 610.257C721.545 616.389 722.063 622.234 719.998 629.705C714.76 629.279 709.435 628.847 704.109 628.413C712.502 631.588 721.193 630.744 729.906 630.932L729.904 629.616C727.525 629.628 725.136 629.732 722.732 629.998V612.778H722.733Z" fill="#BFBFBF"/>
<path fill-rule="evenodd" clip-rule="evenodd" d="M729.427 585.137C729.64 584.96 729.769 584.732 729.825 584.463L729.823 583.84C729.718 584.266 729.582 584.699 729.426 585.138L729.427 585.137ZM708.783 158.82C710.104 159.905 711.603 160.944 713.109 160.955C718.533 160.993 723.962 161.016 729.387 160.924V158.98C726.271 159.204 723.156 159.416 720.04 159.59C716.31 159.797 712.536 159.103 708.783 158.82ZM667.505 224.96L666.461 219.979L664.13 224.643C648.757 224.726 633.433 224.77 618.041 224.634V205.456C622 204.174 651.946 203.621 662.568 204.633L664.863 217.116C667.223 212.961 663.525 209.08 664.656 205.215C669.362 203.905 696.196 203.751 705.346 204.998V223.42L667.505 224.96ZM598.898 202.697V186.604L634.554 185.348V202.697H598.897H598.898ZM677.109 183.635V201.224C676.114 201.446 675.136 201.818 674.147 201.859C664.563 202.261 654.978 202.63 645.391 202.955C642.669 203.048 639.94 202.97 637.226 202.97C635.023 197.054 636.501 191.723 635.963 185.709L677.108 183.635H677.109ZM679.008 184.815C679.523 184.622 680.277 184.111 681.05 184.08C693.018 183.611 704.989 183.198 716.958 182.788C718.442 182.737 719.927 182.781 721.308 182.781C722.788 187.786 722.97 193.978 721.86 203.102C707.46 202.92 693.391 203.675 679.008 201.325V184.815ZM729.42 248.985L718.368 248.937C718.368 248.937 688.364 249.423 686.582 247.318C684.8 245.212 685.772 226.425 685.772 226.425L729.405 225.001V223.657C719.164 223.532 710.173 223.307 707.334 222.813V204.258C710.985 204.373 728.38 204.114 728.38 204.114L729.392 204.124V203.118C727.614 203.138 725.832 203.15 724.039 203.141V183.073C725.822 182.986 727.606 182.922 729.388 182.867V181.615C726.754 181.353 724.149 181.372 721.55 181.256C717.609 181.081 713.736 183.064 709.809 180.768C708.834 175.215 710.117 166.731 708.251 161.502C705.547 167.942 710.094 174.614 707.541 180.988C699.935 181.559 692.501 182.313 685.05 182.635C671.129 183.241 657.199 183.754 643.269 184.01C629.082 184.277 614.893 184.333 600.704 184.179C593.012 184.093 585.33 183.194 577.635 183.004C574.571 182.926 571.488 183.765 568.413 184.189L568.488 185.658C575.919 183.299 583.218 185.878 590.597 185.586C592.257 185.519 593.929 185.815 595.445 185.932C597.976 193.668 597.943 196.833 595.374 202.446C594.789 202.288 594.198 202.029 593.591 201.989C592.927 201.945 592.25 202.103 591.579 202.174C599.541 205.913 608.038 203.208 616.373 204.836C616.817 211.586 616.985 217.969 616.282 224.886H588.9L588.906 226.124H683.731C683.731 230.343 683.582 233.921 683.773 237.479C683.971 241.173 684.498 244.849 684.949 249.175H644.612C646.48 250.331 648.343 250.306 650.206 250.334C676.607 250.733 703.009 250.62 729.412 250.467L729.42 248.986V248.985ZM701.206 334.052C685.909 335.576 670.434 332.916 654.25 333.129C653.735 324.577 654.095 316.379 653.957 307.664H701.13C701.874 314.102 702.717 319.837 703.12 325.605C703.315 328.368 704.083 331.524 701.205 334.052H701.206ZM652.638 320.278C652.806 324.282 652.674 328.299 652.674 332.793H608.427L609.116 307.664H652.012C653.473 311.84 652.463 316.114 652.638 320.278ZM605.895 331.656H552.793C550.754 323.68 554.739 316.136 553.102 308.638C558.195 307.134 598.796 306.764 607.691 308.088C606.782 316.086 609.358 323.962 605.895 331.656ZM551.145 331.515H506.786C504.91 325.713 505.128 319.229 507.682 308.65H551.677C552.432 315.948 549.863 323.489 551.145 331.516V331.515ZM478.867 306.832V288.431H532.377L531.237 306.832H478.866H478.867ZM504.694 330.681C499.589 332.185 467.975 332.573 458.548 331.403C455.444 324.435 456.672 317.05 456.711 309.382C464.997 307.677 473.054 309.072 481.037 308.714C488.932 308.359 496.852 308.636 504.694 308.636V330.681ZM437.634 306.188C437.082 299.998 436.533 293.851 435.929 287.075C449.829 286.894 463.012 286.952 476.729 287.221C477.753 294.025 477.291 300.204 477.104 306.307C471.152 307.92 441.964 307.762 437.635 306.188H437.634ZM407.932 285.13V268.802C410.048 268.54 411.882 268.154 413.723 268.113C419.941 267.978 426.163 268.071 432.377 267.867C435.771 267.755 439.149 267.16 442.541 266.905C444.402 266.765 446.279 266.88 448.554 266.88V284.689C444.477 285.807 416.238 286.175 407.932 285.13ZM450.531 267.672C455.132 266.509 486.233 266.164 494.188 267.309C493.457 273.954 495.337 280.42 493.117 286.12L450.531 285.455V267.672ZM495.618 266.983H553.176C553.189 273.741 554.444 280.164 551.936 286.736H495.617V266.983H495.618ZM576.341 289.183V305.344C571.619 306.866 566.897 305.88 562.272 306.09C557.553 306.304 552.82 306.171 548.093 306.179C543.42 306.187 538.748 306.18 533.749 306.18C531.224 300.626 533.875 295.022 534.308 289.402C538.924 288.059 568.909 287.855 576.341 289.183ZM554.672 276.776C554.58 273.67 554.652 270.558 554.652 267.025H603.194L605.967 273.335V266.337L648.034 264.296V286.013C643.728 288.205 638.974 286.55 634.405 286.893C629.708 287.246 624.97 286.997 620.249 287.004C615.583 287.009 610.917 287.004 606.873 287.004C603.425 282.853 606.402 278.981 605.772 274.148C602.435 278.488 605.018 282.777 603.161 286.616H555.107C554.05 283.431 554.767 280.061 554.672 276.776ZM704.245 333.684C705.23 324.498 701.759 315.566 703.637 305.99C707.9 305.99 711.744 306.006 715.591 305.986C720.211 305.965 724.832 305.918 729.452 305.845L729.459 304.238C727.223 304.834 724.049 304.016 721.886 302.914V291.676C724.167 291.763 727.315 291.882 729.441 291.979L729.289 290.578C726.448 290.44 724.223 290.238 722.937 289.965C722.619 289.073 719.37 289.493 718.128 290.728L720.786 291.951V304.825C706.594 303.543 692.876 306.723 678.356 305.662V283.904L677.086 283.933V305.17C669.926 306.394 583.026 306.307 578.048 305.103C577.977 299.67 577.251 294.155 578.489 288.685H635.913V303.632L637.011 303.643L637.403 288.262H650.873C648.258 278.097 648.294 274.647 650.961 264.485C654.797 263.903 658.589 263.344 662.375 262.746C665.911 262.188 669.711 263.422 673.005 261.146C660.244 261.781 647.55 263.078 634.827 263.884C623.063 264.628 611.271 265.177 599.488 265.233C565.528 265.392 531.567 265.009 497.609 265.328C475.522 265.535 453.419 264.405 431.33 266.552C421.75 267.482 412.098 267.636 402.455 267.807V269.384H405.981V285.8H402.455V286.668C413.067 287.129 423.664 286.668 434.107 287.243C434.704 291.095 435.215 294.166 435.65 297.25C436.112 300.517 436.839 303.813 435.362 307.34C424.364 307.365 413.445 307.51 402.455 307.448V308.717C409.57 308.702 416.685 308.7 423.801 308.731C434.235 308.775 444.68 308.542 454.565 308.782L455.844 331.576C444.481 332.108 432.976 332.657 421.47 333.176C419.817 333.252 418.159 333.187 416.504 333.187L416.52 334.484H494.51C496.816 338.133 492.308 341.79 495.99 345.446C496.388 341.395 496.728 337.973 497.101 334.195H522.733L524.321 344.206L525.256 344.104V333.429C527.08 333.296 528.335 333.094 529.585 333.129C553.387 333.804 577.184 332.471 601.017 333.969C623.417 335.378 645.915 334.495 668.379 335.366C688.726 336.153 709.116 336.189 729.478 335.184L729.477 333.277C727.976 333.243 726.849 333.245 725.722 333.239C718.753 333.194 711.819 335.703 704.245 333.684ZM605.803 118.807C604.466 115.126 605.353 111.41 605.069 107.129H624.085V118.807H605.803ZM625.888 107.69C629.31 105.867 632.99 107.104 636.512 106.864C639.904 106.631 643.321 106.813 646.878 106.813C648.283 110.533 647.773 114.006 647.163 118.285C640.324 119.934 633.403 118.616 625.888 119.176V107.69ZM638.315 137.169V144.704H621.253L621.996 135.358C624.999 135.519 627.702 135.553 630.381 135.844C632.889 136.116 635.371 136.664 638.315 137.169ZM615.681 132.086L613.984 120.807H633.159V133.981C627.171 133.895 621.49 134.688 615.681 132.086ZM442.268 134.147V144.569H423.372C420.907 141.294 422.069 138.003 422.173 134.136C428.981 133.619 435.466 133.794 442.268 134.147ZM567.138 79.9133H580.148L580.542 87.36C575.777 88.7497 571.442 88.0335 566.785 87.741C566.348 84.8519 565.774 82.3311 567.138 79.9133ZM667.017 135.986C671.951 134.211 676.763 135.584 681.977 135.131V142.956C677.133 144.889 672.161 145.973 667.017 143.425V135.986ZM583.475 150.206L583.438 148.865C569.289 149.303 555.13 151.354 541.096 149.771L539.311 142.599L538.323 142.766V149.947H520.597C520.059 147.874 519.528 145.829 518.999 143.784L518.276 144.071V153.097C511.005 152.524 504.242 155.802 496.868 153.682V140.344C506.576 140.541 516.127 141.347 525.687 139.664C529.102 139.064 532.92 138.453 535.961 141.384C538.317 138.17 541.179 139.235 544.126 139.687L544.821 147.231L547.416 138.133C552.245 138.133 556.325 138.037 560.4 138.159C564.39 138.278 568.448 137.385 572.147 138.512L574.154 146.831L575.226 146.576C574.623 142.956 574.021 139.333 573.392 135.554C568.692 136.896 564.343 137.49 560.063 136.054V131.445C567.498 131.604 574.71 130.013 582.07 133.45V145.229C584.026 140.305 581.85 136.204 584.225 132.533C591.008 132.816 597.88 131.903 604.822 134.565L606.867 143.928L607.644 143.776C607.408 140.732 607.173 137.688 606.939 134.653C612.767 133.65 614.861 133.865 619.775 135.965C619.779 139.454 619.779 142.945 619.779 147.31C626.89 147.159 633.603 147.839 640.65 146.676V136.464C649.083 137.857 657.006 134.525 664.592 135.609C666.7 138.304 664.309 141.598 666.921 143.442L667.655 146.193H675.559L676.692 151.508L677.92 146.62L683.422 144.438V134.848C678.743 132.166 674.01 132.705 669.333 133.021C665.716 133.264 662.111 133.725 658.502 134.097C655.955 134.36 653.413 134.657 650.867 134.899C645.578 135.4 640.289 135.828 635.051 134.61V120.651C641.501 120.453 647.581 119.751 653.452 120.729C655.001 124.2 653.177 127.991 656.283 130.622C656.04 127.426 655.799 124.231 655.495 120.222H682.632V131.755L683.419 131.675V118.329C681.759 117.937 680.373 117.612 678.459 117.163L679.424 107.761C686.334 109.52 692.465 106.799 699.633 107.119L697.674 117.893H685.735C692.365 119.186 699.186 118.569 705.573 121.458C705.151 125.527 704.743 129.466 704.367 133.072L729.392 134.929V133.211C729.152 133.116 728.91 133.027 728.666 132.944V121.491L727.884 121.522L727.378 132.548C720.013 132.677 713.036 133.378 706.123 130.684L707.361 120.519C713.123 122.289 718.581 121.764 724.046 120.976C716.044 120.16 708.043 119.345 699.825 118.509L700.959 105.87C707.982 110.094 715.731 106.118 722.182 110.563L722.681 116.763L723.358 116.737V107.784C715.571 107.042 707.964 105.817 700.346 105.732C692.517 105.644 684.677 106.666 677.005 107.193V118.161C667.459 120.468 658.303 118.115 648.942 117.989L649.394 107.237C658.569 105.442 667.905 108.54 676.27 105.62V96.3062L688.286 94.1596C684.845 93.1897 681.576 93.8778 678.185 94.3947C674.76 94.9195 671.152 94.1236 666.054 93.8117L674.339 96.9243V104.111C671.202 106.112 668.058 105.45 664.887 105.141C661.278 104.785 657.64 104.542 654.019 104.596C650.833 104.645 647.649 105.492 644.473 105.434C626.898 105.114 609.304 106.505 591.736 104.428C583.238 103.424 574.634 103.448 566.094 102.767C561.894 102.43 557.735 101.548 553.234 100.866C553.836 96.8835 550.692 93.3579 553.395 88.9936C562.95 89.3532 572.719 89.7185 582.316 90.0781L581.839 80.4021L587.96 78.9541L587.719 78.3526L546.371 76.926C552.332 79.2175 558.582 77.5169 564.716 79.096C565.013 82.2562 565.794 85.087 563.914 88.2609C552.2 87.2405 540.39 85.4767 528.515 88.0228H550.571V100.37L517.89 99.3469L516.91 90.3521L516.327 90.4075L515.846 99.8017C506.511 100.362 497.586 101.305 488.658 101.337C476.665 101.379 464.668 100.372 452.676 100.431C435.935 100.513 419.195 100.756 402.455 101.014V102.727C407.925 102.914 413.482 101.794 419.083 103.446C419.051 107.927 419.892 112.124 418.701 116.026H402.455V118.484C410.617 118.647 418.78 118.807 426.943 118.976C429.003 119.019 431.061 119.213 433.436 119.357C432.873 124.214 435.072 128.871 431.068 132.724C428.918 132.318 426.848 131.775 424.748 131.571C422.615 131.365 420.452 131.485 418.303 131.477C415.938 131.468 413.568 131.383 411.21 131.506C409.271 131.608 407.104 130.846 404.547 132.983C410.383 134.423 415.405 133.37 420.207 133.731V144.878C414.262 144.779 408.346 144.703 402.455 144.706V146.089C415.862 146.108 429.271 146.129 442.679 146.147C446.552 146.152 450.305 145.658 453.534 142.961L443.72 144.766L444.394 133.992H485.451L485.475 132.6H470.611V119.988L469.775 120.032C469.6 124.008 469.425 127.982 469.259 131.821C462.602 133.04 439.787 132.853 435.011 131.614V119.607L483.019 116.426C478.28 114.444 473.717 115.953 469.092 116.212C455.821 116.951 442.526 117.246 429.237 117.573C426.579 117.638 423.905 117.063 420.941 116.752V102.727C456.706 102.319 492.034 103.364 527.17 102.038C528.656 106.396 526.304 110.963 530.316 115.679C529.771 110.229 527.476 106.027 530.163 102.097C544.495 99.7939 558.248 104.342 571.852 104.507C573.826 107.428 571.569 111.088 575.175 113.348C574.976 111.817 574.825 110.783 574.711 109.743C574.578 108.513 574.477 107.28 574.342 105.843C584.473 104.536 593.849 107.134 603.608 106.978C603.643 111.408 604.48 115.127 603.219 118.788H592.573C593.654 119.629 594.736 120.47 595.817 121.31L596.416 129.131L597.06 129.132L597.743 120.746H612.444C612.94 124.716 613.396 128.359 613.931 132.63C595.107 131.864 576.871 129.259 558.187 130.155C557.905 132.596 557.69 134.472 557.423 136.802C553.865 136.802 550.234 136.676 546.614 136.839C543.082 136.999 539.561 137.456 535.399 137.842L535.911 129.41C535.551 129.386 535.191 129.361 534.831 129.334L533.571 138.304C521.053 136.459 508.83 141.549 495.625 138.039C494.292 144.186 495.779 150.208 495.577 155.758H518.798C520.878 151.573 524.551 151.575 528.274 151.574C540.527 151.574 552.781 151.652 565.031 151.431C571.184 151.322 577.327 150.635 583.476 150.207L583.475 150.206ZM725.188 554.386L729.773 553.873L729.771 552.595C721.955 552.609 714.136 552.566 706.321 552.634C697.304 552.715 688.401 551.96 679.524 550.156C676.497 549.54 672.903 548.703 670.145 551.925C674.871 550.518 679.363 550.678 683.766 553.32L682.397 563.876L683.277 564.048L685.644 553.339L722.097 554.15L723.429 569.715C720.213 570.261 716.885 571.358 713.582 571.284C705.028 571.091 696.393 571.016 687.96 569.7C679.748 568.421 671.846 568.718 663.879 570.907C665.924 571.227 668.121 571.74 669.995 571.14C678.607 568.383 687.06 571.446 695.514 571.947C703.869 572.443 712.103 573.191 720.438 571.902C723.515 571.427 726.625 571.177 729.801 570.934L729.798 569.097C729.347 569.269 726.953 569.571 725.534 569.801C723.803 557.998 723.803 557.998 725.188 554.386H725.188ZM707.195 658.22C703.822 658.074 700.442 658.109 696.454 658.053V633.288C695.302 638.666 694.687 643.991 694.265 649.332C693.997 652.718 694.279 656.065 696.297 659.029C703.353 659.559 710.372 660.515 717.394 660.537C721.583 660.549 725.773 660.571 729.962 660.592L729.96 659.3C722.371 658.948 714.784 658.545 707.195 658.22ZM729.543 393.93L729.541 393.075C729.481 393.075 729.421 393.072 729.36 393.073L728.999 393.928L729.543 393.929V393.93ZM719.342 64.8964C722.707 64.7049 726.096 64.9129 729.445 64.5271V64.2365C717.311 62.8663 710.191 63.2852 705.948 65.3521L705.129 73.9757H726.513C726.609 73.6162 726.702 73.2566 726.795 72.897H707.209V66.3434C711.233 63.8974 715.381 65.1209 719.342 64.8954" fill="#BFBFBF"/>
<path fill-rule="evenodd" clip-rule="evenodd" d="M729.388 147.516C715.023 147.441 700.961 145.618 686.843 145.446C697.836 146.994 708.855 148.497 719.892 148.653C723.058 148.7 726.223 148.735 729.389 148.763V147.516H729.388ZM729.425 82.6595C720.074 81.5517 710.702 80.9638 701.27 81.2922C699.86 81.3408 698.457 81.6498 697.051 81.8374C697.079 82.3369 697.104 82.8344 697.132 83.3339C697.889 83.2484 698.644 83.1027 699.402 83.0861C705.392 82.9598 711.402 82.4934 717.369 82.8403C721.396 83.0735 725.41 83.5419 729.423 84.0365L729.425 82.6595ZM430.92 433.614H468.294C467.776 439.454 469.631 445.048 466.493 450.665H431.815C429.839 444.975 431.28 439.463 430.921 433.614H430.92ZM464.185 476.693L466.109 497.084C461.155 498.646 421.876 499.098 412.399 497.902C411.107 491.968 411.217 481.557 412.688 476.693H464.185ZM517.433 460.82C519.077 460.656 520.524 460.261 521.918 460.416C527.395 461.026 532.853 461.821 538.321 462.518C539.803 462.708 541.315 463.027 542.783 462.898C549.996 462.264 557.189 461.271 564.413 460.851C570.351 460.504 576.321 460.781 582.917 460.781V472.403C574.835 472.962 567.032 472.79 558.815 472.526L558.278 463.682L557.716 463.68C557.327 466.466 556.938 469.251 556.458 472.666C551.547 472.666 547.089 472.569 542.636 472.689C536.263 472.86 529.838 471.86 523.531 473.85C521.973 474.341 520.155 473.923 518.312 473.923C516.624 469.557 517.381 465.376 517.433 460.82ZM633.045 456.258H606.34C603.837 451.679 605.155 446.84 605.044 441.958C610.958 441.325 616.418 440.52 621.904 440.219C627.205 439.927 632.533 440.156 638.283 440.156V455.852L635.3 456.35L634.318 449.154C634.145 449.135 633.973 449.115 633.8 449.094C633.577 451.227 633.35 453.36 633.045 456.258ZM654.099 484.163C653.958 481.04 654.068 477.905 654.068 474.06C667.317 473.635 680.284 473.86 693.934 473.792V493.38C687.539 495.486 680.986 493.566 674.542 494.099C668.143 494.63 661.673 494.216 655.175 494.216C653.353 490.868 654.244 487.437 654.098 484.163H654.099ZM725.984 496L727.169 507.671C711.157 507.166 695.298 510.227 678.917 508.929V496.527C683.052 495.358 716.668 494.938 725.984 496ZM402.454 415.62V417.22C402.756 417.225 403.059 417.229 403.362 417.229V430.864C403.065 430.947 402.761 431.007 402.454 431.042V433.191C412.168 432.983 423.97 433.153 429.517 433.762C429.544 436.477 429.582 439.309 429.597 442.143C429.61 444.801 429.6 447.459 429.6 450.529H402.454V452.543H448.655C449.668 460.016 448.747 467.121 449.052 474.966C446.158 475.071 443.671 475.224 441.182 475.239C428.274 475.317 415.36 475.214 402.454 475.444V477.201C405.036 477.06 407.654 476.914 410.334 476.783C410.334 480.924 410.444 484.281 410.305 487.628C410.157 491.131 411.028 494.761 409.653 497.917C407.24 498.007 404.85 498.102 402.454 498.195V500.039H439.289C440.949 505.598 438.399 511.601 442.63 517.961C441.376 511.028 440.341 505.577 441.817 499.674H448.443C456.971 499.679 465.504 499.549 474.03 499.729C482.588 499.91 491.139 500.577 499.698 500.714C510.446 500.887 521.198 500.753 531.948 500.685C532.58 500.68 533.208 500.075 533.838 499.749L533.614 498.477H466.901C466.901 494.174 466.823 490.611 466.922 487.055C467.017 483.616 464.208 480.226 466.524 476.898H498.142V493.241L499.332 493.198V476.617C511.785 473.845 523.898 475.971 536.286 475.257C537.53 485.065 533.836 494.096 536.046 504.265C539.024 499.13 535.662 494.553 537.396 490.113C539.099 485.751 537.075 480.395 538.749 475.363C540.883 475.363 542.804 475.359 544.725 475.364C557.552 475.398 570.381 475.462 583.209 475.444C585.543 475.441 588.001 475.533 590.186 474.838C595.061 473.287 599.829 474.002 604.625 474.365L606.499 490.877C607.405 488.132 607.341 485.46 607.422 482.792C607.51 479.95 606.928 477.007 608.166 474.169H651.913C653.402 480.771 652.851 487.153 652.495 493.77H642.644C641.901 487.618 643.217 481.525 640.298 476.036C638.485 481.936 644.237 488.51 638.666 494.145C636.393 494.145 634.025 494.279 631.677 494.113C628.273 493.874 624.89 493.34 621.488 493.077C617.982 492.806 614.484 492.789 610.951 492.896C601.718 493.176 592.472 492.923 583.232 492.825C581.591 492.809 579.954 492.514 578.409 492.359L576.653 478.773C575.639 481.19 575.491 483.564 575.679 485.908C575.864 488.196 577.849 490.67 575.44 492.066H554.115C574.198 495.603 594.499 493.559 614.928 494.52C615.698 498.703 616.06 502.358 614.021 506.189C605.195 507.128 596.384 508.585 587.505 507.479C586.514 499.403 586.514 499.403 584.609 496.693L585.824 506.257C577.926 508.339 570.46 509.221 562.827 509.344C564.272 510.027 565.692 510.301 567.112 510.304C575.442 510.323 583.729 510.07 592.074 509.377C607.452 508.104 622.939 508.27 638.382 507.818C639.869 507.774 641.352 507.606 642.838 507.497C638.499 506.506 634.219 506.681 629.959 506.455C625.567 506.222 621.049 507.5 616.611 505.651C617.129 501.95 615.617 498.246 618.109 494.747C625.458 496.781 633.28 493.634 640.876 497.002C641.217 496.757 641.984 495.813 642.895 495.62C646.202 494.92 673.966 495.74 677.077 496.517C677.266 500.625 677.774 504.806 676.681 509.395C673.173 509.754 669.792 510.374 666.406 510.401C649.423 510.534 632.438 510.477 615.453 510.598C613.777 510.611 611.683 509.52 610.413 511.653L610.415 511.762C634.774 511.422 659.139 512.841 683.498 510.65C696.296 509.499 709.194 509.532 722.051 509.124C724.599 509.043 727.15 509.031 729.701 509.021L729.699 507.195V507.199C729.515 507.158 729.331 507.123 729.146 507.092C728.98 503.111 726.234 499.634 728.52 495.696L729.68 495.639H729.682L729.679 493.67L729.677 493.672C718.339 494.13 706.941 494.621 695.421 493.846C695.421 490.203 695.335 487.085 695.445 483.974C695.56 480.687 694.712 477.296 696.13 473.897C707.328 473.897 718.377 473.739 729.419 473.939L729.652 473.883V472.688L729.646 472.698C701.037 472.6 672.428 472.596 643.819 472.546C641.304 472.541 638.789 472.428 635.972 472.357C636.327 467.148 633.372 462.736 635.528 457.946C645.822 456.969 656.164 458.896 666.073 455.34C657.425 455.095 648.79 457.808 640.179 455.688C639.652 446.274 639.652 446.274 642.194 439.84C644.747 440.125 647.469 440.54 650.204 440.709C654.691 440.985 659.186 441.144 663.68 441.241C664.487 441.258 665.326 440.792 666.106 440.442C666.624 440.21 667.064 439.786 667.569 439.428C662.544 439.613 657.879 439.99 653.226 439.89C649.83 439.818 646.454 438.872 643.056 438.755C637.264 438.556 631.46 438.736 625.661 438.681C624.033 438.667 622.409 438.392 620.851 438.242V421.372C623.553 421.081 625.999 420.818 628.445 420.553C621.716 420.198 615.064 419.905 608.447 420.281C601.637 420.666 594.874 422.073 588.065 422.366C578.335 422.786 568.551 423.176 558.872 420.718C559.261 421.497 559.696 422.156 560.194 422.21C565.715 422.809 571.236 423.604 576.774 423.772C583.22 423.974 589.672 423.847 596.105 423.394C602.697 422.928 609.25 421.853 615.827 421.13C616.807 421.023 617.835 421.39 618.738 421.521V438.826L602.722 440.562L604.215 455.747L606.388 456.353C606.375 456.33 606.366 456.307 606.353 456.282C607.675 456.733 608.99 457.503 610.322 457.537C616.339 457.692 622.36 457.586 628.379 457.667C630.007 457.69 631.631 458.037 633.207 458.229V472.6C616.843 472.42 600.865 472.917 584.703 472.417C584.48 468.345 583.915 465.067 585.152 461.953C586.559 461.672 587.667 461.453 589.186 461.152L584.613 458.3C584.18 451.565 584.18 451.565 582.117 449.061C581.762 452.455 584.714 455.724 582.445 458.4C573.694 459.064 565.381 459.869 557.048 460.272C549.196 460.651 541.327 461.409 533.464 460.379C532.048 460.195 530.645 459.901 528.908 459.602C529.135 454.369 531.267 449.429 528.097 444.559L527.508 458.806L505.093 459.037C508.55 460.861 512.296 459.456 515.857 461.049C515.814 465.466 516.753 469.66 515.296 473.764C504.344 474.257 493.644 475.48 483.011 475.013C472.236 474.541 461.416 476.343 449.981 474.608C450.559 467.107 451.102 460.046 451.673 452.656H467.518C467.897 451.806 468.638 450.843 468.734 449.813C469.233 444.514 469.568 439.197 469.968 433.789C470.688 433.585 471.279 433.293 471.879 433.269C484.949 432.771 498.021 432.362 511.088 431.789C514.21 431.653 517.309 430.987 520.42 430.564L520.26 429.171C516.936 429.621 513.623 430.321 510.287 430.478C498.082 431.051 485.872 431.705 473.658 431.838C453.237 432.063 432.809 431.918 412.385 431.903C410.482 431.903 408.579 431.733 406.455 431.632C404.173 426.771 404.824 422.058 405.621 417.349L459.733 414.519C458.783 413.264 457.808 412.981 456.863 413.064C453.034 413.407 449.223 414.085 445.39 414.237C431.679 414.789 417.965 415.239 404.247 415.588C403.649 415.602 403.051 415.608 402.454 415.62Z" fill="#BFBFBF"/>
<path fill-rule="evenodd" clip-rule="evenodd" d="M729.65 472.528H729.646V472.697L729.651 472.688V472.528H729.65ZM729.407 102.122C722.566 101.424 722.386 101.53 718.242 104.019C722.308 103.415 725.469 102.945 729.407 102.358V102.122ZM432.339 681.066C434.47 681.019 436.587 680.249 438.718 679.88C440.565 679.559 442.566 680.346 445.193 678.558C439.04 678.558 433.638 677.414 428.721 678.816C420.556 681.145 412.77 678.252 404.877 677.682C404.075 677.624 403.252 677.487 402.423 677.33V678.875C412.288 681.664 422.321 681.285 432.339 681.066ZM597.206 381.543C584.225 382.344 571.318 381.719 557.79 381.894V362.02C571.035 361.396 583.94 362.033 597.206 361.784V381.543ZM571.551 398.077C566.817 397.638 562.393 397.056 557.954 396.859C551.313 396.565 544.658 396.641 538.018 396.364C533.587 396.179 529.172 395.652 524.488 395.257L525.726 383.447C541.433 382.307 556.873 383.944 572.698 384.5C573.084 388.952 573.729 393.036 571.551 398.077ZM617.376 337.207L615.482 360.319C613.454 360.432 611.993 360.591 610.531 360.585C574.278 360.434 538.025 360.144 501.79 361.766C498.573 361.91 495.347 361.789 492.129 361.897C491.225 361.927 490.335 362.339 488.09 362.93C500.66 362.93 511.741 362.645 522.802 363.01C533.838 363.374 544.831 360.5 555.902 362.307V381.742C532.499 382.071 509.44 381.568 486.396 381.802L486.403 383.251H524.317C523.646 387.589 523.093 391.156 522.487 395.069C503.237 395.328 484.407 394.677 465.606 395.735C467.509 396.312 469.409 396.283 471.308 396.316C488.844 396.629 506.383 396.833 523.915 397.317C535 397.624 546.07 398.417 557.152 398.881C569.77 399.411 582.391 400.024 595.016 400.225C610.416 400.471 625.822 400.329 641.227 400.355C640.413 398.522 638.766 399.082 637.382 399.082C618.521 399.087 599.656 399.358 580.825 397.844C578.757 397.678 576.683 397.6 574.757 397.49V384.419C587.844 383.972 600.445 383.405 613.051 383.139C640.487 382.561 667.926 382.14 695.363 381.632C695.981 381.622 696.592 381.331 697.206 381.172C664.433 380.211 631.783 383.113 599.179 381.456C598.267 370.923 598.489 366.964 599.986 363.11H643.878V379.992C645.18 376.569 645.885 373.145 646.191 369.681C646.361 367.772 645.86 365.798 645.588 363.106L724.168 362.924C719.483 361.71 714.8 361.706 710.118 361.711C705.609 361.715 701.099 361.729 696.59 361.733C691.866 361.738 687.135 361.883 682.418 361.693C677.801 361.509 673.086 362.543 668.762 361.077V338.264C665.779 345.729 668.821 353.976 665.426 361.632C649.283 361.618 633.371 362.273 617.638 360.563V337.235L617.376 337.207ZM500.599 231.063L500.421 229.564C497.72 230.016 495.031 230.658 492.313 230.868C491.386 230.933 490.457 230.968 489.528 230.972L489.581 232.242C493.259 231.966 496.927 231.447 500.599 231.063ZM499.241 190.23C497.304 188.934 495.373 188.52 493.444 188.501C493.813 189.174 494.111 189.889 494.363 190.627L499.242 190.23H499.241ZM432.996 233.533H411.741V223.215L433.07 221.264C433.659 225.664 436.171 229.223 432.996 233.533ZM435.735 233.478V221.83C442.909 221.645 449.869 219.244 456.89 220.826L456.816 219.198C455.803 219.121 454.845 219.061 453.9 219.101C444.834 219.492 435.77 219.902 426.712 220.423C422.853 220.644 419.016 221.292 415.157 221.492C411.54 221.679 407.906 221.533 404.19 221.533V209.562C409.512 210.126 414.396 208.788 419.253 210.32L419.716 218.492C419.94 218.492 420.165 218.494 420.389 218.496L420.947 210.617C421.872 209.995 422.752 209.405 424.922 207.944H413.211V196.215C423.129 196.851 432.584 193.957 442.401 195.094L443.195 201.945C443.378 201.921 443.563 201.897 443.747 201.871C444.038 199.498 444.334 197.124 444.605 194.926C445.767 194.508 447.445 194.109 449.465 193.734C449.639 193.229 449.835 192.733 450.048 192.249C436.316 193.7 422.672 194.707 408.969 194.829C406.787 194.849 404.605 194.852 402.423 194.864V196.429H411.296V208.012C408.353 208.368 405.386 208.408 402.423 208.374V223.701C404.922 223.096 407.337 222.538 409.914 223.679V234.66C411.285 234.854 412.513 235.205 413.732 235.168C425.177 234.818 436.601 235.369 448.084 234.122C451.159 233.796 454.241 233.547 457.328 233.376C457.321 233.059 457.313 232.743 457.305 232.426L435.735 233.478ZM466.506 178.891C467.507 178.363 468.251 177.645 469.015 177.621C473.995 177.465 478.98 177.361 483.96 177.461C485.624 177.494 487.307 178.608 488.923 178.476C492.76 178.161 496.563 177.397 500.29 176.828C497.107 173.841 498.997 170.197 499.435 166.749C493.62 164.47 487.337 164.705 483.766 167.493C488.404 166.661 492.794 165.778 497.456 167.526L496.384 176.035C488.697 176.035 481.337 176.145 473.984 176.004C466.753 175.865 459.588 178.994 451.783 176.591C452.271 173.979 452.832 171.64 453.077 169.265C453.152 168.537 452.361 167.714 451.966 166.933L451.004 167.166L450.311 177.187L437.883 178.402V169.26C440.048 169.26 441.744 169.295 443.437 169.249C445.134 169.203 446.83 169.074 448.526 168.984L448.507 168.289H429.503C430.535 169.17 431.597 169.131 432.63 169.295C433.801 169.481 434.944 169.847 436.298 170.184L434.406 179.649C444.581 181.048 454.598 177.004 464.598 179.254V182.416C465.234 182.308 465.871 182.217 466.506 182.142V178.891ZM619.886 770.049L574.773 767.111C573.211 764.079 574.016 761.209 573.924 757.728C589.746 757.417 605.223 757.684 621.392 757.733L619.886 770.049ZM662.564 770.092C664.815 770.018 667.07 770.082 669.324 770.082L669.405 769.173L666.316 767.555C666.131 763.623 666.314 759.888 668.264 756.86C673.052 757.112 677.503 757.414 681.959 757.558C686.229 757.694 690.504 757.689 694.777 757.707C704.846 757.746 704.846 757.736 706.671 755.804C701.474 755.921 696.213 756.245 690.961 756.114C680.952 755.861 670.949 755.354 660.944 754.944C659.517 754.886 658.092 754.777 655.989 754.651V740.496C654.641 746.061 654.172 751.582 655.24 757.307H665.222L664.102 768.483C656.602 768.483 649.787 768.49 642.973 768.481C636.286 768.471 629.664 771.445 622.669 769.209C622.748 765.262 621.662 761.427 624.433 757.509H650.33L650.327 756.092H623.683C614.71 756.092 605.729 755.844 596.765 756.16C587.959 756.469 579.162 753.71 569.614 755.884C574.652 759.789 571.425 764.756 572.017 769.214C574.024 769.039 575.652 768.688 577.257 768.789C589.576 769.565 601.889 770.454 614.207 771.251C616.977 771.431 619.76 771.46 622.536 771.44C627.39 771.404 632.379 772.012 637.066 771.026C645.583 769.236 654.071 770.369 662.564 770.092ZM647.48 551.183C647.305 556.066 648.45 560.441 646.162 565.31C635.72 565.36 625.151 565.614 614.154 565.328V549.509L647.48 551.183ZM608.416 548.295C600.998 548.602 593.601 549.461 586.195 550.078C594.36 550.777 602.536 551.186 611.232 549.432C610.718 555.022 613.56 559.92 611.902 565.671L585.166 564.647C604.395 568.078 623.72 568.037 643.081 566.583C644.875 566.448 646.632 565.808 648.488 565.383L649.195 549.235H633.308V532.234C644.13 531.461 654.085 533.095 664.015 534.172C673.949 535.249 683.568 534.557 693.063 530.873C691.842 531.033 690.624 531.214 689.4 531.346C683.05 532.041 676.68 533.421 670.349 533.252C659.69 532.965 649.057 531.69 638.411 530.837C637.555 530.769 636.662 530.893 635.846 530.684C628.447 528.789 620.978 530.001 613.525 530.017C619.407 531.546 625.693 529.519 631.832 531.925C631.832 535.161 631.934 538.004 631.803 540.836C631.678 543.549 632.813 546.441 631.63 548.228C623.377 548.228 615.886 547.987 608.416 548.296" fill="#BFBFBF"/>
<path fill-rule="evenodd" clip-rule="evenodd" d="M9.33155 5.37782L74.5047 5.32535V5.32729L74.3851 5.44293C74.424 5.57218 74.4649 5.70142 74.5067 5.83067V5.40309C76.0318 4.91623 77.5316 4.13394 79.0723 4.04648C91.2792 3.37596 103.493 2.85411 115.707 2.23703C116.485 2.20108 117.239 1.79196 117.616 1.67048C117.586 1.10491 117.563 0.548079 117.531 -0.000976562L115.328 0.31388C107.128 1.05243 99.4734 1.95813 91.7953 2.38377C79.1569 3.08054 66.5126 3.72482 53.8586 3.93376C38.3712 4.18448 22.8856 3.95902 7.39817 3.9668C5.90415 3.9668 4.41013 4.16796 2.91611 4.26416C5.09639 5.37782 7.21251 5.38657 9.33155 5.37782Z" fill="#BFBFBF"/>
<path fill-rule="evenodd" clip-rule="evenodd" d="M483.95 76.343C488.25 76.0514 492.877 75.7307 496.711 72.8834C491.864 73.4315 487.066 75.1399 482.307 75.0311C471.004 74.7764 459.8 76.5762 448.433 75.6549C433.936 74.4771 419.343 74.207 404.79 74.1953C404.001 74.1953 403.212 74.205 402.423 74.2089V76.4605C417.414 76.5111 432.404 76.7511 447.398 77.5412C459.536 78.1786 471.786 77.1719 483.95 76.343ZM459.918 785.524C460.73 782.593 457.295 779.849 460.471 776.375H483.305L485.271 785.296L485.989 785.129L485.482 775.168C500.54 776.156 515.557 772.527 531.234 774.503V788.113C533.449 783.733 530.771 778.541 533.978 774.42C546.218 772.401 558.44 776.656 570.586 773.941C569.251 773.13 567.889 772.749 566.525 772.746C545.699 772.7 524.874 772.7 504.048 772.698C502.976 772.698 501.901 772.729 500.831 772.807C489.969 773.608 479.112 774.501 468.245 775.198C462.784 775.548 457.285 775.311 451.834 775.116C444.83 774.866 437.857 773.625 430.865 772.873C428.871 772.659 426.855 772.662 424.848 772.564L424.78 773.925C435.534 775.049 446.289 776.172 457.323 777.324C458.112 779.925 456.971 783.437 459.918 785.524ZM564.144 789.573C532.848 788.788 501.527 790.185 470.234 788.219C460.176 787.587 450.056 788.044 439.965 788.042C438.382 788.042 436.8 788.249 435.218 788.361C443.945 789.397 452.644 790.241 461.351 790.362C495.875 790.837 530.407 790.209 564.923 791.77C575.385 792.242 585.884 791.843 596.365 791.843L596.123 791.128C585.464 790.596 574.809 789.84 564.144 789.573ZM458.802 662.339C463.426 661.85 466.55 661.249 469.677 661.234C480.814 661.185 491.922 660.888 503.074 662.262C513.031 663.489 523.157 663.281 533.208 663.736C534.856 663.811 536.498 664.034 537.94 664.169L540.096 672.471L540.925 672.305L540.037 664.643C540.883 664.23 541.259 663.889 541.639 663.886C552.376 663.815 563.112 663.771 573.848 663.747C574.696 663.744 575.578 663.796 576.384 664.033C583.801 666.212 591.074 665.245 599.747 663.05C592.273 661.701 586.218 665.696 579.656 662.855V651.092C579.219 652.543 578.67 653.974 578.437 655.458C578.116 657.499 578.08 659.586 577.899 661.942C571.255 662.15 565.324 662.567 559.402 662.476C545.489 662.265 531.577 663.315 517.652 661.544C508.118 660.334 498.43 660.372 488.81 659.853C488.382 659.829 487.923 659.913 487.527 659.787C479.193 657.124 470.952 660.309 462.658 660.237C461.811 660.231 460.956 661.13 458.802 662.339ZM589.661 721.768L590.169 733.693L591.231 733.675V721.1H609.467C608.16 719.856 606.908 719.874 605.656 719.853C584.477 719.509 563.274 721.176 542.116 718.729C534.489 717.847 526.786 717.689 519.118 717.188C518.483 717.146 517.855 716.932 517.22 716.915C508.041 716.665 498.838 715.905 489.686 716.326C476.558 716.93 463.526 720.043 450.053 718.549C450.784 718.916 451.512 719.595 452.246 719.602C459.53 719.67 466.83 719.928 474.095 719.531C481.529 719.124 488.926 717.454 496.347 717.4C507.014 717.323 517.687 718.207 528.358 718.683C528.571 718.693 528.782 718.744 528.996 718.765C537.903 719.607 546.795 720.807 555.72 721.195C565.351 721.613 575.013 721.25 584.66 721.285C586.286 721.291 587.911 721.591 589.661 721.768ZM453.941 677.853C454.424 678.729 454.965 679.079 455.549 679.316C456.341 679.638 457.16 679.896 457.977 680.145C472.563 684.59 487.26 682.48 501.941 680.9C507.454 680.308 512.941 679.093 518.459 678.957C530.279 678.668 542.113 678.898 553.941 678.918C556.326 678.92 558.627 679.171 560.742 681.675V692.879L561.649 692.875V680H599.747C586.055 678.868 572.389 677.983 558.712 677.777C540.699 677.506 522.654 676.472 504.679 678.931C499.388 679.655 493.948 679.476 488.743 680.564C477.9 682.83 467.496 680.682 457.045 678.263C456.031 678.03 454.977 677.986 453.941 677.853Z" fill="#BFBFBF"/>
<path fill-rule="evenodd" clip-rule="evenodd" d="M429.65 745.355H575.437L575.447 744.458H556.172C549.5 744.458 542.826 744.494 536.153 744.448C529.781 744.403 523.389 744.658 516.528 744.232L515.106 723.318L513.435 723.067L513.465 723.15L513.339 723.132C513.315 723.1 513.29 723.071 513.266 723.042L513.015 723.004C513.058 723.121 513.091 723.239 513.132 723.356C513.165 723.398 513.203 723.429 513.236 723.472L513.166 723.461C515.425 730.143 513.846 736.991 514.43 744.42H429.641L429.65 745.355ZM578.571 697.624H601.691C601.093 696.855 600.494 696.564 599.889 696.555C584.642 696.339 569.402 696.905 554.148 695.522C541.764 694.398 529.277 694.299 516.831 694.054C503.485 693.792 490.132 693.879 476.781 693.85C475.324 693.847 473.867 694.076 472.41 694.195C473.224 694.91 474.039 695.138 474.86 695.155C491.827 695.491 508.787 694.858 525.77 696.189C541.601 697.43 557.536 697.301 573.422 697.826C574.407 697.858 575.378 698.32 576.627 698.656V715.229C578.139 709.655 577.013 703.762 578.571 697.624ZM703.755 717.002C690.841 713.811 677.601 715.85 664.263 714.402C664.071 712.257 663.9 710.515 663.762 708.77C663.624 707.037 663.518 705.301 663.399 703.568L662.641 703.604V715.195L667.221 717.158C667.106 719.642 667.869 722.076 666.515 724.243L654.181 725.385C655.53 729.546 653.043 733.279 655.816 736.609L656.367 727.106H702.593C697.123 725.906 691.632 725.955 686.161 725.631C680.497 725.296 674.851 724.599 669.11 724.052V716.841C680.926 715.046 692.34 719.18 703.755 717.002ZM556.88 585.604C545.148 585.054 533.41 584.509 521.67 584.216C512.46 583.99 503.246 583.98 494.036 584.187C488.117 584.32 482.21 585.01 476.298 585.45C477.674 586.486 479.047 586.736 480.406 586.66C486.792 586.305 493.176 585.479 499.555 585.539C508.937 585.626 518.303 585.519 527.718 586.368C542.82 587.728 558.036 587.563 573.194 588.27C579.508 588.564 585.798 589.438 592.744 590.112V602.502L593.915 602.415V588.702C588.742 588.112 583.677 587.398 578.592 586.987C571.363 586.404 564.125 585.943 556.88 585.605V585.604ZM468.522 610.427L468.47 609.484H443.553C435.201 609.484 426.83 609.916 418.501 609.364C413.098 609.004 407.744 610.405 402.423 610.89V612.221C409.852 611.752 417.278 611.237 424.71 611.074C437.771 610.787 450.836 610.935 463.9 610.856C465.441 610.847 466.981 610.577 468.522 610.427Z" fill="#BFBFBF"/>
<path fill-rule="evenodd" clip-rule="evenodd" d="M568.455 603.103C577.27 604.909 583.831 605.058 588.705 603.773L567.054 601.645L566.447 591.813C566.209 591.813 565.971 591.813 565.732 591.815C565.585 595.285 565.436 598.756 565.283 602.354C561.579 605.402 557.805 604.518 554.229 604.53C550.486 604.542 546.742 604.205 542.397 603.99C543.087 607.224 541.512 610.462 543.398 614.164C557.665 613.574 571.989 612.985 586.312 612.376C586.945 612.35 587.816 612.393 588.15 612.009C588.819 611.238 589.194 610.195 590.028 608.631C587.497 609.731 585.867 611.007 584.189 611.08C571.144 611.652 558.091 611.996 545.041 612.371C544.7 612.38 544.344 611.924 543.795 611.549C544.269 609.768 544.757 607.921 545.239 606.105C553.343 604.948 561.56 607.861 568.456 603.103H568.455ZM402.423 599.923C407.732 599.947 413.038 599.818 418.308 598.683C419.813 598.358 421.492 598.928 423.114 599.085C422.826 602.394 420.769 605.167 423.365 608.334C423.966 604.993 424.568 601.653 425.17 598.313H456.046C456.364 599.59 456.854 601.303 457.206 603.046C457.525 604.635 457.033 606.624 459.774 607.641C459.027 603.661 458.279 599.681 457.531 595.701C454.014 596.206 450.639 597.02 447.245 597.119C432.306 597.55 417.366 597.911 402.423 598.237V599.923ZM674.444 784.957C674.444 781.251 674.519 778.087 674.393 774.933C674.361 774.129 673.689 773.353 673.311 772.563C673.024 772.647 672.737 772.729 672.45 772.81L671.733 784.743H644.461C648.91 787.383 703.376 787.768 710.559 786.265C698.762 785.083 686.832 786.437 674.444 784.957ZM694.388 664.291C701.179 663.926 708.004 664.216 715.182 664.216L717.364 675.386L718.336 675.241L716.601 661.782C711.618 662.14 706.98 662.586 702.333 662.784C688.826 663.355 675.313 663.824 661.803 664.335C661.373 664.351 660.935 664.347 660.517 664.436C653.494 665.943 646.487 665.99 639.484 664.28C639.344 664.247 639.08 664.769 638.629 665.345C640.199 665.864 641.591 666.715 642.985 666.718C651.804 666.746 660.634 666.844 669.438 666.412C677.768 666.004 686.058 664.738 694.388 664.291ZM417.482 663.725C418.143 659.706 418.808 655.683 419.485 651.572C423.791 651.028 427.747 650.518 431.707 650.028C435.551 649.554 439.969 648.083 442.277 646.487C419.751 650.287 411.376 650.909 402.727 649.351C402.291 647.424 402.545 645.354 402.423 643.318V651.438C406.03 651.454 409.64 651.347 413.247 651.392C414.622 651.41 415.994 651.778 417.383 651.989C416.207 658.406 416.226 659.673 417.482 663.725ZM425.752 244.068C417.976 243.18 410.191 242.829 402.423 242.979V245.86C402.885 245.177 403.454 244.572 404.107 244.068H425.752ZM404.844 357.345C402.41 352.773 406.698 348.736 404.102 344.982C403.615 345.147 403.266 345.192 403.256 345.278C402.978 347.876 402.716 350.48 402.423 353.41V358.684C405.481 358.898 408.537 359.144 411.594 359.356C413.277 359.473 414.957 359.619 417.358 359.809C416.918 364.036 416.467 367.782 416.181 371.543C416.118 372.383 416.638 373.27 416.889 374.135L418.083 373.972L418.537 359.174L433.529 356.377C423.711 356.037 414.119 358.824 404.844 357.345ZM494.267 619.995L496.986 599.148C505.264 597.432 517.068 598.247 523.166 600.696V608.304L497.38 609.819L497.354 611.133L524.901 609.645V597.644H495.469C495.261 605.065 492.779 612.305 494.267 619.995ZM544.921 219.217C538.305 219.248 531.65 219.625 525.971 216.425C517.333 218.722 507.368 218.326 498.81 215.436L498.323 205.053L497.607 205.045C497.406 208.725 497.204 212.407 496.979 216.532C494.304 216.532 491.806 216.498 489.364 216.509C489.355 216.879 489.343 217.248 489.336 217.617C501.496 217.936 513.66 220.579 526 218.236C532.935 220.661 552.114 221.476 560.867 219.433C555.553 219.211 550.238 219.192 544.921 219.217ZM538.502 188.852C534.989 188.819 531.277 189.94 527.96 188.003C527.596 184.67 530.342 181.494 527.146 177.836C526.695 181.96 526.327 185.325 525.979 188.494H503.515C509.561 190.726 515.756 189.93 521.879 190.159C528.01 190.387 534.148 190.367 540.394 190.458V204.074C542.802 199.803 540.867 194.848 542.538 190.961L560.866 187.362L560.645 186.086C557.121 186.747 553.617 187.571 550.069 188.02C546.236 188.506 542.357 188.89 538.502 188.852ZM636.276 601.531C633.199 606.432 636.014 611.604 635.172 617.092H609.467C611.775 618.326 614.061 618.324 616.347 618.327C627.972 618.347 639.6 618.31 651.223 618.429C653.932 618.457 656.631 619.089 659.344 619.309C662.079 619.531 664.836 619.471 667.565 619.747C670.193 620.013 672.798 620.549 675.412 620.967L675.566 619.595C663.25 617.19 650.721 616.948 638.183 616.961C635.401 611.855 637.445 606.554 636.277 601.531H636.276ZM677.031 154.54L677.594 162.719C678.447 159.343 678.98 156.006 677.794 152.569H636.11C632.368 156.79 632.23 157.467 633.572 163.9L635.053 154.767H655.089L655.995 164.231C656.197 164.227 656.4 164.224 656.603 164.219L657.202 153.716C660.88 153.716 664.029 153.605 667.166 153.745C670.451 153.895 673.852 152.953 677.031 154.54ZM429.623 634.23C431.225 634.053 432.787 633.479 434.487 633.06C435.763 636.915 434.234 640.727 436.445 645.261V630.994C435.72 630.791 435.492 630.637 435.342 630.698C424.599 634.961 413.514 634.794 402.423 634.544V635.899C405.902 635.883 409.38 635.845 412.858 635.786C418.453 635.689 424.043 634.847 429.623 634.23ZM656.125 736.835L656.282 736.841C656.265 736.797 656.243 736.763 656.227 736.718C656.194 736.681 656.171 736.644 656.139 736.609L656.125 736.835ZM656.125 737.58C656.829 739.521 658.296 740.037 660.187 740.1C673.254 740.536 686.318 741.089 699.385 741.464C701.521 741.525 703.674 740.871 705.824 740.577C707.723 740.319 709.629 740.1 711.531 739.864C706.029 739.063 700.607 739.204 695.194 739.034C682.169 738.627 669.148 738.075 656.125 737.58ZM434.35 389.741C427.424 389.727 420.491 389.992 413.576 389.698C410.054 389.546 406.563 388.423 403.058 387.74C402.844 387.775 402.636 387.796 402.423 387.827V388.821L402.566 388.791C407.468 391.703 428.07 392.681 439.361 390.253C437.711 389.924 436.033 389.753 434.35 389.741ZM717.437 678.926C708.487 679.291 699.541 679.82 690.589 680.099C684.39 680.293 678.181 680.122 671.978 680.235C669.859 680.274 667.749 680.721 665.63 680.898C664.489 680.994 663.336 680.916 662.218 680.916C661.926 677.758 661.685 675.114 661.442 672.471C661.29 672.504 661.137 672.537 660.985 672.572V683.161C666.698 682.644 671.966 681.868 677.248 681.752C687.726 681.518 698.214 681.787 708.696 681.572C714.182 681.459 719.659 680.762 725.14 680.33L725.035 678.909C722.502 678.909 719.967 678.822 717.437 678.926ZM517.691 347.903C507.596 348.118 497.494 347.918 487.396 348.04C481.708 348.108 476.023 348.475 470.442 348.703L468.486 340.123L467.55 340.323L469.081 350.782C471.088 350.782 472.786 350.857 474.478 350.768C482.168 350.37 489.855 349.743 497.55 349.539C506.14 349.31 514.74 349.563 523.331 349.364C526.453 349.292 529.562 348.523 532.676 348.072L532.298 346.605C527.429 347.057 522.566 347.799 517.691 347.903ZM636.513 586.352L636.684 585.185C631.601 585.185 626.514 585.327 621.438 585.146C616.155 584.958 610.887 584.326 605.604 584.131C600.74 583.951 595.868 584.092 590.999 584.092L591.012 584.863C597.853 585.514 604.692 586.167 611.563 586.823C610.438 593.577 609.602 599.635 612.807 605.418C612.151 599.04 610.331 592.59 614.208 586.352H636.513ZM647.377 739.265C646.985 739.125 646.597 738.879 646.202 738.862C633.642 738.348 621.08 737.858 608.52 737.356C607.457 737.312 606.383 737.278 605.336 737.103C597.038 735.727 588.899 737.568 580.714 738.427C579.911 738.51 579.146 738.979 578.362 739.268C601.464 736.063 624.385 740.619 647.377 739.265ZM402.423 260.437C402.869 260.424 403.313 260.405 403.758 260.393C412.175 260.176 420.603 260.434 429.021 260.223C432.151 260.143 435.268 259.329 438.389 258.849C436.658 257.6 434.971 257.322 433.386 257.646C423.531 259.654 413.592 258.485 403.694 258.796C403.271 258.809 402.847 258.818 402.423 258.826V260.437ZM403.827 341.944L402.423 341.85V343.226C402.808 343.255 403.194 343.284 403.581 343.303C412.874 343.75 422.121 343.517 431.681 339.472V351.784C431.972 351.768 432.264 351.755 432.557 351.74V337.207C422.977 341.464 413.546 342.599 403.827 341.944ZM559.395 118.567C568.515 120.223 577.565 119.176 586.641 119.453C587.436 119.477 588.249 118.688 589.055 118.277C585.19 117.01 581.541 116.872 577.902 117.051C574.467 117.216 571.04 118.074 567.618 117.983C563.098 117.864 558.592 117.06 554.073 116.666C551.911 116.477 549.596 117.119 547.589 116.402C542.779 114.68 538.27 116.206 533.649 117.798C535.292 117.886 536.936 118.025 538.581 118.053C545.528 118.167 552.589 117.333 559.395 118.568V118.567ZM654.237 701.624L654.181 703.091C656.947 703.091 659.715 702.982 662.477 703.112C670.214 703.476 677.949 703.874 685.68 704.379C693.742 704.907 701.706 704.169 709.587 701.624H654.237ZM442.277 681.388L441.545 681.35L440.856 691.109C429.356 691.896 418.259 692.654 406.966 693.426L404.519 681.217L403.395 681.525C403.656 683.975 403.97 686.421 404.163 688.877C404.361 691.391 404.493 693.895 406.271 695.794C412.25 694.91 418.076 693.741 423.95 693.269C430.004 692.783 436.104 692.975 442.277 692.868V681.388ZM531.403 232.883C529.754 229.107 531.747 224.774 528.788 221.566L529.937 234.199C540.503 233.569 550.622 232.965 560.866 232.352V221.815C560.148 223.23 560.078 224.677 559.918 226.114C559.754 227.577 559.5 229.029 559.325 230.224C549.743 231.137 540.637 232.003 531.402 232.883H531.403ZM513.424 723.034L513.236 723.004L513.266 723.042L513.436 723.067C513.432 723.056 513.429 723.044 513.424 723.034ZM506.597 721.08C497.331 721.498 488.065 721.921 478.807 722.493C476.978 722.605 475.189 723.391 473.383 723.867L473.576 724.45L480.004 725.083C478.656 730.475 479.005 735.488 479.777 740.496L481.436 724.307C496.119 721.715 501.679 721.579 513.166 723.461L513.131 723.355C511.437 721.249 509.05 720.971 506.597 721.081V721.08ZM406.717 405.615C406.566 402.802 406.467 400.618 406.328 398.438C406.202 396.49 406.627 394.289 404.368 392.598L405.695 407.174C416.269 406.426 426.38 405.707 436.445 404.994V393.177C436.124 393.175 435.806 393.174 435.486 393.174V403.067C425.741 403.929 416.615 404.738 406.717 405.615Z" fill="#BFBFBF"/>
<path fill-rule="evenodd" clip-rule="evenodd" d="M446.165 668.408L443.491 652.063C443.1 652.114 442.709 652.165 442.317 652.214L443.545 665.804L402.148 667.912L401.451 667.947C401.684 667.983 401.916 668.011 402.148 668.044C416.97 670.112 431.767 665.356 446.165 668.408ZM431.178 207.31C430.392 207.166 429.53 207.524 428.702 207.65L428.668 209.152C437.909 210.347 447.127 209.917 456.344 209.234L456.264 207.576C447.85 208.39 439.547 208.835 431.178 207.31ZM538.509 626.465C556.637 629.52 573.845 631.54 590.999 630.328C585.244 629.789 579.494 628.857 573.734 628.792C562.518 628.664 551.458 627.426 540.506 624.861C540.142 624.775 539.604 625.559 538.509 626.464V626.465ZM650.293 692.017C669.214 692.655 687.219 693.267 705.225 693.849C705.842 693.869 706.471 693.616 707.083 693.436C707.271 693.381 707.48 693.184 707.571 692.985C707.665 692.781 707.625 692.497 707.643 692.247C702.574 690.721 657.704 690.377 650.293 692.017ZM447.818 353.169C444.511 347.88 446.813 341.837 445.193 336.236V355.671C450.219 355.323 454.722 354.952 459.231 354.718C462.281 354.557 465.345 354.673 468.391 354.48C469.171 354.431 469.91 353.673 471.438 352.804C462.883 350.562 455.434 354.384 447.818 353.169ZM612.398 661.202C617.613 660.483 622.864 658.947 628.031 659.228C636.206 659.672 644.323 661.335 652.465 662.473C653.357 662.598 654.257 662.661 655.153 662.753C644.023 658.327 618.946 654.989 608.495 661.696C610.472 661.447 611.436 661.335 612.398 661.202ZM516.152 642.929C523.085 643.593 530.019 644.269 536.954 644.919C542.012 645.392 547.066 646.056 552.133 646.223C556.465 646.367 559.704 644.898 561.838 642.346C552.535 647.461 543.046 644.342 533.731 643C527.779 642.144 521.959 642.388 516.152 642.93V642.929ZM518.038 175.834C525.645 175.849 533.252 175.904 540.861 175.89C544.18 175.884 547.477 175.667 550.173 172.977C544.76 173.533 539.354 174.327 533.931 174.559C528.191 174.805 522.43 174.367 516.682 174.468C511.31 174.564 505.854 173.699 500.599 175.496C506.431 175.833 512.235 175.824 518.038 175.835V175.834ZM525.101 655.349C528.779 655.386 532.465 655.346 536.129 655.6C539.983 655.866 543.808 656.609 547.662 656.837C551.079 657.039 554.519 656.824 557.949 656.791L557.903 655.406C553.173 655.406 548.349 656.039 543.732 655.277C533.931 653.657 524.187 653.49 514.208 655.342C517.839 655.342 521.47 655.313 525.101 655.349ZM638.468 685.733V668.584C638.198 668.609 637.927 668.635 637.656 668.662V688.02C645.987 687.174 653.972 686.361 661.957 685.548C661.924 685.079 661.889 684.608 661.857 684.139L638.468 685.733ZM641.545 83.9141C637.962 83.9141 634.379 83.9082 630.796 83.915C627.183 83.9228 623.57 83.9568 619.956 83.951C616.343 83.9452 612.711 83.606 609.122 83.9666C605.841 84.295 602.487 80.6382 598.775 84.1055C604.057 85.7692 631.215 86.2629 641.545 83.9141ZM517.779 124.353V115.234L525.872 114.48L525.834 113.983L507.842 112.324L507.194 103.98L506.431 104.058V114.466C509.559 114.632 512.477 114.788 516.049 114.981L516.846 124.388L517.779 124.353ZM561.656 205.343L561.627 205.045L561.54 205.233L561.657 205.344C550.776 205.907 539.896 206.455 529.016 207.073C528.563 207.1 528.133 207.759 526.844 208.825C539.751 209.735 551.561 204.471 563.782 207.36L561.656 205.343ZM424.107 376.539C417.259 377.714 410.304 377.967 403.395 378.619L403.676 379.682C407.254 379.682 410.962 380.413 414.384 379.528C421.545 377.679 428.714 378.37 435.889 378.202C437.371 378.167 438.852 378.039 440.333 377.952C434.913 376.123 429.611 375.595 424.107 376.539ZM621.647 689.961C617.364 689.116 612.885 689.281 608.495 688.991L608.538 690.251L642.517 692.879C635.912 688.984 628.572 691.327 621.647 689.961ZM646.405 632.247C634.753 631.357 623.225 628.669 611.411 630.148L646.166 633.6L646.405 632.247ZM724.168 41.8001L690.146 40.8147C696.458 42.8486 717.104 43.4657 724.168 41.8001ZM624.198 648.167C628.359 648.185 632.522 648.172 636.684 648.172C628.252 646.897 619.806 644.591 611.411 648.063C615.674 648.1 619.936 648.149 624.198 648.168V648.167ZM611.411 701.783L611.482 703.568C622.202 703.175 632.924 702.796 643.642 702.325C643.912 702.313 644.156 701.3 644.461 700.654C633.26 702.568 622.302 700.989 611.411 701.783ZM634.745 419.433H667.79L667.786 418.837H634.74L634.745 419.433ZM525.872 157.456L525.298 157.427L524.593 163.471C521.226 163.471 518.34 163.635 515.477 163.422C512.896 163.233 510.269 161.172 506.431 164.555L525.872 165.202V157.456ZM582.25 529.44H609.466L609.467 528.648H582.25V529.44ZM518.096 76.0699L520.714 85.5156L521.319 85.4495L520.669 76.5674H534.621C529.46 74.3936 524.794 74.2896 518.096 76.0699ZM489.907 619.995L471.438 622.366C477.635 622.212 484.052 624.761 489.907 619.995ZM592.138 648.556C588.311 648.318 584.504 647.677 580.628 647.205L580.306 649.949C582.014 648.791 583.689 648.702 585.764 649.254C591.007 650.65 598.93 650.304 604.607 648.606C599.551 648.606 595.834 648.788 592.138 648.557V648.556ZM580.429 650.12C580.388 650.145 580.347 650.164 580.306 650.191V650.608C580.339 650.499 580.376 650.391 580.408 650.283L580.429 650.12ZM140.426 16.3064L141.433 22.3509L141.917 22.2926V14.6525C137.788 14.8721 134.053 13.91 129.281 15.6145C133.596 18.01 136.875 16.5863 140.426 16.3064ZM675.834 586.955C673.767 593.471 674.891 598.944 674.963 604.447C675.173 599.148 677.749 593.845 675.834 586.955ZM720.813 413.278L719.315 416.821C719.275 418.86 719.848 420.559 721.252 424.667C720.972 420.882 721.513 417.042 720.813 413.278ZM682.37 166.681C673.676 165.546 667.406 166.304 663.901 169.09C670.554 166.931 676.627 169.338 682.37 166.681ZM490.879 253.916L490.903 254.606H508.376C507.298 253.28 507.015 252.645 506.763 252.663C501.466 253.036 496.173 253.485 490.879 253.916ZM490.077 244.917C495.818 245.61 501.747 247.396 508.376 242.945L490.091 244.877C490.086 244.889 490.083 244.904 490.077 244.917V244.917ZM701.811 459.651L684.314 460.527C693.557 462.274 699.104 461.805 701.811 459.651ZM524.617 206.989C525.576 202.493 526.81 197.826 524.763 193.384L522.955 193.499L524.618 206.989H524.617ZM491.851 609.306H475.337L475.326 610.042H491.843L491.851 609.306ZM610.413 511.653C610.407 511.488 610.41 511.323 610.403 511.156L609.227 511.414L607.523 523.789C609.873 520.048 610.539 515.987 610.416 511.762L610.344 511.763C610.365 511.724 610.391 511.691 610.413 511.653ZM610.691 511.156L610.439 511.158C610.443 511.221 610.444 511.282 610.447 511.344L610.596 511.312C610.626 511.255 610.66 511.209 610.691 511.156ZM556.005 183.649V170.061L552.117 172.483L555.043 172.975V183.666L556.005 183.649ZM551.288 172.977C551.241 173.018 551.193 173.053 551.145 173.094L551.372 173.073L551.468 173.009L551.288 172.977ZM557.949 738.552C560.58 733.972 561.726 729.254 560.143 723.004L557.949 738.552ZM437.755 360.53L436.445 360.82L438.135 373.163L439.36 372.992L437.756 360.53H437.755ZM44.739 15.6651C44.8138 19.0682 44.8411 19.0682 46.6578 21.3791L45.4554 8.7596L44.7293 8.746C44.7293 11.052 44.6884 13.36 44.739 15.6651ZM500.599 445.123V460.613C500.836 460.616 501.074 460.62 501.311 460.622C501.389 458.902 501.502 457.182 501.537 455.462C501.577 453.477 501.589 451.491 501.533 449.507C501.494 448.028 501.328 446.552 501.218 445.075L500.599 445.123ZM519.772 584.039L521.984 569.463C519.654 573.741 518.092 578.105 519.772 584.039ZM590.204 634.572L588.083 647.205C591.986 643.279 591.159 638.932 590.204 634.572ZM563.776 201.541C563.427 198.16 562.739 194.805 562.176 191.44L560.865 191.587L562.475 204.075C562.993 203.222 563.858 202.345 563.776 201.541ZM539.269 712.314V699.681L538.509 699.764V712.314H539.269ZM73.8748 19.4356C74.8391 16.1451 74.9412 12.8498 74.7905 9.57201C74.7322 8.30675 74.2316 7.07454 73.8748 5.83066V19.4356ZM457.833 166.174C457.833 166.446 457.831 166.718 457.83 166.99H470.262L470.466 166.174H457.833ZM642.517 401.345C642.538 401.39 642.561 401.43 642.582 401.478C642.639 401.557 642.687 401.638 642.741 401.718C642.739 401.594 642.738 401.468 642.735 401.345H642.517ZM645.433 414.95C644.157 409.963 644.712 405.791 642.518 402.317C642.583 406.304 642.005 410.47 645.433 414.95ZM403.161 333.32H401.45C401.456 333.504 401.46 333.688 401.467 333.871H413.115L413.103 333.32H403.161ZM550.173 572.378V585.005L550.952 585.011V572.384L550.173 572.378ZM430.613 255.578L429.448 245.86C429.02 249.179 427.421 252.683 430.613 255.578ZM568.844 444.103L567.67 444.311L569.424 455.764L570.586 455.56L568.844 444.103ZM522.43 692.879L523.928 692.644C523.324 689.158 522.721 685.674 522.115 682.189L521.012 682.37L522.43 692.879ZM514.208 654.007C516.501 648.661 516.501 648.661 515.564 645.261L514.208 654.007ZM208.016 55.8909H242.694C242.816 55.7296 242.917 55.5615 243.009 55.3914H208.069L208.016 55.8909ZM396.659 652.064C394.968 655.57 395.407 662.855 397.486 667.612C397.253 662.648 398.198 657.627 396.658 652.064H396.659ZM404.358 55.7344V70.9399L405.638 70.9136V55.0989C414.861 56.3262 423.66 54.8229 432.795 56.3107V69.7446L433.678 69.7436L434.302 55.2388C437.58 56.0677 440.146 56.7159 442.712 57.367C444.707 56.9832 446.804 56.9812 448.902 56.9832C459.227 56.9958 469.554 57.1367 479.876 56.9598C484.197 56.886 488.508 56.1397 492.823 55.6994C484.65 55.1494 476.564 55.6081 468.471 55.7607C460.163 55.9162 451.848 55.887 443.38 55.6139L442.971 50.5315L440.162 55.0007C430.223 54.4167 420.173 53.4031 410.116 53.3351C407.281 53.3157 404.444 53.2729 401.608 53.2311C390.933 53.0747 380.255 52.9347 369.568 54.1407C361.699 55.0289 353.667 54.3545 345.709 54.4157C343.877 54.4303 342.044 54.5732 340.213 54.6577C342.675 54.8307 345.137 54.9667 347.601 55.0775C365.41 55.8812 383.287 55.2369 401.607 55.6654C402.524 55.6878 403.439 55.7072 404.358 55.7335V55.7344ZM499.497 51.9834C496.202 57.8306 496.202 57.8306 497.585 64.325L521.983 66.081V50.5325C520.235 54.9949 522.619 60.328 518.678 64.4727L498.082 62.5826C498.082 60.7226 497.946 59.2056 498.121 57.7285C498.295 56.2806 498.785 54.8754 499.498 51.9824L499.497 51.9834ZM664.29 43.9759H683.413C685.577 47.4442 682.636 51.9348 686.259 55.3914C685.886 50.8017 685.561 46.7717 685.222 42.6038L662.93 41.7865V52.1155L663.621 52.1427L664.289 43.9759H664.29ZM631.675 41.2267C629.983 40.7603 627.718 40.255 625.992 42.7651C633.978 44.284 649.597 43.9672 654.181 42.1198C651.809 40.356 649.377 40.737 647.354 41.216C642.082 42.4648 636.948 42.6825 631.675 41.2258" fill="#BFBFBF"/>
<path fill-rule="evenodd" clip-rule="evenodd" d="M329.673 47.1925C328.209 47.2926 326.734 47.2071 325.217 47.2071L326.164 28.304C332.429 28.0096 338.464 27.5169 344.273 28.6121C347.184 29.1602 349.629 27.3886 352.317 28.3079C354.276 28.9775 356.272 29.5294 358.489 30.2077V43.9118L359.386 43.905V30.7354C364.405 29.0756 389.431 29.1514 395.04 30.7791C396.084 35.4544 395.592 40.2802 395.452 45.5589C393.197 45.6678 391.325 45.8291 389.453 45.8378C374.851 45.9049 360.249 45.8417 345.65 46.0438C340.32 46.1167 335 46.8252 329.673 47.1925ZM313.321 25.1545L315.968 23.45L311.498 21.8456L313.425 12.2026H346.198L345.105 26.7297C339.745 26.7599 334.44 27.0077 329.157 26.754C324.049 26.5091 318.962 25.7473 313.321 25.1545ZM379.415 11.8557C386.857 11.6409 394.369 11.8129 402.093 11.8712C404.156 11.8868 406.229 11.8965 408.324 11.8858V28.2817H380.546C378.499 23.2313 378.353 21.0128 379.415 11.8557ZM409.982 12.2697H436.519C437.238 17.8564 437.423 23.1128 436.334 28.9386H410.864C408.987 23.7814 410.257 18.3938 409.982 12.2697ZM457.774 29.5324C459.658 32.3845 458.802 35.1609 458.949 37.7653C459.085 40.1908 458.978 42.631 458.978 45.5589H428.264L426.353 30.7665C437.461 31.6742 447.656 30.0999 457.774 29.5324ZM460.661 30.1329C462.195 29.9599 463.825 29.6441 465.461 29.6159C470.624 29.5285 475.791 29.6412 480.952 29.51C497.694 29.0844 514.435 28.6286 531.173 28.0669C533.923 27.9746 536.681 26.8017 539.391 26.963C548.779 27.5179 558.14 28.5567 567.525 29.1747C571.994 29.4682 576.496 29.2243 581.379 29.2243L582.891 41.5999C571.58 44.2635 560.264 42.5785 549.077 43.2072C546.758 38.9168 549.52 33.8791 545.853 28.96L546.835 43.1392C543.815 43.1392 541.501 43.077 539.189 43.1489C524.82 43.6008 510.451 44.0915 496.081 44.5444C493.955 44.6114 491.826 44.5541 489.659 44.5541C487.672 40.0315 489.304 35.8917 490.056 30.3069C485.951 35.1667 488.576 39.9906 486.706 44.4258L462.64 46.0856C459.829 41.4114 459.716 40.3793 460.661 30.1329ZM593.903 44.6863C595.377 47.6599 594.597 50.9737 594.508 54.4128C591.436 56.1076 588.194 55.2 585.089 55.3584C582.119 55.508 579.137 55.3904 576.554 55.3904C573.259 52.1214 574.099 48.5792 574.117 44.6863H593.903ZM425.808 45.4831H397.37V31.6168C398.452 31.371 400.107 31.1756 402.094 31.0337C408.9 30.5488 419.645 30.6859 424.947 31.5031C425.47 35.604 426.019 39.7768 426.504 43.9594C426.546 44.318 426.165 44.731 425.808 45.4831ZM650.494 58.1017C652.523 62.328 650.939 66.527 651.667 70.7717L628.47 71.8475C628.198 66.1985 627.986 61.776 627.762 57.1056C635.291 55.4633 642.755 58.7897 650.495 58.1017H650.494ZM402.096 47.1808C414.535 47.1789 426.974 47.1857 439.414 47.1828C440.658 47.1828 441.9 47.5122 443.068 47.6774L443.486 49.8027L445.279 47.1468C448.087 47.1468 450.024 47.1935 451.958 47.139C463.327 46.8222 474.694 46.4316 486.066 46.2295C487.165 46.21 488.282 47.3062 488.641 47.4947C490.521 46.829 491.819 46.0186 493.15 45.9544C505.154 45.3724 517.165 44.7174 529.179 44.4851C542.09 44.2373 555.006 44.4103 567.922 44.4356C569.357 44.4385 570.791 44.6785 572.502 44.834V54.6995C569.043 54.1713 565.584 53.6426 562.125 53.1135C563.46 54.1582 564.029 54.9745 564.688 55.062C569.351 55.681 574.029 56.5264 578.71 56.5954C590.55 56.7684 602.394 56.5682 614.236 56.5245C617.854 56.5099 621.472 56.5216 625.184 56.5216C626.162 61.7361 627.86 66.1548 626.374 71.5501L609.422 69.9409C617.101 72.8465 658.81 73.9883 666.125 72.1429C662.007 70.4015 657.078 73.4393 653.18 69.866V58.3048L677.137 60.9898C677.239 64.8167 677.875 68.111 676.524 71.4734L669.107 72.1488L669.103 72.7095L680.637 74.1331C681.644 77.8861 681.389 81.0454 678.958 83.9967C673.712 84.0258 668.392 83.7703 663.788 87.2599C672.457 84.6526 681.205 85.4631 689.911 85.777L690.66 92.319L691.119 92.2247V84.3281L682.29 83.5215V73.3489L678.765 70.6143V60.5078C679.85 59.8732 680.828 59.3018 681.628 58.8325C672.945 58.1736 664.209 57.4214 655.46 56.8675C645.61 56.2436 635.749 55.7986 625.893 55.2709C624.822 55.2145 623.716 55.2767 622.685 55.0241C617.792 53.8278 612.974 54.1242 608.022 54.9415C604.308 55.5556 600.427 55.0629 596.443 55.0629V43.1392C601.41 43.1392 605.906 43.0469 610.397 43.1645C614.904 43.2821 619.406 43.6105 623.911 43.8467C623.927 43.32 623.946 42.7942 623.963 42.2695C610.918 41.4609 597.786 42.4201 584.483 41.6874L583.845 29.7131C590.939 29.2272 597.755 28.4556 604.583 28.3507C621.16 28.0961 637.739 28.1787 654.32 28.0494C656.291 28.0348 658.486 28.6704 661.158 26.447L652.886 25.0865L651.227 25.4276C644.564 26.0203 637.849 25.6647 631.07 25.6472C629.524 25.6433 627.977 25.6501 626.424 25.6967L624.059 25.102C619.935 26.7385 608.856 27.3769 599.553 26.5869L593.963 26.9251H593.962C593.645 26.9792 593.325 27.0068 593.003 27.0077C576.469 26.7016 559.9 27.995 543.408 25.6695C538.506 24.9786 533.658 26.3809 528.8 26.6695C514.657 27.512 500.484 26.8638 486.299 27.9406C471.944 29.029 457.465 28.3429 443.041 28.3944C441.611 28.3993 440.179 28.134 438.446 27.9639C438.303 22.4413 437.76 17.3618 439.01 12.3843L444.035 11.5331L444.001 10.4437H422.649L420.12 10.2464H393.545L391.358 10.2105H377.263V27.787C367.593 29.1572 358.109 27.4187 348.015 26.5694V11.6594C353.677 9.51662 359.323 11.2648 364.899 10.4349C364.882 9.94614 364.859 9.45637 364.836 8.96659C364.207 9.02684 363.545 9.06085 362.843 9.05794L334.803 9.88686C333.224 9.94614 331.612 10.0093 329.979 10.0734L329.97 10.1677L302.72 11.535C302.71 11.4271 299.622 11.5574 299.583 11.6642L271.901 12.7429L271.891 12.6623C271.107 12.7041 270.373 12.7429 269.708 12.7799C265.597 14.2278 261.261 11.9091 257.455 15.425C263.87 15.082 269.682 14.805 275.489 14.4513C281.256 14.0995 287.015 13.5106 292.786 13.3192C298.764 13.12 304.755 13.2745 310.952 13.2745L310.075 23.8358C307.797 23.9514 305.907 24.1293 304.017 24.1312C249.975 24.1769 195.933 24.2031 141.89 24.24C137.192 24.2439 132.529 23.861 127.842 25.2934C125.31 26.068 122.387 25.4305 119.422 25.4305L118.294 16.6602C115.207 16.2151 112.738 15.8594 110.644 15.5562L108.538 5.83066L107.663 6.00655C107.935 10.1347 108.209 14.2628 108.484 18.4084C105.162 18.9885 102.237 19.7116 99.2751 19.9778C87.5426 21.0322 75.8004 21.9321 64.0641 22.9106C58.5157 23.3742 52.908 23.483 47.4393 24.4509C33.9066 26.8483 20.4789 25.0495 7.02977 23.8892C5.63976 23.7697 4.32265 22.7406 2.37566 21.867V9.71583C-1.70106 14.0198 2.21527 19.4132 0 24.2468C4.34889 24.7337 8.64433 24.9319 12.8309 25.7395C23.9578 27.8842 35.1576 26.9989 46.2768 26.4518C57.1422 25.9173 67.9328 23.8883 78.7865 22.8708C87.5378 22.0487 96.3386 21.8203 105.108 21.1877C107.422 21.0225 109.703 20.3393 112.096 19.8758L110.558 17.2267L116.165 17.8341C117.64 21.4229 115.191 25.3673 118.457 27.6529L136.615 25.5364L138.744 37.1579L139.73 36.9946L138.697 26.1156C146.116 25.0573 188.611 25.3926 192.572 26.4538L193.54 40.0791C184.758 41.3356 176.222 38.3891 167.168 39.0082L166.669 27.6811L165.614 27.7161V39.1044H130.296C138.405 40.6602 146.504 41.4162 154.612 41.5601C170.325 41.838 186.044 41.7612 201.76 41.8681C203.411 41.8798 205.062 42.1451 207.256 42.3414C206.76 46.5647 207.823 50.5004 206.402 54.6966H208.122L209.677 42.459C224.89 41.7029 239.447 40.9925 254 40.2258C254.807 40.1831 255.601 39.6962 256.382 39.3668C256.541 39.2997 256.665 39.0227 256.712 38.8177C256.746 38.6748 256.622 38.4912 256.518 38.1724C236.356 40.8516 216.091 40.6884 195.843 40.3463C194.786 35.124 193.168 30.6586 194.871 25.4693C196.876 25.4693 198.778 25.4674 200.681 25.4693C209.077 25.4791 217.474 25.4956 225.871 25.4975C239.867 25.5034 253.864 25.3236 267.857 25.55C281.776 25.7745 295.696 26.3216 309.608 26.9017C314.458 27.1039 319.287 27.823 324.393 28.3332C324.67 35.0482 325.071 41.2297 322.406 47.4199C311.32 47.829 300.387 48.3071 289.449 48.6035C283.857 48.7541 278.256 48.5763 272.657 48.5501C270.882 48.5433 269.107 48.5501 267.331 48.5501C267.754 49.4597 268.145 49.7609 268.53 49.7551C285.064 49.4529 301.596 50.7852 318.14 48.8037C328.348 47.5822 338.702 47.4034 348.995 47.3305C366.694 47.2071 384.395 47.1828 402.095 47.1808H402.096ZM472.667 181.74H472.674C472.634 181.74 472.594 181.74 472.554 181.74H472.547L472.377 181.746L472.384 181.75L472.666 181.74H472.667ZM448.153 204.573V204.551C448.15 204.485 448.15 204.415 448.147 204.35C448.107 204.47 448.102 204.6 448.133 204.723C448.141 204.687 448.151 204.651 448.163 204.616C448.16 204.601 448.154 204.589 448.153 204.573ZM450.065 192.212L450.049 192.249L450.074 192.246C450.072 192.234 450.067 192.225 450.065 192.212ZM466.506 182.15C465.867 182.227 465.231 182.32 464.597 182.427V183.686C465.231 183.572 465.867 183.476 466.506 183.396V182.151V182.15ZM450.778 193.133L450.209 192.557C450.139 192.475 450.094 192.375 450.079 192.268C449.871 192.745 449.681 193.23 449.512 193.725C449.873 193.657 450.248 193.593 450.631 193.528C450.68 193.397 450.726 193.263 450.778 193.133ZM493.413 190.704L494.097 190.648C493.853 189.907 493.545 189.188 493.178 188.499C492.854 188.502 492.531 188.514 492.208 188.535C492.54 188.979 492.847 189.446 493.093 189.966C493.208 190.21 493.313 190.456 493.413 190.705" fill="#BFBFBF"/>
<path fill-rule="evenodd" clip-rule="evenodd" d="M448.162 204.616C448.223 205.062 448.764 205.269 448.807 204.692C448.814 204.565 448.822 204.439 448.836 204.305L448.858 204.007C448.735 204.02 448.613 204.03 448.49 204.044C448.433 204.05 448.378 204.069 448.33 204.1C448.281 204.13 448.24 204.17 448.208 204.218C448.212 204.31 448.212 204.403 448.216 204.494C448.194 204.533 448.176 204.574 448.162 204.616ZM459.288 219.378L459.253 219.375L459.288 219.696V219.378ZM450.074 192.246C450.075 192.254 450.078 192.261 450.079 192.268L450.089 192.244L450.074 192.246ZM470.466 181.81L470.488 181.809L470.466 181.81ZM472.41 181.723L472.34 181.726L472.41 181.723ZM472.334 181.723H472.327C471.676 181.745 471.06 181.768 470.466 181.791L470.488 181.809C471.079 181.781 471.694 181.754 472.34 181.726L472.334 181.723Z" fill="#BFBFBF"/>
<path fill-rule="evenodd" clip-rule="evenodd" d="M470.671 181.807L471.129 181.79L471.82 181.765C472.005 181.758 472.189 181.752 472.376 181.746L472.34 181.727L470.487 181.809L470.497 181.817L470.555 181.815C470.59 181.815 470.627 181.815 470.672 181.807H470.671ZM729.399 223.54L728.999 223.539L729.405 223.657L729.399 223.54ZM729.361 393.073C724.132 393.14 718.905 392.681 713.741 392.214C708.478 391.738 703.822 393.351 698.837 393.38C708.903 393.807 718.953 393.93 729 393.928L729.361 393.073ZM722.697 435.501L722.191 433.599C721.302 433.569 720.399 433.614 719.524 433.659C714.847 433.902 710.169 434.611 705.502 434.518C698.246 434.373 691.001 433.681 683.748 433.307C682.312 433.232 680.859 433.546 679.412 433.681C690.112 434.734 700.758 435.406 711.41 435.902C715.156 436.076 718.946 435.419 722.697 435.501ZM723.967 405.825L723.492 397.508L722.846 397.515L722.167 406.627H699.915C707.557 407.541 715.204 408.05 722.853 408.458L723.967 405.825ZM692.777 384.825L690.466 394.28C687.313 395.683 684.018 393.891 681.397 396.486C685.984 395.064 691.045 397.997 695.978 394.225C691.576 392.435 694.374 388.306 692.777 384.825ZM686.32 422.724H705.699L704.856 411.063L704.171 411.078L703.64 421.874H686.258C686.278 422.157 686.299 422.44 686.32 422.724ZM720.243 411.063C719.673 413.789 719.344 415.388 719.314 416.82L720.813 413.279C720.677 412.527 720.486 411.787 720.243 411.063ZM695.508 406.184H685.286L685.352 407.175H696.688C697.1 403.486 697.133 400.455 696.002 397.458L695.508 406.184Z" fill="#BFBFBF"/>
<path fill-rule="evenodd" clip-rule="evenodd" d="M507.989 186.499C507.95 186.489 507.921 186.489 507.882 186.48C507.95 186.178 507.93 185.838 507.755 185.624C502.399 179.075 504.927 168.404 498.035 162.826C492.144 158.084 481.442 157.443 473.559 157.608H473.549L473.369 157.614L473.549 157.608L472.582 157.641L471.662 157.673L471.051 157.695L471.112 157.693L471.051 157.695C470.993 157.705 470.944 157.705 470.896 157.705C463.129 158.055 454.06 159.396 448.121 164.906C447.82 165.178 447.538 165.47 447.256 165.761C447.197 165.82 447.139 165.888 447.091 165.946C445.866 167.277 444.865 168.764 444.067 170.367C444.058 170.367 444.058 170.367 444.058 170.377C444.019 170.445 443.98 170.513 443.951 170.591C443.951 170.601 443.941 170.62 443.941 170.63C441.443 175.732 440.869 181.883 441.132 187.383C440.85 187.84 440.986 188.744 441.53 188.724C444.923 188.608 448.315 188.443 451.698 188.268C452.573 206.178 453.584 224.019 453.457 241.968C453.457 242.26 453.642 242.814 454.021 242.784C455.46 242.668 456.898 242.561 458.327 242.454C466.249 241.871 474.142 241.463 482.103 241.667C483.979 241.716 485.846 241.793 487.722 241.89C488.626 241.939 489.918 242.201 491.192 242.357C491.581 242.405 491.979 242.444 492.349 242.464C493.107 242.512 493.807 242.474 494.332 242.279C495.653 241.803 495.731 241.657 496.295 240.287C497.345 237.731 496.023 232.017 495.896 229.354C495.673 224.923 495.469 220.482 495.352 216.041C495.099 206.537 495.313 197.072 496.47 187.626C500.3 187.86 504.139 188.102 507.901 187.821C508.436 187.782 508.494 186.596 507.989 186.499Z" fill="white"/>
<path fill-rule="evenodd" clip-rule="evenodd" d="M462.868 187.687C455.762 188.017 448.656 188.483 441.531 188.726C440.822 188.746 440.802 187.23 441.492 187.133C447.568 186.316 453.74 185.879 459.913 185.636C460.885 186.355 461.866 187.035 462.868 187.687Z" fill="#777777"/>
<path fill-rule="evenodd" clip-rule="evenodd" d="M507.902 187.823C504.14 188.104 500.301 187.861 496.471 187.628C496.403 187.628 496.325 187.619 496.257 187.619L495.295 187.56C494.653 187.521 494.021 187.482 493.39 187.453C492.534 187.414 491.689 187.376 490.843 187.356C486.138 187.24 481.414 187.21 476.709 187.249L474.707 187.278C474.551 187.278 474.396 187.278 474.24 187.288C471.383 187.337 468.535 187.424 465.687 187.55C464.744 187.589 463.81 187.638 462.868 187.687C461.866 187.035 460.885 186.355 459.913 185.636C461.06 185.587 462.216 185.549 463.363 185.519C466.309 185.432 469.244 185.383 472.18 185.354C473.045 185.345 473.91 185.335 474.765 185.335C475.047 185.325 475.329 185.325 475.611 185.325C480.413 185.286 485.429 185.111 490.454 185.111C491.552 185.111 492.661 185.121 493.759 185.15C494.391 185.16 495.023 185.179 495.654 185.199C495.936 185.218 496.218 185.228 496.5 185.238C500.417 185.413 504.286 185.772 507.99 186.501C508.495 186.598 508.437 187.784 507.902 187.823Z" fill="#777777"/>
<path fill-rule="evenodd" clip-rule="evenodd" d="M507.883 186.481C507.766 186.948 507.406 187.288 507.018 186.812C506.862 186.627 506.716 186.433 506.58 186.239C502.634 180.903 503.363 174.188 500.563 168.348C496.792 160.467 484.738 159.563 476.68 159.369H476.671C476.194 159.349 475.737 159.34 475.29 159.33C474.551 159.32 473.803 159.311 473.045 159.311C465.793 159.349 457.832 160.311 451.66 164.131C450.814 164.655 450.046 165.219 449.356 165.812C448.967 166.142 448.608 166.482 448.268 166.842C447.079 168.063 446.08 169.455 445.303 170.972C445.089 171.39 444.885 171.817 444.69 172.255C442.785 176.715 442.396 181.924 442.037 187.065C442.017 187.239 442.008 187.405 441.998 187.57C441.94 188.347 441.172 188.036 441.133 187.414V187.385C440.87 181.885 441.444 175.734 443.942 170.632C443.942 170.622 443.952 170.603 443.952 170.593C443.981 170.515 444.02 170.447 444.059 170.379C444.059 170.369 444.059 170.369 444.068 170.369C444.865 168.766 445.867 167.279 447.091 165.948C447.14 165.889 447.198 165.821 447.257 165.763C447.539 165.472 447.82 165.18 448.122 164.908C454.061 159.398 463.13 158.057 470.897 157.707C470.945 157.707 470.994 157.707 471.052 157.697C471.849 157.668 472.675 157.639 473.55 157.61H473.56C481.443 157.445 492.145 158.086 498.036 162.828C504.928 168.406 502.4 179.077 507.756 185.626C507.931 185.84 507.951 186.18 507.883 186.481ZM462.888 210.085C467.674 207.56 469.251 201.714 468.607 196.678C468.471 195.615 467.324 196.01 467.388 196.96C467.944 205.301 468.355 213.706 469.296 222.012C469.406 222.981 470.423 222.601 470.395 221.756C470.118 213.481 469.297 205.183 468.637 196.93L467.416 197.212C468.072 202.176 465.832 205.575 462.539 208.933C462.274 209.205 462.331 210.379 462.889 210.085H462.888ZM475.822 203.324C476.117 200.569 483.013 196.491 485.459 200.123C486.616 202.009 486.349 203.9 485.216 205.793L483.404 207.959C481.889 209.713 480.262 211.365 479.117 213.398C477.462 216.334 477.168 219.175 478.152 222.333C478.228 222.575 478.557 222.89 478.833 222.732C482.027 220.904 485.302 220.873 488.539 222.611C489.332 223.037 489.585 221.091 488.837 220.703C486.763 219.628 484.634 219.094 482.297 219.477C481.752 219.567 479.94 220.391 479.618 220.321C476.124 219.562 481.548 212.291 482.03 211.709C484.381 208.865 488.718 205.516 487.807 201.307C486.269 194.187 474.774 195.924 474.658 203.114C474.645 203.99 475.711 204.356 475.822 203.324Z" fill="#777777"/>
<path fill-rule="evenodd" clip-rule="evenodd" d="M465.829 224.348C466.823 224.4 467.871 224.023 468.845 223.826C469.867 223.619 472.841 223.503 473.875 223.376C474.623 223.284 474.587 221.624 473.833 221.675C471.852 221.812 467.249 222.108 465.627 223.347C465.341 223.565 465.417 224.325 465.83 224.348" fill="#777777"/>
<path fill-rule="evenodd" clip-rule="evenodd" d="M496.296 240.289C495.732 241.659 495.654 241.805 494.332 242.281C493.808 242.475 493.108 242.514 492.35 242.466C491.98 242.446 491.582 242.407 491.193 242.359C489.919 242.203 488.627 241.941 487.723 241.892C485.847 241.795 483.98 241.717 482.104 241.669C472.705 241.426 463.383 242.038 454.022 242.786C453.643 242.816 453.458 242.262 453.458 241.969C453.585 223.594 452.525 205.324 451.641 186.977C451.592 186.025 452.545 186.044 452.642 186.958C453.896 199.523 454.275 212.234 454.498 224.857C454.557 228.025 454.605 231.183 454.596 234.351C454.596 235.78 454.139 237.782 454.566 239.094C455.208 241.076 455.393 240.648 457.706 240.678C463.597 240.754 469.575 239.861 475.494 239.832C478.624 239.822 481.745 239.871 484.865 239.997C486.362 240.056 489.054 240.551 491.261 240.493C491.805 240.483 492.311 240.435 492.767 240.337C493.37 240.221 493.885 240.007 494.245 239.686C496.014 238.093 494.887 232.748 494.76 230.338C494.624 227.491 494.478 224.634 494.371 221.777C493.905 210.347 493.856 198.911 495.295 187.56C495.373 186.88 495.46 186.209 495.557 185.529C495.577 185.393 495.606 185.286 495.654 185.199C495.936 185.218 496.218 185.228 496.5 185.238C496.636 185.422 496.714 185.685 496.675 185.966C496.597 186.52 496.529 187.074 496.471 187.628C495.314 197.074 495.1 206.539 495.353 216.043C495.47 220.484 495.674 224.924 495.897 229.356C496.024 232.019 497.346 237.733 496.296 240.289Z" fill="#777777"/>
<path fill-rule="evenodd" clip-rule="evenodd" d="M459.096 185.675C459.203 185.84 459.261 186.112 459.213 186.258C459.038 186.802 458.873 187.346 458.727 187.891C456.151 197.288 457.376 205.752 458.338 215.45C459.184 223.846 460.544 233.875 458.61 242.164C458.532 242.505 458.153 242.582 458.095 242.184C457.414 237.053 458.037 231.66 457.852 226.47C457.657 221.32 457.269 216.179 456.705 211.048C455.908 203.701 454.498 195.033 457.531 187.959H457.541C457.871 187.181 458.25 186.423 458.698 185.694V185.685L459.096 185.675ZM492.767 240.338C492.651 241.057 492.515 241.766 492.349 242.466C491.98 242.446 491.582 242.407 491.193 242.359C491.202 241.737 491.232 241.115 491.261 240.493C491.484 236.674 491.912 232.865 491.873 229.016C491.834 224.089 491.484 219.172 491.251 214.255C490.833 205.12 490.046 195.509 491.251 186.413C491.339 185.724 491.98 185.996 492.009 186.55C492.641 196.637 492.145 206.84 492.68 216.966C493.078 224.42 494.031 232.748 492.767 240.338ZM465.687 187.549C464.744 187.588 463.81 187.637 462.868 187.686C461.862 187.032 460.876 186.349 459.913 185.635C454.226 181.505 448.88 176.395 444.098 171.661C443.68 171.253 443.932 169.805 444.564 170.349C450.659 175.529 457.269 180.3 463.363 185.518C464.151 186.179 464.919 186.86 465.687 187.549ZM476.709 187.249L474.707 187.278C474.551 187.278 474.396 187.278 474.24 187.288C473.56 186.637 472.88 185.996 472.18 185.354C464.763 178.6 456.248 172.925 448.268 166.842C447.879 166.55 447.48 166.249 447.091 165.948C447.14 165.89 447.198 165.821 447.257 165.763C447.539 165.472 447.82 165.18 448.122 164.908C448.53 165.209 448.948 165.511 449.356 165.812C455.014 169.971 460.583 174.247 466.182 178.474C469.05 180.641 472.073 182.837 474.765 185.335C475.436 185.947 476.087 186.588 476.709 187.249Z" fill="#777777"/>
<path fill-rule="evenodd" clip-rule="evenodd" d="M496.257 187.618C495.295 187.56 494.342 187.502 493.39 187.453C492.398 186.686 491.426 185.908 490.454 185.111C486.731 182.07 483.096 178.872 479.169 176.161C472.131 171.312 464.695 167.328 457.22 163.237C456.695 162.945 456.715 161.487 457.453 161.74C457.667 161.818 457.891 161.895 458.105 161.973C458.163 161.993 458.212 162.032 458.241 162.09C465.531 165.326 472.462 169.602 479.033 174.072C483.922 177.405 489.259 180.981 493.759 185.15C494.624 185.947 495.46 186.773 496.257 187.618Z" fill="#777777"/>
<path fill-rule="evenodd" clip-rule="evenodd" d="M473.55 157.61C472.675 157.639 471.849 157.668 471.052 157.697L473.55 157.61Z" fill="black"/>
<path fill-rule="evenodd" clip-rule="evenodd" d="M503.052 181.331C497.433 177.648 492.437 172.818 487.013 168.815C482.561 165.53 477.487 162.702 473.045 159.311C472.364 158.795 471.694 158.251 471.052 157.697C471.849 157.668 472.675 157.639 473.55 157.61H473.56C474.61 158.135 475.65 158.727 476.67 159.369H476.68C480.267 161.575 483.679 164.296 486.887 166.609C492.563 170.7 498.775 174.927 503.479 180.126C503.81 180.495 503.732 181.768 503.052 181.331Z" fill="#777777"/>
</g>
<defs>
<clipPath id="clip0">
<rect width="730" height="792" fill="white"/>
</clipPath>
</defs>
</svg>
