<svg width="482" height="218" viewBox="0 0 482 218" fill="none" xmlns="http://www.w3.org/2000/svg">
<path fill-rule="evenodd" clip-rule="evenodd" d="M3.62582 188.588H16.7427C16.6049 187.526 16.5429 186.442 16.5429 185.356C16.5429 176.235 21.7883 168.47 29.4599 164.875V79.0352C29.4599 77.0962 30.7515 75.8036 32.6891 75.8036H81.1285V4.37907C81.1285 2.44003 82.4201 1.14746 84.3577 1.14746H171.549C173.487 1.14708 174.779 2.43965 174.779 4.37869V188.588H190.925C192.863 188.588 194.154 189.881 194.154 191.82C194.154 193.759 192.863 195.052 190.925 195.052H171.549H161.861H84.3584H20.7412H3.62582C1.68825 195.052 0.396637 193.759 0.396637 191.82C0.396637 189.881 1.68825 188.588 3.62582 188.588ZM39.1483 162.734C41.5862 162.734 43.9775 163.149 46.2367 163.926C46.7994 163.175 47.7065 162.734 48.8362 162.734C50.7737 162.734 52.0653 164.026 52.0653 165.965V166.956C53.2892 167.838 54.4271 168.845 55.4599 169.964C55.623 170.137 55.7834 170.312 55.9405 170.49C58.6164 167.142 62.0632 164.721 65.9603 163.542C66.52 163.028 67.2916 162.733 68.2119 162.733C68.5718 162.733 68.9094 162.779 69.2208 162.864C69.9501 162.779 70.6907 162.733 71.4411 162.733C73.465 162.733 75.7439 162.996 77.5903 163.747C77.8188 163.824 78.0459 163.903 78.2707 163.989C80.5023 162.173 83.1124 160.866 85.8628 160.147C86.1905 160.064 86.4312 160.005 86.673 159.952C86.869 159.909 87.0674 159.872 87.2653 159.834L87.3459 159.819C87.405 159.808 87.4641 159.797 87.5234 159.787C87.7311 159.751 87.9396 159.719 88.1497 159.69C88.2435 159.676 88.3374 159.665 88.4316 159.653C88.6242 159.629 88.8176 159.607 89.0121 159.589C89.1396 159.577 89.2674 159.568 89.3952 159.559L89.4386 159.556L89.5586 159.547C89.6707 159.539 89.7828 159.531 89.8958 159.525C90.2027 159.511 90.5096 159.501 90.8169 159.501C91.0545 159.501 91.2903 159.506 91.5249 159.515C91.6549 159.52 91.7846 159.527 91.9142 159.535L91.9851 159.539C95.1117 159.745 98.0022 160.576 100.505 162.047V82.2667H84.3585H35.9191V162.962C36.9731 162.815 38.0501 162.734 39.1483 162.734ZM87.5872 75.8035V7.6106H168.319V188.589H164.856C164.408 185.47 163.318 182.538 161.717 179.946C161.81 179.623 161.86 179.271 161.86 178.894V172.43C161.86 170.491 160.569 169.199 158.631 169.199C156.694 169.199 155.402 170.491 155.402 172.43V173.287C152.509 171.286 149.109 169.947 145.391 169.522C144.931 166.389 143.839 163.441 142.253 160.826C142.404 160.432 142.485 159.988 142.485 159.503V153.039C142.485 151.1 141.193 149.808 139.256 149.808C137.318 149.808 136.027 151.1 136.027 153.039V154.048C132.368 151.389 127.916 149.807 123.11 149.807C122.76 149.807 122.411 149.818 122.064 149.835C121.983 149.839 121.901 149.844 121.82 149.849H121.82C121.513 149.867 121.207 149.89 120.792 149.931C118.171 150.206 115.663 150.94 113.14 152.167C112.954 152.26 112.77 152.354 112.587 152.452C110.516 153.545 108.613 154.943 106.963 156.594V79.0351C106.963 77.0961 105.671 75.8035 103.734 75.8035H87.5872ZM143.955 175.728C143.891 175.722 143.826 175.719 143.762 175.714C143.591 175.7 143.421 175.688 143.249 175.68C142.996 175.668 142.741 175.661 142.485 175.661C140.547 175.661 139.256 174.368 139.256 172.429C139.256 163.38 132.151 156.27 123.109 156.27C115.036 156.27 108.254 162.087 107.285 170.167C107.067 171.041 106.549 171.761 105.84 172.24C105.795 172.271 105.749 172.301 105.703 172.33L105.684 172.341L105.684 172.341C105.64 172.368 105.597 172.395 105.551 172.42C105.432 172.485 105.308 172.546 105.178 172.598C105.173 172.599 105.169 172.601 105.164 172.604C105.016 172.663 104.862 172.712 104.702 172.752L104.702 172.752L104.702 172.752C104.509 172.816 104.291 172.841 104.06 172.834C102.999 172.849 102.011 172.268 101.473 171.461C101.473 171.46 101.472 171.46 101.472 171.46L101.149 171.137C98.5656 167.905 95.0137 165.966 90.8153 165.966C88.6348 165.966 86.4554 166.577 84.4993 167.72C88.3514 171.345 90.5357 176.07 90.7896 181.126C90.8066 181.457 90.8153 181.79 90.8153 182.125C90.8153 184.372 90.4418 186.526 89.7028 188.589H158.308C156.797 181.63 151.041 176.372 143.955 175.728ZM84.0356 181.801C84.0356 184.031 83.314 186.5 82.0803 188.588H23.3244C23.0016 187.618 23.0016 186.326 23.0016 185.356C23.0016 176.307 30.1063 169.197 39.1482 169.197C41.7836 169.197 44.2979 169.797 46.5159 170.913C46.8637 171.254 47.3008 171.506 47.8098 171.648C50.1682 173.137 52.1057 175.262 53.3572 177.923C53.8265 178.863 54.4672 179.458 55.2774 179.591C55.618 179.764 55.9571 179.862 56.2636 179.862C57.8784 179.862 58.8472 178.893 59.17 177.923C61.7535 170.813 70.1498 167.258 77.2541 171.136C77.72 171.369 78.2275 171.475 78.7319 171.471C79.2526 171.83 79.7457 172.226 80.2082 172.655C82.6279 175.008 84.0356 178.228 84.0356 181.801Z" fill="white"/>
<path d="M87.5877 128.428C89.5253 128.428 90.8169 129.72 90.8169 131.659V138.123C90.8169 140.062 89.5253 141.354 87.5877 141.354C85.6502 141.354 84.3586 140.062 84.3586 138.123V131.659C84.3586 129.72 85.6502 128.428 87.5877 128.428Z" fill="white"/>
<path d="M87.5877 89.6465C89.5253 89.6465 90.8169 90.9391 90.8169 92.8781V99.3417C90.8169 101.281 89.5253 102.573 87.5877 102.573C85.6502 102.573 84.3586 101.281 84.3586 99.3417V92.8781C84.3586 90.9391 85.6502 89.6465 87.5877 89.6465Z" fill="white"/>
<path d="M87.5877 109.037C89.5253 109.037 90.8169 110.33 90.8169 112.269V118.732C90.8169 120.671 89.5253 121.964 87.5877 121.964C85.6502 121.964 84.3586 120.671 84.3586 118.732V112.269C84.3586 110.33 85.6502 109.037 87.5877 109.037Z" fill="white"/>
<path d="M68.2113 102.573C66.2737 102.573 64.9821 101.281 64.9821 99.3417V92.8781C64.9821 90.9391 66.2737 89.6465 68.2113 89.6465C70.1488 89.6465 71.4404 90.9391 71.4404 92.8781V99.3417C71.4404 101.281 70.1488 102.573 68.2113 102.573Z" fill="white"/>
<path d="M68.2113 121.964C66.2737 121.964 64.9821 120.671 64.9821 118.732V112.269C64.9821 110.33 66.2737 109.037 68.2113 109.037C70.1488 109.037 71.4404 110.33 71.4404 112.269V118.732C71.4404 120.671 70.1488 121.964 68.2113 121.964Z" fill="white"/>
<path d="M68.2113 141.354C66.2737 141.354 64.9821 140.062 64.9821 138.123V131.659C64.9821 129.72 66.2737 128.428 68.2113 128.428C70.1488 128.428 71.4404 129.72 71.4404 131.659V138.123C71.4404 140.062 70.1488 141.354 68.2113 141.354Z" fill="white"/>
<path d="M48.8353 102.573C46.8977 102.573 45.6061 101.281 45.6061 99.3417V92.8781C45.6061 90.9391 46.8977 89.6465 48.8353 89.6465C50.7729 89.6465 52.0645 90.9391 52.0645 92.8781V99.3417C52.0645 101.281 50.7729 102.573 48.8353 102.573Z" fill="white"/>
<path d="M48.8353 141.354C46.8977 141.354 45.6061 140.062 45.6061 138.123V131.659C45.6061 129.72 46.8977 128.428 48.8353 128.428C50.7729 128.428 52.0645 129.72 52.0645 131.659V138.123C52.0645 140.062 50.7729 141.354 48.8353 141.354Z" fill="white"/>
<path d="M48.8353 121.964C46.8977 121.964 45.6061 120.671 45.6061 118.732V112.269C45.6061 110.33 46.8977 109.037 48.8353 109.037C50.7729 109.037 52.0645 110.33 52.0645 112.269V118.732C52.0645 120.671 50.7729 121.964 48.8353 121.964Z" fill="white"/>
<path d="M158.631 123.953C156.694 123.953 155.402 122.661 155.402 120.722V114.258C155.402 112.319 156.694 111.027 158.631 111.027C160.569 111.027 161.86 112.319 161.86 114.258V120.722C161.861 122.66 160.569 123.953 158.631 123.953Z" fill="white"/>
<path d="M158.631 143.344C156.694 143.344 155.402 142.051 155.402 140.112V133.649C155.402 131.71 156.694 130.417 158.631 130.417C160.569 130.417 161.86 131.71 161.86 133.649V140.112C161.861 142.051 160.569 143.344 158.631 143.344Z" fill="white"/>
<path d="M158.631 162.734C156.694 162.734 155.402 161.442 155.402 159.502V153.039C155.402 151.1 156.694 149.807 158.631 149.807C160.569 149.807 161.86 151.1 161.86 153.039V159.502C161.861 161.441 160.569 162.734 158.631 162.734Z" fill="white"/>
<path d="M158.631 27.0014C156.694 27.0014 155.402 25.7088 155.402 23.7698V17.3061C155.402 15.3671 156.694 14.0745 158.631 14.0745C160.569 14.0745 161.86 15.3671 161.86 17.3061V23.7698C161.861 25.7084 160.569 27.0014 158.631 27.0014Z" fill="white"/>
<path d="M158.631 46.3916C156.694 46.3916 155.402 45.099 155.402 43.16V36.6963C155.402 34.7573 156.694 33.4647 158.631 33.4647C160.569 33.4647 161.86 34.7573 161.86 36.6963V43.16C161.861 45.0986 160.569 46.3916 158.631 46.3916Z" fill="white"/>
<path d="M158.631 65.7821C156.694 65.7821 155.402 64.4895 155.402 62.5505V56.0869C155.402 54.1478 156.694 52.8553 158.631 52.8553C160.569 52.8553 161.86 54.1478 161.86 56.0869V62.5505C161.861 64.4892 160.569 65.7821 158.631 65.7821Z" fill="white"/>
<path d="M158.631 85.1726C156.694 85.1726 155.402 83.8801 155.402 81.941V75.4774C155.402 73.5384 156.694 72.2458 158.631 72.2458C160.569 72.2458 161.86 73.5384 161.86 75.4774V81.941C161.861 83.8797 160.569 85.1726 158.631 85.1726Z" fill="white"/>
<path d="M158.631 104.563C156.694 104.563 155.402 103.27 155.402 101.331V94.8676C155.402 92.9286 156.694 91.636 158.631 91.636C160.569 91.636 161.86 92.9286 161.86 94.8676V101.331C161.861 103.27 160.569 104.563 158.631 104.563Z" fill="white"/>
<path d="M139.255 46.3916C137.318 46.3916 136.026 45.099 136.026 43.16V36.6963C136.026 34.7573 137.318 33.4647 139.255 33.4647C141.193 33.4647 142.484 34.7573 142.484 36.6963V43.16C142.485 45.0986 141.193 46.3916 139.255 46.3916Z" fill="white"/>
<path d="M139.255 27.0014C137.318 27.0014 136.026 25.7088 136.026 23.7698V17.3061C136.026 15.3671 137.318 14.0745 139.255 14.0745C141.193 14.0745 142.484 15.3671 142.484 17.3061V23.7698C142.485 25.7084 141.193 27.0014 139.255 27.0014Z" fill="white"/>
<path d="M139.255 85.1726C137.318 85.1726 136.026 83.8801 136.026 81.941V75.4774C136.026 73.5384 137.318 72.2458 139.255 72.2458C141.193 72.2458 142.484 73.5384 142.484 75.4774V81.941C142.485 83.8797 141.193 85.1726 139.255 85.1726Z" fill="white"/>
<path d="M139.255 65.7821C137.318 65.7821 136.026 64.4895 136.026 62.5505V56.0869C136.026 54.1478 137.318 52.8553 139.255 52.8553C141.193 52.8553 142.484 54.1478 142.484 56.0869V62.5505C142.485 64.4892 141.193 65.7821 139.255 65.7821Z" fill="white"/>
<path d="M139.255 104.563C137.318 104.563 136.026 103.27 136.026 101.331V94.8676C136.026 92.9286 137.318 91.636 139.255 91.636C141.193 91.636 142.484 92.9286 142.484 94.8676V101.331C142.485 103.27 141.193 104.563 139.255 104.563Z" fill="white"/>
<path d="M139.255 123.953C137.318 123.953 136.026 122.661 136.026 120.722V114.258C136.026 112.319 137.318 111.027 139.255 111.027C141.193 111.027 142.484 112.319 142.484 114.258V120.722C142.485 122.66 141.193 123.953 139.255 123.953Z" fill="white"/>
<path d="M139.255 143.344C137.318 143.344 136.026 142.051 136.026 140.112V133.649C136.026 131.71 137.318 130.417 139.255 130.417C141.193 130.417 142.484 131.71 142.484 133.649V140.112C142.485 142.051 141.193 143.344 139.255 143.344Z" fill="white"/>
<path d="M119.785 65.2461C117.847 65.2461 116.555 63.9535 116.555 62.0145V55.5509C116.555 53.6118 117.847 52.3192 119.785 52.3192C121.722 52.3192 123.014 53.6118 123.014 55.5509V62.0145C123.014 63.9531 121.722 65.2461 119.785 65.2461Z" fill="white"/>
<path d="M100.505 65.2461C98.5676 65.2461 97.276 63.9535 97.276 62.0145V55.5509C97.276 53.6118 98.5676 52.3192 100.505 52.3192C102.443 52.3192 103.734 53.6118 103.734 55.5509V62.0145C103.735 63.9531 102.443 65.2461 100.505 65.2461Z" fill="white"/>
<path d="M119.881 46.3916C117.944 46.3916 116.652 45.099 116.652 43.16V36.6963C116.652 34.7573 117.944 33.4647 119.881 33.4647C121.819 33.4647 123.11 34.7573 123.11 36.6963V43.16C123.111 45.0986 121.819 46.3916 119.881 46.3916Z" fill="white"/>
<path d="M119.881 27.0014C117.944 27.0014 116.652 25.7088 116.652 23.7698V17.3061C116.652 15.3671 117.944 14.0745 119.881 14.0745C121.819 14.0745 123.11 15.3671 123.11 17.3061V23.7698C123.111 25.7084 121.819 27.0014 119.881 27.0014Z" fill="white"/>
<path d="M119.881 143.344C117.944 143.344 116.652 142.051 116.652 140.112V133.649C116.652 131.71 117.944 130.417 119.881 130.417C121.819 130.417 123.11 131.71 123.11 133.649V140.112C123.111 142.051 121.819 143.344 119.881 143.344Z" fill="white"/>
<path d="M119.881 123.953C117.944 123.953 116.652 122.661 116.652 120.722V114.258C116.652 112.319 117.944 111.027 119.881 111.027C121.819 111.027 123.11 112.319 123.11 114.258V120.722C123.111 122.66 121.819 123.953 119.881 123.953Z" fill="white"/>
<path d="M119.881 104.563C117.944 104.563 116.652 103.27 116.652 101.331V94.8676C116.652 92.9286 117.944 91.636 119.881 91.636C121.819 91.636 123.11 92.9286 123.11 94.8676V101.331C123.111 103.27 121.819 104.563 119.881 104.563Z" fill="white"/>
<path d="M119.881 85.1726C117.944 85.1726 116.652 83.8801 116.652 81.941V75.4774C116.652 73.5384 117.944 72.2458 119.881 72.2458C121.819 72.2458 123.11 73.5384 123.11 75.4774V81.941C123.111 83.8797 121.819 85.1726 119.881 85.1726Z" fill="white"/>
<path d="M100.505 46.3916C98.5676 46.3916 97.276 45.099 97.276 43.16V36.6963C97.276 34.7573 98.5676 33.4647 100.505 33.4647C102.443 33.4647 103.734 34.7573 103.734 36.6963V43.16C103.735 45.0986 102.443 46.3916 100.505 46.3916Z" fill="white"/>
<path d="M100.505 27.0014C98.5676 27.0014 97.276 25.7088 97.276 23.7698V17.3061C97.276 15.3671 98.5676 14.0745 100.505 14.0745C102.443 14.0745 103.734 15.3671 103.734 17.3061V23.7698C103.735 25.7084 102.443 27.0014 100.505 27.0014Z" fill="white"/>
<path fill-rule="evenodd" clip-rule="evenodd" d="M339.933 211.536H326.816C326.954 210.474 327.016 209.39 327.016 208.305C327.016 199.183 321.771 191.418 314.099 187.823V101.984C314.099 100.044 312.808 98.7519 310.87 98.7519H262.431V27.3274C262.431 25.3883 261.139 24.0958 259.201 24.0958H172.01C170.072 24.0954 168.781 25.388 168.781 27.327V211.536H152.634C150.696 211.536 149.405 212.829 149.405 214.768C149.405 216.707 150.696 218 152.634 218H172.01H181.698H259.201H322.818H339.933C341.871 218 343.162 216.707 343.162 214.768C343.162 212.829 341.871 211.536 339.933 211.536ZM304.41 185.683C301.972 185.683 299.581 186.098 297.322 186.875C296.759 186.124 295.852 185.683 294.722 185.683C292.785 185.683 291.493 186.975 291.493 188.914V189.904C290.269 190.787 289.131 191.794 288.099 192.913C287.936 193.085 287.775 193.26 287.618 193.438C284.942 190.091 281.495 187.669 277.598 186.49C277.039 185.976 276.267 185.682 275.347 185.682C274.987 185.682 274.649 185.727 274.338 185.812C273.609 185.727 272.868 185.682 272.117 185.682C270.094 185.682 267.815 185.945 265.968 186.695C265.74 186.772 265.513 186.852 265.288 186.937C263.056 185.122 260.446 183.815 257.696 183.095C257.368 183.012 257.127 182.953 256.886 182.901C256.69 182.858 256.491 182.82 256.293 182.783L256.209 182.767L256.208 182.767C256.151 182.756 256.093 182.745 256.035 182.735C255.827 182.699 255.619 182.668 255.409 182.638C255.315 182.625 255.221 182.613 255.127 182.602C254.934 182.578 254.741 182.555 254.546 182.538C254.419 182.526 254.291 182.517 254.163 182.507L254.12 182.504L254 182.496L254 182.496L253.999 182.496C253.887 182.487 253.776 182.479 253.663 182.474C253.356 182.459 253.049 182.45 252.742 182.45C252.504 182.45 252.268 182.455 252.034 182.464C251.904 182.468 251.774 182.476 251.645 182.483L251.644 182.483L251.574 182.487C248.447 182.693 245.556 183.524 243.053 184.996V105.215H259.2H307.639V185.911C306.586 185.764 305.509 185.683 304.41 185.683ZM255.972 98.7518V30.5589H175.241V211.537H178.703C179.152 208.419 180.241 205.486 181.842 202.895C181.749 202.571 181.699 202.219 181.699 201.842V195.379C181.699 193.44 182.99 192.147 184.928 192.147C186.866 192.147 188.157 193.44 188.157 195.379V196.236C191.051 194.234 194.45 192.895 198.168 192.47C198.628 189.337 199.721 186.389 201.306 183.774C201.155 183.38 201.074 182.936 201.074 182.451V175.988C201.074 174.049 202.366 172.756 204.303 172.756C206.241 172.756 207.533 174.049 207.533 175.988V176.996C211.191 174.338 215.644 172.756 220.45 172.756C220.8 172.756 221.148 172.767 221.495 172.783C221.577 172.787 221.658 172.792 221.739 172.797C222.047 172.815 222.352 172.839 222.768 172.88C225.388 173.154 227.896 173.888 230.419 175.116C230.605 175.208 230.79 175.303 230.972 175.4C233.043 176.494 234.946 177.891 236.596 179.542V101.983C236.596 100.044 237.888 98.7518 239.825 98.7518H255.972ZM199.604 198.677C199.644 198.673 199.684 198.67 199.725 198.667L199.725 198.667C199.749 198.666 199.773 198.664 199.797 198.662C199.967 198.649 200.138 198.636 200.309 198.628C200.563 198.617 200.817 198.609 201.074 198.609C203.011 198.609 204.303 197.317 204.303 195.378C204.303 186.329 211.407 179.219 220.45 179.219C228.523 179.219 235.304 185.036 236.273 193.115C236.491 193.989 237.01 194.71 237.719 195.188C237.764 195.22 237.81 195.249 237.856 195.278L237.874 195.29C237.902 195.307 237.93 195.324 237.959 195.341C237.975 195.35 237.991 195.359 238.007 195.368C238.127 195.434 238.251 195.494 238.38 195.546C238.385 195.548 238.39 195.55 238.395 195.552C238.543 195.611 238.697 195.661 238.856 195.701L238.857 195.701L238.857 195.701C239.049 195.765 239.268 195.79 239.498 195.782C240.56 195.798 241.547 195.217 242.086 194.409L242.086 194.409L242.087 194.408L242.409 194.085C244.993 190.854 248.545 188.915 252.743 188.915C254.924 188.915 257.103 189.526 259.059 190.669C255.207 194.294 253.023 199.019 252.769 204.075C252.752 204.406 252.743 204.739 252.743 205.074C252.743 207.321 253.117 209.475 253.856 211.537H185.25C186.762 204.579 192.518 199.321 199.604 198.677ZM259.523 204.75C259.523 206.979 260.245 209.448 261.479 211.537H320.235C320.557 210.567 320.557 209.274 320.557 208.305C320.557 199.256 313.453 192.146 304.411 192.146C301.775 192.146 299.261 192.746 297.043 193.862C296.695 194.203 296.258 194.454 295.749 194.596C293.391 196.086 291.453 198.211 290.202 200.872C289.732 201.811 289.092 202.407 288.282 202.54C287.941 202.713 287.602 202.811 287.295 202.811C285.681 202.811 284.712 201.841 284.389 200.872C281.805 193.762 273.409 190.207 266.305 194.085C265.839 194.318 265.332 194.423 264.827 194.42C264.306 194.778 263.813 195.174 263.351 195.603C260.931 197.957 259.523 201.176 259.523 204.75Z" fill="white"/>
<path d="M255.971 151.376C254.033 151.376 252.742 152.668 252.742 154.608V161.071C252.742 163.01 254.033 164.303 255.971 164.303C257.908 164.303 259.2 163.01 259.2 161.071V154.608C259.2 152.668 257.908 151.376 255.971 151.376Z" fill="white"/>
<path d="M255.971 112.595C254.033 112.595 252.742 113.888 252.742 115.827V122.29C252.742 124.229 254.033 125.522 255.971 125.522C257.908 125.522 259.2 124.229 259.2 122.29V115.827C259.2 113.888 257.908 112.595 255.971 112.595Z" fill="white"/>
<path d="M255.971 131.985C254.033 131.985 252.742 133.278 252.742 135.217V141.681C252.742 143.62 254.033 144.912 255.971 144.912C257.908 144.912 259.2 143.62 259.2 141.681V135.217C259.2 133.278 257.908 131.985 255.971 131.985Z" fill="white"/>
<path d="M275.347 125.522C277.285 125.522 278.576 124.229 278.576 122.29V115.827C278.576 113.888 277.285 112.595 275.347 112.595C273.41 112.595 272.118 113.888 272.118 115.827V122.29C272.118 124.229 273.41 125.522 275.347 125.522Z" fill="white"/>
<path d="M275.347 144.912C277.285 144.912 278.576 143.62 278.576 141.681V135.217C278.576 133.278 277.285 131.985 275.347 131.985C273.41 131.985 272.118 133.278 272.118 135.217V141.681C272.118 143.62 273.41 144.912 275.347 144.912Z" fill="white"/>
<path d="M275.347 164.303C277.285 164.303 278.576 163.01 278.576 161.071V154.608C278.576 152.668 277.285 151.376 275.347 151.376C273.41 151.376 272.118 152.668 272.118 154.608V161.071C272.118 163.01 273.41 164.303 275.347 164.303Z" fill="white"/>
<path d="M294.723 125.522C296.661 125.522 297.952 124.229 297.952 122.29V115.827C297.952 113.888 296.661 112.595 294.723 112.595C292.786 112.595 291.494 113.888 291.494 115.827V122.29C291.494 124.229 292.786 125.522 294.723 125.522Z" fill="white"/>
<path d="M294.723 164.303C296.661 164.303 297.952 163.01 297.952 161.071V154.608C297.952 152.668 296.661 151.376 294.723 151.376C292.786 151.376 291.494 152.668 291.494 154.608V161.071C291.494 163.01 292.786 164.303 294.723 164.303Z" fill="white"/>
<path d="M294.723 144.912C296.661 144.912 297.952 143.62 297.952 141.681V135.217C297.952 133.278 296.661 131.985 294.723 131.985C292.786 131.985 291.494 133.278 291.494 135.217V141.681C291.494 143.62 292.786 144.912 294.723 144.912Z" fill="white"/>
<path d="M184.927 146.902C186.865 146.902 188.157 145.609 188.157 143.67V137.207C188.157 135.268 186.865 133.975 184.927 133.975C182.99 133.975 181.698 135.268 181.698 137.207V143.67C181.698 145.609 182.99 146.902 184.927 146.902Z" fill="white"/>
<path d="M184.927 166.292C186.865 166.292 188.157 165 188.157 163.061V156.597C188.157 154.658 186.865 153.365 184.927 153.365C182.99 153.365 181.698 154.658 181.698 156.597V163.061C181.698 164.999 182.99 166.292 184.927 166.292Z" fill="white"/>
<path d="M200.991 185.683C202.928 185.683 204.22 184.39 204.22 182.451V175.987C204.22 174.048 202.928 172.756 200.991 172.756C199.053 172.756 197.762 174.048 197.762 175.987V182.451C197.761 184.39 199.053 185.683 200.991 185.683Z" fill="white"/>
<path d="M184.927 49.9497C186.865 49.9497 188.157 48.6571 188.157 46.7181V40.2544C188.157 38.3154 186.865 37.0228 184.927 37.0228C182.99 37.0228 181.698 38.3154 181.698 40.2544V46.7181C181.698 48.6567 182.99 49.9497 184.927 49.9497Z" fill="white"/>
<path d="M184.927 69.3402C186.865 69.3402 188.157 68.0476 188.157 66.1085V59.6449C188.157 57.7059 186.865 56.4133 184.927 56.4133C182.99 56.4133 181.698 57.7059 181.698 59.6449V66.1085C181.698 68.0472 182.99 69.3402 184.927 69.3402Z" fill="white"/>
<path d="M184.927 88.7307C186.865 88.7307 188.157 87.4382 188.157 85.4991V79.0355C188.157 77.0965 186.865 75.8039 184.927 75.8039C182.99 75.8039 181.698 77.0965 181.698 79.0355V85.4991C181.698 87.4378 182.99 88.7307 184.927 88.7307Z" fill="white"/>
<path d="M184.927 108.121C186.865 108.121 188.157 106.828 188.157 104.889V98.4257C188.157 96.4867 186.865 95.1941 184.927 95.1941C182.99 95.1941 181.698 96.4867 181.698 98.4257V104.889C181.698 106.828 182.99 108.121 184.927 108.121Z" fill="white"/>
<path d="M184.927 127.512C186.865 127.512 188.157 126.219 188.157 124.28V117.816C188.157 115.877 186.865 114.585 184.927 114.585C182.99 114.585 181.698 115.877 181.698 117.816V124.28C181.698 126.219 182.99 127.512 184.927 127.512Z" fill="white"/>
<path d="M204.303 69.3402C206.241 69.3402 207.533 68.0476 207.533 66.1085V59.6449C207.533 57.7059 206.241 56.4133 204.303 56.4133C202.366 56.4133 201.074 57.7059 201.074 59.6449V66.1085C201.074 68.0472 202.366 69.3402 204.303 69.3402Z" fill="white"/>
<path d="M204.303 49.9497C206.241 49.9497 207.533 48.6571 207.533 46.7181V40.2544C207.533 38.3154 206.241 37.0228 204.303 37.0228C202.366 37.0228 201.074 38.3154 201.074 40.2544V46.7181C201.074 48.6567 202.366 49.9497 204.303 49.9497Z" fill="white"/>
<path d="M204.303 108.121C206.241 108.121 207.533 106.828 207.533 104.889V98.4257C207.533 96.4867 206.241 95.1941 204.303 95.1941C202.366 95.1941 201.074 96.4867 201.074 98.4257V104.889C201.074 106.828 202.366 108.121 204.303 108.121Z" fill="white"/>
<path d="M204.303 88.7307C206.241 88.7307 207.533 87.4382 207.533 85.4991V79.0355C207.533 77.0965 206.241 75.8039 204.303 75.8039C202.366 75.8039 201.074 77.0965 201.074 79.0355V85.4991C201.074 87.4378 202.366 88.7307 204.303 88.7307Z" fill="white"/>
<path d="M204.303 127.512C206.241 127.512 207.533 126.219 207.533 124.28V117.816C207.533 115.877 206.241 114.585 204.303 114.585C202.366 114.585 201.074 115.877 201.074 117.816V124.28C201.074 126.219 202.366 127.512 204.303 127.512Z" fill="white"/>
<path d="M204.303 146.902C206.241 146.902 207.533 145.609 207.533 143.67V137.207C207.533 135.268 206.241 133.975 204.303 133.975C202.366 133.975 201.074 135.268 201.074 137.207V143.67C201.074 145.609 202.366 146.902 204.303 146.902Z" fill="white"/>
<path d="M204.303 166.292C206.241 166.292 207.533 165 207.533 163.061V156.597C207.533 154.658 206.241 153.365 204.303 153.365C202.366 153.365 201.074 154.658 201.074 156.597V163.061C201.074 164.999 202.366 166.292 204.303 166.292Z" fill="white"/>
<path d="M223.774 88.1947C225.712 88.1947 227.003 86.9022 227.003 84.9631V78.4995C227.003 76.5605 225.712 75.2679 223.774 75.2679C221.837 75.2679 220.545 76.5605 220.545 78.4995V84.9631C220.545 86.9018 221.837 88.1947 223.774 88.1947Z" fill="white"/>
<path d="M243.053 88.1947C244.991 88.1947 246.283 86.9022 246.283 84.9631V78.4995C246.283 76.5605 244.991 75.2679 243.053 75.2679C241.116 75.2679 239.824 76.5605 239.824 78.4995V84.9631C239.824 86.9018 241.116 88.1947 243.053 88.1947Z" fill="white"/>
<path d="M223.677 69.3402C225.614 69.3402 226.906 68.0476 226.906 66.1085V59.6449C226.906 57.7059 225.614 56.4133 223.677 56.4133C221.739 56.4133 220.448 57.7059 220.448 59.6449V66.1085C220.447 68.0472 221.739 69.3402 223.677 69.3402Z" fill="white"/>
<path d="M223.677 49.9497C225.614 49.9497 226.906 48.6571 226.906 46.7181V40.2544C226.906 38.3154 225.614 37.0228 223.677 37.0228C221.739 37.0228 220.448 38.3154 220.448 40.2544V46.7181C220.447 48.6567 221.739 49.9497 223.677 49.9497Z" fill="white"/>
<path d="M223.677 166.292C225.614 166.292 226.906 165 226.906 163.061V156.597C226.906 154.658 225.614 153.365 223.677 153.365C221.739 153.365 220.448 154.658 220.448 156.597V163.061C220.447 164.999 221.739 166.292 223.677 166.292Z" fill="white"/>
<path d="M223.677 146.902C225.614 146.902 226.906 145.609 226.906 143.67V137.207C226.906 135.268 225.614 133.975 223.677 133.975C221.739 133.975 220.448 135.268 220.448 137.207V143.67C220.447 145.609 221.739 146.902 223.677 146.902Z" fill="white"/>
<path d="M223.677 127.512C225.614 127.512 226.906 126.219 226.906 124.28V117.816C226.906 115.877 225.614 114.585 223.677 114.585C221.739 114.585 220.448 115.877 220.448 117.816V124.28C220.447 126.219 221.739 127.512 223.677 127.512Z" fill="white"/>
<path d="M223.677 108.121C225.614 108.121 226.906 106.828 226.906 104.889V98.4257C226.906 96.4867 225.614 95.1941 223.677 95.1941C221.739 95.1941 220.448 96.4867 220.448 98.4257V104.889C220.447 106.828 221.739 108.121 223.677 108.121Z" fill="white"/>
<path d="M243.053 69.3402C244.991 69.3402 246.283 68.0476 246.283 66.1085V59.6449C246.283 57.7059 244.991 56.4133 243.053 56.4133C241.116 56.4133 239.824 57.7059 239.824 59.6449V66.1085C239.824 68.0472 241.116 69.3402 243.053 69.3402Z" fill="white"/>
<path d="M243.053 49.9497C244.991 49.9497 246.283 48.6571 246.283 46.7181V40.2544C246.283 38.3154 244.991 37.0228 243.053 37.0228C241.116 37.0228 239.824 38.3154 239.824 40.2544V46.7181C239.824 48.6567 241.116 49.9497 243.053 49.9497Z" fill="white"/>
<path fill-rule="evenodd" clip-rule="evenodd" d="M478.771 187.441H465.654C465.792 186.379 465.854 185.294 465.854 184.209C465.854 175.087 460.609 167.323 452.937 163.727V77.8878C452.937 75.9487 451.645 74.6562 449.708 74.6562H401.268V3.23161C401.268 1.29257 399.977 8.4413e-08 398.039 8.4413e-08H310.848C308.91 -0.000381385 307.618 1.29219 307.618 3.23123V187.441H291.472C289.534 187.441 288.243 188.733 288.243 190.672C288.243 192.611 289.534 193.904 291.472 193.904H310.848H320.535H398.039H461.656H478.771C480.709 193.904 482 192.612 482 190.673C482 188.734 480.709 187.441 478.771 187.441ZM443.249 161.586C440.811 161.586 438.42 162.002 436.16 162.779C435.598 162.028 434.691 161.586 433.561 161.586C431.623 161.586 430.332 162.879 430.332 164.818V165.808C429.108 166.691 427.97 167.697 426.937 168.816C426.774 168.989 426.614 169.164 426.457 169.342C423.781 165.995 420.334 163.573 416.437 162.394C415.877 161.88 415.106 161.586 414.185 161.586C413.825 161.586 413.488 161.631 413.176 161.716C412.447 161.631 411.706 161.586 410.956 161.586C408.932 161.586 406.653 161.849 404.807 162.599C404.578 162.676 404.351 162.756 404.126 162.841C401.895 161.025 399.285 159.719 396.534 158.999C396.207 158.916 395.966 158.857 395.724 158.805C395.528 158.761 395.33 158.724 395.132 158.687L395.047 158.671C394.99 158.66 394.932 158.649 394.874 158.639C394.666 158.603 394.457 158.571 394.247 158.542C394.154 158.529 394.06 158.517 393.965 158.505C393.773 158.482 393.579 158.459 393.385 158.441C393.257 158.43 393.13 158.42 393.002 158.411L392.958 158.408L392.838 158.399L392.838 158.399C392.726 158.391 392.614 158.383 392.501 158.378C392.194 158.363 391.888 158.354 391.58 158.354C391.343 158.354 391.107 158.359 390.872 158.368C390.742 158.372 390.613 158.38 390.483 158.387L390.412 158.391C387.285 158.597 384.395 159.428 381.892 160.9V81.1192H398.039H446.478V161.815C445.424 161.667 444.347 161.586 443.249 161.586ZM394.81 74.6561V6.46313H314.078V187.441H317.541C317.989 184.323 319.079 181.39 320.68 178.799C320.587 178.475 320.537 178.124 320.537 177.746V171.283C320.537 169.344 321.828 168.051 323.766 168.051C325.703 168.051 326.995 169.344 326.995 171.283V172.14C329.889 170.138 333.288 168.8 337.006 168.374C337.466 165.241 338.558 162.294 340.144 159.678C339.993 159.285 339.912 158.84 339.912 158.356V151.892C339.912 149.953 341.204 148.66 343.141 148.66C345.079 148.66 346.37 149.953 346.37 151.892V152.901C350.029 150.242 354.481 148.66 359.287 148.66C359.638 148.66 359.986 148.671 360.333 148.687C360.384 148.69 360.434 148.693 360.485 148.696L360.577 148.701C360.884 148.719 361.19 148.743 361.605 148.784C364.226 149.058 366.734 149.792 369.257 151.02C369.443 151.112 369.627 151.207 369.81 151.305C371.881 152.398 373.784 153.795 375.434 155.447V77.8877C375.434 75.9486 376.726 74.6561 378.663 74.6561H394.81ZM338.442 174.581C338.506 174.575 338.571 174.571 338.635 174.566C338.806 174.553 338.976 174.54 339.148 174.532C339.401 174.521 339.656 174.513 339.912 174.513C341.85 174.513 343.141 173.221 343.141 171.282C343.141 162.233 350.246 155.123 359.288 155.123C367.361 155.123 374.143 160.94 375.111 169.019C375.33 169.893 375.848 170.614 376.557 171.092C376.602 171.124 376.648 171.153 376.694 171.183C376.744 171.213 376.794 171.244 376.846 171.272C376.965 171.338 377.089 171.398 377.218 171.45C377.223 171.452 377.228 171.454 377.233 171.456C377.381 171.516 377.535 171.565 377.695 171.605L377.695 171.605L377.695 171.605C377.888 171.669 378.106 171.694 378.337 171.687C379.398 171.702 380.386 171.121 380.924 170.313C380.924 170.313 380.924 170.313 380.925 170.313L381.248 169.99C383.831 166.758 387.383 164.819 391.582 164.819C393.762 164.819 395.941 165.43 397.898 166.573C394.045 170.198 391.861 174.923 391.607 179.979C391.59 180.31 391.582 180.643 391.582 180.978C391.582 183.225 391.955 185.379 392.694 187.441H324.088C325.6 180.483 331.356 175.225 338.442 174.581ZM398.361 180.654C398.361 182.883 399.083 185.352 400.317 187.44H459.073C459.395 186.471 459.395 185.178 459.395 184.209C459.395 175.16 452.291 168.05 443.249 168.05C440.613 168.05 438.099 168.65 435.881 169.766C435.533 170.107 435.096 170.358 434.587 170.5C432.229 171.99 430.291 174.114 429.04 176.776C428.571 177.715 427.93 178.311 427.12 178.444C426.779 178.617 426.44 178.715 426.134 178.715C424.519 178.715 423.55 177.745 423.227 176.776C420.644 169.666 412.247 166.111 405.143 169.989C404.677 170.222 404.17 170.327 403.665 170.323C403.144 170.682 402.651 171.078 402.189 171.507C399.769 173.861 398.361 177.08 398.361 180.654Z" fill="white"/>
<path d="M394.809 127.28C392.872 127.28 391.58 128.573 391.58 130.512V136.975C391.58 138.914 392.872 140.207 394.809 140.207C396.747 140.207 398.038 138.914 398.038 136.975V130.512C398.038 128.573 396.747 127.28 394.809 127.28Z" fill="white"/>
<path d="M394.809 88.4991C392.872 88.4991 391.58 89.7916 391.58 91.7307V98.1943C391.58 100.133 392.872 101.426 394.809 101.426C396.747 101.426 398.038 100.133 398.038 98.1943V91.7307C398.038 89.7916 396.747 88.4991 394.809 88.4991Z" fill="white"/>
<path d="M394.809 107.89C392.872 107.89 391.58 109.182 391.58 111.121V117.585C391.58 119.524 392.872 120.816 394.809 120.816C396.747 120.816 398.038 119.524 398.038 117.585V111.121C398.038 109.182 396.747 107.89 394.809 107.89Z" fill="white"/>
<path d="M414.185 101.426C416.123 101.426 417.414 100.133 417.414 98.1943V91.7307C417.414 89.7916 416.123 88.4991 414.185 88.4991C412.248 88.4991 410.956 89.7916 410.956 91.7307V98.1943C410.956 100.133 412.248 101.426 414.185 101.426Z" fill="white"/>
<path d="M414.185 120.816C416.123 120.816 417.414 119.524 417.414 117.585V111.121C417.414 109.182 416.123 107.89 414.185 107.89C412.248 107.89 410.956 109.182 410.956 111.121V117.585C410.956 119.524 412.248 120.816 414.185 120.816Z" fill="white"/>
<path d="M414.185 140.207C416.123 140.207 417.414 138.914 417.414 136.975V130.512C417.414 128.573 416.123 127.28 414.185 127.28C412.248 127.28 410.956 128.573 410.956 130.512V136.975C410.956 138.914 412.248 140.207 414.185 140.207Z" fill="white"/>
<path d="M433.561 101.426C435.499 101.426 436.79 100.133 436.79 98.1943V91.7307C436.79 89.7916 435.499 88.4991 433.561 88.4991C431.624 88.4991 430.332 89.7916 430.332 91.7307V98.1943C430.332 100.133 431.624 101.426 433.561 101.426Z" fill="white"/>
<path d="M433.561 140.207C435.499 140.207 436.79 138.914 436.79 136.975V130.512C436.79 128.573 435.499 127.28 433.561 127.28C431.624 127.28 430.332 128.573 430.332 130.512V136.975C430.332 138.914 431.624 140.207 433.561 140.207Z" fill="white"/>
<path d="M433.561 120.816C435.499 120.816 436.79 119.524 436.79 117.585V111.121C436.79 109.182 435.499 107.89 433.561 107.89C431.624 107.89 430.332 109.182 430.332 111.121V117.585C430.332 119.524 431.624 120.816 433.561 120.816Z" fill="white"/>
<path d="M323.766 122.806C325.703 122.806 326.995 121.513 326.995 119.574V113.111C326.995 111.172 325.703 109.879 323.766 109.879C321.828 109.879 320.537 111.172 320.537 113.111V119.574C320.536 121.513 321.828 122.806 323.766 122.806Z" fill="white"/>
<path d="M323.766 142.196C325.703 142.196 326.995 140.904 326.995 138.965V132.501C326.995 130.562 325.703 129.27 323.766 129.27C321.828 129.27 320.537 130.562 320.537 132.501V138.965C320.536 140.903 321.828 142.196 323.766 142.196Z" fill="white"/>
<path d="M323.766 161.587C325.703 161.587 326.995 160.294 326.995 158.355V151.892C326.995 149.953 325.703 148.66 323.766 148.66C321.828 148.66 320.537 149.953 320.537 151.892V158.355C320.536 160.294 321.828 161.587 323.766 161.587Z" fill="white"/>
<path d="M323.766 25.8539C325.703 25.8539 326.995 24.5613 326.995 22.6223V16.1587C326.995 14.2196 325.703 12.927 323.766 12.927C321.828 12.927 320.537 14.2196 320.537 16.1587V22.6223C320.536 24.5609 321.828 25.8539 323.766 25.8539Z" fill="white"/>
<path d="M323.766 45.2441C325.703 45.2441 326.995 43.9515 326.995 42.0125V35.5488C326.995 33.6098 325.703 32.3172 323.766 32.3172C321.828 32.3172 320.537 33.6098 320.537 35.5488V42.0125C320.536 43.9511 321.828 45.2441 323.766 45.2441Z" fill="white"/>
<path d="M323.766 64.6346C325.703 64.6346 326.995 63.342 326.995 61.403V54.9394C326.995 53.0003 325.703 51.7077 323.766 51.7077C321.828 51.7077 320.537 53.0003 320.537 54.9394V61.403C320.536 63.3416 321.828 64.6346 323.766 64.6346Z" fill="white"/>
<path d="M323.766 84.0251C325.703 84.0251 326.995 82.7325 326.995 80.7935V74.3299C326.995 72.3908 325.703 71.0983 323.766 71.0983C321.828 71.0983 320.537 72.3908 320.537 74.3299V80.7935C320.536 82.7322 321.828 84.0251 323.766 84.0251Z" fill="white"/>
<path d="M323.766 103.415C325.703 103.415 326.995 102.123 326.995 100.184V93.7201C326.995 91.7811 325.703 90.4885 323.766 90.4885C321.828 90.4885 320.537 91.7811 320.537 93.7201V100.184C320.536 102.122 321.828 103.415 323.766 103.415Z" fill="white"/>
<path d="M343.141 45.2441C345.079 45.2441 346.37 43.9515 346.37 42.0125V35.5488C346.37 33.6098 345.079 32.3172 343.141 32.3172C341.204 32.3172 339.912 33.6098 339.912 35.5488V42.0125C339.912 43.9511 341.204 45.2441 343.141 45.2441Z" fill="white"/>
<path d="M343.141 25.8539C345.079 25.8539 346.37 24.5613 346.37 22.6223V16.1587C346.37 14.2196 345.079 12.927 343.141 12.927C341.204 12.927 339.912 14.2196 339.912 16.1587V22.6223C339.912 24.5609 341.204 25.8539 343.141 25.8539Z" fill="white"/>
<path d="M343.141 84.0251C345.079 84.0251 346.37 82.7325 346.37 80.7935V74.3299C346.37 72.3908 345.079 71.0983 343.141 71.0983C341.204 71.0983 339.912 72.3908 339.912 74.3299V80.7935C339.912 82.7322 341.204 84.0251 343.141 84.0251Z" fill="white"/>
<path d="M343.141 64.6346C345.079 64.6346 346.37 63.342 346.37 61.403V54.9394C346.37 53.0003 345.079 51.7077 343.141 51.7077C341.204 51.7077 339.912 53.0003 339.912 54.9394V61.403C339.912 63.3416 341.204 64.6346 343.141 64.6346Z" fill="white"/>
<path d="M343.141 103.415C345.079 103.415 346.37 102.123 346.37 100.184V93.7201C346.37 91.7811 345.079 90.4885 343.141 90.4885C341.204 90.4885 339.912 91.7811 339.912 93.7201V100.184C339.912 102.122 341.204 103.415 343.141 103.415Z" fill="white"/>
<path d="M343.141 122.806C345.079 122.806 346.37 121.513 346.37 119.574V113.111C346.37 111.172 345.079 109.879 343.141 109.879C341.204 109.879 339.912 111.172 339.912 113.111V119.574C339.912 121.513 341.204 122.806 343.141 122.806Z" fill="white"/>
<path d="M343.141 142.196C345.079 142.196 346.37 140.904 346.37 138.965V132.501C346.37 130.562 345.079 129.27 343.141 129.27C341.204 129.27 339.912 130.562 339.912 132.501V138.965C339.912 140.903 341.204 142.196 343.141 142.196Z" fill="white"/>
<path d="M362.612 64.0986C364.55 64.0986 365.841 62.8061 365.841 60.867V54.4034C365.841 52.4644 364.55 51.1718 362.612 51.1718C360.674 51.1718 359.383 52.4644 359.383 54.4034V60.867C359.382 62.8057 360.674 64.0986 362.612 64.0986Z" fill="white"/>
<path d="M381.892 64.0986C383.829 64.0986 385.121 62.8061 385.121 60.867V54.4034C385.121 52.4644 383.829 51.1718 381.892 51.1718C379.954 51.1718 378.663 52.4644 378.663 54.4034V60.867C378.662 62.8057 379.954 64.0986 381.892 64.0986Z" fill="white"/>
<path d="M362.516 45.2441C364.453 45.2441 365.745 43.9515 365.745 42.0125V35.5488C365.745 33.6098 364.453 32.3172 362.516 32.3172C360.578 32.3172 359.287 33.6098 359.287 35.5488V42.0125C359.286 43.9511 360.578 45.2441 362.516 45.2441Z" fill="white"/>
<path d="M362.516 25.8539C364.453 25.8539 365.745 24.5613 365.745 22.6223V16.1587C365.745 14.2196 364.453 12.927 362.516 12.927C360.578 12.927 359.287 14.2196 359.287 16.1587V22.6223C359.286 24.5609 360.578 25.8539 362.516 25.8539Z" fill="white"/>
<path d="M362.516 142.196C364.453 142.196 365.745 140.904 365.745 138.965V132.501C365.745 130.562 364.453 129.27 362.516 129.27C360.578 129.27 359.287 130.562 359.287 132.501V138.965C359.286 140.903 360.578 142.196 362.516 142.196Z" fill="white"/>
<path d="M362.516 122.806C364.453 122.806 365.745 121.513 365.745 119.574V113.111C365.745 111.172 364.453 109.879 362.516 109.879C360.578 109.879 359.287 111.172 359.287 113.111V119.574C359.286 121.513 360.578 122.806 362.516 122.806Z" fill="white"/>
<path d="M362.516 103.415C364.453 103.415 365.745 102.123 365.745 100.184V93.7201C365.745 91.7811 364.453 90.4885 362.516 90.4885C360.578 90.4885 359.287 91.7811 359.287 93.7201V100.184C359.286 102.122 360.578 103.415 362.516 103.415Z" fill="white"/>
<path d="M362.516 84.0251C364.453 84.0251 365.745 82.7325 365.745 80.7935V74.3299C365.745 72.3908 364.453 71.0983 362.516 71.0983C360.578 71.0983 359.287 72.3908 359.287 74.3299V80.7935C359.286 82.7322 360.578 84.0251 362.516 84.0251Z" fill="white"/>
<path d="M381.892 45.2441C383.829 45.2441 385.121 43.9515 385.121 42.0125V35.5488C385.121 33.6098 383.829 32.3172 381.892 32.3172C379.954 32.3172 378.663 33.6098 378.663 35.5488V42.0125C378.662 43.9511 379.954 45.2441 381.892 45.2441Z" fill="white"/>
<path d="M381.892 25.8539C383.829 25.8539 385.121 24.5613 385.121 22.6223V16.1587C385.121 14.2196 383.829 12.927 381.892 12.927C379.954 12.927 378.663 14.2196 378.663 16.1587V22.6223C378.662 24.5609 379.954 25.8539 381.892 25.8539Z" fill="white"/>
</svg>
