<svg width="146" height="81" viewBox="0 0 146 81" fill="none" xmlns="http://www.w3.org/2000/svg">
<path fill-rule="evenodd" clip-rule="evenodd" d="M115.057 18.0005L115.824 33.9745L129.963 27.3475L120.594 40.0925L135.5 44.3405L120.424 48.0795L129.027 61.2495L115.228 54.1115L113.61 70.0005L107.562 55.3855L96.4035 66.5165L100.917 51.3075L85.4995 52.4975L98.5325 43.7465L86.0105 34.4845L101.344 36.2685L97.6805 20.8895L108.244 32.4445L115.057 18.0005Z" fill="#FFD15C"/>
<path fill-rule="evenodd" clip-rule="evenodd" d="M101.626 45.0986L125.975 78.0106L120.159 78.0116L98.1172 47.7686L101.626 45.0986Z" fill="#292E31"/>
<path fill-rule="evenodd" clip-rule="evenodd" d="M0.500488 27.7657L25.4205 53.9147L28.2105 51.1487L0.500488 22.4177V27.7657Z" fill="#292E31"/>
<path fill-rule="evenodd" clip-rule="evenodd" d="M114.347 37.7899L145.351 65.8799L145.352 60.8409L117.34 34.5519L114.347 37.7899Z" fill="#292E31"/>
<path d="M89.3506 65.123C89.2266 60.276 90.9226 55.98 94.8446 53.159" stroke="#292E31"/>
<path fill-rule="evenodd" clip-rule="evenodd" d="M94.6378 55.3935L95.9128 52.1005C94.7178 52.5125 93.5638 52.9885 92.2988 53.4445C93.4028 53.6405 94.2448 54.1885 94.6378 55.3935Z" fill="#292E31"/>
<path fill-rule="evenodd" clip-rule="evenodd" d="M94.6378 55.3935L95.9128 52.1005C94.7178 52.5125 93.5638 52.9885 92.2988 53.4445C93.4028 53.6405 94.2448 54.1885 94.6378 55.3935Z" stroke="#292E31"/>
<path d="M137.807 32.8896C133.281 30.5756 128.665 30.1396 124.735 32.4726" stroke="#292E31"/>
<path fill-rule="evenodd" clip-rule="evenodd" d="M126.857 33.2578L123.308 32.9868C124.128 32.0628 124.905 31.2028 125.793 30.3238C125.574 31.3768 125.906 32.3388 126.857 33.2578Z" fill="#292E31"/>
<path fill-rule="evenodd" clip-rule="evenodd" d="M126.857 33.2578L123.308 32.9868C124.128 32.0628 124.905 31.2028 125.793 30.3238C125.574 31.3768 125.906 32.3388 126.857 33.2578Z" stroke="#292E31"/>
<path d="M4.86719 58.3662C9.93719 58.7282 14.3562 57.3262 17.0622 53.6422" stroke="#292E31"/>
<path fill-rule="evenodd" clip-rule="evenodd" d="M14.8037 53.749L18.1757 52.611C17.7827 53.782 17.4037 54.878 16.9297 56.033C16.7197 54.978 16.0377 54.223 14.8037 53.749Z" fill="#292E31"/>
<path fill-rule="evenodd" clip-rule="evenodd" d="M14.8037 53.749L18.1757 52.611C17.7827 53.782 17.4037 54.878 16.9297 56.033C16.7197 54.978 16.0377 54.223 14.8037 53.749Z" stroke="#292E31"/>
<path d="M0.5 27.457V4C0.5 2.34314 1.84315 1 3.5 1H142.351C144.008 1 145.351 2.34315 145.351 4V27.457" stroke="#ACACAC"/>
<path d="M0.5 53.2842V76.7399C0.5 78.3969 1.8433 79.7401 3.50025 79.7399L85.521 79.7332" stroke="#ACACAC"/>
<path d="M120.159 77.8506H142.35C144.007 77.8506 145.35 76.5074 145.35 74.8506V60.8426" stroke="#ACACAC"/>
</svg>
