<svg width="243" height="92" viewBox="0 0 243 92" fill="none" xmlns="http://www.w3.org/2000/svg">
<path d="M64.384 8.73991H61.458C61.3647 10.6066 61.2387 12.1606 61.08 13.4019C60.9307 14.6339 60.702 15.5952 60.394 16.2859C60.1887 16.7339 59.946 17.0606 59.666 17.2659C59.386 17.4712 59.0827 17.5739 58.756 17.5739C58.588 17.5739 58.4433 17.5599 58.322 17.5319C58.2007 17.5132 58.084 17.4806 57.972 17.4339L58.126 16.4259C58.2193 16.4539 58.3173 16.4679 58.42 16.4679C58.5787 16.4679 58.7327 16.4166 58.882 16.3139C59.0407 16.2112 59.1947 16.0199 59.344 15.7399C59.4747 15.4879 59.596 15.1519 59.708 14.7319C59.8293 14.3119 59.932 13.7799 60.016 13.1359C60.1093 12.4919 60.184 11.7266 60.24 10.8399C60.296 9.94391 60.338 8.89857 60.366 7.70391H65.546V17.5039H64.384V8.73991ZM72.1823 13.3599L72.2243 12.4919H72.1823L71.6083 13.3879L68.4583 17.5039H67.8143V10.5039H68.9343V14.7739L68.8923 15.5999H68.9483L69.4943 14.7319L72.6443 10.5039H73.3023V17.5039H72.1823V13.3599ZM78.6069 17.5599C78.4482 17.6159 78.2802 17.6486 78.1029 17.6579C77.9349 17.6672 77.7809 17.6719 77.6409 17.6719C76.7916 17.6719 76.1382 17.3732 75.6809 16.7759C75.2236 16.1786 74.9949 15.2546 74.9949 14.0039C74.9949 12.8092 75.2469 11.9086 75.7509 11.3019C76.2549 10.6952 76.9829 10.3919 77.9349 10.3919C78.1962 10.3919 78.4202 10.4106 78.6069 10.4479V7.70391H79.6709V10.4619C79.8389 10.4339 79.9882 10.4152 80.1189 10.4059C80.2496 10.3966 80.3756 10.3919 80.4969 10.3919C81.4209 10.3919 82.1162 10.6626 82.5829 11.2039C83.0496 11.7359 83.2829 12.6226 83.2829 13.8639C83.2829 14.4519 83.2176 14.9839 83.0869 15.4599C82.9656 15.9266 82.7836 16.3232 82.5409 16.6499C82.2982 16.9766 81.9996 17.2286 81.6449 17.4059C81.2996 17.5832 80.8982 17.6719 80.4409 17.6719C80.3569 17.6719 80.2309 17.6626 80.0629 17.6439C79.9042 17.6346 79.7736 17.6112 79.6709 17.5739V20.3039H78.6069V17.5599ZM80.2869 11.3159C80.1749 11.3159 80.0722 11.3206 79.9789 11.3299C79.8949 11.3299 79.7876 11.3486 79.6569 11.3859V16.7059C79.7502 16.7246 79.8529 16.7386 79.9649 16.7479C80.0862 16.7479 80.2169 16.7479 80.3569 16.7479C80.9542 16.7479 81.4022 16.5006 81.7009 16.0059C82.0089 15.5112 82.1629 14.7972 82.1629 13.8639C82.1629 13.0706 82.0229 12.4499 81.7429 12.0019C81.4722 11.5446 80.9869 11.3159 80.2869 11.3159ZM77.9209 16.7479C78.0329 16.7479 78.1449 16.7432 78.2569 16.7339C78.3689 16.7246 78.4902 16.7059 78.6209 16.6779V11.3719C78.5089 11.3532 78.4016 11.3392 78.2989 11.3299C78.2056 11.3206 78.0889 11.3159 77.9489 11.3159C77.3702 11.3159 76.9176 11.5352 76.5909 11.9739C76.2736 12.4032 76.1149 13.0799 76.1149 14.0039C76.1149 14.3959 76.1476 14.7599 76.2129 15.0959C76.2876 15.4319 76.3996 15.7259 76.5489 15.9779C76.6982 16.2206 76.8849 16.4119 77.1089 16.5519C77.3422 16.6826 77.6129 16.7479 77.9209 16.7479ZM89.2198 11.4839H87.0218V17.5039H85.9018V11.4839H83.7038V10.5039H89.2198V11.4839ZM89.7212 14.0039C89.7212 12.8186 89.9825 11.9132 90.5052 11.2879C91.0372 10.6532 91.7978 10.3359 92.7872 10.3359C93.3098 10.3359 93.7625 10.4246 94.1452 10.6019C94.5372 10.7699 94.8592 11.0172 95.1112 11.3439C95.3632 11.6612 95.5498 12.0486 95.6712 12.5059C95.7925 12.9539 95.8532 13.4532 95.8532 14.0039C95.8532 15.1892 95.5872 16.0992 95.0552 16.7339C94.5325 17.3592 93.7765 17.6719 92.7872 17.6719C92.2645 17.6719 91.8072 17.5879 91.4152 17.4199C91.0325 17.2426 90.7152 16.9952 90.4632 16.6779C90.2112 16.3512 90.0245 15.9639 89.9032 15.5159C89.7818 15.0586 89.7212 14.5546 89.7212 14.0039ZM90.8832 14.0039C90.8832 14.3586 90.9158 14.6992 90.9812 15.0259C91.0558 15.3526 91.1678 15.6372 91.3172 15.8799C91.4665 16.1226 91.6625 16.3186 91.9052 16.4679C92.1478 16.6172 92.4418 16.6919 92.7872 16.6919C94.0565 16.7012 94.6912 15.8052 94.6912 14.0039C94.6912 13.6399 94.6538 13.2946 94.5792 12.9679C94.5138 12.6412 94.4065 12.3566 94.2572 12.1139C94.1078 11.8712 93.9118 11.6799 93.6692 11.5399C93.4265 11.3906 93.1325 11.3159 92.7872 11.3159C91.5178 11.3066 90.8832 12.2026 90.8832 14.0039ZM97.619 10.5179C97.9457 10.4992 98.2863 10.4759 98.641 10.4479C99.005 10.4199 99.453 10.4059 99.985 10.4059C100.909 10.4059 101.572 10.5506 101.973 10.8399C102.374 11.1199 102.575 11.5492 102.575 12.1279C102.575 12.4546 102.477 12.7766 102.281 13.0939C102.094 13.4019 101.782 13.6306 101.343 13.7799V13.8359C101.894 13.9386 102.281 14.1299 102.505 14.4099C102.729 14.6899 102.841 15.0632 102.841 15.5299C102.841 16.2579 102.58 16.7852 102.057 17.1119C101.534 17.4386 100.75 17.6019 99.705 17.6019C99.313 17.6019 98.949 17.5879 98.613 17.5599C98.277 17.5412 97.9457 17.5179 97.619 17.4899V10.5179ZM98.739 16.5659C98.9163 16.5846 99.089 16.5986 99.257 16.6079C99.4343 16.6172 99.6397 16.6219 99.873 16.6219C100.498 16.6219 100.96 16.5332 101.259 16.3559C101.567 16.1786 101.721 15.8752 101.721 15.4459C101.721 15.1099 101.59 14.8392 101.329 14.6339C101.077 14.4192 100.624 14.3119 99.971 14.3119H98.739V16.5659ZM100.111 13.4579C100.279 13.4579 100.442 13.4299 100.601 13.3739C100.76 13.3179 100.9 13.2432 101.021 13.1499C101.152 13.0472 101.254 12.9306 101.329 12.7999C101.413 12.6692 101.455 12.5292 101.455 12.3799C101.455 12.0066 101.343 11.7499 101.119 11.6099C100.895 11.4606 100.503 11.3859 99.943 11.3859C99.6443 11.3859 99.4063 11.3906 99.229 11.3999C99.061 11.4092 98.8977 11.4186 98.739 11.4279V13.4579H100.111ZM104.493 11.0219C104.848 10.8072 105.259 10.6486 105.725 10.5459C106.201 10.4432 106.696 10.3919 107.209 10.3919C107.695 10.3919 108.082 10.4572 108.371 10.5879C108.67 10.7186 108.894 10.8912 109.043 11.1059C109.202 11.3112 109.305 11.5399 109.351 11.7919C109.407 12.0439 109.435 12.2959 109.435 12.5479C109.435 13.1079 109.421 13.6539 109.393 14.1859C109.365 14.7179 109.351 15.2219 109.351 15.6979C109.351 16.0432 109.365 16.3699 109.393 16.6779C109.421 16.9859 109.473 17.2706 109.547 17.5319H108.721L108.427 16.5519H108.357C108.273 16.6826 108.166 16.8132 108.035 16.9439C107.914 17.0652 107.765 17.1772 107.587 17.2799C107.41 17.3732 107.205 17.4526 106.971 17.5179C106.738 17.5832 106.472 17.6159 106.173 17.6159C105.875 17.6159 105.595 17.5692 105.333 17.4759C105.081 17.3826 104.862 17.2519 104.675 17.0839C104.489 16.9066 104.339 16.6966 104.227 16.4539C104.125 16.2112 104.073 15.9359 104.073 15.6279C104.073 15.2172 104.157 14.8766 104.325 14.6059C104.493 14.3259 104.727 14.1066 105.025 13.9479C105.333 13.7799 105.697 13.6632 106.117 13.5979C106.547 13.5232 107.018 13.4859 107.531 13.4859C107.662 13.4859 107.788 13.4859 107.909 13.4859C108.04 13.4859 108.171 13.4952 108.301 13.5139C108.329 13.2339 108.343 12.9819 108.343 12.7579C108.343 12.2446 108.241 11.8852 108.035 11.6799C107.83 11.4746 107.457 11.3719 106.915 11.3719C106.757 11.3719 106.584 11.3859 106.397 11.4139C106.22 11.4326 106.033 11.4652 105.837 11.5119C105.651 11.5492 105.469 11.6006 105.291 11.6659C105.123 11.7219 104.974 11.7872 104.843 11.8619L104.493 11.0219ZM106.481 16.6359C106.743 16.6359 106.976 16.6032 107.181 16.5379C107.387 16.4632 107.564 16.3746 107.713 16.2719C107.863 16.1599 107.984 16.0386 108.077 15.9079C108.18 15.7772 108.255 15.6512 108.301 15.5299V14.3679C108.171 14.3586 108.035 14.3539 107.895 14.3539C107.765 14.3446 107.634 14.3399 107.503 14.3399C107.214 14.3399 106.929 14.3586 106.649 14.3959C106.379 14.4239 106.136 14.4846 105.921 14.5779C105.716 14.6619 105.548 14.7832 105.417 14.9419C105.296 15.0912 105.235 15.2826 105.235 15.5159C105.235 15.8426 105.352 16.1132 105.585 16.3279C105.819 16.5332 106.117 16.6359 106.481 16.6359ZM115.037 14.6059L113.959 14.7739L112.111 17.5039H110.753L112.433 15.1099L112.993 14.5919C112.507 14.5172 112.092 14.3212 111.747 14.0039C111.411 13.6866 111.243 13.2572 111.243 12.7159C111.243 12.2959 111.313 11.9366 111.453 11.6379C111.602 11.3392 111.812 11.0919 112.083 10.8959C112.353 10.6999 112.675 10.5599 113.049 10.4759C113.422 10.3826 113.842 10.3359 114.309 10.3359C114.654 10.3359 114.976 10.3592 115.275 10.4059C115.573 10.4526 115.867 10.5039 116.157 10.5599V17.5039H115.037V14.6059ZM115.037 11.4559C114.915 11.4092 114.78 11.3766 114.631 11.3579C114.481 11.3299 114.351 11.3159 114.239 11.3159C113.641 11.3159 113.184 11.4232 112.867 11.6379C112.559 11.8526 112.405 12.1932 112.405 12.6599C112.405 13.0799 112.568 13.4066 112.895 13.6399C113.231 13.8639 113.669 13.9759 114.211 13.9759C114.22 13.9759 114.234 13.9759 114.253 13.9759C114.271 13.9759 114.309 13.9759 114.365 13.9759C114.421 13.9759 114.5 13.9759 114.603 13.9759C114.705 13.9666 114.85 13.9572 115.037 13.9479V11.4559ZM121.928 17.5039V10.5039H123.048V16.5239H125.442V10.5039H126.562V16.5239H128.956V10.5039H130.076V17.5039H121.928ZM132.124 11.0219C132.479 10.8072 132.89 10.6486 133.356 10.5459C133.832 10.4432 134.327 10.3919 134.84 10.3919C135.326 10.3919 135.713 10.4572 136.002 10.5879C136.301 10.7186 136.525 10.8912 136.674 11.1059C136.833 11.3112 136.936 11.5399 136.982 11.7919C137.038 12.0439 137.066 12.2959 137.066 12.5479C137.066 13.1079 137.052 13.6539 137.024 14.1859C136.996 14.7179 136.982 15.2219 136.982 15.6979C136.982 16.0432 136.996 16.3699 137.024 16.6779C137.052 16.9859 137.104 17.2706 137.178 17.5319H136.352L136.058 16.5519H135.988C135.904 16.6826 135.797 16.8132 135.666 16.9439C135.545 17.0652 135.396 17.1772 135.218 17.2799C135.041 17.3732 134.836 17.4526 134.602 17.5179C134.369 17.5832 134.103 17.6159 133.804 17.6159C133.506 17.6159 133.226 17.5692 132.964 17.4759C132.712 17.3826 132.493 17.2519 132.306 17.0839C132.12 16.9066 131.97 16.6966 131.858 16.4539C131.756 16.2112 131.704 15.9359 131.704 15.6279C131.704 15.2172 131.788 14.8766 131.956 14.6059C132.124 14.3259 132.358 14.1066 132.656 13.9479C132.964 13.7799 133.328 13.6632 133.748 13.5979C134.178 13.5232 134.649 13.4859 135.162 13.4859C135.293 13.4859 135.419 13.4859 135.54 13.4859C135.671 13.4859 135.802 13.4952 135.932 13.5139C135.96 13.2339 135.974 12.9819 135.974 12.7579C135.974 12.2446 135.872 11.8852 135.666 11.6799C135.461 11.4746 135.088 11.3719 134.546 11.3719C134.388 11.3719 134.215 11.3859 134.028 11.4139C133.851 11.4326 133.664 11.4652 133.468 11.5119C133.282 11.5492 133.1 11.6006 132.922 11.6659C132.754 11.7219 132.605 11.7872 132.474 11.8619L132.124 11.0219ZM134.112 16.6359C134.374 16.6359 134.607 16.6032 134.812 16.5379C135.018 16.4632 135.195 16.3746 135.344 16.2719C135.494 16.1599 135.615 16.0386 135.708 15.9079C135.811 15.7772 135.886 15.6512 135.932 15.5299V14.3679C135.802 14.3586 135.666 14.3539 135.526 14.3539C135.396 14.3446 135.265 14.3399 135.134 14.3399C134.845 14.3399 134.56 14.3586 134.28 14.3959C134.01 14.4239 133.767 14.4846 133.552 14.5779C133.347 14.6619 133.179 14.7832 133.048 14.9419C132.927 15.0912 132.866 15.2826 132.866 15.5159C132.866 15.8426 132.983 16.1132 133.216 16.3279C133.45 16.5332 133.748 16.6359 134.112 16.6359ZM141.016 13.9199L138.664 10.5039H140.036L141.366 12.4359L141.758 13.2339L142.164 12.4359L143.522 10.5039H144.782L142.416 13.8639L144.922 17.5039H143.592L142.108 15.3759L141.688 14.5359L141.254 15.3759L139.742 17.5039H138.496L141.016 13.9199ZM150.853 11.4839H148.655V17.5039H147.535V11.4839H145.337V10.5039H150.853V11.4839ZM151.853 11.0219C152.207 10.8072 152.618 10.6486 153.085 10.5459C153.561 10.4432 154.055 10.3919 154.569 10.3919C155.054 10.3919 155.441 10.4572 155.731 10.5879C156.029 10.7186 156.253 10.8912 156.403 11.1059C156.561 11.3112 156.664 11.5399 156.711 11.7919C156.767 12.0439 156.795 12.2959 156.795 12.5479C156.795 13.1079 156.781 13.6539 156.753 14.1859C156.725 14.7179 156.711 15.2219 156.711 15.6979C156.711 16.0432 156.725 16.3699 156.753 16.6779C156.781 16.9859 156.832 17.2706 156.907 17.5319H156.081L155.787 16.5519H155.717C155.633 16.6826 155.525 16.8132 155.395 16.9439C155.273 17.0652 155.124 17.1772 154.947 17.2799C154.769 17.3732 154.564 17.4526 154.331 17.5179C154.097 17.5832 153.831 17.6159 153.533 17.6159C153.234 17.6159 152.954 17.5692 152.693 17.4759C152.441 17.3826 152.221 17.2519 152.035 17.0839C151.848 16.9066 151.699 16.6966 151.587 16.4539C151.484 16.2112 151.433 15.9359 151.433 15.6279C151.433 15.2172 151.517 14.8766 151.685 14.6059C151.853 14.3259 152.086 14.1066 152.385 13.9479C152.693 13.7799 153.057 13.6632 153.477 13.5979C153.906 13.5232 154.377 13.4859 154.891 13.4859C155.021 13.4859 155.147 13.4859 155.269 13.4859C155.399 13.4859 155.53 13.4952 155.661 13.5139C155.689 13.2339 155.703 12.9819 155.703 12.7579C155.703 12.2446 155.6 11.8852 155.395 11.6799C155.189 11.4746 154.816 11.3719 154.275 11.3719C154.116 11.3719 153.943 11.3859 153.757 11.4139C153.579 11.4326 153.393 11.4652 153.197 11.5119C153.01 11.5492 152.828 11.6006 152.651 11.6659C152.483 11.7219 152.333 11.7872 152.203 11.8619L151.853 11.0219ZM153.841 16.6359C154.102 16.6359 154.335 16.6032 154.541 16.5379C154.746 16.4632 154.923 16.3746 155.073 16.2719C155.222 16.1599 155.343 16.0386 155.437 15.9079C155.539 15.7772 155.614 15.6512 155.661 15.5299V14.3679C155.53 14.3586 155.395 14.3539 155.255 14.3539C155.124 14.3446 154.993 14.3399 154.863 14.3399C154.573 14.3399 154.289 14.3586 154.009 14.3959C153.738 14.4239 153.495 14.4846 153.281 14.5779C153.075 14.6619 152.907 14.7832 152.777 14.9419C152.655 15.0912 152.595 15.2826 152.595 15.5159C152.595 15.8426 152.711 16.1132 152.945 16.3279C153.178 16.5332 153.477 16.6359 153.841 16.6359Z" fill="#292E31"/>
<path d="M28.518 53.7399H25.466V62.5039H24.304V53.7399H21.252V52.7039H28.518V53.7399ZM28.1867 56.0219C28.5414 55.8072 28.952 55.6486 29.4187 55.5459C29.8947 55.4432 30.3894 55.3919 30.9027 55.3919C31.388 55.3919 31.7754 55.4572 32.0647 55.5879C32.3634 55.7186 32.5874 55.8912 32.7367 56.1059C32.8954 56.3112 32.998 56.5399 33.0447 56.7919C33.1007 57.0439 33.1287 57.2959 33.1287 57.5479C33.1287 58.1079 33.1147 58.6539 33.0867 59.1859C33.0587 59.7179 33.0447 60.2219 33.0447 60.6979C33.0447 61.0432 33.0587 61.3699 33.0867 61.6779C33.1147 61.9859 33.166 62.2706 33.2407 62.5319H32.4147L32.1207 61.5519H32.0507C31.9667 61.6826 31.8594 61.8132 31.7287 61.9439C31.6074 62.0652 31.458 62.1772 31.2807 62.2799C31.1034 62.3732 30.898 62.4526 30.6647 62.5179C30.4314 62.5832 30.1654 62.6159 29.8667 62.6159C29.568 62.6159 29.288 62.5692 29.0267 62.4759C28.7747 62.3826 28.5554 62.2519 28.3687 62.0839C28.182 61.9066 28.0327 61.6966 27.9207 61.4539C27.818 61.2112 27.7667 60.9359 27.7667 60.6279C27.7667 60.2172 27.8507 59.8766 28.0187 59.6059C28.1867 59.3259 28.42 59.1066 28.7187 58.9479C29.0267 58.7799 29.3907 58.6632 29.8107 58.5979C30.24 58.5232 30.7114 58.4859 31.2247 58.4859C31.3554 58.4859 31.4814 58.4859 31.6027 58.4859C31.7334 58.4859 31.864 58.4952 31.9947 58.5139C32.0227 58.2339 32.0367 57.9819 32.0367 57.7579C32.0367 57.2446 31.934 56.8852 31.7287 56.6799C31.5234 56.4746 31.15 56.3719 30.6087 56.3719C30.45 56.3719 30.2774 56.3859 30.0907 56.4139C29.9134 56.4326 29.7267 56.4652 29.5307 56.5119C29.344 56.5492 29.162 56.6006 28.9847 56.6659C28.8167 56.7219 28.6674 56.7872 28.5367 56.8619L28.1867 56.0219ZM30.1747 61.6359C30.436 61.6359 30.6694 61.6032 30.8747 61.5379C31.08 61.4632 31.2574 61.3746 31.4067 61.2719C31.556 61.1599 31.6774 61.0386 31.7707 60.9079C31.8734 60.7772 31.948 60.6512 31.9947 60.5299V59.3679C31.864 59.3586 31.7287 59.3539 31.5887 59.3539C31.458 59.3446 31.3274 59.3399 31.1967 59.3399C30.9074 59.3399 30.6227 59.3586 30.3427 59.3959C30.072 59.4239 29.8294 59.4846 29.6147 59.5779C29.4094 59.6619 29.2414 59.7832 29.1107 59.9419C28.9894 60.0912 28.9287 60.2826 28.9287 60.5159C28.9287 60.8426 29.0454 61.1132 29.2787 61.3279C29.512 61.5332 29.8107 61.6359 30.1747 61.6359ZM41.026 58.3459L41.11 57.0159H41.04L40.536 58.0939L38.842 60.8379H38.45L36.686 58.0939L36.224 57.0159H36.168L36.28 58.3319V62.5039H35.244V55.5039H36.35L38.31 58.6399L38.716 59.4519H38.744L39.164 58.6119L40.998 55.5039H42.118V62.5039H41.026V58.3459ZM44.9115 56.7499C45.2195 56.3019 45.5601 55.9892 45.9335 55.8119C46.3068 55.6252 46.7735 55.5319 47.3335 55.5319C48.1921 55.5319 48.8501 55.8119 49.3075 56.3719C49.7741 56.9319 50.0075 57.7579 50.0075 58.8499C50.0075 60.1099 49.7368 61.0619 49.1955 61.7059C48.6635 62.3499 47.9168 62.6719 46.9555 62.6719C45.9288 62.6719 45.1588 62.3172 44.6455 61.6079C44.1321 60.8986 43.8755 59.7832 43.8755 58.2619C43.8755 57.4592 43.9128 56.7732 43.9875 56.2039C44.0715 55.6346 44.1881 55.1539 44.3375 54.7619C44.4961 54.3699 44.6828 54.0572 44.8975 53.8239C45.1215 53.5906 45.3688 53.4086 45.6395 53.2779C45.9195 53.1379 46.2228 53.0399 46.5495 52.9839C46.8761 52.9279 47.2261 52.8812 47.5995 52.8439C48.0848 52.7972 48.4628 52.7459 48.7335 52.6899C49.0135 52.6246 49.2375 52.5126 49.4055 52.3539L49.5315 53.3619C49.4381 53.4459 49.3355 53.5159 49.2235 53.5719C49.1115 53.6279 48.9761 53.6746 48.8175 53.7119C48.6588 53.7492 48.4675 53.7819 48.2435 53.8099C48.0288 53.8379 47.7768 53.8612 47.4875 53.8799C47.0861 53.9079 46.7315 53.9592 46.4235 54.0339C46.1248 54.0992 45.8635 54.2346 45.6395 54.4399C45.4248 54.6359 45.2521 54.9206 45.1215 55.2939C45.0001 55.6579 44.9161 56.1432 44.8695 56.7499H44.9115ZM45.0375 59.0179C45.0375 59.3726 45.0748 59.7132 45.1495 60.0399C45.2241 60.3666 45.3361 60.6559 45.4855 60.9079C45.6441 61.1506 45.8448 61.3419 46.0875 61.4819C46.3301 61.6219 46.6148 61.6919 46.9415 61.6919C47.5855 61.6919 48.0615 61.4632 48.3695 61.0059C48.6868 60.5392 48.8455 59.8532 48.8455 58.9479C48.8455 58.5932 48.8128 58.2666 48.7475 57.9679C48.6821 57.6692 48.5795 57.4126 48.4395 57.1979C48.2995 56.9739 48.1221 56.8059 47.9075 56.6939C47.6928 56.5726 47.4361 56.5119 47.1375 56.5119C46.4095 56.5026 45.8775 56.7172 45.5415 57.1559C45.2055 57.5852 45.0375 58.2059 45.0375 59.0179ZM53.6673 60.0399L54.0593 61.3839H54.1292L54.4373 60.0259L55.7953 55.5039H56.9293L54.8573 61.7899C54.6986 62.2472 54.5399 62.6906 54.3813 63.1199C54.2319 63.5492 54.0639 63.9319 53.8773 64.2679C53.6906 64.6039 53.4806 64.8699 53.2473 65.0659C53.0139 65.2712 52.7433 65.3739 52.4353 65.3739C52.0993 65.3739 51.8239 65.3272 51.6093 65.2339L51.8053 64.2679C51.9266 64.3146 52.0433 64.3379 52.1553 64.3379C52.4166 64.3379 52.6686 64.1979 52.9113 63.9179C53.1539 63.6472 53.3546 63.1759 53.5133 62.5039L50.6993 55.5039H51.9873L53.6673 60.0399ZM58.1307 55.5039H58.9007L59.1107 56.3439H59.1667C59.3814 56.0172 59.6567 55.7699 59.9927 55.6019C60.3381 55.4246 60.7301 55.3359 61.1687 55.3359C62.1021 55.3359 62.7974 55.6112 63.2547 56.1619C63.7121 56.7126 63.9407 57.6132 63.9407 58.8639C63.9407 59.4519 63.8614 59.9839 63.7027 60.4599C63.5534 60.9266 63.3387 61.3232 63.0587 61.6499C62.7787 61.9766 62.4381 62.2286 62.0367 62.4059C61.6447 62.5832 61.2061 62.6719 60.7207 62.6719C60.3754 62.6719 60.1001 62.6486 59.8947 62.6019C59.6987 62.5646 59.4841 62.4946 59.2507 62.3919V65.3039H58.1307V55.5039ZM60.9587 56.3159C60.4827 56.3159 60.1047 56.4419 59.8247 56.6939C59.5541 56.9366 59.3627 57.3099 59.2507 57.8139V61.2859C59.4187 61.4166 59.6101 61.5192 59.8247 61.5939C60.0394 61.6592 60.3241 61.6919 60.6787 61.6919C61.3227 61.6919 61.8314 61.4539 62.2047 60.9779C62.5874 60.4926 62.7787 59.7832 62.7787 58.8499C62.7787 58.4672 62.7461 58.1219 62.6807 57.8139C62.6154 57.4966 62.5081 57.2306 62.3587 57.0159C62.2187 56.7919 62.0321 56.6192 61.7987 56.4979C61.5747 56.3766 61.2947 56.3159 60.9587 56.3159Z" fill="#292E31"/>
<path d="M137.01 57.9679H136.352V62.5039H135.19V52.7039H136.352V57.2679L136.982 57.0719L140.272 52.7039H141.616L138.34 56.9179L137.752 57.3799L138.466 57.9399L142.05 62.5039H140.58L137.01 57.9679ZM143.623 55.5179C143.95 55.4992 144.29 55.4759 144.645 55.4479C145.009 55.4199 145.457 55.4059 145.989 55.4059C146.913 55.4059 147.576 55.5506 147.977 55.8399C148.378 56.1199 148.579 56.5492 148.579 57.1279C148.579 57.4546 148.481 57.7766 148.285 58.0939C148.098 58.4019 147.786 58.6306 147.347 58.7799V58.8359C147.898 58.9386 148.285 59.1299 148.509 59.4099C148.733 59.6899 148.845 60.0632 148.845 60.5299C148.845 61.2579 148.584 61.7852 148.061 62.1119C147.538 62.4386 146.754 62.6019 145.709 62.6019C145.317 62.6019 144.953 62.5879 144.617 62.5599C144.281 62.5412 143.95 62.5179 143.623 62.4899V55.5179ZM144.743 61.5659C144.92 61.5846 145.093 61.5986 145.261 61.6079C145.438 61.6172 145.644 61.6219 145.877 61.6219C146.502 61.6219 146.964 61.5332 147.263 61.3559C147.571 61.1786 147.725 60.8752 147.725 60.4459C147.725 60.1099 147.594 59.8392 147.333 59.6339C147.081 59.4192 146.628 59.3119 145.975 59.3119H144.743V61.5659ZM146.115 58.4579C146.283 58.4579 146.446 58.4299 146.605 58.3739C146.764 58.3179 146.904 58.2432 147.025 58.1499C147.156 58.0472 147.258 57.9306 147.333 57.7999C147.417 57.6692 147.459 57.5292 147.459 57.3799C147.459 57.0066 147.347 56.7499 147.123 56.6099C146.899 56.4606 146.507 56.3859 145.947 56.3859C145.648 56.3859 145.41 56.3906 145.233 56.3999C145.065 56.4092 144.902 56.4186 144.743 56.4279V58.4579H146.115ZM150.497 56.0219C150.852 55.8072 151.263 55.6486 151.729 55.5459C152.205 55.4432 152.7 55.3919 153.213 55.3919C153.699 55.3919 154.086 55.4572 154.375 55.5879C154.674 55.7186 154.898 55.8912 155.047 56.1059C155.206 56.3112 155.309 56.5399 155.355 56.7919C155.411 57.0439 155.439 57.2959 155.439 57.5479C155.439 58.1079 155.425 58.6539 155.397 59.1859C155.369 59.7179 155.355 60.2219 155.355 60.6979C155.355 61.0432 155.369 61.3699 155.397 61.6779C155.425 61.9859 155.477 62.2706 155.551 62.5319H154.725L154.431 61.5519H154.361C154.277 61.6826 154.17 61.8132 154.039 61.9439C153.918 62.0652 153.769 62.1772 153.591 62.2799C153.414 62.3732 153.209 62.4526 152.975 62.5179C152.742 62.5832 152.476 62.6159 152.177 62.6159C151.879 62.6159 151.599 62.5692 151.337 62.4759C151.085 62.3826 150.866 62.2519 150.679 62.0839C150.493 61.9066 150.343 61.6966 150.231 61.4539C150.129 61.2112 150.077 60.9359 150.077 60.6279C150.077 60.2172 150.161 59.8766 150.329 59.6059C150.497 59.3259 150.731 59.1066 151.029 58.9479C151.337 58.7799 151.701 58.6632 152.121 58.5979C152.551 58.5232 153.022 58.4859 153.535 58.4859C153.666 58.4859 153.792 58.4859 153.913 58.4859C154.044 58.4859 154.175 58.4952 154.305 58.5139C154.333 58.2339 154.347 57.9819 154.347 57.7579C154.347 57.2446 154.245 56.8852 154.039 56.6799C153.834 56.4746 153.461 56.3719 152.919 56.3719C152.761 56.3719 152.588 56.3859 152.401 56.4139C152.224 56.4326 152.037 56.4652 151.841 56.5119C151.655 56.5492 151.473 56.6006 151.295 56.6659C151.127 56.7219 150.978 56.7872 150.847 56.8619L150.497 56.0219ZM152.485 61.6359C152.747 61.6359 152.98 61.6032 153.185 61.5379C153.391 61.4632 153.568 61.3746 153.717 61.2719C153.867 61.1599 153.988 61.0386 154.081 60.9079C154.184 60.7772 154.259 60.6512 154.305 60.5299V59.3679C154.175 59.3586 154.039 59.3539 153.899 59.3539C153.769 59.3446 153.638 59.3399 153.507 59.3399C153.218 59.3399 152.933 59.3586 152.653 59.3959C152.383 59.4239 152.14 59.4846 151.925 59.5779C151.72 59.6619 151.552 59.7832 151.421 59.9419C151.3 60.0912 151.239 60.2826 151.239 60.5159C151.239 60.8426 151.356 61.1132 151.589 61.3279C151.823 61.5332 152.121 61.6359 152.485 61.6359ZM157.555 55.5039H158.325L158.535 56.3439H158.591C158.805 56.0172 159.081 55.7699 159.417 55.6019C159.762 55.4246 160.154 55.3359 160.593 55.3359C161.526 55.3359 162.221 55.6112 162.679 56.1619C163.136 56.7126 163.365 57.6132 163.365 58.8639C163.365 59.4519 163.285 59.9839 163.127 60.4599C162.977 60.9266 162.763 61.3232 162.483 61.6499C162.203 61.9766 161.862 62.2286 161.461 62.4059C161.069 62.5832 160.63 62.6719 160.145 62.6719C159.799 62.6719 159.524 62.6486 159.319 62.6019C159.123 62.5646 158.908 62.4946 158.675 62.3919V65.3039H157.555V55.5039ZM160.383 56.3159C159.907 56.3159 159.529 56.4419 159.249 56.6939C158.978 56.9366 158.787 57.3099 158.675 57.8139V61.2859C158.843 61.4166 159.034 61.5192 159.249 61.5939C159.463 61.6592 159.748 61.6919 160.103 61.6919C160.747 61.6919 161.255 61.4539 161.629 60.9779C162.011 60.4926 162.203 59.7832 162.203 58.8499C162.203 58.4672 162.17 58.1219 162.105 57.8139C162.039 57.4966 161.932 57.2306 161.783 57.0159C161.643 56.7919 161.456 56.6192 161.223 56.4979C160.999 56.3766 160.719 56.3159 160.383 56.3159ZM169.376 56.4839H167.178V62.5039H166.058V56.4839H163.86V55.5039H169.376V56.4839ZM174.856 58.3599L174.898 57.4919H174.856L174.282 58.3879L171.132 62.5039H170.488V55.5039H171.608V59.7739L171.566 60.5999H171.622L172.168 59.7319L175.318 55.5039H175.976V62.5039H174.856V58.3599ZM178.131 55.5039H178.901L179.111 56.3439H179.167C179.381 56.0172 179.657 55.7699 179.993 55.6019C180.338 55.4246 180.73 55.3359 181.169 55.3359C182.102 55.3359 182.797 55.6112 183.255 56.1619C183.712 56.7126 183.941 57.6132 183.941 58.8639C183.941 59.4519 183.861 59.9839 183.703 60.4599C183.553 60.9266 183.339 61.3232 183.059 61.6499C182.779 61.9766 182.438 62.2286 182.037 62.4059C181.645 62.5832 181.206 62.6719 180.721 62.6719C180.375 62.6719 180.1 62.6486 179.895 62.6019C179.699 62.5646 179.484 62.4946 179.251 62.3919V65.3039H178.131V55.5039ZM180.959 56.3159C180.483 56.3159 180.105 56.4419 179.825 56.6939C179.554 56.9366 179.363 57.3099 179.251 57.8139V61.2859C179.419 61.4166 179.61 61.5192 179.825 61.5939C180.039 61.6592 180.324 61.6919 180.679 61.6919C181.323 61.6919 181.831 61.4539 182.205 60.9779C182.587 60.4926 182.779 59.7832 182.779 58.8499C182.779 58.4672 182.746 58.1219 182.681 57.8139C182.615 57.4966 182.508 57.2306 182.359 57.0159C182.219 56.7919 182.032 56.6192 181.799 56.4979C181.575 56.3766 181.295 56.3159 180.959 56.3159ZM185.593 56.0219C185.948 55.8072 186.358 55.6486 186.825 55.5459C187.301 55.4432 187.796 55.3919 188.309 55.3919C188.794 55.3919 189.182 55.4572 189.471 55.5879C189.77 55.7186 189.994 55.8912 190.143 56.1059C190.302 56.3112 190.404 56.5399 190.451 56.7919C190.507 57.0439 190.535 57.2959 190.535 57.5479C190.535 58.1079 190.521 58.6539 190.493 59.1859C190.465 59.7179 190.451 60.2219 190.451 60.6979C190.451 61.0432 190.465 61.3699 190.493 61.6779C190.521 61.9859 190.572 62.2706 190.647 62.5319H189.821L189.527 61.5519H189.457C189.373 61.6826 189.266 61.8132 189.135 61.9439C189.014 62.0652 188.864 62.1772 188.687 62.2799C188.51 62.3732 188.304 62.4526 188.071 62.5179C187.838 62.5832 187.572 62.6159 187.273 62.6159C186.974 62.6159 186.694 62.5692 186.433 62.4759C186.181 62.3826 185.962 62.2519 185.775 62.0839C185.588 61.9066 185.439 61.6966 185.327 61.4539C185.224 61.2112 185.173 60.9359 185.173 60.6279C185.173 60.2172 185.257 59.8766 185.425 59.6059C185.593 59.3259 185.826 59.1066 186.125 58.9479C186.433 58.7799 186.797 58.6632 187.217 58.5979C187.646 58.5232 188.118 58.4859 188.631 58.4859C188.762 58.4859 188.888 58.4859 189.009 58.4859C189.14 58.4859 189.27 58.4952 189.401 58.5139C189.429 58.2339 189.443 57.9819 189.443 57.7579C189.443 57.2446 189.34 56.8852 189.135 56.6799C188.93 56.4746 188.556 56.3719 188.015 56.3719C187.856 56.3719 187.684 56.3859 187.497 56.4139C187.32 56.4326 187.133 56.4652 186.937 56.5119C186.75 56.5492 186.568 56.6006 186.391 56.6659C186.223 56.7219 186.074 56.7872 185.943 56.8619L185.593 56.0219ZM187.581 61.6359C187.842 61.6359 188.076 61.6032 188.281 61.5379C188.486 61.4632 188.664 61.3746 188.813 61.2719C188.962 61.1599 189.084 61.0386 189.177 60.9079C189.28 60.7772 189.354 60.6512 189.401 60.5299V59.3679C189.27 59.3586 189.135 59.3539 188.995 59.3539C188.864 59.3446 188.734 59.3399 188.603 59.3399C188.314 59.3399 188.029 59.3586 187.749 59.3959C187.478 59.4239 187.236 59.4846 187.021 59.5779C186.816 59.6619 186.648 59.7832 186.517 59.9419C186.396 60.0912 186.335 60.2826 186.335 60.5159C186.335 60.8426 186.452 61.1132 186.685 61.3279C186.918 61.5332 187.217 61.6359 187.581 61.6359Z" fill="#292E31"/>
<path fill-rule="evenodd" clip-rule="evenodd" d="M163.504 27.0038V4C163.504 2.34315 162.161 1 160.504 1H54.05C52.3737 1 51.0227 2.37355 51.0504 4.04957L51.4297 27.0038H1V87.9813C1 89.6454 2.35455 90.9916 4.01866 90.9812L238.525 89.5223C240.174 89.5121 241.506 88.172 241.506 86.5224V30.0025C241.506 28.3456 240.163 27.0024 238.506 27.0025L163.504 27.0038Z" stroke="#ACACAC"/>
<path d="M82.9961 27H162.996" stroke="#ACACAC"/>
<path d="M60 27H83" stroke="#ACACAC"/>
<path d="M84 66V90.5815" stroke="#ACACAC"/>
<path d="M84 27V51.5815" stroke="#ACACAC"/>
</svg>
